<?xml version="1.0" encoding="utf-8" standalone="no"?>
<!DOCTYPE svg PUBLIC "-//W3C//DTD SVG 1.1//EN"
  "http://www.w3.org/Graphics/SVG/1.1/DTD/svg11.dtd">
<svg xmlns:xlink="http://www.w3.org/1999/xlink" width="877.6pt" height="370.637687pt" viewBox="0 0 877.6 370.637687" xmlns="http://www.w3.org/2000/svg" version="1.1">
 <defs>
  <style type="text/css">*{stroke-linejoin: round; stroke-linecap: butt}</style>
 </defs>
 <g id="figure_1">
  <g id="patch_1">
   <path d="M 0 370.637687 
L 877.6 370.637687 
L 877.6 0 
L 0 0 
L 0 370.637687 
z
" style="fill: none"/>
  </g>
  <g id="axes_1">
   <g id="patch_2">
    <path d="M 47.1 318.56425 
L 420.445 318.56425 
L 420.445 31.43625 
L 47.1 31.43625 
L 47.1 318.56425 
z
" style="fill: none"/>
   </g>
   <g id="matplotlib.axis_1">
    <g id="xtick_1">
     <g id="line2d_1">
      <defs>
       <path id="md39032bed2" d="M 0 0 
L 0 3.5 
" style="stroke: #000000; stroke-width: 0.8"/>
      </defs>
      <g>
       <use xlink:href="#md39032bed2" x="81.44007" y="318.56425" style="stroke: #000000; stroke-width: 0.8"/>
      </g>
     </g>
     <g id="text_1">
      <!-- $\mathdefault{10^{2}}$ -->
      <g transform="translate(68.24007 336.961906)scale(0.15 -0.15)">
       <defs>
        <path id="DejaVuSans-31" d="M 794 531 
L 1825 531 
L 1825 4091 
L 703 3866 
L 703 4441 
L 1819 4666 
L 2450 4666 
L 2450 531 
L 3481 531 
L 3481 0 
L 794 0 
L 794 531 
z
" transform="scale(0.015625)"/>
        <path id="DejaVuSans-30" d="M 2034 4250 
Q 1547 4250 1301 3770 
Q 1056 3291 1056 2328 
Q 1056 1369 1301 889 
Q 1547 409 2034 409 
Q 2525 409 2770 889 
Q 3016 1369 3016 2328 
Q 3016 3291 2770 3770 
Q 2525 4250 2034 4250 
z
M 2034 4750 
Q 2819 4750 3233 4129 
Q 3647 3509 3647 2328 
Q 3647 1150 3233 529 
Q 2819 -91 2034 -91 
Q 1250 -91 836 529 
Q 422 1150 422 2328 
Q 422 3509 836 4129 
Q 1250 4750 2034 4750 
z
" transform="scale(0.015625)"/>
        <path id="DejaVuSans-32" d="M 1228 531 
L 3431 531 
L 3431 0 
L 469 0 
L 469 531 
Q 828 903 1448 1529 
Q 2069 2156 2228 2338 
Q 2531 2678 2651 2914 
Q 2772 3150 2772 3378 
Q 2772 3750 2511 3984 
Q 2250 4219 1831 4219 
Q 1534 4219 1204 4116 
Q 875 4013 500 3803 
L 500 4441 
Q 881 4594 1212 4672 
Q 1544 4750 1819 4750 
Q 2544 4750 2975 4387 
Q 3406 4025 3406 3419 
Q 3406 3131 3298 2873 
Q 3191 2616 2906 2266 
Q 2828 2175 2409 1742 
Q 1991 1309 1228 531 
z
" transform="scale(0.015625)"/>
       </defs>
       <use xlink:href="#DejaVuSans-31" transform="translate(0 0.765625)"/>
       <use xlink:href="#DejaVuSans-30" transform="translate(63.623047 0.765625)"/>
       <use xlink:href="#DejaVuSans-32" transform="translate(128.203125 39.046875)scale(0.7)"/>
      </g>
     </g>
    </g>
    <g id="xtick_2">
     <g id="line2d_2">
      <g>
       <use xlink:href="#md39032bed2" x="258.615105" y="318.56425" style="stroke: #000000; stroke-width: 0.8"/>
      </g>
     </g>
     <g id="text_2">
      <!-- $\mathdefault{10^{3}}$ -->
      <g transform="translate(245.415105 336.961906)scale(0.15 -0.15)">
       <defs>
        <path id="DejaVuSans-33" d="M 2597 2516 
Q 3050 2419 3304 2112 
Q 3559 1806 3559 1356 
Q 3559 666 3084 287 
Q 2609 -91 1734 -91 
Q 1441 -91 1130 -33 
Q 819 25 488 141 
L 488 750 
Q 750 597 1062 519 
Q 1375 441 1716 441 
Q 2309 441 2620 675 
Q 2931 909 2931 1356 
Q 2931 1769 2642 2001 
Q 2353 2234 1838 2234 
L 1294 2234 
L 1294 2753 
L 1863 2753 
Q 2328 2753 2575 2939 
Q 2822 3125 2822 3475 
Q 2822 3834 2567 4026 
Q 2313 4219 1838 4219 
Q 1578 4219 1281 4162 
Q 984 4106 628 3988 
L 628 4550 
Q 988 4650 1302 4700 
Q 1616 4750 1894 4750 
Q 2613 4750 3031 4423 
Q 3450 4097 3450 3541 
Q 3450 3153 3228 2886 
Q 3006 2619 2597 2516 
z
" transform="scale(0.015625)"/>
       </defs>
       <use xlink:href="#DejaVuSans-31" transform="translate(0 0.765625)"/>
       <use xlink:href="#DejaVuSans-30" transform="translate(63.623047 0.765625)"/>
       <use xlink:href="#DejaVuSans-33" transform="translate(128.203125 39.046875)scale(0.7)"/>
      </g>
     </g>
    </g>
    <g id="xtick_3">
     <g id="line2d_3">
      <defs>
       <path id="m00e623f56d" d="M 0 0 
L 0 2 
" style="stroke: #000000; stroke-width: 0.6"/>
      </defs>
      <g>
       <use xlink:href="#m00e623f56d" x="53.99531" y="318.56425" style="stroke: #000000; stroke-width: 0.6"/>
      </g>
     </g>
    </g>
    <g id="xtick_4">
     <g id="line2d_4">
      <g>
       <use xlink:href="#m00e623f56d" x="64.270035" y="318.56425" style="stroke: #000000; stroke-width: 0.6"/>
      </g>
     </g>
    </g>
    <g id="xtick_5">
     <g id="line2d_5">
      <g>
       <use xlink:href="#m00e623f56d" x="73.332985" y="318.56425" style="stroke: #000000; stroke-width: 0.6"/>
      </g>
     </g>
    </g>
    <g id="xtick_6">
     <g id="line2d_6">
      <g>
       <use xlink:href="#m00e623f56d" x="134.77507" y="318.56425" style="stroke: #000000; stroke-width: 0.6"/>
      </g>
     </g>
    </g>
    <g id="xtick_7">
     <g id="line2d_7">
      <g>
       <use xlink:href="#m00e623f56d" x="165.974045" y="318.56425" style="stroke: #000000; stroke-width: 0.6"/>
      </g>
     </g>
    </g>
    <g id="xtick_8">
     <g id="line2d_8">
      <g>
       <use xlink:href="#m00e623f56d" x="188.11007" y="318.56425" style="stroke: #000000; stroke-width: 0.6"/>
      </g>
     </g>
    </g>
    <g id="xtick_9">
     <g id="line2d_9">
      <g>
       <use xlink:href="#m00e623f56d" x="205.280105" y="318.56425" style="stroke: #000000; stroke-width: 0.6"/>
      </g>
     </g>
    </g>
    <g id="xtick_10">
     <g id="line2d_10">
      <g>
       <use xlink:href="#m00e623f56d" x="219.309045" y="318.56425" style="stroke: #000000; stroke-width: 0.6"/>
      </g>
     </g>
    </g>
    <g id="xtick_11">
     <g id="line2d_11">
      <g>
       <use xlink:href="#m00e623f56d" x="231.170345" y="318.56425" style="stroke: #000000; stroke-width: 0.6"/>
      </g>
     </g>
    </g>
    <g id="xtick_12">
     <g id="line2d_12">
      <g>
       <use xlink:href="#m00e623f56d" x="241.44507" y="318.56425" style="stroke: #000000; stroke-width: 0.6"/>
      </g>
     </g>
    </g>
    <g id="xtick_13">
     <g id="line2d_13">
      <g>
       <use xlink:href="#m00e623f56d" x="250.50802" y="318.56425" style="stroke: #000000; stroke-width: 0.6"/>
      </g>
     </g>
    </g>
    <g id="xtick_14">
     <g id="line2d_14">
      <g>
       <use xlink:href="#m00e623f56d" x="311.950105" y="318.56425" style="stroke: #000000; stroke-width: 0.6"/>
      </g>
     </g>
    </g>
    <g id="xtick_15">
     <g id="line2d_15">
      <g>
       <use xlink:href="#m00e623f56d" x="343.14908" y="318.56425" style="stroke: #000000; stroke-width: 0.6"/>
      </g>
     </g>
    </g>
    <g id="xtick_16">
     <g id="line2d_16">
      <g>
       <use xlink:href="#m00e623f56d" x="365.285105" y="318.56425" style="stroke: #000000; stroke-width: 0.6"/>
      </g>
     </g>
    </g>
    <g id="xtick_17">
     <g id="line2d_17">
      <g>
       <use xlink:href="#m00e623f56d" x="382.45514" y="318.56425" style="stroke: #000000; stroke-width: 0.6"/>
      </g>
     </g>
    </g>
    <g id="xtick_18">
     <g id="line2d_18">
      <g>
       <use xlink:href="#m00e623f56d" x="396.48408" y="318.56425" style="stroke: #000000; stroke-width: 0.6"/>
      </g>
     </g>
    </g>
    <g id="xtick_19">
     <g id="line2d_19">
      <g>
       <use xlink:href="#m00e623f56d" x="408.34538" y="318.56425" style="stroke: #000000; stroke-width: 0.6"/>
      </g>
     </g>
    </g>
    <g id="xtick_20">
     <g id="line2d_20">
      <g>
       <use xlink:href="#m00e623f56d" x="418.620105" y="318.56425" style="stroke: #000000; stroke-width: 0.6"/>
      </g>
     </g>
    </g>
    <g id="text_3">
     <!-- Pages -->
     <g transform="translate(204.35375 359.278312)scale(0.2 -0.2)">
      <defs>
       <path id="DejaVuSans-50" d="M 1259 4147 
L 1259 2394 
L 2053 2394 
Q 2494 2394 2734 2622 
Q 2975 2850 2975 3272 
Q 2975 3691 2734 3919 
Q 2494 4147 2053 4147 
L 1259 4147 
z
M 628 4666 
L 2053 4666 
Q 2838 4666 3239 4311 
Q 3641 3956 3641 3272 
Q 3641 2581 3239 2228 
Q 2838 1875 2053 1875 
L 1259 1875 
L 1259 0 
L 628 0 
L 628 4666 
z
" transform="scale(0.015625)"/>
       <path id="DejaVuSans-61" d="M 2194 1759 
Q 1497 1759 1228 1600 
Q 959 1441 959 1056 
Q 959 750 1161 570 
Q 1363 391 1709 391 
Q 2188 391 2477 730 
Q 2766 1069 2766 1631 
L 2766 1759 
L 2194 1759 
z
M 3341 1997 
L 3341 0 
L 2766 0 
L 2766 531 
Q 2569 213 2275 61 
Q 1981 -91 1556 -91 
Q 1019 -91 701 211 
Q 384 513 384 1019 
Q 384 1609 779 1909 
Q 1175 2209 1959 2209 
L 2766 2209 
L 2766 2266 
Q 2766 2663 2505 2880 
Q 2244 3097 1772 3097 
Q 1472 3097 1187 3025 
Q 903 2953 641 2809 
L 641 3341 
Q 956 3463 1253 3523 
Q 1550 3584 1831 3584 
Q 2591 3584 2966 3190 
Q 3341 2797 3341 1997 
z
" transform="scale(0.015625)"/>
       <path id="DejaVuSans-67" d="M 2906 1791 
Q 2906 2416 2648 2759 
Q 2391 3103 1925 3103 
Q 1463 3103 1205 2759 
Q 947 2416 947 1791 
Q 947 1169 1205 825 
Q 1463 481 1925 481 
Q 2391 481 2648 825 
Q 2906 1169 2906 1791 
z
M 3481 434 
Q 3481 -459 3084 -895 
Q 2688 -1331 1869 -1331 
Q 1566 -1331 1297 -1286 
Q 1028 -1241 775 -1147 
L 775 -588 
Q 1028 -725 1275 -790 
Q 1522 -856 1778 -856 
Q 2344 -856 2625 -561 
Q 2906 -266 2906 331 
L 2906 616 
Q 2728 306 2450 153 
Q 2172 0 1784 0 
Q 1141 0 747 490 
Q 353 981 353 1791 
Q 353 2603 747 3093 
Q 1141 3584 1784 3584 
Q 2172 3584 2450 3431 
Q 2728 3278 2906 2969 
L 2906 3500 
L 3481 3500 
L 3481 434 
z
" transform="scale(0.015625)"/>
       <path id="DejaVuSans-65" d="M 3597 1894 
L 3597 1613 
L 953 1613 
Q 991 1019 1311 708 
Q 1631 397 2203 397 
Q 2534 397 2845 478 
Q 3156 559 3463 722 
L 3463 178 
Q 3153 47 2828 -22 
Q 2503 -91 2169 -91 
Q 1331 -91 842 396 
Q 353 884 353 1716 
Q 353 2575 817 3079 
Q 1281 3584 2069 3584 
Q 2775 3584 3186 3129 
Q 3597 2675 3597 1894 
z
M 3022 2063 
Q 3016 2534 2758 2815 
Q 2500 3097 2075 3097 
Q 1594 3097 1305 2825 
Q 1016 2553 972 2059 
L 3022 2063 
z
" transform="scale(0.015625)"/>
       <path id="DejaVuSans-73" d="M 2834 3397 
L 2834 2853 
Q 2591 2978 2328 3040 
Q 2066 3103 1784 3103 
Q 1356 3103 1142 2972 
Q 928 2841 928 2578 
Q 928 2378 1081 2264 
Q 1234 2150 1697 2047 
L 1894 2003 
Q 2506 1872 2764 1633 
Q 3022 1394 3022 966 
Q 3022 478 2636 193 
Q 2250 -91 1575 -91 
Q 1294 -91 989 -36 
Q 684 19 347 128 
L 347 722 
Q 666 556 975 473 
Q 1284 391 1588 391 
Q 1994 391 2212 530 
Q 2431 669 2431 922 
Q 2431 1156 2273 1281 
Q 2116 1406 1581 1522 
L 1381 1569 
Q 847 1681 609 1914 
Q 372 2147 372 2553 
Q 372 3047 722 3315 
Q 1072 3584 1716 3584 
Q 2034 3584 2315 3537 
Q 2597 3491 2834 3397 
z
" transform="scale(0.015625)"/>
      </defs>
      <use xlink:href="#DejaVuSans-50"/>
      <use xlink:href="#DejaVuSans-61" x="55.802734"/>
      <use xlink:href="#DejaVuSans-67" x="117.082031"/>
      <use xlink:href="#DejaVuSans-65" x="180.558594"/>
      <use xlink:href="#DejaVuSans-73" x="242.082031"/>
     </g>
    </g>
   </g>
   <g id="matplotlib.axis_2">
    <g id="ytick_1">
     <g id="line2d_21">
      <defs>
       <path id="m6f3f5b6aff" d="M 0 0 
L -3.5 0 
" style="stroke: #000000; stroke-width: 0.8"/>
      </defs>
      <g>
       <use xlink:href="#m6f3f5b6aff" x="47.1" y="318.56425" style="stroke: #000000; stroke-width: 0.8"/>
      </g>
     </g>
     <g id="text_4">
      <!-- 0 -->
      <g transform="translate(30.55625 324.263078)scale(0.15 -0.15)">
       <use xlink:href="#DejaVuSans-30"/>
      </g>
     </g>
    </g>
    <g id="ytick_2">
     <g id="line2d_22">
      <g>
       <use xlink:href="#m6f3f5b6aff" x="47.1" y="263.346987" style="stroke: #000000; stroke-width: 0.8"/>
      </g>
     </g>
     <g id="text_5">
      <!-- 1 -->
      <g transform="translate(30.55625 269.045815)scale(0.15 -0.15)">
       <use xlink:href="#DejaVuSans-31"/>
      </g>
     </g>
    </g>
    <g id="ytick_3">
     <g id="line2d_23">
      <g>
       <use xlink:href="#m6f3f5b6aff" x="47.1" y="208.129724" style="stroke: #000000; stroke-width: 0.8"/>
      </g>
     </g>
     <g id="text_6">
      <!-- 2 -->
      <g transform="translate(30.55625 213.828552)scale(0.15 -0.15)">
       <use xlink:href="#DejaVuSans-32"/>
      </g>
     </g>
    </g>
    <g id="ytick_4">
     <g id="line2d_24">
      <g>
       <use xlink:href="#m6f3f5b6aff" x="47.1" y="152.912461" style="stroke: #000000; stroke-width: 0.8"/>
      </g>
     </g>
     <g id="text_7">
      <!-- 3 -->
      <g transform="translate(30.55625 158.611289)scale(0.15 -0.15)">
       <use xlink:href="#DejaVuSans-33"/>
      </g>
     </g>
    </g>
    <g id="ytick_5">
     <g id="line2d_25">
      <g>
       <use xlink:href="#m6f3f5b6aff" x="47.1" y="97.695198" style="stroke: #000000; stroke-width: 0.8"/>
      </g>
     </g>
     <g id="text_8">
      <!-- 4 -->
      <g transform="translate(30.55625 103.394027)scale(0.15 -0.15)">
       <defs>
        <path id="DejaVuSans-34" d="M 2419 4116 
L 825 1625 
L 2419 1625 
L 2419 4116 
z
M 2253 4666 
L 3047 4666 
L 3047 1625 
L 3713 1625 
L 3713 1100 
L 3047 1100 
L 3047 0 
L 2419 0 
L 2419 1100 
L 313 1100 
L 313 1709 
L 2253 4666 
z
" transform="scale(0.015625)"/>
       </defs>
       <use xlink:href="#DejaVuSans-34"/>
      </g>
     </g>
    </g>
    <g id="ytick_6">
     <g id="line2d_26">
      <g>
       <use xlink:href="#m6f3f5b6aff" x="47.1" y="42.477936" style="stroke: #000000; stroke-width: 0.8"/>
      </g>
     </g>
     <g id="text_9">
      <!-- 5 -->
      <g transform="translate(30.55625 48.176764)scale(0.15 -0.15)">
       <defs>
        <path id="DejaVuSans-35" d="M 691 4666 
L 3169 4666 
L 3169 4134 
L 1269 4134 
L 1269 2991 
Q 1406 3038 1543 3061 
Q 1681 3084 1819 3084 
Q 2600 3084 3056 2656 
Q 3513 2228 3513 1497 
Q 3513 744 3044 326 
Q 2575 -91 1722 -91 
Q 1428 -91 1123 -41 
Q 819 9 494 109 
L 494 744 
Q 775 591 1075 516 
Q 1375 441 1709 441 
Q 2250 441 2565 725 
Q 2881 1009 2881 1497 
Q 2881 1984 2565 2268 
Q 2250 2553 1709 2553 
Q 1456 2553 1204 2497 
Q 953 2441 691 2322 
L 691 4666 
z
" transform="scale(0.015625)"/>
       </defs>
       <use xlink:href="#DejaVuSans-35"/>
      </g>
     </g>
    </g>
    <g id="text_10">
     <!-- Count Difference -->
     <g transform="translate(22.396875 259.57525)rotate(-90)scale(0.2 -0.2)">
      <defs>
       <path id="DejaVuSans-43" d="M 4122 4306 
L 4122 3641 
Q 3803 3938 3442 4084 
Q 3081 4231 2675 4231 
Q 1875 4231 1450 3742 
Q 1025 3253 1025 2328 
Q 1025 1406 1450 917 
Q 1875 428 2675 428 
Q 3081 428 3442 575 
Q 3803 722 4122 1019 
L 4122 359 
Q 3791 134 3420 21 
Q 3050 -91 2638 -91 
Q 1578 -91 968 557 
Q 359 1206 359 2328 
Q 359 3453 968 4101 
Q 1578 4750 2638 4750 
Q 3056 4750 3426 4639 
Q 3797 4528 4122 4306 
z
" transform="scale(0.015625)"/>
       <path id="DejaVuSans-6f" d="M 1959 3097 
Q 1497 3097 1228 2736 
Q 959 2375 959 1747 
Q 959 1119 1226 758 
Q 1494 397 1959 397 
Q 2419 397 2687 759 
Q 2956 1122 2956 1747 
Q 2956 2369 2687 2733 
Q 2419 3097 1959 3097 
z
M 1959 3584 
Q 2709 3584 3137 3096 
Q 3566 2609 3566 1747 
Q 3566 888 3137 398 
Q 2709 -91 1959 -91 
Q 1206 -91 779 398 
Q 353 888 353 1747 
Q 353 2609 779 3096 
Q 1206 3584 1959 3584 
z
" transform="scale(0.015625)"/>
       <path id="DejaVuSans-75" d="M 544 1381 
L 544 3500 
L 1119 3500 
L 1119 1403 
Q 1119 906 1312 657 
Q 1506 409 1894 409 
Q 2359 409 2629 706 
Q 2900 1003 2900 1516 
L 2900 3500 
L 3475 3500 
L 3475 0 
L 2900 0 
L 2900 538 
Q 2691 219 2414 64 
Q 2138 -91 1772 -91 
Q 1169 -91 856 284 
Q 544 659 544 1381 
z
M 1991 3584 
L 1991 3584 
z
" transform="scale(0.015625)"/>
       <path id="DejaVuSans-6e" d="M 3513 2113 
L 3513 0 
L 2938 0 
L 2938 2094 
Q 2938 2591 2744 2837 
Q 2550 3084 2163 3084 
Q 1697 3084 1428 2787 
Q 1159 2491 1159 1978 
L 1159 0 
L 581 0 
L 581 3500 
L 1159 3500 
L 1159 2956 
Q 1366 3272 1645 3428 
Q 1925 3584 2291 3584 
Q 2894 3584 3203 3211 
Q 3513 2838 3513 2113 
z
" transform="scale(0.015625)"/>
       <path id="DejaVuSans-74" d="M 1172 4494 
L 1172 3500 
L 2356 3500 
L 2356 3053 
L 1172 3053 
L 1172 1153 
Q 1172 725 1289 603 
Q 1406 481 1766 481 
L 2356 481 
L 2356 0 
L 1766 0 
Q 1100 0 847 248 
Q 594 497 594 1153 
L 594 3053 
L 172 3053 
L 172 3500 
L 594 3500 
L 594 4494 
L 1172 4494 
z
" transform="scale(0.015625)"/>
       <path id="DejaVuSans-20" transform="scale(0.015625)"/>
       <path id="DejaVuSans-44" d="M 1259 4147 
L 1259 519 
L 2022 519 
Q 2988 519 3436 956 
Q 3884 1394 3884 2338 
Q 3884 3275 3436 3711 
Q 2988 4147 2022 4147 
L 1259 4147 
z
M 628 4666 
L 1925 4666 
Q 3281 4666 3915 4102 
Q 4550 3538 4550 2338 
Q 4550 1131 3912 565 
Q 3275 0 1925 0 
L 628 0 
L 628 4666 
z
" transform="scale(0.015625)"/>
       <path id="DejaVuSans-69" d="M 603 3500 
L 1178 3500 
L 1178 0 
L 603 0 
L 603 3500 
z
M 603 4863 
L 1178 4863 
L 1178 4134 
L 603 4134 
L 603 4863 
z
" transform="scale(0.015625)"/>
       <path id="DejaVuSans-66" d="M 2375 4863 
L 2375 4384 
L 1825 4384 
Q 1516 4384 1395 4259 
Q 1275 4134 1275 3809 
L 1275 3500 
L 2222 3500 
L 2222 3053 
L 1275 3053 
L 1275 0 
L 697 0 
L 697 3053 
L 147 3053 
L 147 3500 
L 697 3500 
L 697 3744 
Q 697 4328 969 4595 
Q 1241 4863 1831 4863 
L 2375 4863 
z
" transform="scale(0.015625)"/>
       <path id="DejaVuSans-72" d="M 2631 2963 
Q 2534 3019 2420 3045 
Q 2306 3072 2169 3072 
Q 1681 3072 1420 2755 
Q 1159 2438 1159 1844 
L 1159 0 
L 581 0 
L 581 3500 
L 1159 3500 
L 1159 2956 
Q 1341 3275 1631 3429 
Q 1922 3584 2338 3584 
Q 2397 3584 2469 3576 
Q 2541 3569 2628 3553 
L 2631 2963 
z
" transform="scale(0.015625)"/>
       <path id="DejaVuSans-63" d="M 3122 3366 
L 3122 2828 
Q 2878 2963 2633 3030 
Q 2388 3097 2138 3097 
Q 1578 3097 1268 2742 
Q 959 2388 959 1747 
Q 959 1106 1268 751 
Q 1578 397 2138 397 
Q 2388 397 2633 464 
Q 2878 531 3122 666 
L 3122 134 
Q 2881 22 2623 -34 
Q 2366 -91 2075 -91 
Q 1284 -91 818 406 
Q 353 903 353 1747 
Q 353 2603 823 3093 
Q 1294 3584 2113 3584 
Q 2378 3584 2631 3529 
Q 2884 3475 3122 3366 
z
" transform="scale(0.015625)"/>
      </defs>
      <use xlink:href="#DejaVuSans-43"/>
      <use xlink:href="#DejaVuSans-6f" x="69.824219"/>
      <use xlink:href="#DejaVuSans-75" x="131.005859"/>
      <use xlink:href="#DejaVuSans-6e" x="194.384766"/>
      <use xlink:href="#DejaVuSans-74" x="257.763672"/>
      <use xlink:href="#DejaVuSans-20" x="296.972656"/>
      <use xlink:href="#DejaVuSans-44" x="328.759766"/>
      <use xlink:href="#DejaVuSans-69" x="405.761719"/>
      <use xlink:href="#DejaVuSans-66" x="433.544922"/>
      <use xlink:href="#DejaVuSans-66" x="468.75"/>
      <use xlink:href="#DejaVuSans-65" x="503.955078"/>
      <use xlink:href="#DejaVuSans-72" x="565.478516"/>
      <use xlink:href="#DejaVuSans-65" x="604.341797"/>
      <use xlink:href="#DejaVuSans-6e" x="665.865234"/>
      <use xlink:href="#DejaVuSans-63" x="729.244141"/>
      <use xlink:href="#DejaVuSans-65" x="784.224609"/>
     </g>
    </g>
   </g>
   <g id="line2d_27">
    <path d="M 47.1 318.552102 
L 78.298975 318.516763 
L 100.435 318.253377 
L 117.605035 307.346863 
L 131.633975 300.039963 
L 153.77 290.871688 
L 184.968975 281.719979 
L 207.105 277.107681 
L 238.303975 272.536244 
L 260.44 270.243071 
L 291.638975 267.941616 
L 313.775 266.79144 
L 344.973975 265.64789 
L 367.11 265.075287 
L 398.308975 264.50158 
L 420.445 264.211689 
" clip-path="url(#p099dfa88d9)" style="fill: none; stroke: #1f77b4; stroke-width: 1.5; stroke-linecap: square"/>
   </g>
   <g id="line2d_28">
    <path d="M 47.1 318.56425 
L 78.298975 318.56425 
L 100.435 318.56425 
L 117.605035 318.56425 
L 131.633975 318.56425 
L 153.77 318.56425 
L 184.968975 318.56425 
L 207.105 318.563146 
L 238.303975 318.54658 
L 260.44 318.378168 
L 291.638975 300.032232 
L 313.775 290.831932 
L 344.973975 281.649853 
L 367.11 277.058538 
L 398.308975 272.444583 
L 420.445 270.153619 
" clip-path="url(#p099dfa88d9)" style="fill: none; stroke: #ff7f0e; stroke-width: 1.5; stroke-linecap: square"/>
   </g>
   <g id="line2d_29">
    <path d="M 47.1 318.56425 
L 78.298975 318.56425 
L 100.435 318.56425 
L 117.605035 318.56425 
L 131.633975 318.56425 
L 153.77 318.56425 
L 184.968975 318.56425 
L 207.105 318.560385 
L 238.303975 318.546028 
L 260.44 318.367677 
L 291.638975 300.030576 
L 313.775 290.842975 
L 344.973975 281.650405 
L 367.11 277.058538 
L 398.308975 272.447344 
L 420.445 270.155828 
" clip-path="url(#p099dfa88d9)" style="fill: none; stroke: #2ca02c; stroke-width: 1.5; stroke-linecap: square"/>
   </g>
   <g id="line2d_30">
    <path d="M 47.1 131.192751 
L 78.298975 89.743913 
L 100.435 131.47215 
L 117.605035 70.278723 
L 131.633975 71.193673 
L 153.77 103.983893 
L 184.968975 52.94989 
L 207.105 90.383881 
L 238.303975 45.111247 
L 260.44 87.349692 
L 291.638975 128.308201 
L 313.775 211.367665 
L 344.973975 211.695103 
L 367.11 274.905617 
L 398.308975 255.311771 
L 420.445 278.662599 
" clip-path="url(#p099dfa88d9)" style="fill: none; stroke: #d62728; stroke-width: 1.5; stroke-linecap: square"/>
   </g>
   <g id="line2d_31">
    <path d="M 47.1 297.369104 
L 78.298975 293.145535 
L 100.435 297.412725 
L 117.605035 281.624453 
L 131.633975 274.730026 
L 153.77 270.132637 
L 184.968975 256.417221 
L 207.105 256.296847 
L 238.303975 247.336742 
L 260.44 249.89551 
L 291.638975 252.169909 
L 313.775 260.000821 
L 344.973975 258.930158 
L 367.11 264.932275 
L 398.308975 262.050486 
L 420.445 263.953273 
" clip-path="url(#p099dfa88d9)" style="fill: none; stroke: #9467bd; stroke-width: 1.5; stroke-linecap: square"/>
   </g>
   <g id="line2d_32">
    <path d="M 47.1 318.516763 
L 78.298975 318.436698 
L 100.435 318.252272 
L 117.605035 307.27232 
L 131.633975 300.035545 
L 153.77 290.881075 
L 184.968975 281.738753 
L 207.105 277.192164 
L 238.303975 272.688644 
L 260.44 270.46891 
L 291.638975 249.605619 
L 313.775 239.136426 
L 344.973975 228.750611 
L 367.11 223.638045 
L 398.308975 218.424983 
L 420.445 215.865663 
" clip-path="url(#p099dfa88d9)" style="fill: none; stroke: #8c564b; stroke-width: 1.5; stroke-linecap: square"/>
   </g>
   <g id="line2d_33">
    <path d="M 47.1 318.549341 
L 78.298975 318.510137 
L 100.435 318.245646 
L 117.605035 307.345759 
L 131.633975 300.035545 
L 153.77 290.88494 
L 184.968975 281.716114 
L 207.105 277.105473 
L 238.303975 272.515261 
L 260.44 270.046498 
L 291.638975 249.398554 
L 313.775 239.046422 
L 344.973975 228.707542 
L 367.11 223.53258 
L 398.308975 218.330009 
L 420.445 215.74308 
" clip-path="url(#p099dfa88d9)" style="fill: none; stroke: #e377c2; stroke-width: 1.5; stroke-linecap: square"/>
   </g>
   <g id="line2d_34">
    <path d="M 47.1 277.018781 
L 78.298975 267.870385 
L 100.435 277.014364 
L 117.605035 266.040485 
L 131.633975 267.878668 
L 153.77 277.008842 
L 184.968975 267.877564 
L 207.105 277.044181 
L 238.303975 268.103402 
L 260.44 277.954714 
L 291.638975 286.625481 
L 313.775 304.867056 
L 344.973975 304.828956 
L 367.11 318.558176 
L 398.308975 313.990604 
L 420.445 318.545476 
" clip-path="url(#p099dfa88d9)" style="fill: none; stroke: #7f7f7f; stroke-width: 1.5; stroke-linecap: square"/>
   </g>
   <g id="line2d_35">
    <path d="M 47.1 318.550446 
L 78.298975 318.511794 
L 100.435 318.255033 
L 117.605035 307.346863 
L 131.633975 300.040515 
L 153.77 290.887149 
L 184.968975 281.719979 
L 207.105 277.110994 
L 238.303975 272.521335 
L 260.44 270.080732 
L 291.638975 249.388615 
L 313.775 239.027648 
L 344.973975 228.687111 
L 367.11 223.510493 
L 398.308975 218.318414 
L 420.445 215.732589 
" clip-path="url(#p099dfa88d9)" style="fill: none; stroke: #bcbd22; stroke-width: 1.5; stroke-linecap: square"/>
   </g>
   <g id="line2d_36">
    <path d="M 47.1 277.233577 
L 78.298975 268.081315 
L 100.435 277.242963 
L 117.605035 266.244237 
L 131.633975 268.086837 
L 153.77 277.229159 
L 184.968975 268.079659 
L 207.105 277.241307 
L 238.303975 268.227641 
L 260.44 277.869679 
L 291.638975 286.63542 
L 313.775 304.893008 
L 344.973975 304.872025 
L 367.11 318.611185 
L 398.308975 314.008826 
L 420.445 318.55928 
" clip-path="url(#p099dfa88d9)" style="fill: none; stroke: #17becf; stroke-width: 1.5; stroke-linecap: square"/>
   </g>
   <g id="line2d_37">
    <path d="M 47.1 297.63746 
L 78.298975 293.162653 
L 100.435 298.133311 
L 117.605035 281.674701 
L 131.633975 274.7361 
L 153.77 270.093432 
L 184.968975 256.420534 
L 207.105 256.27973 
L 238.303975 247.325698 
L 260.44 249.929744 
L 291.638975 252.158313 
L 313.775 259.989225 
L 344.973975 258.880463 
L 367.11 264.92344 
L 398.308975 262.028399 
L 420.445 263.948855 
" clip-path="url(#p099dfa88d9)" style="fill: none; stroke-dasharray: 5.55,2.4; stroke-dashoffset: 0; stroke: #1f77b4; stroke-width: 1.5"/>
   </g>
   <g id="line2d_38">
    <path d="M 47.1 318.549341 
L 78.298975 318.511794 
L 100.435 318.247855 
L 117.605035 307.340237 
L 131.633975 300.038306 
L 153.77 290.886045 
L 184.968975 281.719979 
L 207.105 277.112099 
L 238.303975 272.524648 
L 260.44 270.071898 
L 291.638975 249.383646 
L 313.775 239.029305 
L 344.973975 228.694842 
L 367.11 223.510493 
L 398.308975 218.317861 
L 420.445 215.733141 
" clip-path="url(#p099dfa88d9)" style="fill: none; stroke-dasharray: 5.55,2.4; stroke-dashoffset: 0; stroke: #ff7f0e; stroke-width: 1.5"/>
   </g>
   <g id="line2d_39">
    <path d="M 47.1 277.016573 
L 78.298975 267.873146 
L 100.435 277.018229 
L 117.605035 266.038829 
L 131.633975 267.875355 
L 153.77 277.014364 
L 184.968975 267.87922 
L 207.105 277.045286 
L 238.303975 268.111133 
L 260.44 277.893423 
L 291.638975 286.637629 
L 313.775 304.874786 
L 344.973975 304.831165 
L 367.11 318.563146 
L 398.308975 313.998335 
L 420.445 318.547133 
" clip-path="url(#p099dfa88d9)" style="fill: none; stroke-dasharray: 5.55,2.4; stroke-dashoffset: 0; stroke: #2ca02c; stroke-width: 1.5"/>
   </g>
   <g id="line2d_40">
    <path d="M 47.1 318.549894 
L 78.298975 318.508481 
L 100.435 318.23902 
L 117.605035 307.341893 
L 131.633975 300.034441 
L 153.77 290.88494 
L 184.968975 281.71777 
L 207.105 277.108786 
L 238.303975 272.535692 
L 260.44 270.241967 
L 291.638975 267.941616 
L 313.775 266.79144 
L 344.973975 265.648443 
L 367.11 265.07584 
L 398.308975 264.502684 
L 420.445 264.211689 
" clip-path="url(#p099dfa88d9)" style="fill: none; stroke-dasharray: 5.55,2.4; stroke-dashoffset: 0; stroke: #d62728; stroke-width: 1.5"/>
   </g>
   <g id="line2d_41">
    <path d="M 47.1 318.326264 
L 78.298975 317.322414 
L 100.435 318.368781 
L 117.605035 289.581261 
L 131.633975 315.403614 
L 153.77 318.448846 
L 184.968975 314.704011 
L 207.105 318.314116 
L 238.303975 316.279912 
L 260.44 318.301968 
L 291.638975 316.318012 
L 313.775 316.709502 
L 344.973975 313.602979 
L 367.11 317.412418 
L 398.308975 313.265601 
L 420.445 316.173343 
" clip-path="url(#p099dfa88d9)" style="fill: none; stroke-dasharray: 5.55,2.4; stroke-dashoffset: 0; stroke: #9467bd; stroke-width: 1.5"/>
   </g>
   <g id="line2d_42">
    <path d="M 47.1 318.336755 
L 78.298975 317.301983 
L 100.435 318.392524 
L 117.605035 284.238991 
L 131.633975 313.866365 
L 153.77 318.44222 
L 184.968975 315.774674 
L 207.105 318.262764 
L 238.303975 316.422925 
L 260.44 318.310251 
L 291.638975 316.378199 
L 313.775 317.518435 
L 344.973975 314.015452 
L 367.11 317.45604 
L 398.308975 315.559879 
L 420.445 316.183834 
" clip-path="url(#p099dfa88d9)" style="fill: none; stroke-dasharray: 5.55,2.4; stroke-dashoffset: 0; stroke: #8c564b; stroke-width: 1.5"/>
   </g>
   <g id="line2d_43">
    <path d="M 47.1 318.448846 
L 78.298975 317.643778 
L 100.435 318.468172 
L 117.605035 298.063185 
L 131.633975 316.367155 
L 153.77 318.520076 
L 184.968975 317.684639 
L 207.105 318.505168 
L 238.303975 316.989454 
L 260.44 318.525598 
L 291.638975 316.58195 
L 313.775 317.724395 
L 344.973975 315.63387 
L 367.11 317.768569 
L 398.308975 315.057954 
L 420.445 316.697907 
" clip-path="url(#p099dfa88d9)" style="fill: none; stroke-dasharray: 5.55,2.4; stroke-dashoffset: 0; stroke: #e377c2; stroke-width: 1.5"/>
   </g>
   <g id="line2d_44">
    <path d="M 100.435 318.56425 
L 100.435 31.43625 
" clip-path="url(#p099dfa88d9)" style="fill: none; stroke: #ff0000; stroke-width: 1.5; stroke-linecap: square"/>
   </g>
   <g id="line2d_45">
    <path d="M 260.44 318.56425 
L 260.44 31.43625 
" clip-path="url(#p099dfa88d9)" style="fill: none; stroke: #008000; stroke-width: 1.5; stroke-linecap: square"/>
   </g>
   <g id="patch_3">
    <path d="M 47.1 318.56425 
L 47.1 31.43625 
" style="fill: none; stroke: #000000; stroke-width: 0.8; stroke-linejoin: miter; stroke-linecap: square"/>
   </g>
   <g id="patch_4">
    <path d="M 420.445 318.56425 
L 420.445 31.43625 
" style="fill: none; stroke: #000000; stroke-width: 0.8; stroke-linejoin: miter; stroke-linecap: square"/>
   </g>
   <g id="patch_5">
    <path d="M 47.1 318.56425 
L 420.445 318.56425 
" style="fill: none; stroke: #000000; stroke-width: 0.8; stroke-linejoin: miter; stroke-linecap: square"/>
   </g>
   <g id="patch_6">
    <path d="M 47.1 31.43625 
L 420.445 31.43625 
" style="fill: none; stroke: #000000; stroke-width: 0.8; stroke-linejoin: miter; stroke-linecap: square"/>
   </g>
   <g id="text_11">
    <!-- Ice Storm (Store) -->
    <g transform="translate(131.470625 25.43625)scale(0.24 -0.24)">
     <defs>
      <path id="DejaVuSans-49" d="M 628 4666 
L 1259 4666 
L 1259 0 
L 628 0 
L 628 4666 
z
" transform="scale(0.015625)"/>
      <path id="DejaVuSans-53" d="M 3425 4513 
L 3425 3897 
Q 3066 4069 2747 4153 
Q 2428 4238 2131 4238 
Q 1616 4238 1336 4038 
Q 1056 3838 1056 3469 
Q 1056 3159 1242 3001 
Q 1428 2844 1947 2747 
L 2328 2669 
Q 3034 2534 3370 2195 
Q 3706 1856 3706 1288 
Q 3706 609 3251 259 
Q 2797 -91 1919 -91 
Q 1588 -91 1214 -16 
Q 841 59 441 206 
L 441 856 
Q 825 641 1194 531 
Q 1563 422 1919 422 
Q 2459 422 2753 634 
Q 3047 847 3047 1241 
Q 3047 1584 2836 1778 
Q 2625 1972 2144 2069 
L 1759 2144 
Q 1053 2284 737 2584 
Q 422 2884 422 3419 
Q 422 4038 858 4394 
Q 1294 4750 2059 4750 
Q 2388 4750 2728 4690 
Q 3069 4631 3425 4513 
z
" transform="scale(0.015625)"/>
      <path id="DejaVuSans-6d" d="M 3328 2828 
Q 3544 3216 3844 3400 
Q 4144 3584 4550 3584 
Q 5097 3584 5394 3201 
Q 5691 2819 5691 2113 
L 5691 0 
L 5113 0 
L 5113 2094 
Q 5113 2597 4934 2840 
Q 4756 3084 4391 3084 
Q 3944 3084 3684 2787 
Q 3425 2491 3425 1978 
L 3425 0 
L 2847 0 
L 2847 2094 
Q 2847 2600 2669 2842 
Q 2491 3084 2119 3084 
Q 1678 3084 1418 2786 
Q 1159 2488 1159 1978 
L 1159 0 
L 581 0 
L 581 3500 
L 1159 3500 
L 1159 2956 
Q 1356 3278 1631 3431 
Q 1906 3584 2284 3584 
Q 2666 3584 2933 3390 
Q 3200 3197 3328 2828 
z
" transform="scale(0.015625)"/>
      <path id="DejaVuSans-28" d="M 1984 4856 
Q 1566 4138 1362 3434 
Q 1159 2731 1159 2009 
Q 1159 1288 1364 580 
Q 1569 -128 1984 -844 
L 1484 -844 
Q 1016 -109 783 600 
Q 550 1309 550 2009 
Q 550 2706 781 3412 
Q 1013 4119 1484 4856 
L 1984 4856 
z
" transform="scale(0.015625)"/>
      <path id="DejaVuSans-29" d="M 513 4856 
L 1013 4856 
Q 1481 4119 1714 3412 
Q 1947 2706 1947 2009 
Q 1947 1309 1714 600 
Q 1481 -109 1013 -844 
L 513 -844 
Q 928 -128 1133 580 
Q 1338 1288 1338 2009 
Q 1338 2731 1133 3434 
Q 928 4138 513 4856 
z
" transform="scale(0.015625)"/>
     </defs>
     <use xlink:href="#DejaVuSans-49"/>
     <use xlink:href="#DejaVuSans-63" x="29.492188"/>
     <use xlink:href="#DejaVuSans-65" x="84.472656"/>
     <use xlink:href="#DejaVuSans-20" x="145.996094"/>
     <use xlink:href="#DejaVuSans-53" x="177.783203"/>
     <use xlink:href="#DejaVuSans-74" x="241.259766"/>
     <use xlink:href="#DejaVuSans-6f" x="280.46875"/>
     <use xlink:href="#DejaVuSans-72" x="341.650391"/>
     <use xlink:href="#DejaVuSans-6d" x="381.013672"/>
     <use xlink:href="#DejaVuSans-20" x="478.425781"/>
     <use xlink:href="#DejaVuSans-28" x="510.212891"/>
     <use xlink:href="#DejaVuSans-53" x="549.226562"/>
     <use xlink:href="#DejaVuSans-74" x="612.703125"/>
     <use xlink:href="#DejaVuSans-6f" x="651.912109"/>
     <use xlink:href="#DejaVuSans-72" x="713.09375"/>
     <use xlink:href="#DejaVuSans-65" x="751.957031"/>
     <use xlink:href="#DejaVuSans-29" x="813.480469"/>
    </g>
   </g>
   <g id="legend_1">
    <g id="patch_7">
     <path d="M 110.715 193.814 
L 414.845 193.814 
Q 416.445 193.814 416.445 192.214 
L 416.445 157.7865 
Q 416.445 156.1865 414.845 156.1865 
L 110.715 156.1865 
Q 109.115 156.1865 109.115 157.7865 
L 109.115 192.214 
Q 109.115 193.814 110.715 193.814 
z
" style="fill: #ffffff; opacity: 0.8; stroke: #cccccc; stroke-linejoin: miter"/>
    </g>
    <g id="line2d_46">
     <path d="M 112.315 162.66525 
L 120.315 162.66525 
L 128.315 162.66525 
" style="fill: none; stroke: #1f77b4; stroke-width: 1.5; stroke-linecap: square"/>
    </g>
    <g id="text_12">
     <!-- 5 -->
     <g transform="translate(134.715 165.46525)scale(0.08 -0.08)">
      <use xlink:href="#DejaVuSans-35"/>
     </g>
    </g>
    <g id="line2d_47">
     <path d="M 112.315 174.40775 
L 120.315 174.40775 
L 128.315 174.40775 
" style="fill: none; stroke: #ff7f0e; stroke-width: 1.5; stroke-linecap: square"/>
    </g>
    <g id="text_13">
     <!-- 8 -->
     <g transform="translate(134.715 177.20775)scale(0.08 -0.08)">
      <defs>
       <path id="DejaVuSans-38" d="M 2034 2216 
Q 1584 2216 1326 1975 
Q 1069 1734 1069 1313 
Q 1069 891 1326 650 
Q 1584 409 2034 409 
Q 2484 409 2743 651 
Q 3003 894 3003 1313 
Q 3003 1734 2745 1975 
Q 2488 2216 2034 2216 
z
M 1403 2484 
Q 997 2584 770 2862 
Q 544 3141 544 3541 
Q 544 4100 942 4425 
Q 1341 4750 2034 4750 
Q 2731 4750 3128 4425 
Q 3525 4100 3525 3541 
Q 3525 3141 3298 2862 
Q 3072 2584 2669 2484 
Q 3125 2378 3379 2068 
Q 3634 1759 3634 1313 
Q 3634 634 3220 271 
Q 2806 -91 2034 -91 
Q 1263 -91 848 271 
Q 434 634 434 1313 
Q 434 1759 690 2068 
Q 947 2378 1403 2484 
z
M 1172 3481 
Q 1172 3119 1398 2916 
Q 1625 2713 2034 2713 
Q 2441 2713 2670 2916 
Q 2900 3119 2900 3481 
Q 2900 3844 2670 4047 
Q 2441 4250 2034 4250 
Q 1625 4250 1398 4047 
Q 1172 3844 1172 3481 
z
" transform="scale(0.015625)"/>
      </defs>
      <use xlink:href="#DejaVuSans-38"/>
     </g>
    </g>
    <g id="line2d_48">
     <path d="M 112.315 186.15025 
L 120.315 186.15025 
L 128.315 186.15025 
" style="fill: none; stroke: #2ca02c; stroke-width: 1.5; stroke-linecap: square"/>
    </g>
    <g id="text_14">
     <!-- 11 -->
     <g transform="translate(134.715 188.95025)scale(0.08 -0.08)">
      <use xlink:href="#DejaVuSans-31"/>
      <use xlink:href="#DejaVuSans-31" x="63.623047"/>
     </g>
    </g>
    <g id="line2d_49">
     <path d="M 160.895 162.66525 
L 168.895 162.66525 
L 176.895 162.66525 
" style="fill: none; stroke: #d62728; stroke-width: 1.5; stroke-linecap: square"/>
    </g>
    <g id="text_15">
     <!-- 30 -->
     <g transform="translate(183.295 165.46525)scale(0.08 -0.08)">
      <use xlink:href="#DejaVuSans-33"/>
      <use xlink:href="#DejaVuSans-30" x="63.623047"/>
     </g>
    </g>
    <g id="line2d_50">
     <path d="M 160.895 174.40775 
L 168.895 174.40775 
L 176.895 174.40775 
" style="fill: none; stroke: #9467bd; stroke-width: 1.5; stroke-linecap: square"/>
    </g>
    <g id="text_16">
     <!-- 31 -->
     <g transform="translate(183.295 177.20775)scale(0.08 -0.08)">
      <use xlink:href="#DejaVuSans-33"/>
      <use xlink:href="#DejaVuSans-31" x="63.623047"/>
     </g>
    </g>
    <g id="line2d_51">
     <path d="M 160.895 186.15025 
L 168.895 186.15025 
L 176.895 186.15025 
" style="fill: none; stroke: #8c564b; stroke-width: 1.5; stroke-linecap: square"/>
    </g>
    <g id="text_17">
     <!-- 160 -->
     <g transform="translate(183.295 188.95025)scale(0.08 -0.08)">
      <defs>
       <path id="DejaVuSans-36" d="M 2113 2584 
Q 1688 2584 1439 2293 
Q 1191 2003 1191 1497 
Q 1191 994 1439 701 
Q 1688 409 2113 409 
Q 2538 409 2786 701 
Q 3034 994 3034 1497 
Q 3034 2003 2786 2293 
Q 2538 2584 2113 2584 
z
M 3366 4563 
L 3366 3988 
Q 3128 4100 2886 4159 
Q 2644 4219 2406 4219 
Q 1781 4219 1451 3797 
Q 1122 3375 1075 2522 
Q 1259 2794 1537 2939 
Q 1816 3084 2150 3084 
Q 2853 3084 3261 2657 
Q 3669 2231 3669 1497 
Q 3669 778 3244 343 
Q 2819 -91 2113 -91 
Q 1303 -91 875 529 
Q 447 1150 447 2328 
Q 447 3434 972 4092 
Q 1497 4750 2381 4750 
Q 2619 4750 2861 4703 
Q 3103 4656 3366 4563 
z
" transform="scale(0.015625)"/>
      </defs>
      <use xlink:href="#DejaVuSans-31"/>
      <use xlink:href="#DejaVuSans-36" x="63.623047"/>
      <use xlink:href="#DejaVuSans-30" x="127.246094"/>
     </g>
    </g>
    <g id="line2d_52">
     <path d="M 214.565 162.66525 
L 222.565 162.66525 
L 230.565 162.66525 
" style="fill: none; stroke: #e377c2; stroke-width: 1.5; stroke-linecap: square"/>
    </g>
    <g id="text_18">
     <!-- 161 -->
     <g transform="translate(236.965 165.46525)scale(0.08 -0.08)">
      <use xlink:href="#DejaVuSans-31"/>
      <use xlink:href="#DejaVuSans-36" x="63.623047"/>
      <use xlink:href="#DejaVuSans-31" x="127.246094"/>
     </g>
    </g>
    <g id="line2d_53">
     <path d="M 214.565 174.40775 
L 222.565 174.40775 
L 230.565 174.40775 
" style="fill: none; stroke: #7f7f7f; stroke-width: 1.5; stroke-linecap: square"/>
    </g>
    <g id="text_19">
     <!-- 162 -->
     <g transform="translate(236.965 177.20775)scale(0.08 -0.08)">
      <use xlink:href="#DejaVuSans-31"/>
      <use xlink:href="#DejaVuSans-36" x="63.623047"/>
      <use xlink:href="#DejaVuSans-32" x="127.246094"/>
     </g>
    </g>
    <g id="line2d_54">
     <path d="M 214.565 186.15025 
L 222.565 186.15025 
L 230.565 186.15025 
" style="fill: none; stroke: #bcbd22; stroke-width: 1.5; stroke-linecap: square"/>
    </g>
    <g id="text_20">
     <!-- 167 -->
     <g transform="translate(236.965 188.95025)scale(0.08 -0.08)">
      <defs>
       <path id="DejaVuSans-37" d="M 525 4666 
L 3525 4666 
L 3525 4397 
L 1831 0 
L 1172 0 
L 2766 4134 
L 525 4134 
L 525 4666 
z
" transform="scale(0.015625)"/>
      </defs>
      <use xlink:href="#DejaVuSans-31"/>
      <use xlink:href="#DejaVuSans-36" x="63.623047"/>
      <use xlink:href="#DejaVuSans-37" x="127.246094"/>
     </g>
    </g>
    <g id="line2d_55">
     <path d="M 268.235 162.66525 
L 276.235 162.66525 
L 284.235 162.66525 
" style="fill: none; stroke: #17becf; stroke-width: 1.5; stroke-linecap: square"/>
    </g>
    <g id="text_21">
     <!-- 168 -->
     <g transform="translate(290.635 165.46525)scale(0.08 -0.08)">
      <use xlink:href="#DejaVuSans-31"/>
      <use xlink:href="#DejaVuSans-36" x="63.623047"/>
      <use xlink:href="#DejaVuSans-38" x="127.246094"/>
     </g>
    </g>
    <g id="line2d_56">
     <path d="M 268.235 174.40775 
L 276.235 174.40775 
L 284.235 174.40775 
" style="fill: none; stroke-dasharray: 5.55,2.4; stroke-dashoffset: 0; stroke: #1f77b4; stroke-width: 1.5"/>
    </g>
    <g id="text_22">
     <!-- 172 -->
     <g transform="translate(290.635 177.20775)scale(0.08 -0.08)">
      <use xlink:href="#DejaVuSans-31"/>
      <use xlink:href="#DejaVuSans-37" x="63.623047"/>
      <use xlink:href="#DejaVuSans-32" x="127.246094"/>
     </g>
    </g>
    <g id="line2d_57">
     <path d="M 268.235 186.15025 
L 276.235 186.15025 
L 284.235 186.15025 
" style="fill: none; stroke-dasharray: 5.55,2.4; stroke-dashoffset: 0; stroke: #ff7f0e; stroke-width: 1.5"/>
    </g>
    <g id="text_23">
     <!-- 188 -->
     <g transform="translate(290.635 188.95025)scale(0.08 -0.08)">
      <use xlink:href="#DejaVuSans-31"/>
      <use xlink:href="#DejaVuSans-38" x="63.623047"/>
      <use xlink:href="#DejaVuSans-38" x="127.246094"/>
     </g>
    </g>
    <g id="line2d_58">
     <path d="M 321.905 162.66525 
L 329.905 162.66525 
L 337.905 162.66525 
" style="fill: none; stroke-dasharray: 5.55,2.4; stroke-dashoffset: 0; stroke: #2ca02c; stroke-width: 1.5"/>
    </g>
    <g id="text_24">
     <!-- 192 -->
     <g transform="translate(344.305 165.46525)scale(0.08 -0.08)">
      <defs>
       <path id="DejaVuSans-39" d="M 703 97 
L 703 672 
Q 941 559 1184 500 
Q 1428 441 1663 441 
Q 2288 441 2617 861 
Q 2947 1281 2994 2138 
Q 2813 1869 2534 1725 
Q 2256 1581 1919 1581 
Q 1219 1581 811 2004 
Q 403 2428 403 3163 
Q 403 3881 828 4315 
Q 1253 4750 1959 4750 
Q 2769 4750 3195 4129 
Q 3622 3509 3622 2328 
Q 3622 1225 3098 567 
Q 2575 -91 1691 -91 
Q 1453 -91 1209 -44 
Q 966 3 703 97 
z
M 1959 2075 
Q 2384 2075 2632 2365 
Q 2881 2656 2881 3163 
Q 2881 3666 2632 3958 
Q 2384 4250 1959 4250 
Q 1534 4250 1286 3958 
Q 1038 3666 1038 3163 
Q 1038 2656 1286 2365 
Q 1534 2075 1959 2075 
z
" transform="scale(0.015625)"/>
      </defs>
      <use xlink:href="#DejaVuSans-31"/>
      <use xlink:href="#DejaVuSans-39" x="63.623047"/>
      <use xlink:href="#DejaVuSans-32" x="127.246094"/>
     </g>
    </g>
    <g id="line2d_59">
     <path d="M 321.905 174.40775 
L 329.905 174.40775 
L 337.905 174.40775 
" style="fill: none; stroke-dasharray: 5.55,2.4; stroke-dashoffset: 0; stroke: #d62728; stroke-width: 1.5"/>
    </g>
    <g id="text_25">
     <!-- 193 -->
     <g transform="translate(344.305 177.20775)scale(0.08 -0.08)">
      <use xlink:href="#DejaVuSans-31"/>
      <use xlink:href="#DejaVuSans-39" x="63.623047"/>
      <use xlink:href="#DejaVuSans-33" x="127.246094"/>
     </g>
    </g>
    <g id="line2d_60">
     <path d="M 321.905 186.15025 
L 329.905 186.15025 
L 337.905 186.15025 
" style="fill: none; stroke-dasharray: 5.55,2.4; stroke-dashoffset: 0; stroke: #9467bd; stroke-width: 1.5"/>
    </g>
    <g id="text_26">
     <!-- 234 -->
     <g transform="translate(344.305 188.95025)scale(0.08 -0.08)">
      <use xlink:href="#DejaVuSans-32"/>
      <use xlink:href="#DejaVuSans-33" x="63.623047"/>
      <use xlink:href="#DejaVuSans-34" x="127.246094"/>
     </g>
    </g>
    <g id="line2d_61">
     <path d="M 375.575 162.66525 
L 383.575 162.66525 
L 391.575 162.66525 
" style="fill: none; stroke-dasharray: 5.55,2.4; stroke-dashoffset: 0; stroke: #8c564b; stroke-width: 1.5"/>
    </g>
    <g id="text_27">
     <!-- 235 -->
     <g transform="translate(397.975 165.46525)scale(0.08 -0.08)">
      <use xlink:href="#DejaVuSans-32"/>
      <use xlink:href="#DejaVuSans-33" x="63.623047"/>
      <use xlink:href="#DejaVuSans-35" x="127.246094"/>
     </g>
    </g>
    <g id="line2d_62">
     <path d="M 375.575 174.40775 
L 383.575 174.40775 
L 391.575 174.40775 
" style="fill: none; stroke-dasharray: 5.55,2.4; stroke-dashoffset: 0; stroke: #e377c2; stroke-width: 1.5"/>
    </g>
    <g id="text_28">
     <!-- 236 -->
     <g transform="translate(397.975 177.20775)scale(0.08 -0.08)">
      <use xlink:href="#DejaVuSans-32"/>
      <use xlink:href="#DejaVuSans-33" x="63.623047"/>
      <use xlink:href="#DejaVuSans-36" x="127.246094"/>
     </g>
    </g>
   </g>
  </g>
  <g id="axes_2">
   <g id="patch_8">
    <path d="M 497.055 318.56425 
L 870.4 318.56425 
L 870.4 31.43625 
L 497.055 31.43625 
L 497.055 318.56425 
z
" style="fill: none"/>
   </g>
   <g id="matplotlib.axis_3">
    <g id="xtick_21">
     <g id="line2d_63">
      <g>
       <use xlink:href="#md39032bed2" x="531.39507" y="318.56425" style="stroke: #000000; stroke-width: 0.8"/>
      </g>
     </g>
     <g id="text_29">
      <!-- $\mathdefault{10^{2}}$ -->
      <g transform="translate(518.19507 336.961906)scale(0.15 -0.15)">
       <use xlink:href="#DejaVuSans-31" transform="translate(0 0.765625)"/>
       <use xlink:href="#DejaVuSans-30" transform="translate(63.623047 0.765625)"/>
       <use xlink:href="#DejaVuSans-32" transform="translate(128.203125 39.046875)scale(0.7)"/>
      </g>
     </g>
    </g>
    <g id="xtick_22">
     <g id="line2d_64">
      <g>
       <use xlink:href="#md39032bed2" x="708.570105" y="318.56425" style="stroke: #000000; stroke-width: 0.8"/>
      </g>
     </g>
     <g id="text_30">
      <!-- $\mathdefault{10^{3}}$ -->
      <g transform="translate(695.370105 336.961906)scale(0.15 -0.15)">
       <use xlink:href="#DejaVuSans-31" transform="translate(0 0.765625)"/>
       <use xlink:href="#DejaVuSans-30" transform="translate(63.623047 0.765625)"/>
       <use xlink:href="#DejaVuSans-33" transform="translate(128.203125 39.046875)scale(0.7)"/>
      </g>
     </g>
    </g>
    <g id="xtick_23">
     <g id="line2d_65">
      <g>
       <use xlink:href="#m00e623f56d" x="503.95031" y="318.56425" style="stroke: #000000; stroke-width: 0.6"/>
      </g>
     </g>
    </g>
    <g id="xtick_24">
     <g id="line2d_66">
      <g>
       <use xlink:href="#m00e623f56d" x="514.225035" y="318.56425" style="stroke: #000000; stroke-width: 0.6"/>
      </g>
     </g>
    </g>
    <g id="xtick_25">
     <g id="line2d_67">
      <g>
       <use xlink:href="#m00e623f56d" x="523.287985" y="318.56425" style="stroke: #000000; stroke-width: 0.6"/>
      </g>
     </g>
    </g>
    <g id="xtick_26">
     <g id="line2d_68">
      <g>
       <use xlink:href="#m00e623f56d" x="584.73007" y="318.56425" style="stroke: #000000; stroke-width: 0.6"/>
      </g>
     </g>
    </g>
    <g id="xtick_27">
     <g id="line2d_69">
      <g>
       <use xlink:href="#m00e623f56d" x="615.929045" y="318.56425" style="stroke: #000000; stroke-width: 0.6"/>
      </g>
     </g>
    </g>
    <g id="xtick_28">
     <g id="line2d_70">
      <g>
       <use xlink:href="#m00e623f56d" x="638.06507" y="318.56425" style="stroke: #000000; stroke-width: 0.6"/>
      </g>
     </g>
    </g>
    <g id="xtick_29">
     <g id="line2d_71">
      <g>
       <use xlink:href="#m00e623f56d" x="655.235105" y="318.56425" style="stroke: #000000; stroke-width: 0.6"/>
      </g>
     </g>
    </g>
    <g id="xtick_30">
     <g id="line2d_72">
      <g>
       <use xlink:href="#m00e623f56d" x="669.264045" y="318.56425" style="stroke: #000000; stroke-width: 0.6"/>
      </g>
     </g>
    </g>
    <g id="xtick_31">
     <g id="line2d_73">
      <g>
       <use xlink:href="#m00e623f56d" x="681.125345" y="318.56425" style="stroke: #000000; stroke-width: 0.6"/>
      </g>
     </g>
    </g>
    <g id="xtick_32">
     <g id="line2d_74">
      <g>
       <use xlink:href="#m00e623f56d" x="691.40007" y="318.56425" style="stroke: #000000; stroke-width: 0.6"/>
      </g>
     </g>
    </g>
    <g id="xtick_33">
     <g id="line2d_75">
      <g>
       <use xlink:href="#m00e623f56d" x="700.46302" y="318.56425" style="stroke: #000000; stroke-width: 0.6"/>
      </g>
     </g>
    </g>
    <g id="xtick_34">
     <g id="line2d_76">
      <g>
       <use xlink:href="#m00e623f56d" x="761.905105" y="318.56425" style="stroke: #000000; stroke-width: 0.6"/>
      </g>
     </g>
    </g>
    <g id="xtick_35">
     <g id="line2d_77">
      <g>
       <use xlink:href="#m00e623f56d" x="793.10408" y="318.56425" style="stroke: #000000; stroke-width: 0.6"/>
      </g>
     </g>
    </g>
    <g id="xtick_36">
     <g id="line2d_78">
      <g>
       <use xlink:href="#m00e623f56d" x="815.240105" y="318.56425" style="stroke: #000000; stroke-width: 0.6"/>
      </g>
     </g>
    </g>
    <g id="xtick_37">
     <g id="line2d_79">
      <g>
       <use xlink:href="#m00e623f56d" x="832.41014" y="318.56425" style="stroke: #000000; stroke-width: 0.6"/>
      </g>
     </g>
    </g>
    <g id="xtick_38">
     <g id="line2d_80">
      <g>
       <use xlink:href="#m00e623f56d" x="846.43908" y="318.56425" style="stroke: #000000; stroke-width: 0.6"/>
      </g>
     </g>
    </g>
    <g id="xtick_39">
     <g id="line2d_81">
      <g>
       <use xlink:href="#m00e623f56d" x="858.30038" y="318.56425" style="stroke: #000000; stroke-width: 0.6"/>
      </g>
     </g>
    </g>
    <g id="xtick_40">
     <g id="line2d_82">
      <g>
       <use xlink:href="#m00e623f56d" x="868.575105" y="318.56425" style="stroke: #000000; stroke-width: 0.6"/>
      </g>
     </g>
    </g>
    <g id="text_31">
     <!-- Page Count -->
     <g transform="translate(626.643125 359.278312)scale(0.2 -0.2)">
      <use xlink:href="#DejaVuSans-50"/>
      <use xlink:href="#DejaVuSans-61" x="55.802734"/>
      <use xlink:href="#DejaVuSans-67" x="117.082031"/>
      <use xlink:href="#DejaVuSans-65" x="180.558594"/>
      <use xlink:href="#DejaVuSans-20" x="242.082031"/>
      <use xlink:href="#DejaVuSans-43" x="273.869141"/>
      <use xlink:href="#DejaVuSans-6f" x="343.693359"/>
      <use xlink:href="#DejaVuSans-75" x="404.875"/>
      <use xlink:href="#DejaVuSans-6e" x="468.253906"/>
      <use xlink:href="#DejaVuSans-74" x="531.632812"/>
     </g>
    </g>
   </g>
   <g id="matplotlib.axis_4">
    <g id="ytick_7">
     <g id="line2d_83">
      <g>
       <use xlink:href="#m6f3f5b6aff" x="497.055" y="318.56425" style="stroke: #000000; stroke-width: 0.8"/>
      </g>
     </g>
     <g id="text_32">
      <!-- 0.0 -->
      <g transform="translate(466.200312 324.263078)scale(0.15 -0.15)">
       <defs>
        <path id="DejaVuSans-2e" d="M 684 794 
L 1344 794 
L 1344 0 
L 684 0 
L 684 794 
z
" transform="scale(0.015625)"/>
       </defs>
       <use xlink:href="#DejaVuSans-30"/>
       <use xlink:href="#DejaVuSans-2e" x="63.623047"/>
       <use xlink:href="#DejaVuSans-30" x="95.410156"/>
      </g>
     </g>
    </g>
    <g id="ytick_8">
     <g id="line2d_84">
      <g>
       <use xlink:href="#m6f3f5b6aff" x="497.055" y="278.793268" style="stroke: #000000; stroke-width: 0.8"/>
      </g>
     </g>
     <g id="text_33">
      <!-- 0.5 -->
      <g transform="translate(466.200312 284.492096)scale(0.15 -0.15)">
       <use xlink:href="#DejaVuSans-30"/>
       <use xlink:href="#DejaVuSans-2e" x="63.623047"/>
       <use xlink:href="#DejaVuSans-35" x="95.410156"/>
      </g>
     </g>
    </g>
    <g id="ytick_9">
     <g id="line2d_85">
      <g>
       <use xlink:href="#m6f3f5b6aff" x="497.055" y="239.022285" style="stroke: #000000; stroke-width: 0.8"/>
      </g>
     </g>
     <g id="text_34">
      <!-- 1.0 -->
      <g transform="translate(466.200312 244.721113)scale(0.15 -0.15)">
       <use xlink:href="#DejaVuSans-31"/>
       <use xlink:href="#DejaVuSans-2e" x="63.623047"/>
       <use xlink:href="#DejaVuSans-30" x="95.410156"/>
      </g>
     </g>
    </g>
    <g id="ytick_10">
     <g id="line2d_86">
      <g>
       <use xlink:href="#m6f3f5b6aff" x="497.055" y="199.251303" style="stroke: #000000; stroke-width: 0.8"/>
      </g>
     </g>
     <g id="text_35">
      <!-- 1.5 -->
      <g transform="translate(466.200312 204.950131)scale(0.15 -0.15)">
       <use xlink:href="#DejaVuSans-31"/>
       <use xlink:href="#DejaVuSans-2e" x="63.623047"/>
       <use xlink:href="#DejaVuSans-35" x="95.410156"/>
      </g>
     </g>
    </g>
    <g id="ytick_11">
     <g id="line2d_87">
      <g>
       <use xlink:href="#m6f3f5b6aff" x="497.055" y="159.48032" style="stroke: #000000; stroke-width: 0.8"/>
      </g>
     </g>
     <g id="text_36">
      <!-- 2.0 -->
      <g transform="translate(466.200312 165.179148)scale(0.15 -0.15)">
       <use xlink:href="#DejaVuSans-32"/>
       <use xlink:href="#DejaVuSans-2e" x="63.623047"/>
       <use xlink:href="#DejaVuSans-30" x="95.410156"/>
      </g>
     </g>
    </g>
    <g id="ytick_12">
     <g id="line2d_88">
      <g>
       <use xlink:href="#m6f3f5b6aff" x="497.055" y="119.709338" style="stroke: #000000; stroke-width: 0.8"/>
      </g>
     </g>
     <g id="text_37">
      <!-- 2.5 -->
      <g transform="translate(466.200312 125.408166)scale(0.15 -0.15)">
       <use xlink:href="#DejaVuSans-32"/>
       <use xlink:href="#DejaVuSans-2e" x="63.623047"/>
       <use xlink:href="#DejaVuSans-35" x="95.410156"/>
      </g>
     </g>
    </g>
    <g id="ytick_13">
     <g id="line2d_89">
      <g>
       <use xlink:href="#m6f3f5b6aff" x="497.055" y="79.938355" style="stroke: #000000; stroke-width: 0.8"/>
      </g>
     </g>
     <g id="text_38">
      <!-- 3.0 -->
      <g transform="translate(466.200312 85.637183)scale(0.15 -0.15)">
       <use xlink:href="#DejaVuSans-33"/>
       <use xlink:href="#DejaVuSans-2e" x="63.623047"/>
       <use xlink:href="#DejaVuSans-30" x="95.410156"/>
      </g>
     </g>
    </g>
    <g id="ytick_14">
     <g id="line2d_90">
      <g>
       <use xlink:href="#m6f3f5b6aff" x="497.055" y="40.167373" style="stroke: #000000; stroke-width: 0.8"/>
      </g>
     </g>
     <g id="text_39">
      <!-- 3.5 -->
      <g transform="translate(466.200312 45.866201)scale(0.15 -0.15)">
       <use xlink:href="#DejaVuSans-33"/>
       <use xlink:href="#DejaVuSans-2e" x="63.623047"/>
       <use xlink:href="#DejaVuSans-35" x="95.410156"/>
      </g>
     </g>
    </g>
    <g id="text_40">
     <!-- Count Difference -->
     <g transform="translate(458.040937 259.57525)rotate(-90)scale(0.2 -0.2)">
      <use xlink:href="#DejaVuSans-43"/>
      <use xlink:href="#DejaVuSans-6f" x="69.824219"/>
      <use xlink:href="#DejaVuSans-75" x="131.005859"/>
      <use xlink:href="#DejaVuSans-6e" x="194.384766"/>
      <use xlink:href="#DejaVuSans-74" x="257.763672"/>
      <use xlink:href="#DejaVuSans-20" x="296.972656"/>
      <use xlink:href="#DejaVuSans-44" x="328.759766"/>
      <use xlink:href="#DejaVuSans-69" x="405.761719"/>
      <use xlink:href="#DejaVuSans-66" x="433.544922"/>
      <use xlink:href="#DejaVuSans-66" x="468.75"/>
      <use xlink:href="#DejaVuSans-65" x="503.955078"/>
      <use xlink:href="#DejaVuSans-72" x="565.478516"/>
      <use xlink:href="#DejaVuSans-65" x="604.341797"/>
      <use xlink:href="#DejaVuSans-6e" x="665.865234"/>
      <use xlink:href="#DejaVuSans-63" x="729.244141"/>
      <use xlink:href="#DejaVuSans-65" x="784.224609"/>
     </g>
    </g>
   </g>
   <g id="line2d_91">
    <path d="M 497.055 318.557091 
L 528.253975 318.556296 
L 550.39 318.551523 
L 567.560035 318.565045 
L 581.588975 318.550728 
L 603.725 318.547546 
L 634.923975 318.549137 
L 657.06 318.546751 
L 688.258975 318.548342 
L 710.395 318.543569 
L 741.593975 318.544365 
L 763.73 318.557887 
L 794.928975 318.550728 
L 817.065 318.513343 
L 848.263975 316.96307 
L 870.4 291.352148 
" clip-path="url(#pd3a15db12e)" style="fill: none; stroke: #1f77b4; stroke-width: 1.5; stroke-linecap: square"/>
   </g>
   <g id="line2d_92">
    <path d="M 497.055 318.561068 
L 528.253975 318.5555 
L 550.39 318.541183 
L 567.560035 318.285853 
L 581.588975 305.176542 
L 603.725 288.746354 
L 634.923975 272.209579 
L 657.06 263.91892 
L 688.258975 255.621102 
L 710.395 251.492874 
L 741.593975 247.33442 
L 763.73 245.263148 
L 794.928975 243.179944 
L 817.065 242.010677 
L 848.263975 240.893112 
L 870.4 240.419837 
" clip-path="url(#pd3a15db12e)" style="fill: none; stroke: #ff7f0e; stroke-width: 1.5; stroke-linecap: square"/>
   </g>
   <g id="line2d_93">
    <path d="M 497.055 318.565045 
L 528.253975 318.56425 
L 550.39 318.566636 
L 567.560035 318.561864 
L 581.588975 318.168131 
L 603.725 318.184835 
L 634.923975 317.90962 
L 657.06 317.666221 
L 688.258975 317.741786 
L 710.395 317.705992 
L 741.593975 318.14745 
L 763.73 317.708378 
L 794.928975 317.608951 
L 817.065 297.946973 
L 848.263975 277.817288 
L 870.4 268.189528 
" clip-path="url(#pd3a15db12e)" style="fill: none; stroke: #2ca02c; stroke-width: 1.5; stroke-linecap: square"/>
   </g>
   <g id="line2d_94">
    <path d="M 497.055 318.56425 
L 528.253975 318.56425 
L 550.39 318.565841 
L 567.560035 318.550728 
L 581.588975 318.424256 
L 603.725 318.291421 
L 634.923975 318.123588 
L 657.06 318.315284 
L 688.258975 318.163358 
L 710.395 317.869053 
L 741.593975 318.424256 
L 763.73 318.065522 
L 794.928975 318.082226 
L 817.065 310.855838 
L 848.263975 291.86758 
L 870.4 286.45634 
" clip-path="url(#pd3a15db12e)" style="fill: none; stroke: #d62728; stroke-width: 1.5; stroke-linecap: square"/>
   </g>
   <g id="line2d_95">
    <path d="M 497.055 318.565045 
L 528.253975 318.565045 
L 550.39 318.565045 
L 567.560035 318.557887 
L 581.588975 317.801443 
L 603.725 317.742582 
L 634.923975 318.005865 
L 657.06 317.506342 
L 688.258975 317.714742 
L 710.395 317.935868 
L 741.593975 317.714742 
L 763.73 317.978821 
L 794.928975 317.632814 
L 817.065 297.989925 
L 848.263975 278.179204 
L 870.4 268.308046 
" clip-path="url(#pd3a15db12e)" style="fill: none; stroke: #9467bd; stroke-width: 1.5; stroke-linecap: square"/>
   </g>
   <g id="line2d_96">
    <path d="M 497.055 315.745283 
L 528.253975 311.386383 
L 550.39 315.751646 
L 567.560035 311.154121 
L 581.588975 293.12832 
L 603.725 280.128777 
L 634.923975 255.780982 
L 657.06 256.067333 
L 688.258975 240.936065 
L 710.395 245.25758 
L 741.593975 235.977419 
L 763.73 239.55283 
L 794.928975 234.134431 
L 817.065 203.433619 
L 848.263975 162.600751 
L 870.4 125.010014 
" clip-path="url(#pd3a15db12e)" style="fill: none; stroke: #8c564b; stroke-width: 1.5; stroke-linecap: square"/>
   </g>
   <g id="line2d_97">
    <path d="M 497.055 312.38543 
L 528.253975 317.733832 
L 550.39 288.229331 
L 567.560035 313.483109 
L 581.588975 255.318047 
L 603.725 280.027759 
L 634.923975 253.577669 
L 657.06 279.045416 
L 688.258975 252.631915 
L 710.395 279.958557 
L 741.593975 252.740092 
L 763.73 282.240616 
L 794.928975 253.927654 
L 817.065 278.774973 
L 848.263975 252.12921 
L 870.4 259.404914 
" clip-path="url(#pd3a15db12e)" style="fill: none; stroke: #e377c2; stroke-width: 1.5; stroke-linecap: square"/>
   </g>
   <g id="line2d_98">
    <path d="M 497.055 318.503003 
L 528.253975 318.529252 
L 550.39 318.509366 
L 567.560035 318.27949 
L 581.588975 305.601296 
L 603.725 289.291216 
L 634.923975 275.376145 
L 657.06 265.995761 
L 688.258975 262.085478 
L 710.395 254.142417 
L 741.593975 254.567967 
L 763.73 249.547278 
L 794.928975 257.664535 
L 817.065 223.573645 
L 848.263975 205.659203 
L 870.4 182.327954 
" clip-path="url(#pd3a15db12e)" style="fill: none; stroke: #7f7f7f; stroke-width: 1.5; stroke-linecap: square"/>
   </g>
   <g id="line2d_99">
    <path d="M 497.055 318.54516 
L 528.253975 318.558682 
L 550.39 318.542774 
L 567.560035 318.549137 
L 581.588975 318.537206 
L 603.725 318.547546 
L 634.923975 318.54516 
L 657.06 318.525274 
L 688.258975 318.539592 
L 710.395 318.549932 
L 741.593975 318.552319 
L 763.73 318.558682 
L 794.928975 318.557887 
L 817.065 318.550728 
L 848.263975 316.509681 
L 870.4 292.719475 
" clip-path="url(#pd3a15db12e)" style="fill: none; stroke: #bcbd22; stroke-width: 1.5; stroke-linecap: square"/>
   </g>
   <g id="line2d_100">
    <path d="M 497.055 318.565045 
L 528.253975 318.565045 
L 550.39 318.565045 
L 567.560035 318.562659 
L 581.588975 318.563455 
L 603.725 318.561864 
L 634.923975 318.565841 
L 657.06 318.561068 
L 688.258975 318.56425 
L 710.395 318.563455 
L 741.593975 318.563455 
L 763.73 318.563455 
L 794.928975 318.565045 
L 817.065 318.563455 
L 848.263975 317.290783 
L 870.4 302.744149 
" clip-path="url(#pd3a15db12e)" style="fill: none; stroke: #17becf; stroke-width: 1.5; stroke-linecap: square"/>
   </g>
   <g id="line2d_101">
    <path d="M 497.055 318.541183 
L 528.253975 318.542774 
L 550.39 318.557091 
L 567.560035 318.552319 
L 581.588975 318.556296 
L 603.725 318.546751 
L 634.923975 318.538797 
L 657.06 318.551523 
L 688.258975 318.553114 
L 710.395 318.541183 
L 741.593975 318.53641 
L 763.73 318.563455 
L 794.928975 318.541978 
L 817.065 318.522888 
L 848.263975 316.077768 
L 870.4 292.740156 
" clip-path="url(#pd3a15db12e)" style="fill: none; stroke-dasharray: 5.55,2.4; stroke-dashoffset: 0; stroke: #1f77b4; stroke-width: 1.5"/>
   </g>
   <g id="line2d_102">
    <path d="M 497.055 318.55391 
L 528.253975 318.553114 
L 550.39 318.553114 
L 567.560035 318.527661 
L 581.588975 318.551523 
L 603.725 318.547546 
L 634.923975 318.551523 
L 657.06 318.543569 
L 688.258975 318.548342 
L 710.395 318.541183 
L 741.593975 318.539592 
L 763.73 318.558682 
L 794.928975 318.5555 
L 817.065 318.520502 
L 848.263975 317.025908 
L 870.4 291.683043 
" clip-path="url(#pd3a15db12e)" style="fill: none; stroke-dasharray: 5.55,2.4; stroke-dashoffset: 0; stroke: #ff7f0e; stroke-width: 1.5"/>
   </g>
   <g id="line2d_103">
    <path d="M 497.055 318.56425 
L 528.253975 318.56425 
L 550.39 318.56425 
L 567.560035 318.56425 
L 581.588975 318.56425 
L 603.725 318.56425 
L 634.923975 318.56425 
L 657.06 318.56425 
L 688.258975 318.56425 
L 710.395 318.56425 
L 741.593975 318.56425 
L 763.73 318.56425 
L 794.928975 318.56425 
L 817.065 318.563455 
L 848.263975 313.46561 
L 870.4 265.109663 
" clip-path="url(#pd3a15db12e)" style="fill: none; stroke-dasharray: 5.55,2.4; stroke-dashoffset: 0; stroke: #2ca02c; stroke-width: 1.5"/>
   </g>
   <g id="line2d_104">
    <path d="M 497.055 318.547546 
L 528.253975 318.549932 
L 550.39 318.551523 
L 567.560035 318.541978 
L 581.588975 318.550728 
L 603.725 318.545955 
L 634.923975 318.541183 
L 657.06 318.545955 
L 688.258975 318.551523 
L 710.395 318.549137 
L 741.593975 318.549932 
L 763.73 318.549932 
L 794.928975 318.546751 
L 817.065 318.538001 
L 848.263975 316.207422 
L 870.4 292.348809 
" clip-path="url(#pd3a15db12e)" style="fill: none; stroke-dasharray: 5.55,2.4; stroke-dashoffset: 0; stroke: #d62728; stroke-width: 1.5"/>
   </g>
   <g id="line2d_105">
    <path d="M 497.055 318.55391 
L 528.253975 318.553114 
L 550.39 318.552319 
L 567.560035 318.52607 
L 581.588975 318.549137 
L 603.725 318.548342 
L 634.923975 318.556296 
L 657.06 318.538001 
L 688.258975 318.548342 
L 710.395 318.557091 
L 741.593975 318.543569 
L 763.73 318.557091 
L 794.928975 318.556296 
L 817.065 318.532433 
L 848.263975 316.522408 
L 870.4 293.282632 
" clip-path="url(#pd3a15db12e)" style="fill: none; stroke-dasharray: 5.55,2.4; stroke-dashoffset: 0; stroke: #9467bd; stroke-width: 1.5"/>
   </g>
   <g id="line2d_106">
    <path d="M 497.055 318.39403 
L 528.253975 318.292216 
L 550.39 318.475163 
L 567.560035 318.099725 
L 581.588975 303.955573 
L 603.725 287.374255 
L 634.923975 270.728508 
L 657.06 260.123178 
L 688.258975 250.099299 
L 710.395 247.576228 
L 741.593975 243.572881 
L 763.73 241.4857 
L 794.928975 268.148962 
L 817.065 212.779005 
L 848.263975 169.887591 
L 870.4 131.660518 
" clip-path="url(#pd3a15db12e)" style="fill: none; stroke-dasharray: 5.55,2.4; stroke-dashoffset: 0; stroke: #8c564b; stroke-width: 1.5"/>
   </g>
   <g id="line2d_107">
    <path d="M 497.055 318.562659 
L 528.253975 318.558682 
L 550.39 318.542774 
L 567.560035 318.261195 
L 581.588975 303.79808 
L 603.725 287.419594 
L 634.923975 269.684917 
L 657.06 261.601067 
L 688.258975 252.455332 
L 710.395 248.366875 
L 741.593975 243.28653 
L 763.73 242.481565 
L 794.928975 238.913313 
L 817.065 207.285836 
L 848.263975 165.569257 
L 870.4 128.766781 
" clip-path="url(#pd3a15db12e)" style="fill: none; stroke-dasharray: 5.55,2.4; stroke-dashoffset: 0; stroke: #e377c2; stroke-width: 1.5"/>
   </g>
   <g id="line2d_108">
    <path d="M 497.055 278.462373 
L 528.253975 251.87388 
L 550.39 278.452828 
L 567.560035 246.586726 
L 581.588975 251.937514 
L 603.725 278.460782 
L 634.923975 251.915242 
L 657.06 278.478281 
L 688.258975 251.968535 
L 710.395 278.496576 
L 741.593975 252.034555 
L 763.73 279.012008 
L 794.928975 280.687162 
L 817.065 318.948438 
L 848.263975 305.552775 
L 870.4 318.712993 
" clip-path="url(#pd3a15db12e)" style="fill: none; stroke-dasharray: 5.55,2.4; stroke-dashoffset: 0; stroke: #7f7f7f; stroke-width: 1.5"/>
   </g>
   <g id="line2d_109">
    <path d="M 497.055 318.511752 
L 528.253975 318.408348 
L 550.39 318.502207 
L 567.560035 318.151427 
L 581.588975 304.69929 
L 603.725 288.067065 
L 634.923975 271.72835 
L 657.06 263.117137 
L 688.258975 254.667394 
L 710.395 250.316449 
L 741.593975 245.506546 
L 763.73 243.934797 
L 794.928975 247.837126 
L 817.065 209.145528 
L 848.263975 170.246325 
L 870.4 130.189787 
" clip-path="url(#pd3a15db12e)" style="fill: none; stroke-dasharray: 5.55,2.4; stroke-dashoffset: 0; stroke: #bcbd22; stroke-width: 1.5"/>
   </g>
   <g id="line2d_110">
    <path d="M 497.055 278.615094 
L 528.253975 252.156254 
L 550.39 278.640547 
L 567.560035 246.832511 
L 581.588975 252.157845 
L 603.725 278.649297 
L 634.923975 252.15705 
L 657.06 278.678727 
L 688.258975 252.182503 
L 710.395 278.672364 
L 741.593975 252.225456 
L 763.73 279.093936 
L 794.928975 283.930088 
L 817.065 319.572842 
L 848.263975 305.66493 
L 870.4 318.741629 
" clip-path="url(#pd3a15db12e)" style="fill: none; stroke-dasharray: 5.55,2.4; stroke-dashoffset: 0; stroke: #17becf; stroke-width: 1.5"/>
   </g>
   <g id="line2d_111">
    <path d="M 497.055 198.573605 
L 528.253975 119.147771 
L 550.39 198.661897 
L 567.560035 102.752582 
L 581.588975 105.412465 
L 603.725 168.177439 
L 634.923975 70.96284 
L 657.06 143.136037 
L 688.258975 53.773821 
L 710.395 129.695036 
L 741.593975 45.15704 
L 763.73 124.614691 
L 794.928975 137.183116 
L 817.065 206.283608 
L 848.263975 124.609918 
L 870.4 122.328655 
" clip-path="url(#pd3a15db12e)" style="fill: none; stroke-dasharray: 9.6,2.4,1.5,2.4; stroke-dashoffset: 0; stroke: #1f77b4; stroke-width: 1.5"/>
   </g>
   <g id="line2d_112">
    <path d="M 497.055 318.538001 
L 528.253975 318.482322 
L 550.39 318.525274 
L 567.560035 318.211084 
L 581.588975 305.007117 
L 603.725 288.156152 
L 634.923975 271.67983 
L 657.06 263.068616 
L 688.258975 253.654825 
L 710.395 250.646548 
L 741.593975 245.409505 
L 763.73 243.287325 
L 794.928975 242.081469 
L 817.065 209.886063 
L 848.263975 171.175375 
L 870.4 132.156064 
" clip-path="url(#pd3a15db12e)" style="fill: none; stroke-dasharray: 9.6,2.4,1.5,2.4; stroke-dashoffset: 0; stroke: #ff7f0e; stroke-width: 1.5"/>
   </g>
   <g id="line2d_113">
    <path d="M 497.055 278.483054 
L 528.253975 251.99717 
L 550.39 278.482258 
L 567.560035 246.69888 
L 581.588975 252.007511 
L 603.725 278.462373 
L 634.923975 251.970922 
L 657.06 278.49419 
L 688.258975 252.018647 
L 710.395 278.500553 
L 741.593975 252.070349 
L 763.73 279.040643 
L 794.928975 278.941216 
L 817.065 318.540387 
L 848.263975 305.326081 
L 870.4 318.511752 
" clip-path="url(#pd3a15db12e)" style="fill: none; stroke-dasharray: 9.6,2.4,1.5,2.4; stroke-dashoffset: 0; stroke: #2ca02c; stroke-width: 1.5"/>
   </g>
   <g id="line2d_114">
    <path d="M 497.055 318.560273 
L 528.253975 318.552319 
L 550.39 318.547546 
L 567.560035 318.282671 
L 581.588975 305.122453 
L 603.725 288.64454 
L 634.923975 272.120492 
L 657.06 263.831424 
L 688.258975 255.56065 
L 710.395 251.437195 
L 741.593975 247.299422 
L 763.73 245.232126 
L 794.928975 243.164035 
L 817.065 242.133967 
L 848.263975 241.09833 
L 870.4 240.570172 
" clip-path="url(#pd3a15db12e)" style="fill: none; stroke-dasharray: 9.6,2.4,1.5,2.4; stroke-dashoffset: 0; stroke: #d62728; stroke-width: 1.5"/>
   </g>
   <g id="line2d_115">
    <path d="M 497.055 318.558682 
L 528.253975 318.557887 
L 550.39 318.549932 
L 567.560035 318.538797 
L 581.588975 318.538797 
L 603.725 318.53641 
L 634.923975 318.557091 
L 657.06 318.541183 
L 688.258975 318.475958 
L 710.395 318.546751 
L 741.593975 318.547546 
L 763.73 318.549932 
L 794.928975 318.561068 
L 817.065 318.557887 
L 848.263975 316.099245 
L 870.4 292.883331 
" clip-path="url(#pd3a15db12e)" style="fill: none; stroke-dasharray: 9.6,2.4,1.5,2.4; stroke-dashoffset: 0; stroke: #9467bd; stroke-width: 1.5"/>
   </g>
   <g id="line2d_116">
    <path d="M 497.055 318.546751 
L 528.253975 318.552319 
L 550.39 318.545955 
L 567.560035 318.548342 
L 581.588975 318.542774 
L 603.725 318.546751 
L 634.923975 318.54516 
L 657.06 318.530047 
L 688.258975 318.544365 
L 710.395 318.52607 
L 741.593975 318.551523 
L 763.73 318.5555 
L 794.928975 318.588908 
L 817.065 318.548342 
L 848.263975 316.601154 
L 870.4 292.012347 
" clip-path="url(#pd3a15db12e)" style="fill: none; stroke-dasharray: 9.6,2.4,1.5,2.4; stroke-dashoffset: 0; stroke: #8c564b; stroke-width: 1.5"/>
   </g>
   <g id="line2d_117">
    <path d="M 497.055 318.542774 
L 528.253975 318.550728 
L 550.39 318.550728 
L 567.560035 318.559477 
L 581.588975 318.554705 
L 603.725 318.534024 
L 634.923975 318.537206 
L 657.06 318.54516 
L 688.258975 318.553114 
L 710.395 318.548342 
L 741.593975 318.549932 
L 763.73 318.561068 
L 794.928975 318.559477 
L 817.065 318.530842 
L 848.263975 317.208059 
L 870.4 291.825423 
" clip-path="url(#pd3a15db12e)" style="fill: none; stroke-dasharray: 9.6,2.4,1.5,2.4; stroke-dashoffset: 0; stroke: #e377c2; stroke-width: 1.5"/>
   </g>
   <g id="line2d_118">
    <path d="M 497.055 318.543569 
L 528.253975 318.542774 
L 550.39 318.556296 
L 567.560035 318.5555 
L 581.588975 318.54516 
L 603.725 318.4688 
L 634.923975 318.540387 
L 657.06 318.549932 
L 688.258975 318.549137 
L 710.395 318.541978 
L 741.593975 318.533229 
L 763.73 318.561864 
L 794.928975 318.567432 
L 817.065 318.514934 
L 848.263975 316.517635 
L 870.4 293.84738 
" clip-path="url(#pd3a15db12e)" style="fill: none; stroke-dasharray: 9.6,2.4,1.5,2.4; stroke-dashoffset: 0; stroke: #7f7f7f; stroke-width: 1.5"/>
   </g>
   <g id="line2d_119">
    <path d="M 497.055 318.554705 
L 528.253975 318.553114 
L 550.39 318.549932 
L 567.560035 318.541183 
L 581.588975 318.549137 
L 603.725 318.538797 
L 634.923975 318.554705 
L 657.06 318.539592 
L 688.258975 318.545955 
L 710.395 318.446528 
L 741.593975 318.544365 
L 763.73 318.553114 
L 794.928975 318.580954 
L 817.065 318.534819 
L 848.263975 317.099882 
L 870.4 291.823037 
" clip-path="url(#pd3a15db12e)" style="fill: none; stroke-dasharray: 9.6,2.4,1.5,2.4; stroke-dashoffset: 0; stroke: #bcbd22; stroke-width: 1.5"/>
   </g>
   <g id="line2d_120">
    <path d="M 497.055 318.5555 
L 528.253975 318.5555 
L 550.39 318.550728 
L 567.560035 318.540387 
L 581.588975 318.546751 
L 603.725 318.544365 
L 634.923975 318.557887 
L 657.06 318.541183 
L 688.258975 318.547546 
L 710.395 318.542774 
L 741.593975 318.546751 
L 763.73 318.550728 
L 794.928975 318.433006 
L 817.065 318.537206 
L 848.263975 316.677515 
L 870.4 293.867265 
" clip-path="url(#pd3a15db12e)" style="fill: none; stroke-dasharray: 9.6,2.4,1.5,2.4; stroke-dashoffset: 0; stroke: #17becf; stroke-width: 1.5"/>
   </g>
   <g id="line2d_121">
    <path d="M 567.560035 318.56425 
L 567.560035 31.43625 
" clip-path="url(#pd3a15db12e)" style="fill: none; stroke: #ff0000; stroke-width: 1.5; stroke-linecap: square"/>
   </g>
   <g id="line2d_122">
    <path d="M 794.928975 318.56425 
L 794.928975 31.43625 
" clip-path="url(#pd3a15db12e)" style="fill: none; stroke: #008000; stroke-width: 1.5; stroke-linecap: square"/>
   </g>
   <g id="patch_9">
    <path d="M 497.055 318.56425 
L 497.055 31.43625 
" style="fill: none; stroke: #000000; stroke-width: 0.8; stroke-linejoin: miter; stroke-linecap: square"/>
   </g>
   <g id="patch_10">
    <path d="M 870.4 318.56425 
L 870.4 31.43625 
" style="fill: none; stroke: #000000; stroke-width: 0.8; stroke-linejoin: miter; stroke-linecap: square"/>
   </g>
   <g id="patch_11">
    <path d="M 497.055 318.56425 
L 870.4 318.56425 
" style="fill: none; stroke: #000000; stroke-width: 0.8; stroke-linejoin: miter; stroke-linecap: square"/>
   </g>
   <g id="patch_12">
    <path d="M 497.055 31.43625 
L 870.4 31.43625 
" style="fill: none; stroke: #000000; stroke-width: 0.8; stroke-linejoin: miter; stroke-linecap: square"/>
   </g>
   <g id="text_41">
    <!-- Fire Storm (Store) -->
    <g transform="translate(577.535 25.43625)scale(0.24 -0.24)">
     <defs>
      <path id="DejaVuSans-46" d="M 628 4666 
L 3309 4666 
L 3309 4134 
L 1259 4134 
L 1259 2759 
L 3109 2759 
L 3109 2228 
L 1259 2228 
L 1259 0 
L 628 0 
L 628 4666 
z
" transform="scale(0.015625)"/>
     </defs>
     <use xlink:href="#DejaVuSans-46"/>
     <use xlink:href="#DejaVuSans-69" x="50.269531"/>
     <use xlink:href="#DejaVuSans-72" x="78.052734"/>
     <use xlink:href="#DejaVuSans-65" x="116.916016"/>
     <use xlink:href="#DejaVuSans-20" x="178.439453"/>
     <use xlink:href="#DejaVuSans-53" x="210.226562"/>
     <use xlink:href="#DejaVuSans-74" x="273.703125"/>
     <use xlink:href="#DejaVuSans-6f" x="312.912109"/>
     <use xlink:href="#DejaVuSans-72" x="374.09375"/>
     <use xlink:href="#DejaVuSans-6d" x="413.457031"/>
     <use xlink:href="#DejaVuSans-20" x="510.869141"/>
     <use xlink:href="#DejaVuSans-28" x="542.65625"/>
     <use xlink:href="#DejaVuSans-53" x="581.669922"/>
     <use xlink:href="#DejaVuSans-74" x="645.146484"/>
     <use xlink:href="#DejaVuSans-6f" x="684.355469"/>
     <use xlink:href="#DejaVuSans-72" x="745.537109"/>
     <use xlink:href="#DejaVuSans-65" x="784.400391"/>
     <use xlink:href="#DejaVuSans-29" x="845.923828"/>
    </g>
   </g>
   <g id="legend_2">
    <g id="patch_13">
     <path d="M 502.655 205.5565 
L 801.695 205.5565 
Q 803.295 205.5565 803.295 203.9565 
L 803.295 146.044 
Q 803.295 144.444 801.695 144.444 
L 502.655 144.444 
Q 501.055 144.444 501.055 146.044 
L 501.055 203.9565 
Q 501.055 205.5565 502.655 205.5565 
z
" style="fill: #ffffff; opacity: 0.8; stroke: #cccccc; stroke-linejoin: miter"/>
    </g>
    <g id="line2d_123">
     <path d="M 504.255 150.92275 
L 512.255 150.92275 
L 520.255 150.92275 
" style="fill: none; stroke: #1f77b4; stroke-width: 1.5; stroke-linecap: square"/>
    </g>
    <g id="text_42">
     <!-- 2 -->
     <g transform="translate(526.655 153.72275)scale(0.08 -0.08)">
      <use xlink:href="#DejaVuSans-32"/>
     </g>
    </g>
    <g id="line2d_124">
     <path d="M 504.255 162.66525 
L 512.255 162.66525 
L 520.255 162.66525 
" style="fill: none; stroke: #ff7f0e; stroke-width: 1.5; stroke-linecap: square"/>
    </g>
    <g id="text_43">
     <!-- 5 -->
     <g transform="translate(526.655 165.46525)scale(0.08 -0.08)">
      <use xlink:href="#DejaVuSans-35"/>
     </g>
    </g>
    <g id="line2d_125">
     <path d="M 504.255 174.40775 
L 512.255 174.40775 
L 520.255 174.40775 
" style="fill: none; stroke: #2ca02c; stroke-width: 1.5; stroke-linecap: square"/>
    </g>
    <g id="text_44">
     <!-- 8 -->
     <g transform="translate(526.655 177.20775)scale(0.08 -0.08)">
      <use xlink:href="#DejaVuSans-38"/>
     </g>
    </g>
    <g id="line2d_126">
     <path d="M 504.255 186.15025 
L 512.255 186.15025 
L 520.255 186.15025 
" style="fill: none; stroke: #d62728; stroke-width: 1.5; stroke-linecap: square"/>
    </g>
    <g id="text_45">
     <!-- 9 -->
     <g transform="translate(526.655 188.95025)scale(0.08 -0.08)">
      <use xlink:href="#DejaVuSans-39"/>
     </g>
    </g>
    <g id="line2d_127">
     <path d="M 504.255 197.89275 
L 512.255 197.89275 
L 520.255 197.89275 
" style="fill: none; stroke: #9467bd; stroke-width: 1.5; stroke-linecap: square"/>
    </g>
    <g id="text_46">
     <!-- 11 -->
     <g transform="translate(526.655 200.69275)scale(0.08 -0.08)">
      <use xlink:href="#DejaVuSans-31"/>
      <use xlink:href="#DejaVuSans-31" x="63.623047"/>
     </g>
    </g>
    <g id="line2d_128">
     <path d="M 552.835 150.92275 
L 560.835 150.92275 
L 568.835 150.92275 
" style="fill: none; stroke: #8c564b; stroke-width: 1.5; stroke-linecap: square"/>
    </g>
    <g id="text_47">
     <!-- 31 -->
     <g transform="translate(575.235 153.72275)scale(0.08 -0.08)">
      <use xlink:href="#DejaVuSans-33"/>
      <use xlink:href="#DejaVuSans-31" x="63.623047"/>
     </g>
    </g>
    <g id="line2d_129">
     <path d="M 552.835 162.66525 
L 560.835 162.66525 
L 568.835 162.66525 
" style="fill: none; stroke: #e377c2; stroke-width: 1.5; stroke-linecap: square"/>
    </g>
    <g id="text_48">
     <!-- 35 -->
     <g transform="translate(575.235 165.46525)scale(0.08 -0.08)">
      <use xlink:href="#DejaVuSans-33"/>
      <use xlink:href="#DejaVuSans-35" x="63.623047"/>
     </g>
    </g>
    <g id="line2d_130">
     <path d="M 552.835 174.40775 
L 560.835 174.40775 
L 568.835 174.40775 
" style="fill: none; stroke: #7f7f7f; stroke-width: 1.5; stroke-linecap: square"/>
    </g>
    <g id="text_49">
     <!-- 58 -->
     <g transform="translate(575.235 177.20775)scale(0.08 -0.08)">
      <use xlink:href="#DejaVuSans-35"/>
      <use xlink:href="#DejaVuSans-38" x="63.623047"/>
     </g>
    </g>
    <g id="line2d_131">
     <path d="M 552.835 186.15025 
L 560.835 186.15025 
L 568.835 186.15025 
" style="fill: none; stroke: #bcbd22; stroke-width: 1.5; stroke-linecap: square"/>
    </g>
    <g id="text_50">
     <!-- 63 -->
     <g transform="translate(575.235 188.95025)scale(0.08 -0.08)">
      <use xlink:href="#DejaVuSans-36"/>
      <use xlink:href="#DejaVuSans-33" x="63.623047"/>
     </g>
    </g>
    <g id="line2d_132">
     <path d="M 552.835 197.89275 
L 560.835 197.89275 
L 568.835 197.89275 
" style="fill: none; stroke: #17becf; stroke-width: 1.5; stroke-linecap: square"/>
    </g>
    <g id="text_51">
     <!-- 81 -->
     <g transform="translate(575.235 200.69275)scale(0.08 -0.08)">
      <use xlink:href="#DejaVuSans-38"/>
      <use xlink:href="#DejaVuSans-31" x="63.623047"/>
     </g>
    </g>
    <g id="line2d_133">
     <path d="M 601.415 150.92275 
L 609.415 150.92275 
L 617.415 150.92275 
" style="fill: none; stroke-dasharray: 5.55,2.4; stroke-dashoffset: 0; stroke: #1f77b4; stroke-width: 1.5"/>
    </g>
    <g id="text_52">
     <!-- 109 -->
     <g transform="translate(623.815 153.72275)scale(0.08 -0.08)">
      <use xlink:href="#DejaVuSans-31"/>
      <use xlink:href="#DejaVuSans-30" x="63.623047"/>
      <use xlink:href="#DejaVuSans-39" x="127.246094"/>
     </g>
    </g>
    <g id="line2d_134">
     <path d="M 601.415 162.66525 
L 609.415 162.66525 
L 617.415 162.66525 
" style="fill: none; stroke-dasharray: 5.55,2.4; stroke-dashoffset: 0; stroke: #ff7f0e; stroke-width: 1.5"/>
    </g>
    <g id="text_53">
     <!-- 110 -->
     <g transform="translate(623.815 165.46525)scale(0.08 -0.08)">
      <use xlink:href="#DejaVuSans-31"/>
      <use xlink:href="#DejaVuSans-31" x="63.623047"/>
      <use xlink:href="#DejaVuSans-30" x="127.246094"/>
     </g>
    </g>
    <g id="line2d_135">
     <path d="M 601.415 174.40775 
L 609.415 174.40775 
L 617.415 174.40775 
" style="fill: none; stroke-dasharray: 5.55,2.4; stroke-dashoffset: 0; stroke: #2ca02c; stroke-width: 1.5"/>
    </g>
    <g id="text_54">
     <!-- 113 -->
     <g transform="translate(623.815 177.20775)scale(0.08 -0.08)">
      <use xlink:href="#DejaVuSans-31"/>
      <use xlink:href="#DejaVuSans-31" x="63.623047"/>
      <use xlink:href="#DejaVuSans-33" x="127.246094"/>
     </g>
    </g>
    <g id="line2d_136">
     <path d="M 601.415 186.15025 
L 609.415 186.15025 
L 617.415 186.15025 
" style="fill: none; stroke-dasharray: 5.55,2.4; stroke-dashoffset: 0; stroke: #d62728; stroke-width: 1.5"/>
    </g>
    <g id="text_55">
     <!-- 118 -->
     <g transform="translate(623.815 188.95025)scale(0.08 -0.08)">
      <use xlink:href="#DejaVuSans-31"/>
      <use xlink:href="#DejaVuSans-31" x="63.623047"/>
      <use xlink:href="#DejaVuSans-38" x="127.246094"/>
     </g>
    </g>
    <g id="line2d_137">
     <path d="M 601.415 197.89275 
L 609.415 197.89275 
L 617.415 197.89275 
" style="fill: none; stroke-dasharray: 5.55,2.4; stroke-dashoffset: 0; stroke: #9467bd; stroke-width: 1.5"/>
    </g>
    <g id="text_56">
     <!-- 130 -->
     <g transform="translate(623.815 200.69275)scale(0.08 -0.08)">
      <use xlink:href="#DejaVuSans-31"/>
      <use xlink:href="#DejaVuSans-33" x="63.623047"/>
      <use xlink:href="#DejaVuSans-30" x="127.246094"/>
     </g>
    </g>
    <g id="line2d_138">
     <path d="M 655.085 150.92275 
L 663.085 150.92275 
L 671.085 150.92275 
" style="fill: none; stroke-dasharray: 5.55,2.4; stroke-dashoffset: 0; stroke: #8c564b; stroke-width: 1.5"/>
    </g>
    <g id="text_57">
     <!-- 160 -->
     <g transform="translate(677.485 153.72275)scale(0.08 -0.08)">
      <use xlink:href="#DejaVuSans-31"/>
      <use xlink:href="#DejaVuSans-36" x="63.623047"/>
      <use xlink:href="#DejaVuSans-30" x="127.246094"/>
     </g>
    </g>
    <g id="line2d_139">
     <path d="M 655.085 162.66525 
L 663.085 162.66525 
L 671.085 162.66525 
" style="fill: none; stroke-dasharray: 5.55,2.4; stroke-dashoffset: 0; stroke: #e377c2; stroke-width: 1.5"/>
    </g>
    <g id="text_58">
     <!-- 161 -->
     <g transform="translate(677.485 165.46525)scale(0.08 -0.08)">
      <use xlink:href="#DejaVuSans-31"/>
      <use xlink:href="#DejaVuSans-36" x="63.623047"/>
      <use xlink:href="#DejaVuSans-31" x="127.246094"/>
     </g>
    </g>
    <g id="line2d_140">
     <path d="M 655.085 174.40775 
L 663.085 174.40775 
L 671.085 174.40775 
" style="fill: none; stroke-dasharray: 5.55,2.4; stroke-dashoffset: 0; stroke: #7f7f7f; stroke-width: 1.5"/>
    </g>
    <g id="text_59">
     <!-- 162 -->
     <g transform="translate(677.485 177.20775)scale(0.08 -0.08)">
      <use xlink:href="#DejaVuSans-31"/>
      <use xlink:href="#DejaVuSans-36" x="63.623047"/>
      <use xlink:href="#DejaVuSans-32" x="127.246094"/>
     </g>
    </g>
    <g id="line2d_141">
     <path d="M 655.085 186.15025 
L 663.085 186.15025 
L 671.085 186.15025 
" style="fill: none; stroke-dasharray: 5.55,2.4; stroke-dashoffset: 0; stroke: #bcbd22; stroke-width: 1.5"/>
    </g>
    <g id="text_60">
     <!-- 167 -->
     <g transform="translate(677.485 188.95025)scale(0.08 -0.08)">
      <use xlink:href="#DejaVuSans-31"/>
      <use xlink:href="#DejaVuSans-36" x="63.623047"/>
      <use xlink:href="#DejaVuSans-37" x="127.246094"/>
     </g>
    </g>
    <g id="line2d_142">
     <path d="M 655.085 197.89275 
L 663.085 197.89275 
L 671.085 197.89275 
" style="fill: none; stroke-dasharray: 5.55,2.4; stroke-dashoffset: 0; stroke: #17becf; stroke-width: 1.5"/>
    </g>
    <g id="text_61">
     <!-- 168 -->
     <g transform="translate(677.485 200.69275)scale(0.08 -0.08)">
      <use xlink:href="#DejaVuSans-31"/>
      <use xlink:href="#DejaVuSans-36" x="63.623047"/>
      <use xlink:href="#DejaVuSans-38" x="127.246094"/>
     </g>
    </g>
    <g id="line2d_143">
     <path d="M 708.755 150.92275 
L 716.755 150.92275 
L 724.755 150.92275 
" style="fill: none; stroke-dasharray: 9.6,2.4,1.5,2.4; stroke-dashoffset: 0; stroke: #1f77b4; stroke-width: 1.5"/>
    </g>
    <g id="text_62">
     <!-- 172 -->
     <g transform="translate(731.155 153.72275)scale(0.08 -0.08)">
      <use xlink:href="#DejaVuSans-31"/>
      <use xlink:href="#DejaVuSans-37" x="63.623047"/>
      <use xlink:href="#DejaVuSans-32" x="127.246094"/>
     </g>
    </g>
    <g id="line2d_144">
     <path d="M 708.755 162.66525 
L 716.755 162.66525 
L 724.755 162.66525 
" style="fill: none; stroke-dasharray: 9.6,2.4,1.5,2.4; stroke-dashoffset: 0; stroke: #ff7f0e; stroke-width: 1.5"/>
    </g>
    <g id="text_63">
     <!-- 188 -->
     <g transform="translate(731.155 165.46525)scale(0.08 -0.08)">
      <use xlink:href="#DejaVuSans-31"/>
      <use xlink:href="#DejaVuSans-38" x="63.623047"/>
      <use xlink:href="#DejaVuSans-38" x="127.246094"/>
     </g>
    </g>
    <g id="line2d_145">
     <path d="M 708.755 174.40775 
L 716.755 174.40775 
L 724.755 174.40775 
" style="fill: none; stroke-dasharray: 9.6,2.4,1.5,2.4; stroke-dashoffset: 0; stroke: #2ca02c; stroke-width: 1.5"/>
    </g>
    <g id="text_64">
     <!-- 192 -->
     <g transform="translate(731.155 177.20775)scale(0.08 -0.08)">
      <use xlink:href="#DejaVuSans-31"/>
      <use xlink:href="#DejaVuSans-39" x="63.623047"/>
      <use xlink:href="#DejaVuSans-32" x="127.246094"/>
     </g>
    </g>
    <g id="line2d_146">
     <path d="M 708.755 186.15025 
L 716.755 186.15025 
L 724.755 186.15025 
" style="fill: none; stroke-dasharray: 9.6,2.4,1.5,2.4; stroke-dashoffset: 0; stroke: #d62728; stroke-width: 1.5"/>
    </g>
    <g id="text_65">
     <!-- 193 -->
     <g transform="translate(731.155 188.95025)scale(0.08 -0.08)">
      <use xlink:href="#DejaVuSans-31"/>
      <use xlink:href="#DejaVuSans-39" x="63.623047"/>
      <use xlink:href="#DejaVuSans-33" x="127.246094"/>
     </g>
    </g>
    <g id="line2d_147">
     <path d="M 708.755 197.89275 
L 716.755 197.89275 
L 724.755 197.89275 
" style="fill: none; stroke-dasharray: 9.6,2.4,1.5,2.4; stroke-dashoffset: 0; stroke: #9467bd; stroke-width: 1.5"/>
    </g>
    <g id="text_66">
     <!-- 224 -->
     <g transform="translate(731.155 200.69275)scale(0.08 -0.08)">
      <use xlink:href="#DejaVuSans-32"/>
      <use xlink:href="#DejaVuSans-32" x="63.623047"/>
      <use xlink:href="#DejaVuSans-34" x="127.246094"/>
     </g>
    </g>
    <g id="line2d_148">
     <path d="M 762.425 150.92275 
L 770.425 150.92275 
L 778.425 150.92275 
" style="fill: none; stroke-dasharray: 9.6,2.4,1.5,2.4; stroke-dashoffset: 0; stroke: #8c564b; stroke-width: 1.5"/>
    </g>
    <g id="text_67">
     <!-- 245 -->
     <g transform="translate(784.825 153.72275)scale(0.08 -0.08)">
      <use xlink:href="#DejaVuSans-32"/>
      <use xlink:href="#DejaVuSans-34" x="63.623047"/>
      <use xlink:href="#DejaVuSans-35" x="127.246094"/>
     </g>
    </g>
    <g id="line2d_149">
     <path d="M 762.425 162.66525 
L 770.425 162.66525 
L 778.425 162.66525 
" style="fill: none; stroke-dasharray: 9.6,2.4,1.5,2.4; stroke-dashoffset: 0; stroke: #e377c2; stroke-width: 1.5"/>
    </g>
    <g id="text_68">
     <!-- 246 -->
     <g transform="translate(784.825 165.46525)scale(0.08 -0.08)">
      <use xlink:href="#DejaVuSans-32"/>
      <use xlink:href="#DejaVuSans-34" x="63.623047"/>
      <use xlink:href="#DejaVuSans-36" x="127.246094"/>
     </g>
    </g>
    <g id="line2d_150">
     <path d="M 762.425 174.40775 
L 770.425 174.40775 
L 778.425 174.40775 
" style="fill: none; stroke-dasharray: 9.6,2.4,1.5,2.4; stroke-dashoffset: 0; stroke: #7f7f7f; stroke-width: 1.5"/>
    </g>
    <g id="text_69">
     <!-- 247 -->
     <g transform="translate(784.825 177.20775)scale(0.08 -0.08)">
      <use xlink:href="#DejaVuSans-32"/>
      <use xlink:href="#DejaVuSans-34" x="63.623047"/>
      <use xlink:href="#DejaVuSans-37" x="127.246094"/>
     </g>
    </g>
    <g id="line2d_151">
     <path d="M 762.425 186.15025 
L 770.425 186.15025 
L 778.425 186.15025 
" style="fill: none; stroke-dasharray: 9.6,2.4,1.5,2.4; stroke-dashoffset: 0; stroke: #bcbd22; stroke-width: 1.5"/>
    </g>
    <g id="text_70">
     <!-- 248 -->
     <g transform="translate(784.825 188.95025)scale(0.08 -0.08)">
      <use xlink:href="#DejaVuSans-32"/>
      <use xlink:href="#DejaVuSans-34" x="63.623047"/>
      <use xlink:href="#DejaVuSans-38" x="127.246094"/>
     </g>
    </g>
    <g id="line2d_152">
     <path d="M 762.425 197.89275 
L 770.425 197.89275 
L 778.425 197.89275 
" style="fill: none; stroke-dasharray: 9.6,2.4,1.5,2.4; stroke-dashoffset: 0; stroke: #17becf; stroke-width: 1.5"/>
    </g>
    <g id="text_71">
     <!-- 253 -->
     <g transform="translate(784.825 200.69275)scale(0.08 -0.08)">
      <use xlink:href="#DejaVuSans-32"/>
      <use xlink:href="#DejaVuSans-35" x="63.623047"/>
      <use xlink:href="#DejaVuSans-33" x="127.246094"/>
     </g>
    </g>
   </g>
  </g>
 </g>
 <defs>
  <clipPath id="p099dfa88d9">
   <rect x="47.1" y="31.43625" width="373.345" height="287.128"/>
  </clipPath>
  <clipPath id="pd3a15db12e">
   <rect x="497.055" y="31.43625" width="373.345" height="287.128"/>
  </clipPath>
 </defs>
</svg>
