<?xml version="1.0" encoding="utf-8" standalone="no"?>
<!DOCTYPE svg PUBLIC "-//W3C//DTD SVG 1.1//EN"
  "http://www.w3.org/Graphics/SVG/1.1/DTD/svg11.dtd">
<svg xmlns:xlink="http://www.w3.org/1999/xlink" width="877.600937pt" height="370.637687pt" viewBox="0 0 877.600937 370.637687" xmlns="http://www.w3.org/2000/svg" version="1.1">
 <defs>
  <style type="text/css">*{stroke-linejoin: round; stroke-linecap: butt}</style>
 </defs>
 <g id="figure_1">
  <g id="patch_1">
   <path d="M 0 370.637687 
L 877.600937 370.637687 
L 877.600937 0 
L 0 0 
L 0 370.637687 
z
" style="fill: none"/>
  </g>
  <g id="axes_1">
   <g id="patch_2">
    <path d="M 61.410938 318.56425 
L 424.36135 318.56425 
L 424.36135 31.43625 
L 61.410938 31.43625 
L 61.410938 318.56425 
z
" style="fill: none"/>
   </g>
   <g id="matplotlib.axis_1">
    <g id="xtick_1">
     <g id="line2d_1">
      <defs>
       <path id="md39032bed2" d="M 0 0 
L 0 3.5 
" style="stroke: #000000; stroke-width: 0.8"/>
      </defs>
      <g>
       <use xlink:href="#md39032bed2" x="94.794919" y="318.56425" style="stroke: #000000; stroke-width: 0.8"/>
      </g>
     </g>
     <g id="text_1">
      <!-- $\mathdefault{10^{2}}$ -->
      <g transform="translate(81.594919 336.961906)scale(0.15 -0.15)">
       <defs>
        <path id="DejaVuSans-31" d="M 794 531 
L 1825 531 
L 1825 4091 
L 703 3866 
L 703 4441 
L 1819 4666 
L 2450 4666 
L 2450 531 
L 3481 531 
L 3481 0 
L 794 0 
L 794 531 
z
" transform="scale(0.015625)"/>
        <path id="DejaVuSans-30" d="M 2034 4250 
Q 1547 4250 1301 3770 
Q 1056 3291 1056 2328 
Q 1056 1369 1301 889 
Q 1547 409 2034 409 
Q 2525 409 2770 889 
Q 3016 1369 3016 2328 
Q 3016 3291 2770 3770 
Q 2525 4250 2034 4250 
z
M 2034 4750 
Q 2819 4750 3233 4129 
Q 3647 3509 3647 2328 
Q 3647 1150 3233 529 
Q 2819 -91 2034 -91 
Q 1250 -91 836 529 
Q 422 1150 422 2328 
Q 422 3509 836 4129 
Q 1250 4750 2034 4750 
z
" transform="scale(0.015625)"/>
        <path id="DejaVuSans-32" d="M 1228 531 
L 3431 531 
L 3431 0 
L 469 0 
L 469 531 
Q 828 903 1448 1529 
Q 2069 2156 2228 2338 
Q 2531 2678 2651 2914 
Q 2772 3150 2772 3378 
Q 2772 3750 2511 3984 
Q 2250 4219 1831 4219 
Q 1534 4219 1204 4116 
Q 875 4013 500 3803 
L 500 4441 
Q 881 4594 1212 4672 
Q 1544 4750 1819 4750 
Q 2544 4750 2975 4387 
Q 3406 4025 3406 3419 
Q 3406 3131 3298 2873 
Q 3191 2616 2906 2266 
Q 2828 2175 2409 1742 
Q 1991 1309 1228 531 
z
" transform="scale(0.015625)"/>
       </defs>
       <use xlink:href="#DejaVuSans-31" transform="translate(0 0.765625)"/>
       <use xlink:href="#DejaVuSans-30" transform="translate(63.623047 0.765625)"/>
       <use xlink:href="#DejaVuSans-32" transform="translate(128.203125 39.046875)scale(0.7)"/>
      </g>
     </g>
    </g>
    <g id="xtick_2">
     <g id="line2d_2">
      <g>
       <use xlink:href="#md39032bed2" x="267.037087" y="318.56425" style="stroke: #000000; stroke-width: 0.8"/>
      </g>
     </g>
     <g id="text_2">
      <!-- $\mathdefault{10^{3}}$ -->
      <g transform="translate(253.837087 336.961906)scale(0.15 -0.15)">
       <defs>
        <path id="DejaVuSans-33" d="M 2597 2516 
Q 3050 2419 3304 2112 
Q 3559 1806 3559 1356 
Q 3559 666 3084 287 
Q 2609 -91 1734 -91 
Q 1441 -91 1130 -33 
Q 819 25 488 141 
L 488 750 
Q 750 597 1062 519 
Q 1375 441 1716 441 
Q 2309 441 2620 675 
Q 2931 909 2931 1356 
Q 2931 1769 2642 2001 
Q 2353 2234 1838 2234 
L 1294 2234 
L 1294 2753 
L 1863 2753 
Q 2328 2753 2575 2939 
Q 2822 3125 2822 3475 
Q 2822 3834 2567 4026 
Q 2313 4219 1838 4219 
Q 1578 4219 1281 4162 
Q 984 4106 628 3988 
L 628 4550 
Q 988 4650 1302 4700 
Q 1616 4750 1894 4750 
Q 2613 4750 3031 4423 
Q 3450 4097 3450 3541 
Q 3450 3153 3228 2886 
Q 3006 2619 2597 2516 
z
" transform="scale(0.015625)"/>
       </defs>
       <use xlink:href="#DejaVuSans-31" transform="translate(0 0.765625)"/>
       <use xlink:href="#DejaVuSans-30" transform="translate(63.623047 0.765625)"/>
       <use xlink:href="#DejaVuSans-33" transform="translate(128.203125 39.046875)scale(0.7)"/>
      </g>
     </g>
    </g>
    <g id="xtick_3">
     <g id="line2d_3">
      <defs>
       <path id="m00e623f56d" d="M 0 0 
L 0 2 
" style="stroke: #000000; stroke-width: 0.6"/>
      </defs>
      <g>
       <use xlink:href="#m00e623f56d" x="68.11427" y="318.56425" style="stroke: #000000; stroke-width: 0.6"/>
      </g>
     </g>
    </g>
    <g id="xtick_4">
     <g id="line2d_4">
      <g>
       <use xlink:href="#m00e623f56d" x="78.102928" y="318.56425" style="stroke: #000000; stroke-width: 0.6"/>
      </g>
     </g>
    </g>
    <g id="xtick_5">
     <g id="line2d_5">
      <g>
       <use xlink:href="#m00e623f56d" x="86.91355" y="318.56425" style="stroke: #000000; stroke-width: 0.6"/>
      </g>
     </g>
    </g>
    <g id="xtick_6">
     <g id="line2d_6">
      <g>
       <use xlink:href="#m00e623f56d" x="146.644978" y="318.56425" style="stroke: #000000; stroke-width: 0.6"/>
      </g>
     </g>
    </g>
    <g id="xtick_7">
     <g id="line2d_7">
      <g>
       <use xlink:href="#m00e623f56d" x="176.975318" y="318.56425" style="stroke: #000000; stroke-width: 0.6"/>
      </g>
     </g>
    </g>
    <g id="xtick_8">
     <g id="line2d_8">
      <g>
       <use xlink:href="#m00e623f56d" x="198.495037" y="318.56425" style="stroke: #000000; stroke-width: 0.6"/>
      </g>
     </g>
    </g>
    <g id="xtick_9">
     <g id="line2d_9">
      <g>
       <use xlink:href="#m00e623f56d" x="215.187028" y="318.56425" style="stroke: #000000; stroke-width: 0.6"/>
      </g>
     </g>
    </g>
    <g id="xtick_10">
     <g id="line2d_10">
      <g>
       <use xlink:href="#m00e623f56d" x="228.825377" y="318.56425" style="stroke: #000000; stroke-width: 0.6"/>
      </g>
     </g>
    </g>
    <g id="xtick_11">
     <g id="line2d_11">
      <g>
       <use xlink:href="#m00e623f56d" x="240.356437" y="318.56425" style="stroke: #000000; stroke-width: 0.6"/>
      </g>
     </g>
    </g>
    <g id="xtick_12">
     <g id="line2d_12">
      <g>
       <use xlink:href="#m00e623f56d" x="250.345096" y="318.56425" style="stroke: #000000; stroke-width: 0.6"/>
      </g>
     </g>
    </g>
    <g id="xtick_13">
     <g id="line2d_13">
      <g>
       <use xlink:href="#m00e623f56d" x="259.155717" y="318.56425" style="stroke: #000000; stroke-width: 0.6"/>
      </g>
     </g>
    </g>
    <g id="xtick_14">
     <g id="line2d_14">
      <g>
       <use xlink:href="#m00e623f56d" x="318.887146" y="318.56425" style="stroke: #000000; stroke-width: 0.6"/>
      </g>
     </g>
    </g>
    <g id="xtick_15">
     <g id="line2d_15">
      <g>
       <use xlink:href="#m00e623f56d" x="349.217486" y="318.56425" style="stroke: #000000; stroke-width: 0.6"/>
      </g>
     </g>
    </g>
    <g id="xtick_16">
     <g id="line2d_16">
      <g>
       <use xlink:href="#m00e623f56d" x="370.737205" y="318.56425" style="stroke: #000000; stroke-width: 0.6"/>
      </g>
     </g>
    </g>
    <g id="xtick_17">
     <g id="line2d_17">
      <g>
       <use xlink:href="#m00e623f56d" x="387.429195" y="318.56425" style="stroke: #000000; stroke-width: 0.6"/>
      </g>
     </g>
    </g>
    <g id="xtick_18">
     <g id="line2d_18">
      <g>
       <use xlink:href="#m00e623f56d" x="401.067545" y="318.56425" style="stroke: #000000; stroke-width: 0.6"/>
      </g>
     </g>
    </g>
    <g id="xtick_19">
     <g id="line2d_19">
      <g>
       <use xlink:href="#m00e623f56d" x="412.598605" y="318.56425" style="stroke: #000000; stroke-width: 0.6"/>
      </g>
     </g>
    </g>
    <g id="xtick_20">
     <g id="line2d_20">
      <g>
       <use xlink:href="#m00e623f56d" x="422.587264" y="318.56425" style="stroke: #000000; stroke-width: 0.6"/>
      </g>
     </g>
    </g>
    <g id="text_3">
     <!-- Pages -->
     <g transform="translate(213.467394 359.278312)scale(0.2 -0.2)">
      <defs>
       <path id="DejaVuSans-50" d="M 1259 4147 
L 1259 2394 
L 2053 2394 
Q 2494 2394 2734 2622 
Q 2975 2850 2975 3272 
Q 2975 3691 2734 3919 
Q 2494 4147 2053 4147 
L 1259 4147 
z
M 628 4666 
L 2053 4666 
Q 2838 4666 3239 4311 
Q 3641 3956 3641 3272 
Q 3641 2581 3239 2228 
Q 2838 1875 2053 1875 
L 1259 1875 
L 1259 0 
L 628 0 
L 628 4666 
z
" transform="scale(0.015625)"/>
       <path id="DejaVuSans-61" d="M 2194 1759 
Q 1497 1759 1228 1600 
Q 959 1441 959 1056 
Q 959 750 1161 570 
Q 1363 391 1709 391 
Q 2188 391 2477 730 
Q 2766 1069 2766 1631 
L 2766 1759 
L 2194 1759 
z
M 3341 1997 
L 3341 0 
L 2766 0 
L 2766 531 
Q 2569 213 2275 61 
Q 1981 -91 1556 -91 
Q 1019 -91 701 211 
Q 384 513 384 1019 
Q 384 1609 779 1909 
Q 1175 2209 1959 2209 
L 2766 2209 
L 2766 2266 
Q 2766 2663 2505 2880 
Q 2244 3097 1772 3097 
Q 1472 3097 1187 3025 
Q 903 2953 641 2809 
L 641 3341 
Q 956 3463 1253 3523 
Q 1550 3584 1831 3584 
Q 2591 3584 2966 3190 
Q 3341 2797 3341 1997 
z
" transform="scale(0.015625)"/>
       <path id="DejaVuSans-67" d="M 2906 1791 
Q 2906 2416 2648 2759 
Q 2391 3103 1925 3103 
Q 1463 3103 1205 2759 
Q 947 2416 947 1791 
Q 947 1169 1205 825 
Q 1463 481 1925 481 
Q 2391 481 2648 825 
Q 2906 1169 2906 1791 
z
M 3481 434 
Q 3481 -459 3084 -895 
Q 2688 -1331 1869 -1331 
Q 1566 -1331 1297 -1286 
Q 1028 -1241 775 -1147 
L 775 -588 
Q 1028 -725 1275 -790 
Q 1522 -856 1778 -856 
Q 2344 -856 2625 -561 
Q 2906 -266 2906 331 
L 2906 616 
Q 2728 306 2450 153 
Q 2172 0 1784 0 
Q 1141 0 747 490 
Q 353 981 353 1791 
Q 353 2603 747 3093 
Q 1141 3584 1784 3584 
Q 2172 3584 2450 3431 
Q 2728 3278 2906 2969 
L 2906 3500 
L 3481 3500 
L 3481 434 
z
" transform="scale(0.015625)"/>
       <path id="DejaVuSans-65" d="M 3597 1894 
L 3597 1613 
L 953 1613 
Q 991 1019 1311 708 
Q 1631 397 2203 397 
Q 2534 397 2845 478 
Q 3156 559 3463 722 
L 3463 178 
Q 3153 47 2828 -22 
Q 2503 -91 2169 -91 
Q 1331 -91 842 396 
Q 353 884 353 1716 
Q 353 2575 817 3079 
Q 1281 3584 2069 3584 
Q 2775 3584 3186 3129 
Q 3597 2675 3597 1894 
z
M 3022 2063 
Q 3016 2534 2758 2815 
Q 2500 3097 2075 3097 
Q 1594 3097 1305 2825 
Q 1016 2553 972 2059 
L 3022 2063 
z
" transform="scale(0.015625)"/>
       <path id="DejaVuSans-73" d="M 2834 3397 
L 2834 2853 
Q 2591 2978 2328 3040 
Q 2066 3103 1784 3103 
Q 1356 3103 1142 2972 
Q 928 2841 928 2578 
Q 928 2378 1081 2264 
Q 1234 2150 1697 2047 
L 1894 2003 
Q 2506 1872 2764 1633 
Q 3022 1394 3022 966 
Q 3022 478 2636 193 
Q 2250 -91 1575 -91 
Q 1294 -91 989 -36 
Q 684 19 347 128 
L 347 722 
Q 666 556 975 473 
Q 1284 391 1588 391 
Q 1994 391 2212 530 
Q 2431 669 2431 922 
Q 2431 1156 2273 1281 
Q 2116 1406 1581 1522 
L 1381 1569 
Q 847 1681 609 1914 
Q 372 2147 372 2553 
Q 372 3047 722 3315 
Q 1072 3584 1716 3584 
Q 2034 3584 2315 3537 
Q 2597 3491 2834 3397 
z
" transform="scale(0.015625)"/>
      </defs>
      <use xlink:href="#DejaVuSans-50"/>
      <use xlink:href="#DejaVuSans-61" x="55.802734"/>
      <use xlink:href="#DejaVuSans-67" x="117.082031"/>
      <use xlink:href="#DejaVuSans-65" x="180.558594"/>
      <use xlink:href="#DejaVuSans-73" x="242.082031"/>
     </g>
    </g>
   </g>
   <g id="matplotlib.axis_2">
    <g id="ytick_1">
     <g id="line2d_21">
      <defs>
       <path id="m6f3f5b6aff" d="M 0 0 
L -3.5 0 
" style="stroke: #000000; stroke-width: 0.8"/>
      </defs>
      <g>
       <use xlink:href="#m6f3f5b6aff" x="61.410938" y="318.56425" style="stroke: #000000; stroke-width: 0.8"/>
      </g>
     </g>
     <g id="text_4">
      <!-- 0.0 -->
      <g transform="translate(30.55625 324.263078)scale(0.15 -0.15)">
       <defs>
        <path id="DejaVuSans-2e" d="M 684 794 
L 1344 794 
L 1344 0 
L 684 0 
L 684 794 
z
" transform="scale(0.015625)"/>
       </defs>
       <use xlink:href="#DejaVuSans-30"/>
       <use xlink:href="#DejaVuSans-2e" x="63.623047"/>
       <use xlink:href="#DejaVuSans-30" x="95.410156"/>
      </g>
     </g>
    </g>
    <g id="ytick_2">
     <g id="line2d_22">
      <g>
       <use xlink:href="#m6f3f5b6aff" x="61.410938" y="263.050369" style="stroke: #000000; stroke-width: 0.8"/>
      </g>
     </g>
     <g id="text_5">
      <!-- 0.2 -->
      <g transform="translate(30.55625 268.749197)scale(0.15 -0.15)">
       <use xlink:href="#DejaVuSans-30"/>
       <use xlink:href="#DejaVuSans-2e" x="63.623047"/>
       <use xlink:href="#DejaVuSans-32" x="95.410156"/>
      </g>
     </g>
    </g>
    <g id="ytick_3">
     <g id="line2d_23">
      <g>
       <use xlink:href="#m6f3f5b6aff" x="61.410938" y="207.536489" style="stroke: #000000; stroke-width: 0.8"/>
      </g>
     </g>
     <g id="text_6">
      <!-- 0.4 -->
      <g transform="translate(30.55625 213.235317)scale(0.15 -0.15)">
       <defs>
        <path id="DejaVuSans-34" d="M 2419 4116 
L 825 1625 
L 2419 1625 
L 2419 4116 
z
M 2253 4666 
L 3047 4666 
L 3047 1625 
L 3713 1625 
L 3713 1100 
L 3047 1100 
L 3047 0 
L 2419 0 
L 2419 1100 
L 313 1100 
L 313 1709 
L 2253 4666 
z
" transform="scale(0.015625)"/>
       </defs>
       <use xlink:href="#DejaVuSans-30"/>
       <use xlink:href="#DejaVuSans-2e" x="63.623047"/>
       <use xlink:href="#DejaVuSans-34" x="95.410156"/>
      </g>
     </g>
    </g>
    <g id="ytick_4">
     <g id="line2d_24">
      <g>
       <use xlink:href="#m6f3f5b6aff" x="61.410938" y="152.022608" style="stroke: #000000; stroke-width: 0.8"/>
      </g>
     </g>
     <g id="text_7">
      <!-- 0.6 -->
      <g transform="translate(30.55625 157.721436)scale(0.15 -0.15)">
       <defs>
        <path id="DejaVuSans-36" d="M 2113 2584 
Q 1688 2584 1439 2293 
Q 1191 2003 1191 1497 
Q 1191 994 1439 701 
Q 1688 409 2113 409 
Q 2538 409 2786 701 
Q 3034 994 3034 1497 
Q 3034 2003 2786 2293 
Q 2538 2584 2113 2584 
z
M 3366 4563 
L 3366 3988 
Q 3128 4100 2886 4159 
Q 2644 4219 2406 4219 
Q 1781 4219 1451 3797 
Q 1122 3375 1075 2522 
Q 1259 2794 1537 2939 
Q 1816 3084 2150 3084 
Q 2853 3084 3261 2657 
Q 3669 2231 3669 1497 
Q 3669 778 3244 343 
Q 2819 -91 2113 -91 
Q 1303 -91 875 529 
Q 447 1150 447 2328 
Q 447 3434 972 4092 
Q 1497 4750 2381 4750 
Q 2619 4750 2861 4703 
Q 3103 4656 3366 4563 
z
" transform="scale(0.015625)"/>
       </defs>
       <use xlink:href="#DejaVuSans-30"/>
       <use xlink:href="#DejaVuSans-2e" x="63.623047"/>
       <use xlink:href="#DejaVuSans-36" x="95.410156"/>
      </g>
     </g>
    </g>
    <g id="ytick_5">
     <g id="line2d_25">
      <g>
       <use xlink:href="#m6f3f5b6aff" x="61.410938" y="96.508727" style="stroke: #000000; stroke-width: 0.8"/>
      </g>
     </g>
     <g id="text_8">
      <!-- 0.8 -->
      <g transform="translate(30.55625 102.207555)scale(0.15 -0.15)">
       <defs>
        <path id="DejaVuSans-38" d="M 2034 2216 
Q 1584 2216 1326 1975 
Q 1069 1734 1069 1313 
Q 1069 891 1326 650 
Q 1584 409 2034 409 
Q 2484 409 2743 651 
Q 3003 894 3003 1313 
Q 3003 1734 2745 1975 
Q 2488 2216 2034 2216 
z
M 1403 2484 
Q 997 2584 770 2862 
Q 544 3141 544 3541 
Q 544 4100 942 4425 
Q 1341 4750 2034 4750 
Q 2731 4750 3128 4425 
Q 3525 4100 3525 3541 
Q 3525 3141 3298 2862 
Q 3072 2584 2669 2484 
Q 3125 2378 3379 2068 
Q 3634 1759 3634 1313 
Q 3634 634 3220 271 
Q 2806 -91 2034 -91 
Q 1263 -91 848 271 
Q 434 634 434 1313 
Q 434 1759 690 2068 
Q 947 2378 1403 2484 
z
M 1172 3481 
Q 1172 3119 1398 2916 
Q 1625 2713 2034 2713 
Q 2441 2713 2670 2916 
Q 2900 3119 2900 3481 
Q 2900 3844 2670 4047 
Q 2441 4250 2034 4250 
Q 1625 4250 1398 4047 
Q 1172 3844 1172 3481 
z
" transform="scale(0.015625)"/>
       </defs>
       <use xlink:href="#DejaVuSans-30"/>
       <use xlink:href="#DejaVuSans-2e" x="63.623047"/>
       <use xlink:href="#DejaVuSans-38" x="95.410156"/>
      </g>
     </g>
    </g>
    <g id="ytick_6">
     <g id="line2d_26">
      <g>
       <use xlink:href="#m6f3f5b6aff" x="61.410938" y="40.994846" style="stroke: #000000; stroke-width: 0.8"/>
      </g>
     </g>
     <g id="text_9">
      <!-- 1.0 -->
      <g transform="translate(30.55625 46.693674)scale(0.15 -0.15)">
       <use xlink:href="#DejaVuSans-31"/>
       <use xlink:href="#DejaVuSans-2e" x="63.623047"/>
       <use xlink:href="#DejaVuSans-30" x="95.410156"/>
      </g>
     </g>
    </g>
    <g id="text_10">
     <!-- Count Difference -->
     <g transform="translate(22.396875 259.57525)rotate(-90)scale(0.2 -0.2)">
      <defs>
       <path id="DejaVuSans-43" d="M 4122 4306 
L 4122 3641 
Q 3803 3938 3442 4084 
Q 3081 4231 2675 4231 
Q 1875 4231 1450 3742 
Q 1025 3253 1025 2328 
Q 1025 1406 1450 917 
Q 1875 428 2675 428 
Q 3081 428 3442 575 
Q 3803 722 4122 1019 
L 4122 359 
Q 3791 134 3420 21 
Q 3050 -91 2638 -91 
Q 1578 -91 968 557 
Q 359 1206 359 2328 
Q 359 3453 968 4101 
Q 1578 4750 2638 4750 
Q 3056 4750 3426 4639 
Q 3797 4528 4122 4306 
z
" transform="scale(0.015625)"/>
       <path id="DejaVuSans-6f" d="M 1959 3097 
Q 1497 3097 1228 2736 
Q 959 2375 959 1747 
Q 959 1119 1226 758 
Q 1494 397 1959 397 
Q 2419 397 2687 759 
Q 2956 1122 2956 1747 
Q 2956 2369 2687 2733 
Q 2419 3097 1959 3097 
z
M 1959 3584 
Q 2709 3584 3137 3096 
Q 3566 2609 3566 1747 
Q 3566 888 3137 398 
Q 2709 -91 1959 -91 
Q 1206 -91 779 398 
Q 353 888 353 1747 
Q 353 2609 779 3096 
Q 1206 3584 1959 3584 
z
" transform="scale(0.015625)"/>
       <path id="DejaVuSans-75" d="M 544 1381 
L 544 3500 
L 1119 3500 
L 1119 1403 
Q 1119 906 1312 657 
Q 1506 409 1894 409 
Q 2359 409 2629 706 
Q 2900 1003 2900 1516 
L 2900 3500 
L 3475 3500 
L 3475 0 
L 2900 0 
L 2900 538 
Q 2691 219 2414 64 
Q 2138 -91 1772 -91 
Q 1169 -91 856 284 
Q 544 659 544 1381 
z
M 1991 3584 
L 1991 3584 
z
" transform="scale(0.015625)"/>
       <path id="DejaVuSans-6e" d="M 3513 2113 
L 3513 0 
L 2938 0 
L 2938 2094 
Q 2938 2591 2744 2837 
Q 2550 3084 2163 3084 
Q 1697 3084 1428 2787 
Q 1159 2491 1159 1978 
L 1159 0 
L 581 0 
L 581 3500 
L 1159 3500 
L 1159 2956 
Q 1366 3272 1645 3428 
Q 1925 3584 2291 3584 
Q 2894 3584 3203 3211 
Q 3513 2838 3513 2113 
z
" transform="scale(0.015625)"/>
       <path id="DejaVuSans-74" d="M 1172 4494 
L 1172 3500 
L 2356 3500 
L 2356 3053 
L 1172 3053 
L 1172 1153 
Q 1172 725 1289 603 
Q 1406 481 1766 481 
L 2356 481 
L 2356 0 
L 1766 0 
Q 1100 0 847 248 
Q 594 497 594 1153 
L 594 3053 
L 172 3053 
L 172 3500 
L 594 3500 
L 594 4494 
L 1172 4494 
z
" transform="scale(0.015625)"/>
       <path id="DejaVuSans-20" transform="scale(0.015625)"/>
       <path id="DejaVuSans-44" d="M 1259 4147 
L 1259 519 
L 2022 519 
Q 2988 519 3436 956 
Q 3884 1394 3884 2338 
Q 3884 3275 3436 3711 
Q 2988 4147 2022 4147 
L 1259 4147 
z
M 628 4666 
L 1925 4666 
Q 3281 4666 3915 4102 
Q 4550 3538 4550 2338 
Q 4550 1131 3912 565 
Q 3275 0 1925 0 
L 628 0 
L 628 4666 
z
" transform="scale(0.015625)"/>
       <path id="DejaVuSans-69" d="M 603 3500 
L 1178 3500 
L 1178 0 
L 603 0 
L 603 3500 
z
M 603 4863 
L 1178 4863 
L 1178 4134 
L 603 4134 
L 603 4863 
z
" transform="scale(0.015625)"/>
       <path id="DejaVuSans-66" d="M 2375 4863 
L 2375 4384 
L 1825 4384 
Q 1516 4384 1395 4259 
Q 1275 4134 1275 3809 
L 1275 3500 
L 2222 3500 
L 2222 3053 
L 1275 3053 
L 1275 0 
L 697 0 
L 697 3053 
L 147 3053 
L 147 3500 
L 697 3500 
L 697 3744 
Q 697 4328 969 4595 
Q 1241 4863 1831 4863 
L 2375 4863 
z
" transform="scale(0.015625)"/>
       <path id="DejaVuSans-72" d="M 2631 2963 
Q 2534 3019 2420 3045 
Q 2306 3072 2169 3072 
Q 1681 3072 1420 2755 
Q 1159 2438 1159 1844 
L 1159 0 
L 581 0 
L 581 3500 
L 1159 3500 
L 1159 2956 
Q 1341 3275 1631 3429 
Q 1922 3584 2338 3584 
Q 2397 3584 2469 3576 
Q 2541 3569 2628 3553 
L 2631 2963 
z
" transform="scale(0.015625)"/>
       <path id="DejaVuSans-63" d="M 3122 3366 
L 3122 2828 
Q 2878 2963 2633 3030 
Q 2388 3097 2138 3097 
Q 1578 3097 1268 2742 
Q 959 2388 959 1747 
Q 959 1106 1268 751 
Q 1578 397 2138 397 
Q 2388 397 2633 464 
Q 2878 531 3122 666 
L 3122 134 
Q 2881 22 2623 -34 
Q 2366 -91 2075 -91 
Q 1284 -91 818 406 
Q 353 903 353 1747 
Q 353 2603 823 3093 
Q 1294 3584 2113 3584 
Q 2378 3584 2631 3529 
Q 2884 3475 3122 3366 
z
" transform="scale(0.015625)"/>
      </defs>
      <use xlink:href="#DejaVuSans-43"/>
      <use xlink:href="#DejaVuSans-6f" x="69.824219"/>
      <use xlink:href="#DejaVuSans-75" x="131.005859"/>
      <use xlink:href="#DejaVuSans-6e" x="194.384766"/>
      <use xlink:href="#DejaVuSans-74" x="257.763672"/>
      <use xlink:href="#DejaVuSans-20" x="296.972656"/>
      <use xlink:href="#DejaVuSans-44" x="328.759766"/>
      <use xlink:href="#DejaVuSans-69" x="405.761719"/>
      <use xlink:href="#DejaVuSans-66" x="433.544922"/>
      <use xlink:href="#DejaVuSans-66" x="468.75"/>
      <use xlink:href="#DejaVuSans-65" x="503.955078"/>
      <use xlink:href="#DejaVuSans-72" x="565.478516"/>
      <use xlink:href="#DejaVuSans-65" x="604.341797"/>
      <use xlink:href="#DejaVuSans-6e" x="665.865234"/>
      <use xlink:href="#DejaVuSans-63" x="729.244141"/>
      <use xlink:href="#DejaVuSans-65" x="784.224609"/>
     </g>
    </g>
   </g>
   <g id="line2d_27">
    <defs>
     <path id="mb7e9aad44b" d="M 0 1.5 
C 0.397805 1.5 0.77937 1.341951 1.06066 1.06066 
C 1.341951 0.77937 1.5 0.397805 1.5 0 
C 1.5 -0.397805 1.341951 -0.77937 1.06066 -1.06066 
C 0.77937 -1.341951 0.397805 -1.5 0 -1.5 
C -0.397805 -1.5 -0.77937 -1.341951 -1.06066 -1.06066 
C -1.341951 -0.77937 -1.5 -0.397805 -1.5 0 
C -1.5 0.397805 -1.341951 0.77937 -1.06066 1.06066 
C -0.77937 1.341951 -0.397805 1.5 0 1.5 
z
" style="stroke: #1f77b4"/>
    </defs>
    <g clip-path="url(#p552ee41c08)">
     <use xlink:href="#mb7e9aad44b" x="61.410937" y="318.503185" style="fill: #1f77b4; stroke: #1f77b4"/>
     <use xlink:href="#mb7e9aad44b" x="91.741278" y="318.32554" style="fill: #1f77b4; stroke: #1f77b4"/>
     <use xlink:href="#mb7e9aad44b" x="113.260996" y="317.001534" style="fill: #1f77b4; stroke: #1f77b4"/>
     <use xlink:href="#mb7e9aad44b" x="129.952987" y="262.176026" style="fill: #1f77b4; stroke: #1f77b4"/>
     <use xlink:href="#mb7e9aad44b" x="143.591337" y="225.445266" style="fill: #1f77b4; stroke: #1f77b4"/>
     <use xlink:href="#mb7e9aad44b" x="165.111055" y="179.357643" style="fill: #1f77b4; stroke: #1f77b4"/>
     <use xlink:href="#mb7e9aad44b" x="195.441396" y="133.35329" style="fill: #1f77b4; stroke: #1f77b4"/>
     <use xlink:href="#mb7e9aad44b" x="216.961114" y="110.167917" style="fill: #1f77b4; stroke: #1f77b4"/>
     <use xlink:href="#mb7e9aad44b" x="247.291455" y="87.187946" style="fill: #1f77b4; stroke: #1f77b4"/>
     <use xlink:href="#mb7e9aad44b" x="268.811173" y="75.660489" style="fill: #1f77b4; stroke: #1f77b4"/>
     <use xlink:href="#mb7e9aad44b" x="299.141514" y="64.091396" style="fill: #1f77b4; stroke: #1f77b4"/>
     <use xlink:href="#mb7e9aad44b" x="320.661232" y="58.309626" style="fill: #1f77b4; stroke: #1f77b4"/>
     <use xlink:href="#mb7e9aad44b" x="350.991573" y="52.561163" style="fill: #1f77b4; stroke: #1f77b4"/>
     <use xlink:href="#mb7e9aad44b" x="372.511291" y="49.682769" style="fill: #1f77b4; stroke: #1f77b4"/>
     <use xlink:href="#mb7e9aad44b" x="402.841632" y="46.798823" style="fill: #1f77b4; stroke: #1f77b4"/>
     <use xlink:href="#mb7e9aad44b" x="424.36135" y="45.341583" style="fill: #1f77b4; stroke: #1f77b4"/>
    </g>
   </g>
   <g id="line2d_28">
    <path d="M 60.982541 318.56425 
L 112.8326 318.56425 
L 113.336331 317.117074 
L 117.72348 301.388593 
L 121.86752 287.355397 
L 126.217806 273.436722 
L 130.32894 261.006675 
L 134.604608 248.783795 
L 139.006102 236.910141 
L 143.16294 226.320125 
L 147.419886 216.068088 
L 151.748587 206.224613 
L 156.124327 196.836558 
L 160.525821 187.931317 
L 164.934948 179.520812 
L 169.336443 171.605043 
L 173.717579 164.175122 
L 178.278877 156.888401 
L 182.776636 150.125382 
L 187.393247 143.593879 
L 191.917226 137.572809 
L 196.514129 131.816506 
L 201.155855 126.352132 
L 205.964181 121.03806 
L 210.755518 116.071875 
L 215.642942 111.323414 
L 220.590452 106.822385 
L 225.679536 102.492921 
L 230.862827 98.375895 
L 236.197437 94.42629 
L 241.629888 90.683508 
L 247.199255 87.118402 
L 252.928277 83.717808 
L 258.826095 80.478735 
L 264.890867 77.403883 
L 271.173131 74.471015 
L 277.641326 71.69799 
L 284.363796 69.059111 
L 291.372658 66.549015 
L 298.670986 64.173557 
L 306.277923 61.932359 
L 314.284811 59.807015 
L 322.687678 57.808174 
L 331.556019 55.928499 
L 340.95862 54.164568 
L 350.962242 52.516048 
L 361.65975 50.98082 
L 373.164868 49.557221 
L 385.586868 48.247131 
L 399.108651 47.047842 
L 413.944295 45.958916 
L 424.366052 45.313332 
L 424.366052 45.313332 
" clip-path="url(#p552ee41c08)" style="fill: none; stroke: #1f77b4; stroke-width: 1.5; stroke-linecap: square"/>
   </g>
   <g id="line2d_29">
    <defs>
     <path id="m2b06e4dde2" d="M 0 1.5 
C 0.397805 1.5 0.77937 1.341951 1.06066 1.06066 
C 1.341951 0.77937 1.5 0.397805 1.5 0 
C 1.5 -0.397805 1.341951 -0.77937 1.06066 -1.06066 
C 0.77937 -1.341951 0.397805 -1.5 0 -1.5 
C -0.397805 -1.5 -0.77937 -1.341951 -1.06066 -1.06066 
C -1.341951 -0.77937 -1.5 -0.397805 -1.5 0 
C -1.5 0.397805 -1.341951 0.77937 -1.06066 1.06066 
C -0.77937 1.341951 -0.397805 1.5 0 1.5 
z
" style="stroke: #ff7f0e"/>
    </defs>
    <g clip-path="url(#p552ee41c08)">
     <use xlink:href="#m2b06e4dde2" x="61.410937" y="318.56425" style="fill: #ff7f0e; stroke: #ff7f0e"/>
     <use xlink:href="#m2b06e4dde2" x="91.741278" y="318.56425" style="fill: #ff7f0e; stroke: #ff7f0e"/>
     <use xlink:href="#m2b06e4dde2" x="113.260996" y="318.56425" style="fill: #ff7f0e; stroke: #ff7f0e"/>
     <use xlink:href="#m2b06e4dde2" x="129.952987" y="318.56425" style="fill: #ff7f0e; stroke: #ff7f0e"/>
     <use xlink:href="#m2b06e4dde2" x="143.591337" y="318.56425" style="fill: #ff7f0e; stroke: #ff7f0e"/>
     <use xlink:href="#m2b06e4dde2" x="165.111055" y="318.56425" style="fill: #ff7f0e; stroke: #ff7f0e"/>
     <use xlink:href="#m2b06e4dde2" x="195.441396" y="318.56425" style="fill: #ff7f0e; stroke: #ff7f0e"/>
     <use xlink:href="#m2b06e4dde2" x="216.961114" y="318.54482" style="fill: #ff7f0e; stroke: #ff7f0e"/>
     <use xlink:href="#m2b06e4dde2" x="247.291455" y="318.472652" style="fill: #ff7f0e; stroke: #ff7f0e"/>
     <use xlink:href="#m2b06e4dde2" x="268.811173" y="317.576103" style="fill: #ff7f0e; stroke: #ff7f0e"/>
     <use xlink:href="#m2b06e4dde2" x="299.141514" y="225.39808" style="fill: #ff7f0e; stroke: #ff7f0e"/>
     <use xlink:href="#m2b06e4dde2" x="320.661232" y="179.213307" style="fill: #ff7f0e; stroke: #ff7f0e"/>
     <use xlink:href="#m2b06e4dde2" x="350.991573" y="133.003552" style="fill: #ff7f0e; stroke: #ff7f0e"/>
     <use xlink:href="#m2b06e4dde2" x="372.511291" y="109.920881" style="fill: #ff7f0e; stroke: #ff7f0e"/>
     <use xlink:href="#m2b06e4dde2" x="402.841632" y="86.74106" style="fill: #ff7f0e; stroke: #ff7f0e"/>
     <use xlink:href="#m2b06e4dde2" x="424.36135" y="75.221929" style="fill: #ff7f0e; stroke: #ff7f0e"/>
    </g>
   </g>
   <g id="line2d_30">
    <path d="M 60.982541 318.56425 
L 268.509028 318.56425 
L 273.863131 299.394498 
L 278.086589 285.209354 
L 282.294402 271.851197 
L 286.526342 259.153333 
L 290.7662 247.132076 
L 295.00022 235.78843 
L 299.258673 225.008908 
L 303.525048 214.807495 
L 307.822655 205.1031 
L 312.133533 195.913037 
L 316.475663 187.176532 
L 320.83064 178.90903 
L 325.212434 171.06247 
L 329.630815 163.602353 
L 334.091985 156.504024 
L 338.599142 149.749771 
L 343.129735 143.35839 
L 347.708459 137.280648 
L 352.352727 131.484444 
L 357.054408 125.971913 
L 361.804859 120.743188 
L 366.629189 115.762313 
L 371.528026 111.022746 
L 376.513716 106.507514 
L 381.59223 102.207408 
L 386.777266 98.108163 
L 392.074771 94.203373 
L 397.495598 90.483896 
L 403.052812 86.940576 
L 408.759507 83.565796 
L 414.636054 80.349438 
L 420.688875 77.290453 
L 424.366052 75.549392 
L 424.366052 75.549392 
" clip-path="url(#p552ee41c08)" style="fill: none; stroke: #ff7f0e; stroke-width: 1.5; stroke-linecap: square"/>
   </g>
   <g id="line2d_31">
    <defs>
     <path id="m4df8316420" d="M 0 1.5 
C 0.397805 1.5 0.77937 1.341951 1.06066 1.06066 
C 1.341951 0.77937 1.5 0.397805 1.5 0 
C 1.5 -0.397805 1.341951 -0.77937 1.06066 -1.06066 
C 0.77937 -1.341951 0.397805 -1.5 0 -1.5 
C -0.397805 -1.5 -0.77937 -1.341951 -1.06066 -1.06066 
C -1.341951 -0.77937 -1.5 -0.397805 -1.5 0 
C -1.5 0.397805 -1.341951 0.77937 -1.06066 1.06066 
C -0.77937 1.341951 -0.397805 1.5 0 1.5 
z
" style="stroke: #2ca02c"/>
    </defs>
    <g clip-path="url(#p552ee41c08)">
     <use xlink:href="#m4df8316420" x="61.410937" y="318.492082" style="fill: #2ca02c; stroke: #2ca02c"/>
     <use xlink:href="#m4df8316420" x="91.741278" y="318.283905" style="fill: #2ca02c; stroke: #2ca02c"/>
     <use xlink:href="#m4df8316420" x="113.260996" y="316.929366" style="fill: #2ca02c; stroke: #2ca02c"/>
     <use xlink:href="#m4df8316420" x="129.952987" y="262.151044" style="fill: #2ca02c; stroke: #2ca02c"/>
     <use xlink:href="#m4df8316420" x="143.591337" y="225.41751" style="fill: #2ca02c; stroke: #2ca02c"/>
     <use xlink:href="#m4df8316420" x="165.111055" y="179.424259" style="fill: #2ca02c; stroke: #2ca02c"/>
     <use xlink:href="#m4df8316420" x="195.441396" y="133.342187" style="fill: #2ca02c; stroke: #2ca02c"/>
     <use xlink:href="#m4df8316420" x="216.961114" y="110.173469" style="fill: #2ca02c; stroke: #2ca02c"/>
     <use xlink:href="#m4df8316420" x="247.291455" y="87.185171" style="fill: #2ca02c; stroke: #2ca02c"/>
     <use xlink:href="#m4df8316420" x="268.811173" y="75.654938" style="fill: #2ca02c; stroke: #2ca02c"/>
     <use xlink:href="#m4df8316420" x="299.141514" y="64.091396" style="fill: #2ca02c; stroke: #2ca02c"/>
     <use xlink:href="#m4df8316420" x="320.661232" y="58.309626" style="fill: #2ca02c; stroke: #2ca02c"/>
     <use xlink:href="#m4df8316420" x="350.991573" y="52.563939" style="fill: #2ca02c; stroke: #2ca02c"/>
     <use xlink:href="#m4df8316420" x="372.511291" y="49.685544" style="fill: #2ca02c; stroke: #2ca02c"/>
     <use xlink:href="#m4df8316420" x="402.841632" y="46.804374" style="fill: #2ca02c; stroke: #2ca02c"/>
     <use xlink:href="#m4df8316420" x="424.36135" y="45.341583" style="fill: #2ca02c; stroke: #2ca02c"/>
    </g>
   </g>
   <g id="line2d_32">
    <path d="M 60.982541 318.56425 
L 112.8326 318.56425 
L 113.336331 317.08573 
L 117.72348 301.359034 
L 121.86752 287.327431 
L 126.217806 273.410336 
L 130.32894 260.9817 
L 134.604608 248.760208 
L 139.006102 236.887902 
L 143.16294 226.299088 
L 147.419886 216.048215 
L 151.748587 206.205857 
L 156.124327 196.818868 
L 160.525821 187.914638 
L 164.934948 179.505087 
L 169.336443 171.590217 
L 173.717579 164.161139 
L 178.278877 156.875245 
L 182.776636 150.112994 
L 187.393247 143.582232 
L 191.917226 137.561845 
L 196.514129 131.806196 
L 201.155855 126.342443 
L 205.964181 121.028974 
L 210.755518 116.063353 
L 215.642942 111.31543 
L 220.590452 106.814913 
L 225.679536 102.48594 
L 230.862827 98.369381 
L 236.197437 94.420225 
L 241.629888 90.677868 
L 247.199255 87.113167 
L 252.928277 83.712958 
L 258.826095 80.474253 
L 264.890867 77.39975 
L 271.173131 74.467215 
L 277.641326 71.694504 
L 284.363796 69.055925 
L 291.372658 66.546114 
L 298.670986 64.170926 
L 306.277923 61.929982 
L 314.284811 59.804879 
L 322.687678 57.806265 
L 331.556019 55.926803 
L 340.95862 54.163073 
L 350.962242 52.51474 
L 361.65975 50.979687 
L 373.164868 49.556249 
L 385.586868 48.246308 
L 399.108651 47.047155 
L 413.944295 45.958353 
L 424.366052 45.312842 
L 424.366052 45.312842 
" clip-path="url(#p552ee41c08)" style="fill: none; stroke: #2ca02c; stroke-width: 1.5; stroke-linecap: square"/>
   </g>
   <g id="line2d_33">
    <path d="M 113.260996 318.56425 
L 113.260996 31.43625 
" clip-path="url(#p552ee41c08)" style="fill: none; stroke: #ff0000; stroke-width: 1.5; stroke-linecap: square"/>
   </g>
   <g id="line2d_34">
    <path d="M 268.811173 318.56425 
L 268.811173 31.43625 
" clip-path="url(#p552ee41c08)" style="fill: none; stroke: #008000; stroke-width: 1.5; stroke-linecap: square"/>
   </g>
   <g id="patch_3">
    <path d="M 61.410938 318.56425 
L 61.410938 31.43625 
" style="fill: none; stroke: #000000; stroke-width: 0.8; stroke-linejoin: miter; stroke-linecap: square"/>
   </g>
   <g id="patch_4">
    <path d="M 424.36135 318.56425 
L 424.36135 31.43625 
" style="fill: none; stroke: #000000; stroke-width: 0.8; stroke-linejoin: miter; stroke-linecap: square"/>
   </g>
   <g id="patch_5">
    <path d="M 61.410937 318.56425 
L 424.36135 318.56425 
" style="fill: none; stroke: #000000; stroke-width: 0.8; stroke-linejoin: miter; stroke-linecap: square"/>
   </g>
   <g id="patch_6">
    <path d="M 61.410937 31.43625 
L 424.36135 31.43625 
" style="fill: none; stroke: #000000; stroke-width: 0.8; stroke-linejoin: miter; stroke-linecap: square"/>
   </g>
   <g id="text_11">
    <!-- TLB_L1=127.461(45) -->
    <g style="fill: #1f77b4" transform="translate(146.644978 235.293429)scale(0.1 -0.1)">
     <defs>
      <path id="DejaVuSans-54" d="M -19 4666 
L 3928 4666 
L 3928 4134 
L 2272 4134 
L 2272 0 
L 1638 0 
L 1638 4134 
L -19 4134 
L -19 4666 
z
" transform="scale(0.015625)"/>
      <path id="DejaVuSans-4c" d="M 628 4666 
L 1259 4666 
L 1259 531 
L 3531 531 
L 3531 0 
L 628 0 
L 628 4666 
z
" transform="scale(0.015625)"/>
      <path id="DejaVuSans-42" d="M 1259 2228 
L 1259 519 
L 2272 519 
Q 2781 519 3026 730 
Q 3272 941 3272 1375 
Q 3272 1813 3026 2020 
Q 2781 2228 2272 2228 
L 1259 2228 
z
M 1259 4147 
L 1259 2741 
L 2194 2741 
Q 2656 2741 2882 2914 
Q 3109 3088 3109 3444 
Q 3109 3797 2882 3972 
Q 2656 4147 2194 4147 
L 1259 4147 
z
M 628 4666 
L 2241 4666 
Q 2963 4666 3353 4366 
Q 3744 4066 3744 3513 
Q 3744 3084 3544 2831 
Q 3344 2578 2956 2516 
Q 3422 2416 3680 2098 
Q 3938 1781 3938 1306 
Q 3938 681 3513 340 
Q 3088 0 2303 0 
L 628 0 
L 628 4666 
z
" transform="scale(0.015625)"/>
      <path id="DejaVuSans-5f" d="M 3263 -1063 
L 3263 -1509 
L -63 -1509 
L -63 -1063 
L 3263 -1063 
z
" transform="scale(0.015625)"/>
      <path id="DejaVuSans-3d" d="M 678 2906 
L 4684 2906 
L 4684 2381 
L 678 2381 
L 678 2906 
z
M 678 1631 
L 4684 1631 
L 4684 1100 
L 678 1100 
L 678 1631 
z
" transform="scale(0.015625)"/>
      <path id="DejaVuSans-37" d="M 525 4666 
L 3525 4666 
L 3525 4397 
L 1831 0 
L 1172 0 
L 2766 4134 
L 525 4134 
L 525 4666 
z
" transform="scale(0.015625)"/>
      <path id="DejaVuSans-28" d="M 1984 4856 
Q 1566 4138 1362 3434 
Q 1159 2731 1159 2009 
Q 1159 1288 1364 580 
Q 1569 -128 1984 -844 
L 1484 -844 
Q 1016 -109 783 600 
Q 550 1309 550 2009 
Q 550 2706 781 3412 
Q 1013 4119 1484 4856 
L 1984 4856 
z
" transform="scale(0.015625)"/>
      <path id="DejaVuSans-35" d="M 691 4666 
L 3169 4666 
L 3169 4134 
L 1269 4134 
L 1269 2991 
Q 1406 3038 1543 3061 
Q 1681 3084 1819 3084 
Q 2600 3084 3056 2656 
Q 3513 2228 3513 1497 
Q 3513 744 3044 326 
Q 2575 -91 1722 -91 
Q 1428 -91 1123 -41 
Q 819 9 494 109 
L 494 744 
Q 775 591 1075 516 
Q 1375 441 1709 441 
Q 2250 441 2565 725 
Q 2881 1009 2881 1497 
Q 2881 1984 2565 2268 
Q 2250 2553 1709 2553 
Q 1456 2553 1204 2497 
Q 953 2441 691 2322 
L 691 4666 
z
" transform="scale(0.015625)"/>
      <path id="DejaVuSans-29" d="M 513 4856 
L 1013 4856 
Q 1481 4119 1714 3412 
Q 1947 2706 1947 2009 
Q 1947 1309 1714 600 
Q 1481 -109 1013 -844 
L 513 -844 
Q 928 -128 1133 580 
Q 1338 1288 1338 2009 
Q 1338 2731 1133 3434 
Q 928 4138 513 4856 
z
" transform="scale(0.015625)"/>
     </defs>
     <use xlink:href="#DejaVuSans-54"/>
     <use xlink:href="#DejaVuSans-4c" x="61.083984"/>
     <use xlink:href="#DejaVuSans-42" x="116.796875"/>
     <use xlink:href="#DejaVuSans-5f" x="185.400391"/>
     <use xlink:href="#DejaVuSans-4c" x="235.400391"/>
     <use xlink:href="#DejaVuSans-31" x="291.113281"/>
     <use xlink:href="#DejaVuSans-3d" x="354.736328"/>
     <use xlink:href="#DejaVuSans-31" x="438.525391"/>
     <use xlink:href="#DejaVuSans-32" x="502.148438"/>
     <use xlink:href="#DejaVuSans-37" x="565.771484"/>
     <use xlink:href="#DejaVuSans-2e" x="629.394531"/>
     <use xlink:href="#DejaVuSans-34" x="661.181641"/>
     <use xlink:href="#DejaVuSans-36" x="724.804688"/>
     <use xlink:href="#DejaVuSans-31" x="788.427734"/>
     <use xlink:href="#DejaVuSans-28" x="852.050781"/>
     <use xlink:href="#DejaVuSans-34" x="891.064453"/>
     <use xlink:href="#DejaVuSans-35" x="954.6875"/>
     <use xlink:href="#DejaVuSans-29" x="1018.310547"/>
    </g>
   </g>
   <g id="text_12">
    <!-- TLB_L1=127.446(50) -->
    <g style="fill: #2ca02c" transform="translate(146.644978 263.050369)scale(0.1 -0.1)">
     <use xlink:href="#DejaVuSans-54"/>
     <use xlink:href="#DejaVuSans-4c" x="61.083984"/>
     <use xlink:href="#DejaVuSans-42" x="116.796875"/>
     <use xlink:href="#DejaVuSans-5f" x="185.400391"/>
     <use xlink:href="#DejaVuSans-4c" x="235.400391"/>
     <use xlink:href="#DejaVuSans-31" x="291.113281"/>
     <use xlink:href="#DejaVuSans-3d" x="354.736328"/>
     <use xlink:href="#DejaVuSans-31" x="438.525391"/>
     <use xlink:href="#DejaVuSans-32" x="502.148438"/>
     <use xlink:href="#DejaVuSans-37" x="565.771484"/>
     <use xlink:href="#DejaVuSans-2e" x="629.394531"/>
     <use xlink:href="#DejaVuSans-34" x="661.181641"/>
     <use xlink:href="#DejaVuSans-34" x="724.804688"/>
     <use xlink:href="#DejaVuSans-36" x="788.427734"/>
     <use xlink:href="#DejaVuSans-28" x="852.050781"/>
     <use xlink:href="#DejaVuSans-35" x="891.064453"/>
     <use xlink:href="#DejaVuSans-30" x="954.6875"/>
     <use xlink:href="#DejaVuSans-29" x="1018.310547"/>
    </g>
   </g>
   <g id="text_13">
    <!-- TLB_L2=1019.88(38) -->
    <g style="fill: #ff7f0e" transform="translate(311.005776 249.171899)scale(0.1 -0.1)">
     <defs>
      <path id="DejaVuSans-39" d="M 703 97 
L 703 672 
Q 941 559 1184 500 
Q 1428 441 1663 441 
Q 2288 441 2617 861 
Q 2947 1281 2994 2138 
Q 2813 1869 2534 1725 
Q 2256 1581 1919 1581 
Q 1219 1581 811 2004 
Q 403 2428 403 3163 
Q 403 3881 828 4315 
Q 1253 4750 1959 4750 
Q 2769 4750 3195 4129 
Q 3622 3509 3622 2328 
Q 3622 1225 3098 567 
Q 2575 -91 1691 -91 
Q 1453 -91 1209 -44 
Q 966 3 703 97 
z
M 1959 2075 
Q 2384 2075 2632 2365 
Q 2881 2656 2881 3163 
Q 2881 3666 2632 3958 
Q 2384 4250 1959 4250 
Q 1534 4250 1286 3958 
Q 1038 3666 1038 3163 
Q 1038 2656 1286 2365 
Q 1534 2075 1959 2075 
z
" transform="scale(0.015625)"/>
     </defs>
     <use xlink:href="#DejaVuSans-54"/>
     <use xlink:href="#DejaVuSans-4c" x="61.083984"/>
     <use xlink:href="#DejaVuSans-42" x="116.796875"/>
     <use xlink:href="#DejaVuSans-5f" x="185.400391"/>
     <use xlink:href="#DejaVuSans-4c" x="235.400391"/>
     <use xlink:href="#DejaVuSans-32" x="291.113281"/>
     <use xlink:href="#DejaVuSans-3d" x="354.736328"/>
     <use xlink:href="#DejaVuSans-31" x="438.525391"/>
     <use xlink:href="#DejaVuSans-30" x="502.148438"/>
     <use xlink:href="#DejaVuSans-31" x="565.771484"/>
     <use xlink:href="#DejaVuSans-39" x="629.394531"/>
     <use xlink:href="#DejaVuSans-2e" x="693.017578"/>
     <use xlink:href="#DejaVuSans-38" x="724.804688"/>
     <use xlink:href="#DejaVuSans-38" x="788.427734"/>
     <use xlink:href="#DejaVuSans-28" x="852.050781"/>
     <use xlink:href="#DejaVuSans-33" x="891.064453"/>
     <use xlink:href="#DejaVuSans-38" x="954.6875"/>
     <use xlink:href="#DejaVuSans-29" x="1018.310547"/>
    </g>
   </g>
   <g id="text_14">
    <!-- Ice Storm (Store) -->
    <g transform="translate(140.584269 25.43625)scale(0.24 -0.24)">
     <defs>
      <path id="DejaVuSans-49" d="M 628 4666 
L 1259 4666 
L 1259 0 
L 628 0 
L 628 4666 
z
" transform="scale(0.015625)"/>
      <path id="DejaVuSans-53" d="M 3425 4513 
L 3425 3897 
Q 3066 4069 2747 4153 
Q 2428 4238 2131 4238 
Q 1616 4238 1336 4038 
Q 1056 3838 1056 3469 
Q 1056 3159 1242 3001 
Q 1428 2844 1947 2747 
L 2328 2669 
Q 3034 2534 3370 2195 
Q 3706 1856 3706 1288 
Q 3706 609 3251 259 
Q 2797 -91 1919 -91 
Q 1588 -91 1214 -16 
Q 841 59 441 206 
L 441 856 
Q 825 641 1194 531 
Q 1563 422 1919 422 
Q 2459 422 2753 634 
Q 3047 847 3047 1241 
Q 3047 1584 2836 1778 
Q 2625 1972 2144 2069 
L 1759 2144 
Q 1053 2284 737 2584 
Q 422 2884 422 3419 
Q 422 4038 858 4394 
Q 1294 4750 2059 4750 
Q 2388 4750 2728 4690 
Q 3069 4631 3425 4513 
z
" transform="scale(0.015625)"/>
      <path id="DejaVuSans-6d" d="M 3328 2828 
Q 3544 3216 3844 3400 
Q 4144 3584 4550 3584 
Q 5097 3584 5394 3201 
Q 5691 2819 5691 2113 
L 5691 0 
L 5113 0 
L 5113 2094 
Q 5113 2597 4934 2840 
Q 4756 3084 4391 3084 
Q 3944 3084 3684 2787 
Q 3425 2491 3425 1978 
L 3425 0 
L 2847 0 
L 2847 2094 
Q 2847 2600 2669 2842 
Q 2491 3084 2119 3084 
Q 1678 3084 1418 2786 
Q 1159 2488 1159 1978 
L 1159 0 
L 581 0 
L 581 3500 
L 1159 3500 
L 1159 2956 
Q 1356 3278 1631 3431 
Q 1906 3584 2284 3584 
Q 2666 3584 2933 3390 
Q 3200 3197 3328 2828 
z
" transform="scale(0.015625)"/>
     </defs>
     <use xlink:href="#DejaVuSans-49"/>
     <use xlink:href="#DejaVuSans-63" x="29.492188"/>
     <use xlink:href="#DejaVuSans-65" x="84.472656"/>
     <use xlink:href="#DejaVuSans-20" x="145.996094"/>
     <use xlink:href="#DejaVuSans-53" x="177.783203"/>
     <use xlink:href="#DejaVuSans-74" x="241.259766"/>
     <use xlink:href="#DejaVuSans-6f" x="280.46875"/>
     <use xlink:href="#DejaVuSans-72" x="341.650391"/>
     <use xlink:href="#DejaVuSans-6d" x="381.013672"/>
     <use xlink:href="#DejaVuSans-20" x="478.425781"/>
     <use xlink:href="#DejaVuSans-28" x="510.212891"/>
     <use xlink:href="#DejaVuSans-53" x="549.226562"/>
     <use xlink:href="#DejaVuSans-74" x="612.703125"/>
     <use xlink:href="#DejaVuSans-6f" x="651.912109"/>
     <use xlink:href="#DejaVuSans-72" x="713.09375"/>
     <use xlink:href="#DejaVuSans-65" x="751.957031"/>
     <use xlink:href="#DejaVuSans-29" x="813.480469"/>
    </g>
   </g>
   <g id="legend_1">
    <g id="patch_7">
     <path d="M 285.82135 314.56425 
L 418.76135 314.56425 
Q 420.36135 314.56425 420.36135 312.96425 
L 420.36135 302.02175 
Q 420.36135 300.42175 418.76135 300.42175 
L 285.82135 300.42175 
Q 284.22135 300.42175 284.22135 302.02175 
L 284.22135 312.96425 
Q 284.22135 314.56425 285.82135 314.56425 
z
" style="fill: #ffffff; opacity: 0.8; stroke: #cccccc; stroke-linejoin: miter"/>
    </g>
    <g id="line2d_35">
     <g>
      <use xlink:href="#mb7e9aad44b" x="295.42135" y="306.9005" style="fill: #1f77b4; stroke: #1f77b4"/>
     </g>
    </g>
    <g id="text_15">
     <!-- 5 -->
     <g transform="translate(309.82135 309.7005)scale(0.08 -0.08)">
      <use xlink:href="#DejaVuSans-35"/>
     </g>
    </g>
    <g id="line2d_36">
     <g>
      <use xlink:href="#m2b06e4dde2" x="338.91135" y="306.9005" style="fill: #ff7f0e; stroke: #ff7f0e"/>
     </g>
    </g>
    <g id="text_16">
     <!-- 11 -->
     <g transform="translate(353.31135 309.7005)scale(0.08 -0.08)">
      <use xlink:href="#DejaVuSans-31"/>
      <use xlink:href="#DejaVuSans-31" x="63.623047"/>
     </g>
    </g>
    <g id="line2d_37">
     <g>
      <use xlink:href="#m4df8316420" x="387.49135" y="306.9005" style="fill: #2ca02c; stroke: #2ca02c"/>
     </g>
    </g>
    <g id="text_17">
     <!-- 193 -->
     <g transform="translate(401.89135 309.7005)scale(0.08 -0.08)">
      <use xlink:href="#DejaVuSans-31"/>
      <use xlink:href="#DejaVuSans-39" x="63.623047"/>
      <use xlink:href="#DejaVuSans-33" x="127.246094"/>
     </g>
    </g>
   </g>
  </g>
  <g id="axes_2">
   <g id="patch_8">
    <path d="M 507.450525 318.56425 
L 870.400937 318.56425 
L 870.400937 31.43625 
L 507.450525 31.43625 
L 507.450525 318.56425 
z
" style="fill: none"/>
   </g>
   <g id="matplotlib.axis_3">
    <g id="xtick_21">
     <g id="line2d_38">
      <g>
       <use xlink:href="#md39032bed2" x="540.834506" y="318.56425" style="stroke: #000000; stroke-width: 0.8"/>
      </g>
     </g>
     <g id="text_18">
      <!-- $\mathdefault{10^{2}}$ -->
      <g transform="translate(527.634506 336.961906)scale(0.15 -0.15)">
       <use xlink:href="#DejaVuSans-31" transform="translate(0 0.765625)"/>
       <use xlink:href="#DejaVuSans-30" transform="translate(63.623047 0.765625)"/>
       <use xlink:href="#DejaVuSans-32" transform="translate(128.203125 39.046875)scale(0.7)"/>
      </g>
     </g>
    </g>
    <g id="xtick_22">
     <g id="line2d_39">
      <g>
       <use xlink:href="#md39032bed2" x="713.076674" y="318.56425" style="stroke: #000000; stroke-width: 0.8"/>
      </g>
     </g>
     <g id="text_19">
      <!-- $\mathdefault{10^{3}}$ -->
      <g transform="translate(699.876674 336.961906)scale(0.15 -0.15)">
       <use xlink:href="#DejaVuSans-31" transform="translate(0 0.765625)"/>
       <use xlink:href="#DejaVuSans-30" transform="translate(63.623047 0.765625)"/>
       <use xlink:href="#DejaVuSans-33" transform="translate(128.203125 39.046875)scale(0.7)"/>
      </g>
     </g>
    </g>
    <g id="xtick_23">
     <g id="line2d_40">
      <g>
       <use xlink:href="#m00e623f56d" x="514.153857" y="318.56425" style="stroke: #000000; stroke-width: 0.6"/>
      </g>
     </g>
    </g>
    <g id="xtick_24">
     <g id="line2d_41">
      <g>
       <use xlink:href="#m00e623f56d" x="524.142515" y="318.56425" style="stroke: #000000; stroke-width: 0.6"/>
      </g>
     </g>
    </g>
    <g id="xtick_25">
     <g id="line2d_42">
      <g>
       <use xlink:href="#m00e623f56d" x="532.953137" y="318.56425" style="stroke: #000000; stroke-width: 0.6"/>
      </g>
     </g>
    </g>
    <g id="xtick_26">
     <g id="line2d_43">
      <g>
       <use xlink:href="#m00e623f56d" x="592.684565" y="318.56425" style="stroke: #000000; stroke-width: 0.6"/>
      </g>
     </g>
    </g>
    <g id="xtick_27">
     <g id="line2d_44">
      <g>
       <use xlink:href="#m00e623f56d" x="623.014905" y="318.56425" style="stroke: #000000; stroke-width: 0.6"/>
      </g>
     </g>
    </g>
    <g id="xtick_28">
     <g id="line2d_45">
      <g>
       <use xlink:href="#m00e623f56d" x="644.534624" y="318.56425" style="stroke: #000000; stroke-width: 0.6"/>
      </g>
     </g>
    </g>
    <g id="xtick_29">
     <g id="line2d_46">
      <g>
       <use xlink:href="#m00e623f56d" x="661.226615" y="318.56425" style="stroke: #000000; stroke-width: 0.6"/>
      </g>
     </g>
    </g>
    <g id="xtick_30">
     <g id="line2d_47">
      <g>
       <use xlink:href="#m00e623f56d" x="674.864964" y="318.56425" style="stroke: #000000; stroke-width: 0.6"/>
      </g>
     </g>
    </g>
    <g id="xtick_31">
     <g id="line2d_48">
      <g>
       <use xlink:href="#m00e623f56d" x="686.396024" y="318.56425" style="stroke: #000000; stroke-width: 0.6"/>
      </g>
     </g>
    </g>
    <g id="xtick_32">
     <g id="line2d_49">
      <g>
       <use xlink:href="#m00e623f56d" x="696.384683" y="318.56425" style="stroke: #000000; stroke-width: 0.6"/>
      </g>
     </g>
    </g>
    <g id="xtick_33">
     <g id="line2d_50">
      <g>
       <use xlink:href="#m00e623f56d" x="705.195304" y="318.56425" style="stroke: #000000; stroke-width: 0.6"/>
      </g>
     </g>
    </g>
    <g id="xtick_34">
     <g id="line2d_51">
      <g>
       <use xlink:href="#m00e623f56d" x="764.926733" y="318.56425" style="stroke: #000000; stroke-width: 0.6"/>
      </g>
     </g>
    </g>
    <g id="xtick_35">
     <g id="line2d_52">
      <g>
       <use xlink:href="#m00e623f56d" x="795.257073" y="318.56425" style="stroke: #000000; stroke-width: 0.6"/>
      </g>
     </g>
    </g>
    <g id="xtick_36">
     <g id="line2d_53">
      <g>
       <use xlink:href="#m00e623f56d" x="816.776792" y="318.56425" style="stroke: #000000; stroke-width: 0.6"/>
      </g>
     </g>
    </g>
    <g id="xtick_37">
     <g id="line2d_54">
      <g>
       <use xlink:href="#m00e623f56d" x="833.468782" y="318.56425" style="stroke: #000000; stroke-width: 0.6"/>
      </g>
     </g>
    </g>
    <g id="xtick_38">
     <g id="line2d_55">
      <g>
       <use xlink:href="#m00e623f56d" x="847.107132" y="318.56425" style="stroke: #000000; stroke-width: 0.6"/>
      </g>
     </g>
    </g>
    <g id="xtick_39">
     <g id="line2d_56">
      <g>
       <use xlink:href="#m00e623f56d" x="858.638192" y="318.56425" style="stroke: #000000; stroke-width: 0.6"/>
      </g>
     </g>
    </g>
    <g id="xtick_40">
     <g id="line2d_57">
      <g>
       <use xlink:href="#m00e623f56d" x="868.626851" y="318.56425" style="stroke: #000000; stroke-width: 0.6"/>
      </g>
     </g>
    </g>
    <g id="text_20">
     <!-- Page Count -->
     <g transform="translate(631.841356 359.278312)scale(0.2 -0.2)">
      <use xlink:href="#DejaVuSans-50"/>
      <use xlink:href="#DejaVuSans-61" x="55.802734"/>
      <use xlink:href="#DejaVuSans-67" x="117.082031"/>
      <use xlink:href="#DejaVuSans-65" x="180.558594"/>
      <use xlink:href="#DejaVuSans-20" x="242.082031"/>
      <use xlink:href="#DejaVuSans-43" x="273.869141"/>
      <use xlink:href="#DejaVuSans-6f" x="343.693359"/>
      <use xlink:href="#DejaVuSans-75" x="404.875"/>
      <use xlink:href="#DejaVuSans-6e" x="468.253906"/>
      <use xlink:href="#DejaVuSans-74" x="531.632812"/>
     </g>
    </g>
   </g>
   <g id="matplotlib.axis_4">
    <g id="ytick_7">
     <g id="line2d_58">
      <g>
       <use xlink:href="#m6f3f5b6aff" x="507.450525" y="318.56425" style="stroke: #000000; stroke-width: 0.8"/>
      </g>
     </g>
     <g id="text_21">
      <!-- 0.0 -->
      <g transform="translate(476.595837 324.263078)scale(0.15 -0.15)">
       <use xlink:href="#DejaVuSans-30"/>
       <use xlink:href="#DejaVuSans-2e" x="63.623047"/>
       <use xlink:href="#DejaVuSans-30" x="95.410156"/>
      </g>
     </g>
    </g>
    <g id="ytick_8">
     <g id="line2d_59">
      <g>
       <use xlink:href="#m6f3f5b6aff" x="507.450525" y="262.895122" style="stroke: #000000; stroke-width: 0.8"/>
      </g>
     </g>
     <g id="text_22">
      <!-- 0.2 -->
      <g transform="translate(476.595837 268.59395)scale(0.15 -0.15)">
       <use xlink:href="#DejaVuSans-30"/>
       <use xlink:href="#DejaVuSans-2e" x="63.623047"/>
       <use xlink:href="#DejaVuSans-32" x="95.410156"/>
      </g>
     </g>
    </g>
    <g id="ytick_9">
     <g id="line2d_60">
      <g>
       <use xlink:href="#m6f3f5b6aff" x="507.450525" y="207.225995" style="stroke: #000000; stroke-width: 0.8"/>
      </g>
     </g>
     <g id="text_23">
      <!-- 0.4 -->
      <g transform="translate(476.595837 212.924823)scale(0.15 -0.15)">
       <use xlink:href="#DejaVuSans-30"/>
       <use xlink:href="#DejaVuSans-2e" x="63.623047"/>
       <use xlink:href="#DejaVuSans-34" x="95.410156"/>
      </g>
     </g>
    </g>
    <g id="ytick_10">
     <g id="line2d_61">
      <g>
       <use xlink:href="#m6f3f5b6aff" x="507.450525" y="151.556867" style="stroke: #000000; stroke-width: 0.8"/>
      </g>
     </g>
     <g id="text_24">
      <!-- 0.6 -->
      <g transform="translate(476.595837 157.255695)scale(0.15 -0.15)">
       <use xlink:href="#DejaVuSans-30"/>
       <use xlink:href="#DejaVuSans-2e" x="63.623047"/>
       <use xlink:href="#DejaVuSans-36" x="95.410156"/>
      </g>
     </g>
    </g>
    <g id="ytick_11">
     <g id="line2d_62">
      <g>
       <use xlink:href="#m6f3f5b6aff" x="507.450525" y="95.887739" style="stroke: #000000; stroke-width: 0.8"/>
      </g>
     </g>
     <g id="text_25">
      <!-- 0.8 -->
      <g transform="translate(476.595837 101.586567)scale(0.15 -0.15)">
       <use xlink:href="#DejaVuSans-30"/>
       <use xlink:href="#DejaVuSans-2e" x="63.623047"/>
       <use xlink:href="#DejaVuSans-38" x="95.410156"/>
      </g>
     </g>
    </g>
    <g id="ytick_12">
     <g id="line2d_63">
      <g>
       <use xlink:href="#m6f3f5b6aff" x="507.450525" y="40.218612" style="stroke: #000000; stroke-width: 0.8"/>
      </g>
     </g>
     <g id="text_26">
      <!-- 1.0 -->
      <g transform="translate(476.595837 45.91744)scale(0.15 -0.15)">
       <use xlink:href="#DejaVuSans-31"/>
       <use xlink:href="#DejaVuSans-2e" x="63.623047"/>
       <use xlink:href="#DejaVuSans-30" x="95.410156"/>
      </g>
     </g>
    </g>
    <g id="text_27">
     <!-- Count Difference -->
     <g transform="translate(468.436462 259.57525)rotate(-90)scale(0.2 -0.2)">
      <use xlink:href="#DejaVuSans-43"/>
      <use xlink:href="#DejaVuSans-6f" x="69.824219"/>
      <use xlink:href="#DejaVuSans-75" x="131.005859"/>
      <use xlink:href="#DejaVuSans-6e" x="194.384766"/>
      <use xlink:href="#DejaVuSans-74" x="257.763672"/>
      <use xlink:href="#DejaVuSans-20" x="296.972656"/>
      <use xlink:href="#DejaVuSans-44" x="328.759766"/>
      <use xlink:href="#DejaVuSans-69" x="405.761719"/>
      <use xlink:href="#DejaVuSans-66" x="433.544922"/>
      <use xlink:href="#DejaVuSans-66" x="468.75"/>
      <use xlink:href="#DejaVuSans-65" x="503.955078"/>
      <use xlink:href="#DejaVuSans-72" x="565.478516"/>
      <use xlink:href="#DejaVuSans-65" x="604.341797"/>
      <use xlink:href="#DejaVuSans-6e" x="665.865234"/>
      <use xlink:href="#DejaVuSans-63" x="729.244141"/>
      <use xlink:href="#DejaVuSans-65" x="784.224609"/>
     </g>
    </g>
   </g>
   <g id="line2d_64">
    <g clip-path="url(#p761a10ab79)">
     <use xlink:href="#mb7e9aad44b" x="507.450525" y="318.553116" style="fill: #1f77b4; stroke: #1f77b4"/>
     <use xlink:href="#mb7e9aad44b" x="537.780865" y="318.533632" style="fill: #1f77b4; stroke: #1f77b4"/>
     <use xlink:href="#mb7e9aad44b" x="559.300584" y="318.48353" style="fill: #1f77b4; stroke: #1f77b4"/>
     <use xlink:href="#mb7e9aad44b" x="575.992574" y="317.59004" style="fill: #1f77b4; stroke: #1f77b4"/>
     <use xlink:href="#mb7e9aad44b" x="589.630924" y="271.715896" style="fill: #1f77b4; stroke: #1f77b4"/>
     <use xlink:href="#mb7e9aad44b" x="611.150643" y="214.220821" style="fill: #1f77b4; stroke: #1f77b4"/>
     <use xlink:href="#mb7e9aad44b" x="641.480983" y="156.352762" style="fill: #1f77b4; stroke: #1f77b4"/>
     <use xlink:href="#mb7e9aad44b" x="663.000702" y="127.340796" style="fill: #1f77b4; stroke: #1f77b4"/>
     <use xlink:href="#mb7e9aad44b" x="693.331042" y="98.303779" style="fill: #1f77b4; stroke: #1f77b4"/>
     <use xlink:href="#mb7e9aad44b" x="714.850761" y="83.857641" style="fill: #1f77b4; stroke: #1f77b4"/>
     <use xlink:href="#mb7e9aad44b" x="745.181101" y="69.305731" style="fill: #1f77b4; stroke: #1f77b4"/>
     <use xlink:href="#mb7e9aad44b" x="766.70082" y="62.05761" style="fill: #1f77b4; stroke: #1f77b4"/>
     <use xlink:href="#mb7e9aad44b" x="797.03116" y="54.767738" style="fill: #1f77b4; stroke: #1f77b4"/>
     <use xlink:href="#mb7e9aad44b" x="818.550879" y="50.676057" style="fill: #1f77b4; stroke: #1f77b4"/>
     <use xlink:href="#mb7e9aad44b" x="848.881219" y="46.765301" style="fill: #1f77b4; stroke: #1f77b4"/>
     <use xlink:href="#mb7e9aad44b" x="870.400937" y="45.109144" style="fill: #1f77b4; stroke: #1f77b4"/>
    </g>
   </g>
   <g id="line2d_65">
    <path d="M 507.022128 318.56425 
L 575.564177 318.56425 
L 575.967433 318.164556 
L 580.265441 302.644731 
L 584.329858 288.766427 
L 588.525564 275.209273 
L 592.82012 262.098206 
L 597.184914 249.522035 
L 601.309004 238.295031 
L 605.489076 227.530009 
L 609.704491 217.26637 
L 613.93745 207.525879 
L 618.17276 198.316305 
L 622.61346 189.204046 
L 627.008795 180.702159 
L 631.352189 172.777446 
L 635.819416 165.092876 
L 640.205421 157.981586 
L 644.670179 151.158409 
L 649.186245 144.658906 
L 653.730087 138.503679 
L 658.415467 132.536372 
L 663.076036 126.960131 
L 667.817426 121.632699 
L 672.608332 116.581899 
L 677.525782 111.723377 
L 682.527901 107.098231 
L 687.579078 102.731242 
L 692.733978 98.568437 
L 698.029872 94.580279 
L 703.41595 90.803686 
L 708.917673 87.216744 
L 714.611661 83.772062 
L 720.429301 80.513191 
L 726.421287 77.411378 
L 732.615485 74.455662 
L 739.020991 71.645934 
L 745.673635 68.97164 
L 752.583513 66.434608 
L 759.775125 64.031576 
L 767.307678 61.750451 
L 775.195278 59.595653 
L 783.493242 57.561096 
L 792.245289 55.646229 
L 801.513367 53.848442 
L 811.349028 52.169131 
L 821.850353 50.603896 
L 833.127673 49.15053 
L 845.291172 47.810087 
L 858.498057 46.581436 
L 870.405639 45.645078 
L 870.405639 45.645078 
" clip-path="url(#p761a10ab79)" style="fill: none; stroke: #1f77b4; stroke-width: 1.5; stroke-linecap: square"/>
   </g>
   <g id="line2d_66">
    <g clip-path="url(#p761a10ab79)">
     <use xlink:href="#m2b06e4dde2" x="507.450525" y="318.567033" style="fill: #ff7f0e; stroke: #ff7f0e"/>
     <use xlink:href="#m2b06e4dde2" x="537.780865" y="318.567033" style="fill: #ff7f0e; stroke: #ff7f0e"/>
     <use xlink:href="#m2b06e4dde2" x="559.300584" y="318.567033" style="fill: #ff7f0e; stroke: #ff7f0e"/>
     <use xlink:href="#m2b06e4dde2" x="575.992574" y="318.541982" style="fill: #ff7f0e; stroke: #ff7f0e"/>
     <use xlink:href="#m2b06e4dde2" x="589.630924" y="315.894915" style="fill: #ff7f0e; stroke: #ff7f0e"/>
     <use xlink:href="#m2b06e4dde2" x="611.150643" y="315.68894" style="fill: #ff7f0e; stroke: #ff7f0e"/>
     <use xlink:href="#m2b06e4dde2" x="641.480983" y="316.610264" style="fill: #ff7f0e; stroke: #ff7f0e"/>
     <use xlink:href="#m2b06e4dde2" x="663.000702" y="314.862253" style="fill: #ff7f0e; stroke: #ff7f0e"/>
     <use xlink:href="#m2b06e4dde2" x="693.331042" y="315.591519" style="fill: #ff7f0e; stroke: #ff7f0e"/>
     <use xlink:href="#m2b06e4dde2" x="714.850761" y="316.365319" style="fill: #ff7f0e; stroke: #ff7f0e"/>
     <use xlink:href="#m2b06e4dde2" x="745.181101" y="315.591519" style="fill: #ff7f0e; stroke: #ff7f0e"/>
     <use xlink:href="#m2b06e4dde2" x="766.70082" y="316.515626" style="fill: #ff7f0e; stroke: #ff7f0e"/>
     <use xlink:href="#m2b06e4dde2" x="797.03116" y="315.304823" style="fill: #ff7f0e; stroke: #ff7f0e"/>
     <use xlink:href="#m2b06e4dde2" x="818.550879" y="246.567367" style="fill: #ff7f0e; stroke: #ff7f0e"/>
     <use xlink:href="#m2b06e4dde2" x="848.881219" y="177.242602" style="fill: #ff7f0e; stroke: #ff7f0e"/>
     <use xlink:href="#m2b06e4dde2" x="870.400937" y="142.699909" style="fill: #ff7f0e; stroke: #ff7f0e"/>
    </g>
   </g>
   <g id="line2d_67">
    <path d="M 507.022128 318.56425 
L 796.095616 318.514087 
L 800.280528 303.372307 
L 804.471495 289.034232 
L 808.673406 275.442962 
L 812.889312 262.552497 
L 817.120736 250.324847 
L 821.367941 238.727799 
L 825.630164 227.73321 
L 829.905831 217.315733 
L 834.192742 207.451866 
L 838.500257 198.093903 
L 842.834706 189.205932 
L 847.18916 180.780736 
L 851.56709 172.790369 
L 855.97955 165.196519 
L 860.424832 157.985967 
L 864.908572 151.134386 
L 869.433583 144.623805 
L 870.405639 143.275863 
L 870.405639 143.275863 
" clip-path="url(#p761a10ab79)" style="fill: none; stroke: #ff7f0e; stroke-width: 1.5; stroke-linecap: square"/>
   </g>
   <g id="line2d_68">
    <g clip-path="url(#p761a10ab79)">
     <use xlink:href="#m4df8316420" x="507.450525" y="318.550333" style="fill: #2ca02c; stroke: #2ca02c"/>
     <use xlink:href="#m4df8316420" x="537.780865" y="318.522498" style="fill: #2ca02c; stroke: #2ca02c"/>
     <use xlink:href="#m4df8316420" x="559.300584" y="318.505797" style="fill: #2ca02c; stroke: #2ca02c"/>
     <use xlink:href="#m4df8316420" x="575.992574" y="317.578906" style="fill: #2ca02c; stroke: #2ca02c"/>
     <use xlink:href="#m4df8316420" x="589.630924" y="271.526621" style="fill: #2ca02c; stroke: #2ca02c"/>
     <use xlink:href="#m4df8316420" x="611.150643" y="213.864538" style="fill: #2ca02c; stroke: #2ca02c"/>
     <use xlink:href="#m4df8316420" x="641.480983" y="156.041015" style="fill: #2ca02c; stroke: #2ca02c"/>
     <use xlink:href="#m4df8316420" x="663.000702" y="127.034616" style="fill: #2ca02c; stroke: #2ca02c"/>
     <use xlink:href="#m4df8316420" x="693.331042" y="98.092237" style="fill: #2ca02c; stroke: #2ca02c"/>
     <use xlink:href="#m4df8316420" x="714.850761" y="83.662799" style="fill: #2ca02c; stroke: #2ca02c"/>
     <use xlink:href="#m4df8316420" x="745.181101" y="69.183259" style="fill: #2ca02c; stroke: #2ca02c"/>
     <use xlink:href="#m4df8316420" x="766.70082" y="61.949056" style="fill: #2ca02c; stroke: #2ca02c"/>
     <use xlink:href="#m4df8316420" x="797.03116" y="54.712069" style="fill: #2ca02c; stroke: #2ca02c"/>
     <use xlink:href="#m4df8316420" x="818.550879" y="51.107493" style="fill: #2ca02c; stroke: #2ca02c"/>
     <use xlink:href="#m4df8316420" x="848.881219" y="47.483433" style="fill: #2ca02c; stroke: #2ca02c"/>
     <use xlink:href="#m4df8316420" x="870.400937" y="45.635218" style="fill: #2ca02c; stroke: #2ca02c"/>
    </g>
   </g>
   <g id="line2d_69">
    <path d="M 507.022128 318.56425 
L 575.564177 318.56425 
L 575.967433 317.890617 
L 580.265441 302.386089 
L 584.329858 288.521463 
L 588.525564 274.977671 
L 592.82012 261.879526 
L 597.184914 249.315749 
L 601.309004 238.099811 
L 605.489076 227.345398 
L 609.704491 217.091875 
L 613.93745 207.360984 
L 618.17276 198.160486 
L 622.61346 189.057208 
L 627.008795 180.563701 
L 631.352189 172.646799 
L 635.819416 164.969802 
L 640.205421 157.865521 
L 644.670179 151.049069 
L 649.186245 144.555971 
L 653.730087 138.406811 
L 658.415467 132.445385 
L 663.076036 126.87464 
L 667.817426 121.552459 
L 672.608332 116.506637 
L 677.525782 111.652903 
L 682.527901 107.032315 
L 687.579078 102.669631 
L 692.733978 98.510929 
L 698.029872 94.526701 
L 703.41595 90.75383 
L 708.917673 87.170423 
L 714.611661 83.729136 
L 720.429301 80.473478 
L 726.421287 77.374722 
L 732.615485 74.421918 
L 739.020991 71.61496 
L 745.673635 68.943302 
L 752.583513 66.40877 
L 759.809573 63.997153 
L 767.338826 61.720274 
L 775.22331 59.569302 
L 783.518332 57.538193 
L 792.267609 55.626426 
L 801.533086 53.831419 
L 811.383603 52.151835 
L 821.89542 50.587412 
L 833.179351 49.135565 
L 845.357049 47.795929 
L 858.580871 46.568131 
L 870.405639 45.63973 
L 870.405639 45.63973 
" clip-path="url(#p761a10ab79)" style="fill: none; stroke: #2ca02c; stroke-width: 1.5; stroke-linecap: square"/>
   </g>
   <g id="line2d_70">
    <path d="M 575.992574 318.56425 
L 575.992574 31.43625 
" clip-path="url(#p761a10ab79)" style="fill: none; stroke: #ff0000; stroke-width: 1.5; stroke-linecap: square"/>
   </g>
   <g id="line2d_71">
    <path d="M 797.03116 318.56425 
L 797.03116 31.43625 
" clip-path="url(#p761a10ab79)" style="fill: none; stroke: #008000; stroke-width: 1.5; stroke-linecap: square"/>
   </g>
   <g id="patch_9">
    <path d="M 507.450525 318.56425 
L 507.450525 31.43625 
" style="fill: none; stroke: #000000; stroke-width: 0.8; stroke-linejoin: miter; stroke-linecap: square"/>
   </g>
   <g id="patch_10">
    <path d="M 870.400937 318.56425 
L 870.400937 31.43625 
" style="fill: none; stroke: #000000; stroke-width: 0.8; stroke-linejoin: miter; stroke-linecap: square"/>
   </g>
   <g id="patch_11">
    <path d="M 507.450525 318.56425 
L 870.400937 318.56425 
" style="fill: none; stroke: #000000; stroke-width: 0.8; stroke-linejoin: miter; stroke-linecap: square"/>
   </g>
   <g id="patch_12">
    <path d="M 507.450525 31.43625 
L 870.400937 31.43625 
" style="fill: none; stroke: #000000; stroke-width: 0.8; stroke-linejoin: miter; stroke-linecap: square"/>
   </g>
   <g id="text_28">
    <!-- TLB_L1=159.72(12) -->
    <g style="fill: #1f77b4" transform="translate(623.014905 235.060558)scale(0.1 -0.1)">
     <use xlink:href="#DejaVuSans-54"/>
     <use xlink:href="#DejaVuSans-4c" x="61.083984"/>
     <use xlink:href="#DejaVuSans-42" x="116.796875"/>
     <use xlink:href="#DejaVuSans-5f" x="185.400391"/>
     <use xlink:href="#DejaVuSans-4c" x="235.400391"/>
     <use xlink:href="#DejaVuSans-31" x="291.113281"/>
     <use xlink:href="#DejaVuSans-3d" x="354.736328"/>
     <use xlink:href="#DejaVuSans-31" x="438.525391"/>
     <use xlink:href="#DejaVuSans-35" x="502.148438"/>
     <use xlink:href="#DejaVuSans-39" x="565.771484"/>
     <use xlink:href="#DejaVuSans-2e" x="629.394531"/>
     <use xlink:href="#DejaVuSans-37" x="661.181641"/>
     <use xlink:href="#DejaVuSans-32" x="724.804688"/>
     <use xlink:href="#DejaVuSans-28" x="788.427734"/>
     <use xlink:href="#DejaVuSans-31" x="827.441406"/>
     <use xlink:href="#DejaVuSans-32" x="891.064453"/>
     <use xlink:href="#DejaVuSans-29" x="954.6875"/>
    </g>
   </g>
   <g id="text_29">
    <!-- TLB_L1=159.559(33) -->
    <g style="fill: #2ca02c" transform="translate(623.014905 262.895122)scale(0.1 -0.1)">
     <use xlink:href="#DejaVuSans-54"/>
     <use xlink:href="#DejaVuSans-4c" x="61.083984"/>
     <use xlink:href="#DejaVuSans-42" x="116.796875"/>
     <use xlink:href="#DejaVuSans-5f" x="185.400391"/>
     <use xlink:href="#DejaVuSans-4c" x="235.400391"/>
     <use xlink:href="#DejaVuSans-31" x="291.113281"/>
     <use xlink:href="#DejaVuSans-3d" x="354.736328"/>
     <use xlink:href="#DejaVuSans-31" x="438.525391"/>
     <use xlink:href="#DejaVuSans-35" x="502.148438"/>
     <use xlink:href="#DejaVuSans-39" x="565.771484"/>
     <use xlink:href="#DejaVuSans-2e" x="629.394531"/>
     <use xlink:href="#DejaVuSans-35" x="661.181641"/>
     <use xlink:href="#DejaVuSans-35" x="724.804688"/>
     <use xlink:href="#DejaVuSans-39" x="788.427734"/>
     <use xlink:href="#DejaVuSans-28" x="852.050781"/>
     <use xlink:href="#DejaVuSans-33" x="891.064453"/>
     <use xlink:href="#DejaVuSans-33" x="954.6875"/>
     <use xlink:href="#DejaVuSans-29" x="1018.310547"/>
    </g>
   </g>
   <g id="text_30">
    <!-- TLB_L2=3033(15) -->
    <g style="fill: #ff7f0e" transform="translate(757.045363 248.97784)scale(0.1 -0.1)">
     <use xlink:href="#DejaVuSans-54"/>
     <use xlink:href="#DejaVuSans-4c" x="61.083984"/>
     <use xlink:href="#DejaVuSans-42" x="116.796875"/>
     <use xlink:href="#DejaVuSans-5f" x="185.400391"/>
     <use xlink:href="#DejaVuSans-4c" x="235.400391"/>
     <use xlink:href="#DejaVuSans-32" x="291.113281"/>
     <use xlink:href="#DejaVuSans-3d" x="354.736328"/>
     <use xlink:href="#DejaVuSans-33" x="438.525391"/>
     <use xlink:href="#DejaVuSans-30" x="502.148438"/>
     <use xlink:href="#DejaVuSans-33" x="565.771484"/>
     <use xlink:href="#DejaVuSans-33" x="629.394531"/>
     <use xlink:href="#DejaVuSans-28" x="693.017578"/>
     <use xlink:href="#DejaVuSans-31" x="732.03125"/>
     <use xlink:href="#DejaVuSans-35" x="795.654297"/>
     <use xlink:href="#DejaVuSans-29" x="859.277344"/>
    </g>
   </g>
   <g id="text_31">
    <!-- Fire Storm (Store) -->
    <g transform="translate(582.733231 25.43625)scale(0.24 -0.24)">
     <defs>
      <path id="DejaVuSans-46" d="M 628 4666 
L 3309 4666 
L 3309 4134 
L 1259 4134 
L 1259 2759 
L 3109 2759 
L 3109 2228 
L 1259 2228 
L 1259 0 
L 628 0 
L 628 4666 
z
" transform="scale(0.015625)"/>
     </defs>
     <use xlink:href="#DejaVuSans-46"/>
     <use xlink:href="#DejaVuSans-69" x="50.269531"/>
     <use xlink:href="#DejaVuSans-72" x="78.052734"/>
     <use xlink:href="#DejaVuSans-65" x="116.916016"/>
     <use xlink:href="#DejaVuSans-20" x="178.439453"/>
     <use xlink:href="#DejaVuSans-53" x="210.226562"/>
     <use xlink:href="#DejaVuSans-74" x="273.703125"/>
     <use xlink:href="#DejaVuSans-6f" x="312.912109"/>
     <use xlink:href="#DejaVuSans-72" x="374.09375"/>
     <use xlink:href="#DejaVuSans-6d" x="413.457031"/>
     <use xlink:href="#DejaVuSans-20" x="510.869141"/>
     <use xlink:href="#DejaVuSans-28" x="542.65625"/>
     <use xlink:href="#DejaVuSans-53" x="581.669922"/>
     <use xlink:href="#DejaVuSans-74" x="645.146484"/>
     <use xlink:href="#DejaVuSans-6f" x="684.355469"/>
     <use xlink:href="#DejaVuSans-72" x="745.537109"/>
     <use xlink:href="#DejaVuSans-65" x="784.400391"/>
     <use xlink:href="#DejaVuSans-29" x="845.923828"/>
    </g>
   </g>
   <g id="legend_2">
    <g id="patch_13">
     <path d="M 622.455731 314.56425 
L 755.395731 314.56425 
Q 756.995731 314.56425 756.995731 312.96425 
L 756.995731 302.02175 
Q 756.995731 300.42175 755.395731 300.42175 
L 622.455731 300.42175 
Q 620.855731 300.42175 620.855731 302.02175 
L 620.855731 312.96425 
Q 620.855731 314.56425 622.455731 314.56425 
z
" style="fill: #ffffff; opacity: 0.8; stroke: #cccccc; stroke-linejoin: miter"/>
    </g>
    <g id="line2d_72">
     <g>
      <use xlink:href="#mb7e9aad44b" x="632.055731" y="306.9005" style="fill: #1f77b4; stroke: #1f77b4"/>
     </g>
    </g>
    <g id="text_32">
     <!-- 5 -->
     <g transform="translate(646.455731 309.7005)scale(0.08 -0.08)">
      <use xlink:href="#DejaVuSans-35"/>
     </g>
    </g>
    <g id="line2d_73">
     <g>
      <use xlink:href="#m2b06e4dde2" x="675.545731" y="306.9005" style="fill: #ff7f0e; stroke: #ff7f0e"/>
     </g>
    </g>
    <g id="text_33">
     <!-- 11 -->
     <g transform="translate(689.945731 309.7005)scale(0.08 -0.08)">
      <use xlink:href="#DejaVuSans-31"/>
      <use xlink:href="#DejaVuSans-31" x="63.623047"/>
     </g>
    </g>
    <g id="line2d_74">
     <g>
      <use xlink:href="#m4df8316420" x="724.125731" y="306.9005" style="fill: #2ca02c; stroke: #2ca02c"/>
     </g>
    </g>
    <g id="text_34">
     <!-- 193 -->
     <g transform="translate(738.525731 309.7005)scale(0.08 -0.08)">
      <use xlink:href="#DejaVuSans-31"/>
      <use xlink:href="#DejaVuSans-39" x="63.623047"/>
      <use xlink:href="#DejaVuSans-33" x="127.246094"/>
     </g>
    </g>
   </g>
  </g>
 </g>
 <defs>
  <clipPath id="p552ee41c08">
   <rect x="61.410938" y="31.43625" width="362.950413" height="287.128"/>
  </clipPath>
  <clipPath id="p761a10ab79">
   <rect x="507.450525" y="31.43625" width="362.950413" height="287.128"/>
  </clipPath>
 </defs>
</svg>
