<?xml version="1.0" encoding="utf-8" standalone="no"?>
<!DOCTYPE svg PUBLIC "-//W3C//DTD SVG 1.1//EN"
  "http://www.w3.org/Graphics/SVG/1.1/DTD/svg11.dtd">
<svg xmlns:xlink="http://www.w3.org/1999/xlink" width="877.511763pt" height="370.637687pt" viewBox="0 0 877.511763 370.637687" xmlns="http://www.w3.org/2000/svg" version="1.1">
 <defs>
  <style type="text/css">*{stroke-linejoin: round; stroke-linecap: butt}</style>
 </defs>
 <g id="figure_1">
  <g id="patch_1">
   <path d="M 0 370.637687 
L 877.511763 370.637687 
L 877.511763 0 
L 0 0 
L 0 370.637687 
z
" style="fill: none"/>
  </g>
  <g id="axes_1">
   <g id="patch_2">
    <path d="M 61.410938 318.56425 
L 424.316763 318.56425 
L 424.316763 31.43625 
L 61.410938 31.43625 
L 61.410938 318.56425 
z
" style="fill: none"/>
   </g>
   <g id="matplotlib.axis_1">
    <g id="xtick_1">
     <g id="line2d_1">
      <defs>
       <path id="md39032bed2" d="M 0 0 
L 0 3.5 
" style="stroke: #000000; stroke-width: 0.8"/>
      </defs>
      <g>
       <use xlink:href="#md39032bed2" x="94.790818" y="318.56425" style="stroke: #000000; stroke-width: 0.8"/>
      </g>
     </g>
     <g id="text_1">
      <!-- $\mathdefault{10^{2}}$ -->
      <g transform="translate(81.590818 336.961906)scale(0.15 -0.15)">
       <defs>
        <path id="DejaVuSans-31" d="M 794 531 
L 1825 531 
L 1825 4091 
L 703 3866 
L 703 4441 
L 1819 4666 
L 2450 4666 
L 2450 531 
L 3481 531 
L 3481 0 
L 794 0 
L 794 531 
z
" transform="scale(0.015625)"/>
        <path id="DejaVuSans-30" d="M 2034 4250 
Q 1547 4250 1301 3770 
Q 1056 3291 1056 2328 
Q 1056 1369 1301 889 
Q 1547 409 2034 409 
Q 2525 409 2770 889 
Q 3016 1369 3016 2328 
Q 3016 3291 2770 3770 
Q 2525 4250 2034 4250 
z
M 2034 4750 
Q 2819 4750 3233 4129 
Q 3647 3509 3647 2328 
Q 3647 1150 3233 529 
Q 2819 -91 2034 -91 
Q 1250 -91 836 529 
Q 422 1150 422 2328 
Q 422 3509 836 4129 
Q 1250 4750 2034 4750 
z
" transform="scale(0.015625)"/>
        <path id="DejaVuSans-32" d="M 1228 531 
L 3431 531 
L 3431 0 
L 469 0 
L 469 531 
Q 828 903 1448 1529 
Q 2069 2156 2228 2338 
Q 2531 2678 2651 2914 
Q 2772 3150 2772 3378 
Q 2772 3750 2511 3984 
Q 2250 4219 1831 4219 
Q 1534 4219 1204 4116 
Q 875 4013 500 3803 
L 500 4441 
Q 881 4594 1212 4672 
Q 1544 4750 1819 4750 
Q 2544 4750 2975 4387 
Q 3406 4025 3406 3419 
Q 3406 3131 3298 2873 
Q 3191 2616 2906 2266 
Q 2828 2175 2409 1742 
Q 1991 1309 1228 531 
z
" transform="scale(0.015625)"/>
       </defs>
       <use xlink:href="#DejaVuSans-31" transform="translate(0 0.765625)"/>
       <use xlink:href="#DejaVuSans-30" transform="translate(63.623047 0.765625)"/>
       <use xlink:href="#DejaVuSans-32" transform="translate(128.203125 39.046875)scale(0.7)"/>
      </g>
     </g>
    </g>
    <g id="xtick_2">
     <g id="line2d_2">
      <g>
       <use xlink:href="#md39032bed2" x="267.011826" y="318.56425" style="stroke: #000000; stroke-width: 0.8"/>
      </g>
     </g>
     <g id="text_2">
      <!-- $\mathdefault{10^{3}}$ -->
      <g transform="translate(253.811826 336.961906)scale(0.15 -0.15)">
       <defs>
        <path id="DejaVuSans-33" d="M 2597 2516 
Q 3050 2419 3304 2112 
Q 3559 1806 3559 1356 
Q 3559 666 3084 287 
Q 2609 -91 1734 -91 
Q 1441 -91 1130 -33 
Q 819 25 488 141 
L 488 750 
Q 750 597 1062 519 
Q 1375 441 1716 441 
Q 2309 441 2620 675 
Q 2931 909 2931 1356 
Q 2931 1769 2642 2001 
Q 2353 2234 1838 2234 
L 1294 2234 
L 1294 2753 
L 1863 2753 
Q 2328 2753 2575 2939 
Q 2822 3125 2822 3475 
Q 2822 3834 2567 4026 
Q 2313 4219 1838 4219 
Q 1578 4219 1281 4162 
Q 984 4106 628 3988 
L 628 4550 
Q 988 4650 1302 4700 
Q 1616 4750 1894 4750 
Q 2613 4750 3031 4423 
Q 3450 4097 3450 3541 
Q 3450 3153 3228 2886 
Q 3006 2619 2597 2516 
z
" transform="scale(0.015625)"/>
       </defs>
       <use xlink:href="#DejaVuSans-31" transform="translate(0 0.765625)"/>
       <use xlink:href="#DejaVuSans-30" transform="translate(63.623047 0.765625)"/>
       <use xlink:href="#DejaVuSans-33" transform="translate(128.203125 39.046875)scale(0.7)"/>
      </g>
     </g>
    </g>
    <g id="xtick_3">
     <g id="line2d_3">
      <defs>
       <path id="m00e623f56d" d="M 0 0 
L 0 2 
" style="stroke: #000000; stroke-width: 0.6"/>
      </defs>
      <g>
       <use xlink:href="#m00e623f56d" x="68.113446" y="318.56425" style="stroke: #000000; stroke-width: 0.6"/>
      </g>
     </g>
    </g>
    <g id="xtick_4">
     <g id="line2d_4">
      <g>
       <use xlink:href="#m00e623f56d" x="78.100878" y="318.56425" style="stroke: #000000; stroke-width: 0.6"/>
      </g>
     </g>
    </g>
    <g id="xtick_5">
     <g id="line2d_5">
      <g>
       <use xlink:href="#m00e623f56d" x="86.910417" y="318.56425" style="stroke: #000000; stroke-width: 0.6"/>
      </g>
     </g>
    </g>
    <g id="xtick_6">
     <g id="line2d_6">
      <g>
       <use xlink:href="#m00e623f56d" x="146.634507" y="318.56425" style="stroke: #000000; stroke-width: 0.6"/>
      </g>
     </g>
    </g>
    <g id="xtick_7">
     <g id="line2d_7">
      <g>
       <use xlink:href="#m00e623f56d" x="176.961121" y="318.56425" style="stroke: #000000; stroke-width: 0.6"/>
      </g>
     </g>
    </g>
    <g id="xtick_8">
     <g id="line2d_8">
      <g>
       <use xlink:href="#m00e623f56d" x="198.478197" y="318.56425" style="stroke: #000000; stroke-width: 0.6"/>
      </g>
     </g>
    </g>
    <g id="xtick_9">
     <g id="line2d_9">
      <g>
       <use xlink:href="#m00e623f56d" x="215.168137" y="318.56425" style="stroke: #000000; stroke-width: 0.6"/>
      </g>
     </g>
    </g>
    <g id="xtick_10">
     <g id="line2d_10">
      <g>
       <use xlink:href="#m00e623f56d" x="228.804811" y="318.56425" style="stroke: #000000; stroke-width: 0.6"/>
      </g>
     </g>
    </g>
    <g id="xtick_11">
     <g id="line2d_11">
      <g>
       <use xlink:href="#m00e623f56d" x="240.334455" y="318.56425" style="stroke: #000000; stroke-width: 0.6"/>
      </g>
     </g>
    </g>
    <g id="xtick_12">
     <g id="line2d_12">
      <g>
       <use xlink:href="#m00e623f56d" x="250.321886" y="318.56425" style="stroke: #000000; stroke-width: 0.6"/>
      </g>
     </g>
    </g>
    <g id="xtick_13">
     <g id="line2d_13">
      <g>
       <use xlink:href="#m00e623f56d" x="259.131425" y="318.56425" style="stroke: #000000; stroke-width: 0.6"/>
      </g>
     </g>
    </g>
    <g id="xtick_14">
     <g id="line2d_14">
      <g>
       <use xlink:href="#m00e623f56d" x="318.855516" y="318.56425" style="stroke: #000000; stroke-width: 0.6"/>
      </g>
     </g>
    </g>
    <g id="xtick_15">
     <g id="line2d_15">
      <g>
       <use xlink:href="#m00e623f56d" x="349.18213" y="318.56425" style="stroke: #000000; stroke-width: 0.6"/>
      </g>
     </g>
    </g>
    <g id="xtick_16">
     <g id="line2d_16">
      <g>
       <use xlink:href="#m00e623f56d" x="370.699205" y="318.56425" style="stroke: #000000; stroke-width: 0.6"/>
      </g>
     </g>
    </g>
    <g id="xtick_17">
     <g id="line2d_17">
      <g>
       <use xlink:href="#m00e623f56d" x="387.389145" y="318.56425" style="stroke: #000000; stroke-width: 0.6"/>
      </g>
     </g>
    </g>
    <g id="xtick_18">
     <g id="line2d_18">
      <g>
       <use xlink:href="#m00e623f56d" x="401.025819" y="318.56425" style="stroke: #000000; stroke-width: 0.6"/>
      </g>
     </g>
    </g>
    <g id="xtick_19">
     <g id="line2d_19">
      <g>
       <use xlink:href="#m00e623f56d" x="412.555463" y="318.56425" style="stroke: #000000; stroke-width: 0.6"/>
      </g>
     </g>
    </g>
    <g id="xtick_20">
     <g id="line2d_20">
      <g>
       <use xlink:href="#m00e623f56d" x="422.542895" y="318.56425" style="stroke: #000000; stroke-width: 0.6"/>
      </g>
     </g>
    </g>
    <g id="text_3">
     <!-- Pages -->
     <g transform="translate(213.4451 359.278312)scale(0.2 -0.2)">
      <defs>
       <path id="DejaVuSans-50" d="M 1259 4147 
L 1259 2394 
L 2053 2394 
Q 2494 2394 2734 2622 
Q 2975 2850 2975 3272 
Q 2975 3691 2734 3919 
Q 2494 4147 2053 4147 
L 1259 4147 
z
M 628 4666 
L 2053 4666 
Q 2838 4666 3239 4311 
Q 3641 3956 3641 3272 
Q 3641 2581 3239 2228 
Q 2838 1875 2053 1875 
L 1259 1875 
L 1259 0 
L 628 0 
L 628 4666 
z
" transform="scale(0.015625)"/>
       <path id="DejaVuSans-61" d="M 2194 1759 
Q 1497 1759 1228 1600 
Q 959 1441 959 1056 
Q 959 750 1161 570 
Q 1363 391 1709 391 
Q 2188 391 2477 730 
Q 2766 1069 2766 1631 
L 2766 1759 
L 2194 1759 
z
M 3341 1997 
L 3341 0 
L 2766 0 
L 2766 531 
Q 2569 213 2275 61 
Q 1981 -91 1556 -91 
Q 1019 -91 701 211 
Q 384 513 384 1019 
Q 384 1609 779 1909 
Q 1175 2209 1959 2209 
L 2766 2209 
L 2766 2266 
Q 2766 2663 2505 2880 
Q 2244 3097 1772 3097 
Q 1472 3097 1187 3025 
Q 903 2953 641 2809 
L 641 3341 
Q 956 3463 1253 3523 
Q 1550 3584 1831 3584 
Q 2591 3584 2966 3190 
Q 3341 2797 3341 1997 
z
" transform="scale(0.015625)"/>
       <path id="DejaVuSans-67" d="M 2906 1791 
Q 2906 2416 2648 2759 
Q 2391 3103 1925 3103 
Q 1463 3103 1205 2759 
Q 947 2416 947 1791 
Q 947 1169 1205 825 
Q 1463 481 1925 481 
Q 2391 481 2648 825 
Q 2906 1169 2906 1791 
z
M 3481 434 
Q 3481 -459 3084 -895 
Q 2688 -1331 1869 -1331 
Q 1566 -1331 1297 -1286 
Q 1028 -1241 775 -1147 
L 775 -588 
Q 1028 -725 1275 -790 
Q 1522 -856 1778 -856 
Q 2344 -856 2625 -561 
Q 2906 -266 2906 331 
L 2906 616 
Q 2728 306 2450 153 
Q 2172 0 1784 0 
Q 1141 0 747 490 
Q 353 981 353 1791 
Q 353 2603 747 3093 
Q 1141 3584 1784 3584 
Q 2172 3584 2450 3431 
Q 2728 3278 2906 2969 
L 2906 3500 
L 3481 3500 
L 3481 434 
z
" transform="scale(0.015625)"/>
       <path id="DejaVuSans-65" d="M 3597 1894 
L 3597 1613 
L 953 1613 
Q 991 1019 1311 708 
Q 1631 397 2203 397 
Q 2534 397 2845 478 
Q 3156 559 3463 722 
L 3463 178 
Q 3153 47 2828 -22 
Q 2503 -91 2169 -91 
Q 1331 -91 842 396 
Q 353 884 353 1716 
Q 353 2575 817 3079 
Q 1281 3584 2069 3584 
Q 2775 3584 3186 3129 
Q 3597 2675 3597 1894 
z
M 3022 2063 
Q 3016 2534 2758 2815 
Q 2500 3097 2075 3097 
Q 1594 3097 1305 2825 
Q 1016 2553 972 2059 
L 3022 2063 
z
" transform="scale(0.015625)"/>
       <path id="DejaVuSans-73" d="M 2834 3397 
L 2834 2853 
Q 2591 2978 2328 3040 
Q 2066 3103 1784 3103 
Q 1356 3103 1142 2972 
Q 928 2841 928 2578 
Q 928 2378 1081 2264 
Q 1234 2150 1697 2047 
L 1894 2003 
Q 2506 1872 2764 1633 
Q 3022 1394 3022 966 
Q 3022 478 2636 193 
Q 2250 -91 1575 -91 
Q 1294 -91 989 -36 
Q 684 19 347 128 
L 347 722 
Q 666 556 975 473 
Q 1284 391 1588 391 
Q 1994 391 2212 530 
Q 2431 669 2431 922 
Q 2431 1156 2273 1281 
Q 2116 1406 1581 1522 
L 1381 1569 
Q 847 1681 609 1914 
Q 372 2147 372 2553 
Q 372 3047 722 3315 
Q 1072 3584 1716 3584 
Q 2034 3584 2315 3537 
Q 2597 3491 2834 3397 
z
" transform="scale(0.015625)"/>
      </defs>
      <use xlink:href="#DejaVuSans-50"/>
      <use xlink:href="#DejaVuSans-61" x="55.802734"/>
      <use xlink:href="#DejaVuSans-67" x="117.082031"/>
      <use xlink:href="#DejaVuSans-65" x="180.558594"/>
      <use xlink:href="#DejaVuSans-73" x="242.082031"/>
     </g>
    </g>
   </g>
   <g id="matplotlib.axis_2">
    <g id="ytick_1">
     <g id="line2d_21">
      <defs>
       <path id="m6f3f5b6aff" d="M 0 0 
L -3.5 0 
" style="stroke: #000000; stroke-width: 0.8"/>
      </defs>
      <g>
       <use xlink:href="#m6f3f5b6aff" x="61.410938" y="318.56425" style="stroke: #000000; stroke-width: 0.8"/>
      </g>
     </g>
     <g id="text_4">
      <!-- 0.0 -->
      <g transform="translate(30.55625 324.263078)scale(0.15 -0.15)">
       <defs>
        <path id="DejaVuSans-2e" d="M 684 794 
L 1344 794 
L 1344 0 
L 684 0 
L 684 794 
z
" transform="scale(0.015625)"/>
       </defs>
       <use xlink:href="#DejaVuSans-30"/>
       <use xlink:href="#DejaVuSans-2e" x="63.623047"/>
       <use xlink:href="#DejaVuSans-30" x="95.410156"/>
      </g>
     </g>
    </g>
    <g id="ytick_2">
     <g id="line2d_22">
      <g>
       <use xlink:href="#m6f3f5b6aff" x="61.410938" y="263.050249" style="stroke: #000000; stroke-width: 0.8"/>
      </g>
     </g>
     <g id="text_5">
      <!-- 0.2 -->
      <g transform="translate(30.55625 268.749077)scale(0.15 -0.15)">
       <use xlink:href="#DejaVuSans-30"/>
       <use xlink:href="#DejaVuSans-2e" x="63.623047"/>
       <use xlink:href="#DejaVuSans-32" x="95.410156"/>
      </g>
     </g>
    </g>
    <g id="ytick_3">
     <g id="line2d_23">
      <g>
       <use xlink:href="#m6f3f5b6aff" x="61.410938" y="207.536248" style="stroke: #000000; stroke-width: 0.8"/>
      </g>
     </g>
     <g id="text_6">
      <!-- 0.4 -->
      <g transform="translate(30.55625 213.235076)scale(0.15 -0.15)">
       <defs>
        <path id="DejaVuSans-34" d="M 2419 4116 
L 825 1625 
L 2419 1625 
L 2419 4116 
z
M 2253 4666 
L 3047 4666 
L 3047 1625 
L 3713 1625 
L 3713 1100 
L 3047 1100 
L 3047 0 
L 2419 0 
L 2419 1100 
L 313 1100 
L 313 1709 
L 2253 4666 
z
" transform="scale(0.015625)"/>
       </defs>
       <use xlink:href="#DejaVuSans-30"/>
       <use xlink:href="#DejaVuSans-2e" x="63.623047"/>
       <use xlink:href="#DejaVuSans-34" x="95.410156"/>
      </g>
     </g>
    </g>
    <g id="ytick_4">
     <g id="line2d_24">
      <g>
       <use xlink:href="#m6f3f5b6aff" x="61.410938" y="152.022247" style="stroke: #000000; stroke-width: 0.8"/>
      </g>
     </g>
     <g id="text_7">
      <!-- 0.6 -->
      <g transform="translate(30.55625 157.721075)scale(0.15 -0.15)">
       <defs>
        <path id="DejaVuSans-36" d="M 2113 2584 
Q 1688 2584 1439 2293 
Q 1191 2003 1191 1497 
Q 1191 994 1439 701 
Q 1688 409 2113 409 
Q 2538 409 2786 701 
Q 3034 994 3034 1497 
Q 3034 2003 2786 2293 
Q 2538 2584 2113 2584 
z
M 3366 4563 
L 3366 3988 
Q 3128 4100 2886 4159 
Q 2644 4219 2406 4219 
Q 1781 4219 1451 3797 
Q 1122 3375 1075 2522 
Q 1259 2794 1537 2939 
Q 1816 3084 2150 3084 
Q 2853 3084 3261 2657 
Q 3669 2231 3669 1497 
Q 3669 778 3244 343 
Q 2819 -91 2113 -91 
Q 1303 -91 875 529 
Q 447 1150 447 2328 
Q 447 3434 972 4092 
Q 1497 4750 2381 4750 
Q 2619 4750 2861 4703 
Q 3103 4656 3366 4563 
z
" transform="scale(0.015625)"/>
       </defs>
       <use xlink:href="#DejaVuSans-30"/>
       <use xlink:href="#DejaVuSans-2e" x="63.623047"/>
       <use xlink:href="#DejaVuSans-36" x="95.410156"/>
      </g>
     </g>
    </g>
    <g id="ytick_5">
     <g id="line2d_25">
      <g>
       <use xlink:href="#m6f3f5b6aff" x="61.410938" y="96.508246" style="stroke: #000000; stroke-width: 0.8"/>
      </g>
     </g>
     <g id="text_8">
      <!-- 0.8 -->
      <g transform="translate(30.55625 102.207074)scale(0.15 -0.15)">
       <defs>
        <path id="DejaVuSans-38" d="M 2034 2216 
Q 1584 2216 1326 1975 
Q 1069 1734 1069 1313 
Q 1069 891 1326 650 
Q 1584 409 2034 409 
Q 2484 409 2743 651 
Q 3003 894 3003 1313 
Q 3003 1734 2745 1975 
Q 2488 2216 2034 2216 
z
M 1403 2484 
Q 997 2584 770 2862 
Q 544 3141 544 3541 
Q 544 4100 942 4425 
Q 1341 4750 2034 4750 
Q 2731 4750 3128 4425 
Q 3525 4100 3525 3541 
Q 3525 3141 3298 2862 
Q 3072 2584 2669 2484 
Q 3125 2378 3379 2068 
Q 3634 1759 3634 1313 
Q 3634 634 3220 271 
Q 2806 -91 2034 -91 
Q 1263 -91 848 271 
Q 434 634 434 1313 
Q 434 1759 690 2068 
Q 947 2378 1403 2484 
z
M 1172 3481 
Q 1172 3119 1398 2916 
Q 1625 2713 2034 2713 
Q 2441 2713 2670 2916 
Q 2900 3119 2900 3481 
Q 2900 3844 2670 4047 
Q 2441 4250 2034 4250 
Q 1625 4250 1398 4047 
Q 1172 3844 1172 3481 
z
" transform="scale(0.015625)"/>
       </defs>
       <use xlink:href="#DejaVuSans-30"/>
       <use xlink:href="#DejaVuSans-2e" x="63.623047"/>
       <use xlink:href="#DejaVuSans-38" x="95.410156"/>
      </g>
     </g>
    </g>
    <g id="ytick_6">
     <g id="line2d_26">
      <g>
       <use xlink:href="#m6f3f5b6aff" x="61.410938" y="40.994245" style="stroke: #000000; stroke-width: 0.8"/>
      </g>
     </g>
     <g id="text_9">
      <!-- 1.0 -->
      <g transform="translate(30.55625 46.693073)scale(0.15 -0.15)">
       <use xlink:href="#DejaVuSans-31"/>
       <use xlink:href="#DejaVuSans-2e" x="63.623047"/>
       <use xlink:href="#DejaVuSans-30" x="95.410156"/>
      </g>
     </g>
    </g>
    <g id="text_10">
     <!-- Count Difference -->
     <g transform="translate(22.396875 259.57525)rotate(-90)scale(0.2 -0.2)">
      <defs>
       <path id="DejaVuSans-43" d="M 4122 4306 
L 4122 3641 
Q 3803 3938 3442 4084 
Q 3081 4231 2675 4231 
Q 1875 4231 1450 3742 
Q 1025 3253 1025 2328 
Q 1025 1406 1450 917 
Q 1875 428 2675 428 
Q 3081 428 3442 575 
Q 3803 722 4122 1019 
L 4122 359 
Q 3791 134 3420 21 
Q 3050 -91 2638 -91 
Q 1578 -91 968 557 
Q 359 1206 359 2328 
Q 359 3453 968 4101 
Q 1578 4750 2638 4750 
Q 3056 4750 3426 4639 
Q 3797 4528 4122 4306 
z
" transform="scale(0.015625)"/>
       <path id="DejaVuSans-6f" d="M 1959 3097 
Q 1497 3097 1228 2736 
Q 959 2375 959 1747 
Q 959 1119 1226 758 
Q 1494 397 1959 397 
Q 2419 397 2687 759 
Q 2956 1122 2956 1747 
Q 2956 2369 2687 2733 
Q 2419 3097 1959 3097 
z
M 1959 3584 
Q 2709 3584 3137 3096 
Q 3566 2609 3566 1747 
Q 3566 888 3137 398 
Q 2709 -91 1959 -91 
Q 1206 -91 779 398 
Q 353 888 353 1747 
Q 353 2609 779 3096 
Q 1206 3584 1959 3584 
z
" transform="scale(0.015625)"/>
       <path id="DejaVuSans-75" d="M 544 1381 
L 544 3500 
L 1119 3500 
L 1119 1403 
Q 1119 906 1312 657 
Q 1506 409 1894 409 
Q 2359 409 2629 706 
Q 2900 1003 2900 1516 
L 2900 3500 
L 3475 3500 
L 3475 0 
L 2900 0 
L 2900 538 
Q 2691 219 2414 64 
Q 2138 -91 1772 -91 
Q 1169 -91 856 284 
Q 544 659 544 1381 
z
M 1991 3584 
L 1991 3584 
z
" transform="scale(0.015625)"/>
       <path id="DejaVuSans-6e" d="M 3513 2113 
L 3513 0 
L 2938 0 
L 2938 2094 
Q 2938 2591 2744 2837 
Q 2550 3084 2163 3084 
Q 1697 3084 1428 2787 
Q 1159 2491 1159 1978 
L 1159 0 
L 581 0 
L 581 3500 
L 1159 3500 
L 1159 2956 
Q 1366 3272 1645 3428 
Q 1925 3584 2291 3584 
Q 2894 3584 3203 3211 
Q 3513 2838 3513 2113 
z
" transform="scale(0.015625)"/>
       <path id="DejaVuSans-74" d="M 1172 4494 
L 1172 3500 
L 2356 3500 
L 2356 3053 
L 1172 3053 
L 1172 1153 
Q 1172 725 1289 603 
Q 1406 481 1766 481 
L 2356 481 
L 2356 0 
L 1766 0 
Q 1100 0 847 248 
Q 594 497 594 1153 
L 594 3053 
L 172 3053 
L 172 3500 
L 594 3500 
L 594 4494 
L 1172 4494 
z
" transform="scale(0.015625)"/>
       <path id="DejaVuSans-20" transform="scale(0.015625)"/>
       <path id="DejaVuSans-44" d="M 1259 4147 
L 1259 519 
L 2022 519 
Q 2988 519 3436 956 
Q 3884 1394 3884 2338 
Q 3884 3275 3436 3711 
Q 2988 4147 2022 4147 
L 1259 4147 
z
M 628 4666 
L 1925 4666 
Q 3281 4666 3915 4102 
Q 4550 3538 4550 2338 
Q 4550 1131 3912 565 
Q 3275 0 1925 0 
L 628 0 
L 628 4666 
z
" transform="scale(0.015625)"/>
       <path id="DejaVuSans-69" d="M 603 3500 
L 1178 3500 
L 1178 0 
L 603 0 
L 603 3500 
z
M 603 4863 
L 1178 4863 
L 1178 4134 
L 603 4134 
L 603 4863 
z
" transform="scale(0.015625)"/>
       <path id="DejaVuSans-66" d="M 2375 4863 
L 2375 4384 
L 1825 4384 
Q 1516 4384 1395 4259 
Q 1275 4134 1275 3809 
L 1275 3500 
L 2222 3500 
L 2222 3053 
L 1275 3053 
L 1275 0 
L 697 0 
L 697 3053 
L 147 3053 
L 147 3500 
L 697 3500 
L 697 3744 
Q 697 4328 969 4595 
Q 1241 4863 1831 4863 
L 2375 4863 
z
" transform="scale(0.015625)"/>
       <path id="DejaVuSans-72" d="M 2631 2963 
Q 2534 3019 2420 3045 
Q 2306 3072 2169 3072 
Q 1681 3072 1420 2755 
Q 1159 2438 1159 1844 
L 1159 0 
L 581 0 
L 581 3500 
L 1159 3500 
L 1159 2956 
Q 1341 3275 1631 3429 
Q 1922 3584 2338 3584 
Q 2397 3584 2469 3576 
Q 2541 3569 2628 3553 
L 2631 2963 
z
" transform="scale(0.015625)"/>
       <path id="DejaVuSans-63" d="M 3122 3366 
L 3122 2828 
Q 2878 2963 2633 3030 
Q 2388 3097 2138 3097 
Q 1578 3097 1268 2742 
Q 959 2388 959 1747 
Q 959 1106 1268 751 
Q 1578 397 2138 397 
Q 2388 397 2633 464 
Q 2878 531 3122 666 
L 3122 134 
Q 2881 22 2623 -34 
Q 2366 -91 2075 -91 
Q 1284 -91 818 406 
Q 353 903 353 1747 
Q 353 2603 823 3093 
Q 1294 3584 2113 3584 
Q 2378 3584 2631 3529 
Q 2884 3475 3122 3366 
z
" transform="scale(0.015625)"/>
      </defs>
      <use xlink:href="#DejaVuSans-43"/>
      <use xlink:href="#DejaVuSans-6f" x="69.824219"/>
      <use xlink:href="#DejaVuSans-75" x="131.005859"/>
      <use xlink:href="#DejaVuSans-6e" x="194.384766"/>
      <use xlink:href="#DejaVuSans-74" x="257.763672"/>
      <use xlink:href="#DejaVuSans-20" x="296.972656"/>
      <use xlink:href="#DejaVuSans-44" x="328.759766"/>
      <use xlink:href="#DejaVuSans-69" x="405.761719"/>
      <use xlink:href="#DejaVuSans-66" x="433.544922"/>
      <use xlink:href="#DejaVuSans-66" x="468.75"/>
      <use xlink:href="#DejaVuSans-65" x="503.955078"/>
      <use xlink:href="#DejaVuSans-72" x="565.478516"/>
      <use xlink:href="#DejaVuSans-65" x="604.341797"/>
      <use xlink:href="#DejaVuSans-6e" x="665.865234"/>
      <use xlink:href="#DejaVuSans-63" x="729.244141"/>
      <use xlink:href="#DejaVuSans-65" x="784.224609"/>
     </g>
    </g>
   </g>
   <g id="line2d_27">
    <defs>
     <path id="mb7e9aad44b" d="M 0 1.5 
C 0.397805 1.5 0.77937 1.341951 1.06066 1.06066 
C 1.341951 0.77937 1.5 0.397805 1.5 0 
C 1.5 -0.397805 1.341951 -0.77937 1.06066 -1.06066 
C 0.77937 -1.341951 0.397805 -1.5 0 -1.5 
C -0.397805 -1.5 -0.77937 -1.341951 -1.06066 -1.06066 
C -1.341951 -0.77937 -1.5 -0.397805 -1.5 0 
C -1.5 0.397805 -1.341951 0.77937 -1.06066 1.06066 
C -0.77937 1.341951 -0.397805 1.5 0 1.5 
z
" style="stroke: #1f77b4"/>
    </defs>
    <g clip-path="url(#p4c75daa913)">
     <use xlink:href="#mb7e9aad44b" x="61.410937" y="318.494857" style="fill: #1f77b4; stroke: #1f77b4"/>
     <use xlink:href="#mb7e9aad44b" x="91.737552" y="318.34497" style="fill: #1f77b4; stroke: #1f77b4"/>
     <use xlink:href="#mb7e9aad44b" x="113.254627" y="317.062596" style="fill: #1f77b4; stroke: #1f77b4"/>
     <use xlink:href="#mb7e9aad44b" x="129.944567" y="262.200885" style="fill: #1f77b4; stroke: #1f77b4"/>
     <use xlink:href="#mb7e9aad44b" x="143.581241" y="225.4867" style="fill: #1f77b4; stroke: #1f77b4"/>
     <use xlink:href="#mb7e9aad44b" x="165.098316" y="179.49335" style="fill: #1f77b4; stroke: #1f77b4"/>
     <use xlink:href="#mb7e9aad44b" x="195.424931" y="133.355664" style="fill: #1f77b4; stroke: #1f77b4"/>
     <use xlink:href="#mb7e9aad44b" x="216.942006" y="110.259064" style="fill: #1f77b4; stroke: #1f77b4"/>
     <use xlink:href="#mb7e9aad44b" x="247.26862" y="87.112501" style="fill: #1f77b4; stroke: #1f77b4"/>
     <use xlink:href="#mb7e9aad44b" x="268.785695" y="75.662738" style="fill: #1f77b4; stroke: #1f77b4"/>
     <use xlink:href="#mb7e9aad44b" x="299.112309" y="64.138032" style="fill: #1f77b4; stroke: #1f77b4"/>
     <use xlink:href="#mb7e9aad44b" x="320.629385" y="58.339594" style="fill: #1f77b4; stroke: #1f77b4"/>
     <use xlink:href="#mb7e9aad44b" x="350.955999" y="52.59112" style="fill: #1f77b4; stroke: #1f77b4"/>
     <use xlink:href="#mb7e9aad44b" x="372.473074" y="49.671083" style="fill: #1f77b4; stroke: #1f77b4"/>
     <use xlink:href="#mb7e9aad44b" x="402.799688" y="46.778804" style="fill: #1f77b4; stroke: #1f77b4"/>
     <use xlink:href="#mb7e9aad44b" x="424.316763" y="45.357645" style="fill: #1f77b4; stroke: #1f77b4"/>
    </g>
   </g>
   <g id="line2d_28">
    <path d="M 60.982593 318.56425 
L 112.826283 318.56425 
L 113.329952 317.193041 
L 117.716562 301.460199 
L 121.860094 287.423111 
L 126.209844 273.500576 
L 130.320474 261.067083 
L 134.595617 248.840814 
L 138.99657 236.963867 
L 143.152897 226.370915 
L 147.40932 216.116035 
L 151.737489 206.26983 
L 156.112692 196.879172 
L 160.513645 187.971462 
L 164.922231 179.558624 
L 169.323184 171.64066 
L 173.703783 164.208678 
L 178.26452 156.919937 
L 182.761727 150.155042 
L 187.37777 143.621728 
L 191.901194 137.598988 
L 196.497532 131.84109 
L 201.138688 126.375201 
L 205.946424 121.059655 
L 210.737171 116.092093 
L 215.623995 111.342314 
L 220.570898 106.840038 
L 225.659357 102.509373 
L 230.84201 98.391205 
L 236.175965 94.440505 
L 241.607749 90.696685 
L 247.176432 87.130591 
L 252.904749 83.729053 
L 258.801843 80.489082 
L 264.86587 77.413378 
L 271.147362 74.479697 
L 277.614763 71.705902 
L 284.336407 69.066292 
L 291.344408 66.5555 
L 298.641839 64.179383 
L 306.247842 61.937563 
L 314.253747 59.81163 
L 322.655581 57.812234 
L 331.522833 55.932038 
L 340.924278 54.167619 
L 350.926672 52.518641 
L 361.622865 50.982988 
L 373.111003 49.560777 
L 385.533859 48.24982 
L 399.056161 47.04981 
L 413.882937 45.96089 
L 424.321465 45.313928 
L 424.321465 45.313928 
" clip-path="url(#p4c75daa913)" style="fill: none; stroke: #1f77b4; stroke-width: 1.5; stroke-linecap: square"/>
   </g>
   <g id="line2d_29">
    <defs>
     <path id="m2b06e4dde2" d="M 0 1.5 
C 0.397805 1.5 0.77937 1.341951 1.06066 1.06066 
C 1.341951 0.77937 1.5 0.397805 1.5 0 
C 1.5 -0.397805 1.341951 -0.77937 1.06066 -1.06066 
C 0.77937 -1.341951 0.397805 -1.5 0 -1.5 
C -0.397805 -1.5 -0.77937 -1.341951 -1.06066 -1.06066 
C -1.341951 -0.77937 -1.5 -0.397805 -1.5 0 
C -1.5 0.397805 -1.341951 0.77937 -1.06066 1.06066 
C -0.77937 1.341951 -0.397805 1.5 0 1.5 
z
" style="stroke: #ff7f0e"/>
    </defs>
    <g clip-path="url(#p4c75daa913)">
     <use xlink:href="#m2b06e4dde2" x="61.410937" y="318.56425" style="fill: #ff7f0e; stroke: #ff7f0e"/>
     <use xlink:href="#m2b06e4dde2" x="91.737552" y="318.56425" style="fill: #ff7f0e; stroke: #ff7f0e"/>
     <use xlink:href="#m2b06e4dde2" x="113.254627" y="318.56425" style="fill: #ff7f0e; stroke: #ff7f0e"/>
     <use xlink:href="#m2b06e4dde2" x="129.944567" y="318.56425" style="fill: #ff7f0e; stroke: #ff7f0e"/>
     <use xlink:href="#m2b06e4dde2" x="143.581241" y="318.56425" style="fill: #ff7f0e; stroke: #ff7f0e"/>
     <use xlink:href="#m2b06e4dde2" x="165.098316" y="318.56425" style="fill: #ff7f0e; stroke: #ff7f0e"/>
     <use xlink:href="#m2b06e4dde2" x="195.424931" y="318.56425" style="fill: #ff7f0e; stroke: #ff7f0e"/>
     <use xlink:href="#m2b06e4dde2" x="216.942006" y="318.558699" style="fill: #ff7f0e; stroke: #ff7f0e"/>
     <use xlink:href="#m2b06e4dde2" x="247.26862" y="318.464325" style="fill: #ff7f0e; stroke: #ff7f0e"/>
     <use xlink:href="#m2b06e4dde2" x="268.785695" y="317.592755" style="fill: #ff7f0e; stroke: #ff7f0e"/>
     <use xlink:href="#m2b06e4dde2" x="299.112309" y="225.478373" style="fill: #ff7f0e; stroke: #ff7f0e"/>
     <use xlink:href="#m2b06e4dde2" x="320.629385" y="179.140836" style="fill: #ff7f0e; stroke: #ff7f0e"/>
     <use xlink:href="#m2b06e4dde2" x="350.955999" y="132.997599" style="fill: #ff7f0e; stroke: #ff7f0e"/>
     <use xlink:href="#m2b06e4dde2" x="372.473074" y="109.912101" style="fill: #ff7f0e; stroke: #ff7f0e"/>
     <use xlink:href="#m2b06e4dde2" x="402.799688" y="86.75166" style="fill: #ff7f0e; stroke: #ff7f0e"/>
     <use xlink:href="#m2b06e4dde2" x="424.316763" y="75.218626" style="fill: #ff7f0e; stroke: #ff7f0e"/>
    </g>
   </g>
   <g id="line2d_30">
    <path d="M 60.982593 318.56425 
L 268.483587 318.56425 
L 269.920187 313.303329 
L 274.13 298.399783 
L 278.336886 284.321431 
L 282.529061 271.058314 
L 286.746107 258.445819 
L 290.971831 246.500913 
L 295.236598 235.110803 
L 299.479883 224.404653 
L 303.771228 214.177666 
L 308.052928 204.542026 
L 312.383784 195.341025 
L 316.709559 186.667556 
L 321.080249 178.398954 
L 325.474959 170.558071 
L 329.90366 163.109112 
L 334.372751 156.026279 
L 338.861015 149.326487 
L 343.396859 142.952028 
L 347.978929 136.893366 
L 352.624741 131.117892 
L 357.326362 125.627068 
L 362.093387 120.401308 
L 366.930669 115.428268 
L 371.839141 110.700297 
L 376.831385 106.199569 
L 381.913622 101.916096 
L 387.099749 97.835005 
L 392.407974 93.9408 
L 397.835632 90.2347 
L 403.406472 86.700434 
L 409.121967 83.33787 
L 415.002839 80.136045 
L 421.072326 77.085199 
L 424.321465 75.550945 
L 424.321465 75.550945 
" clip-path="url(#p4c75daa913)" style="fill: none; stroke: #ff7f0e; stroke-width: 1.5; stroke-linecap: square"/>
   </g>
   <g id="line2d_31">
    <defs>
     <path id="m4df8316420" d="M 0 1.5 
C 0.397805 1.5 0.77937 1.341951 1.06066 1.06066 
C 1.341951 0.77937 1.5 0.397805 1.5 0 
C 1.5 -0.397805 1.341951 -0.77937 1.06066 -1.06066 
C 0.77937 -1.341951 0.397805 -1.5 0 -1.5 
C -0.397805 -1.5 -0.77937 -1.341951 -1.06066 -1.06066 
C -1.341951 -0.77937 -1.5 -0.397805 -1.5 0 
C -1.5 0.397805 -1.341951 0.77937 -1.06066 1.06066 
C -0.77937 1.341951 -0.397805 1.5 0 1.5 
z
" style="stroke: #2ca02c"/>
    </defs>
    <g clip-path="url(#p4c75daa913)">
     <use xlink:href="#m4df8316420" x="61.410937" y="318.56425" style="fill: #2ca02c; stroke: #2ca02c"/>
     <use xlink:href="#m4df8316420" x="91.737552" y="318.56425" style="fill: #2ca02c; stroke: #2ca02c"/>
     <use xlink:href="#m4df8316420" x="113.254627" y="318.56425" style="fill: #2ca02c; stroke: #2ca02c"/>
     <use xlink:href="#m4df8316420" x="129.944567" y="318.56425" style="fill: #2ca02c; stroke: #2ca02c"/>
     <use xlink:href="#m4df8316420" x="143.581241" y="318.56425" style="fill: #2ca02c; stroke: #2ca02c"/>
     <use xlink:href="#m4df8316420" x="165.098316" y="318.56425" style="fill: #2ca02c; stroke: #2ca02c"/>
     <use xlink:href="#m4df8316420" x="195.424931" y="318.56425" style="fill: #2ca02c; stroke: #2ca02c"/>
     <use xlink:href="#m4df8316420" x="216.942006" y="318.558699" style="fill: #2ca02c; stroke: #2ca02c"/>
     <use xlink:href="#m4df8316420" x="247.26862" y="318.472652" style="fill: #2ca02c; stroke: #2ca02c"/>
     <use xlink:href="#m4df8316420" x="268.785695" y="317.617736" style="fill: #2ca02c; stroke: #2ca02c"/>
     <use xlink:href="#m4df8316420" x="299.112309" y="225.517233" style="fill: #2ca02c; stroke: #2ca02c"/>
     <use xlink:href="#m4df8316420" x="320.629385" y="179.204677" style="fill: #2ca02c; stroke: #2ca02c"/>
     <use xlink:href="#m4df8316420" x="350.955999" y="132.986496" style="fill: #2ca02c; stroke: #2ca02c"/>
     <use xlink:href="#m4df8316420" x="372.473074" y="109.900999" style="fill: #2ca02c; stroke: #2ca02c"/>
     <use xlink:href="#m4df8316420" x="402.799688" y="86.765539" style="fill: #2ca02c; stroke: #2ca02c"/>
     <use xlink:href="#m4df8316420" x="424.316763" y="75.226953" style="fill: #2ca02c; stroke: #2ca02c"/>
    </g>
   </g>
   <g id="line2d_32">
    <path d="M 60.982593 318.56425 
L 268.483587 318.56425 
L 268.86102 317.228579 
L 273.069901 302.113456 
L 277.27911 287.824324 
L 281.47634 274.354504 
L 285.701402 261.537665 
L 289.937571 249.393818 
L 294.170623 237.926856 
L 298.430853 227.023242 
L 302.7013 216.699328 
L 307.005262 206.874006 
L 311.324352 197.56644 
L 315.642951 188.782093 
L 320.011286 180.397854 
L 324.407716 172.439884 
L 328.813788 164.920224 
L 333.267002 157.757126 
L 337.745211 150.971307 
L 342.276669 144.506136 
L 346.859458 138.354187 
L 351.49006 132.509344 
L 356.163728 126.96587 
L 360.911486 121.678226 
L 365.720291 116.654016 
L 370.6097 111.866248 
L 375.576562 107.312739 
L 380.643401 102.968897 
L 385.810267 98.832173 
L 391.085214 94.893627 
L 396.481028 91.142177 
L 402.012515 87.567275 
L 407.694305 84.160386 
L 413.539136 80.915598 
L 419.556587 77.829609 
L 424.321465 75.556156 
L 424.321465 75.556156 
" clip-path="url(#p4c75daa913)" style="fill: none; stroke: #2ca02c; stroke-width: 1.5; stroke-linecap: square"/>
   </g>
   <g id="line2d_33">
    <defs>
     <path id="m941512fc49" d="M 0 1.5 
C 0.397805 1.5 0.77937 1.341951 1.06066 1.06066 
C 1.341951 0.77937 1.5 0.397805 1.5 0 
C 1.5 -0.397805 1.341951 -0.77937 1.06066 -1.06066 
C 0.77937 -1.341951 0.397805 -1.5 0 -1.5 
C -0.397805 -1.5 -0.77937 -1.341951 -1.06066 -1.06066 
C -1.341951 -0.77937 -1.5 -0.397805 -1.5 0 
C -1.5 0.397805 -1.341951 0.77937 -1.06066 1.06066 
C -0.77937 1.341951 -0.397805 1.5 0 1.5 
z
" style="stroke: #d62728"/>
    </defs>
    <g clip-path="url(#p4c75daa913)">
     <use xlink:href="#m941512fc49" x="61.410937" y="318.483755" style="fill: #d62728; stroke: #d62728"/>
     <use xlink:href="#m941512fc49" x="91.737552" y="318.297783" style="fill: #d62728; stroke: #d62728"/>
     <use xlink:href="#m941512fc49" x="113.254627" y="316.954344" style="fill: #d62728; stroke: #d62728"/>
     <use xlink:href="#m941512fc49" x="129.944567" y="262.156474" style="fill: #d62728; stroke: #d62728"/>
     <use xlink:href="#m941512fc49" x="143.581241" y="225.456167" style="fill: #d62728; stroke: #d62728"/>
     <use xlink:href="#m941512fc49" x="165.098316" y="179.471145" style="fill: #d62728; stroke: #d62728"/>
     <use xlink:href="#m941512fc49" x="195.424931" y="133.355664" style="fill: #d62728; stroke: #d62728"/>
     <use xlink:href="#m941512fc49" x="216.942006" y="110.270167" style="fill: #d62728; stroke: #d62728"/>
     <use xlink:href="#m941512fc49" x="247.26862" y="87.112501" style="fill: #d62728; stroke: #d62728"/>
     <use xlink:href="#m941512fc49" x="268.785695" y="75.657187" style="fill: #d62728; stroke: #d62728"/>
     <use xlink:href="#m941512fc49" x="299.112309" y="64.13248" style="fill: #d62728; stroke: #d62728"/>
     <use xlink:href="#m941512fc49" x="320.629385" y="58.336819" style="fill: #d62728; stroke: #d62728"/>
     <use xlink:href="#m941512fc49" x="350.955999" y="52.593895" style="fill: #d62728; stroke: #d62728"/>
     <use xlink:href="#m941512fc49" x="372.473074" y="49.676634" style="fill: #d62728; stroke: #d62728"/>
     <use xlink:href="#m941512fc49" x="402.799688" y="46.778804" style="fill: #d62728; stroke: #d62728"/>
     <use xlink:href="#m941512fc49" x="424.316763" y="45.360421" style="fill: #d62728; stroke: #d62728"/>
    </g>
   </g>
   <g id="line2d_34">
    <path d="M 60.982593 318.56425 
L 112.826283 318.56425 
L 113.329952 317.125502 
L 117.716562 301.396506 
L 121.860094 287.362851 
L 126.209844 273.443721 
L 130.320474 261.013268 
L 134.595617 248.789989 
L 138.99657 236.915946 
L 143.152897 226.325584 
L 147.40932 216.073212 
L 151.737489 206.229415 
L 156.112692 196.841053 
L 160.513645 187.935521 
L 164.922231 179.524741 
L 169.323184 171.608712 
L 173.703783 164.178548 
L 178.26452 156.891589 
L 182.761727 150.128349 
L 187.37777 143.596632 
L 191.901194 137.575365 
L 196.497532 131.818875 
L 201.138688 126.354322 
L 205.946424 121.040076 
L 210.737171 116.073729 
L 215.623995 111.325112 
L 220.570898 106.823936 
L 225.659357 102.49433 
L 230.84201 98.37717 
L 236.175965 94.427436 
L 241.607749 90.684531 
L 247.176432 87.119309 
L 252.904749 83.718603 
L 258.801843 80.479424 
L 264.86587 77.404472 
L 271.147362 74.471509 
L 277.614763 71.698392 
L 284.336407 69.059427 
L 291.344408 66.549249 
L 298.641839 64.173714 
L 306.247842 61.932442 
L 314.253747 59.807028 
L 322.655581 57.808122 
L 331.522833 55.928385 
L 340.924278 54.164397 
L 350.926672 52.515823 
L 361.622865 50.980545 
L 373.111003 49.558682 
L 385.533859 48.248045 
L 399.056161 47.048329 
L 413.882937 45.959675 
L 424.321465 45.312871 
L 424.321465 45.312871 
" clip-path="url(#p4c75daa913)" style="fill: none; stroke: #d62728; stroke-width: 1.5; stroke-linecap: square"/>
   </g>
   <g id="line2d_35">
    <path d="M 113.254627 318.56425 
L 113.254627 31.43625 
" clip-path="url(#p4c75daa913)" style="fill: none; stroke: #ff0000; stroke-width: 1.5; stroke-linecap: square"/>
   </g>
   <g id="line2d_36">
    <path d="M 268.785695 318.56425 
L 268.785695 31.43625 
" clip-path="url(#p4c75daa913)" style="fill: none; stroke: #008000; stroke-width: 1.5; stroke-linecap: square"/>
   </g>
   <g id="patch_3">
    <path d="M 61.410938 318.56425 
L 61.410938 31.43625 
" style="fill: none; stroke: #000000; stroke-width: 0.8; stroke-linejoin: miter; stroke-linecap: square"/>
   </g>
   <g id="patch_4">
    <path d="M 424.316763 318.56425 
L 424.316763 31.43625 
" style="fill: none; stroke: #000000; stroke-width: 0.8; stroke-linejoin: miter; stroke-linecap: square"/>
   </g>
   <g id="patch_5">
    <path d="M 61.410937 318.56425 
L 424.316763 318.56425 
" style="fill: none; stroke: #000000; stroke-width: 0.8; stroke-linejoin: miter; stroke-linecap: square"/>
   </g>
   <g id="patch_6">
    <path d="M 61.410937 31.43625 
L 424.316763 31.43625 
" style="fill: none; stroke: #000000; stroke-width: 0.8; stroke-linejoin: miter; stroke-linecap: square"/>
   </g>
   <g id="text_11">
    <!-- TLB_L1=127.496(48) -->
    <g style="fill: #1f77b4" transform="translate(146.634507 235.293248)scale(0.1 -0.1)">
     <defs>
      <path id="DejaVuSans-54" d="M -19 4666 
L 3928 4666 
L 3928 4134 
L 2272 4134 
L 2272 0 
L 1638 0 
L 1638 4134 
L -19 4134 
L -19 4666 
z
" transform="scale(0.015625)"/>
      <path id="DejaVuSans-4c" d="M 628 4666 
L 1259 4666 
L 1259 531 
L 3531 531 
L 3531 0 
L 628 0 
L 628 4666 
z
" transform="scale(0.015625)"/>
      <path id="DejaVuSans-42" d="M 1259 2228 
L 1259 519 
L 2272 519 
Q 2781 519 3026 730 
Q 3272 941 3272 1375 
Q 3272 1813 3026 2020 
Q 2781 2228 2272 2228 
L 1259 2228 
z
M 1259 4147 
L 1259 2741 
L 2194 2741 
Q 2656 2741 2882 2914 
Q 3109 3088 3109 3444 
Q 3109 3797 2882 3972 
Q 2656 4147 2194 4147 
L 1259 4147 
z
M 628 4666 
L 2241 4666 
Q 2963 4666 3353 4366 
Q 3744 4066 3744 3513 
Q 3744 3084 3544 2831 
Q 3344 2578 2956 2516 
Q 3422 2416 3680 2098 
Q 3938 1781 3938 1306 
Q 3938 681 3513 340 
Q 3088 0 2303 0 
L 628 0 
L 628 4666 
z
" transform="scale(0.015625)"/>
      <path id="DejaVuSans-5f" d="M 3263 -1063 
L 3263 -1509 
L -63 -1509 
L -63 -1063 
L 3263 -1063 
z
" transform="scale(0.015625)"/>
      <path id="DejaVuSans-3d" d="M 678 2906 
L 4684 2906 
L 4684 2381 
L 678 2381 
L 678 2906 
z
M 678 1631 
L 4684 1631 
L 4684 1100 
L 678 1100 
L 678 1631 
z
" transform="scale(0.015625)"/>
      <path id="DejaVuSans-37" d="M 525 4666 
L 3525 4666 
L 3525 4397 
L 1831 0 
L 1172 0 
L 2766 4134 
L 525 4134 
L 525 4666 
z
" transform="scale(0.015625)"/>
      <path id="DejaVuSans-39" d="M 703 97 
L 703 672 
Q 941 559 1184 500 
Q 1428 441 1663 441 
Q 2288 441 2617 861 
Q 2947 1281 2994 2138 
Q 2813 1869 2534 1725 
Q 2256 1581 1919 1581 
Q 1219 1581 811 2004 
Q 403 2428 403 3163 
Q 403 3881 828 4315 
Q 1253 4750 1959 4750 
Q 2769 4750 3195 4129 
Q 3622 3509 3622 2328 
Q 3622 1225 3098 567 
Q 2575 -91 1691 -91 
Q 1453 -91 1209 -44 
Q 966 3 703 97 
z
M 1959 2075 
Q 2384 2075 2632 2365 
Q 2881 2656 2881 3163 
Q 2881 3666 2632 3958 
Q 2384 4250 1959 4250 
Q 1534 4250 1286 3958 
Q 1038 3666 1038 3163 
Q 1038 2656 1286 2365 
Q 1534 2075 1959 2075 
z
" transform="scale(0.015625)"/>
      <path id="DejaVuSans-28" d="M 1984 4856 
Q 1566 4138 1362 3434 
Q 1159 2731 1159 2009 
Q 1159 1288 1364 580 
Q 1569 -128 1984 -844 
L 1484 -844 
Q 1016 -109 783 600 
Q 550 1309 550 2009 
Q 550 2706 781 3412 
Q 1013 4119 1484 4856 
L 1984 4856 
z
" transform="scale(0.015625)"/>
      <path id="DejaVuSans-29" d="M 513 4856 
L 1013 4856 
Q 1481 4119 1714 3412 
Q 1947 2706 1947 2009 
Q 1947 1309 1714 600 
Q 1481 -109 1013 -844 
L 513 -844 
Q 928 -128 1133 580 
Q 1338 1288 1338 2009 
Q 1338 2731 1133 3434 
Q 928 4138 513 4856 
z
" transform="scale(0.015625)"/>
     </defs>
     <use xlink:href="#DejaVuSans-54"/>
     <use xlink:href="#DejaVuSans-4c" x="61.083984"/>
     <use xlink:href="#DejaVuSans-42" x="116.796875"/>
     <use xlink:href="#DejaVuSans-5f" x="185.400391"/>
     <use xlink:href="#DejaVuSans-4c" x="235.400391"/>
     <use xlink:href="#DejaVuSans-31" x="291.113281"/>
     <use xlink:href="#DejaVuSans-3d" x="354.736328"/>
     <use xlink:href="#DejaVuSans-31" x="438.525391"/>
     <use xlink:href="#DejaVuSans-32" x="502.148438"/>
     <use xlink:href="#DejaVuSans-37" x="565.771484"/>
     <use xlink:href="#DejaVuSans-2e" x="629.394531"/>
     <use xlink:href="#DejaVuSans-34" x="661.181641"/>
     <use xlink:href="#DejaVuSans-39" x="724.804688"/>
     <use xlink:href="#DejaVuSans-36" x="788.427734"/>
     <use xlink:href="#DejaVuSans-28" x="852.050781"/>
     <use xlink:href="#DejaVuSans-34" x="891.064453"/>
     <use xlink:href="#DejaVuSans-38" x="954.6875"/>
     <use xlink:href="#DejaVuSans-29" x="1018.310547"/>
    </g>
   </g>
   <g id="text_12">
    <!-- TLB_L1=127.465(53) -->
    <g style="fill: #d62728" transform="translate(146.634507 263.050249)scale(0.1 -0.1)">
     <defs>
      <path id="DejaVuSans-35" d="M 691 4666 
L 3169 4666 
L 3169 4134 
L 1269 4134 
L 1269 2991 
Q 1406 3038 1543 3061 
Q 1681 3084 1819 3084 
Q 2600 3084 3056 2656 
Q 3513 2228 3513 1497 
Q 3513 744 3044 326 
Q 2575 -91 1722 -91 
Q 1428 -91 1123 -41 
Q 819 9 494 109 
L 494 744 
Q 775 591 1075 516 
Q 1375 441 1709 441 
Q 2250 441 2565 725 
Q 2881 1009 2881 1497 
Q 2881 1984 2565 2268 
Q 2250 2553 1709 2553 
Q 1456 2553 1204 2497 
Q 953 2441 691 2322 
L 691 4666 
z
" transform="scale(0.015625)"/>
     </defs>
     <use xlink:href="#DejaVuSans-54"/>
     <use xlink:href="#DejaVuSans-4c" x="61.083984"/>
     <use xlink:href="#DejaVuSans-42" x="116.796875"/>
     <use xlink:href="#DejaVuSans-5f" x="185.400391"/>
     <use xlink:href="#DejaVuSans-4c" x="235.400391"/>
     <use xlink:href="#DejaVuSans-31" x="291.113281"/>
     <use xlink:href="#DejaVuSans-3d" x="354.736328"/>
     <use xlink:href="#DejaVuSans-31" x="438.525391"/>
     <use xlink:href="#DejaVuSans-32" x="502.148438"/>
     <use xlink:href="#DejaVuSans-37" x="565.771484"/>
     <use xlink:href="#DejaVuSans-2e" x="629.394531"/>
     <use xlink:href="#DejaVuSans-34" x="661.181641"/>
     <use xlink:href="#DejaVuSans-36" x="724.804688"/>
     <use xlink:href="#DejaVuSans-35" x="788.427734"/>
     <use xlink:href="#DejaVuSans-28" x="852.050781"/>
     <use xlink:href="#DejaVuSans-35" x="891.064453"/>
     <use xlink:href="#DejaVuSans-33" x="954.6875"/>
     <use xlink:href="#DejaVuSans-29" x="1018.310547"/>
    </g>
   </g>
   <g id="text_13">
    <!-- TLB_L2=1019.95(40) -->
    <g style="fill: #ff7f0e" transform="translate(310.975115 263.050249)scale(0.1 -0.1)">
     <use xlink:href="#DejaVuSans-54"/>
     <use xlink:href="#DejaVuSans-4c" x="61.083984"/>
     <use xlink:href="#DejaVuSans-42" x="116.796875"/>
     <use xlink:href="#DejaVuSans-5f" x="185.400391"/>
     <use xlink:href="#DejaVuSans-4c" x="235.400391"/>
     <use xlink:href="#DejaVuSans-32" x="291.113281"/>
     <use xlink:href="#DejaVuSans-3d" x="354.736328"/>
     <use xlink:href="#DejaVuSans-31" x="438.525391"/>
     <use xlink:href="#DejaVuSans-30" x="502.148438"/>
     <use xlink:href="#DejaVuSans-31" x="565.771484"/>
     <use xlink:href="#DejaVuSans-39" x="629.394531"/>
     <use xlink:href="#DejaVuSans-2e" x="693.017578"/>
     <use xlink:href="#DejaVuSans-39" x="724.804688"/>
     <use xlink:href="#DejaVuSans-35" x="788.427734"/>
     <use xlink:href="#DejaVuSans-28" x="852.050781"/>
     <use xlink:href="#DejaVuSans-34" x="891.064453"/>
     <use xlink:href="#DejaVuSans-30" x="954.6875"/>
     <use xlink:href="#DejaVuSans-29" x="1018.310547"/>
    </g>
   </g>
   <g id="text_14">
    <!-- TLB_L2=1020.10(40) -->
    <g style="fill: #2ca02c" transform="translate(310.975115 235.293248)scale(0.1 -0.1)">
     <use xlink:href="#DejaVuSans-54"/>
     <use xlink:href="#DejaVuSans-4c" x="61.083984"/>
     <use xlink:href="#DejaVuSans-42" x="116.796875"/>
     <use xlink:href="#DejaVuSans-5f" x="185.400391"/>
     <use xlink:href="#DejaVuSans-4c" x="235.400391"/>
     <use xlink:href="#DejaVuSans-32" x="291.113281"/>
     <use xlink:href="#DejaVuSans-3d" x="354.736328"/>
     <use xlink:href="#DejaVuSans-31" x="438.525391"/>
     <use xlink:href="#DejaVuSans-30" x="502.148438"/>
     <use xlink:href="#DejaVuSans-32" x="565.771484"/>
     <use xlink:href="#DejaVuSans-30" x="629.394531"/>
     <use xlink:href="#DejaVuSans-2e" x="693.017578"/>
     <use xlink:href="#DejaVuSans-31" x="724.804688"/>
     <use xlink:href="#DejaVuSans-30" x="788.427734"/>
     <use xlink:href="#DejaVuSans-28" x="852.050781"/>
     <use xlink:href="#DejaVuSans-34" x="891.064453"/>
     <use xlink:href="#DejaVuSans-30" x="954.6875"/>
     <use xlink:href="#DejaVuSans-29" x="1018.310547"/>
    </g>
   </g>
   <g id="text_15">
    <!-- Ice Storm (Load) -->
    <g transform="translate(143.483225 25.43625)scale(0.24 -0.24)">
     <defs>
      <path id="DejaVuSans-49" d="M 628 4666 
L 1259 4666 
L 1259 0 
L 628 0 
L 628 4666 
z
" transform="scale(0.015625)"/>
      <path id="DejaVuSans-53" d="M 3425 4513 
L 3425 3897 
Q 3066 4069 2747 4153 
Q 2428 4238 2131 4238 
Q 1616 4238 1336 4038 
Q 1056 3838 1056 3469 
Q 1056 3159 1242 3001 
Q 1428 2844 1947 2747 
L 2328 2669 
Q 3034 2534 3370 2195 
Q 3706 1856 3706 1288 
Q 3706 609 3251 259 
Q 2797 -91 1919 -91 
Q 1588 -91 1214 -16 
Q 841 59 441 206 
L 441 856 
Q 825 641 1194 531 
Q 1563 422 1919 422 
Q 2459 422 2753 634 
Q 3047 847 3047 1241 
Q 3047 1584 2836 1778 
Q 2625 1972 2144 2069 
L 1759 2144 
Q 1053 2284 737 2584 
Q 422 2884 422 3419 
Q 422 4038 858 4394 
Q 1294 4750 2059 4750 
Q 2388 4750 2728 4690 
Q 3069 4631 3425 4513 
z
" transform="scale(0.015625)"/>
      <path id="DejaVuSans-6d" d="M 3328 2828 
Q 3544 3216 3844 3400 
Q 4144 3584 4550 3584 
Q 5097 3584 5394 3201 
Q 5691 2819 5691 2113 
L 5691 0 
L 5113 0 
L 5113 2094 
Q 5113 2597 4934 2840 
Q 4756 3084 4391 3084 
Q 3944 3084 3684 2787 
Q 3425 2491 3425 1978 
L 3425 0 
L 2847 0 
L 2847 2094 
Q 2847 2600 2669 2842 
Q 2491 3084 2119 3084 
Q 1678 3084 1418 2786 
Q 1159 2488 1159 1978 
L 1159 0 
L 581 0 
L 581 3500 
L 1159 3500 
L 1159 2956 
Q 1356 3278 1631 3431 
Q 1906 3584 2284 3584 
Q 2666 3584 2933 3390 
Q 3200 3197 3328 2828 
z
" transform="scale(0.015625)"/>
      <path id="DejaVuSans-64" d="M 2906 2969 
L 2906 4863 
L 3481 4863 
L 3481 0 
L 2906 0 
L 2906 525 
Q 2725 213 2448 61 
Q 2172 -91 1784 -91 
Q 1150 -91 751 415 
Q 353 922 353 1747 
Q 353 2572 751 3078 
Q 1150 3584 1784 3584 
Q 2172 3584 2448 3432 
Q 2725 3281 2906 2969 
z
M 947 1747 
Q 947 1113 1208 752 
Q 1469 391 1925 391 
Q 2381 391 2643 752 
Q 2906 1113 2906 1747 
Q 2906 2381 2643 2742 
Q 2381 3103 1925 3103 
Q 1469 3103 1208 2742 
Q 947 2381 947 1747 
z
" transform="scale(0.015625)"/>
     </defs>
     <use xlink:href="#DejaVuSans-49"/>
     <use xlink:href="#DejaVuSans-63" x="29.492188"/>
     <use xlink:href="#DejaVuSans-65" x="84.472656"/>
     <use xlink:href="#DejaVuSans-20" x="145.996094"/>
     <use xlink:href="#DejaVuSans-53" x="177.783203"/>
     <use xlink:href="#DejaVuSans-74" x="241.259766"/>
     <use xlink:href="#DejaVuSans-6f" x="280.46875"/>
     <use xlink:href="#DejaVuSans-72" x="341.650391"/>
     <use xlink:href="#DejaVuSans-6d" x="381.013672"/>
     <use xlink:href="#DejaVuSans-20" x="478.425781"/>
     <use xlink:href="#DejaVuSans-28" x="510.212891"/>
     <use xlink:href="#DejaVuSans-4c" x="549.226562"/>
     <use xlink:href="#DejaVuSans-6f" x="603.189453"/>
     <use xlink:href="#DejaVuSans-61" x="664.371094"/>
     <use xlink:href="#DejaVuSans-64" x="725.650391"/>
     <use xlink:href="#DejaVuSans-29" x="789.126953"/>
    </g>
   </g>
   <g id="legend_1">
    <g id="patch_7">
     <path d="M 67.010937 49.57875 
L 243.440938 49.57875 
Q 245.040938 49.57875 245.040938 47.97875 
L 245.040938 37.03625 
Q 245.040938 35.43625 243.440938 35.43625 
L 67.010937 35.43625 
Q 65.410938 35.43625 65.410938 37.03625 
L 65.410938 47.97875 
Q 65.410938 49.57875 67.010937 49.57875 
z
" style="fill: #ffffff; opacity: 0.8; stroke: #cccccc; stroke-linejoin: miter"/>
    </g>
    <g id="line2d_37">
     <g>
      <use xlink:href="#mb7e9aad44b" x="76.610938" y="41.915" style="fill: #1f77b4; stroke: #1f77b4"/>
     </g>
    </g>
    <g id="text_16">
     <!-- 5 -->
     <g transform="translate(91.010938 44.715)scale(0.08 -0.08)">
      <use xlink:href="#DejaVuSans-35"/>
     </g>
    </g>
    <g id="line2d_38">
     <g>
      <use xlink:href="#m2b06e4dde2" x="120.100938" y="41.915" style="fill: #ff7f0e; stroke: #ff7f0e"/>
     </g>
    </g>
    <g id="text_17">
     <!-- 8 -->
     <g transform="translate(134.500938 44.715)scale(0.08 -0.08)">
      <use xlink:href="#DejaVuSans-38"/>
     </g>
    </g>
    <g id="line2d_39">
     <g>
      <use xlink:href="#m4df8316420" x="163.590937" y="41.915" style="fill: #2ca02c; stroke: #2ca02c"/>
     </g>
    </g>
    <g id="text_18">
     <!-- 11 -->
     <g transform="translate(177.990938 44.715)scale(0.08 -0.08)">
      <use xlink:href="#DejaVuSans-31"/>
      <use xlink:href="#DejaVuSans-31" x="63.623047"/>
     </g>
    </g>
    <g id="line2d_40">
     <g>
      <use xlink:href="#m941512fc49" x="212.170938" y="41.915" style="fill: #d62728; stroke: #d62728"/>
     </g>
    </g>
    <g id="text_19">
     <!-- 193 -->
     <g transform="translate(226.570938 44.715)scale(0.08 -0.08)">
      <use xlink:href="#DejaVuSans-31"/>
      <use xlink:href="#DejaVuSans-39" x="63.623047"/>
      <use xlink:href="#DejaVuSans-33" x="127.246094"/>
     </g>
    </g>
   </g>
  </g>
  <g id="axes_2">
   <g id="patch_8">
    <path d="M 507.405937 318.56425 
L 870.311763 318.56425 
L 870.311763 31.43625 
L 507.405937 31.43625 
L 507.405937 318.56425 
z
" style="fill: none"/>
   </g>
   <g id="matplotlib.axis_3">
    <g id="xtick_21">
     <g id="line2d_41">
      <g>
       <use xlink:href="#md39032bed2" x="540.785818" y="318.56425" style="stroke: #000000; stroke-width: 0.8"/>
      </g>
     </g>
     <g id="text_20">
      <!-- $\mathdefault{10^{2}}$ -->
      <g transform="translate(527.585818 336.961906)scale(0.15 -0.15)">
       <use xlink:href="#DejaVuSans-31" transform="translate(0 0.765625)"/>
       <use xlink:href="#DejaVuSans-30" transform="translate(63.623047 0.765625)"/>
       <use xlink:href="#DejaVuSans-32" transform="translate(128.203125 39.046875)scale(0.7)"/>
      </g>
     </g>
    </g>
    <g id="xtick_22">
     <g id="line2d_42">
      <g>
       <use xlink:href="#md39032bed2" x="713.006826" y="318.56425" style="stroke: #000000; stroke-width: 0.8"/>
      </g>
     </g>
     <g id="text_21">
      <!-- $\mathdefault{10^{3}}$ -->
      <g transform="translate(699.806826 336.961906)scale(0.15 -0.15)">
       <use xlink:href="#DejaVuSans-31" transform="translate(0 0.765625)"/>
       <use xlink:href="#DejaVuSans-30" transform="translate(63.623047 0.765625)"/>
       <use xlink:href="#DejaVuSans-33" transform="translate(128.203125 39.046875)scale(0.7)"/>
      </g>
     </g>
    </g>
    <g id="xtick_23">
     <g id="line2d_43">
      <g>
       <use xlink:href="#m00e623f56d" x="514.108446" y="318.56425" style="stroke: #000000; stroke-width: 0.6"/>
      </g>
     </g>
    </g>
    <g id="xtick_24">
     <g id="line2d_44">
      <g>
       <use xlink:href="#m00e623f56d" x="524.095878" y="318.56425" style="stroke: #000000; stroke-width: 0.6"/>
      </g>
     </g>
    </g>
    <g id="xtick_25">
     <g id="line2d_45">
      <g>
       <use xlink:href="#m00e623f56d" x="532.905417" y="318.56425" style="stroke: #000000; stroke-width: 0.6"/>
      </g>
     </g>
    </g>
    <g id="xtick_26">
     <g id="line2d_46">
      <g>
       <use xlink:href="#m00e623f56d" x="592.629507" y="318.56425" style="stroke: #000000; stroke-width: 0.6"/>
      </g>
     </g>
    </g>
    <g id="xtick_27">
     <g id="line2d_47">
      <g>
       <use xlink:href="#m00e623f56d" x="622.956121" y="318.56425" style="stroke: #000000; stroke-width: 0.6"/>
      </g>
     </g>
    </g>
    <g id="xtick_28">
     <g id="line2d_48">
      <g>
       <use xlink:href="#m00e623f56d" x="644.473197" y="318.56425" style="stroke: #000000; stroke-width: 0.6"/>
      </g>
     </g>
    </g>
    <g id="xtick_29">
     <g id="line2d_49">
      <g>
       <use xlink:href="#m00e623f56d" x="661.163137" y="318.56425" style="stroke: #000000; stroke-width: 0.6"/>
      </g>
     </g>
    </g>
    <g id="xtick_30">
     <g id="line2d_50">
      <g>
       <use xlink:href="#m00e623f56d" x="674.799811" y="318.56425" style="stroke: #000000; stroke-width: 0.6"/>
      </g>
     </g>
    </g>
    <g id="xtick_31">
     <g id="line2d_51">
      <g>
       <use xlink:href="#m00e623f56d" x="686.329455" y="318.56425" style="stroke: #000000; stroke-width: 0.6"/>
      </g>
     </g>
    </g>
    <g id="xtick_32">
     <g id="line2d_52">
      <g>
       <use xlink:href="#m00e623f56d" x="696.316886" y="318.56425" style="stroke: #000000; stroke-width: 0.6"/>
      </g>
     </g>
    </g>
    <g id="xtick_33">
     <g id="line2d_53">
      <g>
       <use xlink:href="#m00e623f56d" x="705.126425" y="318.56425" style="stroke: #000000; stroke-width: 0.6"/>
      </g>
     </g>
    </g>
    <g id="xtick_34">
     <g id="line2d_54">
      <g>
       <use xlink:href="#m00e623f56d" x="764.850516" y="318.56425" style="stroke: #000000; stroke-width: 0.6"/>
      </g>
     </g>
    </g>
    <g id="xtick_35">
     <g id="line2d_55">
      <g>
       <use xlink:href="#m00e623f56d" x="795.17713" y="318.56425" style="stroke: #000000; stroke-width: 0.6"/>
      </g>
     </g>
    </g>
    <g id="xtick_36">
     <g id="line2d_56">
      <g>
       <use xlink:href="#m00e623f56d" x="816.694205" y="318.56425" style="stroke: #000000; stroke-width: 0.6"/>
      </g>
     </g>
    </g>
    <g id="xtick_37">
     <g id="line2d_57">
      <g>
       <use xlink:href="#m00e623f56d" x="833.384145" y="318.56425" style="stroke: #000000; stroke-width: 0.6"/>
      </g>
     </g>
    </g>
    <g id="xtick_38">
     <g id="line2d_58">
      <g>
       <use xlink:href="#m00e623f56d" x="847.020819" y="318.56425" style="stroke: #000000; stroke-width: 0.6"/>
      </g>
     </g>
    </g>
    <g id="xtick_39">
     <g id="line2d_59">
      <g>
       <use xlink:href="#m00e623f56d" x="858.550463" y="318.56425" style="stroke: #000000; stroke-width: 0.6"/>
      </g>
     </g>
    </g>
    <g id="xtick_40">
     <g id="line2d_60">
      <g>
       <use xlink:href="#m00e623f56d" x="868.537895" y="318.56425" style="stroke: #000000; stroke-width: 0.6"/>
      </g>
     </g>
    </g>
    <g id="text_22">
     <!-- Page Count -->
     <g transform="translate(631.774475 359.278312)scale(0.2 -0.2)">
      <use xlink:href="#DejaVuSans-50"/>
      <use xlink:href="#DejaVuSans-61" x="55.802734"/>
      <use xlink:href="#DejaVuSans-67" x="117.082031"/>
      <use xlink:href="#DejaVuSans-65" x="180.558594"/>
      <use xlink:href="#DejaVuSans-20" x="242.082031"/>
      <use xlink:href="#DejaVuSans-43" x="273.869141"/>
      <use xlink:href="#DejaVuSans-6f" x="343.693359"/>
      <use xlink:href="#DejaVuSans-75" x="404.875"/>
      <use xlink:href="#DejaVuSans-6e" x="468.253906"/>
      <use xlink:href="#DejaVuSans-74" x="531.632812"/>
     </g>
    </g>
   </g>
   <g id="matplotlib.axis_4">
    <g id="ytick_7">
     <g id="line2d_61">
      <g>
       <use xlink:href="#m6f3f5b6aff" x="507.405937" y="318.56425" style="stroke: #000000; stroke-width: 0.8"/>
      </g>
     </g>
     <g id="text_23">
      <!-- 0.0 -->
      <g transform="translate(476.55125 324.263078)scale(0.15 -0.15)">
       <use xlink:href="#DejaVuSans-30"/>
       <use xlink:href="#DejaVuSans-2e" x="63.623047"/>
       <use xlink:href="#DejaVuSans-30" x="95.410156"/>
      </g>
     </g>
    </g>
    <g id="ytick_8">
     <g id="line2d_62">
      <g>
       <use xlink:href="#m6f3f5b6aff" x="507.405937" y="262.891506" style="stroke: #000000; stroke-width: 0.8"/>
      </g>
     </g>
     <g id="text_24">
      <!-- 0.2 -->
      <g transform="translate(476.55125 268.590334)scale(0.15 -0.15)">
       <use xlink:href="#DejaVuSans-30"/>
       <use xlink:href="#DejaVuSans-2e" x="63.623047"/>
       <use xlink:href="#DejaVuSans-32" x="95.410156"/>
      </g>
     </g>
    </g>
    <g id="ytick_9">
     <g id="line2d_63">
      <g>
       <use xlink:href="#m6f3f5b6aff" x="507.405937" y="207.218763" style="stroke: #000000; stroke-width: 0.8"/>
      </g>
     </g>
     <g id="text_25">
      <!-- 0.4 -->
      <g transform="translate(476.55125 212.917591)scale(0.15 -0.15)">
       <use xlink:href="#DejaVuSans-30"/>
       <use xlink:href="#DejaVuSans-2e" x="63.623047"/>
       <use xlink:href="#DejaVuSans-34" x="95.410156"/>
      </g>
     </g>
    </g>
    <g id="ytick_10">
     <g id="line2d_64">
      <g>
       <use xlink:href="#m6f3f5b6aff" x="507.405937" y="151.546019" style="stroke: #000000; stroke-width: 0.8"/>
      </g>
     </g>
     <g id="text_26">
      <!-- 0.6 -->
      <g transform="translate(476.55125 157.244847)scale(0.15 -0.15)">
       <use xlink:href="#DejaVuSans-30"/>
       <use xlink:href="#DejaVuSans-2e" x="63.623047"/>
       <use xlink:href="#DejaVuSans-36" x="95.410156"/>
      </g>
     </g>
    </g>
    <g id="ytick_11">
     <g id="line2d_65">
      <g>
       <use xlink:href="#m6f3f5b6aff" x="507.405937" y="95.873275" style="stroke: #000000; stroke-width: 0.8"/>
      </g>
     </g>
     <g id="text_27">
      <!-- 0.8 -->
      <g transform="translate(476.55125 101.572103)scale(0.15 -0.15)">
       <use xlink:href="#DejaVuSans-30"/>
       <use xlink:href="#DejaVuSans-2e" x="63.623047"/>
       <use xlink:href="#DejaVuSans-38" x="95.410156"/>
      </g>
     </g>
    </g>
    <g id="ytick_12">
     <g id="line2d_66">
      <g>
       <use xlink:href="#m6f3f5b6aff" x="507.405937" y="40.200532" style="stroke: #000000; stroke-width: 0.8"/>
      </g>
     </g>
     <g id="text_28">
      <!-- 1.0 -->
      <g transform="translate(476.55125 45.89936)scale(0.15 -0.15)">
       <use xlink:href="#DejaVuSans-31"/>
       <use xlink:href="#DejaVuSans-2e" x="63.623047"/>
       <use xlink:href="#DejaVuSans-30" x="95.410156"/>
      </g>
     </g>
    </g>
    <g id="text_29">
     <!-- Count Difference -->
     <g transform="translate(468.391875 259.57525)rotate(-90)scale(0.2 -0.2)">
      <use xlink:href="#DejaVuSans-43"/>
      <use xlink:href="#DejaVuSans-6f" x="69.824219"/>
      <use xlink:href="#DejaVuSans-75" x="131.005859"/>
      <use xlink:href="#DejaVuSans-6e" x="194.384766"/>
      <use xlink:href="#DejaVuSans-74" x="257.763672"/>
      <use xlink:href="#DejaVuSans-20" x="296.972656"/>
      <use xlink:href="#DejaVuSans-44" x="328.759766"/>
      <use xlink:href="#DejaVuSans-69" x="405.761719"/>
      <use xlink:href="#DejaVuSans-66" x="433.544922"/>
      <use xlink:href="#DejaVuSans-66" x="468.75"/>
      <use xlink:href="#DejaVuSans-65" x="503.955078"/>
      <use xlink:href="#DejaVuSans-72" x="565.478516"/>
      <use xlink:href="#DejaVuSans-65" x="604.341797"/>
      <use xlink:href="#DejaVuSans-6e" x="665.865234"/>
      <use xlink:href="#DejaVuSans-63" x="729.244141"/>
      <use xlink:href="#DejaVuSans-65" x="784.224609"/>
     </g>
    </g>
   </g>
   <g id="line2d_67">
    <g clip-path="url(#p0839857afa)">
     <use xlink:href="#mb7e9aad44b" x="507.405937" y="318.550332" style="fill: #1f77b4; stroke: #1f77b4"/>
     <use xlink:href="#mb7e9aad44b" x="537.732552" y="318.530846" style="fill: #1f77b4; stroke: #1f77b4"/>
     <use xlink:href="#mb7e9aad44b" x="559.249627" y="318.494659" style="fill: #1f77b4; stroke: #1f77b4"/>
     <use xlink:href="#mb7e9aad44b" x="575.939567" y="317.642866" style="fill: #1f77b4; stroke: #1f77b4"/>
     <use xlink:href="#mb7e9aad44b" x="589.576241" y="271.693367" style="fill: #1f77b4; stroke: #1f77b4"/>
     <use xlink:href="#mb7e9aad44b" x="611.093316" y="214.010837" style="fill: #1f77b4; stroke: #1f77b4"/>
     <use xlink:href="#mb7e9aad44b" x="641.419931" y="156.29212" style="fill: #1f77b4; stroke: #1f77b4"/>
     <use xlink:href="#mb7e9aad44b" x="662.937006" y="127.205895" style="fill: #1f77b4; stroke: #1f77b4"/>
     <use xlink:href="#mb7e9aad44b" x="693.26362" y="98.192045" style="fill: #1f77b4; stroke: #1f77b4"/>
     <use xlink:href="#mb7e9aad44b" x="714.780695" y="83.641974" style="fill: #1f77b4; stroke: #1f77b4"/>
     <use xlink:href="#mb7e9aad44b" x="745.107309" y="69.250569" style="fill: #1f77b4; stroke: #1f77b4"/>
     <use xlink:href="#mb7e9aad44b" x="766.624385" y="61.754234" style="fill: #1f77b4; stroke: #1f77b4"/>
     <use xlink:href="#mb7e9aad44b" x="796.950999" y="54.731118" style="fill: #1f77b4; stroke: #1f77b4"/>
     <use xlink:href="#mb7e9aad44b" x="818.468074" y="50.789488" style="fill: #1f77b4; stroke: #1f77b4"/>
     <use xlink:href="#mb7e9aad44b" x="848.794688" y="46.761565" style="fill: #1f77b4; stroke: #1f77b4"/>
     <use xlink:href="#mb7e9aad44b" x="870.311763" y="45.110868" style="fill: #1f77b4; stroke: #1f77b4"/>
    </g>
   </g>
   <g id="line2d_68">
    <path d="M 506.977593 318.56425 
L 575.511223 318.56425 
L 575.914429 318.073452 
L 580.211909 302.557705 
L 584.275827 288.683047 
L 588.471018 275.129455 
L 592.765045 262.021833 
L 597.129304 249.448966 
L 601.252887 238.224912 
L 605.432445 227.462717 
L 609.647342 217.201775 
L 613.879782 207.463843 
L 618.114571 198.256688 
L 622.554725 189.146823 
L 626.94952 180.647171 
L 631.292381 172.72454 
L 635.759059 165.041989 
L 640.144526 157.932566 
L 644.608735 151.111182 
L 649.124246 144.613387 
L 653.66753 138.459777 
L 658.352335 132.494037 
L 663.012331 126.919262 
L 667.753139 121.59323 
L 672.543456 116.543756 
L 677.460302 111.686511 
L 682.461806 107.06258 
L 687.512362 102.696739 
L 692.666629 98.535027 
L 697.961873 94.547917 
L 703.34729 90.772316 
L 708.848337 87.186316 
L 714.541625 83.742539 
L 720.358551 80.484525 
L 726.3498 77.383527 
L 732.543237 74.428587 
L 738.947956 71.619597 
L 745.599784 68.946006 
L 752.508812 66.409641 
L 759.699541 64.00724 
L 767.231168 61.726714 
L 775.117799 59.572482 
L 783.414745 57.53846 
L 792.165716 55.624096 
L 801.432656 53.826781 
L 811.267108 52.147911 
L 821.767143 50.583088 
L 833.043078 49.130104 
L 845.205083 47.790012 
L 858.41955 46.560901 
L 870.316465 45.625572 
L 870.316465 45.625572 
" clip-path="url(#p0839857afa)" style="fill: none; stroke: #1f77b4; stroke-width: 1.5; stroke-linecap: square"/>
   </g>
   <g id="line2d_69">
    <g clip-path="url(#p0839857afa)">
     <use xlink:href="#m2b06e4dde2" x="507.405937" y="318.56425" style="fill: #ff7f0e; stroke: #ff7f0e"/>
     <use xlink:href="#m2b06e4dde2" x="537.732552" y="318.567034" style="fill: #ff7f0e; stroke: #ff7f0e"/>
     <use xlink:href="#m2b06e4dde2" x="559.249627" y="318.569817" style="fill: #ff7f0e; stroke: #ff7f0e"/>
     <use xlink:href="#m2b06e4dde2" x="575.939567" y="318.578168" style="fill: #ff7f0e; stroke: #ff7f0e"/>
     <use xlink:href="#m2b06e4dde2" x="589.576241" y="318.583735" style="fill: #ff7f0e; stroke: #ff7f0e"/>
     <use xlink:href="#m2b06e4dde2" x="611.093316" y="318.572601" style="fill: #ff7f0e; stroke: #ff7f0e"/>
     <use xlink:href="#m2b06e4dde2" x="641.419931" y="318.589303" style="fill: #ff7f0e; stroke: #ff7f0e"/>
     <use xlink:href="#m2b06e4dde2" x="662.937006" y="318.580952" style="fill: #ff7f0e; stroke: #ff7f0e"/>
     <use xlink:href="#m2b06e4dde2" x="693.26362" y="318.572601" style="fill: #ff7f0e; stroke: #ff7f0e"/>
     <use xlink:href="#m2b06e4dde2" x="714.780695" y="318.603221" style="fill: #ff7f0e; stroke: #ff7f0e"/>
     <use xlink:href="#m2b06e4dde2" x="745.107309" y="318.56425" style="fill: #ff7f0e; stroke: #ff7f0e"/>
     <use xlink:href="#m2b06e4dde2" x="766.624385" y="318.550332" style="fill: #ff7f0e; stroke: #ff7f0e"/>
     <use xlink:href="#m2b06e4dde2" x="796.950999" y="317.851639" style="fill: #ff7f0e; stroke: #ff7f0e"/>
     <use xlink:href="#m2b06e4dde2" x="818.468074" y="245.825027" style="fill: #ff7f0e; stroke: #ff7f0e"/>
     <use xlink:href="#m2b06e4dde2" x="848.794688" y="178.842365" style="fill: #ff7f0e; stroke: #ff7f0e"/>
     <use xlink:href="#m2b06e4dde2" x="870.311763" y="142.752509" style="fill: #ff7f0e; stroke: #ff7f0e"/>
    </g>
   </g>
   <g id="line2d_70">
    <path d="M 506.977593 318.56425 
L 796.417295 318.478604 
L 800.599833 303.344313 
L 804.78741 289.016343 
L 808.985001 275.437024 
L 813.195747 262.559694 
L 817.421261 250.345799 
L 821.661894 238.762656 
L 825.916972 227.781741 
L 830.185008 217.377398 
L 834.476558 207.497535 
L 838.786906 198.128903 
L 843.122525 189.234553 
L 847.476678 180.806276 
L 851.863018 172.797566 
L 856.272009 165.207158 
L 860.712737 158.001262 
L 865.190928 151.155154 
L 869.717411 144.639461 
L 870.316465 143.806318 
L 870.316465 143.806318 
" clip-path="url(#p0839857afa)" style="fill: none; stroke: #ff7f0e; stroke-width: 1.5; stroke-linecap: square"/>
   </g>
   <g id="line2d_71">
    <g clip-path="url(#p0839857afa)">
     <use xlink:href="#m4df8316420" x="507.405937" y="318.56425" style="fill: #2ca02c; stroke: #2ca02c"/>
     <use xlink:href="#m4df8316420" x="537.732552" y="318.567034" style="fill: #2ca02c; stroke: #2ca02c"/>
     <use xlink:href="#m4df8316420" x="559.249627" y="318.569817" style="fill: #2ca02c; stroke: #2ca02c"/>
     <use xlink:href="#m4df8316420" x="575.939567" y="318.575385" style="fill: #2ca02c; stroke: #2ca02c"/>
     <use xlink:href="#m4df8316420" x="589.576241" y="318.575385" style="fill: #2ca02c; stroke: #2ca02c"/>
     <use xlink:href="#m4df8316420" x="611.093316" y="318.580952" style="fill: #2ca02c; stroke: #2ca02c"/>
     <use xlink:href="#m4df8316420" x="641.419931" y="318.603221" style="fill: #2ca02c; stroke: #2ca02c"/>
     <use xlink:href="#m4df8316420" x="662.937006" y="318.580952" style="fill: #2ca02c; stroke: #2ca02c"/>
     <use xlink:href="#m4df8316420" x="693.26362" y="318.59487" style="fill: #2ca02c; stroke: #2ca02c"/>
     <use xlink:href="#m4df8316420" x="714.780695" y="318.589303" style="fill: #2ca02c; stroke: #2ca02c"/>
     <use xlink:href="#m4df8316420" x="745.107309" y="318.580952" style="fill: #2ca02c; stroke: #2ca02c"/>
     <use xlink:href="#m4df8316420" x="766.624385" y="318.580952" style="fill: #2ca02c; stroke: #2ca02c"/>
     <use xlink:href="#m4df8316420" x="796.950999" y="317.965768" style="fill: #2ca02c; stroke: #2ca02c"/>
     <use xlink:href="#m4df8316420" x="818.468074" y="245.346241" style="fill: #2ca02c; stroke: #2ca02c"/>
     <use xlink:href="#m4df8316420" x="848.794688" y="178.836798" style="fill: #2ca02c; stroke: #2ca02c"/>
     <use xlink:href="#m4df8316420" x="870.311763" y="142.925095" style="fill: #2ca02c; stroke: #2ca02c"/>
    </g>
   </g>
   <g id="line2d_72">
    <path d="M 506.977593 318.56425 
L 796.396205 318.462674 
L 800.579891 303.325214 
L 804.768554 288.994671 
L 808.967174 275.413299 
L 813.178896 262.534366 
L 817.405336 250.319262 
L 821.646846 238.735252 
L 825.902757 227.753765 
L 830.171581 217.349106 
L 834.463879 207.469146 
L 838.774938 198.100605 
L 843.099935 189.22901 
L 847.455366 180.798645 
L 851.832869 172.806036 
L 856.243587 165.212258 
L 860.685953 158.003488 
L 865.165701 151.154941 
L 869.685748 144.648246 
L 870.316465 143.771179 
L 870.316465 143.771179 
" clip-path="url(#p0839857afa)" style="fill: none; stroke: #2ca02c; stroke-width: 1.5; stroke-linecap: square"/>
   </g>
   <g id="line2d_73">
    <g clip-path="url(#p0839857afa)">
     <use xlink:href="#m941512fc49" x="507.405937" y="318.553115" style="fill: #d62728; stroke: #d62728"/>
     <use xlink:href="#m941512fc49" x="537.732552" y="318.53363" style="fill: #d62728; stroke: #d62728"/>
     <use xlink:href="#m941512fc49" x="559.249627" y="318.494659" style="fill: #d62728; stroke: #d62728"/>
     <use xlink:href="#m941512fc49" x="575.939567" y="317.612246" style="fill: #d62728; stroke: #d62728"/>
     <use xlink:href="#m941512fc49" x="589.576241" y="271.582022" style="fill: #d62728; stroke: #d62728"/>
     <use xlink:href="#m941512fc49" x="611.093316" y="213.827117" style="fill: #d62728; stroke: #d62728"/>
     <use xlink:href="#m941512fc49" x="641.419931" y="156.088915" style="fill: #d62728; stroke: #d62728"/>
     <use xlink:href="#m941512fc49" x="662.937006" y="127.072281" style="fill: #d62728; stroke: #d62728"/>
     <use xlink:href="#m941512fc49" x="693.26362" y="98.072349" style="fill: #d62728; stroke: #d62728"/>
     <use xlink:href="#m941512fc49" x="714.780695" y="83.661459" style="fill: #d62728; stroke: #d62728"/>
     <use xlink:href="#m941512fc49" x="745.107309" y="69.203247" style="fill: #d62728; stroke: #d62728"/>
     <use xlink:href="#m941512fc49" x="766.624385" y="61.932387" style="fill: #d62728; stroke: #d62728"/>
     <use xlink:href="#m941512fc49" x="796.950999" y="54.736685" style="fill: #d62728; stroke: #d62728"/>
     <use xlink:href="#m941512fc49" x="818.468074" y="51.056717" style="fill: #d62728; stroke: #d62728"/>
     <use xlink:href="#m941512fc49" x="848.794688" y="47.446339" style="fill: #d62728; stroke: #d62728"/>
     <use xlink:href="#m941512fc49" x="870.311763" y="45.642542" style="fill: #d62728; stroke: #d62728"/>
    </g>
   </g>
   <g id="line2d_74">
    <path d="M 506.977593 318.56425 
L 575.511223 318.56425 
L 575.914429 317.934992 
L 580.211909 302.426977 
L 584.275827 288.559232 
L 588.471018 275.012394 
L 592.765045 261.911303 
L 597.129304 249.344701 
L 601.252887 238.126239 
L 605.432445 227.369407 
L 609.647342 217.113579 
L 613.879782 207.380498 
L 618.114571 198.177931 
L 622.554725 189.072606 
L 626.94952 180.577188 
L 631.292381 172.658505 
L 635.759059 164.979782 
L 640.144526 157.873902 
L 644.608735 151.055917 
L 649.124246 144.561359 
L 653.66753 138.410816 
L 658.352335 132.448049 
L 663.012331 126.876051 
L 667.753139 121.552673 
L 672.543456 116.505716 
L 677.460302 111.650891 
L 682.461806 107.029264 
L 687.512362 102.665598 
L 692.666629 98.50596 
L 697.961873 94.520836 
L 703.34729 90.747117 
L 708.848337 87.162904 
L 714.541625 83.720843 
L 720.358551 80.464452 
L 726.3498 77.364999 
L 732.543237 74.411531 
L 738.947956 71.603942 
L 745.599784 68.931683 
L 752.508812 66.396581 
L 759.699541 63.995377 
L 767.231168 61.715988 
L 775.117799 59.562829 
L 783.414745 57.52982 
L 792.165716 55.61641 
L 801.432656 53.819991 
L 811.284395 52.139198 
L 821.797187 50.573746 
L 833.068918 49.122571 
L 845.238024 47.78289 
L 858.456358 46.554604 
L 870.316465 45.622869 
L 870.316465 45.622869 
" clip-path="url(#p0839857afa)" style="fill: none; stroke: #d62728; stroke-width: 1.5; stroke-linecap: square"/>
   </g>
   <g id="line2d_75">
    <path d="M 575.939567 318.56425 
L 575.939567 31.43625 
" clip-path="url(#p0839857afa)" style="fill: none; stroke: #ff0000; stroke-width: 1.5; stroke-linecap: square"/>
   </g>
   <g id="line2d_76">
    <path d="M 796.950999 318.56425 
L 796.950999 31.43625 
" clip-path="url(#p0839857afa)" style="fill: none; stroke: #008000; stroke-width: 1.5; stroke-linecap: square"/>
   </g>
   <g id="patch_9">
    <path d="M 507.405937 318.56425 
L 507.405937 31.43625 
" style="fill: none; stroke: #000000; stroke-width: 0.8; stroke-linejoin: miter; stroke-linecap: square"/>
   </g>
   <g id="patch_10">
    <path d="M 870.311763 318.56425 
L 870.311763 31.43625 
" style="fill: none; stroke: #000000; stroke-width: 0.8; stroke-linejoin: miter; stroke-linecap: square"/>
   </g>
   <g id="patch_11">
    <path d="M 507.405937 318.56425 
L 870.311763 318.56425 
" style="fill: none; stroke: #000000; stroke-width: 0.8; stroke-linejoin: miter; stroke-linecap: square"/>
   </g>
   <g id="patch_12">
    <path d="M 507.405937 31.43625 
L 870.311763 31.43625 
" style="fill: none; stroke: #000000; stroke-width: 0.8; stroke-linejoin: miter; stroke-linecap: square"/>
   </g>
   <g id="text_30">
    <!-- TLB_L1=159.66(10) -->
    <g style="fill: #1f77b4" transform="translate(592.629507 235.055135)scale(0.1 -0.1)">
     <use xlink:href="#DejaVuSans-54"/>
     <use xlink:href="#DejaVuSans-4c" x="61.083984"/>
     <use xlink:href="#DejaVuSans-42" x="116.796875"/>
     <use xlink:href="#DejaVuSans-5f" x="185.400391"/>
     <use xlink:href="#DejaVuSans-4c" x="235.400391"/>
     <use xlink:href="#DejaVuSans-31" x="291.113281"/>
     <use xlink:href="#DejaVuSans-3d" x="354.736328"/>
     <use xlink:href="#DejaVuSans-31" x="438.525391"/>
     <use xlink:href="#DejaVuSans-35" x="502.148438"/>
     <use xlink:href="#DejaVuSans-39" x="565.771484"/>
     <use xlink:href="#DejaVuSans-2e" x="629.394531"/>
     <use xlink:href="#DejaVuSans-36" x="661.181641"/>
     <use xlink:href="#DejaVuSans-36" x="724.804688"/>
     <use xlink:href="#DejaVuSans-28" x="788.427734"/>
     <use xlink:href="#DejaVuSans-31" x="827.441406"/>
     <use xlink:href="#DejaVuSans-30" x="891.064453"/>
     <use xlink:href="#DejaVuSans-29" x="954.6875"/>
    </g>
   </g>
   <g id="text_31">
    <!-- TLB_L1=159.585(36) -->
    <g style="fill: #d62728" transform="translate(592.629507 262.891506)scale(0.1 -0.1)">
     <use xlink:href="#DejaVuSans-54"/>
     <use xlink:href="#DejaVuSans-4c" x="61.083984"/>
     <use xlink:href="#DejaVuSans-42" x="116.796875"/>
     <use xlink:href="#DejaVuSans-5f" x="185.400391"/>
     <use xlink:href="#DejaVuSans-4c" x="235.400391"/>
     <use xlink:href="#DejaVuSans-31" x="291.113281"/>
     <use xlink:href="#DejaVuSans-3d" x="354.736328"/>
     <use xlink:href="#DejaVuSans-31" x="438.525391"/>
     <use xlink:href="#DejaVuSans-35" x="502.148438"/>
     <use xlink:href="#DejaVuSans-39" x="565.771484"/>
     <use xlink:href="#DejaVuSans-2e" x="629.394531"/>
     <use xlink:href="#DejaVuSans-35" x="661.181641"/>
     <use xlink:href="#DejaVuSans-38" x="724.804688"/>
     <use xlink:href="#DejaVuSans-35" x="788.427734"/>
     <use xlink:href="#DejaVuSans-28" x="852.050781"/>
     <use xlink:href="#DejaVuSans-33" x="891.064453"/>
     <use xlink:href="#DejaVuSans-36" x="954.6875"/>
     <use xlink:href="#DejaVuSans-29" x="1018.310547"/>
    </g>
   </g>
   <g id="text_32">
    <!-- TLB_L2=3049.2(48) -->
    <g style="fill: #ff7f0e" transform="translate(756.970115 262.891506)scale(0.1 -0.1)">
     <use xlink:href="#DejaVuSans-54"/>
     <use xlink:href="#DejaVuSans-4c" x="61.083984"/>
     <use xlink:href="#DejaVuSans-42" x="116.796875"/>
     <use xlink:href="#DejaVuSans-5f" x="185.400391"/>
     <use xlink:href="#DejaVuSans-4c" x="235.400391"/>
     <use xlink:href="#DejaVuSans-32" x="291.113281"/>
     <use xlink:href="#DejaVuSans-3d" x="354.736328"/>
     <use xlink:href="#DejaVuSans-33" x="438.525391"/>
     <use xlink:href="#DejaVuSans-30" x="502.148438"/>
     <use xlink:href="#DejaVuSans-34" x="565.771484"/>
     <use xlink:href="#DejaVuSans-39" x="629.394531"/>
     <use xlink:href="#DejaVuSans-2e" x="693.017578"/>
     <use xlink:href="#DejaVuSans-32" x="724.804688"/>
     <use xlink:href="#DejaVuSans-28" x="788.427734"/>
     <use xlink:href="#DejaVuSans-34" x="827.441406"/>
     <use xlink:href="#DejaVuSans-38" x="891.064453"/>
     <use xlink:href="#DejaVuSans-29" x="954.6875"/>
    </g>
   </g>
   <g id="text_33">
    <!-- TLB_L2=3048.2(55) -->
    <g style="fill: #2ca02c" transform="translate(756.970115 235.055135)scale(0.1 -0.1)">
     <use xlink:href="#DejaVuSans-54"/>
     <use xlink:href="#DejaVuSans-4c" x="61.083984"/>
     <use xlink:href="#DejaVuSans-42" x="116.796875"/>
     <use xlink:href="#DejaVuSans-5f" x="185.400391"/>
     <use xlink:href="#DejaVuSans-4c" x="235.400391"/>
     <use xlink:href="#DejaVuSans-32" x="291.113281"/>
     <use xlink:href="#DejaVuSans-3d" x="354.736328"/>
     <use xlink:href="#DejaVuSans-33" x="438.525391"/>
     <use xlink:href="#DejaVuSans-30" x="502.148438"/>
     <use xlink:href="#DejaVuSans-34" x="565.771484"/>
     <use xlink:href="#DejaVuSans-38" x="629.394531"/>
     <use xlink:href="#DejaVuSans-2e" x="693.017578"/>
     <use xlink:href="#DejaVuSans-32" x="724.804688"/>
     <use xlink:href="#DejaVuSans-28" x="788.427734"/>
     <use xlink:href="#DejaVuSans-35" x="827.441406"/>
     <use xlink:href="#DejaVuSans-35" x="891.064453"/>
     <use xlink:href="#DejaVuSans-29" x="954.6875"/>
    </g>
   </g>
   <g id="text_34">
    <!-- Fire Storm (Load) -->
    <g transform="translate(585.5876 25.43625)scale(0.24 -0.24)">
     <defs>
      <path id="DejaVuSans-46" d="M 628 4666 
L 3309 4666 
L 3309 4134 
L 1259 4134 
L 1259 2759 
L 3109 2759 
L 3109 2228 
L 1259 2228 
L 1259 0 
L 628 0 
L 628 4666 
z
" transform="scale(0.015625)"/>
     </defs>
     <use xlink:href="#DejaVuSans-46"/>
     <use xlink:href="#DejaVuSans-69" x="50.269531"/>
     <use xlink:href="#DejaVuSans-72" x="78.052734"/>
     <use xlink:href="#DejaVuSans-65" x="116.916016"/>
     <use xlink:href="#DejaVuSans-20" x="178.439453"/>
     <use xlink:href="#DejaVuSans-53" x="210.226562"/>
     <use xlink:href="#DejaVuSans-74" x="273.703125"/>
     <use xlink:href="#DejaVuSans-6f" x="312.912109"/>
     <use xlink:href="#DejaVuSans-72" x="374.09375"/>
     <use xlink:href="#DejaVuSans-6d" x="413.457031"/>
     <use xlink:href="#DejaVuSans-20" x="510.869141"/>
     <use xlink:href="#DejaVuSans-28" x="542.65625"/>
     <use xlink:href="#DejaVuSans-4c" x="581.669922"/>
     <use xlink:href="#DejaVuSans-6f" x="635.632812"/>
     <use xlink:href="#DejaVuSans-61" x="696.814453"/>
     <use xlink:href="#DejaVuSans-64" x="758.09375"/>
     <use xlink:href="#DejaVuSans-29" x="821.570312"/>
    </g>
   </g>
   <g id="legend_2">
    <g id="patch_13">
     <path d="M 600.64385 314.56425 
L 777.07385 314.56425 
Q 778.67385 314.56425 778.67385 312.96425 
L 778.67385 302.02175 
Q 778.67385 300.42175 777.07385 300.42175 
L 600.64385 300.42175 
Q 599.04385 300.42175 599.04385 302.02175 
L 599.04385 312.96425 
Q 599.04385 314.56425 600.64385 314.56425 
z
" style="fill: #ffffff; opacity: 0.8; stroke: #cccccc; stroke-linejoin: miter"/>
    </g>
    <g id="line2d_77">
     <g>
      <use xlink:href="#mb7e9aad44b" x="610.24385" y="306.9005" style="fill: #1f77b4; stroke: #1f77b4"/>
     </g>
    </g>
    <g id="text_35">
     <!-- 5 -->
     <g transform="translate(624.64385 309.7005)scale(0.08 -0.08)">
      <use xlink:href="#DejaVuSans-35"/>
     </g>
    </g>
    <g id="line2d_78">
     <g>
      <use xlink:href="#m2b06e4dde2" x="653.73385" y="306.9005" style="fill: #ff7f0e; stroke: #ff7f0e"/>
     </g>
    </g>
    <g id="text_36">
     <!-- 8 -->
     <g transform="translate(668.13385 309.7005)scale(0.08 -0.08)">
      <use xlink:href="#DejaVuSans-38"/>
     </g>
    </g>
    <g id="line2d_79">
     <g>
      <use xlink:href="#m4df8316420" x="697.22385" y="306.9005" style="fill: #2ca02c; stroke: #2ca02c"/>
     </g>
    </g>
    <g id="text_37">
     <!-- 11 -->
     <g transform="translate(711.62385 309.7005)scale(0.08 -0.08)">
      <use xlink:href="#DejaVuSans-31"/>
      <use xlink:href="#DejaVuSans-31" x="63.623047"/>
     </g>
    </g>
    <g id="line2d_80">
     <g>
      <use xlink:href="#m941512fc49" x="745.80385" y="306.9005" style="fill: #d62728; stroke: #d62728"/>
     </g>
    </g>
    <g id="text_38">
     <!-- 193 -->
     <g transform="translate(760.20385 309.7005)scale(0.08 -0.08)">
      <use xlink:href="#DejaVuSans-31"/>
      <use xlink:href="#DejaVuSans-39" x="63.623047"/>
      <use xlink:href="#DejaVuSans-33" x="127.246094"/>
     </g>
    </g>
   </g>
  </g>
 </g>
 <defs>
  <clipPath id="p4c75daa913">
   <rect x="61.410938" y="31.43625" width="362.905826" height="287.128"/>
  </clipPath>
  <clipPath id="p0839857afa">
   <rect x="507.405937" y="31.43625" width="362.905826" height="287.128"/>
  </clipPath>
 </defs>
</svg>
