<?xml version="1.0" encoding="utf-8" standalone="no"?>
<!DOCTYPE svg PUBLIC "-//W3C//DTD SVG 1.1//EN"
  "http://www.w3.org/Graphics/SVG/1.1/DTD/svg11.dtd">
<svg xmlns:xlink="http://www.w3.org/1999/xlink" width="877.6pt" height="370.637687pt" viewBox="0 0 877.6 370.637687" xmlns="http://www.w3.org/2000/svg" version="1.1">
 <defs>
  <style type="text/css">*{stroke-linejoin: round; stroke-linecap: butt}</style>
 </defs>
 <g id="figure_1">
  <g id="patch_1">
   <path d="M 0 370.637687 
L 877.6 370.637687 
L 877.6 0 
L 0 0 
L 0 370.637687 
z
" style="fill: none"/>
  </g>
  <g id="axes_1">
   <g id="patch_2">
    <path d="M 47.1 318.56425 
L 418.06 318.56425 
L 418.06 31.43625 
L 47.1 31.43625 
L 47.1 318.56425 
z
" style="fill: none"/>
   </g>
   <g id="matplotlib.axis_1">
    <g id="xtick_1">
     <g id="line2d_1">
      <defs>
       <path id="md39032bed2" d="M 0 0 
L 0 3.5 
" style="stroke: #000000; stroke-width: 0.8"/>
      </defs>
      <g>
       <use xlink:href="#md39032bed2" x="81.220699" y="318.56425" style="stroke: #000000; stroke-width: 0.8"/>
      </g>
     </g>
     <g id="text_1">
      <!-- $\mathdefault{10^{2}}$ -->
      <g transform="translate(68.020699 336.961906)scale(0.15 -0.15)">
       <defs>
        <path id="DejaVuSans-31" d="M 794 531 
L 1825 531 
L 1825 4091 
L 703 3866 
L 703 4441 
L 1819 4666 
L 2450 4666 
L 2450 531 
L 3481 531 
L 3481 0 
L 794 0 
L 794 531 
z
" transform="scale(0.015625)"/>
        <path id="DejaVuSans-30" d="M 2034 4250 
Q 1547 4250 1301 3770 
Q 1056 3291 1056 2328 
Q 1056 1369 1301 889 
Q 1547 409 2034 409 
Q 2525 409 2770 889 
Q 3016 1369 3016 2328 
Q 3016 3291 2770 3770 
Q 2525 4250 2034 4250 
z
M 2034 4750 
Q 2819 4750 3233 4129 
Q 3647 3509 3647 2328 
Q 3647 1150 3233 529 
Q 2819 -91 2034 -91 
Q 1250 -91 836 529 
Q 422 1150 422 2328 
Q 422 3509 836 4129 
Q 1250 4750 2034 4750 
z
" transform="scale(0.015625)"/>
        <path id="DejaVuSans-32" d="M 1228 531 
L 3431 531 
L 3431 0 
L 469 0 
L 469 531 
Q 828 903 1448 1529 
Q 2069 2156 2228 2338 
Q 2531 2678 2651 2914 
Q 2772 3150 2772 3378 
Q 2772 3750 2511 3984 
Q 2250 4219 1831 4219 
Q 1534 4219 1204 4116 
Q 875 4013 500 3803 
L 500 4441 
Q 881 4594 1212 4672 
Q 1544 4750 1819 4750 
Q 2544 4750 2975 4387 
Q 3406 4025 3406 3419 
Q 3406 3131 3298 2873 
Q 3191 2616 2906 2266 
Q 2828 2175 2409 1742 
Q 1991 1309 1228 531 
z
" transform="scale(0.015625)"/>
       </defs>
       <use xlink:href="#DejaVuSans-31" transform="translate(0 0.765625)"/>
       <use xlink:href="#DejaVuSans-30" transform="translate(63.623047 0.765625)"/>
       <use xlink:href="#DejaVuSans-32" transform="translate(128.203125 39.046875)scale(0.7)"/>
      </g>
     </g>
    </g>
    <g id="xtick_2">
     <g id="line2d_2">
      <g>
       <use xlink:href="#md39032bed2" x="257.263905" y="318.56425" style="stroke: #000000; stroke-width: 0.8"/>
      </g>
     </g>
     <g id="text_2">
      <!-- $\mathdefault{10^{3}}$ -->
      <g transform="translate(244.063905 336.961906)scale(0.15 -0.15)">
       <defs>
        <path id="DejaVuSans-33" d="M 2597 2516 
Q 3050 2419 3304 2112 
Q 3559 1806 3559 1356 
Q 3559 666 3084 287 
Q 2609 -91 1734 -91 
Q 1441 -91 1130 -33 
Q 819 25 488 141 
L 488 750 
Q 750 597 1062 519 
Q 1375 441 1716 441 
Q 2309 441 2620 675 
Q 2931 909 2931 1356 
Q 2931 1769 2642 2001 
Q 2353 2234 1838 2234 
L 1294 2234 
L 1294 2753 
L 1863 2753 
Q 2328 2753 2575 2939 
Q 2822 3125 2822 3475 
Q 2822 3834 2567 4026 
Q 2313 4219 1838 4219 
Q 1578 4219 1281 4162 
Q 984 4106 628 3988 
L 628 4550 
Q 988 4650 1302 4700 
Q 1616 4750 1894 4750 
Q 2613 4750 3031 4423 
Q 3450 4097 3450 3541 
Q 3450 3153 3228 2886 
Q 3006 2619 2597 2516 
z
" transform="scale(0.015625)"/>
       </defs>
       <use xlink:href="#DejaVuSans-31" transform="translate(0 0.765625)"/>
       <use xlink:href="#DejaVuSans-30" transform="translate(63.623047 0.765625)"/>
       <use xlink:href="#DejaVuSans-33" transform="translate(128.203125 39.046875)scale(0.7)"/>
      </g>
     </g>
    </g>
    <g id="xtick_3">
     <g id="line2d_3">
      <defs>
       <path id="m00e623f56d" d="M 0 0 
L 0 2 
" style="stroke: #000000; stroke-width: 0.6"/>
      </defs>
      <g>
       <use xlink:href="#m00e623f56d" x="53.951261" y="318.56425" style="stroke: #000000; stroke-width: 0.6"/>
      </g>
     </g>
    </g>
    <g id="xtick_4">
     <g id="line2d_4">
      <g>
       <use xlink:href="#m00e623f56d" x="64.160349" y="318.56425" style="stroke: #000000; stroke-width: 0.6"/>
      </g>
     </g>
    </g>
    <g id="xtick_5">
     <g id="line2d_5">
      <g>
       <use xlink:href="#m00e623f56d" x="73.165404" y="318.56425" style="stroke: #000000; stroke-width: 0.6"/>
      </g>
     </g>
    </g>
    <g id="xtick_6">
     <g id="line2d_6">
      <g>
       <use xlink:href="#m00e623f56d" x="134.214985" y="318.56425" style="stroke: #000000; stroke-width: 0.6"/>
      </g>
     </g>
    </g>
    <g id="xtick_7">
     <g id="line2d_7">
      <g>
       <use xlink:href="#m00e623f56d" x="165.214654" y="318.56425" style="stroke: #000000; stroke-width: 0.6"/>
      </g>
     </g>
    </g>
    <g id="xtick_8">
     <g id="line2d_8">
      <g>
       <use xlink:href="#m00e623f56d" x="187.20927" y="318.56425" style="stroke: #000000; stroke-width: 0.6"/>
      </g>
     </g>
    </g>
    <g id="xtick_9">
     <g id="line2d_9">
      <g>
       <use xlink:href="#m00e623f56d" x="204.26962" y="318.56425" style="stroke: #000000; stroke-width: 0.6"/>
      </g>
     </g>
    </g>
    <g id="xtick_10">
     <g id="line2d_10">
      <g>
       <use xlink:href="#m00e623f56d" x="218.20894" y="318.56425" style="stroke: #000000; stroke-width: 0.6"/>
      </g>
     </g>
    </g>
    <g id="xtick_11">
     <g id="line2d_11">
      <g>
       <use xlink:href="#m00e623f56d" x="229.994468" y="318.56425" style="stroke: #000000; stroke-width: 0.6"/>
      </g>
     </g>
    </g>
    <g id="xtick_12">
     <g id="line2d_12">
      <g>
       <use xlink:href="#m00e623f56d" x="240.203556" y="318.56425" style="stroke: #000000; stroke-width: 0.6"/>
      </g>
     </g>
    </g>
    <g id="xtick_13">
     <g id="line2d_13">
      <g>
       <use xlink:href="#m00e623f56d" x="249.20861" y="318.56425" style="stroke: #000000; stroke-width: 0.6"/>
      </g>
     </g>
    </g>
    <g id="xtick_14">
     <g id="line2d_14">
      <g>
       <use xlink:href="#m00e623f56d" x="310.258191" y="318.56425" style="stroke: #000000; stroke-width: 0.6"/>
      </g>
     </g>
    </g>
    <g id="xtick_15">
     <g id="line2d_15">
      <g>
       <use xlink:href="#m00e623f56d" x="341.257861" y="318.56425" style="stroke: #000000; stroke-width: 0.6"/>
      </g>
     </g>
    </g>
    <g id="xtick_16">
     <g id="line2d_16">
      <g>
       <use xlink:href="#m00e623f56d" x="363.252477" y="318.56425" style="stroke: #000000; stroke-width: 0.6"/>
      </g>
     </g>
    </g>
    <g id="xtick_17">
     <g id="line2d_17">
      <g>
       <use xlink:href="#m00e623f56d" x="380.312826" y="318.56425" style="stroke: #000000; stroke-width: 0.6"/>
      </g>
     </g>
    </g>
    <g id="xtick_18">
     <g id="line2d_18">
      <g>
       <use xlink:href="#m00e623f56d" x="394.252147" y="318.56425" style="stroke: #000000; stroke-width: 0.6"/>
      </g>
     </g>
    </g>
    <g id="xtick_19">
     <g id="line2d_19">
      <g>
       <use xlink:href="#m00e623f56d" x="406.037674" y="318.56425" style="stroke: #000000; stroke-width: 0.6"/>
      </g>
     </g>
    </g>
    <g id="xtick_20">
     <g id="line2d_20">
      <g>
       <use xlink:href="#m00e623f56d" x="416.246763" y="318.56425" style="stroke: #000000; stroke-width: 0.6"/>
      </g>
     </g>
    </g>
    <g id="text_3">
     <!-- Pages -->
     <g transform="translate(203.16125 359.278312)scale(0.2 -0.2)">
      <defs>
       <path id="DejaVuSans-50" d="M 1259 4147 
L 1259 2394 
L 2053 2394 
Q 2494 2394 2734 2622 
Q 2975 2850 2975 3272 
Q 2975 3691 2734 3919 
Q 2494 4147 2053 4147 
L 1259 4147 
z
M 628 4666 
L 2053 4666 
Q 2838 4666 3239 4311 
Q 3641 3956 3641 3272 
Q 3641 2581 3239 2228 
Q 2838 1875 2053 1875 
L 1259 1875 
L 1259 0 
L 628 0 
L 628 4666 
z
" transform="scale(0.015625)"/>
       <path id="DejaVuSans-61" d="M 2194 1759 
Q 1497 1759 1228 1600 
Q 959 1441 959 1056 
Q 959 750 1161 570 
Q 1363 391 1709 391 
Q 2188 391 2477 730 
Q 2766 1069 2766 1631 
L 2766 1759 
L 2194 1759 
z
M 3341 1997 
L 3341 0 
L 2766 0 
L 2766 531 
Q 2569 213 2275 61 
Q 1981 -91 1556 -91 
Q 1019 -91 701 211 
Q 384 513 384 1019 
Q 384 1609 779 1909 
Q 1175 2209 1959 2209 
L 2766 2209 
L 2766 2266 
Q 2766 2663 2505 2880 
Q 2244 3097 1772 3097 
Q 1472 3097 1187 3025 
Q 903 2953 641 2809 
L 641 3341 
Q 956 3463 1253 3523 
Q 1550 3584 1831 3584 
Q 2591 3584 2966 3190 
Q 3341 2797 3341 1997 
z
" transform="scale(0.015625)"/>
       <path id="DejaVuSans-67" d="M 2906 1791 
Q 2906 2416 2648 2759 
Q 2391 3103 1925 3103 
Q 1463 3103 1205 2759 
Q 947 2416 947 1791 
Q 947 1169 1205 825 
Q 1463 481 1925 481 
Q 2391 481 2648 825 
Q 2906 1169 2906 1791 
z
M 3481 434 
Q 3481 -459 3084 -895 
Q 2688 -1331 1869 -1331 
Q 1566 -1331 1297 -1286 
Q 1028 -1241 775 -1147 
L 775 -588 
Q 1028 -725 1275 -790 
Q 1522 -856 1778 -856 
Q 2344 -856 2625 -561 
Q 2906 -266 2906 331 
L 2906 616 
Q 2728 306 2450 153 
Q 2172 0 1784 0 
Q 1141 0 747 490 
Q 353 981 353 1791 
Q 353 2603 747 3093 
Q 1141 3584 1784 3584 
Q 2172 3584 2450 3431 
Q 2728 3278 2906 2969 
L 2906 3500 
L 3481 3500 
L 3481 434 
z
" transform="scale(0.015625)"/>
       <path id="DejaVuSans-65" d="M 3597 1894 
L 3597 1613 
L 953 1613 
Q 991 1019 1311 708 
Q 1631 397 2203 397 
Q 2534 397 2845 478 
Q 3156 559 3463 722 
L 3463 178 
Q 3153 47 2828 -22 
Q 2503 -91 2169 -91 
Q 1331 -91 842 396 
Q 353 884 353 1716 
Q 353 2575 817 3079 
Q 1281 3584 2069 3584 
Q 2775 3584 3186 3129 
Q 3597 2675 3597 1894 
z
M 3022 2063 
Q 3016 2534 2758 2815 
Q 2500 3097 2075 3097 
Q 1594 3097 1305 2825 
Q 1016 2553 972 2059 
L 3022 2063 
z
" transform="scale(0.015625)"/>
       <path id="DejaVuSans-73" d="M 2834 3397 
L 2834 2853 
Q 2591 2978 2328 3040 
Q 2066 3103 1784 3103 
Q 1356 3103 1142 2972 
Q 928 2841 928 2578 
Q 928 2378 1081 2264 
Q 1234 2150 1697 2047 
L 1894 2003 
Q 2506 1872 2764 1633 
Q 3022 1394 3022 966 
Q 3022 478 2636 193 
Q 2250 -91 1575 -91 
Q 1294 -91 989 -36 
Q 684 19 347 128 
L 347 722 
Q 666 556 975 473 
Q 1284 391 1588 391 
Q 1994 391 2212 530 
Q 2431 669 2431 922 
Q 2431 1156 2273 1281 
Q 2116 1406 1581 1522 
L 1381 1569 
Q 847 1681 609 1914 
Q 372 2147 372 2553 
Q 372 3047 722 3315 
Q 1072 3584 1716 3584 
Q 2034 3584 2315 3537 
Q 2597 3491 2834 3397 
z
" transform="scale(0.015625)"/>
      </defs>
      <use xlink:href="#DejaVuSans-50"/>
      <use xlink:href="#DejaVuSans-61" x="55.802734"/>
      <use xlink:href="#DejaVuSans-67" x="117.082031"/>
      <use xlink:href="#DejaVuSans-65" x="180.558594"/>
      <use xlink:href="#DejaVuSans-73" x="242.082031"/>
     </g>
    </g>
   </g>
   <g id="matplotlib.axis_2">
    <g id="ytick_1">
     <g id="line2d_21">
      <defs>
       <path id="m6f3f5b6aff" d="M 0 0 
L -3.5 0 
" style="stroke: #000000; stroke-width: 0.8"/>
      </defs>
      <g>
       <use xlink:href="#m6f3f5b6aff" x="47.1" y="318.56425" style="stroke: #000000; stroke-width: 0.8"/>
      </g>
     </g>
     <g id="text_4">
      <!-- 0 -->
      <g transform="translate(30.55625 324.263078)scale(0.15 -0.15)">
       <use xlink:href="#DejaVuSans-30"/>
      </g>
     </g>
    </g>
    <g id="ytick_2">
     <g id="line2d_22">
      <g>
       <use xlink:href="#m6f3f5b6aff" x="47.1" y="272.309273" style="stroke: #000000; stroke-width: 0.8"/>
      </g>
     </g>
     <g id="text_5">
      <!-- 1 -->
      <g transform="translate(30.55625 278.008101)scale(0.15 -0.15)">
       <use xlink:href="#DejaVuSans-31"/>
      </g>
     </g>
    </g>
    <g id="ytick_3">
     <g id="line2d_23">
      <g>
       <use xlink:href="#m6f3f5b6aff" x="47.1" y="226.054296" style="stroke: #000000; stroke-width: 0.8"/>
      </g>
     </g>
     <g id="text_6">
      <!-- 2 -->
      <g transform="translate(30.55625 231.753124)scale(0.15 -0.15)">
       <use xlink:href="#DejaVuSans-32"/>
      </g>
     </g>
    </g>
    <g id="ytick_4">
     <g id="line2d_24">
      <g>
       <use xlink:href="#m6f3f5b6aff" x="47.1" y="179.799319" style="stroke: #000000; stroke-width: 0.8"/>
      </g>
     </g>
     <g id="text_7">
      <!-- 3 -->
      <g transform="translate(30.55625 185.498148)scale(0.15 -0.15)">
       <use xlink:href="#DejaVuSans-33"/>
      </g>
     </g>
    </g>
    <g id="ytick_5">
     <g id="line2d_25">
      <g>
       <use xlink:href="#m6f3f5b6aff" x="47.1" y="133.544343" style="stroke: #000000; stroke-width: 0.8"/>
      </g>
     </g>
     <g id="text_8">
      <!-- 4 -->
      <g transform="translate(30.55625 139.243171)scale(0.15 -0.15)">
       <defs>
        <path id="DejaVuSans-34" d="M 2419 4116 
L 825 1625 
L 2419 1625 
L 2419 4116 
z
M 2253 4666 
L 3047 4666 
L 3047 1625 
L 3713 1625 
L 3713 1100 
L 3047 1100 
L 3047 0 
L 2419 0 
L 2419 1100 
L 313 1100 
L 313 1709 
L 2253 4666 
z
" transform="scale(0.015625)"/>
       </defs>
       <use xlink:href="#DejaVuSans-34"/>
      </g>
     </g>
    </g>
    <g id="ytick_6">
     <g id="line2d_26">
      <g>
       <use xlink:href="#m6f3f5b6aff" x="47.1" y="87.289366" style="stroke: #000000; stroke-width: 0.8"/>
      </g>
     </g>
     <g id="text_9">
      <!-- 5 -->
      <g transform="translate(30.55625 92.988194)scale(0.15 -0.15)">
       <defs>
        <path id="DejaVuSans-35" d="M 691 4666 
L 3169 4666 
L 3169 4134 
L 1269 4134 
L 1269 2991 
Q 1406 3038 1543 3061 
Q 1681 3084 1819 3084 
Q 2600 3084 3056 2656 
Q 3513 2228 3513 1497 
Q 3513 744 3044 326 
Q 2575 -91 1722 -91 
Q 1428 -91 1123 -41 
Q 819 9 494 109 
L 494 744 
Q 775 591 1075 516 
Q 1375 441 1709 441 
Q 2250 441 2565 725 
Q 2881 1009 2881 1497 
Q 2881 1984 2565 2268 
Q 2250 2553 1709 2553 
Q 1456 2553 1204 2497 
Q 953 2441 691 2322 
L 691 4666 
z
" transform="scale(0.015625)"/>
       </defs>
       <use xlink:href="#DejaVuSans-35"/>
      </g>
     </g>
    </g>
    <g id="ytick_7">
     <g id="line2d_27">
      <g>
       <use xlink:href="#m6f3f5b6aff" x="47.1" y="41.034389" style="stroke: #000000; stroke-width: 0.8"/>
      </g>
     </g>
     <g id="text_10">
      <!-- 6 -->
      <g transform="translate(30.55625 46.733217)scale(0.15 -0.15)">
       <defs>
        <path id="DejaVuSans-36" d="M 2113 2584 
Q 1688 2584 1439 2293 
Q 1191 2003 1191 1497 
Q 1191 994 1439 701 
Q 1688 409 2113 409 
Q 2538 409 2786 701 
Q 3034 994 3034 1497 
Q 3034 2003 2786 2293 
Q 2538 2584 2113 2584 
z
M 3366 4563 
L 3366 3988 
Q 3128 4100 2886 4159 
Q 2644 4219 2406 4219 
Q 1781 4219 1451 3797 
Q 1122 3375 1075 2522 
Q 1259 2794 1537 2939 
Q 1816 3084 2150 3084 
Q 2853 3084 3261 2657 
Q 3669 2231 3669 1497 
Q 3669 778 3244 343 
Q 2819 -91 2113 -91 
Q 1303 -91 875 529 
Q 447 1150 447 2328 
Q 447 3434 972 4092 
Q 1497 4750 2381 4750 
Q 2619 4750 2861 4703 
Q 3103 4656 3366 4563 
z
" transform="scale(0.015625)"/>
       </defs>
       <use xlink:href="#DejaVuSans-36"/>
      </g>
     </g>
    </g>
    <g id="text_11">
     <!-- Count Difference -->
     <g transform="translate(22.396875 259.57525)rotate(-90)scale(0.2 -0.2)">
      <defs>
       <path id="DejaVuSans-43" d="M 4122 4306 
L 4122 3641 
Q 3803 3938 3442 4084 
Q 3081 4231 2675 4231 
Q 1875 4231 1450 3742 
Q 1025 3253 1025 2328 
Q 1025 1406 1450 917 
Q 1875 428 2675 428 
Q 3081 428 3442 575 
Q 3803 722 4122 1019 
L 4122 359 
Q 3791 134 3420 21 
Q 3050 -91 2638 -91 
Q 1578 -91 968 557 
Q 359 1206 359 2328 
Q 359 3453 968 4101 
Q 1578 4750 2638 4750 
Q 3056 4750 3426 4639 
Q 3797 4528 4122 4306 
z
" transform="scale(0.015625)"/>
       <path id="DejaVuSans-6f" d="M 1959 3097 
Q 1497 3097 1228 2736 
Q 959 2375 959 1747 
Q 959 1119 1226 758 
Q 1494 397 1959 397 
Q 2419 397 2687 759 
Q 2956 1122 2956 1747 
Q 2956 2369 2687 2733 
Q 2419 3097 1959 3097 
z
M 1959 3584 
Q 2709 3584 3137 3096 
Q 3566 2609 3566 1747 
Q 3566 888 3137 398 
Q 2709 -91 1959 -91 
Q 1206 -91 779 398 
Q 353 888 353 1747 
Q 353 2609 779 3096 
Q 1206 3584 1959 3584 
z
" transform="scale(0.015625)"/>
       <path id="DejaVuSans-75" d="M 544 1381 
L 544 3500 
L 1119 3500 
L 1119 1403 
Q 1119 906 1312 657 
Q 1506 409 1894 409 
Q 2359 409 2629 706 
Q 2900 1003 2900 1516 
L 2900 3500 
L 3475 3500 
L 3475 0 
L 2900 0 
L 2900 538 
Q 2691 219 2414 64 
Q 2138 -91 1772 -91 
Q 1169 -91 856 284 
Q 544 659 544 1381 
z
M 1991 3584 
L 1991 3584 
z
" transform="scale(0.015625)"/>
       <path id="DejaVuSans-6e" d="M 3513 2113 
L 3513 0 
L 2938 0 
L 2938 2094 
Q 2938 2591 2744 2837 
Q 2550 3084 2163 3084 
Q 1697 3084 1428 2787 
Q 1159 2491 1159 1978 
L 1159 0 
L 581 0 
L 581 3500 
L 1159 3500 
L 1159 2956 
Q 1366 3272 1645 3428 
Q 1925 3584 2291 3584 
Q 2894 3584 3203 3211 
Q 3513 2838 3513 2113 
z
" transform="scale(0.015625)"/>
       <path id="DejaVuSans-74" d="M 1172 4494 
L 1172 3500 
L 2356 3500 
L 2356 3053 
L 1172 3053 
L 1172 1153 
Q 1172 725 1289 603 
Q 1406 481 1766 481 
L 2356 481 
L 2356 0 
L 1766 0 
Q 1100 0 847 248 
Q 594 497 594 1153 
L 594 3053 
L 172 3053 
L 172 3500 
L 594 3500 
L 594 4494 
L 1172 4494 
z
" transform="scale(0.015625)"/>
       <path id="DejaVuSans-20" transform="scale(0.015625)"/>
       <path id="DejaVuSans-44" d="M 1259 4147 
L 1259 519 
L 2022 519 
Q 2988 519 3436 956 
Q 3884 1394 3884 2338 
Q 3884 3275 3436 3711 
Q 2988 4147 2022 4147 
L 1259 4147 
z
M 628 4666 
L 1925 4666 
Q 3281 4666 3915 4102 
Q 4550 3538 4550 2338 
Q 4550 1131 3912 565 
Q 3275 0 1925 0 
L 628 0 
L 628 4666 
z
" transform="scale(0.015625)"/>
       <path id="DejaVuSans-69" d="M 603 3500 
L 1178 3500 
L 1178 0 
L 603 0 
L 603 3500 
z
M 603 4863 
L 1178 4863 
L 1178 4134 
L 603 4134 
L 603 4863 
z
" transform="scale(0.015625)"/>
       <path id="DejaVuSans-66" d="M 2375 4863 
L 2375 4384 
L 1825 4384 
Q 1516 4384 1395 4259 
Q 1275 4134 1275 3809 
L 1275 3500 
L 2222 3500 
L 2222 3053 
L 1275 3053 
L 1275 0 
L 697 0 
L 697 3053 
L 147 3053 
L 147 3500 
L 697 3500 
L 697 3744 
Q 697 4328 969 4595 
Q 1241 4863 1831 4863 
L 2375 4863 
z
" transform="scale(0.015625)"/>
       <path id="DejaVuSans-72" d="M 2631 2963 
Q 2534 3019 2420 3045 
Q 2306 3072 2169 3072 
Q 1681 3072 1420 2755 
Q 1159 2438 1159 1844 
L 1159 0 
L 581 0 
L 581 3500 
L 1159 3500 
L 1159 2956 
Q 1341 3275 1631 3429 
Q 1922 3584 2338 3584 
Q 2397 3584 2469 3576 
Q 2541 3569 2628 3553 
L 2631 2963 
z
" transform="scale(0.015625)"/>
       <path id="DejaVuSans-63" d="M 3122 3366 
L 3122 2828 
Q 2878 2963 2633 3030 
Q 2388 3097 2138 3097 
Q 1578 3097 1268 2742 
Q 959 2388 959 1747 
Q 959 1106 1268 751 
Q 1578 397 2138 397 
Q 2388 397 2633 464 
Q 2878 531 3122 666 
L 3122 134 
Q 2881 22 2623 -34 
Q 2366 -91 2075 -91 
Q 1284 -91 818 406 
Q 353 903 353 1747 
Q 353 2603 823 3093 
Q 1294 3584 2113 3584 
Q 2378 3584 2631 3529 
Q 2884 3475 3122 3366 
z
" transform="scale(0.015625)"/>
      </defs>
      <use xlink:href="#DejaVuSans-43"/>
      <use xlink:href="#DejaVuSans-6f" x="69.824219"/>
      <use xlink:href="#DejaVuSans-75" x="131.005859"/>
      <use xlink:href="#DejaVuSans-6e" x="194.384766"/>
      <use xlink:href="#DejaVuSans-74" x="257.763672"/>
      <use xlink:href="#DejaVuSans-20" x="296.972656"/>
      <use xlink:href="#DejaVuSans-44" x="328.759766"/>
      <use xlink:href="#DejaVuSans-69" x="405.761719"/>
      <use xlink:href="#DejaVuSans-66" x="433.544922"/>
      <use xlink:href="#DejaVuSans-66" x="468.75"/>
      <use xlink:href="#DejaVuSans-65" x="503.955078"/>
      <use xlink:href="#DejaVuSans-72" x="565.478516"/>
      <use xlink:href="#DejaVuSans-65" x="604.341797"/>
      <use xlink:href="#DejaVuSans-6e" x="665.865234"/>
      <use xlink:href="#DejaVuSans-63" x="729.244141"/>
      <use xlink:href="#DejaVuSans-65" x="784.224609"/>
     </g>
    </g>
   </g>
   <g id="line2d_28">
    <path d="M 47.1 318.558237 
L 78.09967 318.537885 
L 100.094286 318.44445 
L 117.154635 272.342114 
L 131.093956 272.308811 
L 153.088571 272.307886 
L 184.088241 272.314824 
L 206.082857 272.308811 
L 237.082527 272.314824 
L 259.077143 272.309273 
L 290.076813 272.317599 
L 312.071429 272.310198 
L 343.071098 272.318524 
L 365.065714 272.311123 
L 396.065384 272.319449 
L 418.06 272.318524 
" clip-path="url(#pb6d1813f3c)" style="fill: none; stroke: #1f77b4; stroke-width: 1.5; stroke-linecap: square"/>
   </g>
   <g id="line2d_29">
    <path d="M 47.1 318.56425 
L 78.09967 318.56425 
L 100.094286 318.56425 
L 117.154635 318.56425 
L 131.093956 318.56425 
L 153.088571 318.56425 
L 184.088241 318.56425 
L 206.082857 318.563787 
L 237.082527 318.556849 
L 259.077143 318.461564 
L 290.076813 272.159407 
L 312.071429 272.164495 
L 343.071098 272.084011 
L 365.065714 272.16727 
L 396.065384 272.173284 
L 418.06 272.171896 
" clip-path="url(#pb6d1813f3c)" style="fill: none; stroke: #ff7f0e; stroke-width: 1.5; stroke-linecap: square"/>
   </g>
   <g id="line2d_30">
    <path d="M 47.1 318.56425 
L 78.09967 318.56425 
L 100.094286 318.56425 
L 117.154635 318.56425 
L 131.093956 318.56425 
L 153.088571 318.56425 
L 184.088241 318.56425 
L 206.082857 318.563787 
L 237.082527 318.556387 
L 259.077143 318.452313 
L 290.076813 272.159407 
L 312.071429 272.165883 
L 343.071098 272.087249 
L 365.065714 272.16727 
L 396.065384 272.175596 
L 418.06 272.173746 
" clip-path="url(#pb6d1813f3c)" style="fill: none; stroke: #2ca02c; stroke-width: 1.5; stroke-linecap: square"/>
   </g>
   <g id="line2d_31">
    <path d="M 47.1 110.361811 
L 78.09967 108.945946 
L 100.094286 110.167077 
L 117.154635 45.11269 
L 131.093956 54.300316 
L 153.088571 64.045777 
L 184.088241 62.23767 
L 206.082857 64.120248 
L 237.082527 61.179819 
L 259.077143 65.27616 
L 290.076813 197.792968 
L 312.071429 204.016113 
L 343.071098 167.212878 
L 365.065714 202.941147 
L 396.065384 173.253315 
L 418.06 200.647363 
" clip-path="url(#pb6d1813f3c)" style="fill: none; stroke: #d62728; stroke-width: 1.5; stroke-linecap: square"/>
   </g>
   <g id="line2d_32">
    <path d="M 47.1 295.379405 
L 78.09967 295.656473 
L 100.094286 295.343327 
L 117.154635 253.269337 
L 131.093956 250.41818 
L 153.088571 249.114715 
L 184.088241 250.235473 
L 206.082857 249.133217 
L 237.082527 249.512045 
L 259.077143 248.848286 
L 290.076813 198.181047 
L 312.071429 196.227237 
L 343.071098 201.883296 
L 365.065714 196.263778 
L 396.065384 203.090551 
L 418.06 196.008451 
" clip-path="url(#pb6d1813f3c)" style="fill: none; stroke: #9467bd; stroke-width: 1.5; stroke-linecap: square"/>
   </g>
   <g id="line2d_33">
    <path d="M 47.1 318.400507 
L 78.09967 318.166457 
L 100.094286 318.050357 
L 117.154635 318.136391 
L 131.093956 317.14931 
L 153.088571 318.409296 
L 184.088241 318.021679 
L 206.082857 318.115114 
L 237.082527 318.141017 
L 259.077143 318.048507 
L 290.076813 313.832366 
L 312.071429 317.012858 
L 343.071098 317.054488 
L 365.065714 317.568843 
L 396.065384 317.018871 
L 418.06 317.311665 
" clip-path="url(#pb6d1813f3c)" style="fill: none; stroke: #8c564b; stroke-width: 1.5; stroke-linecap: square"/>
   </g>
   <g id="line2d_34">
    <path d="M 47.1 318.31031 
L 78.09967 318.091524 
L 100.094286 318.070247 
L 117.154635 318.230289 
L 131.093956 317.104443 
L 153.088571 318.35564 
L 184.088241 318.005952 
L 206.082857 318.075335 
L 237.082527 318.140554 
L 259.077143 318.05082 
L 290.076813 313.717191 
L 312.071429 317.025809 
L 343.071098 317.066514 
L 365.065714 317.569768 
L 396.065384 317.049862 
L 418.06 317.380123 
" clip-path="url(#pb6d1813f3c)" style="fill: none; stroke: #e377c2; stroke-width: 1.5; stroke-linecap: square"/>
   </g>
   <g id="line2d_35">
    <path d="M 47.1 318.564713 
L 78.09967 318.14333 
L 100.094286 318.568413 
L 117.154635 314.614075 
L 131.093956 317.451355 
L 153.088571 318.565638 
L 184.088241 318.127603 
L 206.082857 318.565638 
L 237.082527 317.754788 
L 259.077143 318.565175 
L 290.076813 317.124795 
L 312.071429 318.407908 
L 343.071098 312.248133 
L 365.065714 318.346389 
L 396.065384 311.920185 
L 418.06 318.180796 
" clip-path="url(#pb6d1813f3c)" style="fill: none; stroke: #7f7f7f; stroke-width: 1.5; stroke-linecap: square"/>
   </g>
   <g id="line2d_36">
    <path d="M 47.1 318.56425 
L 78.09967 298.06682 
L 100.094286 318.56425 
L 117.154635 139.501059 
L 131.093956 284.097354 
L 153.088571 318.56425 
L 184.088241 300.400846 
L 206.082857 318.56425 
L 237.082527 296.940973 
L 259.077143 318.561937 
L 290.076813 266.638413 
L 312.071429 311.556621 
L 343.071098 80.078677 
L 365.065714 310.471479 
L 396.065384 124.439976 
L 418.06 300.246817 
" clip-path="url(#pb6d1813f3c)" style="fill: none; stroke: #bcbd22; stroke-width: 1.5; stroke-linecap: square"/>
   </g>
   <g id="line2d_37">
    <path d="M 47.1 318.505969 
L 78.09967 318.467577 
L 100.094286 318.452313 
L 117.154635 272.287996 
L 131.093956 272.276432 
L 153.088571 272.275507 
L 184.088241 272.348127 
L 206.082857 272.351828 
L 237.082527 272.668674 
L 259.077143 272.97442 
L 290.076813 272.194098 
L 312.071429 272.178372 
L 343.071098 271.70102 
L 365.065714 272.006766 
L 396.065384 271.444305 
L 418.06 271.482697 
" clip-path="url(#pb6d1813f3c)" style="fill: none; stroke: #17becf; stroke-width: 1.5; stroke-linecap: square"/>
   </g>
   <g id="line2d_38">
    <path d="M 47.1 318.557312 
L 78.09967 318.537422 
L 100.094286 318.435661 
L 117.154635 272.338876 
L 131.093956 272.30696 
L 153.088571 272.30696 
L 184.088241 272.314361 
L 206.082857 272.308348 
L 237.082527 272.30511 
L 259.077143 272.195023 
L 290.076813 225.476109 
L 312.071429 225.483972 
L 343.071098 225.030211 
L 365.065714 225.428929 
L 396.065384 224.940014 
L 418.06 224.989507 
" clip-path="url(#pb6d1813f3c)" style="fill: none; stroke-dasharray: 5.55,2.4; stroke-dashoffset: 0; stroke: #1f77b4; stroke-width: 1.5"/>
   </g>
   <g id="line2d_39">
    <path d="M 47.1 272.326388 
L 78.09967 272.30141 
L 100.094286 272.289846 
L 117.154635 272.221389 
L 131.093956 272.27967 
L 153.088571 272.287996 
L 184.088241 272.274582 
L 206.082857 272.294934 
L 237.082527 272.283833 
L 259.077143 272.290771 
L 290.076813 271.333293 
L 312.071429 272.235728 
L 343.071098 272.072448 
L 365.065714 272.248679 
L 396.065384 272.036369 
L 418.06 272.155244 
" clip-path="url(#pb6d1813f3c)" style="fill: none; stroke-dasharray: 5.55,2.4; stroke-dashoffset: 0; stroke: #ff7f0e; stroke-width: 1.5"/>
   </g>
   <g id="line2d_40">
    <path d="M 47.1 318.56425 
L 78.09967 301.76583 
L 100.094286 318.56425 
L 117.154635 199.851777 
L 131.093956 247.171081 
L 153.088571 318.56425 
L 184.088241 307.025021 
L 206.082857 318.56425 
L 237.082527 287.058598 
L 259.077143 318.56425 
L 290.076813 293.365464 
L 312.071429 318.56425 
L 343.071098 122.144341 
L 365.065714 318.56425 
L 396.065384 109.158256 
L 418.06 314.641828 
" clip-path="url(#pb6d1813f3c)" style="fill: none; stroke-dasharray: 5.55,2.4; stroke-dashoffset: 0; stroke: #2ca02c; stroke-width: 1.5"/>
   </g>
   <g id="line2d_41">
    <path d="M 47.1 318.54251 
L 78.09967 318.514295 
L 100.094286 318.425948 
L 117.154635 272.244054 
L 131.093956 272.276895 
L 153.088571 272.288921 
L 184.088241 272.285221 
L 206.082857 272.291234 
L 237.082527 272.271807 
L 259.077143 272.102051 
L 290.076813 224.319735 
L 312.071429 225.284614 
L 343.071098 224.754069 
L 365.065714 225.253623 
L 396.065384 224.656008 
L 418.06 224.792461 
" clip-path="url(#pb6d1813f3c)" style="fill: none; stroke-dasharray: 5.55,2.4; stroke-dashoffset: 0; stroke: #d62728; stroke-width: 1.5"/>
   </g>
   <g id="line2d_42">
    <path d="M 47.1 272.418435 
L 78.09967 272.41566 
L 100.094286 272.422135 
L 117.154635 272.410109 
L 131.093956 272.414735 
L 153.088571 272.41936 
L 184.088241 272.42121 
L 206.082857 272.421673 
L 237.082527 272.499844 
L 259.077143 272.711691 
L 290.076813 318.597091 
L 312.071429 318.603567 
L 343.071098 318.641496 
L 365.065714 318.594778 
L 396.065384 318.604954 
L 418.06 318.598479 
" clip-path="url(#pb6d1813f3c)" style="fill: none; stroke-dasharray: 5.55,2.4; stroke-dashoffset: 0; stroke: #9467bd; stroke-width: 1.5"/>
   </g>
   <g id="line2d_43">
    <path d="M 47.1 295.40022 
L 78.09967 295.806339 
L 100.094286 295.330838 
L 117.154635 253.906268 
L 131.093956 249.979221 
L 153.088571 249.130904 
L 184.088241 249.697528 
L 206.082857 249.147556 
L 237.082527 249.865433 
L 259.077143 248.915819 
L 290.076813 197.92387 
L 312.071429 196.25499 
L 343.071098 202.759827 
L 365.065714 196.172656 
L 396.065384 203.399534 
L 418.06 196.01909 
" clip-path="url(#pb6d1813f3c)" style="fill: none; stroke-dasharray: 5.55,2.4; stroke-dashoffset: 0; stroke: #8c564b; stroke-width: 1.5"/>
   </g>
   <g id="line2d_44">
    <path d="M 47.1 318.546673 
L 78.09967 318.51892 
L 100.094286 318.442137 
L 117.154635 272.250067 
L 131.093956 272.269494 
L 153.088571 272.290771 
L 184.088241 272.285221 
L 206.082857 272.283833 
L 237.082527 272.270882 
L 259.077143 272.141368 
L 290.076813 224.248965 
L 312.071429 225.342895 
L 343.071098 224.734179 
L 365.065714 225.287389 
L 396.065384 224.582463 
L 418.06 224.813275 
" clip-path="url(#pb6d1813f3c)" style="fill: none; stroke-dasharray: 5.55,2.4; stroke-dashoffset: 0; stroke: #e377c2; stroke-width: 1.5"/>
   </g>
   <g id="line2d_45">
    <path d="M 47.1 272.34674 
L 78.09967 272.330088 
L 100.094286 272.309736 
L 117.154635 272.313899 
L 131.093956 272.314824 
L 153.088571 272.310661 
L 184.088241 272.314361 
L 206.082857 272.320837 
L 237.082527 272.320837 
L 259.077143 272.344427 
L 290.076813 272.449888 
L 312.071429 272.422598 
L 343.071098 272.380968 
L 365.065714 272.368942 
L 396.065384 272.350903 
L 418.06 272.345815 
" clip-path="url(#pb6d1813f3c)" style="fill: none; stroke-dasharray: 5.55,2.4; stroke-dashoffset: 0; stroke: #7f7f7f; stroke-width: 1.5"/>
   </g>
   <g id="line2d_46">
    <path d="M 47.1 318.558237 
L 78.09967 318.541123 
L 100.094286 318.454163 
L 117.154635 272.343039 
L 131.093956 272.308811 
L 153.088571 272.307886 
L 184.088241 272.314824 
L 206.082857 272.309736 
L 237.082527 272.315749 
L 259.077143 272.309273 
L 290.076813 272.310198 
L 312.071429 272.310198 
L 343.071098 272.309736 
L 365.065714 272.310198 
L 396.065384 272.310661 
L 418.06 272.310661 
" clip-path="url(#pb6d1813f3c)" style="fill: none; stroke-dasharray: 5.55,2.4; stroke-dashoffset: 0; stroke: #bcbd22; stroke-width: 1.5"/>
   </g>
   <g id="line2d_47">
    <path d="M 47.1 318.013816 
L 78.09967 299.185727 
L 100.094286 314.343021 
L 117.154635 188.932365 
L 131.093956 273.3699 
L 153.088571 317.807056 
L 184.088241 303.707614 
L 206.082857 316.220048 
L 237.082527 305.384357 
L 259.077143 317.228406 
L 290.076813 260.582249 
L 312.071429 316.090534 
L 343.071098 172.614996 
L 365.065714 315.258407 
L 396.065384 186.747742 
L 418.06 312.748149 
" clip-path="url(#pb6d1813f3c)" style="fill: none; stroke-dasharray: 5.55,2.4; stroke-dashoffset: 0; stroke: #17becf; stroke-width: 1.5"/>
   </g>
   <g id="line2d_48">
    <path d="M 47.1 318.19606 
L 78.09967 305.204425 
L 100.094286 315.70893 
L 117.154635 189.879204 
L 131.093956 289.217317 
L 153.088571 317.853311 
L 184.088241 294.671704 
L 206.082857 316.833851 
L 237.082527 290.192372 
L 259.077143 317.558667 
L 290.076813 282.186098 
L 312.071429 316.036878 
L 343.071098 187.584495 
L 365.065714 315.642786 
L 396.065384 163.40378 
L 418.06 313.022904 
" clip-path="url(#pb6d1813f3c)" style="fill: none; stroke-dasharray: 9.6,2.4,1.5,2.4; stroke-dashoffset: 0; stroke: #1f77b4; stroke-width: 1.5"/>
   </g>
   <g id="line2d_49">
    <path d="M 47.1 318.320486 
L 78.09967 312.021946 
L 100.094286 317.587807 
L 117.154635 246.886613 
L 131.093956 303.846841 
L 153.088571 318.314936 
L 184.088241 300.297697 
L 206.082857 318.016129 
L 237.082527 303.557748 
L 259.077143 318.111414 
L 290.076813 295.985808 
L 312.071429 317.850536 
L 343.071098 237.212847 
L 365.065714 317.614173 
L 396.065384 237.72489 
L 418.06 316.694161 
" clip-path="url(#pb6d1813f3c)" style="fill: none; stroke-dasharray: 9.6,2.4,1.5,2.4; stroke-dashoffset: 0; stroke: #ff7f0e; stroke-width: 1.5"/>
   </g>
   <g id="line2d_50">
    <path d="M 100.094286 318.56425 
L 100.094286 31.43625 
" clip-path="url(#pb6d1813f3c)" style="fill: none; stroke: #ff0000; stroke-width: 1.5; stroke-linecap: square"/>
   </g>
   <g id="line2d_51">
    <path d="M 259.077143 318.56425 
L 259.077143 31.43625 
" clip-path="url(#pb6d1813f3c)" style="fill: none; stroke: #008000; stroke-width: 1.5; stroke-linecap: square"/>
   </g>
   <g id="patch_3">
    <path d="M 47.1 318.56425 
L 47.1 31.43625 
" style="fill: none; stroke: #000000; stroke-width: 0.8; stroke-linejoin: miter; stroke-linecap: square"/>
   </g>
   <g id="patch_4">
    <path d="M 418.06 318.56425 
L 418.06 31.43625 
" style="fill: none; stroke: #000000; stroke-width: 0.8; stroke-linejoin: miter; stroke-linecap: square"/>
   </g>
   <g id="patch_5">
    <path d="M 47.1 318.56425 
L 418.06 318.56425 
" style="fill: none; stroke: #000000; stroke-width: 0.8; stroke-linejoin: miter; stroke-linecap: square"/>
   </g>
   <g id="patch_6">
    <path d="M 47.1 31.43625 
L 418.06 31.43625 
" style="fill: none; stroke: #000000; stroke-width: 0.8; stroke-linejoin: miter; stroke-linecap: square"/>
   </g>
   <g id="text_12">
    <!-- Ice Storm (Store) -->
    <g transform="translate(130.278125 25.43625)scale(0.24 -0.24)">
     <defs>
      <path id="DejaVuSans-49" d="M 628 4666 
L 1259 4666 
L 1259 0 
L 628 0 
L 628 4666 
z
" transform="scale(0.015625)"/>
      <path id="DejaVuSans-53" d="M 3425 4513 
L 3425 3897 
Q 3066 4069 2747 4153 
Q 2428 4238 2131 4238 
Q 1616 4238 1336 4038 
Q 1056 3838 1056 3469 
Q 1056 3159 1242 3001 
Q 1428 2844 1947 2747 
L 2328 2669 
Q 3034 2534 3370 2195 
Q 3706 1856 3706 1288 
Q 3706 609 3251 259 
Q 2797 -91 1919 -91 
Q 1588 -91 1214 -16 
Q 841 59 441 206 
L 441 856 
Q 825 641 1194 531 
Q 1563 422 1919 422 
Q 2459 422 2753 634 
Q 3047 847 3047 1241 
Q 3047 1584 2836 1778 
Q 2625 1972 2144 2069 
L 1759 2144 
Q 1053 2284 737 2584 
Q 422 2884 422 3419 
Q 422 4038 858 4394 
Q 1294 4750 2059 4750 
Q 2388 4750 2728 4690 
Q 3069 4631 3425 4513 
z
" transform="scale(0.015625)"/>
      <path id="DejaVuSans-6d" d="M 3328 2828 
Q 3544 3216 3844 3400 
Q 4144 3584 4550 3584 
Q 5097 3584 5394 3201 
Q 5691 2819 5691 2113 
L 5691 0 
L 5113 0 
L 5113 2094 
Q 5113 2597 4934 2840 
Q 4756 3084 4391 3084 
Q 3944 3084 3684 2787 
Q 3425 2491 3425 1978 
L 3425 0 
L 2847 0 
L 2847 2094 
Q 2847 2600 2669 2842 
Q 2491 3084 2119 3084 
Q 1678 3084 1418 2786 
Q 1159 2488 1159 1978 
L 1159 0 
L 581 0 
L 581 3500 
L 1159 3500 
L 1159 2956 
Q 1356 3278 1631 3431 
Q 1906 3584 2284 3584 
Q 2666 3584 2933 3390 
Q 3200 3197 3328 2828 
z
" transform="scale(0.015625)"/>
      <path id="DejaVuSans-28" d="M 1984 4856 
Q 1566 4138 1362 3434 
Q 1159 2731 1159 2009 
Q 1159 1288 1364 580 
Q 1569 -128 1984 -844 
L 1484 -844 
Q 1016 -109 783 600 
Q 550 1309 550 2009 
Q 550 2706 781 3412 
Q 1013 4119 1484 4856 
L 1984 4856 
z
" transform="scale(0.015625)"/>
      <path id="DejaVuSans-29" d="M 513 4856 
L 1013 4856 
Q 1481 4119 1714 3412 
Q 1947 2706 1947 2009 
Q 1947 1309 1714 600 
Q 1481 -109 1013 -844 
L 513 -844 
Q 928 -128 1133 580 
Q 1338 1288 1338 2009 
Q 1338 2731 1133 3434 
Q 928 4138 513 4856 
z
" transform="scale(0.015625)"/>
     </defs>
     <use xlink:href="#DejaVuSans-49"/>
     <use xlink:href="#DejaVuSans-63" x="29.492188"/>
     <use xlink:href="#DejaVuSans-65" x="84.472656"/>
     <use xlink:href="#DejaVuSans-20" x="145.996094"/>
     <use xlink:href="#DejaVuSans-53" x="177.783203"/>
     <use xlink:href="#DejaVuSans-74" x="241.259766"/>
     <use xlink:href="#DejaVuSans-6f" x="280.46875"/>
     <use xlink:href="#DejaVuSans-72" x="341.650391"/>
     <use xlink:href="#DejaVuSans-6d" x="381.013672"/>
     <use xlink:href="#DejaVuSans-20" x="478.425781"/>
     <use xlink:href="#DejaVuSans-28" x="510.212891"/>
     <use xlink:href="#DejaVuSans-53" x="549.226562"/>
     <use xlink:href="#DejaVuSans-74" x="612.703125"/>
     <use xlink:href="#DejaVuSans-6f" x="651.912109"/>
     <use xlink:href="#DejaVuSans-72" x="713.09375"/>
     <use xlink:href="#DejaVuSans-65" x="751.957031"/>
     <use xlink:href="#DejaVuSans-29" x="813.480469"/>
    </g>
   </g>
   <g id="legend_1">
    <g id="patch_7">
     <path d="M 113.42 84.80625 
L 412.46 84.80625 
Q 414.06 84.80625 414.06 83.20625 
L 414.06 37.03625 
Q 414.06 35.43625 412.46 35.43625 
L 113.42 35.43625 
Q 111.82 35.43625 111.82 37.03625 
L 111.82 83.20625 
Q 111.82 84.80625 113.42 84.80625 
z
" style="fill: #ffffff; opacity: 0.8; stroke: #cccccc; stroke-linejoin: miter"/>
    </g>
    <g id="line2d_52">
     <path d="M 115.02 41.915 
L 123.02 41.915 
L 131.02 41.915 
" style="fill: none; stroke: #1f77b4; stroke-width: 1.5; stroke-linecap: square"/>
    </g>
    <g id="text_13">
     <!-- 5 -->
     <g transform="translate(137.42 44.715)scale(0.08 -0.08)">
      <use xlink:href="#DejaVuSans-35"/>
     </g>
    </g>
    <g id="line2d_53">
     <path d="M 115.02 53.6575 
L 123.02 53.6575 
L 131.02 53.6575 
" style="fill: none; stroke: #ff7f0e; stroke-width: 1.5; stroke-linecap: square"/>
    </g>
    <g id="text_14">
     <!-- 8 -->
     <g transform="translate(137.42 56.4575)scale(0.08 -0.08)">
      <defs>
       <path id="DejaVuSans-38" d="M 2034 2216 
Q 1584 2216 1326 1975 
Q 1069 1734 1069 1313 
Q 1069 891 1326 650 
Q 1584 409 2034 409 
Q 2484 409 2743 651 
Q 3003 894 3003 1313 
Q 3003 1734 2745 1975 
Q 2488 2216 2034 2216 
z
M 1403 2484 
Q 997 2584 770 2862 
Q 544 3141 544 3541 
Q 544 4100 942 4425 
Q 1341 4750 2034 4750 
Q 2731 4750 3128 4425 
Q 3525 4100 3525 3541 
Q 3525 3141 3298 2862 
Q 3072 2584 2669 2484 
Q 3125 2378 3379 2068 
Q 3634 1759 3634 1313 
Q 3634 634 3220 271 
Q 2806 -91 2034 -91 
Q 1263 -91 848 271 
Q 434 634 434 1313 
Q 434 1759 690 2068 
Q 947 2378 1403 2484 
z
M 1172 3481 
Q 1172 3119 1398 2916 
Q 1625 2713 2034 2713 
Q 2441 2713 2670 2916 
Q 2900 3119 2900 3481 
Q 2900 3844 2670 4047 
Q 2441 4250 2034 4250 
Q 1625 4250 1398 4047 
Q 1172 3844 1172 3481 
z
" transform="scale(0.015625)"/>
      </defs>
      <use xlink:href="#DejaVuSans-38"/>
     </g>
    </g>
    <g id="line2d_54">
     <path d="M 115.02 65.4 
L 123.02 65.4 
L 131.02 65.4 
" style="fill: none; stroke: #2ca02c; stroke-width: 1.5; stroke-linecap: square"/>
    </g>
    <g id="text_15">
     <!-- 11 -->
     <g transform="translate(137.42 68.2)scale(0.08 -0.08)">
      <use xlink:href="#DejaVuSans-31"/>
      <use xlink:href="#DejaVuSans-31" x="63.623047"/>
     </g>
    </g>
    <g id="line2d_55">
     <path d="M 115.02 77.1425 
L 123.02 77.1425 
L 131.02 77.1425 
" style="fill: none; stroke: #d62728; stroke-width: 1.5; stroke-linecap: square"/>
    </g>
    <g id="text_16">
     <!-- 30 -->
     <g transform="translate(137.42 79.9425)scale(0.08 -0.08)">
      <use xlink:href="#DejaVuSans-33"/>
      <use xlink:href="#DejaVuSans-30" x="63.623047"/>
     </g>
    </g>
    <g id="line2d_56">
     <path d="M 163.6 41.915 
L 171.6 41.915 
L 179.6 41.915 
" style="fill: none; stroke: #9467bd; stroke-width: 1.5; stroke-linecap: square"/>
    </g>
    <g id="text_17">
     <!-- 31 -->
     <g transform="translate(186 44.715)scale(0.08 -0.08)">
      <use xlink:href="#DejaVuSans-33"/>
      <use xlink:href="#DejaVuSans-31" x="63.623047"/>
     </g>
    </g>
    <g id="line2d_57">
     <path d="M 163.6 53.6575 
L 171.6 53.6575 
L 179.6 53.6575 
" style="fill: none; stroke: #8c564b; stroke-width: 1.5; stroke-linecap: square"/>
    </g>
    <g id="text_18">
     <!-- 70 -->
     <g transform="translate(186 56.4575)scale(0.08 -0.08)">
      <defs>
       <path id="DejaVuSans-37" d="M 525 4666 
L 3525 4666 
L 3525 4397 
L 1831 0 
L 1172 0 
L 2766 4134 
L 525 4134 
L 525 4666 
z
" transform="scale(0.015625)"/>
      </defs>
      <use xlink:href="#DejaVuSans-37"/>
      <use xlink:href="#DejaVuSans-30" x="63.623047"/>
     </g>
    </g>
    <g id="line2d_58">
     <path d="M 163.6 65.4 
L 171.6 65.4 
L 179.6 65.4 
" style="fill: none; stroke: #e377c2; stroke-width: 1.5; stroke-linecap: square"/>
    </g>
    <g id="text_19">
     <!-- 73 -->
     <g transform="translate(186 68.2)scale(0.08 -0.08)">
      <use xlink:href="#DejaVuSans-37"/>
      <use xlink:href="#DejaVuSans-33" x="63.623047"/>
     </g>
    </g>
    <g id="line2d_59">
     <path d="M 163.6 77.1425 
L 171.6 77.1425 
L 179.6 77.1425 
" style="fill: none; stroke: #7f7f7f; stroke-width: 1.5; stroke-linecap: square"/>
    </g>
    <g id="text_20">
     <!-- 76 -->
     <g transform="translate(186 79.9425)scale(0.08 -0.08)">
      <use xlink:href="#DejaVuSans-37"/>
      <use xlink:href="#DejaVuSans-36" x="63.623047"/>
     </g>
    </g>
    <g id="line2d_60">
     <path d="M 212.18 41.915 
L 220.18 41.915 
L 228.18 41.915 
" style="fill: none; stroke: #bcbd22; stroke-width: 1.5; stroke-linecap: square"/>
    </g>
    <g id="text_21">
     <!-- 113 -->
     <g transform="translate(234.58 44.715)scale(0.08 -0.08)">
      <use xlink:href="#DejaVuSans-31"/>
      <use xlink:href="#DejaVuSans-31" x="63.623047"/>
      <use xlink:href="#DejaVuSans-33" x="127.246094"/>
     </g>
    </g>
    <g id="line2d_61">
     <path d="M 212.18 53.6575 
L 220.18 53.6575 
L 228.18 53.6575 
" style="fill: none; stroke: #17becf; stroke-width: 1.5; stroke-linecap: square"/>
    </g>
    <g id="text_22">
     <!-- 160 -->
     <g transform="translate(234.58 56.4575)scale(0.08 -0.08)">
      <use xlink:href="#DejaVuSans-31"/>
      <use xlink:href="#DejaVuSans-36" x="63.623047"/>
      <use xlink:href="#DejaVuSans-30" x="127.246094"/>
     </g>
    </g>
    <g id="line2d_62">
     <path d="M 212.18 65.4 
L 220.18 65.4 
L 228.18 65.4 
" style="fill: none; stroke-dasharray: 5.55,2.4; stroke-dashoffset: 0; stroke: #1f77b4; stroke-width: 1.5"/>
    </g>
    <g id="text_23">
     <!-- 161 -->
     <g transform="translate(234.58 68.2)scale(0.08 -0.08)">
      <use xlink:href="#DejaVuSans-31"/>
      <use xlink:href="#DejaVuSans-36" x="63.623047"/>
      <use xlink:href="#DejaVuSans-31" x="127.246094"/>
     </g>
    </g>
    <g id="line2d_63">
     <path d="M 212.18 77.1425 
L 220.18 77.1425 
L 228.18 77.1425 
" style="fill: none; stroke-dasharray: 5.55,2.4; stroke-dashoffset: 0; stroke: #ff7f0e; stroke-width: 1.5"/>
    </g>
    <g id="text_24">
     <!-- 162 -->
     <g transform="translate(234.58 79.9425)scale(0.08 -0.08)">
      <use xlink:href="#DejaVuSans-31"/>
      <use xlink:href="#DejaVuSans-36" x="63.623047"/>
      <use xlink:href="#DejaVuSans-32" x="127.246094"/>
     </g>
    </g>
    <g id="line2d_64">
     <path d="M 265.85 41.915 
L 273.85 41.915 
L 281.85 41.915 
" style="fill: none; stroke-dasharray: 5.55,2.4; stroke-dashoffset: 0; stroke: #2ca02c; stroke-width: 1.5"/>
    </g>
    <g id="text_25">
     <!-- 164 -->
     <g transform="translate(288.25 44.715)scale(0.08 -0.08)">
      <use xlink:href="#DejaVuSans-31"/>
      <use xlink:href="#DejaVuSans-36" x="63.623047"/>
      <use xlink:href="#DejaVuSans-34" x="127.246094"/>
     </g>
    </g>
    <g id="line2d_65">
     <path d="M 265.85 53.6575 
L 273.85 53.6575 
L 281.85 53.6575 
" style="fill: none; stroke-dasharray: 5.55,2.4; stroke-dashoffset: 0; stroke: #d62728; stroke-width: 1.5"/>
    </g>
    <g id="text_26">
     <!-- 167 -->
     <g transform="translate(288.25 56.4575)scale(0.08 -0.08)">
      <use xlink:href="#DejaVuSans-31"/>
      <use xlink:href="#DejaVuSans-36" x="63.623047"/>
      <use xlink:href="#DejaVuSans-37" x="127.246094"/>
     </g>
    </g>
    <g id="line2d_66">
     <path d="M 265.85 65.4 
L 273.85 65.4 
L 281.85 65.4 
" style="fill: none; stroke-dasharray: 5.55,2.4; stroke-dashoffset: 0; stroke: #9467bd; stroke-width: 1.5"/>
    </g>
    <g id="text_27">
     <!-- 168 -->
     <g transform="translate(288.25 68.2)scale(0.08 -0.08)">
      <use xlink:href="#DejaVuSans-31"/>
      <use xlink:href="#DejaVuSans-36" x="63.623047"/>
      <use xlink:href="#DejaVuSans-38" x="127.246094"/>
     </g>
    </g>
    <g id="line2d_67">
     <path d="M 265.85 77.1425 
L 273.85 77.1425 
L 281.85 77.1425 
" style="fill: none; stroke-dasharray: 5.55,2.4; stroke-dashoffset: 0; stroke: #8c564b; stroke-width: 1.5"/>
    </g>
    <g id="text_28">
     <!-- 172 -->
     <g transform="translate(288.25 79.9425)scale(0.08 -0.08)">
      <use xlink:href="#DejaVuSans-31"/>
      <use xlink:href="#DejaVuSans-37" x="63.623047"/>
      <use xlink:href="#DejaVuSans-32" x="127.246094"/>
     </g>
    </g>
    <g id="line2d_68">
     <path d="M 319.52 41.915 
L 327.52 41.915 
L 335.52 41.915 
" style="fill: none; stroke-dasharray: 5.55,2.4; stroke-dashoffset: 0; stroke: #e377c2; stroke-width: 1.5"/>
    </g>
    <g id="text_29">
     <!-- 188 -->
     <g transform="translate(341.92 44.715)scale(0.08 -0.08)">
      <use xlink:href="#DejaVuSans-31"/>
      <use xlink:href="#DejaVuSans-38" x="63.623047"/>
      <use xlink:href="#DejaVuSans-38" x="127.246094"/>
     </g>
    </g>
    <g id="line2d_69">
     <path d="M 319.52 53.6575 
L 327.52 53.6575 
L 335.52 53.6575 
" style="fill: none; stroke-dasharray: 5.55,2.4; stroke-dashoffset: 0; stroke: #7f7f7f; stroke-width: 1.5"/>
    </g>
    <g id="text_30">
     <!-- 192 -->
     <g transform="translate(341.92 56.4575)scale(0.08 -0.08)">
      <defs>
       <path id="DejaVuSans-39" d="M 703 97 
L 703 672 
Q 941 559 1184 500 
Q 1428 441 1663 441 
Q 2288 441 2617 861 
Q 2947 1281 2994 2138 
Q 2813 1869 2534 1725 
Q 2256 1581 1919 1581 
Q 1219 1581 811 2004 
Q 403 2428 403 3163 
Q 403 3881 828 4315 
Q 1253 4750 1959 4750 
Q 2769 4750 3195 4129 
Q 3622 3509 3622 2328 
Q 3622 1225 3098 567 
Q 2575 -91 1691 -91 
Q 1453 -91 1209 -44 
Q 966 3 703 97 
z
M 1959 2075 
Q 2384 2075 2632 2365 
Q 2881 2656 2881 3163 
Q 2881 3666 2632 3958 
Q 2384 4250 1959 4250 
Q 1534 4250 1286 3958 
Q 1038 3666 1038 3163 
Q 1038 2656 1286 2365 
Q 1534 2075 1959 2075 
z
" transform="scale(0.015625)"/>
      </defs>
      <use xlink:href="#DejaVuSans-31"/>
      <use xlink:href="#DejaVuSans-39" x="63.623047"/>
      <use xlink:href="#DejaVuSans-32" x="127.246094"/>
     </g>
    </g>
    <g id="line2d_70">
     <path d="M 319.52 65.4 
L 327.52 65.4 
L 335.52 65.4 
" style="fill: none; stroke-dasharray: 5.55,2.4; stroke-dashoffset: 0; stroke: #bcbd22; stroke-width: 1.5"/>
    </g>
    <g id="text_31">
     <!-- 193 -->
     <g transform="translate(341.92 68.2)scale(0.08 -0.08)">
      <use xlink:href="#DejaVuSans-31"/>
      <use xlink:href="#DejaVuSans-39" x="63.623047"/>
      <use xlink:href="#DejaVuSans-33" x="127.246094"/>
     </g>
    </g>
    <g id="line2d_71">
     <path d="M 373.19 41.915 
L 381.19 41.915 
L 389.19 41.915 
" style="fill: none; stroke-dasharray: 5.55,2.4; stroke-dashoffset: 0; stroke: #17becf; stroke-width: 1.5"/>
    </g>
    <g id="text_32">
     <!-- 234 -->
     <g transform="translate(395.59 44.715)scale(0.08 -0.08)">
      <use xlink:href="#DejaVuSans-32"/>
      <use xlink:href="#DejaVuSans-33" x="63.623047"/>
      <use xlink:href="#DejaVuSans-34" x="127.246094"/>
     </g>
    </g>
    <g id="line2d_72">
     <path d="M 373.19 53.6575 
L 381.19 53.6575 
L 389.19 53.6575 
" style="fill: none; stroke-dasharray: 9.6,2.4,1.5,2.4; stroke-dashoffset: 0; stroke: #1f77b4; stroke-width: 1.5"/>
    </g>
    <g id="text_33">
     <!-- 235 -->
     <g transform="translate(395.59 56.4575)scale(0.08 -0.08)">
      <use xlink:href="#DejaVuSans-32"/>
      <use xlink:href="#DejaVuSans-33" x="63.623047"/>
      <use xlink:href="#DejaVuSans-35" x="127.246094"/>
     </g>
    </g>
    <g id="line2d_73">
     <path d="M 373.19 65.4 
L 381.19 65.4 
L 389.19 65.4 
" style="fill: none; stroke-dasharray: 9.6,2.4,1.5,2.4; stroke-dashoffset: 0; stroke: #ff7f0e; stroke-width: 1.5"/>
    </g>
    <g id="text_34">
     <!-- 236 -->
     <g transform="translate(395.59 68.2)scale(0.08 -0.08)">
      <use xlink:href="#DejaVuSans-32"/>
      <use xlink:href="#DejaVuSans-33" x="63.623047"/>
      <use xlink:href="#DejaVuSans-36" x="127.246094"/>
     </g>
    </g>
   </g>
  </g>
  <g id="axes_2">
   <g id="patch_8">
    <path d="M 499.44 318.56425 
L 870.4 318.56425 
L 870.4 31.43625 
L 499.44 31.43625 
L 499.44 318.56425 
z
" style="fill: none"/>
   </g>
   <g id="matplotlib.axis_3">
    <g id="xtick_21">
     <g id="line2d_74">
      <g>
       <use xlink:href="#md39032bed2" x="533.560699" y="318.56425" style="stroke: #000000; stroke-width: 0.8"/>
      </g>
     </g>
     <g id="text_35">
      <!-- $\mathdefault{10^{2}}$ -->
      <g transform="translate(520.360699 336.961906)scale(0.15 -0.15)">
       <use xlink:href="#DejaVuSans-31" transform="translate(0 0.765625)"/>
       <use xlink:href="#DejaVuSans-30" transform="translate(63.623047 0.765625)"/>
       <use xlink:href="#DejaVuSans-32" transform="translate(128.203125 39.046875)scale(0.7)"/>
      </g>
     </g>
    </g>
    <g id="xtick_22">
     <g id="line2d_75">
      <g>
       <use xlink:href="#md39032bed2" x="709.603905" y="318.56425" style="stroke: #000000; stroke-width: 0.8"/>
      </g>
     </g>
     <g id="text_36">
      <!-- $\mathdefault{10^{3}}$ -->
      <g transform="translate(696.403905 336.961906)scale(0.15 -0.15)">
       <use xlink:href="#DejaVuSans-31" transform="translate(0 0.765625)"/>
       <use xlink:href="#DejaVuSans-30" transform="translate(63.623047 0.765625)"/>
       <use xlink:href="#DejaVuSans-33" transform="translate(128.203125 39.046875)scale(0.7)"/>
      </g>
     </g>
    </g>
    <g id="xtick_23">
     <g id="line2d_76">
      <g>
       <use xlink:href="#m00e623f56d" x="506.291261" y="318.56425" style="stroke: #000000; stroke-width: 0.6"/>
      </g>
     </g>
    </g>
    <g id="xtick_24">
     <g id="line2d_77">
      <g>
       <use xlink:href="#m00e623f56d" x="516.500349" y="318.56425" style="stroke: #000000; stroke-width: 0.6"/>
      </g>
     </g>
    </g>
    <g id="xtick_25">
     <g id="line2d_78">
      <g>
       <use xlink:href="#m00e623f56d" x="525.505404" y="318.56425" style="stroke: #000000; stroke-width: 0.6"/>
      </g>
     </g>
    </g>
    <g id="xtick_26">
     <g id="line2d_79">
      <g>
       <use xlink:href="#m00e623f56d" x="586.554985" y="318.56425" style="stroke: #000000; stroke-width: 0.6"/>
      </g>
     </g>
    </g>
    <g id="xtick_27">
     <g id="line2d_80">
      <g>
       <use xlink:href="#m00e623f56d" x="617.554654" y="318.56425" style="stroke: #000000; stroke-width: 0.6"/>
      </g>
     </g>
    </g>
    <g id="xtick_28">
     <g id="line2d_81">
      <g>
       <use xlink:href="#m00e623f56d" x="639.54927" y="318.56425" style="stroke: #000000; stroke-width: 0.6"/>
      </g>
     </g>
    </g>
    <g id="xtick_29">
     <g id="line2d_82">
      <g>
       <use xlink:href="#m00e623f56d" x="656.60962" y="318.56425" style="stroke: #000000; stroke-width: 0.6"/>
      </g>
     </g>
    </g>
    <g id="xtick_30">
     <g id="line2d_83">
      <g>
       <use xlink:href="#m00e623f56d" x="670.54894" y="318.56425" style="stroke: #000000; stroke-width: 0.6"/>
      </g>
     </g>
    </g>
    <g id="xtick_31">
     <g id="line2d_84">
      <g>
       <use xlink:href="#m00e623f56d" x="682.334468" y="318.56425" style="stroke: #000000; stroke-width: 0.6"/>
      </g>
     </g>
    </g>
    <g id="xtick_32">
     <g id="line2d_85">
      <g>
       <use xlink:href="#m00e623f56d" x="692.543556" y="318.56425" style="stroke: #000000; stroke-width: 0.6"/>
      </g>
     </g>
    </g>
    <g id="xtick_33">
     <g id="line2d_86">
      <g>
       <use xlink:href="#m00e623f56d" x="701.54861" y="318.56425" style="stroke: #000000; stroke-width: 0.6"/>
      </g>
     </g>
    </g>
    <g id="xtick_34">
     <g id="line2d_87">
      <g>
       <use xlink:href="#m00e623f56d" x="762.598191" y="318.56425" style="stroke: #000000; stroke-width: 0.6"/>
      </g>
     </g>
    </g>
    <g id="xtick_35">
     <g id="line2d_88">
      <g>
       <use xlink:href="#m00e623f56d" x="793.597861" y="318.56425" style="stroke: #000000; stroke-width: 0.6"/>
      </g>
     </g>
    </g>
    <g id="xtick_36">
     <g id="line2d_89">
      <g>
       <use xlink:href="#m00e623f56d" x="815.592477" y="318.56425" style="stroke: #000000; stroke-width: 0.6"/>
      </g>
     </g>
    </g>
    <g id="xtick_37">
     <g id="line2d_90">
      <g>
       <use xlink:href="#m00e623f56d" x="832.652826" y="318.56425" style="stroke: #000000; stroke-width: 0.6"/>
      </g>
     </g>
    </g>
    <g id="xtick_38">
     <g id="line2d_91">
      <g>
       <use xlink:href="#m00e623f56d" x="846.592147" y="318.56425" style="stroke: #000000; stroke-width: 0.6"/>
      </g>
     </g>
    </g>
    <g id="xtick_39">
     <g id="line2d_92">
      <g>
       <use xlink:href="#m00e623f56d" x="858.377674" y="318.56425" style="stroke: #000000; stroke-width: 0.6"/>
      </g>
     </g>
    </g>
    <g id="xtick_40">
     <g id="line2d_93">
      <g>
       <use xlink:href="#m00e623f56d" x="868.586763" y="318.56425" style="stroke: #000000; stroke-width: 0.6"/>
      </g>
     </g>
    </g>
    <g id="text_37">
     <!-- Page Count -->
     <g transform="translate(627.835625 359.278312)scale(0.2 -0.2)">
      <use xlink:href="#DejaVuSans-50"/>
      <use xlink:href="#DejaVuSans-61" x="55.802734"/>
      <use xlink:href="#DejaVuSans-67" x="117.082031"/>
      <use xlink:href="#DejaVuSans-65" x="180.558594"/>
      <use xlink:href="#DejaVuSans-20" x="242.082031"/>
      <use xlink:href="#DejaVuSans-43" x="273.869141"/>
      <use xlink:href="#DejaVuSans-6f" x="343.693359"/>
      <use xlink:href="#DejaVuSans-75" x="404.875"/>
      <use xlink:href="#DejaVuSans-6e" x="468.253906"/>
      <use xlink:href="#DejaVuSans-74" x="531.632812"/>
     </g>
    </g>
   </g>
   <g id="matplotlib.axis_4">
    <g id="ytick_8">
     <g id="line2d_94">
      <g>
       <use xlink:href="#m6f3f5b6aff" x="499.44" y="318.56425" style="stroke: #000000; stroke-width: 0.8"/>
      </g>
     </g>
     <g id="text_38">
      <!-- 0 -->
      <g transform="translate(482.89625 324.263078)scale(0.15 -0.15)">
       <use xlink:href="#DejaVuSans-30"/>
      </g>
     </g>
    </g>
    <g id="ytick_9">
     <g id="line2d_95">
      <g>
       <use xlink:href="#m6f3f5b6aff" x="499.44" y="284.800807" style="stroke: #000000; stroke-width: 0.8"/>
      </g>
     </g>
     <g id="text_39">
      <!-- 50 -->
      <g transform="translate(473.3525 290.499636)scale(0.15 -0.15)">
       <use xlink:href="#DejaVuSans-35"/>
       <use xlink:href="#DejaVuSans-30" x="63.623047"/>
      </g>
     </g>
    </g>
    <g id="ytick_10">
     <g id="line2d_96">
      <g>
       <use xlink:href="#m6f3f5b6aff" x="499.44" y="251.037365" style="stroke: #000000; stroke-width: 0.8"/>
      </g>
     </g>
     <g id="text_40">
      <!-- 100 -->
      <g transform="translate(463.80875 256.736193)scale(0.15 -0.15)">
       <use xlink:href="#DejaVuSans-31"/>
       <use xlink:href="#DejaVuSans-30" x="63.623047"/>
       <use xlink:href="#DejaVuSans-30" x="127.246094"/>
      </g>
     </g>
    </g>
    <g id="ytick_11">
     <g id="line2d_97">
      <g>
       <use xlink:href="#m6f3f5b6aff" x="499.44" y="217.273922" style="stroke: #000000; stroke-width: 0.8"/>
      </g>
     </g>
     <g id="text_41">
      <!-- 150 -->
      <g transform="translate(463.80875 222.97275)scale(0.15 -0.15)">
       <use xlink:href="#DejaVuSans-31"/>
       <use xlink:href="#DejaVuSans-35" x="63.623047"/>
       <use xlink:href="#DejaVuSans-30" x="127.246094"/>
      </g>
     </g>
    </g>
    <g id="ytick_12">
     <g id="line2d_98">
      <g>
       <use xlink:href="#m6f3f5b6aff" x="499.44" y="183.51048" style="stroke: #000000; stroke-width: 0.8"/>
      </g>
     </g>
     <g id="text_42">
      <!-- 200 -->
      <g transform="translate(463.80875 189.209308)scale(0.15 -0.15)">
       <use xlink:href="#DejaVuSans-32"/>
       <use xlink:href="#DejaVuSans-30" x="63.623047"/>
       <use xlink:href="#DejaVuSans-30" x="127.246094"/>
      </g>
     </g>
    </g>
    <g id="ytick_13">
     <g id="line2d_99">
      <g>
       <use xlink:href="#m6f3f5b6aff" x="499.44" y="149.747037" style="stroke: #000000; stroke-width: 0.8"/>
      </g>
     </g>
     <g id="text_43">
      <!-- 250 -->
      <g transform="translate(463.80875 155.445865)scale(0.15 -0.15)">
       <use xlink:href="#DejaVuSans-32"/>
       <use xlink:href="#DejaVuSans-35" x="63.623047"/>
       <use xlink:href="#DejaVuSans-30" x="127.246094"/>
      </g>
     </g>
    </g>
    <g id="ytick_14">
     <g id="line2d_100">
      <g>
       <use xlink:href="#m6f3f5b6aff" x="499.44" y="115.983594" style="stroke: #000000; stroke-width: 0.8"/>
      </g>
     </g>
     <g id="text_44">
      <!-- 300 -->
      <g transform="translate(463.80875 121.682422)scale(0.15 -0.15)">
       <use xlink:href="#DejaVuSans-33"/>
       <use xlink:href="#DejaVuSans-30" x="63.623047"/>
       <use xlink:href="#DejaVuSans-30" x="127.246094"/>
      </g>
     </g>
    </g>
    <g id="ytick_15">
     <g id="line2d_101">
      <g>
       <use xlink:href="#m6f3f5b6aff" x="499.44" y="82.220152" style="stroke: #000000; stroke-width: 0.8"/>
      </g>
     </g>
     <g id="text_45">
      <!-- 350 -->
      <g transform="translate(463.80875 87.91898)scale(0.15 -0.15)">
       <use xlink:href="#DejaVuSans-33"/>
       <use xlink:href="#DejaVuSans-35" x="63.623047"/>
       <use xlink:href="#DejaVuSans-30" x="127.246094"/>
      </g>
     </g>
    </g>
    <g id="ytick_16">
     <g id="line2d_102">
      <g>
       <use xlink:href="#m6f3f5b6aff" x="499.44" y="48.456709" style="stroke: #000000; stroke-width: 0.8"/>
      </g>
     </g>
     <g id="text_46">
      <!-- 400 -->
      <g transform="translate(463.80875 54.155537)scale(0.15 -0.15)">
       <use xlink:href="#DejaVuSans-34"/>
       <use xlink:href="#DejaVuSans-30" x="63.623047"/>
       <use xlink:href="#DejaVuSans-30" x="127.246094"/>
      </g>
     </g>
    </g>
    <g id="text_47">
     <!-- Count Difference -->
     <g transform="translate(455.649375 259.57525)rotate(-90)scale(0.2 -0.2)">
      <use xlink:href="#DejaVuSans-43"/>
      <use xlink:href="#DejaVuSans-6f" x="69.824219"/>
      <use xlink:href="#DejaVuSans-75" x="131.005859"/>
      <use xlink:href="#DejaVuSans-6e" x="194.384766"/>
      <use xlink:href="#DejaVuSans-74" x="257.763672"/>
      <use xlink:href="#DejaVuSans-20" x="296.972656"/>
      <use xlink:href="#DejaVuSans-44" x="328.759766"/>
      <use xlink:href="#DejaVuSans-69" x="405.761719"/>
      <use xlink:href="#DejaVuSans-66" x="433.544922"/>
      <use xlink:href="#DejaVuSans-66" x="468.75"/>
      <use xlink:href="#DejaVuSans-65" x="503.955078"/>
      <use xlink:href="#DejaVuSans-72" x="565.478516"/>
      <use xlink:href="#DejaVuSans-65" x="604.341797"/>
      <use xlink:href="#DejaVuSans-6e" x="665.865234"/>
      <use xlink:href="#DejaVuSans-63" x="729.244141"/>
      <use xlink:href="#DejaVuSans-65" x="784.224609"/>
     </g>
    </g>
   </g>
   <g id="line2d_103">
    <path d="M 499.44 313.245178 
L 530.43967 313.23887 
L 552.434286 313.250404 
L 569.494635 313.241983 
L 583.433956 313.182715 
L 605.428571 313.099265 
L 636.428241 313.08942 
L 658.422857 313.089352 
L 689.422527 313.081837 
L 711.417143 313.073153 
L 742.416813 313.094809 
L 764.411429 313.091135 
L 795.411098 313.094235 
L 817.405714 314.06438 
L 848.405384 314.062698 
L 870.4 314.027598 
" clip-path="url(#p6e4b56b5c8)" style="fill: none; stroke: #1f77b4; stroke-width: 1.5; stroke-linecap: square"/>
   </g>
   <g id="line2d_104">
    <path d="M 499.44 318.51902 
L 530.43967 318.521607 
L 552.434286 318.521499 
L 569.494635 318.522768 
L 583.433956 318.521742 
L 605.428571 318.519905 
L 636.428241 318.515718 
L 658.422857 318.518338 
L 689.422527 318.520918 
L 711.417143 318.518899 
L 742.416813 318.520803 
L 764.411429 318.519405 
L 795.411098 318.518906 
L 817.405714 318.530723 
L 848.405384 318.524207 
L 870.4 318.52372 
" clip-path="url(#p6e4b56b5c8)" style="fill: none; stroke: #ff7f0e; stroke-width: 1.5; stroke-linecap: square"/>
   </g>
   <g id="line2d_105">
    <path d="M 499.44 318.564209 
L 530.43967 318.564128 
L 552.434286 318.563973 
L 569.494635 318.563028 
L 583.433956 318.33842 
L 605.428571 317.88942 
L 636.428241 317.889521 
L 658.422857 317.88944 
L 689.422527 317.889528 
L 711.417143 317.888981 
L 742.416813 317.889555 
L 764.411429 317.888974 
L 795.411098 317.889082 
L 817.405714 317.888779 
L 848.405384 317.888887 
L 870.4 317.888866 
" clip-path="url(#p6e4b56b5c8)" style="fill: none; stroke: #2ca02c; stroke-width: 1.5; stroke-linecap: square"/>
   </g>
   <g id="line2d_106">
    <path d="M 499.44 318.56425 
L 530.43967 318.564257 
L 552.434286 318.564257 
L 569.494635 318.564257 
L 583.433956 318.560779 
L 605.428571 318.545457 
L 636.428241 318.558706 
L 658.422857 318.548786 
L 689.422527 318.557936 
L 711.417143 318.554607 
L 742.416813 318.55483 
L 764.411429 318.553034 
L 795.411098 318.553601 
L 817.405714 318.08489 
L 848.405384 318.079529 
L 870.4 318.081453 
" clip-path="url(#p6e4b56b5c8)" style="fill: none; stroke: #d62728; stroke-width: 1.5; stroke-linecap: square"/>
   </g>
   <g id="line2d_107">
    <path d="M 499.44 318.56425 
L 530.43967 318.56425 
L 552.434286 318.56425 
L 569.494635 318.564236 
L 583.433956 318.559645 
L 605.428571 318.556363 
L 636.428241 318.561211 
L 658.422857 318.561421 
L 689.422527 318.558071 
L 711.417143 318.560016 
L 742.416813 318.562785 
L 764.411429 318.553155 
L 795.411098 318.556923 
L 817.405714 318.366457 
L 848.405384 318.375546 
L 870.4 318.364877 
" clip-path="url(#p6e4b56b5c8)" style="fill: none; stroke: #9467bd; stroke-width: 1.5; stroke-linecap: square"/>
   </g>
   <g id="line2d_108">
    <path d="M 499.44 318.56425 
L 530.43967 318.56425 
L 552.434286 318.564264 
L 569.494635 318.564236 
L 583.433956 318.562042 
L 605.428571 318.552966 
L 636.428241 318.554925 
L 658.422857 318.553696 
L 689.422527 318.551285 
L 711.417143 318.549077 
L 742.416813 318.551663 
L 764.411429 318.547213 
L 795.411098 318.55092 
L 817.405714 318.083276 
L 848.405384 318.080758 
L 870.4 318.081345 
" clip-path="url(#p6e4b56b5c8)" style="fill: none; stroke: #8c564b; stroke-width: 1.5; stroke-linecap: square"/>
   </g>
   <g id="line2d_109">
    <path d="M 499.44 314.393526 
L 530.43967 314.38674 
L 552.434286 314.394546 
L 569.494635 314.398125 
L 583.433956 314.406025 
L 605.428571 314.458879 
L 636.428241 314.458399 
L 658.422857 314.456576 
L 689.422527 314.456718 
L 711.417143 314.45665 
L 742.416813 314.457852 
L 764.411429 314.488523 
L 795.411098 318.461542 
L 817.405714 318.178435 
L 848.405384 318.153639 
L 870.4 318.167813 
" clip-path="url(#p6e4b56b5c8)" style="fill: none; stroke: #e377c2; stroke-width: 1.5; stroke-linecap: square"/>
   </g>
   <g id="line2d_110">
    <path d="M 499.44 317.514909 
L 530.43967 317.51391 
L 552.434286 317.5152 
L 569.494635 317.514004 
L 583.433956 317.257335 
L 605.428571 316.789009 
L 636.428241 316.784241 
L 658.422857 316.783195 
L 689.422527 316.784106 
L 711.417143 316.783147 
L 742.416813 316.786335 
L 764.411429 316.783228 
L 795.411098 316.783357 
L 817.405714 313.448528 
L 848.405384 313.46175 
L 870.4 313.441458 
" clip-path="url(#p6e4b56b5c8)" style="fill: none; stroke: #7f7f7f; stroke-width: 1.5; stroke-linecap: square"/>
   </g>
   <g id="line2d_111">
    <path d="M 499.44 317.964584 
L 530.43967 318.041477 
L 552.434286 318.074234 
L 569.494635 318.105391 
L 583.433956 318.552109 
L 605.428571 318.560401 
L 636.428241 318.565162 
L 658.422857 318.560124 
L 689.422527 318.551406 
L 711.417143 318.563595 
L 742.416813 318.557929 
L 764.411429 318.542999 
L 795.411098 318.534991 
L 817.405714 318.562731 
L 848.405384 318.553486 
L 870.4 318.548881 
" clip-path="url(#p6e4b56b5c8)" style="fill: none; stroke: #bcbd22; stroke-width: 1.5; stroke-linecap: square"/>
   </g>
   <g id="line2d_112">
    <path d="M 499.44 318.493684 
L 530.43967 318.450015 
L 552.434286 318.385459 
L 569.494635 318.52264 
L 583.433956 317.914337 
L 605.428571 317.894086 
L 636.428241 317.894248 
L 658.422857 317.892817 
L 689.422527 317.90304 
L 711.417143 317.890109 
L 742.416813 317.894795 
L 764.411429 317.906741 
L 795.411098 317.918335 
L 817.405714 317.942908 
L 848.405384 317.897577 
L 870.4 317.90277 
" clip-path="url(#p6e4b56b5c8)" style="fill: none; stroke: #17becf; stroke-width: 1.5; stroke-linecap: square"/>
   </g>
   <g id="line2d_113">
    <path d="M 499.44 318.564527 
L 530.43967 318.557821 
L 552.434286 318.565904 
L 569.494635 318.429716 
L 583.433956 318.564581 
L 605.428571 318.565101 
L 636.428241 318.564439 
L 658.422857 318.564513 
L 689.422527 318.564385 
L 711.417143 318.564979 
L 742.416813 318.565297 
L 764.411429 318.564264 
L 795.411098 318.564817 
L 817.405714 318.564095 
L 848.405384 318.564588 
L 870.4 318.564399 
" clip-path="url(#p6e4b56b5c8)" style="fill: none; stroke-dasharray: 5.55,2.4; stroke-dashoffset: 0; stroke: #1f77b4; stroke-width: 1.5"/>
   </g>
   <g id="line2d_114">
    <path d="M 499.44 318.560678 
L 530.43967 318.564176 
L 552.434286 318.561947 
L 569.494635 318.563798 
L 583.433956 318.469557 
L 605.428571 318.293055 
L 636.428241 318.294791 
L 658.422857 318.295317 
L 689.422527 318.294318 
L 711.417143 318.294257 
L 742.416813 318.296715 
L 764.411429 318.295068 
L 795.411098 318.29654 
L 817.405714 317.59347 
L 848.405384 317.663016 
L 870.4 317.646296 
" clip-path="url(#p6e4b56b5c8)" style="fill: none; stroke-dasharray: 5.55,2.4; stroke-dashoffset: 0; stroke: #ff7f0e; stroke-width: 1.5"/>
   </g>
   <g id="line2d_115">
    <path d="M 499.44 313.245589 
L 530.43967 313.237223 
L 552.434286 313.246906 
L 569.494635 313.2464 
L 583.433956 313.183661 
L 605.428571 313.072012 
L 636.428241 313.087563 
L 658.422857 313.082296 
L 689.422527 313.09129 
L 711.417143 313.083572 
L 742.416813 313.091797 
L 764.411429 313.088738 
L 795.411098 313.098415 
L 817.405714 314.06908 
L 848.405384 314.080539 
L 870.4 314.03115 
" clip-path="url(#p6e4b56b5c8)" style="fill: none; stroke-dasharray: 5.55,2.4; stroke-dashoffset: 0; stroke: #2ca02c; stroke-width: 1.5"/>
   </g>
   <g id="line2d_116">
    <path d="M 499.44 318.564149 
L 530.43967 318.564196 
L 552.434286 318.561063 
L 569.494635 318.564081 
L 583.433956 318.56188 
L 605.428571 318.564014 
L 636.428241 318.563899 
L 658.422857 318.563811 
L 689.422527 318.56402 
L 711.417143 318.564074 
L 742.416813 318.564176 
L 764.411429 318.564277 
L 795.411098 318.563284 
L 817.405714 315.358735 
L 848.405384 315.502527 
L 870.4 315.402223 
" clip-path="url(#p6e4b56b5c8)" style="fill: none; stroke-dasharray: 5.55,2.4; stroke-dashoffset: 0; stroke: #d62728; stroke-width: 1.5"/>
   </g>
   <g id="line2d_117">
    <path d="M 499.44 45.109091 
L 530.43967 45.655694 
L 552.434286 45.240545 
L 569.494635 45.643039 
L 583.433956 45.679592 
L 605.428571 45.693455 
L 636.428241 45.796346 
L 658.422857 45.591131 
L 689.422527 45.941825 
L 711.417143 45.618446 
L 742.416813 46.025593 
L 764.411429 45.50022 
L 795.411098 45.532741 
L 817.405714 318.100941 
L 848.405384 315.604884 
L 870.4 317.137697 
" clip-path="url(#p6e4b56b5c8)" style="fill: none; stroke-dasharray: 5.55,2.4; stroke-dashoffset: 0; stroke: #9467bd; stroke-width: 1.5"/>
   </g>
   <g id="line2d_118">
    <path d="M 499.44 313.241484 
L 530.43967 313.238742 
L 552.434286 313.236858 
L 569.494635 313.24095 
L 583.433956 313.177428 
L 605.428571 313.077495 
L 636.428241 313.085821 
L 658.422857 313.085828 
L 689.422527 313.102081 
L 711.417143 313.102345 
L 742.416813 313.095558 
L 764.411429 313.089683 
L 795.411098 313.079406 
L 817.405714 314.067101 
L 848.405384 314.080424 
L 870.4 314.037389 
" clip-path="url(#p6e4b56b5c8)" style="fill: none; stroke-dasharray: 5.55,2.4; stroke-dashoffset: 0; stroke: #8c564b; stroke-width: 1.5"/>
   </g>
   <g id="line2d_119">
    <path d="M 499.44 313.248331 
L 530.43967 313.241497 
L 552.434286 313.244502 
L 569.494635 313.242814 
L 583.433956 313.184309 
L 605.428571 313.090149 
L 636.428241 313.077265 
L 658.422857 313.07817 
L 689.422527 313.088718 
L 711.417143 313.093931 
L 742.416813 313.09909 
L 764.411429 313.073733 
L 795.411098 313.085848 
L 817.405714 314.060936 
L 848.405384 314.069417 
L 870.4 314.039246 
" clip-path="url(#p6e4b56b5c8)" style="fill: none; stroke-dasharray: 5.55,2.4; stroke-dashoffset: 0; stroke: #e377c2; stroke-width: 1.5"/>
   </g>
   <g id="line2d_120">
    <path d="M 499.44 310.326625 
L 530.43967 310.317759 
L 552.434286 310.323141 
L 569.494635 310.32096 
L 583.433956 310.292139 
L 605.428571 310.17606 
L 636.428241 310.186757 
L 658.422857 310.170071 
L 689.422527 310.166343 
L 711.417143 310.196426 
L 742.416813 310.178403 
L 764.411429 310.177283 
L 795.411098 310.186102 
L 817.405714 312.819569 
L 848.405384 312.84375 
L 870.4 312.791431 
" clip-path="url(#p6e4b56b5c8)" style="fill: none; stroke-dasharray: 5.55,2.4; stroke-dashoffset: 0; stroke: #7f7f7f; stroke-width: 1.5"/>
   </g>
   <g id="line2d_121">
    <path d="M 499.44 313.241261 
L 530.43967 313.241389 
L 552.434286 313.248864 
L 569.494635 313.244192 
L 583.433956 313.193195 
L 605.428571 313.088346 
L 636.428241 313.094154 
L 658.422857 313.096686 
L 689.422527 313.091061 
L 711.417143 313.093026 
L 742.416813 313.087144 
L 764.411429 313.078366 
L 795.411098 313.079014 
L 817.405714 314.069532 
L 848.405384 314.079614 
L 870.4 314.038105 
" clip-path="url(#p6e4b56b5c8)" style="fill: none; stroke-dasharray: 5.55,2.4; stroke-dashoffset: 0; stroke: #bcbd22; stroke-width: 1.5"/>
   </g>
   <g id="line2d_122">
    <path d="M 499.44 313.239174 
L 530.43967 313.243712 
L 552.434286 313.238263 
L 569.494635 313.242362 
L 583.433956 313.192101 
L 605.428571 313.091459 
L 636.428241 313.097854 
L 658.422857 313.095855 
L 689.422527 313.085686 
L 711.417143 313.091453 
L 742.416813 313.093688 
L 764.411429 313.087219 
L 795.411098 313.111346 
L 817.405714 314.068567 
L 848.405384 314.08087 
L 870.4 314.030846 
" clip-path="url(#p6e4b56b5c8)" style="fill: none; stroke-dasharray: 5.55,2.4; stroke-dashoffset: 0; stroke: #17becf; stroke-width: 1.5"/>
   </g>
   <g id="line2d_123">
    <path d="M 499.44 318.554979 
L 530.43967 318.548624 
L 552.434286 318.559179 
L 569.494635 318.557173 
L 583.433956 318.323794 
L 605.428571 317.849329 
L 636.428241 317.843623 
L 658.422857 317.874213 
L 689.422527 317.862078 
L 711.417143 317.880304 
L 742.416813 317.885868 
L 764.411429 317.868115 
L 795.411098 318.504786 
L 817.405714 314.993124 
L 848.405384 315.009628 
L 870.4 315.014537 
" clip-path="url(#p6e4b56b5c8)" style="fill: none; stroke-dasharray: 9.6,2.4,1.5,2.4; stroke-dashoffset: 0; stroke: #1f77b4; stroke-width: 1.5"/>
   </g>
   <g id="line2d_124">
    <path d="M 499.44 318.564203 
L 530.43967 318.564128 
L 552.434286 318.563939 
L 569.494635 318.562994 
L 583.433956 318.33428 
L 605.428571 317.865961 
L 636.428241 317.861329 
L 658.422857 317.860384 
L 689.422527 317.861025 
L 711.417143 317.870418 
L 742.416813 317.864989 
L 764.411429 317.844792 
L 795.411098 317.836979 
L 817.405714 314.335669 
L 848.405384 314.380412 
L 870.4 314.289035 
" clip-path="url(#p6e4b56b5c8)" style="fill: none; stroke-dasharray: 9.6,2.4,1.5,2.4; stroke-dashoffset: 0; stroke: #ff7f0e; stroke-width: 1.5"/>
   </g>
   <g id="line2d_125">
    <path d="M 499.44 317.889366 
L 530.43967 317.883977 
L 552.434286 317.888475 
L 569.494635 317.885132 
L 583.433956 317.868412 
L 605.428571 317.86636 
L 636.428241 317.866407 
L 658.422857 317.866555 
L 689.422527 317.866164 
L 711.417143 317.866441 
L 742.416813 317.86721 
L 764.411429 317.869851 
L 795.411098 318.142794 
L 817.405714 318.22621 
L 848.405384 318.18853 
L 870.4 318.159541 
" clip-path="url(#p6e4b56b5c8)" style="fill: none; stroke-dasharray: 9.6,2.4,1.5,2.4; stroke-dashoffset: 0; stroke: #2ca02c; stroke-width: 1.5"/>
   </g>
   <g id="line2d_126">
    <path d="M 499.44 312.619696 
L 530.43967 312.625017 
L 552.434286 312.630311 
L 569.494635 312.628691 
L 583.433956 312.566147 
L 605.428571 312.521911 
L 636.428241 312.521965 
L 658.422857 312.52605 
L 689.422527 312.514645 
L 711.417143 312.52029 
L 742.416813 312.508257 
L 764.411429 312.516056 
L 795.411098 312.517589 
L 817.405714 318.02053 
L 848.405384 317.875476 
L 870.4 317.93101 
" clip-path="url(#p6e4b56b5c8)" style="fill: none; stroke-dasharray: 9.6,2.4,1.5,2.4; stroke-dashoffset: 0; stroke: #d62728; stroke-width: 1.5"/>
   </g>
   <g id="line2d_127">
    <path d="M 499.44 318.559895 
L 530.43967 318.557815 
L 552.434286 318.560313 
L 569.494635 318.558915 
L 583.433956 318.313867 
L 605.428571 317.86168 
L 636.428241 317.860876 
L 658.422857 317.858351 
L 689.422527 317.864503 
L 711.417143 317.863078 
L 742.416813 317.86428 
L 764.411429 317.861957 
L 795.411098 318.111482 
L 817.405714 314.617162 
L 848.405384 314.675458 
L 870.4 314.611895 
" clip-path="url(#p6e4b56b5c8)" style="fill: none; stroke-dasharray: 9.6,2.4,1.5,2.4; stroke-dashoffset: 0; stroke: #9467bd; stroke-width: 1.5"/>
   </g>
   <g id="line2d_128">
    <path d="M 499.44 317.890933 
L 530.43967 317.891014 
L 552.434286 317.891014 
L 569.494635 317.891027 
L 583.433956 317.890629 
L 605.428571 317.890318 
L 636.428241 317.890568 
L 658.422857 317.890534 
L 689.422527 317.890615 
L 711.417143 317.890656 
L 742.416813 317.891419 
L 764.411429 317.896342 
L 795.411098 318.558443 
L 817.405714 318.559827 
L 848.405384 318.557754 
L 870.4 318.559847 
" clip-path="url(#p6e4b56b5c8)" style="fill: none; stroke-dasharray: 9.6,2.4,1.5,2.4; stroke-dashoffset: 0; stroke: #8c564b; stroke-width: 1.5"/>
   </g>
   <g id="line2d_129">
    <path d="M 499.44 316.539949 
L 530.43967 316.536087 
L 552.434286 316.541779 
L 569.494635 316.536249 
L 583.433956 316.22969 
L 605.428571 315.668008 
L 636.428241 315.674315 
L 658.422857 315.672972 
L 689.422527 315.673161 
L 711.417143 315.670156 
L 742.416813 315.673552 
L 764.411429 315.689171 
L 795.411098 317.668182 
L 817.405714 313.897258 
L 848.405384 313.913646 
L 870.4 313.852737 
" clip-path="url(#p6e4b56b5c8)" style="fill: none; stroke-dasharray: 9.6,2.4,1.5,2.4; stroke-dashoffset: 0; stroke: #e377c2; stroke-width: 1.5"/>
   </g>
   <g id="line2d_130">
    <path d="M 499.44 318.561117 
L 530.43967 318.560894 
L 552.434286 318.561083 
L 569.494635 318.559827 
L 583.433956 318.314468 
L 605.428571 317.861889 
L 636.428241 317.864172 
L 658.422857 317.859904 
L 689.422527 317.863726 
L 711.417143 317.858857 
L 742.416813 317.862416 
L 764.411429 317.862038 
L 795.411098 317.85779 
L 817.405714 314.334582 
L 848.405384 314.357345 
L 870.4 314.338222 
" clip-path="url(#p6e4b56b5c8)" style="fill: none; stroke-dasharray: 9.6,2.4,1.5,2.4; stroke-dashoffset: 0; stroke: #7f7f7f; stroke-width: 1.5"/>
   </g>
   <g id="line2d_131">
    <path d="M 499.44 317.894897 
L 530.43967 317.889879 
L 552.434286 317.892216 
L 569.494635 317.889163 
L 583.433956 317.890284 
L 605.428571 317.888981 
L 636.428241 317.888968 
L 658.422857 317.888988 
L 689.422527 317.888981 
L 711.417143 317.889028 
L 742.416813 317.889589 
L 764.411429 317.891621 
L 795.411098 317.912528 
L 817.405714 317.961525 
L 848.405384 317.901656 
L 870.4 317.898604 
" clip-path="url(#p6e4b56b5c8)" style="fill: none; stroke-dasharray: 9.6,2.4,1.5,2.4; stroke-dashoffset: 0; stroke: #bcbd22; stroke-width: 1.5"/>
   </g>
   <g id="line2d_132">
    <path d="M 499.44 318.564203 
L 530.43967 318.564122 
L 552.434286 318.563939 
L 569.494635 318.563008 
L 583.433956 318.338379 
L 605.428571 317.88942 
L 636.428241 317.889521 
L 658.422857 317.889447 
L 689.422527 317.889528 
L 711.417143 317.888981 
L 742.416813 317.889548 
L 764.411429 317.888981 
L 795.411098 317.889082 
L 817.405714 317.889028 
L 848.405384 317.889022 
L 870.4 317.889062 
" clip-path="url(#p6e4b56b5c8)" style="fill: none; stroke-dasharray: 9.6,2.4,1.5,2.4; stroke-dashoffset: 0; stroke: #17becf; stroke-width: 1.5"/>
   </g>
   <g id="line2d_133">
    <path d="M 499.44 318.56425 
L 530.43967 318.564257 
L 552.434286 318.56427 
L 569.494635 318.564223 
L 583.433956 318.54358 
L 605.428571 318.55664 
L 636.428241 318.537766 
L 658.422857 318.545315 
L 689.422527 318.544843 
L 711.417143 318.531108 
L 742.416813 318.517299 
L 764.411429 318.545255 
L 795.411098 318.561616 
L 817.405714 318.544431 
L 848.405384 318.542993 
L 870.4 318.514793 
" clip-path="url(#p6e4b56b5c8)" style="fill: none; stroke-dasharray: 1.5,2.475; stroke-dashoffset: 0; stroke: #1f77b4; stroke-width: 1.5"/>
   </g>
   <g id="line2d_134">
    <path d="M 499.44 313.242132 
L 530.43967 313.242159 
L 552.434286 313.243523 
L 569.494635 313.243138 
L 583.433956 313.183694 
L 605.428571 313.093262 
L 636.428241 313.08678 
L 658.422857 313.106511 
L 689.422527 313.083018 
L 711.417143 313.087084 
L 742.416813 313.084707 
L 764.411429 313.092904 
L 795.411098 313.09389 
L 817.405714 314.06781 
L 848.405384 314.064907 
L 870.4 314.035688 
" clip-path="url(#p6e4b56b5c8)" style="fill: none; stroke-dasharray: 1.5,2.475; stroke-dashoffset: 0; stroke: #ff7f0e; stroke-width: 1.5"/>
   </g>
   <g id="line2d_135">
    <path d="M 499.44 313.245286 
L 530.43967 313.242497 
L 552.434286 313.242693 
L 569.494635 313.244536 
L 583.433956 313.195019 
L 605.428571 313.095423 
L 636.428241 313.08605 
L 658.422857 313.087637 
L 689.422527 313.099022 
L 711.417143 313.091959 
L 742.416813 313.093053 
L 764.411429 313.092108 
L 795.411098 313.078487 
L 817.405714 314.063198 
L 848.405384 314.078135 
L 870.4 314.034985 
" clip-path="url(#p6e4b56b5c8)" style="fill: none; stroke-dasharray: 1.5,2.475; stroke-dashoffset: 0; stroke: #2ca02c; stroke-width: 1.5"/>
   </g>
   <g id="line2d_136">
    <path d="M 499.44 313.24037 
L 530.43967 313.237932 
L 552.434286 313.248068 
L 569.494635 313.242645 
L 583.433956 313.200022 
L 605.428571 313.077285 
L 636.428241 313.08364 
L 658.422857 313.09464 
L 689.422527 313.091763 
L 711.417143 313.077299 
L 742.416813 313.097591 
L 764.411429 313.080574 
L 795.411098 313.078528 
L 817.405714 314.066676 
L 848.405384 314.078243 
L 870.4 314.036978 
" clip-path="url(#p6e4b56b5c8)" style="fill: none; stroke-dasharray: 1.5,2.475; stroke-dashoffset: 0; stroke: #d62728; stroke-width: 1.5"/>
   </g>
   <g id="line2d_137">
    <path d="M 499.44 313.24561 
L 530.43967 313.245063 
L 552.434286 313.244131 
L 569.494635 313.237216 
L 583.433956 313.194661 
L 605.428571 313.090717 
L 636.428241 313.099941 
L 658.422857 313.085794 
L 689.422527 313.084004 
L 711.417143 313.09071 
L 742.416813 313.074578 
L 764.411429 313.086246 
L 795.411098 313.078994 
L 817.405714 314.070917 
L 848.405384 314.078648 
L 870.4 314.039071 
" clip-path="url(#p6e4b56b5c8)" style="fill: none; stroke-dasharray: 1.5,2.475; stroke-dashoffset: 0; stroke: #9467bd; stroke-width: 1.5"/>
   </g>
   <g id="line2d_138">
    <path d="M 499.44 313.236622 
L 530.43967 313.244874 
L 552.434286 313.237358 
L 569.494635 313.237209 
L 583.433956 313.192405 
L 605.428571 313.082769 
L 636.428241 313.08341 
L 658.422857 313.081121 
L 689.422527 313.086766 
L 711.417143 313.084889 
L 742.416813 313.081479 
L 764.411429 313.099434 
L 795.411098 313.080351 
L 817.405714 314.066142 
L 848.405384 314.081106 
L 870.4 314.036377 
" clip-path="url(#p6e4b56b5c8)" style="fill: none; stroke-dasharray: 1.5,2.475; stroke-dashoffset: 0; stroke: #8c564b; stroke-width: 1.5"/>
   </g>
   <g id="line2d_139">
    <path d="M 499.44 313.242544 
L 530.43967 313.240775 
L 552.434286 313.246528 
L 569.494635 313.242571 
L 583.433956 313.184417 
L 605.428571 313.09283 
L 636.428241 313.096098 
L 658.422857 313.090082 
L 689.422527 313.087043 
L 711.417143 313.08262 
L 742.416813 313.098982 
L 764.411429 313.088286 
L 795.411098 313.091047 
L 817.405714 314.071599 
L 848.405384 314.071997 
L 870.4 314.036079 
" clip-path="url(#p6e4b56b5c8)" style="fill: none; stroke-dasharray: 1.5,2.475; stroke-dashoffset: 0; stroke: #e377c2; stroke-width: 1.5"/>
   </g>
   <g id="line2d_140">
    <path d="M 569.494635 318.56425 
L 569.494635 31.43625 
" clip-path="url(#p6e4b56b5c8)" style="fill: none; stroke: #ff0000; stroke-width: 1.5; stroke-linecap: square"/>
   </g>
   <g id="line2d_141">
    <path d="M 795.411098 318.56425 
L 795.411098 31.43625 
" clip-path="url(#p6e4b56b5c8)" style="fill: none; stroke: #008000; stroke-width: 1.5; stroke-linecap: square"/>
   </g>
   <g id="patch_9">
    <path d="M 499.44 318.56425 
L 499.44 31.43625 
" style="fill: none; stroke: #000000; stroke-width: 0.8; stroke-linejoin: miter; stroke-linecap: square"/>
   </g>
   <g id="patch_10">
    <path d="M 870.4 318.56425 
L 870.4 31.43625 
" style="fill: none; stroke: #000000; stroke-width: 0.8; stroke-linejoin: miter; stroke-linecap: square"/>
   </g>
   <g id="patch_11">
    <path d="M 499.44 318.56425 
L 870.4 318.56425 
" style="fill: none; stroke: #000000; stroke-width: 0.8; stroke-linejoin: miter; stroke-linecap: square"/>
   </g>
   <g id="patch_12">
    <path d="M 499.44 31.43625 
L 870.4 31.43625 
" style="fill: none; stroke: #000000; stroke-width: 0.8; stroke-linejoin: miter; stroke-linecap: square"/>
   </g>
   <g id="text_48">
    <!-- Fire Storm (Store) -->
    <g transform="translate(578.7275 25.43625)scale(0.24 -0.24)">
     <defs>
      <path id="DejaVuSans-46" d="M 628 4666 
L 3309 4666 
L 3309 4134 
L 1259 4134 
L 1259 2759 
L 3109 2759 
L 3109 2228 
L 1259 2228 
L 1259 0 
L 628 0 
L 628 4666 
z
" transform="scale(0.015625)"/>
     </defs>
     <use xlink:href="#DejaVuSans-46"/>
     <use xlink:href="#DejaVuSans-69" x="50.269531"/>
     <use xlink:href="#DejaVuSans-72" x="78.052734"/>
     <use xlink:href="#DejaVuSans-65" x="116.916016"/>
     <use xlink:href="#DejaVuSans-20" x="178.439453"/>
     <use xlink:href="#DejaVuSans-53" x="210.226562"/>
     <use xlink:href="#DejaVuSans-74" x="273.703125"/>
     <use xlink:href="#DejaVuSans-6f" x="312.912109"/>
     <use xlink:href="#DejaVuSans-72" x="374.09375"/>
     <use xlink:href="#DejaVuSans-6d" x="413.457031"/>
     <use xlink:href="#DejaVuSans-20" x="510.869141"/>
     <use xlink:href="#DejaVuSans-28" x="542.65625"/>
     <use xlink:href="#DejaVuSans-53" x="581.669922"/>
     <use xlink:href="#DejaVuSans-74" x="645.146484"/>
     <use xlink:href="#DejaVuSans-6f" x="684.355469"/>
     <use xlink:href="#DejaVuSans-72" x="745.537109"/>
     <use xlink:href="#DejaVuSans-65" x="784.400391"/>
     <use xlink:href="#DejaVuSans-29" x="845.923828"/>
    </g>
   </g>
   <g id="legend_2">
    <g id="patch_13">
     <path d="M 565.76 217.299 
L 864.8 217.299 
Q 866.4 217.299 866.4 215.699 
L 866.4 134.3015 
Q 866.4 132.7015 864.8 132.7015 
L 565.76 132.7015 
Q 564.16 132.7015 564.16 134.3015 
L 564.16 215.699 
Q 564.16 217.299 565.76 217.299 
z
" style="fill: #ffffff; opacity: 0.8; stroke: #cccccc; stroke-linejoin: miter"/>
    </g>
    <g id="line2d_142">
     <path d="M 567.36 139.18025 
L 575.36 139.18025 
L 583.36 139.18025 
" style="fill: none; stroke: #1f77b4; stroke-width: 1.5; stroke-linecap: square"/>
    </g>
    <g id="text_49">
     <!-- 2 -->
     <g transform="translate(589.76 141.98025)scale(0.08 -0.08)">
      <use xlink:href="#DejaVuSans-32"/>
     </g>
    </g>
    <g id="line2d_143">
     <path d="M 567.36 150.92275 
L 575.36 150.92275 
L 583.36 150.92275 
" style="fill: none; stroke: #ff7f0e; stroke-width: 1.5; stroke-linecap: square"/>
    </g>
    <g id="text_50">
     <!-- 3 -->
     <g transform="translate(589.76 153.72275)scale(0.08 -0.08)">
      <use xlink:href="#DejaVuSans-33"/>
     </g>
    </g>
    <g id="line2d_144">
     <path d="M 567.36 162.66525 
L 575.36 162.66525 
L 583.36 162.66525 
" style="fill: none; stroke: #2ca02c; stroke-width: 1.5; stroke-linecap: square"/>
    </g>
    <g id="text_51">
     <!-- 5 -->
     <g transform="translate(589.76 165.46525)scale(0.08 -0.08)">
      <use xlink:href="#DejaVuSans-35"/>
     </g>
    </g>
    <g id="line2d_145">
     <path d="M 567.36 174.40775 
L 575.36 174.40775 
L 583.36 174.40775 
" style="fill: none; stroke: #d62728; stroke-width: 1.5; stroke-linecap: square"/>
    </g>
    <g id="text_52">
     <!-- 8 -->
     <g transform="translate(589.76 177.20775)scale(0.08 -0.08)">
      <use xlink:href="#DejaVuSans-38"/>
     </g>
    </g>
    <g id="line2d_146">
     <path d="M 567.36 186.15025 
L 575.36 186.15025 
L 583.36 186.15025 
" style="fill: none; stroke: #9467bd; stroke-width: 1.5; stroke-linecap: square"/>
    </g>
    <g id="text_53">
     <!-- 9 -->
     <g transform="translate(589.76 188.95025)scale(0.08 -0.08)">
      <use xlink:href="#DejaVuSans-39"/>
     </g>
    </g>
    <g id="line2d_147">
     <path d="M 567.36 197.89275 
L 575.36 197.89275 
L 583.36 197.89275 
" style="fill: none; stroke: #8c564b; stroke-width: 1.5; stroke-linecap: square"/>
    </g>
    <g id="text_54">
     <!-- 11 -->
     <g transform="translate(589.76 200.69275)scale(0.08 -0.08)">
      <use xlink:href="#DejaVuSans-31"/>
      <use xlink:href="#DejaVuSans-31" x="63.623047"/>
     </g>
    </g>
    <g id="line2d_148">
     <path d="M 567.36 209.63525 
L 575.36 209.63525 
L 583.36 209.63525 
" style="fill: none; stroke: #e377c2; stroke-width: 1.5; stroke-linecap: square"/>
    </g>
    <g id="text_55">
     <!-- 30 -->
     <g transform="translate(589.76 212.43525)scale(0.08 -0.08)">
      <use xlink:href="#DejaVuSans-33"/>
      <use xlink:href="#DejaVuSans-30" x="63.623047"/>
     </g>
    </g>
    <g id="line2d_149">
     <path d="M 615.94 139.18025 
L 623.94 139.18025 
L 631.94 139.18025 
" style="fill: none; stroke: #7f7f7f; stroke-width: 1.5; stroke-linecap: square"/>
    </g>
    <g id="text_56">
     <!-- 31 -->
     <g transform="translate(638.34 141.98025)scale(0.08 -0.08)">
      <use xlink:href="#DejaVuSans-33"/>
      <use xlink:href="#DejaVuSans-31" x="63.623047"/>
     </g>
    </g>
    <g id="line2d_150">
     <path d="M 615.94 150.92275 
L 623.94 150.92275 
L 631.94 150.92275 
" style="fill: none; stroke: #bcbd22; stroke-width: 1.5; stroke-linecap: square"/>
    </g>
    <g id="text_57">
     <!-- 34 -->
     <g transform="translate(638.34 153.72275)scale(0.08 -0.08)">
      <use xlink:href="#DejaVuSans-33"/>
      <use xlink:href="#DejaVuSans-34" x="63.623047"/>
     </g>
    </g>
    <g id="line2d_151">
     <path d="M 615.94 162.66525 
L 623.94 162.66525 
L 631.94 162.66525 
" style="fill: none; stroke: #17becf; stroke-width: 1.5; stroke-linecap: square"/>
    </g>
    <g id="text_58">
     <!-- 35 -->
     <g transform="translate(638.34 165.46525)scale(0.08 -0.08)">
      <use xlink:href="#DejaVuSans-33"/>
      <use xlink:href="#DejaVuSans-35" x="63.623047"/>
     </g>
    </g>
    <g id="line2d_152">
     <path d="M 615.94 174.40775 
L 623.94 174.40775 
L 631.94 174.40775 
" style="fill: none; stroke-dasharray: 5.55,2.4; stroke-dashoffset: 0; stroke: #1f77b4; stroke-width: 1.5"/>
    </g>
    <g id="text_59">
     <!-- 36 -->
     <g transform="translate(638.34 177.20775)scale(0.08 -0.08)">
      <use xlink:href="#DejaVuSans-33"/>
      <use xlink:href="#DejaVuSans-36" x="63.623047"/>
     </g>
    </g>
    <g id="line2d_153">
     <path d="M 615.94 186.15025 
L 623.94 186.15025 
L 631.94 186.15025 
" style="fill: none; stroke-dasharray: 5.55,2.4; stroke-dashoffset: 0; stroke: #ff7f0e; stroke-width: 1.5"/>
    </g>
    <g id="text_60">
     <!-- 58 -->
     <g transform="translate(638.34 188.95025)scale(0.08 -0.08)">
      <use xlink:href="#DejaVuSans-35"/>
      <use xlink:href="#DejaVuSans-38" x="63.623047"/>
     </g>
    </g>
    <g id="line2d_154">
     <path d="M 615.94 197.89275 
L 623.94 197.89275 
L 631.94 197.89275 
" style="fill: none; stroke-dasharray: 5.55,2.4; stroke-dashoffset: 0; stroke: #2ca02c; stroke-width: 1.5"/>
    </g>
    <g id="text_61">
     <!-- 63 -->
     <g transform="translate(638.34 200.69275)scale(0.08 -0.08)">
      <use xlink:href="#DejaVuSans-36"/>
      <use xlink:href="#DejaVuSans-33" x="63.623047"/>
     </g>
    </g>
    <g id="line2d_155">
     <path d="M 664.52 139.18025 
L 672.52 139.18025 
L 680.52 139.18025 
" style="fill: none; stroke-dasharray: 5.55,2.4; stroke-dashoffset: 0; stroke: #d62728; stroke-width: 1.5"/>
    </g>
    <g id="text_62">
     <!-- 81 -->
     <g transform="translate(686.92 141.98025)scale(0.08 -0.08)">
      <use xlink:href="#DejaVuSans-38"/>
      <use xlink:href="#DejaVuSans-31" x="63.623047"/>
     </g>
    </g>
    <g id="line2d_156">
     <path d="M 664.52 150.92275 
L 672.52 150.92275 
L 680.52 150.92275 
" style="fill: none; stroke-dasharray: 5.55,2.4; stroke-dashoffset: 0; stroke: #9467bd; stroke-width: 1.5"/>
    </g>
    <g id="text_63">
     <!-- 90 -->
     <g transform="translate(686.92 153.72275)scale(0.08 -0.08)">
      <use xlink:href="#DejaVuSans-39"/>
      <use xlink:href="#DejaVuSans-30" x="63.623047"/>
     </g>
    </g>
    <g id="line2d_157">
     <path d="M 664.52 162.66525 
L 672.52 162.66525 
L 680.52 162.66525 
" style="fill: none; stroke-dasharray: 5.55,2.4; stroke-dashoffset: 0; stroke: #8c564b; stroke-width: 1.5"/>
    </g>
    <g id="text_64">
     <!-- 109 -->
     <g transform="translate(686.92 165.46525)scale(0.08 -0.08)">
      <use xlink:href="#DejaVuSans-31"/>
      <use xlink:href="#DejaVuSans-30" x="63.623047"/>
      <use xlink:href="#DejaVuSans-39" x="127.246094"/>
     </g>
    </g>
    <g id="line2d_158">
     <path d="M 664.52 174.40775 
L 672.52 174.40775 
L 680.52 174.40775 
" style="fill: none; stroke-dasharray: 5.55,2.4; stroke-dashoffset: 0; stroke: #e377c2; stroke-width: 1.5"/>
    </g>
    <g id="text_65">
     <!-- 110 -->
     <g transform="translate(686.92 177.20775)scale(0.08 -0.08)">
      <use xlink:href="#DejaVuSans-31"/>
      <use xlink:href="#DejaVuSans-31" x="63.623047"/>
      <use xlink:href="#DejaVuSans-30" x="127.246094"/>
     </g>
    </g>
    <g id="line2d_159">
     <path d="M 664.52 186.15025 
L 672.52 186.15025 
L 680.52 186.15025 
" style="fill: none; stroke-dasharray: 5.55,2.4; stroke-dashoffset: 0; stroke: #7f7f7f; stroke-width: 1.5"/>
    </g>
    <g id="text_66">
     <!-- 113 -->
     <g transform="translate(686.92 188.95025)scale(0.08 -0.08)">
      <use xlink:href="#DejaVuSans-31"/>
      <use xlink:href="#DejaVuSans-31" x="63.623047"/>
      <use xlink:href="#DejaVuSans-33" x="127.246094"/>
     </g>
    </g>
    <g id="line2d_160">
     <path d="M 664.52 197.89275 
L 672.52 197.89275 
L 680.52 197.89275 
" style="fill: none; stroke-dasharray: 5.55,2.4; stroke-dashoffset: 0; stroke: #bcbd22; stroke-width: 1.5"/>
    </g>
    <g id="text_67">
     <!-- 118 -->
     <g transform="translate(686.92 200.69275)scale(0.08 -0.08)">
      <use xlink:href="#DejaVuSans-31"/>
      <use xlink:href="#DejaVuSans-31" x="63.623047"/>
      <use xlink:href="#DejaVuSans-38" x="127.246094"/>
     </g>
    </g>
    <g id="line2d_161">
     <path d="M 718.19 139.18025 
L 726.19 139.18025 
L 734.19 139.18025 
" style="fill: none; stroke-dasharray: 5.55,2.4; stroke-dashoffset: 0; stroke: #17becf; stroke-width: 1.5"/>
    </g>
    <g id="text_68">
     <!-- 130 -->
     <g transform="translate(740.59 141.98025)scale(0.08 -0.08)">
      <use xlink:href="#DejaVuSans-31"/>
      <use xlink:href="#DejaVuSans-33" x="63.623047"/>
      <use xlink:href="#DejaVuSans-30" x="127.246094"/>
     </g>
    </g>
    <g id="line2d_162">
     <path d="M 718.19 150.92275 
L 726.19 150.92275 
L 734.19 150.92275 
" style="fill: none; stroke-dasharray: 9.6,2.4,1.5,2.4; stroke-dashoffset: 0; stroke: #1f77b4; stroke-width: 1.5"/>
    </g>
    <g id="text_69">
     <!-- 160 -->
     <g transform="translate(740.59 153.72275)scale(0.08 -0.08)">
      <use xlink:href="#DejaVuSans-31"/>
      <use xlink:href="#DejaVuSans-36" x="63.623047"/>
      <use xlink:href="#DejaVuSans-30" x="127.246094"/>
     </g>
    </g>
    <g id="line2d_163">
     <path d="M 718.19 162.66525 
L 726.19 162.66525 
L 734.19 162.66525 
" style="fill: none; stroke-dasharray: 9.6,2.4,1.5,2.4; stroke-dashoffset: 0; stroke: #ff7f0e; stroke-width: 1.5"/>
    </g>
    <g id="text_70">
     <!-- 161 -->
     <g transform="translate(740.59 165.46525)scale(0.08 -0.08)">
      <use xlink:href="#DejaVuSans-31"/>
      <use xlink:href="#DejaVuSans-36" x="63.623047"/>
      <use xlink:href="#DejaVuSans-31" x="127.246094"/>
     </g>
    </g>
    <g id="line2d_164">
     <path d="M 718.19 174.40775 
L 726.19 174.40775 
L 734.19 174.40775 
" style="fill: none; stroke-dasharray: 9.6,2.4,1.5,2.4; stroke-dashoffset: 0; stroke: #2ca02c; stroke-width: 1.5"/>
    </g>
    <g id="text_71">
     <!-- 162 -->
     <g transform="translate(740.59 177.20775)scale(0.08 -0.08)">
      <use xlink:href="#DejaVuSans-31"/>
      <use xlink:href="#DejaVuSans-36" x="63.623047"/>
      <use xlink:href="#DejaVuSans-32" x="127.246094"/>
     </g>
    </g>
    <g id="line2d_165">
     <path d="M 718.19 186.15025 
L 726.19 186.15025 
L 734.19 186.15025 
" style="fill: none; stroke-dasharray: 9.6,2.4,1.5,2.4; stroke-dashoffset: 0; stroke: #d62728; stroke-width: 1.5"/>
    </g>
    <g id="text_72">
     <!-- 164 -->
     <g transform="translate(740.59 188.95025)scale(0.08 -0.08)">
      <use xlink:href="#DejaVuSans-31"/>
      <use xlink:href="#DejaVuSans-36" x="63.623047"/>
      <use xlink:href="#DejaVuSans-34" x="127.246094"/>
     </g>
    </g>
    <g id="line2d_166">
     <path d="M 718.19 197.89275 
L 726.19 197.89275 
L 734.19 197.89275 
" style="fill: none; stroke-dasharray: 9.6,2.4,1.5,2.4; stroke-dashoffset: 0; stroke: #9467bd; stroke-width: 1.5"/>
    </g>
    <g id="text_73">
     <!-- 167 -->
     <g transform="translate(740.59 200.69275)scale(0.08 -0.08)">
      <use xlink:href="#DejaVuSans-31"/>
      <use xlink:href="#DejaVuSans-36" x="63.623047"/>
      <use xlink:href="#DejaVuSans-37" x="127.246094"/>
     </g>
    </g>
    <g id="line2d_167">
     <path d="M 771.86 139.18025 
L 779.86 139.18025 
L 787.86 139.18025 
" style="fill: none; stroke-dasharray: 9.6,2.4,1.5,2.4; stroke-dashoffset: 0; stroke: #8c564b; stroke-width: 1.5"/>
    </g>
    <g id="text_74">
     <!-- 168 -->
     <g transform="translate(794.26 141.98025)scale(0.08 -0.08)">
      <use xlink:href="#DejaVuSans-31"/>
      <use xlink:href="#DejaVuSans-36" x="63.623047"/>
      <use xlink:href="#DejaVuSans-38" x="127.246094"/>
     </g>
    </g>
    <g id="line2d_168">
     <path d="M 771.86 150.92275 
L 779.86 150.92275 
L 787.86 150.92275 
" style="fill: none; stroke-dasharray: 9.6,2.4,1.5,2.4; stroke-dashoffset: 0; stroke: #e377c2; stroke-width: 1.5"/>
    </g>
    <g id="text_75">
     <!-- 172 -->
     <g transform="translate(794.26 153.72275)scale(0.08 -0.08)">
      <use xlink:href="#DejaVuSans-31"/>
      <use xlink:href="#DejaVuSans-37" x="63.623047"/>
      <use xlink:href="#DejaVuSans-32" x="127.246094"/>
     </g>
    </g>
    <g id="line2d_169">
     <path d="M 771.86 162.66525 
L 779.86 162.66525 
L 787.86 162.66525 
" style="fill: none; stroke-dasharray: 9.6,2.4,1.5,2.4; stroke-dashoffset: 0; stroke: #7f7f7f; stroke-width: 1.5"/>
    </g>
    <g id="text_76">
     <!-- 188 -->
     <g transform="translate(794.26 165.46525)scale(0.08 -0.08)">
      <use xlink:href="#DejaVuSans-31"/>
      <use xlink:href="#DejaVuSans-38" x="63.623047"/>
      <use xlink:href="#DejaVuSans-38" x="127.246094"/>
     </g>
    </g>
    <g id="line2d_170">
     <path d="M 771.86 174.40775 
L 779.86 174.40775 
L 787.86 174.40775 
" style="fill: none; stroke-dasharray: 9.6,2.4,1.5,2.4; stroke-dashoffset: 0; stroke: #bcbd22; stroke-width: 1.5"/>
    </g>
    <g id="text_77">
     <!-- 192 -->
     <g transform="translate(794.26 177.20775)scale(0.08 -0.08)">
      <use xlink:href="#DejaVuSans-31"/>
      <use xlink:href="#DejaVuSans-39" x="63.623047"/>
      <use xlink:href="#DejaVuSans-32" x="127.246094"/>
     </g>
    </g>
    <g id="line2d_171">
     <path d="M 771.86 186.15025 
L 779.86 186.15025 
L 787.86 186.15025 
" style="fill: none; stroke-dasharray: 9.6,2.4,1.5,2.4; stroke-dashoffset: 0; stroke: #17becf; stroke-width: 1.5"/>
    </g>
    <g id="text_78">
     <!-- 193 -->
     <g transform="translate(794.26 188.95025)scale(0.08 -0.08)">
      <use xlink:href="#DejaVuSans-31"/>
      <use xlink:href="#DejaVuSans-39" x="63.623047"/>
      <use xlink:href="#DejaVuSans-33" x="127.246094"/>
     </g>
    </g>
    <g id="line2d_172">
     <path d="M 771.86 197.89275 
L 779.86 197.89275 
L 787.86 197.89275 
" style="fill: none; stroke-dasharray: 1.5,2.475; stroke-dashoffset: 0; stroke: #1f77b4; stroke-width: 1.5"/>
    </g>
    <g id="text_79">
     <!-- 194 -->
     <g transform="translate(794.26 200.69275)scale(0.08 -0.08)">
      <use xlink:href="#DejaVuSans-31"/>
      <use xlink:href="#DejaVuSans-39" x="63.623047"/>
      <use xlink:href="#DejaVuSans-34" x="127.246094"/>
     </g>
    </g>
    <g id="line2d_173">
     <path d="M 825.53 139.18025 
L 833.53 139.18025 
L 841.53 139.18025 
" style="fill: none; stroke-dasharray: 1.5,2.475; stroke-dashoffset: 0; stroke: #ff7f0e; stroke-width: 1.5"/>
    </g>
    <g id="text_80">
     <!-- 224 -->
     <g transform="translate(847.93 141.98025)scale(0.08 -0.08)">
      <use xlink:href="#DejaVuSans-32"/>
      <use xlink:href="#DejaVuSans-32" x="63.623047"/>
      <use xlink:href="#DejaVuSans-34" x="127.246094"/>
     </g>
    </g>
    <g id="line2d_174">
     <path d="M 825.53 150.92275 
L 833.53 150.92275 
L 841.53 150.92275 
" style="fill: none; stroke-dasharray: 1.5,2.475; stroke-dashoffset: 0; stroke: #2ca02c; stroke-width: 1.5"/>
    </g>
    <g id="text_81">
     <!-- 245 -->
     <g transform="translate(847.93 153.72275)scale(0.08 -0.08)">
      <use xlink:href="#DejaVuSans-32"/>
      <use xlink:href="#DejaVuSans-34" x="63.623047"/>
      <use xlink:href="#DejaVuSans-35" x="127.246094"/>
     </g>
    </g>
    <g id="line2d_175">
     <path d="M 825.53 162.66525 
L 833.53 162.66525 
L 841.53 162.66525 
" style="fill: none; stroke-dasharray: 1.5,2.475; stroke-dashoffset: 0; stroke: #d62728; stroke-width: 1.5"/>
    </g>
    <g id="text_82">
     <!-- 246 -->
     <g transform="translate(847.93 165.46525)scale(0.08 -0.08)">
      <use xlink:href="#DejaVuSans-32"/>
      <use xlink:href="#DejaVuSans-34" x="63.623047"/>
      <use xlink:href="#DejaVuSans-36" x="127.246094"/>
     </g>
    </g>
    <g id="line2d_176">
     <path d="M 825.53 174.40775 
L 833.53 174.40775 
L 841.53 174.40775 
" style="fill: none; stroke-dasharray: 1.5,2.475; stroke-dashoffset: 0; stroke: #9467bd; stroke-width: 1.5"/>
    </g>
    <g id="text_83">
     <!-- 247 -->
     <g transform="translate(847.93 177.20775)scale(0.08 -0.08)">
      <use xlink:href="#DejaVuSans-32"/>
      <use xlink:href="#DejaVuSans-34" x="63.623047"/>
      <use xlink:href="#DejaVuSans-37" x="127.246094"/>
     </g>
    </g>
    <g id="line2d_177">
     <path d="M 825.53 186.15025 
L 833.53 186.15025 
L 841.53 186.15025 
" style="fill: none; stroke-dasharray: 1.5,2.475; stroke-dashoffset: 0; stroke: #8c564b; stroke-width: 1.5"/>
    </g>
    <g id="text_84">
     <!-- 248 -->
     <g transform="translate(847.93 188.95025)scale(0.08 -0.08)">
      <use xlink:href="#DejaVuSans-32"/>
      <use xlink:href="#DejaVuSans-34" x="63.623047"/>
      <use xlink:href="#DejaVuSans-38" x="127.246094"/>
     </g>
    </g>
    <g id="line2d_178">
     <path d="M 825.53 197.89275 
L 833.53 197.89275 
L 841.53 197.89275 
" style="fill: none; stroke-dasharray: 1.5,2.475; stroke-dashoffset: 0; stroke: #e377c2; stroke-width: 1.5"/>
    </g>
    <g id="text_85">
     <!-- 253 -->
     <g transform="translate(847.93 200.69275)scale(0.08 -0.08)">
      <use xlink:href="#DejaVuSans-32"/>
      <use xlink:href="#DejaVuSans-35" x="63.623047"/>
      <use xlink:href="#DejaVuSans-33" x="127.246094"/>
     </g>
    </g>
   </g>
  </g>
 </g>
 <defs>
  <clipPath id="pb6d1813f3c">
   <rect x="47.1" y="31.43625" width="370.96" height="287.128"/>
  </clipPath>
  <clipPath id="p6e4b56b5c8">
   <rect x="499.44" y="31.43625" width="370.96" height="287.128"/>
  </clipPath>
 </defs>
</svg>
