<?xml version="1.0" encoding="utf-8" standalone="no"?>
<!DOCTYPE svg PUBLIC "-//W3C//DTD SVG 1.1//EN"
  "http://www.w3.org/Graphics/SVG/1.1/DTD/svg11.dtd">
<svg xmlns:xlink="http://www.w3.org/1999/xlink" width="877.6pt" height="370.637687pt" viewBox="0 0 877.6 370.637687" xmlns="http://www.w3.org/2000/svg" version="1.1">
 <defs>
  <style type="text/css">*{stroke-linejoin: round; stroke-linecap: butt}</style>
 </defs>
 <g id="figure_1">
  <g id="patch_1">
   <path d="M 0 370.637687 
L 877.6 370.637687 
L 877.6 0 
L 0 0 
L 0 370.637687 
z
" style="fill: none"/>
  </g>
  <g id="axes_1">
   <g id="patch_2">
    <path d="M 47.1 318.56425 
L 420.445 318.56425 
L 420.445 31.43625 
L 47.1 31.43625 
L 47.1 318.56425 
z
" style="fill: none"/>
   </g>
   <g id="matplotlib.axis_1">
    <g id="xtick_1">
     <g id="line2d_1">
      <defs>
       <path id="md39032bed2" d="M 0 0 
L 0 3.5 
" style="stroke: #000000; stroke-width: 0.8"/>
      </defs>
      <g>
       <use xlink:href="#md39032bed2" x="81.44007" y="318.56425" style="stroke: #000000; stroke-width: 0.8"/>
      </g>
     </g>
     <g id="text_1">
      <!-- $\mathdefault{10^{2}}$ -->
      <g transform="translate(68.24007 336.961906)scale(0.15 -0.15)">
       <defs>
        <path id="DejaVuSans-31" d="M 794 531 
L 1825 531 
L 1825 4091 
L 703 3866 
L 703 4441 
L 1819 4666 
L 2450 4666 
L 2450 531 
L 3481 531 
L 3481 0 
L 794 0 
L 794 531 
z
" transform="scale(0.015625)"/>
        <path id="DejaVuSans-30" d="M 2034 4250 
Q 1547 4250 1301 3770 
Q 1056 3291 1056 2328 
Q 1056 1369 1301 889 
Q 1547 409 2034 409 
Q 2525 409 2770 889 
Q 3016 1369 3016 2328 
Q 3016 3291 2770 3770 
Q 2525 4250 2034 4250 
z
M 2034 4750 
Q 2819 4750 3233 4129 
Q 3647 3509 3647 2328 
Q 3647 1150 3233 529 
Q 2819 -91 2034 -91 
Q 1250 -91 836 529 
Q 422 1150 422 2328 
Q 422 3509 836 4129 
Q 1250 4750 2034 4750 
z
" transform="scale(0.015625)"/>
        <path id="DejaVuSans-32" d="M 1228 531 
L 3431 531 
L 3431 0 
L 469 0 
L 469 531 
Q 828 903 1448 1529 
Q 2069 2156 2228 2338 
Q 2531 2678 2651 2914 
Q 2772 3150 2772 3378 
Q 2772 3750 2511 3984 
Q 2250 4219 1831 4219 
Q 1534 4219 1204 4116 
Q 875 4013 500 3803 
L 500 4441 
Q 881 4594 1212 4672 
Q 1544 4750 1819 4750 
Q 2544 4750 2975 4387 
Q 3406 4025 3406 3419 
Q 3406 3131 3298 2873 
Q 3191 2616 2906 2266 
Q 2828 2175 2409 1742 
Q 1991 1309 1228 531 
z
" transform="scale(0.015625)"/>
       </defs>
       <use xlink:href="#DejaVuSans-31" transform="translate(0 0.765625)"/>
       <use xlink:href="#DejaVuSans-30" transform="translate(63.623047 0.765625)"/>
       <use xlink:href="#DejaVuSans-32" transform="translate(128.203125 39.046875)scale(0.7)"/>
      </g>
     </g>
    </g>
    <g id="xtick_2">
     <g id="line2d_2">
      <g>
       <use xlink:href="#md39032bed2" x="258.615105" y="318.56425" style="stroke: #000000; stroke-width: 0.8"/>
      </g>
     </g>
     <g id="text_2">
      <!-- $\mathdefault{10^{3}}$ -->
      <g transform="translate(245.415105 336.961906)scale(0.15 -0.15)">
       <defs>
        <path id="DejaVuSans-33" d="M 2597 2516 
Q 3050 2419 3304 2112 
Q 3559 1806 3559 1356 
Q 3559 666 3084 287 
Q 2609 -91 1734 -91 
Q 1441 -91 1130 -33 
Q 819 25 488 141 
L 488 750 
Q 750 597 1062 519 
Q 1375 441 1716 441 
Q 2309 441 2620 675 
Q 2931 909 2931 1356 
Q 2931 1769 2642 2001 
Q 2353 2234 1838 2234 
L 1294 2234 
L 1294 2753 
L 1863 2753 
Q 2328 2753 2575 2939 
Q 2822 3125 2822 3475 
Q 2822 3834 2567 4026 
Q 2313 4219 1838 4219 
Q 1578 4219 1281 4162 
Q 984 4106 628 3988 
L 628 4550 
Q 988 4650 1302 4700 
Q 1616 4750 1894 4750 
Q 2613 4750 3031 4423 
Q 3450 4097 3450 3541 
Q 3450 3153 3228 2886 
Q 3006 2619 2597 2516 
z
" transform="scale(0.015625)"/>
       </defs>
       <use xlink:href="#DejaVuSans-31" transform="translate(0 0.765625)"/>
       <use xlink:href="#DejaVuSans-30" transform="translate(63.623047 0.765625)"/>
       <use xlink:href="#DejaVuSans-33" transform="translate(128.203125 39.046875)scale(0.7)"/>
      </g>
     </g>
    </g>
    <g id="xtick_3">
     <g id="line2d_3">
      <defs>
       <path id="m00e623f56d" d="M 0 0 
L 0 2 
" style="stroke: #000000; stroke-width: 0.6"/>
      </defs>
      <g>
       <use xlink:href="#m00e623f56d" x="53.99531" y="318.56425" style="stroke: #000000; stroke-width: 0.6"/>
      </g>
     </g>
    </g>
    <g id="xtick_4">
     <g id="line2d_4">
      <g>
       <use xlink:href="#m00e623f56d" x="64.270035" y="318.56425" style="stroke: #000000; stroke-width: 0.6"/>
      </g>
     </g>
    </g>
    <g id="xtick_5">
     <g id="line2d_5">
      <g>
       <use xlink:href="#m00e623f56d" x="73.332985" y="318.56425" style="stroke: #000000; stroke-width: 0.6"/>
      </g>
     </g>
    </g>
    <g id="xtick_6">
     <g id="line2d_6">
      <g>
       <use xlink:href="#m00e623f56d" x="134.77507" y="318.56425" style="stroke: #000000; stroke-width: 0.6"/>
      </g>
     </g>
    </g>
    <g id="xtick_7">
     <g id="line2d_7">
      <g>
       <use xlink:href="#m00e623f56d" x="165.974045" y="318.56425" style="stroke: #000000; stroke-width: 0.6"/>
      </g>
     </g>
    </g>
    <g id="xtick_8">
     <g id="line2d_8">
      <g>
       <use xlink:href="#m00e623f56d" x="188.11007" y="318.56425" style="stroke: #000000; stroke-width: 0.6"/>
      </g>
     </g>
    </g>
    <g id="xtick_9">
     <g id="line2d_9">
      <g>
       <use xlink:href="#m00e623f56d" x="205.280105" y="318.56425" style="stroke: #000000; stroke-width: 0.6"/>
      </g>
     </g>
    </g>
    <g id="xtick_10">
     <g id="line2d_10">
      <g>
       <use xlink:href="#m00e623f56d" x="219.309045" y="318.56425" style="stroke: #000000; stroke-width: 0.6"/>
      </g>
     </g>
    </g>
    <g id="xtick_11">
     <g id="line2d_11">
      <g>
       <use xlink:href="#m00e623f56d" x="231.170345" y="318.56425" style="stroke: #000000; stroke-width: 0.6"/>
      </g>
     </g>
    </g>
    <g id="xtick_12">
     <g id="line2d_12">
      <g>
       <use xlink:href="#m00e623f56d" x="241.44507" y="318.56425" style="stroke: #000000; stroke-width: 0.6"/>
      </g>
     </g>
    </g>
    <g id="xtick_13">
     <g id="line2d_13">
      <g>
       <use xlink:href="#m00e623f56d" x="250.50802" y="318.56425" style="stroke: #000000; stroke-width: 0.6"/>
      </g>
     </g>
    </g>
    <g id="xtick_14">
     <g id="line2d_14">
      <g>
       <use xlink:href="#m00e623f56d" x="311.950105" y="318.56425" style="stroke: #000000; stroke-width: 0.6"/>
      </g>
     </g>
    </g>
    <g id="xtick_15">
     <g id="line2d_15">
      <g>
       <use xlink:href="#m00e623f56d" x="343.14908" y="318.56425" style="stroke: #000000; stroke-width: 0.6"/>
      </g>
     </g>
    </g>
    <g id="xtick_16">
     <g id="line2d_16">
      <g>
       <use xlink:href="#m00e623f56d" x="365.285105" y="318.56425" style="stroke: #000000; stroke-width: 0.6"/>
      </g>
     </g>
    </g>
    <g id="xtick_17">
     <g id="line2d_17">
      <g>
       <use xlink:href="#m00e623f56d" x="382.45514" y="318.56425" style="stroke: #000000; stroke-width: 0.6"/>
      </g>
     </g>
    </g>
    <g id="xtick_18">
     <g id="line2d_18">
      <g>
       <use xlink:href="#m00e623f56d" x="396.48408" y="318.56425" style="stroke: #000000; stroke-width: 0.6"/>
      </g>
     </g>
    </g>
    <g id="xtick_19">
     <g id="line2d_19">
      <g>
       <use xlink:href="#m00e623f56d" x="408.34538" y="318.56425" style="stroke: #000000; stroke-width: 0.6"/>
      </g>
     </g>
    </g>
    <g id="xtick_20">
     <g id="line2d_20">
      <g>
       <use xlink:href="#m00e623f56d" x="418.620105" y="318.56425" style="stroke: #000000; stroke-width: 0.6"/>
      </g>
     </g>
    </g>
    <g id="text_3">
     <!-- Pages -->
     <g transform="translate(204.35375 359.278312)scale(0.2 -0.2)">
      <defs>
       <path id="DejaVuSans-50" d="M 1259 4147 
L 1259 2394 
L 2053 2394 
Q 2494 2394 2734 2622 
Q 2975 2850 2975 3272 
Q 2975 3691 2734 3919 
Q 2494 4147 2053 4147 
L 1259 4147 
z
M 628 4666 
L 2053 4666 
Q 2838 4666 3239 4311 
Q 3641 3956 3641 3272 
Q 3641 2581 3239 2228 
Q 2838 1875 2053 1875 
L 1259 1875 
L 1259 0 
L 628 0 
L 628 4666 
z
" transform="scale(0.015625)"/>
       <path id="DejaVuSans-61" d="M 2194 1759 
Q 1497 1759 1228 1600 
Q 959 1441 959 1056 
Q 959 750 1161 570 
Q 1363 391 1709 391 
Q 2188 391 2477 730 
Q 2766 1069 2766 1631 
L 2766 1759 
L 2194 1759 
z
M 3341 1997 
L 3341 0 
L 2766 0 
L 2766 531 
Q 2569 213 2275 61 
Q 1981 -91 1556 -91 
Q 1019 -91 701 211 
Q 384 513 384 1019 
Q 384 1609 779 1909 
Q 1175 2209 1959 2209 
L 2766 2209 
L 2766 2266 
Q 2766 2663 2505 2880 
Q 2244 3097 1772 3097 
Q 1472 3097 1187 3025 
Q 903 2953 641 2809 
L 641 3341 
Q 956 3463 1253 3523 
Q 1550 3584 1831 3584 
Q 2591 3584 2966 3190 
Q 3341 2797 3341 1997 
z
" transform="scale(0.015625)"/>
       <path id="DejaVuSans-67" d="M 2906 1791 
Q 2906 2416 2648 2759 
Q 2391 3103 1925 3103 
Q 1463 3103 1205 2759 
Q 947 2416 947 1791 
Q 947 1169 1205 825 
Q 1463 481 1925 481 
Q 2391 481 2648 825 
Q 2906 1169 2906 1791 
z
M 3481 434 
Q 3481 -459 3084 -895 
Q 2688 -1331 1869 -1331 
Q 1566 -1331 1297 -1286 
Q 1028 -1241 775 -1147 
L 775 -588 
Q 1028 -725 1275 -790 
Q 1522 -856 1778 -856 
Q 2344 -856 2625 -561 
Q 2906 -266 2906 331 
L 2906 616 
Q 2728 306 2450 153 
Q 2172 0 1784 0 
Q 1141 0 747 490 
Q 353 981 353 1791 
Q 353 2603 747 3093 
Q 1141 3584 1784 3584 
Q 2172 3584 2450 3431 
Q 2728 3278 2906 2969 
L 2906 3500 
L 3481 3500 
L 3481 434 
z
" transform="scale(0.015625)"/>
       <path id="DejaVuSans-65" d="M 3597 1894 
L 3597 1613 
L 953 1613 
Q 991 1019 1311 708 
Q 1631 397 2203 397 
Q 2534 397 2845 478 
Q 3156 559 3463 722 
L 3463 178 
Q 3153 47 2828 -22 
Q 2503 -91 2169 -91 
Q 1331 -91 842 396 
Q 353 884 353 1716 
Q 353 2575 817 3079 
Q 1281 3584 2069 3584 
Q 2775 3584 3186 3129 
Q 3597 2675 3597 1894 
z
M 3022 2063 
Q 3016 2534 2758 2815 
Q 2500 3097 2075 3097 
Q 1594 3097 1305 2825 
Q 1016 2553 972 2059 
L 3022 2063 
z
" transform="scale(0.015625)"/>
       <path id="DejaVuSans-73" d="M 2834 3397 
L 2834 2853 
Q 2591 2978 2328 3040 
Q 2066 3103 1784 3103 
Q 1356 3103 1142 2972 
Q 928 2841 928 2578 
Q 928 2378 1081 2264 
Q 1234 2150 1697 2047 
L 1894 2003 
Q 2506 1872 2764 1633 
Q 3022 1394 3022 966 
Q 3022 478 2636 193 
Q 2250 -91 1575 -91 
Q 1294 -91 989 -36 
Q 684 19 347 128 
L 347 722 
Q 666 556 975 473 
Q 1284 391 1588 391 
Q 1994 391 2212 530 
Q 2431 669 2431 922 
Q 2431 1156 2273 1281 
Q 2116 1406 1581 1522 
L 1381 1569 
Q 847 1681 609 1914 
Q 372 2147 372 2553 
Q 372 3047 722 3315 
Q 1072 3584 1716 3584 
Q 2034 3584 2315 3537 
Q 2597 3491 2834 3397 
z
" transform="scale(0.015625)"/>
      </defs>
      <use xlink:href="#DejaVuSans-50"/>
      <use xlink:href="#DejaVuSans-61" x="55.802734"/>
      <use xlink:href="#DejaVuSans-67" x="117.082031"/>
      <use xlink:href="#DejaVuSans-65" x="180.558594"/>
      <use xlink:href="#DejaVuSans-73" x="242.082031"/>
     </g>
    </g>
   </g>
   <g id="matplotlib.axis_2">
    <g id="ytick_1">
     <g id="line2d_21">
      <defs>
       <path id="m6f3f5b6aff" d="M 0 0 
L -3.5 0 
" style="stroke: #000000; stroke-width: 0.8"/>
      </defs>
      <g>
       <use xlink:href="#m6f3f5b6aff" x="47.1" y="318.56425" style="stroke: #000000; stroke-width: 0.8"/>
      </g>
     </g>
     <g id="text_4">
      <!-- 0 -->
      <g transform="translate(30.55625 324.263078)scale(0.15 -0.15)">
       <use xlink:href="#DejaVuSans-30"/>
      </g>
     </g>
    </g>
    <g id="ytick_2">
     <g id="line2d_22">
      <g>
       <use xlink:href="#m6f3f5b6aff" x="47.1" y="269.83124" style="stroke: #000000; stroke-width: 0.8"/>
      </g>
     </g>
     <g id="text_5">
      <!-- 1 -->
      <g transform="translate(30.55625 275.530068)scale(0.15 -0.15)">
       <use xlink:href="#DejaVuSans-31"/>
      </g>
     </g>
    </g>
    <g id="ytick_3">
     <g id="line2d_23">
      <g>
       <use xlink:href="#m6f3f5b6aff" x="47.1" y="221.09823" style="stroke: #000000; stroke-width: 0.8"/>
      </g>
     </g>
     <g id="text_6">
      <!-- 2 -->
      <g transform="translate(30.55625 226.797058)scale(0.15 -0.15)">
       <use xlink:href="#DejaVuSans-32"/>
      </g>
     </g>
    </g>
    <g id="ytick_4">
     <g id="line2d_24">
      <g>
       <use xlink:href="#m6f3f5b6aff" x="47.1" y="172.36522" style="stroke: #000000; stroke-width: 0.8"/>
      </g>
     </g>
     <g id="text_7">
      <!-- 3 -->
      <g transform="translate(30.55625 178.064048)scale(0.15 -0.15)">
       <use xlink:href="#DejaVuSans-33"/>
      </g>
     </g>
    </g>
    <g id="ytick_5">
     <g id="line2d_25">
      <g>
       <use xlink:href="#m6f3f5b6aff" x="47.1" y="123.632209" style="stroke: #000000; stroke-width: 0.8"/>
      </g>
     </g>
     <g id="text_8">
      <!-- 4 -->
      <g transform="translate(30.55625 129.331038)scale(0.15 -0.15)">
       <defs>
        <path id="DejaVuSans-34" d="M 2419 4116 
L 825 1625 
L 2419 1625 
L 2419 4116 
z
M 2253 4666 
L 3047 4666 
L 3047 1625 
L 3713 1625 
L 3713 1100 
L 3047 1100 
L 3047 0 
L 2419 0 
L 2419 1100 
L 313 1100 
L 313 1709 
L 2253 4666 
z
" transform="scale(0.015625)"/>
       </defs>
       <use xlink:href="#DejaVuSans-34"/>
      </g>
     </g>
    </g>
    <g id="ytick_6">
     <g id="line2d_26">
      <g>
       <use xlink:href="#m6f3f5b6aff" x="47.1" y="74.899199" style="stroke: #000000; stroke-width: 0.8"/>
      </g>
     </g>
     <g id="text_9">
      <!-- 5 -->
      <g transform="translate(30.55625 80.598027)scale(0.15 -0.15)">
       <defs>
        <path id="DejaVuSans-35" d="M 691 4666 
L 3169 4666 
L 3169 4134 
L 1269 4134 
L 1269 2991 
Q 1406 3038 1543 3061 
Q 1681 3084 1819 3084 
Q 2600 3084 3056 2656 
Q 3513 2228 3513 1497 
Q 3513 744 3044 326 
Q 2575 -91 1722 -91 
Q 1428 -91 1123 -41 
Q 819 9 494 109 
L 494 744 
Q 775 591 1075 516 
Q 1375 441 1709 441 
Q 2250 441 2565 725 
Q 2881 1009 2881 1497 
Q 2881 1984 2565 2268 
Q 2250 2553 1709 2553 
Q 1456 2553 1204 2497 
Q 953 2441 691 2322 
L 691 4666 
z
" transform="scale(0.015625)"/>
       </defs>
       <use xlink:href="#DejaVuSans-35"/>
      </g>
     </g>
    </g>
    <g id="text_10">
     <!-- Count Difference -->
     <g transform="translate(22.396875 259.57525)rotate(-90)scale(0.2 -0.2)">
      <defs>
       <path id="DejaVuSans-43" d="M 4122 4306 
L 4122 3641 
Q 3803 3938 3442 4084 
Q 3081 4231 2675 4231 
Q 1875 4231 1450 3742 
Q 1025 3253 1025 2328 
Q 1025 1406 1450 917 
Q 1875 428 2675 428 
Q 3081 428 3442 575 
Q 3803 722 4122 1019 
L 4122 359 
Q 3791 134 3420 21 
Q 3050 -91 2638 -91 
Q 1578 -91 968 557 
Q 359 1206 359 2328 
Q 359 3453 968 4101 
Q 1578 4750 2638 4750 
Q 3056 4750 3426 4639 
Q 3797 4528 4122 4306 
z
" transform="scale(0.015625)"/>
       <path id="DejaVuSans-6f" d="M 1959 3097 
Q 1497 3097 1228 2736 
Q 959 2375 959 1747 
Q 959 1119 1226 758 
Q 1494 397 1959 397 
Q 2419 397 2687 759 
Q 2956 1122 2956 1747 
Q 2956 2369 2687 2733 
Q 2419 3097 1959 3097 
z
M 1959 3584 
Q 2709 3584 3137 3096 
Q 3566 2609 3566 1747 
Q 3566 888 3137 398 
Q 2709 -91 1959 -91 
Q 1206 -91 779 398 
Q 353 888 353 1747 
Q 353 2609 779 3096 
Q 1206 3584 1959 3584 
z
" transform="scale(0.015625)"/>
       <path id="DejaVuSans-75" d="M 544 1381 
L 544 3500 
L 1119 3500 
L 1119 1403 
Q 1119 906 1312 657 
Q 1506 409 1894 409 
Q 2359 409 2629 706 
Q 2900 1003 2900 1516 
L 2900 3500 
L 3475 3500 
L 3475 0 
L 2900 0 
L 2900 538 
Q 2691 219 2414 64 
Q 2138 -91 1772 -91 
Q 1169 -91 856 284 
Q 544 659 544 1381 
z
M 1991 3584 
L 1991 3584 
z
" transform="scale(0.015625)"/>
       <path id="DejaVuSans-6e" d="M 3513 2113 
L 3513 0 
L 2938 0 
L 2938 2094 
Q 2938 2591 2744 2837 
Q 2550 3084 2163 3084 
Q 1697 3084 1428 2787 
Q 1159 2491 1159 1978 
L 1159 0 
L 581 0 
L 581 3500 
L 1159 3500 
L 1159 2956 
Q 1366 3272 1645 3428 
Q 1925 3584 2291 3584 
Q 2894 3584 3203 3211 
Q 3513 2838 3513 2113 
z
" transform="scale(0.015625)"/>
       <path id="DejaVuSans-74" d="M 1172 4494 
L 1172 3500 
L 2356 3500 
L 2356 3053 
L 1172 3053 
L 1172 1153 
Q 1172 725 1289 603 
Q 1406 481 1766 481 
L 2356 481 
L 2356 0 
L 1766 0 
Q 1100 0 847 248 
Q 594 497 594 1153 
L 594 3053 
L 172 3053 
L 172 3500 
L 594 3500 
L 594 4494 
L 1172 4494 
z
" transform="scale(0.015625)"/>
       <path id="DejaVuSans-20" transform="scale(0.015625)"/>
       <path id="DejaVuSans-44" d="M 1259 4147 
L 1259 519 
L 2022 519 
Q 2988 519 3436 956 
Q 3884 1394 3884 2338 
Q 3884 3275 3436 3711 
Q 2988 4147 2022 4147 
L 1259 4147 
z
M 628 4666 
L 1925 4666 
Q 3281 4666 3915 4102 
Q 4550 3538 4550 2338 
Q 4550 1131 3912 565 
Q 3275 0 1925 0 
L 628 0 
L 628 4666 
z
" transform="scale(0.015625)"/>
       <path id="DejaVuSans-69" d="M 603 3500 
L 1178 3500 
L 1178 0 
L 603 0 
L 603 3500 
z
M 603 4863 
L 1178 4863 
L 1178 4134 
L 603 4134 
L 603 4863 
z
" transform="scale(0.015625)"/>
       <path id="DejaVuSans-66" d="M 2375 4863 
L 2375 4384 
L 1825 4384 
Q 1516 4384 1395 4259 
Q 1275 4134 1275 3809 
L 1275 3500 
L 2222 3500 
L 2222 3053 
L 1275 3053 
L 1275 0 
L 697 0 
L 697 3053 
L 147 3053 
L 147 3500 
L 697 3500 
L 697 3744 
Q 697 4328 969 4595 
Q 1241 4863 1831 4863 
L 2375 4863 
z
" transform="scale(0.015625)"/>
       <path id="DejaVuSans-72" d="M 2631 2963 
Q 2534 3019 2420 3045 
Q 2306 3072 2169 3072 
Q 1681 3072 1420 2755 
Q 1159 2438 1159 1844 
L 1159 0 
L 581 0 
L 581 3500 
L 1159 3500 
L 1159 2956 
Q 1341 3275 1631 3429 
Q 1922 3584 2338 3584 
Q 2397 3584 2469 3576 
Q 2541 3569 2628 3553 
L 2631 2963 
z
" transform="scale(0.015625)"/>
       <path id="DejaVuSans-63" d="M 3122 3366 
L 3122 2828 
Q 2878 2963 2633 3030 
Q 2388 3097 2138 3097 
Q 1578 3097 1268 2742 
Q 959 2388 959 1747 
Q 959 1106 1268 751 
Q 1578 397 2138 397 
Q 2388 397 2633 464 
Q 2878 531 3122 666 
L 3122 134 
Q 2881 22 2623 -34 
Q 2366 -91 2075 -91 
Q 1284 -91 818 406 
Q 353 903 353 1747 
Q 353 2603 823 3093 
Q 1294 3584 2113 3584 
Q 2378 3584 2631 3529 
Q 2884 3475 3122 3366 
z
" transform="scale(0.015625)"/>
      </defs>
      <use xlink:href="#DejaVuSans-43"/>
      <use xlink:href="#DejaVuSans-6f" x="69.824219"/>
      <use xlink:href="#DejaVuSans-75" x="131.005859"/>
      <use xlink:href="#DejaVuSans-6e" x="194.384766"/>
      <use xlink:href="#DejaVuSans-74" x="257.763672"/>
      <use xlink:href="#DejaVuSans-20" x="296.972656"/>
      <use xlink:href="#DejaVuSans-44" x="328.759766"/>
      <use xlink:href="#DejaVuSans-69" x="405.761719"/>
      <use xlink:href="#DejaVuSans-66" x="433.544922"/>
      <use xlink:href="#DejaVuSans-66" x="468.75"/>
      <use xlink:href="#DejaVuSans-65" x="503.955078"/>
      <use xlink:href="#DejaVuSans-72" x="565.478516"/>
      <use xlink:href="#DejaVuSans-65" x="604.341797"/>
      <use xlink:href="#DejaVuSans-6e" x="665.865234"/>
      <use xlink:href="#DejaVuSans-63" x="729.244141"/>
      <use xlink:href="#DejaVuSans-65" x="784.224609"/>
     </g>
    </g>
   </g>
   <g id="line2d_27">
    <path d="M 47.1 318.552067 
L 78.298975 318.525751 
L 100.435 318.300604 
L 117.605035 308.668525 
L 131.633975 302.22261 
L 153.77 294.14755 
L 184.968975 286.047149 
L 207.105 281.992075 
L 238.303975 277.928229 
L 260.44 275.917993 
L 291.638975 273.894598 
L 313.775 272.876566 
L 344.973975 271.867305 
L 367.11 271.354634 
L 398.308975 270.846836 
L 420.445 270.597323 
" clip-path="url(#p099dfa88d9)" style="fill: none; stroke: #1f77b4; stroke-width: 1.5; stroke-linecap: square"/>
   </g>
   <g id="line2d_28">
    <path d="M 47.1 318.56425 
L 78.298975 318.56425 
L 100.435 318.56425 
L 117.605035 318.56425 
L 131.633975 318.56425 
L 153.77 318.56425 
L 184.968975 318.56425 
L 207.105 318.563275 
L 238.303975 318.546706 
L 260.44 318.393684 
L 291.638975 302.221148 
L 313.775 294.085659 
L 344.973975 285.984283 
L 367.11 281.931159 
L 398.308975 277.864877 
L 420.445 275.84002 
" clip-path="url(#p099dfa88d9)" style="fill: none; stroke: #ff7f0e; stroke-width: 1.5; stroke-linecap: square"/>
   </g>
   <g id="line2d_29">
    <path d="M 47.1 318.56425 
L 78.298975 318.56425 
L 100.435 318.56425 
L 117.605035 318.56425 
L 131.633975 318.56425 
L 153.77 318.56425 
L 184.968975 318.56425 
L 207.105 318.563275 
L 238.303975 318.548168 
L 260.44 318.39807 
L 291.638975 302.22797 
L 313.775 294.096868 
L 344.973975 285.982334 
L 367.11 281.92921 
L 398.308975 277.867313 
L 420.445 275.841482 
" clip-path="url(#p099dfa88d9)" style="fill: none; stroke: #2ca02c; stroke-width: 1.5; stroke-linecap: square"/>
   </g>
   <g id="line2d_30">
    <path d="M 47.1 190.194191 
L 78.298975 161.805751 
L 100.435 190.009493 
L 117.605035 146.397835 
L 131.633975 145.600563 
L 153.77 165.779928 
L 184.968975 129.51867 
L 207.105 153.863732 
L 238.303975 121.660472 
L 260.44 150.569868 
L 291.638975 174.713176 
L 313.775 230.535864 
L 344.973975 228.704478 
L 367.11 271.37364 
L 398.308975 255.598277 
L 420.445 270.134359 
" clip-path="url(#p099dfa88d9)" style="fill: none; stroke: #d62728; stroke-width: 1.5; stroke-linecap: square"/>
   </g>
   <g id="line2d_31">
    <path d="M 47.1 318.554016 
L 78.298975 318.517954 
L 100.435 318.281599 
L 117.605035 308.646595 
L 131.633975 302.139764 
L 153.77 294.14024 
L 184.968975 285.807383 
L 207.105 282.000847 
L 238.303975 277.518385 
L 260.44 275.94772 
L 291.638975 273.127541 
L 313.775 271.882412 
L 344.973975 270.187965 
L 367.11 269.342935 
L 398.308975 268.211355 
L 420.445 267.265447 
" clip-path="url(#p099dfa88d9)" style="fill: none; stroke: #9467bd; stroke-width: 1.5; stroke-linecap: square"/>
   </g>
   <g id="line2d_32">
    <path d="M 47.1 318.524776 
L 78.298975 318.372729 
L 100.435 318.29232 
L 117.605035 308.573496 
L 131.633975 302.205066 
L 153.77 294.141215 
L 184.968975 286.061282 
L 207.105 282.058839 
L 238.303975 278.060783 
L 260.44 276.112438 
L 291.638975 257.748865 
L 313.775 248.540275 
L 344.973975 239.369697 
L 367.11 234.783434 
L 398.308975 230.217151 
L 420.445 227.922313 
" clip-path="url(#p099dfa88d9)" style="fill: none; stroke: #8c564b; stroke-width: 1.5; stroke-linecap: square"/>
   </g>
   <g id="line2d_33">
    <path d="M 47.1 318.551092 
L 78.298975 318.518928 
L 100.435 318.286959 
L 117.605035 308.665114 
L 131.633975 302.219198 
L 153.77 294.145113 
L 184.968975 286.046174 
L 207.105 281.990126 
L 238.303975 277.909711 
L 260.44 275.73963 
L 291.638975 257.546135 
L 313.775 248.396513 
L 344.973975 239.284902 
L 367.11 234.720568 
L 398.308975 230.14795 
L 420.445 227.87358 
" clip-path="url(#p099dfa88d9)" style="fill: none; stroke: #e377c2; stroke-width: 1.5; stroke-linecap: square"/>
   </g>
   <g id="line2d_34">
    <path d="M 47.1 281.878527 
L 78.298975 273.681635 
L 100.435 281.893147 
L 117.605035 272.11097 
L 131.633975 273.789335 
L 153.77 281.874629 
L 184.968975 273.831245 
L 207.105 281.925798 
L 238.303975 274.013019 
L 260.44 282.755234 
L 291.638975 290.435069 
L 313.775 306.572031 
L 344.973975 306.508191 
L 367.11 318.610546 
L 398.308975 314.576428 
L 420.445 318.59154 
" clip-path="url(#p099dfa88d9)" style="fill: none; stroke: #7f7f7f; stroke-width: 1.5; stroke-linecap: square"/>
   </g>
   <g id="line2d_35">
    <path d="M 47.1 318.524776 
L 78.298975 318.369805 
L 100.435 318.290858 
L 117.605035 308.538408 
L 131.633975 302.113448 
L 153.77 294.144139 
L 184.968975 285.818591 
L 207.105 282.07151 
L 238.303975 277.8332 
L 260.44 276.114387 
L 291.638975 257.560755 
L 313.775 248.5393 
L 344.973975 239.26882 
L 367.11 234.778073 
L 398.308975 230.121634 
L 420.445 227.904769 
" clip-path="url(#p099dfa88d9)" style="fill: none; stroke: #bcbd22; stroke-width: 1.5; stroke-linecap: square"/>
   </g>
   <g id="line2d_36">
    <path d="M 47.1 318.537934 
L 78.298975 318.529162 
L 100.435 318.29232 
L 117.605035 308.651468 
L 131.633975 302.12953 
L 153.77 294.149499 
L 184.968975 285.821028 
L 207.105 282.403869 
L 238.303975 277.697722 
L 260.44 275.939923 
L 291.638975 273.149958 
L 313.775 271.898981 
L 344.973975 270.202585 
L 367.11 269.333189 
L 398.308975 268.224025 
L 420.445 267.293225 
" clip-path="url(#p099dfa88d9)" style="fill: none; stroke: #17becf; stroke-width: 1.5; stroke-linecap: square"/>
   </g>
   <g id="line2d_37">
    <path d="M 47.1 259.911148 
L 78.298975 246.973021 
L 100.435 259.900427 
L 117.605035 244.395045 
L 131.633975 246.967173 
L 153.77 259.893604 
L 184.968975 247.012008 
L 207.105 259.948185 
L 238.303975 247.281501 
L 260.44 261.021286 
L 291.638975 273.496937 
L 313.775 299.285959 
L 344.973975 299.273775 
L 367.11 318.6354 
L 398.308975 312.189485 
L 420.445 318.639786 
" clip-path="url(#p099dfa88d9)" style="fill: none; stroke-dasharray: 5.55,2.4; stroke-dashoffset: 0; stroke: #1f77b4; stroke-width: 1.5"/>
   </g>
   <g id="line2d_38">
    <path d="M 47.1 318.54963 
L 78.298975 318.515517 
L 100.435 318.287447 
L 117.605035 308.646108 
L 131.633975 302.130017 
L 153.77 294.149499 
L 184.968975 285.805921 
L 207.105 282.000847 
L 238.303975 277.68359 
L 260.44 275.783002 
L 291.638975 257.360463 
L 313.775 248.399924 
L 344.973975 239.185974 
L 367.11 234.716182 
L 398.308975 230.061205 
L 420.445 227.870656 
" clip-path="url(#p099dfa88d9)" style="fill: none; stroke-dasharray: 5.55,2.4; stroke-dashoffset: 0; stroke: #ff7f0e; stroke-width: 1.5"/>
   </g>
   <g id="line2d_39">
    <path d="M 47.1 281.909716 
L 78.298975 273.822961 
L 100.435 281.896071 
L 117.605035 272.207461 
L 131.633975 273.814676 
L 153.77 281.887299 
L 184.968975 273.847327 
L 207.105 281.923362 
L 238.303975 274.005222 
L 260.44 282.661667 
L 291.638975 290.374153 
L 313.775 306.475052 
L 344.973975 306.45166 
L 367.11 318.566687 
L 398.308975 314.527695 
L 420.445 318.560839 
" clip-path="url(#p099dfa88d9)" style="fill: none; stroke-dasharray: 5.55,2.4; stroke-dashoffset: 0; stroke: #2ca02c; stroke-width: 1.5"/>
   </g>
   <g id="line2d_40">
    <path d="M 47.1 318.550117 
L 78.298975 318.517466 
L 100.435 318.281599 
L 117.605035 308.660728 
L 131.633975 302.217249 
L 153.77 294.143651 
L 184.968975 286.047149 
L 207.105 281.994025 
L 238.303975 277.928229 
L 260.44 275.917018 
L 291.638975 273.893624 
L 313.775 272.876078 
L 344.973975 271.867792 
L 367.11 271.355608 
L 398.308975 270.846836 
L 420.445 270.59781 
" clip-path="url(#p099dfa88d9)" style="fill: none; stroke-dasharray: 5.55,2.4; stroke-dashoffset: 0; stroke: #d62728; stroke-width: 1.5"/>
   </g>
   <g id="line2d_41">
    <path d="M 47.1 116.67411 
L 78.298975 71.865569 
L 100.435 116.536683 
L 117.605035 45.112609 
L 131.633975 71.002995 
L 153.77 115.775474 
L 184.968975 70.287107 
L 207.105 116.549354 
L 238.303975 71.560988 
L 260.44 120.389515 
L 291.638975 165.456341 
L 313.775 254.719621 
L 344.973975 252.961821 
L 367.11 318.17 
L 398.308975 297.008178 
L 420.445 316.752844 
" clip-path="url(#p099dfa88d9)" style="fill: none; stroke-dasharray: 5.55,2.4; stroke-dashoffset: 0; stroke: #9467bd; stroke-width: 1.5"/>
   </g>
   <g id="line2d_42">
    <path d="M 47.1 116.645358 
L 78.298975 72.137987 
L 100.435 116.545942 
L 117.605035 46.801208 
L 131.633975 70.80855 
L 153.77 115.744772 
L 184.968975 70.178433 
L 207.105 116.551303 
L 238.303975 71.749585 
L 260.44 121.013297 
L 291.638975 166.355952 
L 313.775 254.689406 
L 344.973975 252.009578 
L 367.11 318.086667 
L 398.308975 296.547163 
L 420.445 317.052552 
" clip-path="url(#p099dfa88d9)" style="fill: none; stroke-dasharray: 5.55,2.4; stroke-dashoffset: 0; stroke: #8c564b; stroke-width: 1.5"/>
   </g>
   <g id="line2d_43">
    <path d="M 100.435 318.56425 
L 100.435 31.43625 
" clip-path="url(#p099dfa88d9)" style="fill: none; stroke: #ff0000; stroke-width: 1.5; stroke-linecap: square"/>
   </g>
   <g id="line2d_44">
    <path d="M 260.44 318.56425 
L 260.44 31.43625 
" clip-path="url(#p099dfa88d9)" style="fill: none; stroke: #008000; stroke-width: 1.5; stroke-linecap: square"/>
   </g>
   <g id="patch_3">
    <path d="M 47.1 318.56425 
L 47.1 31.43625 
" style="fill: none; stroke: #000000; stroke-width: 0.8; stroke-linejoin: miter; stroke-linecap: square"/>
   </g>
   <g id="patch_4">
    <path d="M 420.445 318.56425 
L 420.445 31.43625 
" style="fill: none; stroke: #000000; stroke-width: 0.8; stroke-linejoin: miter; stroke-linecap: square"/>
   </g>
   <g id="patch_5">
    <path d="M 47.1 318.56425 
L 420.445 318.56425 
" style="fill: none; stroke: #000000; stroke-width: 0.8; stroke-linejoin: miter; stroke-linecap: square"/>
   </g>
   <g id="patch_6">
    <path d="M 47.1 31.43625 
L 420.445 31.43625 
" style="fill: none; stroke: #000000; stroke-width: 0.8; stroke-linejoin: miter; stroke-linecap: square"/>
   </g>
   <g id="text_11">
    <!-- Ice Storm (Load) -->
    <g transform="translate(134.391875 25.43625)scale(0.24 -0.24)">
     <defs>
      <path id="DejaVuSans-49" d="M 628 4666 
L 1259 4666 
L 1259 0 
L 628 0 
L 628 4666 
z
" transform="scale(0.015625)"/>
      <path id="DejaVuSans-53" d="M 3425 4513 
L 3425 3897 
Q 3066 4069 2747 4153 
Q 2428 4238 2131 4238 
Q 1616 4238 1336 4038 
Q 1056 3838 1056 3469 
Q 1056 3159 1242 3001 
Q 1428 2844 1947 2747 
L 2328 2669 
Q 3034 2534 3370 2195 
Q 3706 1856 3706 1288 
Q 3706 609 3251 259 
Q 2797 -91 1919 -91 
Q 1588 -91 1214 -16 
Q 841 59 441 206 
L 441 856 
Q 825 641 1194 531 
Q 1563 422 1919 422 
Q 2459 422 2753 634 
Q 3047 847 3047 1241 
Q 3047 1584 2836 1778 
Q 2625 1972 2144 2069 
L 1759 2144 
Q 1053 2284 737 2584 
Q 422 2884 422 3419 
Q 422 4038 858 4394 
Q 1294 4750 2059 4750 
Q 2388 4750 2728 4690 
Q 3069 4631 3425 4513 
z
" transform="scale(0.015625)"/>
      <path id="DejaVuSans-6d" d="M 3328 2828 
Q 3544 3216 3844 3400 
Q 4144 3584 4550 3584 
Q 5097 3584 5394 3201 
Q 5691 2819 5691 2113 
L 5691 0 
L 5113 0 
L 5113 2094 
Q 5113 2597 4934 2840 
Q 4756 3084 4391 3084 
Q 3944 3084 3684 2787 
Q 3425 2491 3425 1978 
L 3425 0 
L 2847 0 
L 2847 2094 
Q 2847 2600 2669 2842 
Q 2491 3084 2119 3084 
Q 1678 3084 1418 2786 
Q 1159 2488 1159 1978 
L 1159 0 
L 581 0 
L 581 3500 
L 1159 3500 
L 1159 2956 
Q 1356 3278 1631 3431 
Q 1906 3584 2284 3584 
Q 2666 3584 2933 3390 
Q 3200 3197 3328 2828 
z
" transform="scale(0.015625)"/>
      <path id="DejaVuSans-28" d="M 1984 4856 
Q 1566 4138 1362 3434 
Q 1159 2731 1159 2009 
Q 1159 1288 1364 580 
Q 1569 -128 1984 -844 
L 1484 -844 
Q 1016 -109 783 600 
Q 550 1309 550 2009 
Q 550 2706 781 3412 
Q 1013 4119 1484 4856 
L 1984 4856 
z
" transform="scale(0.015625)"/>
      <path id="DejaVuSans-4c" d="M 628 4666 
L 1259 4666 
L 1259 531 
L 3531 531 
L 3531 0 
L 628 0 
L 628 4666 
z
" transform="scale(0.015625)"/>
      <path id="DejaVuSans-64" d="M 2906 2969 
L 2906 4863 
L 3481 4863 
L 3481 0 
L 2906 0 
L 2906 525 
Q 2725 213 2448 61 
Q 2172 -91 1784 -91 
Q 1150 -91 751 415 
Q 353 922 353 1747 
Q 353 2572 751 3078 
Q 1150 3584 1784 3584 
Q 2172 3584 2448 3432 
Q 2725 3281 2906 2969 
z
M 947 1747 
Q 947 1113 1208 752 
Q 1469 391 1925 391 
Q 2381 391 2643 752 
Q 2906 1113 2906 1747 
Q 2906 2381 2643 2742 
Q 2381 3103 1925 3103 
Q 1469 3103 1208 2742 
Q 947 2381 947 1747 
z
" transform="scale(0.015625)"/>
      <path id="DejaVuSans-29" d="M 513 4856 
L 1013 4856 
Q 1481 4119 1714 3412 
Q 1947 2706 1947 2009 
Q 1947 1309 1714 600 
Q 1481 -109 1013 -844 
L 513 -844 
Q 928 -128 1133 580 
Q 1338 1288 1338 2009 
Q 1338 2731 1133 3434 
Q 928 4138 513 4856 
z
" transform="scale(0.015625)"/>
     </defs>
     <use xlink:href="#DejaVuSans-49"/>
     <use xlink:href="#DejaVuSans-63" x="29.492188"/>
     <use xlink:href="#DejaVuSans-65" x="84.472656"/>
     <use xlink:href="#DejaVuSans-20" x="145.996094"/>
     <use xlink:href="#DejaVuSans-53" x="177.783203"/>
     <use xlink:href="#DejaVuSans-74" x="241.259766"/>
     <use xlink:href="#DejaVuSans-6f" x="280.46875"/>
     <use xlink:href="#DejaVuSans-72" x="341.650391"/>
     <use xlink:href="#DejaVuSans-6d" x="381.013672"/>
     <use xlink:href="#DejaVuSans-20" x="478.425781"/>
     <use xlink:href="#DejaVuSans-28" x="510.212891"/>
     <use xlink:href="#DejaVuSans-4c" x="549.226562"/>
     <use xlink:href="#DejaVuSans-6f" x="603.189453"/>
     <use xlink:href="#DejaVuSans-61" x="664.371094"/>
     <use xlink:href="#DejaVuSans-64" x="725.650391"/>
     <use xlink:href="#DejaVuSans-29" x="789.126953"/>
    </g>
   </g>
   <g id="legend_1">
    <g id="patch_7">
     <path d="M 110.715 193.814 
L 414.845 193.814 
Q 416.445 193.814 416.445 192.214 
L 416.445 157.7865 
Q 416.445 156.1865 414.845 156.1865 
L 110.715 156.1865 
Q 109.115 156.1865 109.115 157.7865 
L 109.115 192.214 
Q 109.115 193.814 110.715 193.814 
z
" style="fill: #ffffff; opacity: 0.8; stroke: #cccccc; stroke-linejoin: miter"/>
    </g>
    <g id="line2d_45">
     <path d="M 112.315 162.66525 
L 120.315 162.66525 
L 128.315 162.66525 
" style="fill: none; stroke: #1f77b4; stroke-width: 1.5; stroke-linecap: square"/>
    </g>
    <g id="text_12">
     <!-- 5 -->
     <g transform="translate(134.715 165.46525)scale(0.08 -0.08)">
      <use xlink:href="#DejaVuSans-35"/>
     </g>
    </g>
    <g id="line2d_46">
     <path d="M 112.315 174.40775 
L 120.315 174.40775 
L 128.315 174.40775 
" style="fill: none; stroke: #ff7f0e; stroke-width: 1.5; stroke-linecap: square"/>
    </g>
    <g id="text_13">
     <!-- 8 -->
     <g transform="translate(134.715 177.20775)scale(0.08 -0.08)">
      <defs>
       <path id="DejaVuSans-38" d="M 2034 2216 
Q 1584 2216 1326 1975 
Q 1069 1734 1069 1313 
Q 1069 891 1326 650 
Q 1584 409 2034 409 
Q 2484 409 2743 651 
Q 3003 894 3003 1313 
Q 3003 1734 2745 1975 
Q 2488 2216 2034 2216 
z
M 1403 2484 
Q 997 2584 770 2862 
Q 544 3141 544 3541 
Q 544 4100 942 4425 
Q 1341 4750 2034 4750 
Q 2731 4750 3128 4425 
Q 3525 4100 3525 3541 
Q 3525 3141 3298 2862 
Q 3072 2584 2669 2484 
Q 3125 2378 3379 2068 
Q 3634 1759 3634 1313 
Q 3634 634 3220 271 
Q 2806 -91 2034 -91 
Q 1263 -91 848 271 
Q 434 634 434 1313 
Q 434 1759 690 2068 
Q 947 2378 1403 2484 
z
M 1172 3481 
Q 1172 3119 1398 2916 
Q 1625 2713 2034 2713 
Q 2441 2713 2670 2916 
Q 2900 3119 2900 3481 
Q 2900 3844 2670 4047 
Q 2441 4250 2034 4250 
Q 1625 4250 1398 4047 
Q 1172 3844 1172 3481 
z
" transform="scale(0.015625)"/>
      </defs>
      <use xlink:href="#DejaVuSans-38"/>
     </g>
    </g>
    <g id="line2d_47">
     <path d="M 112.315 186.15025 
L 120.315 186.15025 
L 128.315 186.15025 
" style="fill: none; stroke: #2ca02c; stroke-width: 1.5; stroke-linecap: square"/>
    </g>
    <g id="text_14">
     <!-- 11 -->
     <g transform="translate(134.715 188.95025)scale(0.08 -0.08)">
      <use xlink:href="#DejaVuSans-31"/>
      <use xlink:href="#DejaVuSans-31" x="63.623047"/>
     </g>
    </g>
    <g id="line2d_48">
     <path d="M 160.895 162.66525 
L 168.895 162.66525 
L 176.895 162.66525 
" style="fill: none; stroke: #d62728; stroke-width: 1.5; stroke-linecap: square"/>
    </g>
    <g id="text_15">
     <!-- 30 -->
     <g transform="translate(183.295 165.46525)scale(0.08 -0.08)">
      <use xlink:href="#DejaVuSans-33"/>
      <use xlink:href="#DejaVuSans-30" x="63.623047"/>
     </g>
    </g>
    <g id="line2d_49">
     <path d="M 160.895 174.40775 
L 168.895 174.40775 
L 176.895 174.40775 
" style="fill: none; stroke: #9467bd; stroke-width: 1.5; stroke-linecap: square"/>
    </g>
    <g id="text_16">
     <!-- 31 -->
     <g transform="translate(183.295 177.20775)scale(0.08 -0.08)">
      <use xlink:href="#DejaVuSans-33"/>
      <use xlink:href="#DejaVuSans-31" x="63.623047"/>
     </g>
    </g>
    <g id="line2d_50">
     <path d="M 160.895 186.15025 
L 168.895 186.15025 
L 176.895 186.15025 
" style="fill: none; stroke: #8c564b; stroke-width: 1.5; stroke-linecap: square"/>
    </g>
    <g id="text_17">
     <!-- 160 -->
     <g transform="translate(183.295 188.95025)scale(0.08 -0.08)">
      <defs>
       <path id="DejaVuSans-36" d="M 2113 2584 
Q 1688 2584 1439 2293 
Q 1191 2003 1191 1497 
Q 1191 994 1439 701 
Q 1688 409 2113 409 
Q 2538 409 2786 701 
Q 3034 994 3034 1497 
Q 3034 2003 2786 2293 
Q 2538 2584 2113 2584 
z
M 3366 4563 
L 3366 3988 
Q 3128 4100 2886 4159 
Q 2644 4219 2406 4219 
Q 1781 4219 1451 3797 
Q 1122 3375 1075 2522 
Q 1259 2794 1537 2939 
Q 1816 3084 2150 3084 
Q 2853 3084 3261 2657 
Q 3669 2231 3669 1497 
Q 3669 778 3244 343 
Q 2819 -91 2113 -91 
Q 1303 -91 875 529 
Q 447 1150 447 2328 
Q 447 3434 972 4092 
Q 1497 4750 2381 4750 
Q 2619 4750 2861 4703 
Q 3103 4656 3366 4563 
z
" transform="scale(0.015625)"/>
      </defs>
      <use xlink:href="#DejaVuSans-31"/>
      <use xlink:href="#DejaVuSans-36" x="63.623047"/>
      <use xlink:href="#DejaVuSans-30" x="127.246094"/>
     </g>
    </g>
    <g id="line2d_51">
     <path d="M 214.565 162.66525 
L 222.565 162.66525 
L 230.565 162.66525 
" style="fill: none; stroke: #e377c2; stroke-width: 1.5; stroke-linecap: square"/>
    </g>
    <g id="text_18">
     <!-- 161 -->
     <g transform="translate(236.965 165.46525)scale(0.08 -0.08)">
      <use xlink:href="#DejaVuSans-31"/>
      <use xlink:href="#DejaVuSans-36" x="63.623047"/>
      <use xlink:href="#DejaVuSans-31" x="127.246094"/>
     </g>
    </g>
    <g id="line2d_52">
     <path d="M 214.565 174.40775 
L 222.565 174.40775 
L 230.565 174.40775 
" style="fill: none; stroke: #7f7f7f; stroke-width: 1.5; stroke-linecap: square"/>
    </g>
    <g id="text_19">
     <!-- 163 -->
     <g transform="translate(236.965 177.20775)scale(0.08 -0.08)">
      <use xlink:href="#DejaVuSans-31"/>
      <use xlink:href="#DejaVuSans-36" x="63.623047"/>
      <use xlink:href="#DejaVuSans-33" x="127.246094"/>
     </g>
    </g>
    <g id="line2d_53">
     <path d="M 214.565 186.15025 
L 222.565 186.15025 
L 230.565 186.15025 
" style="fill: none; stroke: #bcbd22; stroke-width: 1.5; stroke-linecap: square"/>
    </g>
    <g id="text_20">
     <!-- 166 -->
     <g transform="translate(236.965 188.95025)scale(0.08 -0.08)">
      <use xlink:href="#DejaVuSans-31"/>
      <use xlink:href="#DejaVuSans-36" x="63.623047"/>
      <use xlink:href="#DejaVuSans-36" x="127.246094"/>
     </g>
    </g>
    <g id="line2d_54">
     <path d="M 268.235 162.66525 
L 276.235 162.66525 
L 284.235 162.66525 
" style="fill: none; stroke: #17becf; stroke-width: 1.5; stroke-linecap: square"/>
    </g>
    <g id="text_21">
     <!-- 172 -->
     <g transform="translate(290.635 165.46525)scale(0.08 -0.08)">
      <defs>
       <path id="DejaVuSans-37" d="M 525 4666 
L 3525 4666 
L 3525 4397 
L 1831 0 
L 1172 0 
L 2766 4134 
L 525 4134 
L 525 4666 
z
" transform="scale(0.015625)"/>
      </defs>
      <use xlink:href="#DejaVuSans-31"/>
      <use xlink:href="#DejaVuSans-37" x="63.623047"/>
      <use xlink:href="#DejaVuSans-32" x="127.246094"/>
     </g>
    </g>
    <g id="line2d_55">
     <path d="M 268.235 174.40775 
L 276.235 174.40775 
L 284.235 174.40775 
" style="fill: none; stroke-dasharray: 5.55,2.4; stroke-dashoffset: 0; stroke: #1f77b4; stroke-width: 1.5"/>
    </g>
    <g id="text_22">
     <!-- 181 -->
     <g transform="translate(290.635 177.20775)scale(0.08 -0.08)">
      <use xlink:href="#DejaVuSans-31"/>
      <use xlink:href="#DejaVuSans-38" x="63.623047"/>
      <use xlink:href="#DejaVuSans-31" x="127.246094"/>
     </g>
    </g>
    <g id="line2d_56">
     <path d="M 268.235 186.15025 
L 276.235 186.15025 
L 284.235 186.15025 
" style="fill: none; stroke-dasharray: 5.55,2.4; stroke-dashoffset: 0; stroke: #ff7f0e; stroke-width: 1.5"/>
    </g>
    <g id="text_23">
     <!-- 187 -->
     <g transform="translate(290.635 188.95025)scale(0.08 -0.08)">
      <use xlink:href="#DejaVuSans-31"/>
      <use xlink:href="#DejaVuSans-38" x="63.623047"/>
      <use xlink:href="#DejaVuSans-37" x="127.246094"/>
     </g>
    </g>
    <g id="line2d_57">
     <path d="M 321.905 162.66525 
L 329.905 162.66525 
L 337.905 162.66525 
" style="fill: none; stroke-dasharray: 5.55,2.4; stroke-dashoffset: 0; stroke: #2ca02c; stroke-width: 1.5"/>
    </g>
    <g id="text_24">
     <!-- 191 -->
     <g transform="translate(344.305 165.46525)scale(0.08 -0.08)">
      <defs>
       <path id="DejaVuSans-39" d="M 703 97 
L 703 672 
Q 941 559 1184 500 
Q 1428 441 1663 441 
Q 2288 441 2617 861 
Q 2947 1281 2994 2138 
Q 2813 1869 2534 1725 
Q 2256 1581 1919 1581 
Q 1219 1581 811 2004 
Q 403 2428 403 3163 
Q 403 3881 828 4315 
Q 1253 4750 1959 4750 
Q 2769 4750 3195 4129 
Q 3622 3509 3622 2328 
Q 3622 1225 3098 567 
Q 2575 -91 1691 -91 
Q 1453 -91 1209 -44 
Q 966 3 703 97 
z
M 1959 2075 
Q 2384 2075 2632 2365 
Q 2881 2656 2881 3163 
Q 2881 3666 2632 3958 
Q 2384 4250 1959 4250 
Q 1534 4250 1286 3958 
Q 1038 3666 1038 3163 
Q 1038 2656 1286 2365 
Q 1534 2075 1959 2075 
z
" transform="scale(0.015625)"/>
      </defs>
      <use xlink:href="#DejaVuSans-31"/>
      <use xlink:href="#DejaVuSans-39" x="63.623047"/>
      <use xlink:href="#DejaVuSans-31" x="127.246094"/>
     </g>
    </g>
    <g id="line2d_58">
     <path d="M 321.905 174.40775 
L 329.905 174.40775 
L 337.905 174.40775 
" style="fill: none; stroke-dasharray: 5.55,2.4; stroke-dashoffset: 0; stroke: #d62728; stroke-width: 1.5"/>
    </g>
    <g id="text_25">
     <!-- 193 -->
     <g transform="translate(344.305 177.20775)scale(0.08 -0.08)">
      <use xlink:href="#DejaVuSans-31"/>
      <use xlink:href="#DejaVuSans-39" x="63.623047"/>
      <use xlink:href="#DejaVuSans-33" x="127.246094"/>
     </g>
    </g>
    <g id="line2d_59">
     <path d="M 375.575 162.66525 
L 383.575 162.66525 
L 391.575 162.66525 
" style="fill: none; stroke-dasharray: 5.55,2.4; stroke-dashoffset: 0; stroke: #9467bd; stroke-width: 1.5"/>
    </g>
    <g id="text_26">
     <!-- 234 -->
     <g transform="translate(397.975 165.46525)scale(0.08 -0.08)">
      <use xlink:href="#DejaVuSans-32"/>
      <use xlink:href="#DejaVuSans-33" x="63.623047"/>
      <use xlink:href="#DejaVuSans-34" x="127.246094"/>
     </g>
    </g>
    <g id="line2d_60">
     <path d="M 375.575 174.40775 
L 383.575 174.40775 
L 391.575 174.40775 
" style="fill: none; stroke-dasharray: 5.55,2.4; stroke-dashoffset: 0; stroke: #8c564b; stroke-width: 1.5"/>
    </g>
    <g id="text_27">
     <!-- 235 -->
     <g transform="translate(397.975 177.20775)scale(0.08 -0.08)">
      <use xlink:href="#DejaVuSans-32"/>
      <use xlink:href="#DejaVuSans-33" x="63.623047"/>
      <use xlink:href="#DejaVuSans-35" x="127.246094"/>
     </g>
    </g>
   </g>
  </g>
  <g id="axes_2">
   <g id="patch_8">
    <path d="M 497.055 318.56425 
L 870.4 318.56425 
L 870.4 31.43625 
L 497.055 31.43625 
L 497.055 318.56425 
z
" style="fill: none"/>
   </g>
   <g id="matplotlib.axis_3">
    <g id="xtick_21">
     <g id="line2d_61">
      <g>
       <use xlink:href="#md39032bed2" x="531.39507" y="318.56425" style="stroke: #000000; stroke-width: 0.8"/>
      </g>
     </g>
     <g id="text_28">
      <!-- $\mathdefault{10^{2}}$ -->
      <g transform="translate(518.19507 336.961906)scale(0.15 -0.15)">
       <use xlink:href="#DejaVuSans-31" transform="translate(0 0.765625)"/>
       <use xlink:href="#DejaVuSans-30" transform="translate(63.623047 0.765625)"/>
       <use xlink:href="#DejaVuSans-32" transform="translate(128.203125 39.046875)scale(0.7)"/>
      </g>
     </g>
    </g>
    <g id="xtick_22">
     <g id="line2d_62">
      <g>
       <use xlink:href="#md39032bed2" x="708.570105" y="318.56425" style="stroke: #000000; stroke-width: 0.8"/>
      </g>
     </g>
     <g id="text_29">
      <!-- $\mathdefault{10^{3}}$ -->
      <g transform="translate(695.370105 336.961906)scale(0.15 -0.15)">
       <use xlink:href="#DejaVuSans-31" transform="translate(0 0.765625)"/>
       <use xlink:href="#DejaVuSans-30" transform="translate(63.623047 0.765625)"/>
       <use xlink:href="#DejaVuSans-33" transform="translate(128.203125 39.046875)scale(0.7)"/>
      </g>
     </g>
    </g>
    <g id="xtick_23">
     <g id="line2d_63">
      <g>
       <use xlink:href="#m00e623f56d" x="503.95031" y="318.56425" style="stroke: #000000; stroke-width: 0.6"/>
      </g>
     </g>
    </g>
    <g id="xtick_24">
     <g id="line2d_64">
      <g>
       <use xlink:href="#m00e623f56d" x="514.225035" y="318.56425" style="stroke: #000000; stroke-width: 0.6"/>
      </g>
     </g>
    </g>
    <g id="xtick_25">
     <g id="line2d_65">
      <g>
       <use xlink:href="#m00e623f56d" x="523.287985" y="318.56425" style="stroke: #000000; stroke-width: 0.6"/>
      </g>
     </g>
    </g>
    <g id="xtick_26">
     <g id="line2d_66">
      <g>
       <use xlink:href="#m00e623f56d" x="584.73007" y="318.56425" style="stroke: #000000; stroke-width: 0.6"/>
      </g>
     </g>
    </g>
    <g id="xtick_27">
     <g id="line2d_67">
      <g>
       <use xlink:href="#m00e623f56d" x="615.929045" y="318.56425" style="stroke: #000000; stroke-width: 0.6"/>
      </g>
     </g>
    </g>
    <g id="xtick_28">
     <g id="line2d_68">
      <g>
       <use xlink:href="#m00e623f56d" x="638.06507" y="318.56425" style="stroke: #000000; stroke-width: 0.6"/>
      </g>
     </g>
    </g>
    <g id="xtick_29">
     <g id="line2d_69">
      <g>
       <use xlink:href="#m00e623f56d" x="655.235105" y="318.56425" style="stroke: #000000; stroke-width: 0.6"/>
      </g>
     </g>
    </g>
    <g id="xtick_30">
     <g id="line2d_70">
      <g>
       <use xlink:href="#m00e623f56d" x="669.264045" y="318.56425" style="stroke: #000000; stroke-width: 0.6"/>
      </g>
     </g>
    </g>
    <g id="xtick_31">
     <g id="line2d_71">
      <g>
       <use xlink:href="#m00e623f56d" x="681.125345" y="318.56425" style="stroke: #000000; stroke-width: 0.6"/>
      </g>
     </g>
    </g>
    <g id="xtick_32">
     <g id="line2d_72">
      <g>
       <use xlink:href="#m00e623f56d" x="691.40007" y="318.56425" style="stroke: #000000; stroke-width: 0.6"/>
      </g>
     </g>
    </g>
    <g id="xtick_33">
     <g id="line2d_73">
      <g>
       <use xlink:href="#m00e623f56d" x="700.46302" y="318.56425" style="stroke: #000000; stroke-width: 0.6"/>
      </g>
     </g>
    </g>
    <g id="xtick_34">
     <g id="line2d_74">
      <g>
       <use xlink:href="#m00e623f56d" x="761.905105" y="318.56425" style="stroke: #000000; stroke-width: 0.6"/>
      </g>
     </g>
    </g>
    <g id="xtick_35">
     <g id="line2d_75">
      <g>
       <use xlink:href="#m00e623f56d" x="793.10408" y="318.56425" style="stroke: #000000; stroke-width: 0.6"/>
      </g>
     </g>
    </g>
    <g id="xtick_36">
     <g id="line2d_76">
      <g>
       <use xlink:href="#m00e623f56d" x="815.240105" y="318.56425" style="stroke: #000000; stroke-width: 0.6"/>
      </g>
     </g>
    </g>
    <g id="xtick_37">
     <g id="line2d_77">
      <g>
       <use xlink:href="#m00e623f56d" x="832.41014" y="318.56425" style="stroke: #000000; stroke-width: 0.6"/>
      </g>
     </g>
    </g>
    <g id="xtick_38">
     <g id="line2d_78">
      <g>
       <use xlink:href="#m00e623f56d" x="846.43908" y="318.56425" style="stroke: #000000; stroke-width: 0.6"/>
      </g>
     </g>
    </g>
    <g id="xtick_39">
     <g id="line2d_79">
      <g>
       <use xlink:href="#m00e623f56d" x="858.30038" y="318.56425" style="stroke: #000000; stroke-width: 0.6"/>
      </g>
     </g>
    </g>
    <g id="xtick_40">
     <g id="line2d_80">
      <g>
       <use xlink:href="#m00e623f56d" x="868.575105" y="318.56425" style="stroke: #000000; stroke-width: 0.6"/>
      </g>
     </g>
    </g>
    <g id="text_30">
     <!-- Page Count -->
     <g transform="translate(626.643125 359.278312)scale(0.2 -0.2)">
      <use xlink:href="#DejaVuSans-50"/>
      <use xlink:href="#DejaVuSans-61" x="55.802734"/>
      <use xlink:href="#DejaVuSans-67" x="117.082031"/>
      <use xlink:href="#DejaVuSans-65" x="180.558594"/>
      <use xlink:href="#DejaVuSans-20" x="242.082031"/>
      <use xlink:href="#DejaVuSans-43" x="273.869141"/>
      <use xlink:href="#DejaVuSans-6f" x="343.693359"/>
      <use xlink:href="#DejaVuSans-75" x="404.875"/>
      <use xlink:href="#DejaVuSans-6e" x="468.253906"/>
      <use xlink:href="#DejaVuSans-74" x="531.632812"/>
     </g>
    </g>
   </g>
   <g id="matplotlib.axis_4">
    <g id="ytick_7">
     <g id="line2d_81">
      <g>
       <use xlink:href="#m6f3f5b6aff" x="497.055" y="318.56425" style="stroke: #000000; stroke-width: 0.8"/>
      </g>
     </g>
     <g id="text_31">
      <!-- 0.0 -->
      <g transform="translate(466.200312 324.263078)scale(0.15 -0.15)">
       <defs>
        <path id="DejaVuSans-2e" d="M 684 794 
L 1344 794 
L 1344 0 
L 684 0 
L 684 794 
z
" transform="scale(0.015625)"/>
       </defs>
       <use xlink:href="#DejaVuSans-30"/>
       <use xlink:href="#DejaVuSans-2e" x="63.623047"/>
       <use xlink:href="#DejaVuSans-30" x="95.410156"/>
      </g>
     </g>
    </g>
    <g id="ytick_8">
     <g id="line2d_82">
      <g>
       <use xlink:href="#m6f3f5b6aff" x="497.055" y="269.340954" style="stroke: #000000; stroke-width: 0.8"/>
      </g>
     </g>
     <g id="text_32">
      <!-- 0.5 -->
      <g transform="translate(466.200312 275.039782)scale(0.15 -0.15)">
       <use xlink:href="#DejaVuSans-30"/>
       <use xlink:href="#DejaVuSans-2e" x="63.623047"/>
       <use xlink:href="#DejaVuSans-35" x="95.410156"/>
      </g>
     </g>
    </g>
    <g id="ytick_9">
     <g id="line2d_83">
      <g>
       <use xlink:href="#m6f3f5b6aff" x="497.055" y="220.117658" style="stroke: #000000; stroke-width: 0.8"/>
      </g>
     </g>
     <g id="text_33">
      <!-- 1.0 -->
      <g transform="translate(466.200312 225.816487)scale(0.15 -0.15)">
       <use xlink:href="#DejaVuSans-31"/>
       <use xlink:href="#DejaVuSans-2e" x="63.623047"/>
       <use xlink:href="#DejaVuSans-30" x="95.410156"/>
      </g>
     </g>
    </g>
    <g id="ytick_10">
     <g id="line2d_84">
      <g>
       <use xlink:href="#m6f3f5b6aff" x="497.055" y="170.894363" style="stroke: #000000; stroke-width: 0.8"/>
      </g>
     </g>
     <g id="text_34">
      <!-- 1.5 -->
      <g transform="translate(466.200312 176.593191)scale(0.15 -0.15)">
       <use xlink:href="#DejaVuSans-31"/>
       <use xlink:href="#DejaVuSans-2e" x="63.623047"/>
       <use xlink:href="#DejaVuSans-35" x="95.410156"/>
      </g>
     </g>
    </g>
    <g id="ytick_11">
     <g id="line2d_85">
      <g>
       <use xlink:href="#m6f3f5b6aff" x="497.055" y="121.671067" style="stroke: #000000; stroke-width: 0.8"/>
      </g>
     </g>
     <g id="text_35">
      <!-- 2.0 -->
      <g transform="translate(466.200312 127.369895)scale(0.15 -0.15)">
       <use xlink:href="#DejaVuSans-32"/>
       <use xlink:href="#DejaVuSans-2e" x="63.623047"/>
       <use xlink:href="#DejaVuSans-30" x="95.410156"/>
      </g>
     </g>
    </g>
    <g id="ytick_12">
     <g id="line2d_86">
      <g>
       <use xlink:href="#m6f3f5b6aff" x="497.055" y="72.447771" style="stroke: #000000; stroke-width: 0.8"/>
      </g>
     </g>
     <g id="text_36">
      <!-- 2.5 -->
      <g transform="translate(466.200312 78.146599)scale(0.15 -0.15)">
       <use xlink:href="#DejaVuSans-32"/>
       <use xlink:href="#DejaVuSans-2e" x="63.623047"/>
       <use xlink:href="#DejaVuSans-35" x="95.410156"/>
      </g>
     </g>
    </g>
    <g id="text_37">
     <!-- Count Difference -->
     <g transform="translate(458.040937 259.57525)rotate(-90)scale(0.2 -0.2)">
      <use xlink:href="#DejaVuSans-43"/>
      <use xlink:href="#DejaVuSans-6f" x="69.824219"/>
      <use xlink:href="#DejaVuSans-75" x="131.005859"/>
      <use xlink:href="#DejaVuSans-6e" x="194.384766"/>
      <use xlink:href="#DejaVuSans-74" x="257.763672"/>
      <use xlink:href="#DejaVuSans-20" x="296.972656"/>
      <use xlink:href="#DejaVuSans-44" x="328.759766"/>
      <use xlink:href="#DejaVuSans-69" x="405.761719"/>
      <use xlink:href="#DejaVuSans-66" x="433.544922"/>
      <use xlink:href="#DejaVuSans-66" x="468.75"/>
      <use xlink:href="#DejaVuSans-65" x="503.955078"/>
      <use xlink:href="#DejaVuSans-72" x="565.478516"/>
      <use xlink:href="#DejaVuSans-65" x="604.341797"/>
      <use xlink:href="#DejaVuSans-6e" x="665.865234"/>
      <use xlink:href="#DejaVuSans-63" x="729.244141"/>
      <use xlink:href="#DejaVuSans-65" x="784.224609"/>
     </g>
    </g>
   </g>
   <g id="line2d_87">
    <path d="M 497.055 318.542592 
L 528.253975 318.547514 
L 550.39 318.534716 
L 567.560035 318.528809 
L 581.588975 318.476633 
L 603.725 318.580001 
L 634.923975 315.463182 
L 657.06 318.533732 
L 688.258975 318.345699 
L 710.395 318.529794 
L 741.593975 318.435285 
L 763.73 318.55539 
L 794.928975 318.4914 
L 817.065 318.530778 
L 848.263975 307.272426 
L 870.4 297.729998 
" clip-path="url(#pd3a15db12e)" style="fill: none; stroke: #1f77b4; stroke-width: 1.5; stroke-linecap: square"/>
   </g>
   <g id="line2d_88">
    <path d="M 497.055 318.559328 
L 528.253975 318.552436 
L 550.39 318.539638 
L 567.560035 318.238392 
L 581.588975 301.987813 
L 603.725 281.58771 
L 634.923975 261.174809 
L 657.06 250.888125 
L 688.258975 240.627037 
L 710.395 235.481233 
L 741.593975 230.391545 
L 763.73 227.740378 
L 794.928975 225.25657 
L 817.065 223.862567 
L 848.263975 222.438045 
L 870.4 221.854256 
" clip-path="url(#pd3a15db12e)" style="fill: none; stroke: #ff7f0e; stroke-width: 1.5; stroke-linecap: square"/>
   </g>
   <g id="line2d_89">
    <path d="M 497.055 318.56425 
L 528.253975 318.565234 
L 550.39 318.566219 
L 567.560035 318.569172 
L 581.588975 318.571141 
L 603.725 318.567203 
L 634.923975 318.57311 
L 657.06 318.570157 
L 688.258975 318.567203 
L 710.395 318.578033 
L 741.593975 318.56425 
L 763.73 318.559328 
L 794.928975 318.312227 
L 817.065 292.839171 
L 848.263975 269.149968 
L 870.4 256.386367 
" clip-path="url(#pd3a15db12e)" style="fill: none; stroke: #2ca02c; stroke-width: 1.5; stroke-linecap: square"/>
   </g>
   <g id="line2d_90">
    <path d="M 497.055 318.56425 
L 528.253975 318.56425 
L 550.39 318.565234 
L 567.560035 318.566219 
L 581.588975 318.570157 
L 603.725 318.567203 
L 634.923975 318.570157 
L 657.06 318.568188 
L 688.258975 318.571141 
L 710.395 318.567203 
L 741.593975 318.567203 
L 763.73 318.570157 
L 794.928975 318.556374 
L 817.065 308.648709 
L 848.263975 287.711088 
L 870.4 278.617577 
" clip-path="url(#pd3a15db12e)" style="fill: none; stroke: #d62728; stroke-width: 1.5; stroke-linecap: square"/>
   </g>
   <g id="line2d_91">
    <path d="M 497.055 318.56425 
L 528.253975 318.565234 
L 550.39 318.566219 
L 567.560035 318.568188 
L 581.588975 318.568188 
L 603.725 318.570157 
L 634.923975 318.578033 
L 657.06 318.570157 
L 688.258975 318.575079 
L 710.395 318.57311 
L 741.593975 318.570157 
L 763.73 318.570157 
L 794.928975 318.35259 
L 817.065 292.669843 
L 848.263975 269.147999 
L 870.4 256.447404 
" clip-path="url(#pd3a15db12e)" style="fill: none; stroke: #9467bd; stroke-width: 1.5; stroke-linecap: square"/>
   </g>
   <g id="line2d_92">
    <path d="M 497.055 318.473679 
L 528.253975 318.541607 
L 550.39 317.727454 
L 567.560035 318.56425 
L 581.588975 312.554086 
L 603.725 318.494353 
L 634.923975 265.685632 
L 657.06 318.461866 
L 688.258975 271.636729 
L 710.395 318.481555 
L 741.593975 272.490261 
L 763.73 318.354559 
L 794.928975 271.373876 
L 817.065 318.396891 
L 848.263975 279.819609 
L 870.4 317.83673 
" clip-path="url(#pd3a15db12e)" style="fill: none; stroke: #8c564b; stroke-width: 1.5; stroke-linecap: square"/>
   </g>
   <g id="line2d_93">
    <path d="M 497.055 318.528809 
L 528.253975 318.560312 
L 550.39 317.732376 
L 567.560035 318.567203 
L 581.588975 312.56393 
L 603.725 318.467772 
L 634.923975 265.774234 
L 657.06 318.492384 
L 688.258975 271.69875 
L 710.395 318.473679 
L 741.593975 272.548344 
L 763.73 318.513058 
L 794.928975 271.285274 
L 817.065 318.479586 
L 848.263975 279.84619 
L 870.4 317.66937 
" clip-path="url(#pd3a15db12e)" style="fill: none; stroke: #e377c2; stroke-width: 1.5; stroke-linecap: square"/>
   </g>
   <g id="line2d_94">
    <path d="M 497.055 267.868193 
L 528.253975 230.604189 
L 550.39 267.964671 
L 567.560035 222.592606 
L 581.588975 213.585727 
L 603.725 230.631754 
L 634.923975 164.464816 
L 657.06 200.172379 
L 688.258975 126.535313 
L 710.395 184.753674 
L 741.593975 119.833069 
L 763.73 178.450139 
L 794.928975 159.772851 
L 817.065 170.77918 
L 848.263975 67.50969 
L 870.4 65.05837 
" clip-path="url(#pd3a15db12e)" style="fill: none; stroke: #7f7f7f; stroke-width: 1.5; stroke-linecap: square"/>
   </g>
   <g id="line2d_95">
    <path d="M 497.055 278.514208 
L 528.253975 320.297894 
L 550.39 274.369606 
L 567.560035 319.721982 
L 581.588975 318.217718 
L 603.725 271.564863 
L 634.923975 317.401596 
L 657.06 272.162434 
L 688.258975 319.572343 
L 710.395 270.682781 
L 741.593975 319.015135 
L 763.73 271.419162 
L 794.928975 320.550902 
L 817.065 269.888317 
L 848.263975 320.514477 
L 870.4 250.288585 
" clip-path="url(#pd3a15db12e)" style="fill: none; stroke: #bcbd22; stroke-width: 1.5; stroke-linecap: square"/>
   </g>
   <g id="line2d_96">
    <path d="M 497.055 316.430912 
L 528.253975 318.692231 
L 550.39 316.687858 
L 567.560035 319.5497 
L 581.588975 242.225809 
L 603.725 317.600458 
L 634.923975 239.350185 
L 657.06 315.583287 
L 688.258975 236.117198 
L 710.395 317.067862 
L 741.593975 236.175282 
L 763.73 316.22319 
L 794.928975 234.396352 
L 817.065 317.777662 
L 848.263975 234.214226 
L 870.4 312.788388 
" clip-path="url(#pd3a15db12e)" style="fill: none; stroke: #17becf; stroke-width: 1.5; stroke-linecap: square"/>
   </g>
   <g id="line2d_97">
    <path d="M 497.055 318.537669 
L 528.253975 318.529794 
L 550.39 318.513058 
L 567.560035 318.223625 
L 581.588975 304.411568 
L 603.725 298.910372 
L 634.923975 273.946286 
L 657.06 283.01617 
L 688.258975 269.312405 
L 710.395 275.107956 
L 741.593975 258.425196 
L 763.73 271.153356 
L 794.928975 245.635015 
L 817.065 238.536031 
L 848.263975 174.560514 
L 870.4 152.073343 
" clip-path="url(#pd3a15db12e)" style="fill: none; stroke-dasharray: 5.55,2.4; stroke-dashoffset: 0; stroke: #1f77b4; stroke-width: 1.5"/>
   </g>
   <g id="line2d_98">
    <path d="M 497.055 318.542592 
L 528.253975 318.5357 
L 550.39 318.525856 
L 567.560035 318.505182 
L 581.588975 318.466788 
L 603.725 318.523887 
L 634.923975 316.025312 
L 657.06 318.545545 
L 688.258975 318.327978 
L 710.395 318.547514 
L 741.593975 318.427409 
L 763.73 318.538654 
L 794.928975 318.450052 
L 817.065 318.516011 
L 848.263975 306.424801 
L 870.4 296.301538 
" clip-path="url(#pd3a15db12e)" style="fill: none; stroke-dasharray: 5.55,2.4; stroke-dashoffset: 0; stroke: #ff7f0e; stroke-width: 1.5"/>
   </g>
   <g id="line2d_99">
    <path d="M 497.055 318.534716 
L 528.253975 318.536685 
L 550.39 318.5357 
L 567.560035 318.542592 
L 581.588975 318.537669 
L 603.725 318.539638 
L 634.923975 310.484738 
L 657.06 318.539638 
L 688.258975 294.990229 
L 710.395 318.542592 
L 741.593975 299.72551 
L 763.73 318.547514 
L 794.928975 309.168507 
L 817.065 318.568188 
L 848.263975 310.468987 
L 870.4 318.572126 
" clip-path="url(#pd3a15db12e)" style="fill: none; stroke-dasharray: 5.55,2.4; stroke-dashoffset: 0; stroke: #2ca02c; stroke-width: 1.5"/>
   </g>
   <g id="line2d_100">
    <path d="M 497.055 318.541607 
L 528.253975 318.547514 
L 550.39 318.539638 
L 567.560035 318.550467 
L 581.588975 318.547514 
L 603.725 318.540623 
L 634.923975 311.136455 
L 657.06 318.540623 
L 688.258975 296.939472 
L 710.395 318.541607 
L 741.593975 301.280966 
L 763.73 318.54653 
L 794.928975 309.914732 
L 817.065 318.559328 
L 848.263975 311.101998 
L 870.4 318.559328 
" clip-path="url(#pd3a15db12e)" style="fill: none; stroke-dasharray: 5.55,2.4; stroke-dashoffset: 0; stroke: #d62728; stroke-width: 1.5"/>
   </g>
   <g id="line2d_101">
    <path d="M 497.055 318.565234 
L 528.253975 318.567203 
L 550.39 318.553421 
L 567.560035 318.524871 
L 581.588975 318.553421 
L 603.725 318.568188 
L 634.923975 317.919425 
L 657.06 318.56425 
L 688.258975 318.515027 
L 710.395 318.563266 
L 741.593975 318.530778 
L 763.73 318.565234 
L 794.928975 318.531763 
L 817.065 318.56425 
L 848.263975 314.827217 
L 870.4 309.639082 
" clip-path="url(#pd3a15db12e)" style="fill: none; stroke-dasharray: 5.55,2.4; stroke-dashoffset: 0; stroke: #9467bd; stroke-width: 1.5"/>
   </g>
   <g id="line2d_102">
    <path d="M 497.055 318.534716 
L 528.253975 318.528809 
L 550.39 318.536685 
L 567.560035 318.530778 
L 581.588975 318.511089 
L 603.725 318.525856 
L 634.923975 316.53625 
L 657.06 318.544561 
L 688.258975 318.358497 
L 710.395 318.520933 
L 741.593975 318.422487 
L 763.73 318.554405 
L 794.928975 318.470726 
L 817.065 318.522902 
L 848.263975 306.413972 
L 870.4 289.675098 
" clip-path="url(#pd3a15db12e)" style="fill: none; stroke-dasharray: 5.55,2.4; stroke-dashoffset: 0; stroke: #8c564b; stroke-width: 1.5"/>
   </g>
   <g id="line2d_103">
    <path d="M 497.055 318.540623 
L 528.253975 318.541607 
L 550.39 318.5357 
L 567.560035 318.521918 
L 581.588975 318.506167 
L 603.725 318.552436 
L 634.923975 316.356093 
L 657.06 318.554405 
L 688.258975 318.339792 
L 710.395 318.528809 
L 741.593975 318.417565 
L 763.73 318.557359 
L 794.928975 318.486477 
L 817.065 318.536685 
L 848.263975 306.60102 
L 870.4 290.464639 
" clip-path="url(#pd3a15db12e)" style="fill: none; stroke-dasharray: 5.55,2.4; stroke-dashoffset: 0; stroke: #e377c2; stroke-width: 1.5"/>
   </g>
   <g id="line2d_104">
    <path d="M 497.055 318.56425 
L 528.253975 318.56425 
L 550.39 318.426425 
L 567.560035 318.56425 
L 581.588975 318.152743 
L 603.725 318.56425 
L 634.923975 306.568533 
L 657.06 318.56425 
L 688.258975 317.818025 
L 710.395 318.56425 
L 741.593975 318.141914 
L 763.73 318.56425 
L 794.928975 318.286631 
L 817.065 318.549483 
L 848.263975 256.558649 
L 870.4 199.849474 
" clip-path="url(#pd3a15db12e)" style="fill: none; stroke-dasharray: 5.55,2.4; stroke-dashoffset: 0; stroke: #7f7f7f; stroke-width: 1.5"/>
   </g>
   <g id="line2d_105">
    <path d="M 497.055 318.534716 
L 528.253975 318.531763 
L 550.39 318.510104 
L 567.560035 318.52684 
L 581.588975 318.50026 
L 603.725 318.527825 
L 634.923975 316.335419 
L 657.06 318.550467 
L 688.258975 318.326009 
L 710.395 318.534716 
L 741.593975 318.402798 
L 763.73 318.550467 
L 794.928975 318.456943 
L 817.065 318.521918 
L 848.263975 306.382469 
L 870.4 290.290389 
" clip-path="url(#pd3a15db12e)" style="fill: none; stroke-dasharray: 5.55,2.4; stroke-dashoffset: 0; stroke: #bcbd22; stroke-width: 1.5"/>
   </g>
   <g id="line2d_106">
    <path d="M 497.055 318.544561 
L 528.253975 318.54653 
L 550.39 318.536685 
L 567.560035 318.52684 
L 581.588975 318.516011 
L 603.725 318.549483 
L 634.923975 316.631743 
L 657.06 318.559328 
L 688.258975 318.34373 
L 710.395 318.528809 
L 741.593975 318.424456 
L 763.73 318.556374 
L 794.928975 318.48057 
L 817.065 318.529794 
L 848.263975 306.529154 
L 870.4 289.630797 
" clip-path="url(#pd3a15db12e)" style="fill: none; stroke-dasharray: 5.55,2.4; stroke-dashoffset: 0; stroke: #17becf; stroke-width: 1.5"/>
   </g>
   <g id="line2d_107">
    <path d="M 497.055 318.583939 
L 528.253975 318.578033 
L 550.39 318.565234 
L 567.560035 318.580986 
L 581.588975 312.827767 
L 603.725 318.291553 
L 634.923975 241.928501 
L 657.06 318.562281 
L 688.258975 245.687192 
L 710.395 318.547514 
L 741.593975 246.429479 
L 763.73 318.439223 
L 794.928975 248.186751 
L 817.065 318.382124 
L 848.263975 260.081068 
L 870.4 305.951273 
" clip-path="url(#pd3a15db12e)" style="fill: none; stroke-dasharray: 9.6,2.4,1.5,2.4; stroke-dashoffset: 0; stroke: #1f77b4; stroke-width: 1.5"/>
   </g>
   <g id="line2d_108">
    <path d="M 497.055 318.20492 
L 528.253975 318.588862 
L 550.39 318.575079 
L 567.560035 318.464819 
L 581.588975 302.40818 
L 603.725 281.82792 
L 634.923975 259.437227 
L 657.06 250.983618 
L 688.258975 236.75021 
L 710.395 235.548177 
L 741.593975 224.959262 
L 763.73 229.464178 
L 794.928975 250.74144 
L 817.065 176.160271 
L 848.263975 97.005273 
L 870.4 56.671705 
" clip-path="url(#pd3a15db12e)" style="fill: none; stroke-dasharray: 9.6,2.4,1.5,2.4; stroke-dashoffset: 0; stroke: #ff7f0e; stroke-width: 1.5"/>
   </g>
   <g id="line2d_109">
    <path d="M 497.055 318.562281 
L 528.253975 318.556374 
L 550.39 318.532747 
L 567.560035 318.240361 
L 581.588975 301.922838 
L 603.725 281.506 
L 634.923975 259.002093 
L 657.06 250.82315 
L 688.258975 236.536581 
L 710.395 235.443824 
L 741.593975 224.610761 
L 763.73 227.720689 
L 794.928975 217.855356 
L 817.065 166.496753 
L 848.263975 95.079658 
L 870.4 55.915635 
" clip-path="url(#pd3a15db12e)" style="fill: none; stroke-dasharray: 9.6,2.4,1.5,2.4; stroke-dashoffset: 0; stroke: #2ca02c; stroke-width: 1.5"/>
   </g>
   <g id="line2d_110">
    <path d="M 497.055 268.715818 
L 528.253975 235.732272 
L 550.39 268.772917 
L 567.560035 229.291896 
L 581.588975 235.984296 
L 603.725 268.837892 
L 634.923975 228.663807 
L 657.06 268.868411 
L 688.258975 214.445166 
L 710.395 268.789653 
L 741.593975 218.920548 
L 763.73 269.73671 
L 794.928975 270.020236 
L 817.065 321.192774 
L 848.263975 296.012105 
L 870.4 319.486695 
" clip-path="url(#pd3a15db12e)" style="fill: none; stroke-dasharray: 9.6,2.4,1.5,2.4; stroke-dashoffset: 0; stroke: #d62728; stroke-width: 1.5"/>
   </g>
   <g id="line2d_111">
    <path d="M 497.055 318.111396 
L 528.253975 318.326009 
L 550.39 318.422487 
L 567.560035 318.239376 
L 581.588975 302.147296 
L 603.725 281.664499 
L 634.923975 251.197247 
L 657.06 250.911752 
L 688.258975 213.075774 
L 710.395 235.491078 
L 741.593975 206.291819 
L 763.73 229.148164 
L 794.928975 236.360362 
L 817.065 173.280708 
L 848.263975 88.653064 
L 870.4 49.44474 
" clip-path="url(#pd3a15db12e)" style="fill: none; stroke-dasharray: 9.6,2.4,1.5,2.4; stroke-dashoffset: 0; stroke: #9467bd; stroke-width: 1.5"/>
   </g>
   <g id="line2d_112">
    <path d="M 497.055 318.100567 
L 528.253975 317.489213 
L 550.39 318.14093 
L 567.560035 317.750097 
L 581.588975 301.147079 
L 603.725 280.437854 
L 634.923975 247.472028 
L 657.06 249.566972 
L 688.258975 207.235922 
L 710.395 232.856647 
L 741.593975 199.392682 
L 763.73 225.145326 
L 794.928975 201.757369 
L 817.065 169.293621 
L 848.263975 75.914076 
L 870.4 45.23418 
" clip-path="url(#pd3a15db12e)" style="fill: none; stroke-dasharray: 9.6,2.4,1.5,2.4; stroke-dashoffset: 0; stroke: #8c564b; stroke-width: 1.5"/>
   </g>
   <g id="line2d_113">
    <path d="M 497.055 269.032816 
L 528.253975 236.211707 
L 550.39 268.956028 
L 567.560035 229.642366 
L 581.588975 236.17922 
L 603.725 268.991469 
L 634.923975 236.209738 
L 657.06 268.965873 
L 688.258975 236.169375 
L 710.395 268.969811 
L 741.593975 236.31803 
L 763.73 269.634325 
L 794.928975 269.504376 
L 817.065 318.522902 
L 848.263975 302.135483 
L 870.4 318.516011 
" clip-path="url(#pd3a15db12e)" style="fill: none; stroke-dasharray: 9.6,2.4,1.5,2.4; stroke-dashoffset: 0; stroke: #e377c2; stroke-width: 1.5"/>
   </g>
   <g id="line2d_114">
    <path d="M 497.055 318.470726 
L 528.253975 318.389015 
L 550.39 318.451036 
L 567.560035 318.076939 
L 581.588975 301.779106 
L 603.725 281.381957 
L 634.923975 250.816259 
L 657.06 250.715844 
L 688.258975 212.812921 
L 710.395 235.382787 
L 741.593975 205.679481 
L 763.73 227.735456 
L 794.928975 208.580702 
L 817.065 172.076706 
L 848.263975 86.831803 
L 870.4 52.858868 
" clip-path="url(#pd3a15db12e)" style="fill: none; stroke-dasharray: 9.6,2.4,1.5,2.4; stroke-dashoffset: 0; stroke: #7f7f7f; stroke-width: 1.5"/>
   </g>
   <g id="line2d_115">
    <path d="M 497.055 268.99836 
L 528.253975 236.180204 
L 550.39 268.920587 
L 567.560035 229.626615 
L 581.588975 236.153624 
L 603.725 268.939292 
L 634.923975 236.194971 
L 657.06 268.939292 
L 688.258975 236.147717 
L 710.395 268.933385 
L 741.593975 236.296371 
L 763.73 269.585102 
L 794.928975 269.553599 
L 817.065 318.520933 
L 848.263975 302.147296 
L 870.4 318.510104 
" clip-path="url(#pd3a15db12e)" style="fill: none; stroke-dasharray: 9.6,2.4,1.5,2.4; stroke-dashoffset: 0; stroke: #bcbd22; stroke-width: 1.5"/>
   </g>
   <g id="line2d_116">
    <path d="M 497.055 318.560312 
L 528.253975 318.553421 
L 550.39 318.539638 
L 567.560035 318.227563 
L 581.588975 301.948434 
L 603.725 281.522735 
L 634.923975 261.102943 
L 657.06 250.840871 
L 688.258975 240.584705 
L 710.395 235.488125 
L 741.593975 230.374809 
L 763.73 227.803384 
L 794.928975 225.258539 
L 817.065 223.957075 
L 848.263975 222.680223 
L 870.4 222.042289 
" clip-path="url(#pd3a15db12e)" style="fill: none; stroke-dasharray: 9.6,2.4,1.5,2.4; stroke-dashoffset: 0; stroke: #17becf; stroke-width: 1.5"/>
   </g>
   <g id="line2d_117">
    <path d="M 497.055 318.536685 
L 528.253975 318.540623 
L 550.39 318.562281 
L 567.560035 318.529794 
L 581.588975 318.496322 
L 603.725 318.547514 
L 634.923975 316.614023 
L 657.06 318.52684 
L 688.258975 318.337823 
L 710.395 318.532747 
L 741.593975 318.440207 
L 763.73 318.550467 
L 794.928975 318.469741 
L 817.065 318.51798 
L 848.263975 306.712265 
L 870.4 284.312712 
" clip-path="url(#pd3a15db12e)" style="fill: none; stroke-dasharray: 1.5,2.475; stroke-dashoffset: 0; stroke: #1f77b4; stroke-width: 1.5"/>
   </g>
   <g id="line2d_118">
    <path d="M 497.055 318.521918 
L 528.253975 318.499275 
L 550.39 318.571141 
L 567.560035 318.531763 
L 581.588975 318.539638 
L 603.725 318.524871 
L 634.923975 316.37086 
L 657.06 318.522902 
L 688.258975 318.307304 
L 710.395 318.544561 
L 741.593975 318.401813 
L 763.73 318.543576 
L 794.928975 318.459897 
L 817.065 318.489431 
L 848.263975 306.597082 
L 870.4 285.082564 
" clip-path="url(#pd3a15db12e)" style="fill: none; stroke-dasharray: 1.5,2.475; stroke-dashoffset: 0; stroke: #ff7f0e; stroke-width: 1.5"/>
   </g>
   <g id="line2d_119">
    <path d="M 497.055 318.512073 
L 528.253975 318.498291 
L 550.39 318.540623 
L 567.560035 318.542592 
L 581.588975 318.60166 
L 603.725 318.524871 
L 634.923975 316.374798 
L 657.06 318.538654 
L 688.258975 318.333885 
L 710.395 318.52684 
L 741.593975 318.428394 
L 763.73 318.549483 
L 794.928975 318.473679 
L 817.065 318.479586 
L 848.263975 306.576409 
L 870.4 285.062875 
" clip-path="url(#pd3a15db12e)" style="fill: none; stroke-dasharray: 1.5,2.475; stroke-dashoffset: 0; stroke: #2ca02c; stroke-width: 1.5"/>
   </g>
   <g id="line2d_120">
    <path d="M 497.055 318.525856 
L 528.253975 318.496322 
L 550.39 318.575079 
L 567.560035 318.5357 
L 581.588975 318.631194 
L 603.725 318.5357 
L 634.923975 316.392518 
L 657.06 318.540623 
L 688.258975 318.313211 
L 710.395 318.522902 
L 741.593975 318.401813 
L 763.73 318.557359 
L 794.928975 318.465803 
L 817.065 318.497306 
L 848.263975 306.423816 
L 870.4 286.262939 
" clip-path="url(#pd3a15db12e)" style="fill: none; stroke-dasharray: 1.5,2.475; stroke-dashoffset: 0; stroke: #d62728; stroke-width: 1.5"/>
   </g>
   <g id="line2d_121">
    <path d="M 497.055 318.541607 
L 528.253975 318.519949 
L 550.39 318.562281 
L 567.560035 318.528809 
L 581.588975 318.498291 
L 603.725 318.54653 
L 634.923975 316.428943 
L 657.06 318.537669 
L 688.258975 318.319118 
L 710.395 318.530778 
L 741.593975 318.406735 
L 763.73 318.55539 
L 794.928975 318.464819 
L 817.065 318.501244 
L 848.263975 306.488791 
L 870.4 285.177073 
" clip-path="url(#pd3a15db12e)" style="fill: none; stroke-dasharray: 1.5,2.475; stroke-dashoffset: 0; stroke: #9467bd; stroke-width: 1.5"/>
   </g>
   <g id="line2d_122">
    <path d="M 497.055 318.533732 
L 528.253975 318.511089 
L 550.39 318.534716 
L 567.560035 318.529794 
L 581.588975 318.515027 
L 603.725 318.547514 
L 634.923975 316.404332 
L 657.06 318.531763 
L 688.258975 318.313211 
L 710.395 318.520933 
L 741.593975 318.42544 
L 763.73 318.547514 
L 794.928975 318.474664 
L 817.065 318.502229 
L 848.263975 306.455319 
L 870.4 285.350339 
" clip-path="url(#pd3a15db12e)" style="fill: none; stroke-dasharray: 1.5,2.475; stroke-dashoffset: 0; stroke: #8c564b; stroke-width: 1.5"/>
   </g>
   <g id="line2d_123">
    <path d="M 567.560035 318.56425 
L 567.560035 31.43625 
" clip-path="url(#pd3a15db12e)" style="fill: none; stroke: #ff0000; stroke-width: 1.5; stroke-linecap: square"/>
   </g>
   <g id="line2d_124">
    <path d="M 794.928975 318.56425 
L 794.928975 31.43625 
" clip-path="url(#pd3a15db12e)" style="fill: none; stroke: #008000; stroke-width: 1.5; stroke-linecap: square"/>
   </g>
   <g id="patch_9">
    <path d="M 497.055 318.56425 
L 497.055 31.43625 
" style="fill: none; stroke: #000000; stroke-width: 0.8; stroke-linejoin: miter; stroke-linecap: square"/>
   </g>
   <g id="patch_10">
    <path d="M 870.4 318.56425 
L 870.4 31.43625 
" style="fill: none; stroke: #000000; stroke-width: 0.8; stroke-linejoin: miter; stroke-linecap: square"/>
   </g>
   <g id="patch_11">
    <path d="M 497.055 318.56425 
L 870.4 318.56425 
" style="fill: none; stroke: #000000; stroke-width: 0.8; stroke-linejoin: miter; stroke-linecap: square"/>
   </g>
   <g id="patch_12">
    <path d="M 497.055 31.43625 
L 870.4 31.43625 
" style="fill: none; stroke: #000000; stroke-width: 0.8; stroke-linejoin: miter; stroke-linecap: square"/>
   </g>
   <g id="text_38">
    <!-- Fire Storm (Load) -->
    <g transform="translate(580.45625 25.43625)scale(0.24 -0.24)">
     <defs>
      <path id="DejaVuSans-46" d="M 628 4666 
L 3309 4666 
L 3309 4134 
L 1259 4134 
L 1259 2759 
L 3109 2759 
L 3109 2228 
L 1259 2228 
L 1259 0 
L 628 0 
L 628 4666 
z
" transform="scale(0.015625)"/>
     </defs>
     <use xlink:href="#DejaVuSans-46"/>
     <use xlink:href="#DejaVuSans-69" x="50.269531"/>
     <use xlink:href="#DejaVuSans-72" x="78.052734"/>
     <use xlink:href="#DejaVuSans-65" x="116.916016"/>
     <use xlink:href="#DejaVuSans-20" x="178.439453"/>
     <use xlink:href="#DejaVuSans-53" x="210.226562"/>
     <use xlink:href="#DejaVuSans-74" x="273.703125"/>
     <use xlink:href="#DejaVuSans-6f" x="312.912109"/>
     <use xlink:href="#DejaVuSans-72" x="374.09375"/>
     <use xlink:href="#DejaVuSans-6d" x="413.457031"/>
     <use xlink:href="#DejaVuSans-20" x="510.869141"/>
     <use xlink:href="#DejaVuSans-28" x="542.65625"/>
     <use xlink:href="#DejaVuSans-4c" x="581.669922"/>
     <use xlink:href="#DejaVuSans-6f" x="635.632812"/>
     <use xlink:href="#DejaVuSans-61" x="696.814453"/>
     <use xlink:href="#DejaVuSans-64" x="758.09375"/>
     <use xlink:href="#DejaVuSans-29" x="821.570312"/>
    </g>
   </g>
   <g id="legend_2">
    <g id="patch_13">
     <path d="M 502.655 108.29125 
L 801.695 108.29125 
Q 803.295 108.29125 803.295 106.69125 
L 803.295 37.03625 
Q 803.295 35.43625 801.695 35.43625 
L 502.655 35.43625 
Q 501.055 35.43625 501.055 37.03625 
L 501.055 106.69125 
Q 501.055 108.29125 502.655 108.29125 
z
" style="fill: #ffffff; opacity: 0.8; stroke: #cccccc; stroke-linejoin: miter"/>
    </g>
    <g id="line2d_125">
     <path d="M 504.255 41.915 
L 512.255 41.915 
L 520.255 41.915 
" style="fill: none; stroke: #1f77b4; stroke-width: 1.5; stroke-linecap: square"/>
    </g>
    <g id="text_39">
     <!-- 2 -->
     <g transform="translate(526.655 44.715)scale(0.08 -0.08)">
      <use xlink:href="#DejaVuSans-32"/>
     </g>
    </g>
    <g id="line2d_126">
     <path d="M 504.255 53.6575 
L 512.255 53.6575 
L 520.255 53.6575 
" style="fill: none; stroke: #ff7f0e; stroke-width: 1.5; stroke-linecap: square"/>
    </g>
    <g id="text_40">
     <!-- 5 -->
     <g transform="translate(526.655 56.4575)scale(0.08 -0.08)">
      <use xlink:href="#DejaVuSans-35"/>
     </g>
    </g>
    <g id="line2d_127">
     <path d="M 504.255 65.4 
L 512.255 65.4 
L 520.255 65.4 
" style="fill: none; stroke: #2ca02c; stroke-width: 1.5; stroke-linecap: square"/>
    </g>
    <g id="text_41">
     <!-- 8 -->
     <g transform="translate(526.655 68.2)scale(0.08 -0.08)">
      <use xlink:href="#DejaVuSans-38"/>
     </g>
    </g>
    <g id="line2d_128">
     <path d="M 504.255 77.1425 
L 512.255 77.1425 
L 520.255 77.1425 
" style="fill: none; stroke: #d62728; stroke-width: 1.5; stroke-linecap: square"/>
    </g>
    <g id="text_42">
     <!-- 9 -->
     <g transform="translate(526.655 79.9425)scale(0.08 -0.08)">
      <use xlink:href="#DejaVuSans-39"/>
     </g>
    </g>
    <g id="line2d_129">
     <path d="M 504.255 88.885 
L 512.255 88.885 
L 520.255 88.885 
" style="fill: none; stroke: #9467bd; stroke-width: 1.5; stroke-linecap: square"/>
    </g>
    <g id="text_43">
     <!-- 11 -->
     <g transform="translate(526.655 91.685)scale(0.08 -0.08)">
      <use xlink:href="#DejaVuSans-31"/>
      <use xlink:href="#DejaVuSans-31" x="63.623047"/>
     </g>
    </g>
    <g id="line2d_130">
     <path d="M 504.255 100.6275 
L 512.255 100.6275 
L 520.255 100.6275 
" style="fill: none; stroke: #8c564b; stroke-width: 1.5; stroke-linecap: square"/>
    </g>
    <g id="text_44">
     <!-- 14 -->
     <g transform="translate(526.655 103.4275)scale(0.08 -0.08)">
      <use xlink:href="#DejaVuSans-31"/>
      <use xlink:href="#DejaVuSans-34" x="63.623047"/>
     </g>
    </g>
    <g id="line2d_131">
     <path d="M 552.835 41.915 
L 560.835 41.915 
L 568.835 41.915 
" style="fill: none; stroke: #e377c2; stroke-width: 1.5; stroke-linecap: square"/>
    </g>
    <g id="text_45">
     <!-- 15 -->
     <g transform="translate(575.235 44.715)scale(0.08 -0.08)">
      <use xlink:href="#DejaVuSans-31"/>
      <use xlink:href="#DejaVuSans-35" x="63.623047"/>
     </g>
    </g>
    <g id="line2d_132">
     <path d="M 552.835 53.6575 
L 560.835 53.6575 
L 568.835 53.6575 
" style="fill: none; stroke: #7f7f7f; stroke-width: 1.5; stroke-linecap: square"/>
    </g>
    <g id="text_46">
     <!-- 30 -->
     <g transform="translate(575.235 56.4575)scale(0.08 -0.08)">
      <use xlink:href="#DejaVuSans-33"/>
      <use xlink:href="#DejaVuSans-30" x="63.623047"/>
     </g>
    </g>
    <g id="line2d_133">
     <path d="M 552.835 65.4 
L 560.835 65.4 
L 568.835 65.4 
" style="fill: none; stroke: #bcbd22; stroke-width: 1.5; stroke-linecap: square"/>
    </g>
    <g id="text_47">
     <!-- 35 -->
     <g transform="translate(575.235 68.2)scale(0.08 -0.08)">
      <use xlink:href="#DejaVuSans-33"/>
      <use xlink:href="#DejaVuSans-35" x="63.623047"/>
     </g>
    </g>
    <g id="line2d_134">
     <path d="M 552.835 77.1425 
L 560.835 77.1425 
L 568.835 77.1425 
" style="fill: none; stroke: #17becf; stroke-width: 1.5; stroke-linecap: square"/>
    </g>
    <g id="text_48">
     <!-- 36 -->
     <g transform="translate(575.235 79.9425)scale(0.08 -0.08)">
      <use xlink:href="#DejaVuSans-33"/>
      <use xlink:href="#DejaVuSans-36" x="63.623047"/>
     </g>
    </g>
    <g id="line2d_135">
     <path d="M 552.835 88.885 
L 560.835 88.885 
L 568.835 88.885 
" style="fill: none; stroke-dasharray: 5.55,2.4; stroke-dashoffset: 0; stroke: #1f77b4; stroke-width: 1.5"/>
    </g>
    <g id="text_49">
     <!-- 58 -->
     <g transform="translate(575.235 91.685)scale(0.08 -0.08)">
      <use xlink:href="#DejaVuSans-35"/>
      <use xlink:href="#DejaVuSans-38" x="63.623047"/>
     </g>
    </g>
    <g id="line2d_136">
     <path d="M 552.835 100.6275 
L 560.835 100.6275 
L 568.835 100.6275 
" style="fill: none; stroke-dasharray: 5.55,2.4; stroke-dashoffset: 0; stroke: #ff7f0e; stroke-width: 1.5"/>
    </g>
    <g id="text_50">
     <!-- 63 -->
     <g transform="translate(575.235 103.4275)scale(0.08 -0.08)">
      <use xlink:href="#DejaVuSans-36"/>
      <use xlink:href="#DejaVuSans-33" x="63.623047"/>
     </g>
    </g>
    <g id="line2d_137">
     <path d="M 601.415 41.915 
L 609.415 41.915 
L 617.415 41.915 
" style="fill: none; stroke-dasharray: 5.55,2.4; stroke-dashoffset: 0; stroke: #2ca02c; stroke-width: 1.5"/>
    </g>
    <g id="text_51">
     <!-- 67 -->
     <g transform="translate(623.815 44.715)scale(0.08 -0.08)">
      <use xlink:href="#DejaVuSans-36"/>
      <use xlink:href="#DejaVuSans-37" x="63.623047"/>
     </g>
    </g>
    <g id="line2d_138">
     <path d="M 601.415 53.6575 
L 609.415 53.6575 
L 617.415 53.6575 
" style="fill: none; stroke-dasharray: 5.55,2.4; stroke-dashoffset: 0; stroke: #d62728; stroke-width: 1.5"/>
    </g>
    <g id="text_52">
     <!-- 73 -->
     <g transform="translate(623.815 56.4575)scale(0.08 -0.08)">
      <use xlink:href="#DejaVuSans-37"/>
      <use xlink:href="#DejaVuSans-33" x="63.623047"/>
     </g>
    </g>
    <g id="line2d_139">
     <path d="M 601.415 65.4 
L 609.415 65.4 
L 617.415 65.4 
" style="fill: none; stroke-dasharray: 5.55,2.4; stroke-dashoffset: 0; stroke: #9467bd; stroke-width: 1.5"/>
    </g>
    <g id="text_53">
     <!-- 81 -->
     <g transform="translate(623.815 68.2)scale(0.08 -0.08)">
      <use xlink:href="#DejaVuSans-38"/>
      <use xlink:href="#DejaVuSans-31" x="63.623047"/>
     </g>
    </g>
    <g id="line2d_140">
     <path d="M 601.415 77.1425 
L 609.415 77.1425 
L 617.415 77.1425 
" style="fill: none; stroke-dasharray: 5.55,2.4; stroke-dashoffset: 0; stroke: #8c564b; stroke-width: 1.5"/>
    </g>
    <g id="text_54">
     <!-- 109 -->
     <g transform="translate(623.815 79.9425)scale(0.08 -0.08)">
      <use xlink:href="#DejaVuSans-31"/>
      <use xlink:href="#DejaVuSans-30" x="63.623047"/>
      <use xlink:href="#DejaVuSans-39" x="127.246094"/>
     </g>
    </g>
    <g id="line2d_141">
     <path d="M 601.415 88.885 
L 609.415 88.885 
L 617.415 88.885 
" style="fill: none; stroke-dasharray: 5.55,2.4; stroke-dashoffset: 0; stroke: #e377c2; stroke-width: 1.5"/>
    </g>
    <g id="text_55">
     <!-- 110 -->
     <g transform="translate(623.815 91.685)scale(0.08 -0.08)">
      <use xlink:href="#DejaVuSans-31"/>
      <use xlink:href="#DejaVuSans-31" x="63.623047"/>
      <use xlink:href="#DejaVuSans-30" x="127.246094"/>
     </g>
    </g>
    <g id="line2d_142">
     <path d="M 601.415 100.6275 
L 609.415 100.6275 
L 617.415 100.6275 
" style="fill: none; stroke-dasharray: 5.55,2.4; stroke-dashoffset: 0; stroke: #7f7f7f; stroke-width: 1.5"/>
    </g>
    <g id="text_56">
     <!-- 113 -->
     <g transform="translate(623.815 103.4275)scale(0.08 -0.08)">
      <use xlink:href="#DejaVuSans-31"/>
      <use xlink:href="#DejaVuSans-31" x="63.623047"/>
      <use xlink:href="#DejaVuSans-33" x="127.246094"/>
     </g>
    </g>
    <g id="line2d_143">
     <path d="M 655.085 41.915 
L 663.085 41.915 
L 671.085 41.915 
" style="fill: none; stroke-dasharray: 5.55,2.4; stroke-dashoffset: 0; stroke: #bcbd22; stroke-width: 1.5"/>
    </g>
    <g id="text_57">
     <!-- 118 -->
     <g transform="translate(677.485 44.715)scale(0.08 -0.08)">
      <use xlink:href="#DejaVuSans-31"/>
      <use xlink:href="#DejaVuSans-31" x="63.623047"/>
      <use xlink:href="#DejaVuSans-38" x="127.246094"/>
     </g>
    </g>
    <g id="line2d_144">
     <path d="M 655.085 53.6575 
L 663.085 53.6575 
L 671.085 53.6575 
" style="fill: none; stroke-dasharray: 5.55,2.4; stroke-dashoffset: 0; stroke: #17becf; stroke-width: 1.5"/>
    </g>
    <g id="text_58">
     <!-- 130 -->
     <g transform="translate(677.485 56.4575)scale(0.08 -0.08)">
      <use xlink:href="#DejaVuSans-31"/>
      <use xlink:href="#DejaVuSans-33" x="63.623047"/>
      <use xlink:href="#DejaVuSans-30" x="127.246094"/>
     </g>
    </g>
    <g id="line2d_145">
     <path d="M 655.085 65.4 
L 663.085 65.4 
L 671.085 65.4 
" style="fill: none; stroke-dasharray: 9.6,2.4,1.5,2.4; stroke-dashoffset: 0; stroke: #1f77b4; stroke-width: 1.5"/>
    </g>
    <g id="text_59">
     <!-- 157 -->
     <g transform="translate(677.485 68.2)scale(0.08 -0.08)">
      <use xlink:href="#DejaVuSans-31"/>
      <use xlink:href="#DejaVuSans-35" x="63.623047"/>
      <use xlink:href="#DejaVuSans-37" x="127.246094"/>
     </g>
    </g>
    <g id="line2d_146">
     <path d="M 655.085 77.1425 
L 663.085 77.1425 
L 671.085 77.1425 
" style="fill: none; stroke-dasharray: 9.6,2.4,1.5,2.4; stroke-dashoffset: 0; stroke: #ff7f0e; stroke-width: 1.5"/>
    </g>
    <g id="text_60">
     <!-- 160 -->
     <g transform="translate(677.485 79.9425)scale(0.08 -0.08)">
      <use xlink:href="#DejaVuSans-31"/>
      <use xlink:href="#DejaVuSans-36" x="63.623047"/>
      <use xlink:href="#DejaVuSans-30" x="127.246094"/>
     </g>
    </g>
    <g id="line2d_147">
     <path d="M 655.085 88.885 
L 663.085 88.885 
L 671.085 88.885 
" style="fill: none; stroke-dasharray: 9.6,2.4,1.5,2.4; stroke-dashoffset: 0; stroke: #2ca02c; stroke-width: 1.5"/>
    </g>
    <g id="text_61">
     <!-- 161 -->
     <g transform="translate(677.485 91.685)scale(0.08 -0.08)">
      <use xlink:href="#DejaVuSans-31"/>
      <use xlink:href="#DejaVuSans-36" x="63.623047"/>
      <use xlink:href="#DejaVuSans-31" x="127.246094"/>
     </g>
    </g>
    <g id="line2d_148">
     <path d="M 655.085 100.6275 
L 663.085 100.6275 
L 671.085 100.6275 
" style="fill: none; stroke-dasharray: 9.6,2.4,1.5,2.4; stroke-dashoffset: 0; stroke: #d62728; stroke-width: 1.5"/>
    </g>
    <g id="text_62">
     <!-- 163 -->
     <g transform="translate(677.485 103.4275)scale(0.08 -0.08)">
      <use xlink:href="#DejaVuSans-31"/>
      <use xlink:href="#DejaVuSans-36" x="63.623047"/>
      <use xlink:href="#DejaVuSans-33" x="127.246094"/>
     </g>
    </g>
    <g id="line2d_149">
     <path d="M 708.755 41.915 
L 716.755 41.915 
L 724.755 41.915 
" style="fill: none; stroke-dasharray: 9.6,2.4,1.5,2.4; stroke-dashoffset: 0; stroke: #9467bd; stroke-width: 1.5"/>
    </g>
    <g id="text_63">
     <!-- 166 -->
     <g transform="translate(731.155 44.715)scale(0.08 -0.08)">
      <use xlink:href="#DejaVuSans-31"/>
      <use xlink:href="#DejaVuSans-36" x="63.623047"/>
      <use xlink:href="#DejaVuSans-36" x="127.246094"/>
     </g>
    </g>
    <g id="line2d_150">
     <path d="M 708.755 53.6575 
L 716.755 53.6575 
L 724.755 53.6575 
" style="fill: none; stroke-dasharray: 9.6,2.4,1.5,2.4; stroke-dashoffset: 0; stroke: #8c564b; stroke-width: 1.5"/>
    </g>
    <g id="text_64">
     <!-- 172 -->
     <g transform="translate(731.155 56.4575)scale(0.08 -0.08)">
      <use xlink:href="#DejaVuSans-31"/>
      <use xlink:href="#DejaVuSans-37" x="63.623047"/>
      <use xlink:href="#DejaVuSans-32" x="127.246094"/>
     </g>
    </g>
    <g id="line2d_151">
     <path d="M 708.755 65.4 
L 716.755 65.4 
L 724.755 65.4 
" style="fill: none; stroke-dasharray: 9.6,2.4,1.5,2.4; stroke-dashoffset: 0; stroke: #e377c2; stroke-width: 1.5"/>
    </g>
    <g id="text_65">
     <!-- 181 -->
     <g transform="translate(731.155 68.2)scale(0.08 -0.08)">
      <use xlink:href="#DejaVuSans-31"/>
      <use xlink:href="#DejaVuSans-38" x="63.623047"/>
      <use xlink:href="#DejaVuSans-31" x="127.246094"/>
     </g>
    </g>
    <g id="line2d_152">
     <path d="M 708.755 77.1425 
L 716.755 77.1425 
L 724.755 77.1425 
" style="fill: none; stroke-dasharray: 9.6,2.4,1.5,2.4; stroke-dashoffset: 0; stroke: #7f7f7f; stroke-width: 1.5"/>
    </g>
    <g id="text_66">
     <!-- 187 -->
     <g transform="translate(731.155 79.9425)scale(0.08 -0.08)">
      <use xlink:href="#DejaVuSans-31"/>
      <use xlink:href="#DejaVuSans-38" x="63.623047"/>
      <use xlink:href="#DejaVuSans-37" x="127.246094"/>
     </g>
    </g>
    <g id="line2d_153">
     <path d="M 708.755 88.885 
L 716.755 88.885 
L 724.755 88.885 
" style="fill: none; stroke-dasharray: 9.6,2.4,1.5,2.4; stroke-dashoffset: 0; stroke: #bcbd22; stroke-width: 1.5"/>
    </g>
    <g id="text_67">
     <!-- 191 -->
     <g transform="translate(731.155 91.685)scale(0.08 -0.08)">
      <use xlink:href="#DejaVuSans-31"/>
      <use xlink:href="#DejaVuSans-39" x="63.623047"/>
      <use xlink:href="#DejaVuSans-31" x="127.246094"/>
     </g>
    </g>
    <g id="line2d_154">
     <path d="M 708.755 100.6275 
L 716.755 100.6275 
L 724.755 100.6275 
" style="fill: none; stroke-dasharray: 9.6,2.4,1.5,2.4; stroke-dashoffset: 0; stroke: #17becf; stroke-width: 1.5"/>
    </g>
    <g id="text_68">
     <!-- 193 -->
     <g transform="translate(731.155 103.4275)scale(0.08 -0.08)">
      <use xlink:href="#DejaVuSans-31"/>
      <use xlink:href="#DejaVuSans-39" x="63.623047"/>
      <use xlink:href="#DejaVuSans-33" x="127.246094"/>
     </g>
    </g>
    <g id="line2d_155">
     <path d="M 762.425 41.915 
L 770.425 41.915 
L 778.425 41.915 
" style="fill: none; stroke-dasharray: 1.5,2.475; stroke-dashoffset: 0; stroke: #1f77b4; stroke-width: 1.5"/>
    </g>
    <g id="text_69">
     <!-- 224 -->
     <g transform="translate(784.825 44.715)scale(0.08 -0.08)">
      <use xlink:href="#DejaVuSans-32"/>
      <use xlink:href="#DejaVuSans-32" x="63.623047"/>
      <use xlink:href="#DejaVuSans-34" x="127.246094"/>
     </g>
    </g>
    <g id="line2d_156">
     <path d="M 762.425 53.6575 
L 770.425 53.6575 
L 778.425 53.6575 
" style="fill: none; stroke-dasharray: 1.5,2.475; stroke-dashoffset: 0; stroke: #ff7f0e; stroke-width: 1.5"/>
    </g>
    <g id="text_70">
     <!-- 245 -->
     <g transform="translate(784.825 56.4575)scale(0.08 -0.08)">
      <use xlink:href="#DejaVuSans-32"/>
      <use xlink:href="#DejaVuSans-34" x="63.623047"/>
      <use xlink:href="#DejaVuSans-35" x="127.246094"/>
     </g>
    </g>
    <g id="line2d_157">
     <path d="M 762.425 65.4 
L 770.425 65.4 
L 778.425 65.4 
" style="fill: none; stroke-dasharray: 1.5,2.475; stroke-dashoffset: 0; stroke: #2ca02c; stroke-width: 1.5"/>
    </g>
    <g id="text_71">
     <!-- 246 -->
     <g transform="translate(784.825 68.2)scale(0.08 -0.08)">
      <use xlink:href="#DejaVuSans-32"/>
      <use xlink:href="#DejaVuSans-34" x="63.623047"/>
      <use xlink:href="#DejaVuSans-36" x="127.246094"/>
     </g>
    </g>
    <g id="line2d_158">
     <path d="M 762.425 77.1425 
L 770.425 77.1425 
L 778.425 77.1425 
" style="fill: none; stroke-dasharray: 1.5,2.475; stroke-dashoffset: 0; stroke: #d62728; stroke-width: 1.5"/>
    </g>
    <g id="text_72">
     <!-- 247 -->
     <g transform="translate(784.825 79.9425)scale(0.08 -0.08)">
      <use xlink:href="#DejaVuSans-32"/>
      <use xlink:href="#DejaVuSans-34" x="63.623047"/>
      <use xlink:href="#DejaVuSans-37" x="127.246094"/>
     </g>
    </g>
    <g id="line2d_159">
     <path d="M 762.425 88.885 
L 770.425 88.885 
L 778.425 88.885 
" style="fill: none; stroke-dasharray: 1.5,2.475; stroke-dashoffset: 0; stroke: #9467bd; stroke-width: 1.5"/>
    </g>
    <g id="text_73">
     <!-- 248 -->
     <g transform="translate(784.825 91.685)scale(0.08 -0.08)">
      <use xlink:href="#DejaVuSans-32"/>
      <use xlink:href="#DejaVuSans-34" x="63.623047"/>
      <use xlink:href="#DejaVuSans-38" x="127.246094"/>
     </g>
    </g>
    <g id="line2d_160">
     <path d="M 762.425 100.6275 
L 770.425 100.6275 
L 778.425 100.6275 
" style="fill: none; stroke-dasharray: 1.5,2.475; stroke-dashoffset: 0; stroke: #8c564b; stroke-width: 1.5"/>
    </g>
    <g id="text_74">
     <!-- 253 -->
     <g transform="translate(784.825 103.4275)scale(0.08 -0.08)">
      <use xlink:href="#DejaVuSans-32"/>
      <use xlink:href="#DejaVuSans-35" x="63.623047"/>
      <use xlink:href="#DejaVuSans-33" x="127.246094"/>
     </g>
    </g>
   </g>
  </g>
 </g>
 <defs>
  <clipPath id="p099dfa88d9">
   <rect x="47.1" y="31.43625" width="373.345" height="287.128"/>
  </clipPath>
  <clipPath id="pd3a15db12e">
   <rect x="497.055" y="31.43625" width="373.345" height="287.128"/>
  </clipPath>
 </defs>
</svg>
