<?xml version="1.0" encoding="utf-8" standalone="no"?>
<!DOCTYPE svg PUBLIC "-//W3C//DTD SVG 1.1//EN"
  "http://www.w3.org/Graphics/SVG/1.1/DTD/svg11.dtd">
<svg xmlns:xlink="http://www.w3.org/1999/xlink" width="877.600937pt" height="370.637687pt" viewBox="0 0 877.600937 370.637687" xmlns="http://www.w3.org/2000/svg" version="1.1">
 <defs>
  <style type="text/css">*{stroke-linejoin: round; stroke-linecap: butt}</style>
 </defs>
 <g id="figure_1">
  <g id="patch_1">
   <path d="M 0 370.637687 
L 877.600937 370.637687 
L 877.600937 0 
L 0 0 
L 0 370.637687 
z
" style="fill: none"/>
  </g>
  <g id="axes_1">
   <g id="patch_2">
    <path d="M 61.410938 318.56425 
L 424.36135 318.56425 
L 424.36135 31.43625 
L 61.410938 31.43625 
L 61.410938 318.56425 
z
" style="fill: none"/>
   </g>
   <g id="matplotlib.axis_1">
    <g id="xtick_1">
     <g id="line2d_1">
      <defs>
       <path id="md39032bed2" d="M 0 0 
L 0 3.5 
" style="stroke: #000000; stroke-width: 0.8"/>
      </defs>
      <g>
       <use xlink:href="#md39032bed2" x="94.794919" y="318.56425" style="stroke: #000000; stroke-width: 0.8"/>
      </g>
     </g>
     <g id="text_1">
      <!-- $\mathdefault{10^{2}}$ -->
      <g transform="translate(81.594919 336.961906)scale(0.15 -0.15)">
       <defs>
        <path id="DejaVuSans-31" d="M 794 531 
L 1825 531 
L 1825 4091 
L 703 3866 
L 703 4441 
L 1819 4666 
L 2450 4666 
L 2450 531 
L 3481 531 
L 3481 0 
L 794 0 
L 794 531 
z
" transform="scale(0.015625)"/>
        <path id="DejaVuSans-30" d="M 2034 4250 
Q 1547 4250 1301 3770 
Q 1056 3291 1056 2328 
Q 1056 1369 1301 889 
Q 1547 409 2034 409 
Q 2525 409 2770 889 
Q 3016 1369 3016 2328 
Q 3016 3291 2770 3770 
Q 2525 4250 2034 4250 
z
M 2034 4750 
Q 2819 4750 3233 4129 
Q 3647 3509 3647 2328 
Q 3647 1150 3233 529 
Q 2819 -91 2034 -91 
Q 1250 -91 836 529 
Q 422 1150 422 2328 
Q 422 3509 836 4129 
Q 1250 4750 2034 4750 
z
" transform="scale(0.015625)"/>
        <path id="DejaVuSans-32" d="M 1228 531 
L 3431 531 
L 3431 0 
L 469 0 
L 469 531 
Q 828 903 1448 1529 
Q 2069 2156 2228 2338 
Q 2531 2678 2651 2914 
Q 2772 3150 2772 3378 
Q 2772 3750 2511 3984 
Q 2250 4219 1831 4219 
Q 1534 4219 1204 4116 
Q 875 4013 500 3803 
L 500 4441 
Q 881 4594 1212 4672 
Q 1544 4750 1819 4750 
Q 2544 4750 2975 4387 
Q 3406 4025 3406 3419 
Q 3406 3131 3298 2873 
Q 3191 2616 2906 2266 
Q 2828 2175 2409 1742 
Q 1991 1309 1228 531 
z
" transform="scale(0.015625)"/>
       </defs>
       <use xlink:href="#DejaVuSans-31" transform="translate(0 0.765625)"/>
       <use xlink:href="#DejaVuSans-30" transform="translate(63.623047 0.765625)"/>
       <use xlink:href="#DejaVuSans-32" transform="translate(128.203125 39.046875)scale(0.7)"/>
      </g>
     </g>
    </g>
    <g id="xtick_2">
     <g id="line2d_2">
      <g>
       <use xlink:href="#md39032bed2" x="267.037087" y="318.56425" style="stroke: #000000; stroke-width: 0.8"/>
      </g>
     </g>
     <g id="text_2">
      <!-- $\mathdefault{10^{3}}$ -->
      <g transform="translate(253.837087 336.961906)scale(0.15 -0.15)">
       <defs>
        <path id="DejaVuSans-33" d="M 2597 2516 
Q 3050 2419 3304 2112 
Q 3559 1806 3559 1356 
Q 3559 666 3084 287 
Q 2609 -91 1734 -91 
Q 1441 -91 1130 -33 
Q 819 25 488 141 
L 488 750 
Q 750 597 1062 519 
Q 1375 441 1716 441 
Q 2309 441 2620 675 
Q 2931 909 2931 1356 
Q 2931 1769 2642 2001 
Q 2353 2234 1838 2234 
L 1294 2234 
L 1294 2753 
L 1863 2753 
Q 2328 2753 2575 2939 
Q 2822 3125 2822 3475 
Q 2822 3834 2567 4026 
Q 2313 4219 1838 4219 
Q 1578 4219 1281 4162 
Q 984 4106 628 3988 
L 628 4550 
Q 988 4650 1302 4700 
Q 1616 4750 1894 4750 
Q 2613 4750 3031 4423 
Q 3450 4097 3450 3541 
Q 3450 3153 3228 2886 
Q 3006 2619 2597 2516 
z
" transform="scale(0.015625)"/>
       </defs>
       <use xlink:href="#DejaVuSans-31" transform="translate(0 0.765625)"/>
       <use xlink:href="#DejaVuSans-30" transform="translate(63.623047 0.765625)"/>
       <use xlink:href="#DejaVuSans-33" transform="translate(128.203125 39.046875)scale(0.7)"/>
      </g>
     </g>
    </g>
    <g id="xtick_3">
     <g id="line2d_3">
      <defs>
       <path id="m00e623f56d" d="M 0 0 
L 0 2 
" style="stroke: #000000; stroke-width: 0.6"/>
      </defs>
      <g>
       <use xlink:href="#m00e623f56d" x="68.11427" y="318.56425" style="stroke: #000000; stroke-width: 0.6"/>
      </g>
     </g>
    </g>
    <g id="xtick_4">
     <g id="line2d_4">
      <g>
       <use xlink:href="#m00e623f56d" x="78.102928" y="318.56425" style="stroke: #000000; stroke-width: 0.6"/>
      </g>
     </g>
    </g>
    <g id="xtick_5">
     <g id="line2d_5">
      <g>
       <use xlink:href="#m00e623f56d" x="86.91355" y="318.56425" style="stroke: #000000; stroke-width: 0.6"/>
      </g>
     </g>
    </g>
    <g id="xtick_6">
     <g id="line2d_6">
      <g>
       <use xlink:href="#m00e623f56d" x="146.644978" y="318.56425" style="stroke: #000000; stroke-width: 0.6"/>
      </g>
     </g>
    </g>
    <g id="xtick_7">
     <g id="line2d_7">
      <g>
       <use xlink:href="#m00e623f56d" x="176.975318" y="318.56425" style="stroke: #000000; stroke-width: 0.6"/>
      </g>
     </g>
    </g>
    <g id="xtick_8">
     <g id="line2d_8">
      <g>
       <use xlink:href="#m00e623f56d" x="198.495037" y="318.56425" style="stroke: #000000; stroke-width: 0.6"/>
      </g>
     </g>
    </g>
    <g id="xtick_9">
     <g id="line2d_9">
      <g>
       <use xlink:href="#m00e623f56d" x="215.187028" y="318.56425" style="stroke: #000000; stroke-width: 0.6"/>
      </g>
     </g>
    </g>
    <g id="xtick_10">
     <g id="line2d_10">
      <g>
       <use xlink:href="#m00e623f56d" x="228.825377" y="318.56425" style="stroke: #000000; stroke-width: 0.6"/>
      </g>
     </g>
    </g>
    <g id="xtick_11">
     <g id="line2d_11">
      <g>
       <use xlink:href="#m00e623f56d" x="240.356437" y="318.56425" style="stroke: #000000; stroke-width: 0.6"/>
      </g>
     </g>
    </g>
    <g id="xtick_12">
     <g id="line2d_12">
      <g>
       <use xlink:href="#m00e623f56d" x="250.345096" y="318.56425" style="stroke: #000000; stroke-width: 0.6"/>
      </g>
     </g>
    </g>
    <g id="xtick_13">
     <g id="line2d_13">
      <g>
       <use xlink:href="#m00e623f56d" x="259.155717" y="318.56425" style="stroke: #000000; stroke-width: 0.6"/>
      </g>
     </g>
    </g>
    <g id="xtick_14">
     <g id="line2d_14">
      <g>
       <use xlink:href="#m00e623f56d" x="318.887146" y="318.56425" style="stroke: #000000; stroke-width: 0.6"/>
      </g>
     </g>
    </g>
    <g id="xtick_15">
     <g id="line2d_15">
      <g>
       <use xlink:href="#m00e623f56d" x="349.217486" y="318.56425" style="stroke: #000000; stroke-width: 0.6"/>
      </g>
     </g>
    </g>
    <g id="xtick_16">
     <g id="line2d_16">
      <g>
       <use xlink:href="#m00e623f56d" x="370.737205" y="318.56425" style="stroke: #000000; stroke-width: 0.6"/>
      </g>
     </g>
    </g>
    <g id="xtick_17">
     <g id="line2d_17">
      <g>
       <use xlink:href="#m00e623f56d" x="387.429195" y="318.56425" style="stroke: #000000; stroke-width: 0.6"/>
      </g>
     </g>
    </g>
    <g id="xtick_18">
     <g id="line2d_18">
      <g>
       <use xlink:href="#m00e623f56d" x="401.067545" y="318.56425" style="stroke: #000000; stroke-width: 0.6"/>
      </g>
     </g>
    </g>
    <g id="xtick_19">
     <g id="line2d_19">
      <g>
       <use xlink:href="#m00e623f56d" x="412.598605" y="318.56425" style="stroke: #000000; stroke-width: 0.6"/>
      </g>
     </g>
    </g>
    <g id="xtick_20">
     <g id="line2d_20">
      <g>
       <use xlink:href="#m00e623f56d" x="422.587264" y="318.56425" style="stroke: #000000; stroke-width: 0.6"/>
      </g>
     </g>
    </g>
    <g id="text_3">
     <!-- Pages -->
     <g transform="translate(213.467394 359.278312)scale(0.2 -0.2)">
      <defs>
       <path id="DejaVuSans-50" d="M 1259 4147 
L 1259 2394 
L 2053 2394 
Q 2494 2394 2734 2622 
Q 2975 2850 2975 3272 
Q 2975 3691 2734 3919 
Q 2494 4147 2053 4147 
L 1259 4147 
z
M 628 4666 
L 2053 4666 
Q 2838 4666 3239 4311 
Q 3641 3956 3641 3272 
Q 3641 2581 3239 2228 
Q 2838 1875 2053 1875 
L 1259 1875 
L 1259 0 
L 628 0 
L 628 4666 
z
" transform="scale(0.015625)"/>
       <path id="DejaVuSans-61" d="M 2194 1759 
Q 1497 1759 1228 1600 
Q 959 1441 959 1056 
Q 959 750 1161 570 
Q 1363 391 1709 391 
Q 2188 391 2477 730 
Q 2766 1069 2766 1631 
L 2766 1759 
L 2194 1759 
z
M 3341 1997 
L 3341 0 
L 2766 0 
L 2766 531 
Q 2569 213 2275 61 
Q 1981 -91 1556 -91 
Q 1019 -91 701 211 
Q 384 513 384 1019 
Q 384 1609 779 1909 
Q 1175 2209 1959 2209 
L 2766 2209 
L 2766 2266 
Q 2766 2663 2505 2880 
Q 2244 3097 1772 3097 
Q 1472 3097 1187 3025 
Q 903 2953 641 2809 
L 641 3341 
Q 956 3463 1253 3523 
Q 1550 3584 1831 3584 
Q 2591 3584 2966 3190 
Q 3341 2797 3341 1997 
z
" transform="scale(0.015625)"/>
       <path id="DejaVuSans-67" d="M 2906 1791 
Q 2906 2416 2648 2759 
Q 2391 3103 1925 3103 
Q 1463 3103 1205 2759 
Q 947 2416 947 1791 
Q 947 1169 1205 825 
Q 1463 481 1925 481 
Q 2391 481 2648 825 
Q 2906 1169 2906 1791 
z
M 3481 434 
Q 3481 -459 3084 -895 
Q 2688 -1331 1869 -1331 
Q 1566 -1331 1297 -1286 
Q 1028 -1241 775 -1147 
L 775 -588 
Q 1028 -725 1275 -790 
Q 1522 -856 1778 -856 
Q 2344 -856 2625 -561 
Q 2906 -266 2906 331 
L 2906 616 
Q 2728 306 2450 153 
Q 2172 0 1784 0 
Q 1141 0 747 490 
Q 353 981 353 1791 
Q 353 2603 747 3093 
Q 1141 3584 1784 3584 
Q 2172 3584 2450 3431 
Q 2728 3278 2906 2969 
L 2906 3500 
L 3481 3500 
L 3481 434 
z
" transform="scale(0.015625)"/>
       <path id="DejaVuSans-65" d="M 3597 1894 
L 3597 1613 
L 953 1613 
Q 991 1019 1311 708 
Q 1631 397 2203 397 
Q 2534 397 2845 478 
Q 3156 559 3463 722 
L 3463 178 
Q 3153 47 2828 -22 
Q 2503 -91 2169 -91 
Q 1331 -91 842 396 
Q 353 884 353 1716 
Q 353 2575 817 3079 
Q 1281 3584 2069 3584 
Q 2775 3584 3186 3129 
Q 3597 2675 3597 1894 
z
M 3022 2063 
Q 3016 2534 2758 2815 
Q 2500 3097 2075 3097 
Q 1594 3097 1305 2825 
Q 1016 2553 972 2059 
L 3022 2063 
z
" transform="scale(0.015625)"/>
       <path id="DejaVuSans-73" d="M 2834 3397 
L 2834 2853 
Q 2591 2978 2328 3040 
Q 2066 3103 1784 3103 
Q 1356 3103 1142 2972 
Q 928 2841 928 2578 
Q 928 2378 1081 2264 
Q 1234 2150 1697 2047 
L 1894 2003 
Q 2506 1872 2764 1633 
Q 3022 1394 3022 966 
Q 3022 478 2636 193 
Q 2250 -91 1575 -91 
Q 1294 -91 989 -36 
Q 684 19 347 128 
L 347 722 
Q 666 556 975 473 
Q 1284 391 1588 391 
Q 1994 391 2212 530 
Q 2431 669 2431 922 
Q 2431 1156 2273 1281 
Q 2116 1406 1581 1522 
L 1381 1569 
Q 847 1681 609 1914 
Q 372 2147 372 2553 
Q 372 3047 722 3315 
Q 1072 3584 1716 3584 
Q 2034 3584 2315 3537 
Q 2597 3491 2834 3397 
z
" transform="scale(0.015625)"/>
      </defs>
      <use xlink:href="#DejaVuSans-50"/>
      <use xlink:href="#DejaVuSans-61" x="55.802734"/>
      <use xlink:href="#DejaVuSans-67" x="117.082031"/>
      <use xlink:href="#DejaVuSans-65" x="180.558594"/>
      <use xlink:href="#DejaVuSans-73" x="242.082031"/>
     </g>
    </g>
   </g>
   <g id="matplotlib.axis_2">
    <g id="ytick_1">
     <g id="line2d_21">
      <defs>
       <path id="m6f3f5b6aff" d="M 0 0 
L -3.5 0 
" style="stroke: #000000; stroke-width: 0.8"/>
      </defs>
      <g>
       <use xlink:href="#m6f3f5b6aff" x="61.410938" y="318.56425" style="stroke: #000000; stroke-width: 0.8"/>
      </g>
     </g>
     <g id="text_4">
      <!-- 0.0 -->
      <g transform="translate(30.55625 324.263078)scale(0.15 -0.15)">
       <defs>
        <path id="DejaVuSans-2e" d="M 684 794 
L 1344 794 
L 1344 0 
L 684 0 
L 684 794 
z
" transform="scale(0.015625)"/>
       </defs>
       <use xlink:href="#DejaVuSans-30"/>
       <use xlink:href="#DejaVuSans-2e" x="63.623047"/>
       <use xlink:href="#DejaVuSans-30" x="95.410156"/>
      </g>
     </g>
    </g>
    <g id="ytick_2">
     <g id="line2d_22">
      <g>
       <use xlink:href="#m6f3f5b6aff" x="61.410938" y="263.047985" style="stroke: #000000; stroke-width: 0.8"/>
      </g>
     </g>
     <g id="text_5">
      <!-- 0.2 -->
      <g transform="translate(30.55625 268.746814)scale(0.15 -0.15)">
       <use xlink:href="#DejaVuSans-30"/>
       <use xlink:href="#DejaVuSans-2e" x="63.623047"/>
       <use xlink:href="#DejaVuSans-32" x="95.410156"/>
      </g>
     </g>
    </g>
    <g id="ytick_3">
     <g id="line2d_23">
      <g>
       <use xlink:href="#m6f3f5b6aff" x="61.410938" y="207.531721" style="stroke: #000000; stroke-width: 0.8"/>
      </g>
     </g>
     <g id="text_6">
      <!-- 0.4 -->
      <g transform="translate(30.55625 213.230549)scale(0.15 -0.15)">
       <defs>
        <path id="DejaVuSans-34" d="M 2419 4116 
L 825 1625 
L 2419 1625 
L 2419 4116 
z
M 2253 4666 
L 3047 4666 
L 3047 1625 
L 3713 1625 
L 3713 1100 
L 3047 1100 
L 3047 0 
L 2419 0 
L 2419 1100 
L 313 1100 
L 313 1709 
L 2253 4666 
z
" transform="scale(0.015625)"/>
       </defs>
       <use xlink:href="#DejaVuSans-30"/>
       <use xlink:href="#DejaVuSans-2e" x="63.623047"/>
       <use xlink:href="#DejaVuSans-34" x="95.410156"/>
      </g>
     </g>
    </g>
    <g id="ytick_4">
     <g id="line2d_24">
      <g>
       <use xlink:href="#m6f3f5b6aff" x="61.410938" y="152.015456" style="stroke: #000000; stroke-width: 0.8"/>
      </g>
     </g>
     <g id="text_7">
      <!-- 0.6 -->
      <g transform="translate(30.55625 157.714284)scale(0.15 -0.15)">
       <defs>
        <path id="DejaVuSans-36" d="M 2113 2584 
Q 1688 2584 1439 2293 
Q 1191 2003 1191 1497 
Q 1191 994 1439 701 
Q 1688 409 2113 409 
Q 2538 409 2786 701 
Q 3034 994 3034 1497 
Q 3034 2003 2786 2293 
Q 2538 2584 2113 2584 
z
M 3366 4563 
L 3366 3988 
Q 3128 4100 2886 4159 
Q 2644 4219 2406 4219 
Q 1781 4219 1451 3797 
Q 1122 3375 1075 2522 
Q 1259 2794 1537 2939 
Q 1816 3084 2150 3084 
Q 2853 3084 3261 2657 
Q 3669 2231 3669 1497 
Q 3669 778 3244 343 
Q 2819 -91 2113 -91 
Q 1303 -91 875 529 
Q 447 1150 447 2328 
Q 447 3434 972 4092 
Q 1497 4750 2381 4750 
Q 2619 4750 2861 4703 
Q 3103 4656 3366 4563 
z
" transform="scale(0.015625)"/>
       </defs>
       <use xlink:href="#DejaVuSans-30"/>
       <use xlink:href="#DejaVuSans-2e" x="63.623047"/>
       <use xlink:href="#DejaVuSans-36" x="95.410156"/>
      </g>
     </g>
    </g>
    <g id="ytick_5">
     <g id="line2d_25">
      <g>
       <use xlink:href="#m6f3f5b6aff" x="61.410938" y="96.499192" style="stroke: #000000; stroke-width: 0.8"/>
      </g>
     </g>
     <g id="text_8">
      <!-- 0.8 -->
      <g transform="translate(30.55625 102.19802)scale(0.15 -0.15)">
       <defs>
        <path id="DejaVuSans-38" d="M 2034 2216 
Q 1584 2216 1326 1975 
Q 1069 1734 1069 1313 
Q 1069 891 1326 650 
Q 1584 409 2034 409 
Q 2484 409 2743 651 
Q 3003 894 3003 1313 
Q 3003 1734 2745 1975 
Q 2488 2216 2034 2216 
z
M 1403 2484 
Q 997 2584 770 2862 
Q 544 3141 544 3541 
Q 544 4100 942 4425 
Q 1341 4750 2034 4750 
Q 2731 4750 3128 4425 
Q 3525 4100 3525 3541 
Q 3525 3141 3298 2862 
Q 3072 2584 2669 2484 
Q 3125 2378 3379 2068 
Q 3634 1759 3634 1313 
Q 3634 634 3220 271 
Q 2806 -91 2034 -91 
Q 1263 -91 848 271 
Q 434 634 434 1313 
Q 434 1759 690 2068 
Q 947 2378 1403 2484 
z
M 1172 3481 
Q 1172 3119 1398 2916 
Q 1625 2713 2034 2713 
Q 2441 2713 2670 2916 
Q 2900 3119 2900 3481 
Q 2900 3844 2670 4047 
Q 2441 4250 2034 4250 
Q 1625 4250 1398 4047 
Q 1172 3844 1172 3481 
z
" transform="scale(0.015625)"/>
       </defs>
       <use xlink:href="#DejaVuSans-30"/>
       <use xlink:href="#DejaVuSans-2e" x="63.623047"/>
       <use xlink:href="#DejaVuSans-38" x="95.410156"/>
      </g>
     </g>
    </g>
    <g id="ytick_6">
     <g id="line2d_26">
      <g>
       <use xlink:href="#m6f3f5b6aff" x="61.410938" y="40.982927" style="stroke: #000000; stroke-width: 0.8"/>
      </g>
     </g>
     <g id="text_9">
      <!-- 1.0 -->
      <g transform="translate(30.55625 46.681755)scale(0.15 -0.15)">
       <use xlink:href="#DejaVuSans-31"/>
       <use xlink:href="#DejaVuSans-2e" x="63.623047"/>
       <use xlink:href="#DejaVuSans-30" x="95.410156"/>
      </g>
     </g>
    </g>
    <g id="text_10">
     <!-- Count Difference -->
     <g transform="translate(22.396875 259.57525)rotate(-90)scale(0.2 -0.2)">
      <defs>
       <path id="DejaVuSans-43" d="M 4122 4306 
L 4122 3641 
Q 3803 3938 3442 4084 
Q 3081 4231 2675 4231 
Q 1875 4231 1450 3742 
Q 1025 3253 1025 2328 
Q 1025 1406 1450 917 
Q 1875 428 2675 428 
Q 3081 428 3442 575 
Q 3803 722 4122 1019 
L 4122 359 
Q 3791 134 3420 21 
Q 3050 -91 2638 -91 
Q 1578 -91 968 557 
Q 359 1206 359 2328 
Q 359 3453 968 4101 
Q 1578 4750 2638 4750 
Q 3056 4750 3426 4639 
Q 3797 4528 4122 4306 
z
" transform="scale(0.015625)"/>
       <path id="DejaVuSans-6f" d="M 1959 3097 
Q 1497 3097 1228 2736 
Q 959 2375 959 1747 
Q 959 1119 1226 758 
Q 1494 397 1959 397 
Q 2419 397 2687 759 
Q 2956 1122 2956 1747 
Q 2956 2369 2687 2733 
Q 2419 3097 1959 3097 
z
M 1959 3584 
Q 2709 3584 3137 3096 
Q 3566 2609 3566 1747 
Q 3566 888 3137 398 
Q 2709 -91 1959 -91 
Q 1206 -91 779 398 
Q 353 888 353 1747 
Q 353 2609 779 3096 
Q 1206 3584 1959 3584 
z
" transform="scale(0.015625)"/>
       <path id="DejaVuSans-75" d="M 544 1381 
L 544 3500 
L 1119 3500 
L 1119 1403 
Q 1119 906 1312 657 
Q 1506 409 1894 409 
Q 2359 409 2629 706 
Q 2900 1003 2900 1516 
L 2900 3500 
L 3475 3500 
L 3475 0 
L 2900 0 
L 2900 538 
Q 2691 219 2414 64 
Q 2138 -91 1772 -91 
Q 1169 -91 856 284 
Q 544 659 544 1381 
z
M 1991 3584 
L 1991 3584 
z
" transform="scale(0.015625)"/>
       <path id="DejaVuSans-6e" d="M 3513 2113 
L 3513 0 
L 2938 0 
L 2938 2094 
Q 2938 2591 2744 2837 
Q 2550 3084 2163 3084 
Q 1697 3084 1428 2787 
Q 1159 2491 1159 1978 
L 1159 0 
L 581 0 
L 581 3500 
L 1159 3500 
L 1159 2956 
Q 1366 3272 1645 3428 
Q 1925 3584 2291 3584 
Q 2894 3584 3203 3211 
Q 3513 2838 3513 2113 
z
" transform="scale(0.015625)"/>
       <path id="DejaVuSans-74" d="M 1172 4494 
L 1172 3500 
L 2356 3500 
L 2356 3053 
L 1172 3053 
L 1172 1153 
Q 1172 725 1289 603 
Q 1406 481 1766 481 
L 2356 481 
L 2356 0 
L 1766 0 
Q 1100 0 847 248 
Q 594 497 594 1153 
L 594 3053 
L 172 3053 
L 172 3500 
L 594 3500 
L 594 4494 
L 1172 4494 
z
" transform="scale(0.015625)"/>
       <path id="DejaVuSans-20" transform="scale(0.015625)"/>
       <path id="DejaVuSans-44" d="M 1259 4147 
L 1259 519 
L 2022 519 
Q 2988 519 3436 956 
Q 3884 1394 3884 2338 
Q 3884 3275 3436 3711 
Q 2988 4147 2022 4147 
L 1259 4147 
z
M 628 4666 
L 1925 4666 
Q 3281 4666 3915 4102 
Q 4550 3538 4550 2338 
Q 4550 1131 3912 565 
Q 3275 0 1925 0 
L 628 0 
L 628 4666 
z
" transform="scale(0.015625)"/>
       <path id="DejaVuSans-69" d="M 603 3500 
L 1178 3500 
L 1178 0 
L 603 0 
L 603 3500 
z
M 603 4863 
L 1178 4863 
L 1178 4134 
L 603 4134 
L 603 4863 
z
" transform="scale(0.015625)"/>
       <path id="DejaVuSans-66" d="M 2375 4863 
L 2375 4384 
L 1825 4384 
Q 1516 4384 1395 4259 
Q 1275 4134 1275 3809 
L 1275 3500 
L 2222 3500 
L 2222 3053 
L 1275 3053 
L 1275 0 
L 697 0 
L 697 3053 
L 147 3053 
L 147 3500 
L 697 3500 
L 697 3744 
Q 697 4328 969 4595 
Q 1241 4863 1831 4863 
L 2375 4863 
z
" transform="scale(0.015625)"/>
       <path id="DejaVuSans-72" d="M 2631 2963 
Q 2534 3019 2420 3045 
Q 2306 3072 2169 3072 
Q 1681 3072 1420 2755 
Q 1159 2438 1159 1844 
L 1159 0 
L 581 0 
L 581 3500 
L 1159 3500 
L 1159 2956 
Q 1341 3275 1631 3429 
Q 1922 3584 2338 3584 
Q 2397 3584 2469 3576 
Q 2541 3569 2628 3553 
L 2631 2963 
z
" transform="scale(0.015625)"/>
       <path id="DejaVuSans-63" d="M 3122 3366 
L 3122 2828 
Q 2878 2963 2633 3030 
Q 2388 3097 2138 3097 
Q 1578 3097 1268 2742 
Q 959 2388 959 1747 
Q 959 1106 1268 751 
Q 1578 397 2138 397 
Q 2388 397 2633 464 
Q 2878 531 3122 666 
L 3122 134 
Q 2881 22 2623 -34 
Q 2366 -91 2075 -91 
Q 1284 -91 818 406 
Q 353 903 353 1747 
Q 353 2603 823 3093 
Q 1294 3584 2113 3584 
Q 2378 3584 2631 3529 
Q 2884 3475 3122 3366 
z
" transform="scale(0.015625)"/>
      </defs>
      <use xlink:href="#DejaVuSans-43"/>
      <use xlink:href="#DejaVuSans-6f" x="69.824219"/>
      <use xlink:href="#DejaVuSans-75" x="131.005859"/>
      <use xlink:href="#DejaVuSans-6e" x="194.384766"/>
      <use xlink:href="#DejaVuSans-74" x="257.763672"/>
      <use xlink:href="#DejaVuSans-20" x="296.972656"/>
      <use xlink:href="#DejaVuSans-44" x="328.759766"/>
      <use xlink:href="#DejaVuSans-69" x="405.761719"/>
      <use xlink:href="#DejaVuSans-66" x="433.544922"/>
      <use xlink:href="#DejaVuSans-66" x="468.75"/>
      <use xlink:href="#DejaVuSans-65" x="503.955078"/>
      <use xlink:href="#DejaVuSans-72" x="565.478516"/>
      <use xlink:href="#DejaVuSans-65" x="604.341797"/>
      <use xlink:href="#DejaVuSans-6e" x="665.865234"/>
      <use xlink:href="#DejaVuSans-63" x="729.244141"/>
      <use xlink:href="#DejaVuSans-65" x="784.224609"/>
     </g>
    </g>
   </g>
   <g id="line2d_27">
    <defs>
     <path id="mb7e9aad44b" d="M 0 1.5 
C 0.397805 1.5 0.77937 1.341951 1.06066 1.06066 
C 1.341951 0.77937 1.5 0.397805 1.5 0 
C 1.5 -0.397805 1.341951 -0.77937 1.06066 -1.06066 
C 0.77937 -1.341951 0.397805 -1.5 0 -1.5 
C -0.397805 -1.5 -0.77937 -1.341951 -1.06066 -1.06066 
C -1.341951 -0.77937 -1.5 -0.397805 -1.5 0 
C -1.5 0.397805 -1.341951 0.77937 -1.06066 1.06066 
C -0.77937 1.341951 -0.397805 1.5 0 1.5 
z
" style="stroke: #1f77b4"/>
    </defs>
    <g clip-path="url(#p552ee41c08)">
     <use xlink:href="#mb7e9aad44b" x="61.410937" y="318.517061" style="fill: #1f77b4; stroke: #1f77b4"/>
     <use xlink:href="#mb7e9aad44b" x="91.741278" y="318.386598" style="fill: #1f77b4; stroke: #1f77b4"/>
     <use xlink:href="#mb7e9aad44b" x="113.260996" y="318.203394" style="fill: #1f77b4; stroke: #1f77b4"/>
     <use xlink:href="#mb7e9aad44b" x="129.952987" y="262.781507" style="fill: #1f77b4; stroke: #1f77b4"/>
     <use xlink:href="#mb7e9aad44b" x="143.591337" y="225.802123" style="fill: #1f77b4; stroke: #1f77b4"/>
     <use xlink:href="#mb7e9aad44b" x="165.111055" y="179.551523" style="fill: #1f77b4; stroke: #1f77b4"/>
     <use xlink:href="#mb7e9aad44b" x="195.441396" y="133.522988" style="fill: #1f77b4; stroke: #1f77b4"/>
     <use xlink:href="#mb7e9aad44b" x="216.961114" y="110.19783" style="fill: #1f77b4; stroke: #1f77b4"/>
     <use xlink:href="#mb7e9aad44b" x="247.291455" y="87.230751" style="fill: #1f77b4; stroke: #1f77b4"/>
     <use xlink:href="#mb7e9aad44b" x="268.811173" y="75.694471" style="fill: #1f77b4; stroke: #1f77b4"/>
     <use xlink:href="#mb7e9aad44b" x="299.141514" y="64.135985" style="fill: #1f77b4; stroke: #1f77b4"/>
     <use xlink:href="#mb7e9aad44b" x="320.661232" y="58.320656" style="fill: #1f77b4; stroke: #1f77b4"/>
     <use xlink:href="#mb7e9aad44b" x="350.991573" y="52.58305" style="fill: #1f77b4; stroke: #1f77b4"/>
     <use xlink:href="#mb7e9aad44b" x="372.511291" y="49.693429" style="fill: #1f77b4; stroke: #1f77b4"/>
     <use xlink:href="#mb7e9aad44b" x="402.841632" y="46.789928" style="fill: #1f77b4; stroke: #1f77b4"/>
     <use xlink:href="#mb7e9aad44b" x="424.36135" y="45.374264" style="fill: #1f77b4; stroke: #1f77b4"/>
    </g>
   </g>
   <g id="line2d_28">
    <path d="M 60.982541 318.56425 
L 112.8326 318.56425 
L 113.336331 317.942805 
L 117.72348 302.166609 
L 121.86752 288.090842 
L 126.217806 274.129943 
L 130.32894 261.662188 
L 134.604608 249.402229 
L 139.006102 237.492555 
L 143.16294 226.870412 
L 147.419886 216.587275 
L 151.748587 206.713938 
L 156.124327 197.297403 
L 160.525821 188.365148 
L 164.934948 179.929128 
L 169.336443 171.989345 
L 173.717579 164.536884 
L 178.278877 157.228059 
L 182.776636 150.444523 
L 187.393247 143.893206 
L 191.917226 137.85387 
L 196.514129 132.080105 
L 201.155855 126.599155 
L 205.964181 121.268962 
L 210.755518 116.287711 
L 215.642942 111.524845 
L 220.590452 107.010162 
L 225.679536 102.667563 
L 230.862827 98.538048 
L 236.197437 94.576462 
L 241.629888 90.822325 
L 247.199255 87.246404 
L 252.928277 83.835494 
L 258.826095 80.586595 
L 264.890867 77.502415 
L 271.11224 74.587994 
L 277.585482 71.802211 
L 284.312752 69.151543 
L 291.279676 66.646498 
L 298.54445 64.271314 
L 306.163631 62.016068 
L 314.147871 59.886739 
L 322.534673 57.881789 
L 331.39293 55.994576 
L 340.790817 54.222267 
L 350.773476 52.568278 
L 361.441557 51.028453 
L 372.899744 49.60177 
L 385.282975 48.286825 
L 398.755646 47.083004 
L 413.527963 45.989845 
L 424.366052 45.314513 
L 424.366052 45.314513 
" clip-path="url(#p552ee41c08)" style="fill: none; stroke: #1f77b4; stroke-width: 1.5; stroke-linecap: square"/>
   </g>
   <g id="line2d_29">
    <defs>
     <path id="m2b06e4dde2" d="M 0 1.5 
C 0.397805 1.5 0.77937 1.341951 1.06066 1.06066 
C 1.341951 0.77937 1.5 0.397805 1.5 0 
C 1.5 -0.397805 1.341951 -0.77937 1.06066 -1.06066 
C 0.77937 -1.341951 0.397805 -1.5 0 -1.5 
C -0.397805 -1.5 -0.77937 -1.341951 -1.06066 -1.06066 
C -1.341951 -0.77937 -1.5 -0.397805 -1.5 0 
C -1.5 0.397805 -1.341951 0.77937 -1.06066 1.06066 
C -0.77937 1.341951 -0.397805 1.5 0 1.5 
z
" style="stroke: #ff7f0e"/>
    </defs>
    <g clip-path="url(#p552ee41c08)">
     <use xlink:href="#m2b06e4dde2" x="61.410937" y="318.56425" style="fill: #ff7f0e; stroke: #ff7f0e"/>
     <use xlink:href="#m2b06e4dde2" x="91.741278" y="318.56425" style="fill: #ff7f0e; stroke: #ff7f0e"/>
     <use xlink:href="#m2b06e4dde2" x="113.260996" y="318.56425" style="fill: #ff7f0e; stroke: #ff7f0e"/>
     <use xlink:href="#m2b06e4dde2" x="129.952987" y="318.56425" style="fill: #ff7f0e; stroke: #ff7f0e"/>
     <use xlink:href="#m2b06e4dde2" x="143.591337" y="318.56425" style="fill: #ff7f0e; stroke: #ff7f0e"/>
     <use xlink:href="#m2b06e4dde2" x="165.111055" y="318.56425" style="fill: #ff7f0e; stroke: #ff7f0e"/>
     <use xlink:href="#m2b06e4dde2" x="195.441396" y="318.56425" style="fill: #ff7f0e; stroke: #ff7f0e"/>
     <use xlink:href="#m2b06e4dde2" x="216.961114" y="318.56425" style="fill: #ff7f0e; stroke: #ff7f0e"/>
     <use xlink:href="#m2b06e4dde2" x="247.291455" y="318.533716" style="fill: #ff7f0e; stroke: #ff7f0e"/>
     <use xlink:href="#m2b06e4dde2" x="268.811173" y="318.031294" style="fill: #ff7f0e; stroke: #ff7f0e"/>
     <use xlink:href="#m2b06e4dde2" x="299.141514" y="225.491232" style="fill: #ff7f0e; stroke: #ff7f0e"/>
     <use xlink:href="#m2b06e4dde2" x="320.661232" y="179.160134" style="fill: #ff7f0e; stroke: #ff7f0e"/>
     <use xlink:href="#m2b06e4dde2" x="350.991573" y="133.012239" style="fill: #ff7f0e; stroke: #ff7f0e"/>
     <use xlink:href="#m2b06e4dde2" x="372.511291" y="110.006299" style="fill: #ff7f0e; stroke: #ff7f0e"/>
     <use xlink:href="#m2b06e4dde2" x="402.841632" y="86.878223" style="fill: #ff7f0e; stroke: #ff7f0e"/>
     <use xlink:href="#m2b06e4dde2" x="424.36135" y="75.21148" style="fill: #ff7f0e; stroke: #ff7f0e"/>
    </g>
   </g>
   <g id="line2d_30">
    <path d="M 60.982541 318.56425 
L 268.572074 318.56425 
L 268.949237 317.225993 
L 273.155203 302.12237 
L 277.361686 287.842835 
L 281.556373 274.380928 
L 285.779045 261.570596 
L 290.012977 249.431996 
L 294.243946 237.969166 
L 298.502223 227.068741 
L 302.770851 216.747182 
L 307.073111 206.9235 
L 311.390618 197.616947 
L 315.741305 188.766773 
L 320.106371 180.389855 
L 324.499728 172.438044 
L 328.931054 164.876903 
L 333.379939 157.723266 
L 337.879034 150.90887 
L 342.40518 144.454819 
L 346.982949 138.312513 
L 351.608815 132.47598 
L 356.297533 126.917211 
L 361.039875 121.63833 
L 365.860738 116.604308 
L 370.744231 111.825141 
L 375.72055 107.265706 
L 380.781113 102.929915 
L 385.942044 98.800116 
L 391.223613 94.858679 
L 396.624659 91.105813 
L 402.160091 87.530664 
L 407.844643 84.124435 
L 413.691151 80.880987 
L 419.717653 77.792709 
L 424.366052 75.574926 
L 424.366052 75.574926 
" clip-path="url(#p552ee41c08)" style="fill: none; stroke: #ff7f0e; stroke-width: 1.5; stroke-linecap: square"/>
   </g>
   <g id="line2d_31">
    <defs>
     <path id="m4df8316420" d="M 0 1.5 
C 0.397805 1.5 0.77937 1.341951 1.06066 1.06066 
C 1.341951 0.77937 1.5 0.397805 1.5 0 
C 1.5 -0.397805 1.341951 -0.77937 1.06066 -1.06066 
C 0.77937 -1.341951 0.397805 -1.5 0 -1.5 
C -0.397805 -1.5 -0.77937 -1.341951 -1.06066 -1.06066 
C -1.341951 -0.77937 -1.5 -0.397805 -1.5 0 
C -1.5 0.397805 -1.341951 0.77937 -1.06066 1.06066 
C -0.77937 1.341951 -0.397805 1.5 0 1.5 
z
" style="stroke: #2ca02c"/>
    </defs>
    <g clip-path="url(#p552ee41c08)">
     <use xlink:href="#m4df8316420" x="61.410937" y="318.56425" style="fill: #2ca02c; stroke: #2ca02c"/>
     <use xlink:href="#m4df8316420" x="91.741278" y="318.56425" style="fill: #2ca02c; stroke: #2ca02c"/>
     <use xlink:href="#m4df8316420" x="113.260996" y="318.56425" style="fill: #2ca02c; stroke: #2ca02c"/>
     <use xlink:href="#m4df8316420" x="129.952987" y="318.56425" style="fill: #2ca02c; stroke: #2ca02c"/>
     <use xlink:href="#m4df8316420" x="143.591337" y="318.56425" style="fill: #2ca02c; stroke: #2ca02c"/>
     <use xlink:href="#m4df8316420" x="165.111055" y="318.567026" style="fill: #2ca02c; stroke: #2ca02c"/>
     <use xlink:href="#m4df8316420" x="195.441396" y="318.56425" style="fill: #2ca02c; stroke: #2ca02c"/>
     <use xlink:href="#m4df8316420" x="216.961114" y="318.56425" style="fill: #2ca02c; stroke: #2ca02c"/>
     <use xlink:href="#m4df8316420" x="247.291455" y="318.525389" style="fill: #2ca02c; stroke: #2ca02c"/>
     <use xlink:href="#m4df8316420" x="268.811173" y="318.006312" style="fill: #2ca02c; stroke: #2ca02c"/>
     <use xlink:href="#m4df8316420" x="299.141514" y="225.482905" style="fill: #2ca02c; stroke: #2ca02c"/>
     <use xlink:href="#m4df8316420" x="320.661232" y="179.137927" style="fill: #2ca02c; stroke: #2ca02c"/>
     <use xlink:href="#m4df8316420" x="350.991573" y="133.028894" style="fill: #2ca02c; stroke: #2ca02c"/>
     <use xlink:href="#m4df8316420" x="372.511291" y="110.009075" style="fill: #2ca02c; stroke: #2ca02c"/>
     <use xlink:href="#m4df8316420" x="402.841632" y="86.892102" style="fill: #2ca02c; stroke: #2ca02c"/>
     <use xlink:href="#m4df8316420" x="424.36135" y="75.228135" style="fill: #2ca02c; stroke: #2ca02c"/>
    </g>
   </g>
   <g id="line2d_32">
    <path d="M 60.982541 318.56425 
L 268.572074 318.56425 
L 269.137107 316.51693 
L 273.332814 301.487802 
L 277.529595 287.274905 
L 281.715136 273.872444 
L 285.929103 261.115637 
L 290.154785 249.025015 
L 294.377963 237.605043 
L 298.628831 226.743168 
L 302.890442 216.456126 
L 307.186023 206.663504 
L 311.497202 197.384762 
L 315.84187 188.55958 
L 320.201239 180.205009 
L 324.589189 172.273233 
L 329.015372 164.730079 
L 333.459391 157.592505 
L 337.95385 150.792546 
L 342.475606 144.351392 
L 347.049196 138.220657 
L 351.671091 132.394485 
L 356.356027 126.845008 
L 361.094777 121.574433 
L 365.912214 116.547859 
L 370.808523 111.760132 
L 375.780706 107.208543 
L 380.851385 102.868123 
L 386.020743 98.735936 
L 391.29695 94.802732 
L 396.692889 91.057181 
L 402.223458 87.488525 
L 407.903374 84.08805 
L 413.745469 80.84969 
L 419.767767 77.765901 
L 424.366052 75.572899 
L 424.366052 75.572899 
" clip-path="url(#p552ee41c08)" style="fill: none; stroke: #2ca02c; stroke-width: 1.5; stroke-linecap: square"/>
   </g>
   <g id="line2d_33">
    <defs>
     <path id="m941512fc49" d="M 0 1.5 
C 0.397805 1.5 0.77937 1.341951 1.06066 1.06066 
C 1.341951 0.77937 1.5 0.397805 1.5 0 
C 1.5 -0.397805 1.341951 -0.77937 1.06066 -1.06066 
C 0.77937 -1.341951 0.397805 -1.5 0 -1.5 
C -0.397805 -1.5 -0.77937 -1.341951 -1.06066 -1.06066 
C -1.341951 -0.77937 -1.5 -0.397805 -1.5 0 
C -1.5 0.397805 -1.341951 0.77937 -1.06066 1.06066 
C -0.77937 1.341951 -0.397805 1.5 0 1.5 
z
" style="stroke: #d62728"/>
    </defs>
    <g clip-path="url(#p552ee41c08)">
     <use xlink:href="#m941512fc49" x="61.410937" y="318.514285" style="fill: #d62728; stroke: #d62728"/>
     <use xlink:href="#m941512fc49" x="91.741278" y="318.403253" style="fill: #d62728; stroke: #d62728"/>
     <use xlink:href="#m941512fc49" x="113.260996" y="318.125672" style="fill: #d62728; stroke: #d62728"/>
     <use xlink:href="#m941512fc49" x="129.952987" y="262.753749" style="fill: #d62728; stroke: #d62728"/>
     <use xlink:href="#m941512fc49" x="143.591337" y="225.777141" style="fill: #d62728; stroke: #d62728"/>
     <use xlink:href="#m941512fc49" x="165.111055" y="179.512662" style="fill: #d62728; stroke: #d62728"/>
     <use xlink:href="#m941512fc49" x="195.441396" y="133.498006" style="fill: #d62728; stroke: #d62728"/>
     <use xlink:href="#m941512fc49" x="216.961114" y="110.192278" style="fill: #d62728; stroke: #d62728"/>
     <use xlink:href="#m941512fc49" x="247.291455" y="87.219648" style="fill: #d62728; stroke: #d62728"/>
     <use xlink:href="#m941512fc49" x="268.811173" y="75.686144" style="fill: #d62728; stroke: #d62728"/>
     <use xlink:href="#m941512fc49" x="299.141514" y="64.108227" style="fill: #d62728; stroke: #d62728"/>
     <use xlink:href="#m941512fc49" x="320.661232" y="58.29845" style="fill: #d62728; stroke: #d62728"/>
     <use xlink:href="#m941512fc49" x="350.991573" y="52.558068" style="fill: #d62728; stroke: #d62728"/>
     <use xlink:href="#m941512fc49" x="372.511291" y="49.671222" style="fill: #d62728; stroke: #d62728"/>
     <use xlink:href="#m941512fc49" x="402.841632" y="46.767722" style="fill: #d62728; stroke: #d62728"/>
     <use xlink:href="#m941512fc49" x="424.36135" y="45.360384" style="fill: #d62728; stroke: #d62728"/>
    </g>
   </g>
   <g id="line2d_34">
    <path d="M 60.982541 318.56425 
L 112.8326 318.56425 
L 113.336331 317.882555 
L 117.72348 302.109792 
L 121.86752 288.037087 
L 126.217806 274.079224 
L 130.32894 261.614182 
L 134.604608 249.35689 
L 139.006102 237.449806 
L 143.16294 226.829975 
L 147.419886 216.549074 
L 151.748587 206.677885 
L 156.124327 197.263399 
L 160.525821 188.333086 
L 164.934948 179.898902 
L 169.336443 171.960847 
L 173.717579 164.510007 
L 178.278877 157.202771 
L 182.776636 150.420711 
L 187.393247 143.870819 
L 191.917226 137.832797 
L 196.514129 132.060288 
L 201.155855 126.58053 
L 205.964181 121.251496 
L 210.755518 116.27133 
L 215.642942 111.509499 
L 220.590452 106.995798 
L 225.679536 102.654145 
L 230.862827 98.525528 
L 236.197437 94.564803 
L 241.629888 90.811483 
L 247.199255 87.23634 
L 252.928277 83.826172 
L 258.826095 80.577979 
L 264.890867 77.494471 
L 271.11224 74.580683 
L 277.585482 71.795507 
L 284.312752 69.145415 
L 291.279676 66.640915 
L 298.54445 64.266248 
L 306.163631 62.011492 
L 314.147871 59.882627 
L 322.534673 57.878113 
L 331.39293 55.99131 
L 340.790817 54.219387 
L 350.773476 52.565758 
L 361.441557 51.026268 
L 372.899744 49.599895 
L 385.282975 48.285236 
L 398.755646 47.081677 
L 413.527963 45.988756 
L 424.366052 45.313571 
L 424.366052 45.313571 
" clip-path="url(#p552ee41c08)" style="fill: none; stroke: #d62728; stroke-width: 1.5; stroke-linecap: square"/>
   </g>
   <g id="line2d_35">
    <path d="M 113.260996 318.56425 
L 113.260996 31.43625 
" clip-path="url(#p552ee41c08)" style="fill: none; stroke: #ff0000; stroke-width: 1.5; stroke-linecap: square"/>
   </g>
   <g id="line2d_36">
    <path d="M 268.811173 318.56425 
L 268.811173 31.43625 
" clip-path="url(#p552ee41c08)" style="fill: none; stroke: #008000; stroke-width: 1.5; stroke-linecap: square"/>
   </g>
   <g id="patch_3">
    <path d="M 61.410938 318.56425 
L 61.410938 31.43625 
" style="fill: none; stroke: #000000; stroke-width: 0.8; stroke-linejoin: miter; stroke-linecap: square"/>
   </g>
   <g id="patch_4">
    <path d="M 424.36135 318.56425 
L 424.36135 31.43625 
" style="fill: none; stroke: #000000; stroke-width: 0.8; stroke-linejoin: miter; stroke-linecap: square"/>
   </g>
   <g id="patch_5">
    <path d="M 61.410937 318.56425 
L 424.36135 318.56425 
" style="fill: none; stroke: #000000; stroke-width: 0.8; stroke-linejoin: miter; stroke-linecap: square"/>
   </g>
   <g id="patch_6">
    <path d="M 61.410937 31.43625 
L 424.36135 31.43625 
" style="fill: none; stroke: #000000; stroke-width: 0.8; stroke-linejoin: miter; stroke-linecap: square"/>
   </g>
   <g id="text_11">
    <!-- TLB_L1=127.842(20) -->
    <g style="fill: #1f77b4" transform="translate(146.644978 235.289853)scale(0.1 -0.1)">
     <defs>
      <path id="DejaVuSans-54" d="M -19 4666 
L 3928 4666 
L 3928 4134 
L 2272 4134 
L 2272 0 
L 1638 0 
L 1638 4134 
L -19 4134 
L -19 4666 
z
" transform="scale(0.015625)"/>
      <path id="DejaVuSans-4c" d="M 628 4666 
L 1259 4666 
L 1259 531 
L 3531 531 
L 3531 0 
L 628 0 
L 628 4666 
z
" transform="scale(0.015625)"/>
      <path id="DejaVuSans-42" d="M 1259 2228 
L 1259 519 
L 2272 519 
Q 2781 519 3026 730 
Q 3272 941 3272 1375 
Q 3272 1813 3026 2020 
Q 2781 2228 2272 2228 
L 1259 2228 
z
M 1259 4147 
L 1259 2741 
L 2194 2741 
Q 2656 2741 2882 2914 
Q 3109 3088 3109 3444 
Q 3109 3797 2882 3972 
Q 2656 4147 2194 4147 
L 1259 4147 
z
M 628 4666 
L 2241 4666 
Q 2963 4666 3353 4366 
Q 3744 4066 3744 3513 
Q 3744 3084 3544 2831 
Q 3344 2578 2956 2516 
Q 3422 2416 3680 2098 
Q 3938 1781 3938 1306 
Q 3938 681 3513 340 
Q 3088 0 2303 0 
L 628 0 
L 628 4666 
z
" transform="scale(0.015625)"/>
      <path id="DejaVuSans-5f" d="M 3263 -1063 
L 3263 -1509 
L -63 -1509 
L -63 -1063 
L 3263 -1063 
z
" transform="scale(0.015625)"/>
      <path id="DejaVuSans-3d" d="M 678 2906 
L 4684 2906 
L 4684 2381 
L 678 2381 
L 678 2906 
z
M 678 1631 
L 4684 1631 
L 4684 1100 
L 678 1100 
L 678 1631 
z
" transform="scale(0.015625)"/>
      <path id="DejaVuSans-37" d="M 525 4666 
L 3525 4666 
L 3525 4397 
L 1831 0 
L 1172 0 
L 2766 4134 
L 525 4134 
L 525 4666 
z
" transform="scale(0.015625)"/>
      <path id="DejaVuSans-28" d="M 1984 4856 
Q 1566 4138 1362 3434 
Q 1159 2731 1159 2009 
Q 1159 1288 1364 580 
Q 1569 -128 1984 -844 
L 1484 -844 
Q 1016 -109 783 600 
Q 550 1309 550 2009 
Q 550 2706 781 3412 
Q 1013 4119 1484 4856 
L 1984 4856 
z
" transform="scale(0.015625)"/>
      <path id="DejaVuSans-29" d="M 513 4856 
L 1013 4856 
Q 1481 4119 1714 3412 
Q 1947 2706 1947 2009 
Q 1947 1309 1714 600 
Q 1481 -109 1013 -844 
L 513 -844 
Q 928 -128 1133 580 
Q 1338 1288 1338 2009 
Q 1338 2731 1133 3434 
Q 928 4138 513 4856 
z
" transform="scale(0.015625)"/>
     </defs>
     <use xlink:href="#DejaVuSans-54"/>
     <use xlink:href="#DejaVuSans-4c" x="61.083984"/>
     <use xlink:href="#DejaVuSans-42" x="116.796875"/>
     <use xlink:href="#DejaVuSans-5f" x="185.400391"/>
     <use xlink:href="#DejaVuSans-4c" x="235.400391"/>
     <use xlink:href="#DejaVuSans-31" x="291.113281"/>
     <use xlink:href="#DejaVuSans-3d" x="354.736328"/>
     <use xlink:href="#DejaVuSans-31" x="438.525391"/>
     <use xlink:href="#DejaVuSans-32" x="502.148438"/>
     <use xlink:href="#DejaVuSans-37" x="565.771484"/>
     <use xlink:href="#DejaVuSans-2e" x="629.394531"/>
     <use xlink:href="#DejaVuSans-38" x="661.181641"/>
     <use xlink:href="#DejaVuSans-34" x="724.804688"/>
     <use xlink:href="#DejaVuSans-32" x="788.427734"/>
     <use xlink:href="#DejaVuSans-28" x="852.050781"/>
     <use xlink:href="#DejaVuSans-32" x="891.064453"/>
     <use xlink:href="#DejaVuSans-30" x="954.6875"/>
     <use xlink:href="#DejaVuSans-29" x="1018.310547"/>
    </g>
   </g>
   <g id="text_12">
    <!-- TLB_L1=127.814(19) -->
    <g style="fill: #d62728" transform="translate(146.644978 263.047985)scale(0.1 -0.1)">
     <defs>
      <path id="DejaVuSans-39" d="M 703 97 
L 703 672 
Q 941 559 1184 500 
Q 1428 441 1663 441 
Q 2288 441 2617 861 
Q 2947 1281 2994 2138 
Q 2813 1869 2534 1725 
Q 2256 1581 1919 1581 
Q 1219 1581 811 2004 
Q 403 2428 403 3163 
Q 403 3881 828 4315 
Q 1253 4750 1959 4750 
Q 2769 4750 3195 4129 
Q 3622 3509 3622 2328 
Q 3622 1225 3098 567 
Q 2575 -91 1691 -91 
Q 1453 -91 1209 -44 
Q 966 3 703 97 
z
M 1959 2075 
Q 2384 2075 2632 2365 
Q 2881 2656 2881 3163 
Q 2881 3666 2632 3958 
Q 2384 4250 1959 4250 
Q 1534 4250 1286 3958 
Q 1038 3666 1038 3163 
Q 1038 2656 1286 2365 
Q 1534 2075 1959 2075 
z
" transform="scale(0.015625)"/>
     </defs>
     <use xlink:href="#DejaVuSans-54"/>
     <use xlink:href="#DejaVuSans-4c" x="61.083984"/>
     <use xlink:href="#DejaVuSans-42" x="116.796875"/>
     <use xlink:href="#DejaVuSans-5f" x="185.400391"/>
     <use xlink:href="#DejaVuSans-4c" x="235.400391"/>
     <use xlink:href="#DejaVuSans-31" x="291.113281"/>
     <use xlink:href="#DejaVuSans-3d" x="354.736328"/>
     <use xlink:href="#DejaVuSans-31" x="438.525391"/>
     <use xlink:href="#DejaVuSans-32" x="502.148438"/>
     <use xlink:href="#DejaVuSans-37" x="565.771484"/>
     <use xlink:href="#DejaVuSans-2e" x="629.394531"/>
     <use xlink:href="#DejaVuSans-38" x="661.181641"/>
     <use xlink:href="#DejaVuSans-31" x="724.804688"/>
     <use xlink:href="#DejaVuSans-34" x="788.427734"/>
     <use xlink:href="#DejaVuSans-28" x="852.050781"/>
     <use xlink:href="#DejaVuSans-31" x="891.064453"/>
     <use xlink:href="#DejaVuSans-39" x="954.6875"/>
     <use xlink:href="#DejaVuSans-29" x="1018.310547"/>
    </g>
   </g>
   <g id="text_13">
    <!-- TLB_L2=1020.95(43) -->
    <g style="fill: #ff7f0e" transform="translate(311.005776 263.047985)scale(0.1 -0.1)">
     <defs>
      <path id="DejaVuSans-35" d="M 691 4666 
L 3169 4666 
L 3169 4134 
L 1269 4134 
L 1269 2991 
Q 1406 3038 1543 3061 
Q 1681 3084 1819 3084 
Q 2600 3084 3056 2656 
Q 3513 2228 3513 1497 
Q 3513 744 3044 326 
Q 2575 -91 1722 -91 
Q 1428 -91 1123 -41 
Q 819 9 494 109 
L 494 744 
Q 775 591 1075 516 
Q 1375 441 1709 441 
Q 2250 441 2565 725 
Q 2881 1009 2881 1497 
Q 2881 1984 2565 2268 
Q 2250 2553 1709 2553 
Q 1456 2553 1204 2497 
Q 953 2441 691 2322 
L 691 4666 
z
" transform="scale(0.015625)"/>
     </defs>
     <use xlink:href="#DejaVuSans-54"/>
     <use xlink:href="#DejaVuSans-4c" x="61.083984"/>
     <use xlink:href="#DejaVuSans-42" x="116.796875"/>
     <use xlink:href="#DejaVuSans-5f" x="185.400391"/>
     <use xlink:href="#DejaVuSans-4c" x="235.400391"/>
     <use xlink:href="#DejaVuSans-32" x="291.113281"/>
     <use xlink:href="#DejaVuSans-3d" x="354.736328"/>
     <use xlink:href="#DejaVuSans-31" x="438.525391"/>
     <use xlink:href="#DejaVuSans-30" x="502.148438"/>
     <use xlink:href="#DejaVuSans-32" x="565.771484"/>
     <use xlink:href="#DejaVuSans-30" x="629.394531"/>
     <use xlink:href="#DejaVuSans-2e" x="693.017578"/>
     <use xlink:href="#DejaVuSans-39" x="724.804688"/>
     <use xlink:href="#DejaVuSans-35" x="788.427734"/>
     <use xlink:href="#DejaVuSans-28" x="852.050781"/>
     <use xlink:href="#DejaVuSans-34" x="891.064453"/>
     <use xlink:href="#DejaVuSans-33" x="954.6875"/>
     <use xlink:href="#DejaVuSans-29" x="1018.310547"/>
    </g>
   </g>
   <g id="text_14">
    <!-- TLB_L2=1020.89(41) -->
    <g style="fill: #2ca02c" transform="translate(311.005776 235.289853)scale(0.1 -0.1)">
     <use xlink:href="#DejaVuSans-54"/>
     <use xlink:href="#DejaVuSans-4c" x="61.083984"/>
     <use xlink:href="#DejaVuSans-42" x="116.796875"/>
     <use xlink:href="#DejaVuSans-5f" x="185.400391"/>
     <use xlink:href="#DejaVuSans-4c" x="235.400391"/>
     <use xlink:href="#DejaVuSans-32" x="291.113281"/>
     <use xlink:href="#DejaVuSans-3d" x="354.736328"/>
     <use xlink:href="#DejaVuSans-31" x="438.525391"/>
     <use xlink:href="#DejaVuSans-30" x="502.148438"/>
     <use xlink:href="#DejaVuSans-32" x="565.771484"/>
     <use xlink:href="#DejaVuSans-30" x="629.394531"/>
     <use xlink:href="#DejaVuSans-2e" x="693.017578"/>
     <use xlink:href="#DejaVuSans-38" x="724.804688"/>
     <use xlink:href="#DejaVuSans-39" x="788.427734"/>
     <use xlink:href="#DejaVuSans-28" x="852.050781"/>
     <use xlink:href="#DejaVuSans-34" x="891.064453"/>
     <use xlink:href="#DejaVuSans-31" x="954.6875"/>
     <use xlink:href="#DejaVuSans-29" x="1018.310547"/>
    </g>
   </g>
   <g id="text_15">
    <!-- Ice Storm (Load) -->
    <g transform="translate(143.505519 25.43625)scale(0.24 -0.24)">
     <defs>
      <path id="DejaVuSans-49" d="M 628 4666 
L 1259 4666 
L 1259 0 
L 628 0 
L 628 4666 
z
" transform="scale(0.015625)"/>
      <path id="DejaVuSans-53" d="M 3425 4513 
L 3425 3897 
Q 3066 4069 2747 4153 
Q 2428 4238 2131 4238 
Q 1616 4238 1336 4038 
Q 1056 3838 1056 3469 
Q 1056 3159 1242 3001 
Q 1428 2844 1947 2747 
L 2328 2669 
Q 3034 2534 3370 2195 
Q 3706 1856 3706 1288 
Q 3706 609 3251 259 
Q 2797 -91 1919 -91 
Q 1588 -91 1214 -16 
Q 841 59 441 206 
L 441 856 
Q 825 641 1194 531 
Q 1563 422 1919 422 
Q 2459 422 2753 634 
Q 3047 847 3047 1241 
Q 3047 1584 2836 1778 
Q 2625 1972 2144 2069 
L 1759 2144 
Q 1053 2284 737 2584 
Q 422 2884 422 3419 
Q 422 4038 858 4394 
Q 1294 4750 2059 4750 
Q 2388 4750 2728 4690 
Q 3069 4631 3425 4513 
z
" transform="scale(0.015625)"/>
      <path id="DejaVuSans-6d" d="M 3328 2828 
Q 3544 3216 3844 3400 
Q 4144 3584 4550 3584 
Q 5097 3584 5394 3201 
Q 5691 2819 5691 2113 
L 5691 0 
L 5113 0 
L 5113 2094 
Q 5113 2597 4934 2840 
Q 4756 3084 4391 3084 
Q 3944 3084 3684 2787 
Q 3425 2491 3425 1978 
L 3425 0 
L 2847 0 
L 2847 2094 
Q 2847 2600 2669 2842 
Q 2491 3084 2119 3084 
Q 1678 3084 1418 2786 
Q 1159 2488 1159 1978 
L 1159 0 
L 581 0 
L 581 3500 
L 1159 3500 
L 1159 2956 
Q 1356 3278 1631 3431 
Q 1906 3584 2284 3584 
Q 2666 3584 2933 3390 
Q 3200 3197 3328 2828 
z
" transform="scale(0.015625)"/>
      <path id="DejaVuSans-64" d="M 2906 2969 
L 2906 4863 
L 3481 4863 
L 3481 0 
L 2906 0 
L 2906 525 
Q 2725 213 2448 61 
Q 2172 -91 1784 -91 
Q 1150 -91 751 415 
Q 353 922 353 1747 
Q 353 2572 751 3078 
Q 1150 3584 1784 3584 
Q 2172 3584 2448 3432 
Q 2725 3281 2906 2969 
z
M 947 1747 
Q 947 1113 1208 752 
Q 1469 391 1925 391 
Q 2381 391 2643 752 
Q 2906 1113 2906 1747 
Q 2906 2381 2643 2742 
Q 2381 3103 1925 3103 
Q 1469 3103 1208 2742 
Q 947 2381 947 1747 
z
" transform="scale(0.015625)"/>
     </defs>
     <use xlink:href="#DejaVuSans-49"/>
     <use xlink:href="#DejaVuSans-63" x="29.492188"/>
     <use xlink:href="#DejaVuSans-65" x="84.472656"/>
     <use xlink:href="#DejaVuSans-20" x="145.996094"/>
     <use xlink:href="#DejaVuSans-53" x="177.783203"/>
     <use xlink:href="#DejaVuSans-74" x="241.259766"/>
     <use xlink:href="#DejaVuSans-6f" x="280.46875"/>
     <use xlink:href="#DejaVuSans-72" x="341.650391"/>
     <use xlink:href="#DejaVuSans-6d" x="381.013672"/>
     <use xlink:href="#DejaVuSans-20" x="478.425781"/>
     <use xlink:href="#DejaVuSans-28" x="510.212891"/>
     <use xlink:href="#DejaVuSans-4c" x="549.226562"/>
     <use xlink:href="#DejaVuSans-6f" x="603.189453"/>
     <use xlink:href="#DejaVuSans-61" x="664.371094"/>
     <use xlink:href="#DejaVuSans-64" x="725.650391"/>
     <use xlink:href="#DejaVuSans-29" x="789.126953"/>
    </g>
   </g>
   <g id="legend_1">
    <g id="patch_7">
     <path d="M 67.010937 49.57875 
L 243.440938 49.57875 
Q 245.040938 49.57875 245.040938 47.97875 
L 245.040938 37.03625 
Q 245.040938 35.43625 243.440938 35.43625 
L 67.010937 35.43625 
Q 65.410938 35.43625 65.410938 37.03625 
L 65.410938 47.97875 
Q 65.410938 49.57875 67.010937 49.57875 
z
" style="fill: #ffffff; opacity: 0.8; stroke: #cccccc; stroke-linejoin: miter"/>
    </g>
    <g id="line2d_37">
     <g>
      <use xlink:href="#mb7e9aad44b" x="76.610938" y="41.915" style="fill: #1f77b4; stroke: #1f77b4"/>
     </g>
    </g>
    <g id="text_16">
     <!-- 5 -->
     <g transform="translate(91.010938 44.715)scale(0.08 -0.08)">
      <use xlink:href="#DejaVuSans-35"/>
     </g>
    </g>
    <g id="line2d_38">
     <g>
      <use xlink:href="#m2b06e4dde2" x="120.100938" y="41.915" style="fill: #ff7f0e; stroke: #ff7f0e"/>
     </g>
    </g>
    <g id="text_17">
     <!-- 8 -->
     <g transform="translate(134.500938 44.715)scale(0.08 -0.08)">
      <use xlink:href="#DejaVuSans-38"/>
     </g>
    </g>
    <g id="line2d_39">
     <g>
      <use xlink:href="#m4df8316420" x="163.590937" y="41.915" style="fill: #2ca02c; stroke: #2ca02c"/>
     </g>
    </g>
    <g id="text_18">
     <!-- 11 -->
     <g transform="translate(177.990938 44.715)scale(0.08 -0.08)">
      <use xlink:href="#DejaVuSans-31"/>
      <use xlink:href="#DejaVuSans-31" x="63.623047"/>
     </g>
    </g>
    <g id="line2d_40">
     <g>
      <use xlink:href="#m941512fc49" x="212.170938" y="41.915" style="fill: #d62728; stroke: #d62728"/>
     </g>
    </g>
    <g id="text_19">
     <!-- 193 -->
     <g transform="translate(226.570938 44.715)scale(0.08 -0.08)">
      <use xlink:href="#DejaVuSans-31"/>
      <use xlink:href="#DejaVuSans-39" x="63.623047"/>
      <use xlink:href="#DejaVuSans-33" x="127.246094"/>
     </g>
    </g>
   </g>
  </g>
  <g id="axes_2">
   <g id="patch_8">
    <path d="M 507.450525 318.56425 
L 870.400937 318.56425 
L 870.400937 31.43625 
L 507.450525 31.43625 
L 507.450525 318.56425 
z
" style="fill: none"/>
   </g>
   <g id="matplotlib.axis_3">
    <g id="xtick_21">
     <g id="line2d_41">
      <g>
       <use xlink:href="#md39032bed2" x="540.834506" y="318.56425" style="stroke: #000000; stroke-width: 0.8"/>
      </g>
     </g>
     <g id="text_20">
      <!-- $\mathdefault{10^{2}}$ -->
      <g transform="translate(527.634506 336.961906)scale(0.15 -0.15)">
       <use xlink:href="#DejaVuSans-31" transform="translate(0 0.765625)"/>
       <use xlink:href="#DejaVuSans-30" transform="translate(63.623047 0.765625)"/>
       <use xlink:href="#DejaVuSans-32" transform="translate(128.203125 39.046875)scale(0.7)"/>
      </g>
     </g>
    </g>
    <g id="xtick_22">
     <g id="line2d_42">
      <g>
       <use xlink:href="#md39032bed2" x="713.076674" y="318.56425" style="stroke: #000000; stroke-width: 0.8"/>
      </g>
     </g>
     <g id="text_21">
      <!-- $\mathdefault{10^{3}}$ -->
      <g transform="translate(699.876674 336.961906)scale(0.15 -0.15)">
       <use xlink:href="#DejaVuSans-31" transform="translate(0 0.765625)"/>
       <use xlink:href="#DejaVuSans-30" transform="translate(63.623047 0.765625)"/>
       <use xlink:href="#DejaVuSans-33" transform="translate(128.203125 39.046875)scale(0.7)"/>
      </g>
     </g>
    </g>
    <g id="xtick_23">
     <g id="line2d_43">
      <g>
       <use xlink:href="#m00e623f56d" x="514.153857" y="318.56425" style="stroke: #000000; stroke-width: 0.6"/>
      </g>
     </g>
    </g>
    <g id="xtick_24">
     <g id="line2d_44">
      <g>
       <use xlink:href="#m00e623f56d" x="524.142515" y="318.56425" style="stroke: #000000; stroke-width: 0.6"/>
      </g>
     </g>
    </g>
    <g id="xtick_25">
     <g id="line2d_45">
      <g>
       <use xlink:href="#m00e623f56d" x="532.953137" y="318.56425" style="stroke: #000000; stroke-width: 0.6"/>
      </g>
     </g>
    </g>
    <g id="xtick_26">
     <g id="line2d_46">
      <g>
       <use xlink:href="#m00e623f56d" x="592.684565" y="318.56425" style="stroke: #000000; stroke-width: 0.6"/>
      </g>
     </g>
    </g>
    <g id="xtick_27">
     <g id="line2d_47">
      <g>
       <use xlink:href="#m00e623f56d" x="623.014905" y="318.56425" style="stroke: #000000; stroke-width: 0.6"/>
      </g>
     </g>
    </g>
    <g id="xtick_28">
     <g id="line2d_48">
      <g>
       <use xlink:href="#m00e623f56d" x="644.534624" y="318.56425" style="stroke: #000000; stroke-width: 0.6"/>
      </g>
     </g>
    </g>
    <g id="xtick_29">
     <g id="line2d_49">
      <g>
       <use xlink:href="#m00e623f56d" x="661.226615" y="318.56425" style="stroke: #000000; stroke-width: 0.6"/>
      </g>
     </g>
    </g>
    <g id="xtick_30">
     <g id="line2d_50">
      <g>
       <use xlink:href="#m00e623f56d" x="674.864964" y="318.56425" style="stroke: #000000; stroke-width: 0.6"/>
      </g>
     </g>
    </g>
    <g id="xtick_31">
     <g id="line2d_51">
      <g>
       <use xlink:href="#m00e623f56d" x="686.396024" y="318.56425" style="stroke: #000000; stroke-width: 0.6"/>
      </g>
     </g>
    </g>
    <g id="xtick_32">
     <g id="line2d_52">
      <g>
       <use xlink:href="#m00e623f56d" x="696.384683" y="318.56425" style="stroke: #000000; stroke-width: 0.6"/>
      </g>
     </g>
    </g>
    <g id="xtick_33">
     <g id="line2d_53">
      <g>
       <use xlink:href="#m00e623f56d" x="705.195304" y="318.56425" style="stroke: #000000; stroke-width: 0.6"/>
      </g>
     </g>
    </g>
    <g id="xtick_34">
     <g id="line2d_54">
      <g>
       <use xlink:href="#m00e623f56d" x="764.926733" y="318.56425" style="stroke: #000000; stroke-width: 0.6"/>
      </g>
     </g>
    </g>
    <g id="xtick_35">
     <g id="line2d_55">
      <g>
       <use xlink:href="#m00e623f56d" x="795.257073" y="318.56425" style="stroke: #000000; stroke-width: 0.6"/>
      </g>
     </g>
    </g>
    <g id="xtick_36">
     <g id="line2d_56">
      <g>
       <use xlink:href="#m00e623f56d" x="816.776792" y="318.56425" style="stroke: #000000; stroke-width: 0.6"/>
      </g>
     </g>
    </g>
    <g id="xtick_37">
     <g id="line2d_57">
      <g>
       <use xlink:href="#m00e623f56d" x="833.468782" y="318.56425" style="stroke: #000000; stroke-width: 0.6"/>
      </g>
     </g>
    </g>
    <g id="xtick_38">
     <g id="line2d_58">
      <g>
       <use xlink:href="#m00e623f56d" x="847.107132" y="318.56425" style="stroke: #000000; stroke-width: 0.6"/>
      </g>
     </g>
    </g>
    <g id="xtick_39">
     <g id="line2d_59">
      <g>
       <use xlink:href="#m00e623f56d" x="858.638192" y="318.56425" style="stroke: #000000; stroke-width: 0.6"/>
      </g>
     </g>
    </g>
    <g id="xtick_40">
     <g id="line2d_60">
      <g>
       <use xlink:href="#m00e623f56d" x="868.626851" y="318.56425" style="stroke: #000000; stroke-width: 0.6"/>
      </g>
     </g>
    </g>
    <g id="text_22">
     <!-- Page Count -->
     <g transform="translate(631.841356 359.278312)scale(0.2 -0.2)">
      <use xlink:href="#DejaVuSans-50"/>
      <use xlink:href="#DejaVuSans-61" x="55.802734"/>
      <use xlink:href="#DejaVuSans-67" x="117.082031"/>
      <use xlink:href="#DejaVuSans-65" x="180.558594"/>
      <use xlink:href="#DejaVuSans-20" x="242.082031"/>
      <use xlink:href="#DejaVuSans-43" x="273.869141"/>
      <use xlink:href="#DejaVuSans-6f" x="343.693359"/>
      <use xlink:href="#DejaVuSans-75" x="404.875"/>
      <use xlink:href="#DejaVuSans-6e" x="468.253906"/>
      <use xlink:href="#DejaVuSans-74" x="531.632812"/>
     </g>
    </g>
   </g>
   <g id="matplotlib.axis_4">
    <g id="ytick_7">
     <g id="line2d_61">
      <g>
       <use xlink:href="#m6f3f5b6aff" x="507.450525" y="318.56425" style="stroke: #000000; stroke-width: 0.8"/>
      </g>
     </g>
     <g id="text_23">
      <!-- 0.0 -->
      <g transform="translate(476.595837 324.263078)scale(0.15 -0.15)">
       <use xlink:href="#DejaVuSans-30"/>
       <use xlink:href="#DejaVuSans-2e" x="63.623047"/>
       <use xlink:href="#DejaVuSans-30" x="95.410156"/>
      </g>
     </g>
    </g>
    <g id="ytick_8">
     <g id="line2d_62">
      <g>
       <use xlink:href="#m6f3f5b6aff" x="507.450525" y="262.891938" style="stroke: #000000; stroke-width: 0.8"/>
      </g>
     </g>
     <g id="text_24">
      <!-- 0.2 -->
      <g transform="translate(476.595837 268.590766)scale(0.15 -0.15)">
       <use xlink:href="#DejaVuSans-30"/>
       <use xlink:href="#DejaVuSans-2e" x="63.623047"/>
       <use xlink:href="#DejaVuSans-32" x="95.410156"/>
      </g>
     </g>
    </g>
    <g id="ytick_9">
     <g id="line2d_63">
      <g>
       <use xlink:href="#m6f3f5b6aff" x="507.450525" y="207.219626" style="stroke: #000000; stroke-width: 0.8"/>
      </g>
     </g>
     <g id="text_25">
      <!-- 0.4 -->
      <g transform="translate(476.595837 212.918454)scale(0.15 -0.15)">
       <use xlink:href="#DejaVuSans-30"/>
       <use xlink:href="#DejaVuSans-2e" x="63.623047"/>
       <use xlink:href="#DejaVuSans-34" x="95.410156"/>
      </g>
     </g>
    </g>
    <g id="ytick_10">
     <g id="line2d_64">
      <g>
       <use xlink:href="#m6f3f5b6aff" x="507.450525" y="151.547314" style="stroke: #000000; stroke-width: 0.8"/>
      </g>
     </g>
     <g id="text_26">
      <!-- 0.6 -->
      <g transform="translate(476.595837 157.246142)scale(0.15 -0.15)">
       <use xlink:href="#DejaVuSans-30"/>
       <use xlink:href="#DejaVuSans-2e" x="63.623047"/>
       <use xlink:href="#DejaVuSans-36" x="95.410156"/>
      </g>
     </g>
    </g>
    <g id="ytick_11">
     <g id="line2d_65">
      <g>
       <use xlink:href="#m6f3f5b6aff" x="507.450525" y="95.875002" style="stroke: #000000; stroke-width: 0.8"/>
      </g>
     </g>
     <g id="text_27">
      <!-- 0.8 -->
      <g transform="translate(476.595837 101.573831)scale(0.15 -0.15)">
       <use xlink:href="#DejaVuSans-30"/>
       <use xlink:href="#DejaVuSans-2e" x="63.623047"/>
       <use xlink:href="#DejaVuSans-38" x="95.410156"/>
      </g>
     </g>
    </g>
    <g id="ytick_12">
     <g id="line2d_66">
      <g>
       <use xlink:href="#m6f3f5b6aff" x="507.450525" y="40.202691" style="stroke: #000000; stroke-width: 0.8"/>
      </g>
     </g>
     <g id="text_28">
      <!-- 1.0 -->
      <g transform="translate(476.595837 45.901519)scale(0.15 -0.15)">
       <use xlink:href="#DejaVuSans-31"/>
       <use xlink:href="#DejaVuSans-2e" x="63.623047"/>
       <use xlink:href="#DejaVuSans-30" x="95.410156"/>
      </g>
     </g>
    </g>
    <g id="text_29">
     <!-- Count Difference -->
     <g transform="translate(468.436462 259.57525)rotate(-90)scale(0.2 -0.2)">
      <use xlink:href="#DejaVuSans-43"/>
      <use xlink:href="#DejaVuSans-6f" x="69.824219"/>
      <use xlink:href="#DejaVuSans-75" x="131.005859"/>
      <use xlink:href="#DejaVuSans-6e" x="194.384766"/>
      <use xlink:href="#DejaVuSans-74" x="257.763672"/>
      <use xlink:href="#DejaVuSans-20" x="296.972656"/>
      <use xlink:href="#DejaVuSans-44" x="328.759766"/>
      <use xlink:href="#DejaVuSans-69" x="405.761719"/>
      <use xlink:href="#DejaVuSans-66" x="433.544922"/>
      <use xlink:href="#DejaVuSans-66" x="468.75"/>
      <use xlink:href="#DejaVuSans-65" x="503.955078"/>
      <use xlink:href="#DejaVuSans-72" x="565.478516"/>
      <use xlink:href="#DejaVuSans-65" x="604.341797"/>
      <use xlink:href="#DejaVuSans-6e" x="665.865234"/>
      <use xlink:href="#DejaVuSans-63" x="729.244141"/>
      <use xlink:href="#DejaVuSans-65" x="784.224609"/>
     </g>
    </g>
   </g>
   <g id="line2d_67">
    <g clip-path="url(#p761a10ab79)">
     <use xlink:href="#mb7e9aad44b" x="507.450525" y="318.558683" style="fill: #1f77b4; stroke: #1f77b4"/>
     <use xlink:href="#mb7e9aad44b" x="537.780865" y="318.541981" style="fill: #1f77b4; stroke: #1f77b4"/>
     <use xlink:href="#mb7e9aad44b" x="559.300584" y="318.505794" style="fill: #1f77b4; stroke: #1f77b4"/>
     <use xlink:href="#mb7e9aad44b" x="575.992574" y="318.452905" style="fill: #1f77b4; stroke: #1f77b4"/>
     <use xlink:href="#mb7e9aad44b" x="589.630924" y="272.072302" style="fill: #1f77b4; stroke: #1f77b4"/>
     <use xlink:href="#mb7e9aad44b" x="611.150643" y="214.3596" style="fill: #1f77b4; stroke: #1f77b4"/>
     <use xlink:href="#mb7e9aad44b" x="641.480983" y="156.393589" style="fill: #1f77b4; stroke: #1f77b4"/>
     <use xlink:href="#mb7e9aad44b" x="663.000702" y="127.405016" style="fill: #1f77b4; stroke: #1f77b4"/>
     <use xlink:href="#mb7e9aad44b" x="693.331042" y="98.363555" style="fill: #1f77b4; stroke: #1f77b4"/>
     <use xlink:href="#mb7e9aad44b" x="714.850761" y="83.894321" style="fill: #1f77b4; stroke: #1f77b4"/>
     <use xlink:href="#mb7e9aad44b" x="745.181101" y="69.271988" style="fill: #1f77b4; stroke: #1f77b4"/>
     <use xlink:href="#mb7e9aad44b" x="766.70082" y="62.031804" style="fill: #1f77b4; stroke: #1f77b4"/>
     <use xlink:href="#mb7e9aad44b" x="797.03116" y="54.680275" style="fill: #1f77b4; stroke: #1f77b4"/>
     <use xlink:href="#mb7e9aad44b" x="818.550879" y="50.733108" style="fill: #1f77b4; stroke: #1f77b4"/>
     <use xlink:href="#mb7e9aad44b" x="848.881219" y="46.749754" style="fill: #1f77b4; stroke: #1f77b4"/>
     <use xlink:href="#mb7e9aad44b" x="870.400937" y="45.126907" style="fill: #1f77b4; stroke: #1f77b4"/>
    </g>
   </g>
   <g id="line2d_68">
    <path d="M 507.022128 318.56425 
L 575.967433 318.56425 
L 576.767482 315.847213 
L 581.021041 300.610581 
L 585.401053 285.800653 
L 589.538724 272.584619 
L 593.777111 259.78392 
L 598.087989 247.487371 
L 602.446726 235.754276 
L 606.832089 224.619666 
L 611.225977 214.099235 
L 615.613126 204.193735 
L 619.980795 194.892751 
L 624.318464 186.177818 
L 628.617541 178.024952 
L 633.058814 170.08031 
L 637.428162 162.711367 
L 641.890263 155.617323 
L 646.415416 148.84246 
L 650.978039 142.414072 
L 655.556374 136.345863 
L 660.262569 130.483475 
L 664.935382 125.01639 
L 669.678893 119.805102 
L 674.463519 114.872965 
L 679.365313 110.136793 
L 684.344313 105.633461 
L 689.454854 101.312561 
L 694.651061 97.211679 
L 699.970921 93.298152 
L 705.366522 89.603234 
L 710.930454 86.062133 
L 716.662912 82.67906 
L 722.556023 79.461153 
L 728.595815 76.415947 
L 734.860256 73.506785 
L 741.349006 70.739621 
L 748.088852 68.108544 
L 755.082801 65.617683 
L 762.382266 63.254813 
L 770.030342 61.014405 
L 778.055772 58.897196 
L 786.493666 56.903035 
L 795.414028 55.02568 
L 804.849675 53.269047 
L 814.894896 51.627111 
L 825.644449 50.097892 
L 837.189791 48.682673 
L 849.674775 47.379144 
L 863.268221 46.186659 
L 870.405639 45.642091 
L 870.405639 45.642091 
" clip-path="url(#p761a10ab79)" style="fill: none; stroke: #1f77b4; stroke-width: 1.5; stroke-linecap: square"/>
   </g>
   <g id="line2d_69">
    <g clip-path="url(#p761a10ab79)">
     <use xlink:href="#m2b06e4dde2" x="507.450525" y="318.567034" style="fill: #ff7f0e; stroke: #ff7f0e"/>
     <use xlink:href="#m2b06e4dde2" x="537.780865" y="318.56425" style="fill: #ff7f0e; stroke: #ff7f0e"/>
     <use xlink:href="#m2b06e4dde2" x="559.300584" y="318.558683" style="fill: #ff7f0e; stroke: #ff7f0e"/>
     <use xlink:href="#m2b06e4dde2" x="575.992574" y="318.92612" style="fill: #ff7f0e; stroke: #ff7f0e"/>
     <use xlink:href="#m2b06e4dde2" x="589.630924" y="307.841763" style="fill: #ff7f0e; stroke: #ff7f0e"/>
     <use xlink:href="#m2b06e4dde2" x="611.150643" y="307.081836" style="fill: #ff7f0e; stroke: #ff7f0e"/>
     <use xlink:href="#m2b06e4dde2" x="641.480983" y="301.815235" style="fill: #ff7f0e; stroke: #ff7f0e"/>
     <use xlink:href="#m2b06e4dde2" x="663.000702" y="304.373378" style="fill: #ff7f0e; stroke: #ff7f0e"/>
     <use xlink:href="#m2b06e4dde2" x="693.331042" y="306.282938" style="fill: #ff7f0e; stroke: #ff7f0e"/>
     <use xlink:href="#m2b06e4dde2" x="714.850761" y="301.525739" style="fill: #ff7f0e; stroke: #ff7f0e"/>
     <use xlink:href="#m2b06e4dde2" x="745.181101" y="307.201531" style="fill: #ff7f0e; stroke: #ff7f0e"/>
     <use xlink:href="#m2b06e4dde2" x="766.70082" y="302.864658" style="fill: #ff7f0e; stroke: #ff7f0e"/>
     <use xlink:href="#m2b06e4dde2" x="797.03116" y="301.255728" style="fill: #ff7f0e; stroke: #ff7f0e"/>
     <use xlink:href="#m2b06e4dde2" x="818.550879" y="233.471905" style="fill: #ff7f0e; stroke: #ff7f0e"/>
     <use xlink:href="#m2b06e4dde2" x="848.881219" y="169.985984" style="fill: #ff7f0e; stroke: #ff7f0e"/>
     <use xlink:href="#m2b06e4dde2" x="870.400937" y="135.243678" style="fill: #ff7f0e; stroke: #ff7f0e"/>
    </g>
   </g>
   <g id="line2d_70">
    <path d="M 507.022128 318.56425 
L 791.752568 318.511815 
L 795.947049 303.335629 
L 800.140051 288.991916 
L 804.338679 275.412408 
L 808.547851 262.542761 
L 812.770643 250.33902 
L 817.008599 238.764858 
L 821.261997 227.789464 
L 825.530092 217.385914 
L 829.824831 207.499743 
L 834.129009 198.145254 
L 838.464163 189.252091 
L 842.823354 180.814479 
L 847.210575 172.80482 
L 851.617575 165.218353 
L 856.065198 158.001937 
L 860.550342 151.146419 
L 865.077391 144.631351 
L 869.648046 138.441592 
L 870.405639 137.451675 
L 870.405639 137.451675 
" clip-path="url(#p761a10ab79)" style="fill: none; stroke: #ff7f0e; stroke-width: 1.5; stroke-linecap: square"/>
   </g>
   <g id="line2d_71">
    <g clip-path="url(#p761a10ab79)">
     <use xlink:href="#m4df8316420" x="507.450525" y="318.569817" style="fill: #2ca02c; stroke: #2ca02c"/>
     <use xlink:href="#m4df8316420" x="537.780865" y="318.56425" style="fill: #2ca02c; stroke: #2ca02c"/>
     <use xlink:href="#m4df8316420" x="559.300584" y="318.550332" style="fill: #2ca02c; stroke: #2ca02c"/>
     <use xlink:href="#m4df8316420" x="575.992574" y="318.940038" style="fill: #2ca02c; stroke: #2ca02c"/>
     <use xlink:href="#m4df8316420" x="589.630924" y="308.348381" style="fill: #2ca02c; stroke: #2ca02c"/>
     <use xlink:href="#m4df8316420" x="611.150643" y="303.020541" style="fill: #2ca02c; stroke: #2ca02c"/>
     <use xlink:href="#m4df8316420" x="641.480983" y="311.407574" style="fill: #2ca02c; stroke: #2ca02c"/>
     <use xlink:href="#m4df8316420" x="663.000702" y="305.461771" style="fill: #2ca02c; stroke: #2ca02c"/>
     <use xlink:href="#m4df8316420" x="693.331042" y="308.456942" style="fill: #2ca02c; stroke: #2ca02c"/>
     <use xlink:href="#m4df8316420" x="714.850761" y="308.228685" style="fill: #2ca02c; stroke: #2ca02c"/>
     <use xlink:href="#m4df8316420" x="745.181101" y="304.996908" style="fill: #2ca02c; stroke: #2ca02c"/>
     <use xlink:href="#m4df8316420" x="766.70082" y="302.383093" style="fill: #2ca02c; stroke: #2ca02c"/>
     <use xlink:href="#m4df8316420" x="797.03116" y="301.798533" style="fill: #2ca02c; stroke: #2ca02c"/>
     <use xlink:href="#m4df8316420" x="818.550879" y="233.530361" style="fill: #2ca02c; stroke: #2ca02c"/>
     <use xlink:href="#m4df8316420" x="848.881219" y="164.928155" style="fill: #2ca02c; stroke: #2ca02c"/>
     <use xlink:href="#m4df8316420" x="870.400937" y="134.105179" style="fill: #2ca02c; stroke: #2ca02c"/>
    </g>
   </g>
   <g id="line2d_72">
    <path d="M 507.022128 318.56425 
L 791.414751 318.463896 
L 795.606353 303.300447 
L 799.797791 288.963855 
L 803.996066 275.386989 
L 808.205993 262.516489 
L 812.430547 250.309238 
L 816.671173 238.729631 
L 820.928051 227.747461 
L 825.200338 217.336313 
L 829.486382 207.472351 
L 833.796718 198.106395 
L 838.126448 189.226226 
L 842.481992 180.796933 
L 846.867192 172.791855 
L 851.283742 165.190172 
L 855.731571 157.975058 
L 860.218179 151.118933 
L 864.739371 144.613655 
L 869.306203 138.429963 
L 870.405639 136.996816 
L 870.405639 136.996816 
" clip-path="url(#p761a10ab79)" style="fill: none; stroke: #2ca02c; stroke-width: 1.5; stroke-linecap: square"/>
   </g>
   <g id="line2d_73">
    <g clip-path="url(#p761a10ab79)">
     <use xlink:href="#m941512fc49" x="507.450525" y="318.558683" style="fill: #d62728; stroke: #d62728"/>
     <use xlink:href="#m941512fc49" x="537.780865" y="318.541981" style="fill: #d62728; stroke: #d62728"/>
     <use xlink:href="#m941512fc49" x="559.300584" y="318.483525" style="fill: #d62728; stroke: #d62728"/>
     <use xlink:href="#m941512fc49" x="575.992574" y="318.388882" style="fill: #d62728; stroke: #d62728"/>
     <use xlink:href="#m941512fc49" x="589.630924" y="271.874666" style="fill: #d62728; stroke: #d62728"/>
     <use xlink:href="#m941512fc49" x="611.150643" y="214.050619" style="fill: #d62728; stroke: #d62728"/>
     <use xlink:href="#m941512fc49" x="641.480983" y="156.148631" style="fill: #d62728; stroke: #d62728"/>
     <use xlink:href="#m941512fc49" x="663.000702" y="127.104386" style="fill: #d62728; stroke: #d62728"/>
     <use xlink:href="#m941512fc49" x="693.331042" y="98.227158" style="fill: #d62728; stroke: #d62728"/>
     <use xlink:href="#m941512fc49" x="714.850761" y="83.710602" style="fill: #d62728; stroke: #d62728"/>
     <use xlink:href="#m941512fc49" x="745.181101" y="69.205181" style="fill: #d62728; stroke: #d62728"/>
     <use xlink:href="#m941512fc49" x="766.70082" y="61.942728" style="fill: #d62728; stroke: #d62728"/>
     <use xlink:href="#m941512fc49" x="797.03116" y="54.666357" style="fill: #d62728; stroke: #d62728"/>
     <use xlink:href="#m941512fc49" x="818.550879" y="51.103329" style="fill: #d62728; stroke: #d62728"/>
     <use xlink:href="#m941512fc49" x="848.881219" y="47.46236" style="fill: #d62728; stroke: #d62728"/>
     <use xlink:href="#m941512fc49" x="870.400937" y="45.658577" style="fill: #d62728; stroke: #d62728"/>
    </g>
   </g>
   <g id="line2d_74">
    <path d="M 507.022128 318.56425 
L 575.564177 318.56425 
L 575.967433 318.4387 
L 580.265441 302.902679 
L 584.329858 289.009892 
L 588.525564 275.43859 
L 592.82012 262.31384 
L 597.184914 249.724544 
L 601.309004 238.485824 
L 605.489076 227.709567 
L 609.704491 217.435217 
L 613.93745 207.684561 
L 618.17276 198.465375 
L 622.61346 189.343606 
L 627.008795 180.832848 
L 631.352189 172.899864 
L 635.819416 165.207275 
L 640.205421 158.088563 
L 644.670179 151.258265 
L 649.186245 144.751979 
L 653.730087 138.590329 
L 658.415467 132.616794 
L 663.076036 127.034734 
L 667.817426 121.701742 
L 672.608332 116.645671 
L 677.525782 111.782079 
L 682.527901 107.152106 
L 687.579078 102.78056 
L 692.733978 98.61341 
L 698.029872 94.62109 
L 703.41595 90.840555 
L 708.917673 87.24987 
L 714.548615 83.838355 
L 720.370975 80.570786 
L 726.367452 77.461076 
L 732.565929 74.498183 
L 738.975504 71.681947 
L 745.63202 69.001743 
L 752.54557 66.459361 
L 759.740661 64.051491 
L 767.276516 61.765981 
L 775.167235 59.607227 
L 783.468145 57.569099 
L 792.20063 55.655631 
L 801.454179 53.857545 
L 811.279829 52.176753 
L 821.775181 50.609266 
L 833.037151 49.154757 
L 845.181247 47.813264 
L 858.378275 46.582362 
L 870.405639 45.63482 
L 870.405639 45.63482 
" clip-path="url(#p761a10ab79)" style="fill: none; stroke: #d62728; stroke-width: 1.5; stroke-linecap: square"/>
   </g>
   <g id="line2d_75">
    <path d="M 575.992574 318.56425 
L 575.992574 31.43625 
" clip-path="url(#p761a10ab79)" style="fill: none; stroke: #ff0000; stroke-width: 1.5; stroke-linecap: square"/>
   </g>
   <g id="line2d_76">
    <path d="M 797.03116 318.56425 
L 797.03116 31.43625 
" clip-path="url(#p761a10ab79)" style="fill: none; stroke: #008000; stroke-width: 1.5; stroke-linecap: square"/>
   </g>
   <g id="patch_9">
    <path d="M 507.450525 318.56425 
L 507.450525 31.43625 
" style="fill: none; stroke: #000000; stroke-width: 0.8; stroke-linejoin: miter; stroke-linecap: square"/>
   </g>
   <g id="patch_10">
    <path d="M 870.400937 318.56425 
L 870.400937 31.43625 
" style="fill: none; stroke: #000000; stroke-width: 0.8; stroke-linejoin: miter; stroke-linecap: square"/>
   </g>
   <g id="patch_11">
    <path d="M 507.450525 318.56425 
L 870.400937 318.56425 
" style="fill: none; stroke: #000000; stroke-width: 0.8; stroke-linejoin: miter; stroke-linecap: square"/>
   </g>
   <g id="patch_12">
    <path d="M 507.450525 31.43625 
L 870.400937 31.43625 
" style="fill: none; stroke: #000000; stroke-width: 0.8; stroke-linejoin: miter; stroke-linecap: square"/>
   </g>
   <g id="text_30">
    <!-- TLB_L1=160.09(12) -->
    <g style="fill: #1f77b4" transform="translate(592.684565 235.055782)scale(0.1 -0.1)">
     <use xlink:href="#DejaVuSans-54"/>
     <use xlink:href="#DejaVuSans-4c" x="61.083984"/>
     <use xlink:href="#DejaVuSans-42" x="116.796875"/>
     <use xlink:href="#DejaVuSans-5f" x="185.400391"/>
     <use xlink:href="#DejaVuSans-4c" x="235.400391"/>
     <use xlink:href="#DejaVuSans-31" x="291.113281"/>
     <use xlink:href="#DejaVuSans-3d" x="354.736328"/>
     <use xlink:href="#DejaVuSans-31" x="438.525391"/>
     <use xlink:href="#DejaVuSans-36" x="502.148438"/>
     <use xlink:href="#DejaVuSans-30" x="565.771484"/>
     <use xlink:href="#DejaVuSans-2e" x="629.394531"/>
     <use xlink:href="#DejaVuSans-30" x="661.181641"/>
     <use xlink:href="#DejaVuSans-39" x="724.804688"/>
     <use xlink:href="#DejaVuSans-28" x="788.427734"/>
     <use xlink:href="#DejaVuSans-31" x="827.441406"/>
     <use xlink:href="#DejaVuSans-32" x="891.064453"/>
     <use xlink:href="#DejaVuSans-29" x="954.6875"/>
    </g>
   </g>
   <g id="text_31">
    <!-- TLB_L1=159.874(18) -->
    <g style="fill: #d62728" transform="translate(592.684565 262.891938)scale(0.1 -0.1)">
     <use xlink:href="#DejaVuSans-54"/>
     <use xlink:href="#DejaVuSans-4c" x="61.083984"/>
     <use xlink:href="#DejaVuSans-42" x="116.796875"/>
     <use xlink:href="#DejaVuSans-5f" x="185.400391"/>
     <use xlink:href="#DejaVuSans-4c" x="235.400391"/>
     <use xlink:href="#DejaVuSans-31" x="291.113281"/>
     <use xlink:href="#DejaVuSans-3d" x="354.736328"/>
     <use xlink:href="#DejaVuSans-31" x="438.525391"/>
     <use xlink:href="#DejaVuSans-35" x="502.148438"/>
     <use xlink:href="#DejaVuSans-39" x="565.771484"/>
     <use xlink:href="#DejaVuSans-2e" x="629.394531"/>
     <use xlink:href="#DejaVuSans-38" x="661.181641"/>
     <use xlink:href="#DejaVuSans-37" x="724.804688"/>
     <use xlink:href="#DejaVuSans-34" x="788.427734"/>
     <use xlink:href="#DejaVuSans-28" x="852.050781"/>
     <use xlink:href="#DejaVuSans-31" x="891.064453"/>
     <use xlink:href="#DejaVuSans-38" x="954.6875"/>
     <use xlink:href="#DejaVuSans-29" x="1018.310547"/>
    </g>
   </g>
   <g id="text_32">
    <!-- TLB_L2=2862(80) -->
    <g style="fill: #ff7f0e" transform="translate(757.045363 262.891938)scale(0.1 -0.1)">
     <use xlink:href="#DejaVuSans-54"/>
     <use xlink:href="#DejaVuSans-4c" x="61.083984"/>
     <use xlink:href="#DejaVuSans-42" x="116.796875"/>
     <use xlink:href="#DejaVuSans-5f" x="185.400391"/>
     <use xlink:href="#DejaVuSans-4c" x="235.400391"/>
     <use xlink:href="#DejaVuSans-32" x="291.113281"/>
     <use xlink:href="#DejaVuSans-3d" x="354.736328"/>
     <use xlink:href="#DejaVuSans-32" x="438.525391"/>
     <use xlink:href="#DejaVuSans-38" x="502.148438"/>
     <use xlink:href="#DejaVuSans-36" x="565.771484"/>
     <use xlink:href="#DejaVuSans-32" x="629.394531"/>
     <use xlink:href="#DejaVuSans-28" x="693.017578"/>
     <use xlink:href="#DejaVuSans-38" x="732.03125"/>
     <use xlink:href="#DejaVuSans-30" x="795.654297"/>
     <use xlink:href="#DejaVuSans-29" x="859.277344"/>
    </g>
   </g>
   <g id="text_33">
    <!-- TLB_L2=2849(72) -->
    <g style="fill: #2ca02c" transform="translate(757.045363 235.055782)scale(0.1 -0.1)">
     <use xlink:href="#DejaVuSans-54"/>
     <use xlink:href="#DejaVuSans-4c" x="61.083984"/>
     <use xlink:href="#DejaVuSans-42" x="116.796875"/>
     <use xlink:href="#DejaVuSans-5f" x="185.400391"/>
     <use xlink:href="#DejaVuSans-4c" x="235.400391"/>
     <use xlink:href="#DejaVuSans-32" x="291.113281"/>
     <use xlink:href="#DejaVuSans-3d" x="354.736328"/>
     <use xlink:href="#DejaVuSans-32" x="438.525391"/>
     <use xlink:href="#DejaVuSans-38" x="502.148438"/>
     <use xlink:href="#DejaVuSans-34" x="565.771484"/>
     <use xlink:href="#DejaVuSans-39" x="629.394531"/>
     <use xlink:href="#DejaVuSans-28" x="693.017578"/>
     <use xlink:href="#DejaVuSans-37" x="732.03125"/>
     <use xlink:href="#DejaVuSans-32" x="795.654297"/>
     <use xlink:href="#DejaVuSans-29" x="859.277344"/>
    </g>
   </g>
   <g id="text_34">
    <!-- Fire Storm (Load) -->
    <g transform="translate(585.654481 25.43625)scale(0.24 -0.24)">
     <defs>
      <path id="DejaVuSans-46" d="M 628 4666 
L 3309 4666 
L 3309 4134 
L 1259 4134 
L 1259 2759 
L 3109 2759 
L 3109 2228 
L 1259 2228 
L 1259 0 
L 628 0 
L 628 4666 
z
" transform="scale(0.015625)"/>
     </defs>
     <use xlink:href="#DejaVuSans-46"/>
     <use xlink:href="#DejaVuSans-69" x="50.269531"/>
     <use xlink:href="#DejaVuSans-72" x="78.052734"/>
     <use xlink:href="#DejaVuSans-65" x="116.916016"/>
     <use xlink:href="#DejaVuSans-20" x="178.439453"/>
     <use xlink:href="#DejaVuSans-53" x="210.226562"/>
     <use xlink:href="#DejaVuSans-74" x="273.703125"/>
     <use xlink:href="#DejaVuSans-6f" x="312.912109"/>
     <use xlink:href="#DejaVuSans-72" x="374.09375"/>
     <use xlink:href="#DejaVuSans-6d" x="413.457031"/>
     <use xlink:href="#DejaVuSans-20" x="510.869141"/>
     <use xlink:href="#DejaVuSans-28" x="542.65625"/>
     <use xlink:href="#DejaVuSans-4c" x="581.669922"/>
     <use xlink:href="#DejaVuSans-6f" x="635.632812"/>
     <use xlink:href="#DejaVuSans-61" x="696.814453"/>
     <use xlink:href="#DejaVuSans-64" x="758.09375"/>
     <use xlink:href="#DejaVuSans-29" x="821.570312"/>
    </g>
   </g>
   <g id="legend_2">
    <g id="patch_13">
     <path d="M 600.710731 49.57875 
L 777.140731 49.57875 
Q 778.740731 49.57875 778.740731 47.97875 
L 778.740731 37.03625 
Q 778.740731 35.43625 777.140731 35.43625 
L 600.710731 35.43625 
Q 599.110731 35.43625 599.110731 37.03625 
L 599.110731 47.97875 
Q 599.110731 49.57875 600.710731 49.57875 
z
" style="fill: #ffffff; opacity: 0.8; stroke: #cccccc; stroke-linejoin: miter"/>
    </g>
    <g id="line2d_77">
     <g>
      <use xlink:href="#mb7e9aad44b" x="610.310731" y="41.915" style="fill: #1f77b4; stroke: #1f77b4"/>
     </g>
    </g>
    <g id="text_35">
     <!-- 5 -->
     <g transform="translate(624.710731 44.715)scale(0.08 -0.08)">
      <use xlink:href="#DejaVuSans-35"/>
     </g>
    </g>
    <g id="line2d_78">
     <g>
      <use xlink:href="#m2b06e4dde2" x="653.800731" y="41.915" style="fill: #ff7f0e; stroke: #ff7f0e"/>
     </g>
    </g>
    <g id="text_36">
     <!-- 8 -->
     <g transform="translate(668.200731 44.715)scale(0.08 -0.08)">
      <use xlink:href="#DejaVuSans-38"/>
     </g>
    </g>
    <g id="line2d_79">
     <g>
      <use xlink:href="#m4df8316420" x="697.290731" y="41.915" style="fill: #2ca02c; stroke: #2ca02c"/>
     </g>
    </g>
    <g id="text_37">
     <!-- 11 -->
     <g transform="translate(711.690731 44.715)scale(0.08 -0.08)">
      <use xlink:href="#DejaVuSans-31"/>
      <use xlink:href="#DejaVuSans-31" x="63.623047"/>
     </g>
    </g>
    <g id="line2d_80">
     <g>
      <use xlink:href="#m941512fc49" x="745.870731" y="41.915" style="fill: #d62728; stroke: #d62728"/>
     </g>
    </g>
    <g id="text_38">
     <!-- 193 -->
     <g transform="translate(760.270731 44.715)scale(0.08 -0.08)">
      <use xlink:href="#DejaVuSans-31"/>
      <use xlink:href="#DejaVuSans-39" x="63.623047"/>
      <use xlink:href="#DejaVuSans-33" x="127.246094"/>
     </g>
    </g>
   </g>
  </g>
 </g>
 <defs>
  <clipPath id="p552ee41c08">
   <rect x="61.410938" y="31.43625" width="362.950413" height="287.128"/>
  </clipPath>
  <clipPath id="p761a10ab79">
   <rect x="507.450525" y="31.43625" width="362.950413" height="287.128"/>
  </clipPath>
 </defs>
</svg>
