<?xml version="1.0" encoding="utf-8" standalone="no"?>
<!DOCTYPE svg PUBLIC "-//W3C//DTD SVG 1.1//EN"
  "http://www.w3.org/Graphics/SVG/1.1/DTD/svg11.dtd">
<svg xmlns:xlink="http://www.w3.org/1999/xlink" width="877.60375pt" height="370.637687pt" viewBox="0 0 877.60375 370.637687" xmlns="http://www.w3.org/2000/svg" version="1.1">
 <defs>
  <style type="text/css">*{stroke-linejoin: round; stroke-linecap: butt}</style>
 </defs>
 <g id="figure_1">
  <g id="patch_1">
   <path d="M 0 370.637687 
L 877.60375 370.637687 
L 877.60375 0 
L 0 0 
L 0 370.637687 
z
" style="fill: none"/>
  </g>
  <g id="axes_1">
   <g id="patch_2">
    <path d="M 56.64375 318.56425 
L 427.60375 318.56425 
L 427.60375 31.43625 
L 56.64375 31.43625 
L 56.64375 318.56425 
z
" style="fill: none"/>
   </g>
   <g id="matplotlib.axis_1">
    <g id="xtick_1">
     <g id="line2d_1">
      <defs>
       <path id="md39032bed2" d="M 0 0 
L 0 3.5 
" style="stroke: #000000; stroke-width: 0.8"/>
      </defs>
      <g>
       <use xlink:href="#md39032bed2" x="90.764449" y="318.56425" style="stroke: #000000; stroke-width: 0.8"/>
      </g>
     </g>
     <g id="text_1">
      <!-- $\mathdefault{10^{2}}$ -->
      <g transform="translate(77.564449 336.961906)scale(0.15 -0.15)">
       <defs>
        <path id="DejaVuSans-31" d="M 794 531 
L 1825 531 
L 1825 4091 
L 703 3866 
L 703 4441 
L 1819 4666 
L 2450 4666 
L 2450 531 
L 3481 531 
L 3481 0 
L 794 0 
L 794 531 
z
" transform="scale(0.015625)"/>
        <path id="DejaVuSans-30" d="M 2034 4250 
Q 1547 4250 1301 3770 
Q 1056 3291 1056 2328 
Q 1056 1369 1301 889 
Q 1547 409 2034 409 
Q 2525 409 2770 889 
Q 3016 1369 3016 2328 
Q 3016 3291 2770 3770 
Q 2525 4250 2034 4250 
z
M 2034 4750 
Q 2819 4750 3233 4129 
Q 3647 3509 3647 2328 
Q 3647 1150 3233 529 
Q 2819 -91 2034 -91 
Q 1250 -91 836 529 
Q 422 1150 422 2328 
Q 422 3509 836 4129 
Q 1250 4750 2034 4750 
z
" transform="scale(0.015625)"/>
        <path id="DejaVuSans-32" d="M 1228 531 
L 3431 531 
L 3431 0 
L 469 0 
L 469 531 
Q 828 903 1448 1529 
Q 2069 2156 2228 2338 
Q 2531 2678 2651 2914 
Q 2772 3150 2772 3378 
Q 2772 3750 2511 3984 
Q 2250 4219 1831 4219 
Q 1534 4219 1204 4116 
Q 875 4013 500 3803 
L 500 4441 
Q 881 4594 1212 4672 
Q 1544 4750 1819 4750 
Q 2544 4750 2975 4387 
Q 3406 4025 3406 3419 
Q 3406 3131 3298 2873 
Q 3191 2616 2906 2266 
Q 2828 2175 2409 1742 
Q 1991 1309 1228 531 
z
" transform="scale(0.015625)"/>
       </defs>
       <use xlink:href="#DejaVuSans-31" transform="translate(0 0.765625)"/>
       <use xlink:href="#DejaVuSans-30" transform="translate(63.623047 0.765625)"/>
       <use xlink:href="#DejaVuSans-32" transform="translate(128.203125 39.046875)scale(0.7)"/>
      </g>
     </g>
    </g>
    <g id="xtick_2">
     <g id="line2d_2">
      <g>
       <use xlink:href="#md39032bed2" x="266.807655" y="318.56425" style="stroke: #000000; stroke-width: 0.8"/>
      </g>
     </g>
     <g id="text_2">
      <!-- $\mathdefault{10^{3}}$ -->
      <g transform="translate(253.607655 336.961906)scale(0.15 -0.15)">
       <defs>
        <path id="DejaVuSans-33" d="M 2597 2516 
Q 3050 2419 3304 2112 
Q 3559 1806 3559 1356 
Q 3559 666 3084 287 
Q 2609 -91 1734 -91 
Q 1441 -91 1130 -33 
Q 819 25 488 141 
L 488 750 
Q 750 597 1062 519 
Q 1375 441 1716 441 
Q 2309 441 2620 675 
Q 2931 909 2931 1356 
Q 2931 1769 2642 2001 
Q 2353 2234 1838 2234 
L 1294 2234 
L 1294 2753 
L 1863 2753 
Q 2328 2753 2575 2939 
Q 2822 3125 2822 3475 
Q 2822 3834 2567 4026 
Q 2313 4219 1838 4219 
Q 1578 4219 1281 4162 
Q 984 4106 628 3988 
L 628 4550 
Q 988 4650 1302 4700 
Q 1616 4750 1894 4750 
Q 2613 4750 3031 4423 
Q 3450 4097 3450 3541 
Q 3450 3153 3228 2886 
Q 3006 2619 2597 2516 
z
" transform="scale(0.015625)"/>
       </defs>
       <use xlink:href="#DejaVuSans-31" transform="translate(0 0.765625)"/>
       <use xlink:href="#DejaVuSans-30" transform="translate(63.623047 0.765625)"/>
       <use xlink:href="#DejaVuSans-33" transform="translate(128.203125 39.046875)scale(0.7)"/>
      </g>
     </g>
    </g>
    <g id="xtick_3">
     <g id="line2d_3">
      <defs>
       <path id="m00e623f56d" d="M 0 0 
L 0 2 
" style="stroke: #000000; stroke-width: 0.6"/>
      </defs>
      <g>
       <use xlink:href="#m00e623f56d" x="63.495011" y="318.56425" style="stroke: #000000; stroke-width: 0.6"/>
      </g>
     </g>
    </g>
    <g id="xtick_4">
     <g id="line2d_4">
      <g>
       <use xlink:href="#m00e623f56d" x="73.704099" y="318.56425" style="stroke: #000000; stroke-width: 0.6"/>
      </g>
     </g>
    </g>
    <g id="xtick_5">
     <g id="line2d_5">
      <g>
       <use xlink:href="#m00e623f56d" x="82.709154" y="318.56425" style="stroke: #000000; stroke-width: 0.6"/>
      </g>
     </g>
    </g>
    <g id="xtick_6">
     <g id="line2d_6">
      <g>
       <use xlink:href="#m00e623f56d" x="143.758735" y="318.56425" style="stroke: #000000; stroke-width: 0.6"/>
      </g>
     </g>
    </g>
    <g id="xtick_7">
     <g id="line2d_7">
      <g>
       <use xlink:href="#m00e623f56d" x="174.758404" y="318.56425" style="stroke: #000000; stroke-width: 0.6"/>
      </g>
     </g>
    </g>
    <g id="xtick_8">
     <g id="line2d_8">
      <g>
       <use xlink:href="#m00e623f56d" x="196.75302" y="318.56425" style="stroke: #000000; stroke-width: 0.6"/>
      </g>
     </g>
    </g>
    <g id="xtick_9">
     <g id="line2d_9">
      <g>
       <use xlink:href="#m00e623f56d" x="213.81337" y="318.56425" style="stroke: #000000; stroke-width: 0.6"/>
      </g>
     </g>
    </g>
    <g id="xtick_10">
     <g id="line2d_10">
      <g>
       <use xlink:href="#m00e623f56d" x="227.75269" y="318.56425" style="stroke: #000000; stroke-width: 0.6"/>
      </g>
     </g>
    </g>
    <g id="xtick_11">
     <g id="line2d_11">
      <g>
       <use xlink:href="#m00e623f56d" x="239.538218" y="318.56425" style="stroke: #000000; stroke-width: 0.6"/>
      </g>
     </g>
    </g>
    <g id="xtick_12">
     <g id="line2d_12">
      <g>
       <use xlink:href="#m00e623f56d" x="249.747306" y="318.56425" style="stroke: #000000; stroke-width: 0.6"/>
      </g>
     </g>
    </g>
    <g id="xtick_13">
     <g id="line2d_13">
      <g>
       <use xlink:href="#m00e623f56d" x="258.75236" y="318.56425" style="stroke: #000000; stroke-width: 0.6"/>
      </g>
     </g>
    </g>
    <g id="xtick_14">
     <g id="line2d_14">
      <g>
       <use xlink:href="#m00e623f56d" x="319.801941" y="318.56425" style="stroke: #000000; stroke-width: 0.6"/>
      </g>
     </g>
    </g>
    <g id="xtick_15">
     <g id="line2d_15">
      <g>
       <use xlink:href="#m00e623f56d" x="350.801611" y="318.56425" style="stroke: #000000; stroke-width: 0.6"/>
      </g>
     </g>
    </g>
    <g id="xtick_16">
     <g id="line2d_16">
      <g>
       <use xlink:href="#m00e623f56d" x="372.796227" y="318.56425" style="stroke: #000000; stroke-width: 0.6"/>
      </g>
     </g>
    </g>
    <g id="xtick_17">
     <g id="line2d_17">
      <g>
       <use xlink:href="#m00e623f56d" x="389.856576" y="318.56425" style="stroke: #000000; stroke-width: 0.6"/>
      </g>
     </g>
    </g>
    <g id="xtick_18">
     <g id="line2d_18">
      <g>
       <use xlink:href="#m00e623f56d" x="403.795897" y="318.56425" style="stroke: #000000; stroke-width: 0.6"/>
      </g>
     </g>
    </g>
    <g id="xtick_19">
     <g id="line2d_19">
      <g>
       <use xlink:href="#m00e623f56d" x="415.581424" y="318.56425" style="stroke: #000000; stroke-width: 0.6"/>
      </g>
     </g>
    </g>
    <g id="xtick_20">
     <g id="line2d_20">
      <g>
       <use xlink:href="#m00e623f56d" x="425.790513" y="318.56425" style="stroke: #000000; stroke-width: 0.6"/>
      </g>
     </g>
    </g>
    <g id="text_3">
     <!-- Pages -->
     <g transform="translate(212.705 359.278312)scale(0.2 -0.2)">
      <defs>
       <path id="DejaVuSans-50" d="M 1259 4147 
L 1259 2394 
L 2053 2394 
Q 2494 2394 2734 2622 
Q 2975 2850 2975 3272 
Q 2975 3691 2734 3919 
Q 2494 4147 2053 4147 
L 1259 4147 
z
M 628 4666 
L 2053 4666 
Q 2838 4666 3239 4311 
Q 3641 3956 3641 3272 
Q 3641 2581 3239 2228 
Q 2838 1875 2053 1875 
L 1259 1875 
L 1259 0 
L 628 0 
L 628 4666 
z
" transform="scale(0.015625)"/>
       <path id="DejaVuSans-61" d="M 2194 1759 
Q 1497 1759 1228 1600 
Q 959 1441 959 1056 
Q 959 750 1161 570 
Q 1363 391 1709 391 
Q 2188 391 2477 730 
Q 2766 1069 2766 1631 
L 2766 1759 
L 2194 1759 
z
M 3341 1997 
L 3341 0 
L 2766 0 
L 2766 531 
Q 2569 213 2275 61 
Q 1981 -91 1556 -91 
Q 1019 -91 701 211 
Q 384 513 384 1019 
Q 384 1609 779 1909 
Q 1175 2209 1959 2209 
L 2766 2209 
L 2766 2266 
Q 2766 2663 2505 2880 
Q 2244 3097 1772 3097 
Q 1472 3097 1187 3025 
Q 903 2953 641 2809 
L 641 3341 
Q 956 3463 1253 3523 
Q 1550 3584 1831 3584 
Q 2591 3584 2966 3190 
Q 3341 2797 3341 1997 
z
" transform="scale(0.015625)"/>
       <path id="DejaVuSans-67" d="M 2906 1791 
Q 2906 2416 2648 2759 
Q 2391 3103 1925 3103 
Q 1463 3103 1205 2759 
Q 947 2416 947 1791 
Q 947 1169 1205 825 
Q 1463 481 1925 481 
Q 2391 481 2648 825 
Q 2906 1169 2906 1791 
z
M 3481 434 
Q 3481 -459 3084 -895 
Q 2688 -1331 1869 -1331 
Q 1566 -1331 1297 -1286 
Q 1028 -1241 775 -1147 
L 775 -588 
Q 1028 -725 1275 -790 
Q 1522 -856 1778 -856 
Q 2344 -856 2625 -561 
Q 2906 -266 2906 331 
L 2906 616 
Q 2728 306 2450 153 
Q 2172 0 1784 0 
Q 1141 0 747 490 
Q 353 981 353 1791 
Q 353 2603 747 3093 
Q 1141 3584 1784 3584 
Q 2172 3584 2450 3431 
Q 2728 3278 2906 2969 
L 2906 3500 
L 3481 3500 
L 3481 434 
z
" transform="scale(0.015625)"/>
       <path id="DejaVuSans-65" d="M 3597 1894 
L 3597 1613 
L 953 1613 
Q 991 1019 1311 708 
Q 1631 397 2203 397 
Q 2534 397 2845 478 
Q 3156 559 3463 722 
L 3463 178 
Q 3153 47 2828 -22 
Q 2503 -91 2169 -91 
Q 1331 -91 842 396 
Q 353 884 353 1716 
Q 353 2575 817 3079 
Q 1281 3584 2069 3584 
Q 2775 3584 3186 3129 
Q 3597 2675 3597 1894 
z
M 3022 2063 
Q 3016 2534 2758 2815 
Q 2500 3097 2075 3097 
Q 1594 3097 1305 2825 
Q 1016 2553 972 2059 
L 3022 2063 
z
" transform="scale(0.015625)"/>
       <path id="DejaVuSans-73" d="M 2834 3397 
L 2834 2853 
Q 2591 2978 2328 3040 
Q 2066 3103 1784 3103 
Q 1356 3103 1142 2972 
Q 928 2841 928 2578 
Q 928 2378 1081 2264 
Q 1234 2150 1697 2047 
L 1894 2003 
Q 2506 1872 2764 1633 
Q 3022 1394 3022 966 
Q 3022 478 2636 193 
Q 2250 -91 1575 -91 
Q 1294 -91 989 -36 
Q 684 19 347 128 
L 347 722 
Q 666 556 975 473 
Q 1284 391 1588 391 
Q 1994 391 2212 530 
Q 2431 669 2431 922 
Q 2431 1156 2273 1281 
Q 2116 1406 1581 1522 
L 1381 1569 
Q 847 1681 609 1914 
Q 372 2147 372 2553 
Q 372 3047 722 3315 
Q 1072 3584 1716 3584 
Q 2034 3584 2315 3537 
Q 2597 3491 2834 3397 
z
" transform="scale(0.015625)"/>
      </defs>
      <use xlink:href="#DejaVuSans-50"/>
      <use xlink:href="#DejaVuSans-61" x="55.802734"/>
      <use xlink:href="#DejaVuSans-67" x="117.082031"/>
      <use xlink:href="#DejaVuSans-65" x="180.558594"/>
      <use xlink:href="#DejaVuSans-73" x="242.082031"/>
     </g>
    </g>
   </g>
   <g id="matplotlib.axis_2">
    <g id="ytick_1">
     <g id="line2d_21">
      <defs>
       <path id="m6f3f5b6aff" d="M 0 0 
L -3.5 0 
" style="stroke: #000000; stroke-width: 0.8"/>
      </defs>
      <g>
       <use xlink:href="#m6f3f5b6aff" x="56.64375" y="305.324123" style="stroke: #000000; stroke-width: 0.8"/>
      </g>
     </g>
     <g id="text_4">
      <!-- 0 -->
      <g transform="translate(40.1 311.022951)scale(0.15 -0.15)">
       <use xlink:href="#DejaVuSans-30"/>
      </g>
     </g>
    </g>
    <g id="ytick_2">
     <g id="line2d_22">
      <g>
       <use xlink:href="#m6f3f5b6aff" x="56.64375" y="271.720105" style="stroke: #000000; stroke-width: 0.8"/>
      </g>
     </g>
     <g id="text_5">
      <!-- 5 -->
      <g transform="translate(40.1 277.418934)scale(0.15 -0.15)">
       <defs>
        <path id="DejaVuSans-35" d="M 691 4666 
L 3169 4666 
L 3169 4134 
L 1269 4134 
L 1269 2991 
Q 1406 3038 1543 3061 
Q 1681 3084 1819 3084 
Q 2600 3084 3056 2656 
Q 3513 2228 3513 1497 
Q 3513 744 3044 326 
Q 2575 -91 1722 -91 
Q 1428 -91 1123 -41 
Q 819 9 494 109 
L 494 744 
Q 775 591 1075 516 
Q 1375 441 1709 441 
Q 2250 441 2565 725 
Q 2881 1009 2881 1497 
Q 2881 1984 2565 2268 
Q 2250 2553 1709 2553 
Q 1456 2553 1204 2497 
Q 953 2441 691 2322 
L 691 4666 
z
" transform="scale(0.015625)"/>
       </defs>
       <use xlink:href="#DejaVuSans-35"/>
      </g>
     </g>
    </g>
    <g id="ytick_3">
     <g id="line2d_23">
      <g>
       <use xlink:href="#m6f3f5b6aff" x="56.64375" y="238.116088" style="stroke: #000000; stroke-width: 0.8"/>
      </g>
     </g>
     <g id="text_6">
      <!-- 10 -->
      <g transform="translate(30.55625 243.814916)scale(0.15 -0.15)">
       <use xlink:href="#DejaVuSans-31"/>
       <use xlink:href="#DejaVuSans-30" x="63.623047"/>
      </g>
     </g>
    </g>
    <g id="ytick_4">
     <g id="line2d_24">
      <g>
       <use xlink:href="#m6f3f5b6aff" x="56.64375" y="204.512071" style="stroke: #000000; stroke-width: 0.8"/>
      </g>
     </g>
     <g id="text_7">
      <!-- 15 -->
      <g transform="translate(30.55625 210.210899)scale(0.15 -0.15)">
       <use xlink:href="#DejaVuSans-31"/>
       <use xlink:href="#DejaVuSans-35" x="63.623047"/>
      </g>
     </g>
    </g>
    <g id="ytick_5">
     <g id="line2d_25">
      <g>
       <use xlink:href="#m6f3f5b6aff" x="56.64375" y="170.908054" style="stroke: #000000; stroke-width: 0.8"/>
      </g>
     </g>
     <g id="text_8">
      <!-- 20 -->
      <g transform="translate(30.55625 176.606882)scale(0.15 -0.15)">
       <use xlink:href="#DejaVuSans-32"/>
       <use xlink:href="#DejaVuSans-30" x="63.623047"/>
      </g>
     </g>
    </g>
    <g id="ytick_6">
     <g id="line2d_26">
      <g>
       <use xlink:href="#m6f3f5b6aff" x="56.64375" y="137.304036" style="stroke: #000000; stroke-width: 0.8"/>
      </g>
     </g>
     <g id="text_9">
      <!-- 25 -->
      <g transform="translate(30.55625 143.002864)scale(0.15 -0.15)">
       <use xlink:href="#DejaVuSans-32"/>
       <use xlink:href="#DejaVuSans-35" x="63.623047"/>
      </g>
     </g>
    </g>
    <g id="ytick_7">
     <g id="line2d_27">
      <g>
       <use xlink:href="#m6f3f5b6aff" x="56.64375" y="103.700019" style="stroke: #000000; stroke-width: 0.8"/>
      </g>
     </g>
     <g id="text_10">
      <!-- 30 -->
      <g transform="translate(30.55625 109.398847)scale(0.15 -0.15)">
       <use xlink:href="#DejaVuSans-33"/>
       <use xlink:href="#DejaVuSans-30" x="63.623047"/>
      </g>
     </g>
    </g>
    <g id="ytick_8">
     <g id="line2d_28">
      <g>
       <use xlink:href="#m6f3f5b6aff" x="56.64375" y="70.096002" style="stroke: #000000; stroke-width: 0.8"/>
      </g>
     </g>
     <g id="text_11">
      <!-- 35 -->
      <g transform="translate(30.55625 75.79483)scale(0.15 -0.15)">
       <use xlink:href="#DejaVuSans-33"/>
       <use xlink:href="#DejaVuSans-35" x="63.623047"/>
      </g>
     </g>
    </g>
    <g id="ytick_9">
     <g id="line2d_29">
      <g>
       <use xlink:href="#m6f3f5b6aff" x="56.64375" y="36.491984" style="stroke: #000000; stroke-width: 0.8"/>
      </g>
     </g>
     <g id="text_12">
      <!-- 40 -->
      <g transform="translate(30.55625 42.190813)scale(0.15 -0.15)">
       <defs>
        <path id="DejaVuSans-34" d="M 2419 4116 
L 825 1625 
L 2419 1625 
L 2419 4116 
z
M 2253 4666 
L 3047 4666 
L 3047 1625 
L 3713 1625 
L 3713 1100 
L 3047 1100 
L 3047 0 
L 2419 0 
L 2419 1100 
L 313 1100 
L 313 1709 
L 2253 4666 
z
" transform="scale(0.015625)"/>
       </defs>
       <use xlink:href="#DejaVuSans-34"/>
       <use xlink:href="#DejaVuSans-30" x="63.623047"/>
      </g>
     </g>
    </g>
    <g id="text_13">
     <!-- Count Difference -->
     <g transform="translate(22.396875 259.57525)rotate(-90)scale(0.2 -0.2)">
      <defs>
       <path id="DejaVuSans-43" d="M 4122 4306 
L 4122 3641 
Q 3803 3938 3442 4084 
Q 3081 4231 2675 4231 
Q 1875 4231 1450 3742 
Q 1025 3253 1025 2328 
Q 1025 1406 1450 917 
Q 1875 428 2675 428 
Q 3081 428 3442 575 
Q 3803 722 4122 1019 
L 4122 359 
Q 3791 134 3420 21 
Q 3050 -91 2638 -91 
Q 1578 -91 968 557 
Q 359 1206 359 2328 
Q 359 3453 968 4101 
Q 1578 4750 2638 4750 
Q 3056 4750 3426 4639 
Q 3797 4528 4122 4306 
z
" transform="scale(0.015625)"/>
       <path id="DejaVuSans-6f" d="M 1959 3097 
Q 1497 3097 1228 2736 
Q 959 2375 959 1747 
Q 959 1119 1226 758 
Q 1494 397 1959 397 
Q 2419 397 2687 759 
Q 2956 1122 2956 1747 
Q 2956 2369 2687 2733 
Q 2419 3097 1959 3097 
z
M 1959 3584 
Q 2709 3584 3137 3096 
Q 3566 2609 3566 1747 
Q 3566 888 3137 398 
Q 2709 -91 1959 -91 
Q 1206 -91 779 398 
Q 353 888 353 1747 
Q 353 2609 779 3096 
Q 1206 3584 1959 3584 
z
" transform="scale(0.015625)"/>
       <path id="DejaVuSans-75" d="M 544 1381 
L 544 3500 
L 1119 3500 
L 1119 1403 
Q 1119 906 1312 657 
Q 1506 409 1894 409 
Q 2359 409 2629 706 
Q 2900 1003 2900 1516 
L 2900 3500 
L 3475 3500 
L 3475 0 
L 2900 0 
L 2900 538 
Q 2691 219 2414 64 
Q 2138 -91 1772 -91 
Q 1169 -91 856 284 
Q 544 659 544 1381 
z
M 1991 3584 
L 1991 3584 
z
" transform="scale(0.015625)"/>
       <path id="DejaVuSans-6e" d="M 3513 2113 
L 3513 0 
L 2938 0 
L 2938 2094 
Q 2938 2591 2744 2837 
Q 2550 3084 2163 3084 
Q 1697 3084 1428 2787 
Q 1159 2491 1159 1978 
L 1159 0 
L 581 0 
L 581 3500 
L 1159 3500 
L 1159 2956 
Q 1366 3272 1645 3428 
Q 1925 3584 2291 3584 
Q 2894 3584 3203 3211 
Q 3513 2838 3513 2113 
z
" transform="scale(0.015625)"/>
       <path id="DejaVuSans-74" d="M 1172 4494 
L 1172 3500 
L 2356 3500 
L 2356 3053 
L 1172 3053 
L 1172 1153 
Q 1172 725 1289 603 
Q 1406 481 1766 481 
L 2356 481 
L 2356 0 
L 1766 0 
Q 1100 0 847 248 
Q 594 497 594 1153 
L 594 3053 
L 172 3053 
L 172 3500 
L 594 3500 
L 594 4494 
L 1172 4494 
z
" transform="scale(0.015625)"/>
       <path id="DejaVuSans-20" transform="scale(0.015625)"/>
       <path id="DejaVuSans-44" d="M 1259 4147 
L 1259 519 
L 2022 519 
Q 2988 519 3436 956 
Q 3884 1394 3884 2338 
Q 3884 3275 3436 3711 
Q 2988 4147 2022 4147 
L 1259 4147 
z
M 628 4666 
L 1925 4666 
Q 3281 4666 3915 4102 
Q 4550 3538 4550 2338 
Q 4550 1131 3912 565 
Q 3275 0 1925 0 
L 628 0 
L 628 4666 
z
" transform="scale(0.015625)"/>
       <path id="DejaVuSans-69" d="M 603 3500 
L 1178 3500 
L 1178 0 
L 603 0 
L 603 3500 
z
M 603 4863 
L 1178 4863 
L 1178 4134 
L 603 4134 
L 603 4863 
z
" transform="scale(0.015625)"/>
       <path id="DejaVuSans-66" d="M 2375 4863 
L 2375 4384 
L 1825 4384 
Q 1516 4384 1395 4259 
Q 1275 4134 1275 3809 
L 1275 3500 
L 2222 3500 
L 2222 3053 
L 1275 3053 
L 1275 0 
L 697 0 
L 697 3053 
L 147 3053 
L 147 3500 
L 697 3500 
L 697 3744 
Q 697 4328 969 4595 
Q 1241 4863 1831 4863 
L 2375 4863 
z
" transform="scale(0.015625)"/>
       <path id="DejaVuSans-72" d="M 2631 2963 
Q 2534 3019 2420 3045 
Q 2306 3072 2169 3072 
Q 1681 3072 1420 2755 
Q 1159 2438 1159 1844 
L 1159 0 
L 581 0 
L 581 3500 
L 1159 3500 
L 1159 2956 
Q 1341 3275 1631 3429 
Q 1922 3584 2338 3584 
Q 2397 3584 2469 3576 
Q 2541 3569 2628 3553 
L 2631 2963 
z
" transform="scale(0.015625)"/>
       <path id="DejaVuSans-63" d="M 3122 3366 
L 3122 2828 
Q 2878 2963 2633 3030 
Q 2388 3097 2138 3097 
Q 1578 3097 1268 2742 
Q 959 2388 959 1747 
Q 959 1106 1268 751 
Q 1578 397 2138 397 
Q 2388 397 2633 464 
Q 2878 531 3122 666 
L 3122 134 
Q 2881 22 2623 -34 
Q 2366 -91 2075 -91 
Q 1284 -91 818 406 
Q 353 903 353 1747 
Q 353 2603 823 3093 
Q 1294 3584 2113 3584 
Q 2378 3584 2631 3529 
Q 2884 3475 3122 3366 
z
" transform="scale(0.015625)"/>
      </defs>
      <use xlink:href="#DejaVuSans-43"/>
      <use xlink:href="#DejaVuSans-6f" x="69.824219"/>
      <use xlink:href="#DejaVuSans-75" x="131.005859"/>
      <use xlink:href="#DejaVuSans-6e" x="194.384766"/>
      <use xlink:href="#DejaVuSans-74" x="257.763672"/>
      <use xlink:href="#DejaVuSans-20" x="296.972656"/>
      <use xlink:href="#DejaVuSans-44" x="328.759766"/>
      <use xlink:href="#DejaVuSans-69" x="405.761719"/>
      <use xlink:href="#DejaVuSans-66" x="433.544922"/>
      <use xlink:href="#DejaVuSans-66" x="468.75"/>
      <use xlink:href="#DejaVuSans-65" x="503.955078"/>
      <use xlink:href="#DejaVuSans-72" x="565.478516"/>
      <use xlink:href="#DejaVuSans-65" x="604.341797"/>
      <use xlink:href="#DejaVuSans-6e" x="665.865234"/>
      <use xlink:href="#DejaVuSans-63" x="729.244141"/>
      <use xlink:href="#DejaVuSans-65" x="784.224609"/>
     </g>
    </g>
   </g>
   <g id="line2d_30">
    <path d="M 56.64375 304.933039 
L 87.64342 305.017654 
L 109.638036 304.992653 
L 126.698385 304.251012 
L 140.637706 304.12708 
L 162.632321 304.061351 
L 193.631991 303.760729 
L 215.626607 303.812614 
L 246.626277 304.121569 
L 268.620893 304.332267 
L 299.620563 302.430548 
L 321.615179 302.3335 
L 352.614848 302.183626 
L 374.609464 302.184768 
L 405.609134 302.070313 
L 427.60375 301.966678 
" clip-path="url(#p7e817589b7)" style="fill: none; stroke: #1f77b4; stroke-width: 1.5; stroke-linecap: square"/>
   </g>
   <g id="line2d_31">
    <path d="M 56.64375 305.323988 
L 87.64342 305.111813 
L 109.638036 305.100992 
L 126.698385 298.616492 
L 140.637706 298.594381 
L 162.632321 298.601706 
L 193.631991 298.594381 
L 215.626607 298.594381 
L 246.626277 298.54962 
L 268.620893 298.575966 
L 299.620563 298.450488 
L 321.615179 298.460032 
L 352.614848 298.504658 
L 374.609464 298.512992 
L 405.609134 298.44538 
L 427.60375 298.508758 
" clip-path="url(#p7e817589b7)" style="fill: none; stroke: #ff7f0e; stroke-width: 1.5; stroke-linecap: square"/>
   </g>
   <g id="line2d_32">
    <path d="M 56.64375 305.32009 
L 87.64342 305.379032 
L 109.638036 305.398388 
L 126.698385 305.44335 
L 140.637706 305.414181 
L 162.632321 305.507265 
L 193.631991 305.435419 
L 215.626607 305.499334 
L 246.626277 305.442745 
L 268.620893 305.402353 
L 299.620563 298.780816 
L 321.615179 298.71475 
L 352.614848 298.549418 
L 374.609464 298.571059 
L 405.609134 298.504725 
L 427.60375 298.556542 
" clip-path="url(#p7e817589b7)" style="fill: none; stroke: #2ca02c; stroke-width: 1.5; stroke-linecap: square"/>
   </g>
   <g id="line2d_33">
    <path d="M 56.64375 305.322779 
L 87.64342 305.379368 
L 109.638036 305.402689 
L 126.698385 305.440258 
L 140.637706 305.411829 
L 162.632321 305.512977 
L 193.631991 305.433269 
L 215.626607 305.502694 
L 246.626277 305.441804 
L 268.620893 305.402958 
L 299.620563 298.781152 
L 321.615179 298.71596 
L 352.614848 298.549822 
L 374.609464 298.570455 
L 405.609134 298.504523 
L 427.60375 298.55708 
" clip-path="url(#p7e817589b7)" style="fill: none; stroke: #d62728; stroke-width: 1.5; stroke-linecap: square"/>
   </g>
   <g id="line2d_34">
    <path d="M 56.64375 260.256767 
L 87.64342 263.450022 
L 109.638036 263.531075 
L 126.698385 256.532031 
L 140.637706 254.144465 
L 162.632321 254.296355 
L 193.631991 249.526467 
L 215.626607 249.518603 
L 246.626277 255.228463 
L 268.620893 254.81137 
L 299.620563 165.376429 
L 321.615179 162.114286 
L 352.614848 176.590022 
L 374.609464 177.574486 
L 405.609134 176.666236 
L 427.60375 177.20007 
" clip-path="url(#p7e817589b7)" style="fill: none; stroke: #9467bd; stroke-width: 1.5; stroke-linecap: square"/>
   </g>
   <g id="line2d_35">
    <path d="M 56.64375 299.278021 
L 87.64342 301.537689 
L 109.638036 301.862909 
L 126.698385 297.346663 
L 140.637706 295.503483 
L 162.632321 295.011319 
L 193.631991 289.874205 
L 215.626607 289.820506 
L 246.626277 298.695999 
L 268.620893 301.814452 
L 299.620563 302.47047 
L 321.615179 303.629539 
L 352.614848 301.935964 
L 374.609464 303.013376 
L 405.609134 302.423222 
L 427.60375 301.613903 
" clip-path="url(#p7e817589b7)" style="fill: none; stroke: #8c564b; stroke-width: 1.5; stroke-linecap: square"/>
   </g>
   <g id="line2d_36">
    <path d="M 56.64375 303.276092 
L 87.64342 302.721626 
L 109.638036 302.208896 
L 126.698385 286.807637 
L 140.637706 279.435319 
L 162.632321 272.616325 
L 193.631991 251.683643 
L 215.626607 241.788134 
L 246.626277 225.121885 
L 268.620893 218.479984 
L 299.620563 91.795325 
L 321.615179 70.707259 
L 352.614848 61.230254 
L 374.609464 58.997603 
L 405.609134 50.133468 
L 427.60375 44.487523 
" clip-path="url(#p7e817589b7)" style="fill: none; stroke: #e377c2; stroke-width: 1.5; stroke-linecap: square"/>
   </g>
   <g id="line2d_37">
    <path d="M 56.64375 271.965952 
L 87.64342 278.791735 
L 109.638036 276.586639 
L 126.698385 218.45142 
L 140.637706 209.896039 
L 162.632321 209.539971 
L 193.631991 194.61804 
L 215.626607 198.915255 
L 246.626277 232.07207 
L 268.620893 249.302059 
L 299.620563 227.071187 
L 321.615179 245.104783 
L 352.614848 237.805385 
L 374.609464 243.146744 
L 405.609134 242.454031 
L 427.60375 242.266991 
" clip-path="url(#p7e817589b7)" style="fill: none; stroke: #7f7f7f; stroke-width: 1.5; stroke-linecap: square"/>
   </g>
   <g id="line2d_38">
    <path d="M 56.64375 271.442469 
L 87.64342 277.580377 
L 109.638036 275.475959 
L 126.698385 208.868496 
L 140.637706 195.964956 
L 162.632321 192.682247 
L 193.631991 168.497503 
L 215.626607 159.977473 
L 246.626277 186.442519 
L 268.620893 199.93722 
L 299.620563 76.766399 
L 321.615179 75.137949 
L 352.614848 60.997512 
L 374.609464 63.606058 
L 405.609134 57.772804 
L 427.60375 55.681155 
" clip-path="url(#p7e817589b7)" style="fill: none; stroke: #bcbd22; stroke-width: 1.5; stroke-linecap: square"/>
   </g>
   <g id="line2d_39">
    <path d="M 56.64375 285.160906 
L 87.64342 285.160906 
L 109.638036 285.160503 
L 126.698385 285.137316 
L 140.637706 285.151497 
L 162.632321 285.160234 
L 193.631991 285.162855 
L 215.626607 285.133014 
L 246.626277 285.145314 
L 268.620893 285.144104 
L 299.620563 285.108954 
L 321.615179 285.061304 
L 352.614848 285.592583 
L 374.609464 285.360178 
L 405.609134 285.067016 
L 427.60375 285.11097 
" clip-path="url(#p7e817589b7)" style="fill: none; stroke: #17becf; stroke-width: 1.5; stroke-linecap: square"/>
   </g>
   <g id="line2d_40">
    <path d="M 56.64375 305.321502 
L 87.64342 305.319687 
L 109.638036 305.318074 
L 126.698385 305.312496 
L 140.637706 305.310345 
L 162.632321 305.306178 
L 193.631991 305.284067 
L 215.626607 305.248312 
L 246.626277 304.101743 
L 268.620893 302.597963 
L 299.620563 287.037623 
L 321.615179 285.808119 
L 352.614848 285.782715 
L 374.609464 285.608243 
L 405.609134 285.616509 
L 427.60375 285.586131 
" clip-path="url(#p7e817589b7)" style="fill: none; stroke-dasharray: 5.55,2.4; stroke-dashoffset: 0; stroke: #1f77b4; stroke-width: 1.5"/>
   </g>
   <g id="line2d_41">
    <path d="M 56.64375 298.603185 
L 87.64342 298.603118 
L 109.638036 298.60305 
L 126.698385 298.595254 
L 140.637706 298.599959 
L 162.632321 298.601773 
L 193.631991 298.601841 
L 215.626607 298.596195 
L 246.626277 298.614073 
L 268.620893 298.62664 
L 299.620563 298.687598 
L 321.615179 298.826181 
L 352.614848 302.130666 
L 374.609464 302.013589 
L 405.609134 301.919162 
L 427.60375 301.952094 
" clip-path="url(#p7e817589b7)" style="fill: none; stroke-dasharray: 5.55,2.4; stroke-dashoffset: 0; stroke: #ff7f0e; stroke-width: 1.5"/>
   </g>
   <g id="line2d_42">
    <path d="M 56.64375 305.315991 
L 87.64342 305.374999 
L 109.638036 305.480919 
L 126.698385 299.100323 
L 140.637706 299.189978 
L 162.632321 299.351681 
L 193.631991 299.703179 
L 215.626607 299.96482 
L 246.626277 300.126522 
L 268.620893 300.245749 
L 299.620563 300.084248 
L 321.615179 300.145609 
L 352.614848 298.517226 
L 374.609464 298.519309 
L 405.609134 298.443835 
L 427.60375 298.508556 
" clip-path="url(#p7e817589b7)" style="fill: none; stroke-dasharray: 5.55,2.4; stroke-dashoffset: 0; stroke: #2ca02c; stroke-width: 1.5"/>
   </g>
   <g id="line2d_43">
    <path d="M 56.64375 298.602513 
L 87.64342 298.602177 
L 109.638036 298.601975 
L 126.698385 298.60137 
L 140.637706 298.59969 
L 162.632321 298.598346 
L 193.631991 298.595523 
L 215.626607 298.590617 
L 246.626277 298.430998 
L 268.620893 298.174532 
L 299.620563 295.616124 
L 321.615179 295.344267 
L 352.614848 295.422632 
L 374.609464 295.41497 
L 405.609134 295.365841 
L 427.60375 295.379148 
" clip-path="url(#p7e817589b7)" style="fill: none; stroke-dasharray: 5.55,2.4; stroke-dashoffset: 0; stroke: #d62728; stroke-width: 1.5"/>
   </g>
   <g id="line2d_44">
    <path d="M 56.64375 298.600765 
L 87.64342 298.59801 
L 109.638036 298.594851 
L 126.698385 298.583291 
L 140.637706 298.587324 
L 162.632321 298.578318 
L 193.631991 298.555064 
L 215.626607 298.527509 
L 246.626277 297.453121 
L 268.620893 296.064737 
L 299.620563 280.697284 
L 321.615179 279.559721 
L 352.614848 284.894628 
L 374.609464 285.093698 
L 405.609134 285.220452 
L 427.60375 285.342636 
" clip-path="url(#p7e817589b7)" style="fill: none; stroke-dasharray: 5.55,2.4; stroke-dashoffset: 0; stroke: #9467bd; stroke-width: 1.5"/>
   </g>
   <g id="line2d_45">
    <path d="M 56.64375 298.603118 
L 87.64342 298.603118 
L 109.638036 298.603118 
L 126.698385 298.592499 
L 140.637706 298.596666 
L 162.632321 298.602446 
L 193.631991 298.603386 
L 215.626607 298.614073 
L 246.626277 298.659102 
L 268.620893 298.811328 
L 299.620563 298.98076 
L 321.615179 299.073775 
L 352.614848 304.427231 
L 374.609464 304.805277 
L 405.609134 304.925713 
L 427.60375 305.081838 
" clip-path="url(#p7e817589b7)" style="fill: none; stroke-dasharray: 5.55,2.4; stroke-dashoffset: 0; stroke: #8c564b; stroke-width: 1.5"/>
   </g>
   <g id="line2d_46">
    <path d="M 56.64375 270.761853 
L 87.64342 277.550402 
L 109.638036 275.663402 
L 126.698385 209.361937 
L 140.637706 196.952041 
L 162.632321 191.5053 
L 193.631991 167.852239 
L 215.626607 163.381695 
L 246.626277 184.664127 
L 268.620893 198.364619 
L 299.620563 137.593501 
L 321.615179 136.607425 
L 352.614848 123.031469 
L 374.609464 124.520396 
L 405.609134 118.733247 
L 427.60375 116.619218 
" clip-path="url(#p7e817589b7)" style="fill: none; stroke-dasharray: 5.55,2.4; stroke-dashoffset: 0; stroke: #e377c2; stroke-width: 1.5"/>
   </g>
   <g id="line2d_47">
    <path d="M 56.64375 247.723544 
L 87.64342 250.154526 
L 109.638036 247.967845 
L 126.698385 249.353137 
L 140.637706 247.979674 
L 162.632321 247.951446 
L 193.631991 247.975641 
L 215.626607 247.884238 
L 246.626277 246.848294 
L 268.620893 245.432288 
L 299.620563 229.843317 
L 321.615179 228.676787 
L 352.614848 237.965341 
L 374.609464 237.86594 
L 405.609134 232.644951 
L 427.60375 230.640942 
" clip-path="url(#p7e817589b7)" style="fill: none; stroke-dasharray: 5.55,2.4; stroke-dashoffset: 0; stroke: #7f7f7f; stroke-width: 1.5"/>
   </g>
   <g id="line2d_48">
    <path d="M 56.64375 250.418384 
L 87.64342 253.407395 
L 109.638036 251.92418 
L 126.698385 256.237659 
L 140.637706 253.622393 
L 162.632321 252.988218 
L 193.631991 251.15821 
L 215.626607 250.029183 
L 246.626277 247.838201 
L 268.620893 246.013435 
L 299.620563 232.594478 
L 321.615179 230.848682 
L 352.614848 238.61914 
L 374.609464 238.292106 
L 405.609134 232.554018 
L 427.60375 230.963271 
" clip-path="url(#p7e817589b7)" style="fill: none; stroke-dasharray: 5.55,2.4; stroke-dashoffset: 0; stroke: #bcbd22; stroke-width: 1.5"/>
   </g>
   <g id="line2d_49">
    <path d="M 56.64375 295.86392 
L 87.64342 293.9165 
L 109.638036 293.557273 
L 126.698385 271.360542 
L 140.637706 268.735934 
L 162.632321 267.246134 
L 193.631991 262.726528 
L 215.626607 260.489844 
L 246.626277 255.338416 
L 268.620893 252.576233 
L 299.620563 238.768745 
L 321.615179 235.698951 
L 352.614848 238.316435 
L 374.609464 237.929384 
L 405.609134 232.169723 
L 427.60375 228.85556 
" clip-path="url(#p7e817589b7)" style="fill: none; stroke-dasharray: 5.55,2.4; stroke-dashoffset: 0; stroke: #17becf; stroke-width: 1.5"/>
   </g>
   <g id="line2d_50">
    <path d="M 109.638036 318.56425 
L 109.638036 31.43625 
" clip-path="url(#p7e817589b7)" style="fill: none; stroke: #ff0000; stroke-width: 1.5; stroke-linecap: square"/>
   </g>
   <g id="line2d_51">
    <path d="M 268.620893 318.56425 
L 268.620893 31.43625 
" clip-path="url(#p7e817589b7)" style="fill: none; stroke: #008000; stroke-width: 1.5; stroke-linecap: square"/>
   </g>
   <g id="patch_3">
    <path d="M 56.64375 318.56425 
L 56.64375 31.43625 
" style="fill: none; stroke: #000000; stroke-width: 0.8; stroke-linejoin: miter; stroke-linecap: square"/>
   </g>
   <g id="patch_4">
    <path d="M 427.60375 318.56425 
L 427.60375 31.43625 
" style="fill: none; stroke: #000000; stroke-width: 0.8; stroke-linejoin: miter; stroke-linecap: square"/>
   </g>
   <g id="patch_5">
    <path d="M 56.64375 318.56425 
L 427.60375 318.56425 
" style="fill: none; stroke: #000000; stroke-width: 0.8; stroke-linejoin: miter; stroke-linecap: square"/>
   </g>
   <g id="patch_6">
    <path d="M 56.64375 31.43625 
L 427.60375 31.43625 
" style="fill: none; stroke: #000000; stroke-width: 0.8; stroke-linejoin: miter; stroke-linecap: square"/>
   </g>
   <g id="text_14">
    <!-- Ice Storm (Call) -->
    <g transform="translate(149.133125 25.43625)scale(0.24 -0.24)">
     <defs>
      <path id="DejaVuSans-49" d="M 628 4666 
L 1259 4666 
L 1259 0 
L 628 0 
L 628 4666 
z
" transform="scale(0.015625)"/>
      <path id="DejaVuSans-53" d="M 3425 4513 
L 3425 3897 
Q 3066 4069 2747 4153 
Q 2428 4238 2131 4238 
Q 1616 4238 1336 4038 
Q 1056 3838 1056 3469 
Q 1056 3159 1242 3001 
Q 1428 2844 1947 2747 
L 2328 2669 
Q 3034 2534 3370 2195 
Q 3706 1856 3706 1288 
Q 3706 609 3251 259 
Q 2797 -91 1919 -91 
Q 1588 -91 1214 -16 
Q 841 59 441 206 
L 441 856 
Q 825 641 1194 531 
Q 1563 422 1919 422 
Q 2459 422 2753 634 
Q 3047 847 3047 1241 
Q 3047 1584 2836 1778 
Q 2625 1972 2144 2069 
L 1759 2144 
Q 1053 2284 737 2584 
Q 422 2884 422 3419 
Q 422 4038 858 4394 
Q 1294 4750 2059 4750 
Q 2388 4750 2728 4690 
Q 3069 4631 3425 4513 
z
" transform="scale(0.015625)"/>
      <path id="DejaVuSans-6d" d="M 3328 2828 
Q 3544 3216 3844 3400 
Q 4144 3584 4550 3584 
Q 5097 3584 5394 3201 
Q 5691 2819 5691 2113 
L 5691 0 
L 5113 0 
L 5113 2094 
Q 5113 2597 4934 2840 
Q 4756 3084 4391 3084 
Q 3944 3084 3684 2787 
Q 3425 2491 3425 1978 
L 3425 0 
L 2847 0 
L 2847 2094 
Q 2847 2600 2669 2842 
Q 2491 3084 2119 3084 
Q 1678 3084 1418 2786 
Q 1159 2488 1159 1978 
L 1159 0 
L 581 0 
L 581 3500 
L 1159 3500 
L 1159 2956 
Q 1356 3278 1631 3431 
Q 1906 3584 2284 3584 
Q 2666 3584 2933 3390 
Q 3200 3197 3328 2828 
z
" transform="scale(0.015625)"/>
      <path id="DejaVuSans-28" d="M 1984 4856 
Q 1566 4138 1362 3434 
Q 1159 2731 1159 2009 
Q 1159 1288 1364 580 
Q 1569 -128 1984 -844 
L 1484 -844 
Q 1016 -109 783 600 
Q 550 1309 550 2009 
Q 550 2706 781 3412 
Q 1013 4119 1484 4856 
L 1984 4856 
z
" transform="scale(0.015625)"/>
      <path id="DejaVuSans-6c" d="M 603 4863 
L 1178 4863 
L 1178 0 
L 603 0 
L 603 4863 
z
" transform="scale(0.015625)"/>
      <path id="DejaVuSans-29" d="M 513 4856 
L 1013 4856 
Q 1481 4119 1714 3412 
Q 1947 2706 1947 2009 
Q 1947 1309 1714 600 
Q 1481 -109 1013 -844 
L 513 -844 
Q 928 -128 1133 580 
Q 1338 1288 1338 2009 
Q 1338 2731 1133 3434 
Q 928 4138 513 4856 
z
" transform="scale(0.015625)"/>
     </defs>
     <use xlink:href="#DejaVuSans-49"/>
     <use xlink:href="#DejaVuSans-63" x="29.492188"/>
     <use xlink:href="#DejaVuSans-65" x="84.472656"/>
     <use xlink:href="#DejaVuSans-20" x="145.996094"/>
     <use xlink:href="#DejaVuSans-53" x="177.783203"/>
     <use xlink:href="#DejaVuSans-74" x="241.259766"/>
     <use xlink:href="#DejaVuSans-6f" x="280.46875"/>
     <use xlink:href="#DejaVuSans-72" x="341.650391"/>
     <use xlink:href="#DejaVuSans-6d" x="381.013672"/>
     <use xlink:href="#DejaVuSans-20" x="478.425781"/>
     <use xlink:href="#DejaVuSans-28" x="510.212891"/>
     <use xlink:href="#DejaVuSans-43" x="549.226562"/>
     <use xlink:href="#DejaVuSans-61" x="619.050781"/>
     <use xlink:href="#DejaVuSans-6c" x="680.330078"/>
     <use xlink:href="#DejaVuSans-6c" x="708.113281"/>
     <use xlink:href="#DejaVuSans-29" x="735.896484"/>
    </g>
   </g>
   <g id="legend_1">
    <g id="patch_7">
     <path d="M 62.24375 84.80625 
L 366.37375 84.80625 
Q 367.97375 84.80625 367.97375 83.20625 
L 367.97375 37.03625 
Q 367.97375 35.43625 366.37375 35.43625 
L 62.24375 35.43625 
Q 60.64375 35.43625 60.64375 37.03625 
L 60.64375 83.20625 
Q 60.64375 84.80625 62.24375 84.80625 
z
" style="fill: #ffffff; opacity: 0.8; stroke: #cccccc; stroke-linejoin: miter"/>
    </g>
    <g id="line2d_52">
     <path d="M 63.84375 41.915 
L 71.84375 41.915 
L 79.84375 41.915 
" style="fill: none; stroke: #1f77b4; stroke-width: 1.5; stroke-linecap: square"/>
    </g>
    <g id="text_15">
     <!-- 3 -->
     <g transform="translate(86.24375 44.715)scale(0.08 -0.08)">
      <use xlink:href="#DejaVuSans-33"/>
     </g>
    </g>
    <g id="line2d_53">
     <path d="M 63.84375 53.6575 
L 71.84375 53.6575 
L 79.84375 53.6575 
" style="fill: none; stroke: #ff7f0e; stroke-width: 1.5; stroke-linecap: square"/>
    </g>
    <g id="text_16">
     <!-- 4 -->
     <g transform="translate(86.24375 56.4575)scale(0.08 -0.08)">
      <use xlink:href="#DejaVuSans-34"/>
     </g>
    </g>
    <g id="line2d_54">
     <path d="M 63.84375 65.4 
L 71.84375 65.4 
L 79.84375 65.4 
" style="fill: none; stroke: #2ca02c; stroke-width: 1.5; stroke-linecap: square"/>
    </g>
    <g id="text_17">
     <!-- 7 -->
     <g transform="translate(86.24375 68.2)scale(0.08 -0.08)">
      <defs>
       <path id="DejaVuSans-37" d="M 525 4666 
L 3525 4666 
L 3525 4397 
L 1831 0 
L 1172 0 
L 2766 4134 
L 525 4134 
L 525 4666 
z
" transform="scale(0.015625)"/>
      </defs>
      <use xlink:href="#DejaVuSans-37"/>
     </g>
    </g>
    <g id="line2d_55">
     <path d="M 63.84375 77.1425 
L 71.84375 77.1425 
L 79.84375 77.1425 
" style="fill: none; stroke: #d62728; stroke-width: 1.5; stroke-linecap: square"/>
    </g>
    <g id="text_18">
     <!-- 10 -->
     <g transform="translate(86.24375 79.9425)scale(0.08 -0.08)">
      <use xlink:href="#DejaVuSans-31"/>
      <use xlink:href="#DejaVuSans-30" x="63.623047"/>
     </g>
    </g>
    <g id="line2d_56">
     <path d="M 112.42375 41.915 
L 120.42375 41.915 
L 128.42375 41.915 
" style="fill: none; stroke: #9467bd; stroke-width: 1.5; stroke-linecap: square"/>
    </g>
    <g id="text_19">
     <!-- 63 -->
     <g transform="translate(134.82375 44.715)scale(0.08 -0.08)">
      <defs>
       <path id="DejaVuSans-36" d="M 2113 2584 
Q 1688 2584 1439 2293 
Q 1191 2003 1191 1497 
Q 1191 994 1439 701 
Q 1688 409 2113 409 
Q 2538 409 2786 701 
Q 3034 994 3034 1497 
Q 3034 2003 2786 2293 
Q 2538 2584 2113 2584 
z
M 3366 4563 
L 3366 3988 
Q 3128 4100 2886 4159 
Q 2644 4219 2406 4219 
Q 1781 4219 1451 3797 
Q 1122 3375 1075 2522 
Q 1259 2794 1537 2939 
Q 1816 3084 2150 3084 
Q 2853 3084 3261 2657 
Q 3669 2231 3669 1497 
Q 3669 778 3244 343 
Q 2819 -91 2113 -91 
Q 1303 -91 875 529 
Q 447 1150 447 2328 
Q 447 3434 972 4092 
Q 1497 4750 2381 4750 
Q 2619 4750 2861 4703 
Q 3103 4656 3366 4563 
z
" transform="scale(0.015625)"/>
      </defs>
      <use xlink:href="#DejaVuSans-36"/>
      <use xlink:href="#DejaVuSans-33" x="63.623047"/>
     </g>
    </g>
    <g id="line2d_57">
     <path d="M 112.42375 53.6575 
L 120.42375 53.6575 
L 128.42375 53.6575 
" style="fill: none; stroke: #8c564b; stroke-width: 1.5; stroke-linecap: square"/>
    </g>
    <g id="text_20">
     <!-- 76 -->
     <g transform="translate(134.82375 56.4575)scale(0.08 -0.08)">
      <use xlink:href="#DejaVuSans-37"/>
      <use xlink:href="#DejaVuSans-36" x="63.623047"/>
     </g>
    </g>
    <g id="line2d_58">
     <path d="M 112.42375 65.4 
L 120.42375 65.4 
L 128.42375 65.4 
" style="fill: none; stroke: #e377c2; stroke-width: 1.5; stroke-linecap: square"/>
    </g>
    <g id="text_21">
     <!-- 81 -->
     <g transform="translate(134.82375 68.2)scale(0.08 -0.08)">
      <defs>
       <path id="DejaVuSans-38" d="M 2034 2216 
Q 1584 2216 1326 1975 
Q 1069 1734 1069 1313 
Q 1069 891 1326 650 
Q 1584 409 2034 409 
Q 2484 409 2743 651 
Q 3003 894 3003 1313 
Q 3003 1734 2745 1975 
Q 2488 2216 2034 2216 
z
M 1403 2484 
Q 997 2584 770 2862 
Q 544 3141 544 3541 
Q 544 4100 942 4425 
Q 1341 4750 2034 4750 
Q 2731 4750 3128 4425 
Q 3525 4100 3525 3541 
Q 3525 3141 3298 2862 
Q 3072 2584 2669 2484 
Q 3125 2378 3379 2068 
Q 3634 1759 3634 1313 
Q 3634 634 3220 271 
Q 2806 -91 2034 -91 
Q 1263 -91 848 271 
Q 434 634 434 1313 
Q 434 1759 690 2068 
Q 947 2378 1403 2484 
z
M 1172 3481 
Q 1172 3119 1398 2916 
Q 1625 2713 2034 2713 
Q 2441 2713 2670 2916 
Q 2900 3119 2900 3481 
Q 2900 3844 2670 4047 
Q 2441 4250 2034 4250 
Q 1625 4250 1398 4047 
Q 1172 3844 1172 3481 
z
" transform="scale(0.015625)"/>
      </defs>
      <use xlink:href="#DejaVuSans-38"/>
      <use xlink:href="#DejaVuSans-31" x="63.623047"/>
     </g>
    </g>
    <g id="line2d_59">
     <path d="M 112.42375 77.1425 
L 120.42375 77.1425 
L 128.42375 77.1425 
" style="fill: none; stroke: #7f7f7f; stroke-width: 1.5; stroke-linecap: square"/>
    </g>
    <g id="text_22">
     <!-- 109 -->
     <g transform="translate(134.82375 79.9425)scale(0.08 -0.08)">
      <defs>
       <path id="DejaVuSans-39" d="M 703 97 
L 703 672 
Q 941 559 1184 500 
Q 1428 441 1663 441 
Q 2288 441 2617 861 
Q 2947 1281 2994 2138 
Q 2813 1869 2534 1725 
Q 2256 1581 1919 1581 
Q 1219 1581 811 2004 
Q 403 2428 403 3163 
Q 403 3881 828 4315 
Q 1253 4750 1959 4750 
Q 2769 4750 3195 4129 
Q 3622 3509 3622 2328 
Q 3622 1225 3098 567 
Q 2575 -91 1691 -91 
Q 1453 -91 1209 -44 
Q 966 3 703 97 
z
M 1959 2075 
Q 2384 2075 2632 2365 
Q 2881 2656 2881 3163 
Q 2881 3666 2632 3958 
Q 2384 4250 1959 4250 
Q 1534 4250 1286 3958 
Q 1038 3666 1038 3163 
Q 1038 2656 1286 2365 
Q 1534 2075 1959 2075 
z
" transform="scale(0.015625)"/>
      </defs>
      <use xlink:href="#DejaVuSans-31"/>
      <use xlink:href="#DejaVuSans-30" x="63.623047"/>
      <use xlink:href="#DejaVuSans-39" x="127.246094"/>
     </g>
    </g>
    <g id="line2d_60">
     <path d="M 166.09375 41.915 
L 174.09375 41.915 
L 182.09375 41.915 
" style="fill: none; stroke: #bcbd22; stroke-width: 1.5; stroke-linecap: square"/>
    </g>
    <g id="text_23">
     <!-- 130 -->
     <g transform="translate(188.49375 44.715)scale(0.08 -0.08)">
      <use xlink:href="#DejaVuSans-31"/>
      <use xlink:href="#DejaVuSans-33" x="63.623047"/>
      <use xlink:href="#DejaVuSans-30" x="127.246094"/>
     </g>
    </g>
    <g id="line2d_61">
     <path d="M 166.09375 53.6575 
L 174.09375 53.6575 
L 182.09375 53.6575 
" style="fill: none; stroke: #17becf; stroke-width: 1.5; stroke-linecap: square"/>
    </g>
    <g id="text_24">
     <!-- 208 -->
     <g transform="translate(188.49375 56.4575)scale(0.08 -0.08)">
      <use xlink:href="#DejaVuSans-32"/>
      <use xlink:href="#DejaVuSans-30" x="63.623047"/>
      <use xlink:href="#DejaVuSans-38" x="127.246094"/>
     </g>
    </g>
    <g id="line2d_62">
     <path d="M 166.09375 65.4 
L 174.09375 65.4 
L 182.09375 65.4 
" style="fill: none; stroke-dasharray: 5.55,2.4; stroke-dashoffset: 0; stroke: #1f77b4; stroke-width: 1.5"/>
    </g>
    <g id="text_25">
     <!-- 210 -->
     <g transform="translate(188.49375 68.2)scale(0.08 -0.08)">
      <use xlink:href="#DejaVuSans-32"/>
      <use xlink:href="#DejaVuSans-31" x="63.623047"/>
      <use xlink:href="#DejaVuSans-30" x="127.246094"/>
     </g>
    </g>
    <g id="line2d_63">
     <path d="M 219.76375 41.915 
L 227.76375 41.915 
L 235.76375 41.915 
" style="fill: none; stroke-dasharray: 5.55,2.4; stroke-dashoffset: 0; stroke: #ff7f0e; stroke-width: 1.5"/>
    </g>
    <g id="text_26">
     <!-- 211 -->
     <g transform="translate(242.16375 44.715)scale(0.08 -0.08)">
      <use xlink:href="#DejaVuSans-32"/>
      <use xlink:href="#DejaVuSans-31" x="63.623047"/>
      <use xlink:href="#DejaVuSans-31" x="127.246094"/>
     </g>
    </g>
    <g id="line2d_64">
     <path d="M 219.76375 53.6575 
L 227.76375 53.6575 
L 235.76375 53.6575 
" style="fill: none; stroke-dasharray: 5.55,2.4; stroke-dashoffset: 0; stroke: #2ca02c; stroke-width: 1.5"/>
    </g>
    <g id="text_27">
     <!-- 212 -->
     <g transform="translate(242.16375 56.4575)scale(0.08 -0.08)">
      <use xlink:href="#DejaVuSans-32"/>
      <use xlink:href="#DejaVuSans-31" x="63.623047"/>
      <use xlink:href="#DejaVuSans-32" x="127.246094"/>
     </g>
    </g>
    <g id="line2d_65">
     <path d="M 219.76375 65.4 
L 227.76375 65.4 
L 235.76375 65.4 
" style="fill: none; stroke-dasharray: 5.55,2.4; stroke-dashoffset: 0; stroke: #d62728; stroke-width: 1.5"/>
    </g>
    <g id="text_28">
     <!-- 217 -->
     <g transform="translate(242.16375 68.2)scale(0.08 -0.08)">
      <use xlink:href="#DejaVuSans-32"/>
      <use xlink:href="#DejaVuSans-31" x="63.623047"/>
      <use xlink:href="#DejaVuSans-37" x="127.246094"/>
     </g>
    </g>
    <g id="line2d_66">
     <path d="M 273.43375 41.915 
L 281.43375 41.915 
L 289.43375 41.915 
" style="fill: none; stroke-dasharray: 5.55,2.4; stroke-dashoffset: 0; stroke: #9467bd; stroke-width: 1.5"/>
    </g>
    <g id="text_29">
     <!-- 218 -->
     <g transform="translate(295.83375 44.715)scale(0.08 -0.08)">
      <use xlink:href="#DejaVuSans-32"/>
      <use xlink:href="#DejaVuSans-31" x="63.623047"/>
      <use xlink:href="#DejaVuSans-38" x="127.246094"/>
     </g>
    </g>
    <g id="line2d_67">
     <path d="M 273.43375 53.6575 
L 281.43375 53.6575 
L 289.43375 53.6575 
" style="fill: none; stroke-dasharray: 5.55,2.4; stroke-dashoffset: 0; stroke: #8c564b; stroke-width: 1.5"/>
    </g>
    <g id="text_30">
     <!-- 219 -->
     <g transform="translate(295.83375 56.4575)scale(0.08 -0.08)">
      <use xlink:href="#DejaVuSans-32"/>
      <use xlink:href="#DejaVuSans-31" x="63.623047"/>
      <use xlink:href="#DejaVuSans-39" x="127.246094"/>
     </g>
    </g>
    <g id="line2d_68">
     <path d="M 273.43375 65.4 
L 281.43375 65.4 
L 289.43375 65.4 
" style="fill: none; stroke-dasharray: 5.55,2.4; stroke-dashoffset: 0; stroke: #e377c2; stroke-width: 1.5"/>
    </g>
    <g id="text_31">
     <!-- 224 -->
     <g transform="translate(295.83375 68.2)scale(0.08 -0.08)">
      <use xlink:href="#DejaVuSans-32"/>
      <use xlink:href="#DejaVuSans-32" x="63.623047"/>
      <use xlink:href="#DejaVuSans-34" x="127.246094"/>
     </g>
    </g>
    <g id="line2d_69">
     <path d="M 327.10375 41.915 
L 335.10375 41.915 
L 343.10375 41.915 
" style="fill: none; stroke-dasharray: 5.55,2.4; stroke-dashoffset: 0; stroke: #7f7f7f; stroke-width: 1.5"/>
    </g>
    <g id="text_32">
     <!-- 234 -->
     <g transform="translate(349.50375 44.715)scale(0.08 -0.08)">
      <use xlink:href="#DejaVuSans-32"/>
      <use xlink:href="#DejaVuSans-33" x="63.623047"/>
      <use xlink:href="#DejaVuSans-34" x="127.246094"/>
     </g>
    </g>
    <g id="line2d_70">
     <path d="M 327.10375 53.6575 
L 335.10375 53.6575 
L 343.10375 53.6575 
" style="fill: none; stroke-dasharray: 5.55,2.4; stroke-dashoffset: 0; stroke: #bcbd22; stroke-width: 1.5"/>
    </g>
    <g id="text_33">
     <!-- 235 -->
     <g transform="translate(349.50375 56.4575)scale(0.08 -0.08)">
      <use xlink:href="#DejaVuSans-32"/>
      <use xlink:href="#DejaVuSans-33" x="63.623047"/>
      <use xlink:href="#DejaVuSans-35" x="127.246094"/>
     </g>
    </g>
    <g id="line2d_71">
     <path d="M 327.10375 65.4 
L 335.10375 65.4 
L 343.10375 65.4 
" style="fill: none; stroke-dasharray: 5.55,2.4; stroke-dashoffset: 0; stroke: #17becf; stroke-width: 1.5"/>
    </g>
    <g id="text_34">
     <!-- 236 -->
     <g transform="translate(349.50375 68.2)scale(0.08 -0.08)">
      <use xlink:href="#DejaVuSans-32"/>
      <use xlink:href="#DejaVuSans-33" x="63.623047"/>
      <use xlink:href="#DejaVuSans-36" x="127.246094"/>
     </g>
    </g>
   </g>
  </g>
  <g id="axes_2">
   <g id="patch_8">
    <path d="M 499.44375 318.56425 
L 870.40375 318.56425 
L 870.40375 31.43625 
L 499.44375 31.43625 
L 499.44375 318.56425 
z
" style="fill: none"/>
   </g>
   <g id="matplotlib.axis_3">
    <g id="xtick_21">
     <g id="line2d_72">
      <g>
       <use xlink:href="#md39032bed2" x="533.564449" y="318.56425" style="stroke: #000000; stroke-width: 0.8"/>
      </g>
     </g>
     <g id="text_35">
      <!-- $\mathdefault{10^{2}}$ -->
      <g transform="translate(520.364449 336.961906)scale(0.15 -0.15)">
       <use xlink:href="#DejaVuSans-31" transform="translate(0 0.765625)"/>
       <use xlink:href="#DejaVuSans-30" transform="translate(63.623047 0.765625)"/>
       <use xlink:href="#DejaVuSans-32" transform="translate(128.203125 39.046875)scale(0.7)"/>
      </g>
     </g>
    </g>
    <g id="xtick_22">
     <g id="line2d_73">
      <g>
       <use xlink:href="#md39032bed2" x="709.607655" y="318.56425" style="stroke: #000000; stroke-width: 0.8"/>
      </g>
     </g>
     <g id="text_36">
      <!-- $\mathdefault{10^{3}}$ -->
      <g transform="translate(696.407655 336.961906)scale(0.15 -0.15)">
       <use xlink:href="#DejaVuSans-31" transform="translate(0 0.765625)"/>
       <use xlink:href="#DejaVuSans-30" transform="translate(63.623047 0.765625)"/>
       <use xlink:href="#DejaVuSans-33" transform="translate(128.203125 39.046875)scale(0.7)"/>
      </g>
     </g>
    </g>
    <g id="xtick_23">
     <g id="line2d_74">
      <g>
       <use xlink:href="#m00e623f56d" x="506.295011" y="318.56425" style="stroke: #000000; stroke-width: 0.6"/>
      </g>
     </g>
    </g>
    <g id="xtick_24">
     <g id="line2d_75">
      <g>
       <use xlink:href="#m00e623f56d" x="516.504099" y="318.56425" style="stroke: #000000; stroke-width: 0.6"/>
      </g>
     </g>
    </g>
    <g id="xtick_25">
     <g id="line2d_76">
      <g>
       <use xlink:href="#m00e623f56d" x="525.509154" y="318.56425" style="stroke: #000000; stroke-width: 0.6"/>
      </g>
     </g>
    </g>
    <g id="xtick_26">
     <g id="line2d_77">
      <g>
       <use xlink:href="#m00e623f56d" x="586.558735" y="318.56425" style="stroke: #000000; stroke-width: 0.6"/>
      </g>
     </g>
    </g>
    <g id="xtick_27">
     <g id="line2d_78">
      <g>
       <use xlink:href="#m00e623f56d" x="617.558404" y="318.56425" style="stroke: #000000; stroke-width: 0.6"/>
      </g>
     </g>
    </g>
    <g id="xtick_28">
     <g id="line2d_79">
      <g>
       <use xlink:href="#m00e623f56d" x="639.55302" y="318.56425" style="stroke: #000000; stroke-width: 0.6"/>
      </g>
     </g>
    </g>
    <g id="xtick_29">
     <g id="line2d_80">
      <g>
       <use xlink:href="#m00e623f56d" x="656.61337" y="318.56425" style="stroke: #000000; stroke-width: 0.6"/>
      </g>
     </g>
    </g>
    <g id="xtick_30">
     <g id="line2d_81">
      <g>
       <use xlink:href="#m00e623f56d" x="670.55269" y="318.56425" style="stroke: #000000; stroke-width: 0.6"/>
      </g>
     </g>
    </g>
    <g id="xtick_31">
     <g id="line2d_82">
      <g>
       <use xlink:href="#m00e623f56d" x="682.338218" y="318.56425" style="stroke: #000000; stroke-width: 0.6"/>
      </g>
     </g>
    </g>
    <g id="xtick_32">
     <g id="line2d_83">
      <g>
       <use xlink:href="#m00e623f56d" x="692.547306" y="318.56425" style="stroke: #000000; stroke-width: 0.6"/>
      </g>
     </g>
    </g>
    <g id="xtick_33">
     <g id="line2d_84">
      <g>
       <use xlink:href="#m00e623f56d" x="701.55236" y="318.56425" style="stroke: #000000; stroke-width: 0.6"/>
      </g>
     </g>
    </g>
    <g id="xtick_34">
     <g id="line2d_85">
      <g>
       <use xlink:href="#m00e623f56d" x="762.601941" y="318.56425" style="stroke: #000000; stroke-width: 0.6"/>
      </g>
     </g>
    </g>
    <g id="xtick_35">
     <g id="line2d_86">
      <g>
       <use xlink:href="#m00e623f56d" x="793.601611" y="318.56425" style="stroke: #000000; stroke-width: 0.6"/>
      </g>
     </g>
    </g>
    <g id="xtick_36">
     <g id="line2d_87">
      <g>
       <use xlink:href="#m00e623f56d" x="815.596227" y="318.56425" style="stroke: #000000; stroke-width: 0.6"/>
      </g>
     </g>
    </g>
    <g id="xtick_37">
     <g id="line2d_88">
      <g>
       <use xlink:href="#m00e623f56d" x="832.656576" y="318.56425" style="stroke: #000000; stroke-width: 0.6"/>
      </g>
     </g>
    </g>
    <g id="xtick_38">
     <g id="line2d_89">
      <g>
       <use xlink:href="#m00e623f56d" x="846.595897" y="318.56425" style="stroke: #000000; stroke-width: 0.6"/>
      </g>
     </g>
    </g>
    <g id="xtick_39">
     <g id="line2d_90">
      <g>
       <use xlink:href="#m00e623f56d" x="858.381424" y="318.56425" style="stroke: #000000; stroke-width: 0.6"/>
      </g>
     </g>
    </g>
    <g id="xtick_40">
     <g id="line2d_91">
      <g>
       <use xlink:href="#m00e623f56d" x="868.590513" y="318.56425" style="stroke: #000000; stroke-width: 0.6"/>
      </g>
     </g>
    </g>
    <g id="text_37">
     <!-- Page Count -->
     <g transform="translate(627.839375 359.278312)scale(0.2 -0.2)">
      <use xlink:href="#DejaVuSans-50"/>
      <use xlink:href="#DejaVuSans-61" x="55.802734"/>
      <use xlink:href="#DejaVuSans-67" x="117.082031"/>
      <use xlink:href="#DejaVuSans-65" x="180.558594"/>
      <use xlink:href="#DejaVuSans-20" x="242.082031"/>
      <use xlink:href="#DejaVuSans-43" x="273.869141"/>
      <use xlink:href="#DejaVuSans-6f" x="343.693359"/>
      <use xlink:href="#DejaVuSans-75" x="404.875"/>
      <use xlink:href="#DejaVuSans-6e" x="468.253906"/>
      <use xlink:href="#DejaVuSans-74" x="531.632812"/>
     </g>
    </g>
   </g>
   <g id="matplotlib.axis_4">
    <g id="ytick_10">
     <g id="line2d_92">
      <g>
       <use xlink:href="#m6f3f5b6aff" x="499.44375" y="305.394281" style="stroke: #000000; stroke-width: 0.8"/>
      </g>
     </g>
     <g id="text_38">
      <!-- 0 -->
      <g transform="translate(482.9 311.093109)scale(0.15 -0.15)">
       <use xlink:href="#DejaVuSans-30"/>
      </g>
     </g>
    </g>
    <g id="ytick_11">
     <g id="line2d_93">
      <g>
       <use xlink:href="#m6f3f5b6aff" x="499.44375" y="267.855901" style="stroke: #000000; stroke-width: 0.8"/>
      </g>
     </g>
     <g id="text_39">
      <!-- 5 -->
      <g transform="translate(482.9 273.554729)scale(0.15 -0.15)">
       <use xlink:href="#DejaVuSans-35"/>
      </g>
     </g>
    </g>
    <g id="ytick_12">
     <g id="line2d_94">
      <g>
       <use xlink:href="#m6f3f5b6aff" x="499.44375" y="230.31752" style="stroke: #000000; stroke-width: 0.8"/>
      </g>
     </g>
     <g id="text_40">
      <!-- 10 -->
      <g transform="translate(473.35625 236.016349)scale(0.15 -0.15)">
       <use xlink:href="#DejaVuSans-31"/>
       <use xlink:href="#DejaVuSans-30" x="63.623047"/>
      </g>
     </g>
    </g>
    <g id="ytick_13">
     <g id="line2d_95">
      <g>
       <use xlink:href="#m6f3f5b6aff" x="499.44375" y="192.77914" style="stroke: #000000; stroke-width: 0.8"/>
      </g>
     </g>
     <g id="text_41">
      <!-- 15 -->
      <g transform="translate(473.35625 198.477968)scale(0.15 -0.15)">
       <use xlink:href="#DejaVuSans-31"/>
       <use xlink:href="#DejaVuSans-35" x="63.623047"/>
      </g>
     </g>
    </g>
    <g id="ytick_14">
     <g id="line2d_96">
      <g>
       <use xlink:href="#m6f3f5b6aff" x="499.44375" y="155.24076" style="stroke: #000000; stroke-width: 0.8"/>
      </g>
     </g>
     <g id="text_42">
      <!-- 20 -->
      <g transform="translate(473.35625 160.939588)scale(0.15 -0.15)">
       <use xlink:href="#DejaVuSans-32"/>
       <use xlink:href="#DejaVuSans-30" x="63.623047"/>
      </g>
     </g>
    </g>
    <g id="ytick_15">
     <g id="line2d_97">
      <g>
       <use xlink:href="#m6f3f5b6aff" x="499.44375" y="117.70238" style="stroke: #000000; stroke-width: 0.8"/>
      </g>
     </g>
     <g id="text_43">
      <!-- 25 -->
      <g transform="translate(473.35625 123.401208)scale(0.15 -0.15)">
       <use xlink:href="#DejaVuSans-32"/>
       <use xlink:href="#DejaVuSans-35" x="63.623047"/>
      </g>
     </g>
    </g>
    <g id="ytick_16">
     <g id="line2d_98">
      <g>
       <use xlink:href="#m6f3f5b6aff" x="499.44375" y="80.163999" style="stroke: #000000; stroke-width: 0.8"/>
      </g>
     </g>
     <g id="text_44">
      <!-- 30 -->
      <g transform="translate(473.35625 85.862827)scale(0.15 -0.15)">
       <use xlink:href="#DejaVuSans-33"/>
       <use xlink:href="#DejaVuSans-30" x="63.623047"/>
      </g>
     </g>
    </g>
    <g id="ytick_17">
     <g id="line2d_99">
      <g>
       <use xlink:href="#m6f3f5b6aff" x="499.44375" y="42.625619" style="stroke: #000000; stroke-width: 0.8"/>
      </g>
     </g>
     <g id="text_45">
      <!-- 35 -->
      <g transform="translate(473.35625 48.324447)scale(0.15 -0.15)">
       <use xlink:href="#DejaVuSans-33"/>
       <use xlink:href="#DejaVuSans-35" x="63.623047"/>
      </g>
     </g>
    </g>
    <g id="text_46">
     <!-- Count Difference -->
     <g transform="translate(465.196875 259.57525)rotate(-90)scale(0.2 -0.2)">
      <use xlink:href="#DejaVuSans-43"/>
      <use xlink:href="#DejaVuSans-6f" x="69.824219"/>
      <use xlink:href="#DejaVuSans-75" x="131.005859"/>
      <use xlink:href="#DejaVuSans-6e" x="194.384766"/>
      <use xlink:href="#DejaVuSans-74" x="257.763672"/>
      <use xlink:href="#DejaVuSans-20" x="296.972656"/>
      <use xlink:href="#DejaVuSans-44" x="328.759766"/>
      <use xlink:href="#DejaVuSans-69" x="405.761719"/>
      <use xlink:href="#DejaVuSans-66" x="433.544922"/>
      <use xlink:href="#DejaVuSans-66" x="468.75"/>
      <use xlink:href="#DejaVuSans-65" x="503.955078"/>
      <use xlink:href="#DejaVuSans-72" x="565.478516"/>
      <use xlink:href="#DejaVuSans-65" x="604.341797"/>
      <use xlink:href="#DejaVuSans-6e" x="665.865234"/>
      <use xlink:href="#DejaVuSans-63" x="729.244141"/>
      <use xlink:href="#DejaVuSans-65" x="784.224609"/>
     </g>
    </g>
   </g>
   <g id="line2d_100">
    <path d="M 499.44375 220.907099 
L 530.44342 214.841572 
L 552.438036 213.263459 
L 569.498385 213.363686 
L 583.437706 213.305577 
L 605.432321 78.675828 
L 636.431991 79.086197 
L 658.426607 79.912868 
L 689.426277 82.605796 
L 711.420893 85.192491 
L 742.420563 114.087133 
L 764.415179 128.907586 
L 795.414848 117.628729 
L 817.409464 98.569668 
L 848.409134 94.210786 
L 870.40375 78.491815 
" clip-path="url(#pdddb5b98ef)" style="fill: none; stroke: #1f77b4; stroke-width: 1.5; stroke-linecap: square"/>
   </g>
   <g id="line2d_101">
    <path d="M 499.44375 304.728801 
L 530.44342 304.656502 
L 552.438036 304.657478 
L 569.498385 304.657628 
L 583.437706 304.644715 
L 605.432321 303.538383 
L 636.431991 303.576147 
L 658.426607 303.590111 
L 689.426277 303.60385 
L 711.420893 303.68208 
L 742.420563 303.888917 
L 764.415179 304.022628 
L 795.414848 303.965045 
L 817.409464 303.776227 
L 848.409134 303.728853 
L 870.40375 303.610983 
" clip-path="url(#pdddb5b98ef)" style="fill: none; stroke: #ff7f0e; stroke-width: 1.5; stroke-linecap: square"/>
   </g>
   <g id="line2d_102">
    <path d="M 499.44375 305.394281 
L 530.44342 305.394281 
L 552.438036 305.393755 
L 569.498385 305.104785 
L 583.437706 304.9481 
L 605.432321 297.916936 
L 636.431991 297.907777 
L 658.426607 297.908753 
L 689.426277 297.889458 
L 711.420893 297.88683 
L 742.420563 296.838533 
L 764.415179 295.663657 
L 795.414848 295.746767 
L 817.409464 295.689108 
L 848.409134 295.196755 
L 870.40375 295.104636 
" clip-path="url(#pdddb5b98ef)" style="fill: none; stroke: #2ca02c; stroke-width: 1.5; stroke-linecap: square"/>
   </g>
   <g id="line2d_103">
    <path d="M 499.44375 305.394431 
L 530.44342 305.394356 
L 552.438036 305.394056 
L 569.498385 305.394356 
L 583.437706 305.371758 
L 605.432321 305.394131 
L 636.431991 305.392554 
L 658.426607 305.396383 
L 689.426277 305.39781 
L 711.420893 305.387599 
L 742.420563 305.416203 
L 764.415179 305.512977 
L 795.414848 305.410122 
L 817.409464 304.785483 
L 848.409134 304.857707 
L 870.40375 304.592987 
" clip-path="url(#pdddb5b98ef)" style="fill: none; stroke: #d62728; stroke-width: 1.5; stroke-linecap: square"/>
   </g>
   <g id="line2d_104">
    <path d="M 499.44375 305.394281 
L 530.44342 305.394281 
L 552.438036 305.394281 
L 569.498385 305.394281 
L 583.437706 305.394281 
L 605.432321 305.394281 
L 636.431991 305.394281 
L 658.426607 305.394281 
L 689.426277 305.394056 
L 711.420893 305.393981 
L 742.420563 305.392554 
L 764.415179 305.394131 
L 795.414848 305.189472 
L 817.409464 299.635518 
L 848.409134 298.417172 
L 870.40375 298.325278 
" clip-path="url(#pdddb5b98ef)" style="fill: none; stroke: #9467bd; stroke-width: 1.5; stroke-linecap: square"/>
   </g>
   <g id="line2d_105">
    <path d="M 499.44375 305.395782 
L 530.44342 305.394281 
L 552.438036 305.371232 
L 569.498385 305.394356 
L 583.437706 305.395032 
L 605.432321 305.394731 
L 636.431991 305.392629 
L 658.426607 305.394206 
L 689.426277 305.394281 
L 711.420893 305.387899 
L 742.420563 305.411023 
L 764.415179 305.509599 
L 795.414848 305.39353 
L 817.409464 304.730978 
L 848.409134 304.802451 
L 870.40375 304.565283 
" clip-path="url(#pdddb5b98ef)" style="fill: none; stroke: #8c564b; stroke-width: 1.5; stroke-linecap: square"/>
   </g>
   <g id="line2d_106">
    <path d="M 499.44375 298.199975 
L 530.44342 298.708695 
L 552.438036 298.344948 
L 569.498385 297.925269 
L 583.437706 297.603115 
L 605.432321 297.865809 
L 636.431991 297.778344 
L 658.426607 297.854547 
L 689.426277 293.472917 
L 711.420893 291.174893 
L 742.420563 284.092827 
L 764.415179 263.319988 
L 795.414848 269.114187 
L 817.409464 267.987585 
L 848.409134 271.81665 
L 870.40375 279.581464 
" clip-path="url(#pdddb5b98ef)" style="fill: none; stroke: #e377c2; stroke-width: 1.5; stroke-linecap: square"/>
   </g>
   <g id="line2d_107">
    <path d="M 499.44375 305.294804 
L 530.44342 305.311696 
L 552.438036 305.30982 
L 569.498385 305.343304 
L 583.437706 305.281065 
L 605.432321 304.845695 
L 636.431991 304.748471 
L 658.426607 304.847347 
L 689.426277 305.201409 
L 711.420893 305.291276 
L 742.420563 301.87731 
L 764.415179 256.680049 
L 795.414848 214.327372 
L 817.409464 166.996955 
L 848.409134 135.099392 
L 870.40375 116.416765 
" clip-path="url(#pdddb5b98ef)" style="fill: none; stroke: #7f7f7f; stroke-width: 1.5; stroke-linecap: square"/>
   </g>
   <g id="line2d_108">
    <path d="M 499.44375 254.448543 
L 530.44342 254.332999 
L 552.438036 258.014839 
L 569.498385 258.701191 
L 583.437706 255.748046 
L 605.432321 253.440262 
L 636.431991 238.455691 
L 658.426607 228.712755 
L 689.426277 221.987228 
L 711.420893 218.999924 
L 742.420563 227.136293 
L 764.415179 225.737388 
L 795.414848 233.067882 
L 817.409464 255.161847 
L 848.409134 227.099055 
L 870.40375 238.610274 
" clip-path="url(#pdddb5b98ef)" style="fill: none; stroke: #bcbd22; stroke-width: 1.5; stroke-linecap: square"/>
   </g>
   <g id="line2d_109">
    <path d="M 499.44375 222.31171 
L 530.44342 214.565365 
L 552.438036 213.779987 
L 569.498385 213.300021 
L 583.437706 213.980592 
L 605.432321 78.855186 
L 636.431991 78.48273 
L 658.426607 78.782212 
L 689.426277 77.521523 
L 711.420893 77.696226 
L 742.420563 120.40702 
L 764.415179 160.425261 
L 795.414848 185.272815 
L 817.409464 184.082473 
L 848.409134 204.371893 
L 870.40375 210.057156 
" clip-path="url(#pdddb5b98ef)" style="fill: none; stroke: #17becf; stroke-width: 1.5; stroke-linecap: square"/>
   </g>
   <g id="line2d_110">
    <path d="M 499.44375 222.485813 
L 530.44342 214.678055 
L 552.438036 213.916552 
L 569.498385 213.33298 
L 583.437706 213.859869 
L 605.432321 78.825831 
L 636.431991 78.275669 
L 658.426607 78.748052 
L 689.426277 77.48451 
L 711.420893 77.717848 
L 742.420563 119.2386 
L 764.415179 138.617264 
L 795.414848 137.338631 
L 817.409464 104.015811 
L 848.409134 94.118217 
L 870.40375 83.702442 
" clip-path="url(#pdddb5b98ef)" style="fill: none; stroke-dasharray: 5.55,2.4; stroke-dashoffset: 0; stroke: #1f77b4; stroke-width: 1.5"/>
   </g>
   <g id="line2d_111">
    <path d="M 499.44375 222.147217 
L 530.44342 214.87303 
L 552.438036 213.185829 
L 569.498385 213.289435 
L 583.437706 213.439814 
L 605.432321 78.819825 
L 636.431991 78.407053 
L 658.426607 78.764869 
L 689.426277 77.293289 
L 711.420893 77.201095 
L 742.420563 117.102066 
L 764.415179 149.037918 
L 795.414848 157.462657 
L 817.409464 135.809993 
L 848.409134 141.537674 
L 870.40375 139.291153 
" clip-path="url(#pdddb5b98ef)" style="fill: none; stroke-dasharray: 5.55,2.4; stroke-dashoffset: 0; stroke: #ff7f0e; stroke-width: 1.5"/>
   </g>
   <g id="line2d_112">
    <path d="M 499.44375 248.804422 
L 530.44342 246.620589 
L 552.438036 251.596602 
L 569.498385 252.794526 
L 583.437706 249.949568 
L 605.432321 236.56218 
L 636.431991 222.864425 
L 658.426607 210.174426 
L 689.426277 206.611658 
L 711.420893 202.043087 
L 742.420563 206.999805 
L 764.415179 204.335406 
L 795.414848 207.332245 
L 817.409464 228.706824 
L 848.409134 198.438051 
L 870.40375 208.840462 
" clip-path="url(#pdddb5b98ef)" style="fill: none; stroke-dasharray: 5.55,2.4; stroke-dashoffset: 0; stroke: #2ca02c; stroke-width: 1.5"/>
   </g>
   <g id="line2d_113">
    <path d="M 499.44375 289.988229 
L 530.44342 289.673282 
L 552.438036 291.259354 
L 569.498385 292.300368 
L 583.437706 292.990324 
L 605.432321 297.828646 
L 636.431991 297.81363 
L 658.426607 297.8083 
L 689.426277 283.725776 
L 711.420893 276.486049 
L 742.420563 276.517056 
L 764.415179 280.416468 
L 795.414848 278.7852 
L 817.409464 284.318808 
L 848.409134 281.759141 
L 870.40375 280.608589 
" clip-path="url(#pdddb5b98ef)" style="fill: none; stroke-dasharray: 5.55,2.4; stroke-dashoffset: 0; stroke: #d62728; stroke-width: 1.5"/>
   </g>
   <g id="line2d_114">
    <path d="M 499.44375 297.224203 
L 530.44342 296.807076 
L 552.438036 296.869165 
L 569.498385 296.991089 
L 583.437706 297.087112 
L 605.432321 291.380002 
L 636.431991 291.38293 
L 658.426607 291.350347 
L 689.426277 291.330377 
L 711.420893 291.358455 
L 742.420563 291.447196 
L 764.415179 293.292358 
L 795.414848 291.419418 
L 817.409464 290.033275 
L 848.409134 286.702495 
L 870.40375 284.265353 
" clip-path="url(#pdddb5b98ef)" style="fill: none; stroke-dasharray: 5.55,2.4; stroke-dashoffset: 0; stroke: #9467bd; stroke-width: 1.5"/>
   </g>
   <g id="line2d_115">
    <path d="M 499.44375 305.394281 
L 530.44342 305.394356 
L 552.438036 305.393755 
L 569.498385 305.041345 
L 583.437706 304.944271 
L 605.432321 297.918888 
L 636.431991 297.909353 
L 658.426607 297.906725 
L 689.426277 297.894788 
L 711.420893 297.887956 
L 742.420563 297.817684 
L 764.415179 295.718989 
L 795.414848 295.568234 
L 817.409464 295.012141 
L 848.409134 294.83038 
L 870.40375 295.023327 
" clip-path="url(#pdddb5b98ef)" style="fill: none; stroke-dasharray: 5.55,2.4; stroke-dashoffset: 0; stroke: #8c564b; stroke-width: 1.5"/>
   </g>
   <g id="line2d_116">
    <path d="M 499.44375 222.234831 
L 530.44342 214.737216 
L 552.438036 213.59177 
L 569.498385 213.774281 
L 583.437706 214.323543 
L 605.432321 78.803383 
L 636.431991 78.4042 
L 658.426607 78.853309 
L 689.426277 77.111228 
L 711.420893 75.690175 
L 742.420563 92.168623 
L 764.415179 114.561769 
L 795.414848 107.725804 
L 817.409464 82.414876 
L 848.409134 62.31022 
L 870.40375 44.487523 
" clip-path="url(#pdddb5b98ef)" style="fill: none; stroke-dasharray: 5.55,2.4; stroke-dashoffset: 0; stroke: #e377c2; stroke-width: 1.5"/>
   </g>
   <g id="line2d_117">
    <path d="M 499.44375 301.400798 
L 530.44342 301.116257 
L 552.438036 301.167985 
L 569.498385 301.230674 
L 583.437706 301.276321 
L 605.432321 297.913182 
L 636.431991 297.906725 
L 658.426607 297.880899 
L 689.426277 289.63139 
L 711.420893 286.19858 
L 742.420563 286.395431 
L 764.415179 290.430957 
L 795.414848 290.736369 
L 817.409464 290.814299 
L 848.409134 289.172295 
L 870.40375 288.06679 
" clip-path="url(#pdddb5b98ef)" style="fill: none; stroke-dasharray: 5.55,2.4; stroke-dashoffset: 0; stroke: #7f7f7f; stroke-width: 1.5"/>
   </g>
   <g id="line2d_118">
    <path d="M 499.44375 290.733441 
L 530.44342 290.381481 
L 552.438036 291.201995 
L 569.498385 291.789921 
L 583.437706 292.05772 
L 605.432321 291.316112 
L 636.431991 291.300121 
L 658.426607 291.276922 
L 689.426277 277.194098 
L 711.420893 270.13861 
L 742.420563 270.179601 
L 764.415179 275.130914 
L 795.414848 272.726581 
L 817.409464 276.050154 
L 848.409134 272.368389 
L 870.40375 270.292217 
" clip-path="url(#pdddb5b98ef)" style="fill: none; stroke-dasharray: 5.55,2.4; stroke-dashoffset: 0; stroke: #bcbd22; stroke-width: 1.5"/>
   </g>
   <g id="line2d_119">
    <path d="M 499.44375 299.134681 
L 530.44342 298.469801 
L 552.438036 298.599008 
L 569.498385 298.822362 
L 583.437706 298.936478 
L 605.432321 291.383231 
L 636.431991 291.381879 
L 658.426607 291.351398 
L 689.426277 291.332854 
L 711.420893 291.41664 
L 742.420563 291.488038 
L 764.415179 293.431625 
L 795.414848 291.892101 
L 817.409464 290.748081 
L 848.409134 287.472482 
L 870.40375 285.079035 
" clip-path="url(#pdddb5b98ef)" style="fill: none; stroke-dasharray: 5.55,2.4; stroke-dashoffset: 0; stroke: #17becf; stroke-width: 1.5"/>
   </g>
   <g id="line2d_120">
    <path d="M 499.44375 305.394281 
L 530.44342 305.394281 
L 552.438036 305.394281 
L 569.498385 305.394281 
L 583.437706 305.394281 
L 605.432321 305.394281 
L 636.431991 305.394281 
L 658.426607 305.394281 
L 689.426277 305.394281 
L 711.420893 305.394056 
L 742.420563 305.393605 
L 764.415179 305.373635 
L 795.414848 305.37829 
L 817.409464 305.384146 
L 848.409134 303.4079 
L 870.40375 302.523195 
" clip-path="url(#pdddb5b98ef)" style="fill: none; stroke-dasharray: 9.6,2.4,1.5,2.4; stroke-dashoffset: 0; stroke: #1f77b4; stroke-width: 1.5"/>
   </g>
   <g id="line2d_121">
    <path d="M 499.44375 223.167885 
L 530.44342 214.897054 
L 552.438036 213.635915 
L 569.498385 214.614991 
L 583.437706 214.415061 
L 605.432321 117.471068 
L 636.431991 115.034377 
L 658.426607 112.340247 
L 689.426277 105.324099 
L 711.420893 100.89457 
L 742.420563 137.02939 
L 764.415179 171.190893 
L 795.414848 169.202635 
L 817.409464 142.831472 
L 848.409134 142.294974 
L 870.40375 140.854926 
" clip-path="url(#pdddb5b98ef)" style="fill: none; stroke-dasharray: 9.6,2.4,1.5,2.4; stroke-dashoffset: 0; stroke: #ff7f0e; stroke-width: 1.5"/>
   </g>
   <g id="line2d_122">
    <path d="M 499.44375 227.23119 
L 530.44342 219.762554 
L 552.438036 218.317927 
L 569.498385 223.033873 
L 583.437706 222.884921 
L 605.432321 167.343884 
L 636.431991 166.926533 
L 658.426607 167.550646 
L 689.426277 162.001497 
L 711.420893 158.376866 
L 742.420563 159.13379 
L 764.415179 181.872364 
L 795.414848 173.422249 
L 817.409464 172.85144 
L 848.409134 144.127898 
L 870.40375 124.411089 
" clip-path="url(#pdddb5b98ef)" style="fill: none; stroke-dasharray: 9.6,2.4,1.5,2.4; stroke-dashoffset: 0; stroke: #2ca02c; stroke-width: 1.5"/>
   </g>
   <g id="line2d_123">
    <path d="M 499.44375 237.639907 
L 530.44342 230.838553 
L 552.438036 229.322303 
L 569.498385 232.976214 
L 583.437706 233.707161 
L 605.432321 169.449938 
L 636.431991 168.217027 
L 658.426607 169.646489 
L 689.426277 164.558687 
L 711.420893 161.648787 
L 742.420563 162.653464 
L 764.415179 184.730761 
L 795.414848 176.795448 
L 817.409464 175.00802 
L 848.409134 146.403625 
L 870.40375 127.222789 
" clip-path="url(#pdddb5b98ef)" style="fill: none; stroke-dasharray: 9.6,2.4,1.5,2.4; stroke-dashoffset: 0; stroke: #d62728; stroke-width: 1.5"/>
   </g>
   <g id="line2d_124">
    <path d="M 499.44375 279.806244 
L 530.44342 274.147483 
L 552.438036 274.246735 
L 569.498385 273.214354 
L 583.437706 272.907065 
L 605.432321 199.423058 
L 636.431991 197.525793 
L 658.426607 199.305788 
L 689.426277 199.167422 
L 711.420893 201.030677 
L 742.420563 200.147098 
L 764.415179 216.835911 
L 795.414848 208.278137 
L 817.409464 200.695384 
L 848.409134 180.293124 
L 870.40375 170.958755 
" clip-path="url(#pdddb5b98ef)" style="fill: none; stroke-dasharray: 9.6,2.4,1.5,2.4; stroke-dashoffset: 0; stroke: #9467bd; stroke-width: 1.5"/>
   </g>
   <g id="line2d_125">
    <path d="M 499.44375 224.141406 
L 530.44342 214.021734 
L 552.438036 213.697553 
L 569.498385 214.165957 
L 583.437706 214.217534 
L 605.432321 78.806311 
L 636.431991 78.243085 
L 658.426607 78.753983 
L 689.426277 76.966555 
L 711.420893 75.658568 
L 742.420563 110.257092 
L 764.415179 147.472342 
L 795.414848 142.538748 
L 817.409464 103.96551 
L 848.409134 93.654317 
L 870.40375 80.987141 
" clip-path="url(#pdddb5b98ef)" style="fill: none; stroke-dasharray: 9.6,2.4,1.5,2.4; stroke-dashoffset: 0; stroke: #8c564b; stroke-width: 1.5"/>
   </g>
   <g id="line2d_126">
    <path d="M 499.44375 222.786345 
L 530.44342 214.44329 
L 552.438036 213.664669 
L 569.498385 214.507556 
L 583.437706 214.249742 
L 605.432321 78.816822 
L 636.431991 78.300444 
L 658.426607 78.760439 
L 689.426277 76.964303 
L 711.420893 75.663748 
L 742.420563 110.210169 
L 764.415179 147.644643 
L 795.414848 142.547081 
L 817.409464 104.011231 
L 848.409134 93.737953 
L 870.40375 80.90343 
" clip-path="url(#pdddb5b98ef)" style="fill: none; stroke-dasharray: 9.6,2.4,1.5,2.4; stroke-dashoffset: 0; stroke: #e377c2; stroke-width: 1.5"/>
   </g>
   <g id="line2d_127">
    <path d="M 499.44375 223.175994 
L 530.44342 214.118508 
L 552.438036 213.270366 
L 569.498385 214.495844 
L 583.437706 214.185326 
L 605.432321 78.816822 
L 636.431991 78.282876 
L 658.426607 78.751805 
L 689.426277 76.962651 
L 711.420893 75.64588 
L 742.420563 110.155288 
L 764.415179 147.766793 
L 795.414848 142.582743 
L 817.409464 103.926094 
L 848.409134 93.772413 
L 870.40375 80.424366 
" clip-path="url(#pdddb5b98ef)" style="fill: none; stroke-dasharray: 9.6,2.4,1.5,2.4; stroke-dashoffset: 0; stroke: #7f7f7f; stroke-width: 1.5"/>
   </g>
   <g id="line2d_128">
    <path d="M 499.44375 223.260455 
L 530.44342 214.130746 
L 552.438036 213.618647 
L 569.498385 214.908541 
L 583.437706 213.494921 
L 605.432321 78.831087 
L 636.431991 78.266584 
L 658.426607 78.744073 
L 689.426277 76.943582 
L 711.420893 75.63582 
L 742.420563 110.097629 
L 764.415179 147.536007 
L 795.414848 142.582142 
L 817.409464 103.977222 
L 848.409134 93.830973 
L 870.40375 80.637058 
" clip-path="url(#pdddb5b98ef)" style="fill: none; stroke-dasharray: 9.6,2.4,1.5,2.4; stroke-dashoffset: 0; stroke: #bcbd22; stroke-width: 1.5"/>
   </g>
   <g id="line2d_129">
    <path d="M 499.44375 223.179147 
L 530.44342 214.361757 
L 552.438036 213.084025 
L 569.498385 214.740594 
L 583.437706 213.961222 
L 605.432321 78.826957 
L 636.431991 78.280624 
L 658.426607 78.766295 
L 689.426277 76.906569 
L 711.420893 75.654889 
L 742.420563 109.749498 
L 764.415179 147.550272 
L 795.414848 142.692956 
L 817.409464 103.96093 
L 848.409134 93.82812 
L 870.40375 80.604925 
" clip-path="url(#pdddb5b98ef)" style="fill: none; stroke-dasharray: 9.6,2.4,1.5,2.4; stroke-dashoffset: 0; stroke: #17becf; stroke-width: 1.5"/>
   </g>
   <g id="line2d_130">
    <path d="M 569.498385 318.56425 
L 569.498385 31.43625 
" clip-path="url(#pdddb5b98ef)" style="fill: none; stroke: #ff0000; stroke-width: 1.5; stroke-linecap: square"/>
   </g>
   <g id="line2d_131">
    <path d="M 795.414848 318.56425 
L 795.414848 31.43625 
" clip-path="url(#pdddb5b98ef)" style="fill: none; stroke: #008000; stroke-width: 1.5; stroke-linecap: square"/>
   </g>
   <g id="patch_9">
    <path d="M 499.44375 318.56425 
L 499.44375 31.43625 
" style="fill: none; stroke: #000000; stroke-width: 0.8; stroke-linejoin: miter; stroke-linecap: square"/>
   </g>
   <g id="patch_10">
    <path d="M 870.40375 318.56425 
L 870.40375 31.43625 
" style="fill: none; stroke: #000000; stroke-width: 0.8; stroke-linejoin: miter; stroke-linecap: square"/>
   </g>
   <g id="patch_11">
    <path d="M 499.44375 318.56425 
L 870.40375 318.56425 
" style="fill: none; stroke: #000000; stroke-width: 0.8; stroke-linejoin: miter; stroke-linecap: square"/>
   </g>
   <g id="patch_12">
    <path d="M 499.44375 31.43625 
L 870.40375 31.43625 
" style="fill: none; stroke: #000000; stroke-width: 0.8; stroke-linejoin: miter; stroke-linecap: square"/>
   </g>
   <g id="text_47">
    <!-- Fire Storm (Call) -->
    <g transform="translate(588.0425 25.43625)scale(0.24 -0.24)">
     <defs>
      <path id="DejaVuSans-46" d="M 628 4666 
L 3309 4666 
L 3309 4134 
L 1259 4134 
L 1259 2759 
L 3109 2759 
L 3109 2228 
L 1259 2228 
L 1259 0 
L 628 0 
L 628 4666 
z
" transform="scale(0.015625)"/>
     </defs>
     <use xlink:href="#DejaVuSans-46"/>
     <use xlink:href="#DejaVuSans-69" x="50.269531"/>
     <use xlink:href="#DejaVuSans-72" x="78.052734"/>
     <use xlink:href="#DejaVuSans-65" x="116.916016"/>
     <use xlink:href="#DejaVuSans-20" x="178.439453"/>
     <use xlink:href="#DejaVuSans-53" x="210.226562"/>
     <use xlink:href="#DejaVuSans-74" x="273.703125"/>
     <use xlink:href="#DejaVuSans-6f" x="312.912109"/>
     <use xlink:href="#DejaVuSans-72" x="374.09375"/>
     <use xlink:href="#DejaVuSans-6d" x="413.457031"/>
     <use xlink:href="#DejaVuSans-20" x="510.869141"/>
     <use xlink:href="#DejaVuSans-28" x="542.65625"/>
     <use xlink:href="#DejaVuSans-43" x="581.669922"/>
     <use xlink:href="#DejaVuSans-61" x="651.494141"/>
     <use xlink:href="#DejaVuSans-6c" x="712.773438"/>
     <use xlink:href="#DejaVuSans-6c" x="740.556641"/>
     <use xlink:href="#DejaVuSans-29" x="768.339844"/>
    </g>
   </g>
   <g id="legend_2">
    <g id="patch_13">
     <path d="M 505.04375 205.5565 
L 804.08375 205.5565 
Q 805.68375 205.5565 805.68375 203.9565 
L 805.68375 146.044 
Q 805.68375 144.444 804.08375 144.444 
L 505.04375 144.444 
Q 503.44375 144.444 503.44375 146.044 
L 503.44375 203.9565 
Q 503.44375 205.5565 505.04375 205.5565 
z
" style="fill: #ffffff; opacity: 0.8; stroke: #cccccc; stroke-linejoin: miter"/>
    </g>
    <g id="line2d_132">
     <path d="M 506.64375 150.92275 
L 514.64375 150.92275 
L 522.64375 150.92275 
" style="fill: none; stroke: #1f77b4; stroke-width: 1.5; stroke-linecap: square"/>
    </g>
    <g id="text_48">
     <!-- 2 -->
     <g transform="translate(529.04375 153.72275)scale(0.08 -0.08)">
      <use xlink:href="#DejaVuSans-32"/>
     </g>
    </g>
    <g id="line2d_133">
     <path d="M 506.64375 162.66525 
L 514.64375 162.66525 
L 522.64375 162.66525 
" style="fill: none; stroke: #ff7f0e; stroke-width: 1.5; stroke-linecap: square"/>
    </g>
    <g id="text_49">
     <!-- 3 -->
     <g transform="translate(529.04375 165.46525)scale(0.08 -0.08)">
      <use xlink:href="#DejaVuSans-33"/>
     </g>
    </g>
    <g id="line2d_134">
     <path d="M 506.64375 174.40775 
L 514.64375 174.40775 
L 522.64375 174.40775 
" style="fill: none; stroke: #2ca02c; stroke-width: 1.5; stroke-linecap: square"/>
    </g>
    <g id="text_50">
     <!-- 4 -->
     <g transform="translate(529.04375 177.20775)scale(0.08 -0.08)">
      <use xlink:href="#DejaVuSans-34"/>
     </g>
    </g>
    <g id="line2d_135">
     <path d="M 506.64375 186.15025 
L 514.64375 186.15025 
L 522.64375 186.15025 
" style="fill: none; stroke: #d62728; stroke-width: 1.5; stroke-linecap: square"/>
    </g>
    <g id="text_51">
     <!-- 7 -->
     <g transform="translate(529.04375 188.95025)scale(0.08 -0.08)">
      <use xlink:href="#DejaVuSans-37"/>
     </g>
    </g>
    <g id="line2d_136">
     <path d="M 506.64375 197.89275 
L 514.64375 197.89275 
L 522.64375 197.89275 
" style="fill: none; stroke: #9467bd; stroke-width: 1.5; stroke-linecap: square"/>
    </g>
    <g id="text_52">
     <!-- 9 -->
     <g transform="translate(529.04375 200.69275)scale(0.08 -0.08)">
      <use xlink:href="#DejaVuSans-39"/>
     </g>
    </g>
    <g id="line2d_137">
     <path d="M 550.13375 150.92275 
L 558.13375 150.92275 
L 566.13375 150.92275 
" style="fill: none; stroke: #8c564b; stroke-width: 1.5; stroke-linecap: square"/>
    </g>
    <g id="text_53">
     <!-- 10 -->
     <g transform="translate(572.53375 153.72275)scale(0.08 -0.08)">
      <use xlink:href="#DejaVuSans-31"/>
      <use xlink:href="#DejaVuSans-30" x="63.623047"/>
     </g>
    </g>
    <g id="line2d_138">
     <path d="M 550.13375 162.66525 
L 558.13375 162.66525 
L 566.13375 162.66525 
" style="fill: none; stroke: #e377c2; stroke-width: 1.5; stroke-linecap: square"/>
    </g>
    <g id="text_54">
     <!-- 58 -->
     <g transform="translate(572.53375 165.46525)scale(0.08 -0.08)">
      <use xlink:href="#DejaVuSans-35"/>
      <use xlink:href="#DejaVuSans-38" x="63.623047"/>
     </g>
    </g>
    <g id="line2d_139">
     <path d="M 550.13375 174.40775 
L 558.13375 174.40775 
L 566.13375 174.40775 
" style="fill: none; stroke: #7f7f7f; stroke-width: 1.5; stroke-linecap: square"/>
    </g>
    <g id="text_55">
     <!-- 81 -->
     <g transform="translate(572.53375 177.20775)scale(0.08 -0.08)">
      <use xlink:href="#DejaVuSans-38"/>
      <use xlink:href="#DejaVuSans-31" x="63.623047"/>
     </g>
    </g>
    <g id="line2d_140">
     <path d="M 550.13375 186.15025 
L 558.13375 186.15025 
L 566.13375 186.15025 
" style="fill: none; stroke: #bcbd22; stroke-width: 1.5; stroke-linecap: square"/>
    </g>
    <g id="text_56">
     <!-- 97 -->
     <g transform="translate(572.53375 188.95025)scale(0.08 -0.08)">
      <use xlink:href="#DejaVuSans-39"/>
      <use xlink:href="#DejaVuSans-37" x="63.623047"/>
     </g>
    </g>
    <g id="line2d_141">
     <path d="M 550.13375 197.89275 
L 558.13375 197.89275 
L 566.13375 197.89275 
" style="fill: none; stroke: #17becf; stroke-width: 1.5; stroke-linecap: square"/>
    </g>
    <g id="text_57">
     <!-- 109 -->
     <g transform="translate(572.53375 200.69275)scale(0.08 -0.08)">
      <use xlink:href="#DejaVuSans-31"/>
      <use xlink:href="#DejaVuSans-30" x="63.623047"/>
      <use xlink:href="#DejaVuSans-39" x="127.246094"/>
     </g>
    </g>
    <g id="line2d_142">
     <path d="M 603.80375 150.92275 
L 611.80375 150.92275 
L 619.80375 150.92275 
" style="fill: none; stroke-dasharray: 5.55,2.4; stroke-dashoffset: 0; stroke: #1f77b4; stroke-width: 1.5"/>
    </g>
    <g id="text_58">
     <!-- 110 -->
     <g transform="translate(626.20375 153.72275)scale(0.08 -0.08)">
      <use xlink:href="#DejaVuSans-31"/>
      <use xlink:href="#DejaVuSans-31" x="63.623047"/>
      <use xlink:href="#DejaVuSans-30" x="127.246094"/>
     </g>
    </g>
    <g id="line2d_143">
     <path d="M 603.80375 162.66525 
L 611.80375 162.66525 
L 619.80375 162.66525 
" style="fill: none; stroke-dasharray: 5.55,2.4; stroke-dashoffset: 0; stroke: #ff7f0e; stroke-width: 1.5"/>
    </g>
    <g id="text_59">
     <!-- 130 -->
     <g transform="translate(626.20375 165.46525)scale(0.08 -0.08)">
      <use xlink:href="#DejaVuSans-31"/>
      <use xlink:href="#DejaVuSans-33" x="63.623047"/>
      <use xlink:href="#DejaVuSans-30" x="127.246094"/>
     </g>
    </g>
    <g id="line2d_144">
     <path d="M 603.80375 174.40775 
L 611.80375 174.40775 
L 619.80375 174.40775 
" style="fill: none; stroke-dasharray: 5.55,2.4; stroke-dashoffset: 0; stroke: #2ca02c; stroke-width: 1.5"/>
    </g>
    <g id="text_60">
     <!-- 208 -->
     <g transform="translate(626.20375 177.20775)scale(0.08 -0.08)">
      <use xlink:href="#DejaVuSans-32"/>
      <use xlink:href="#DejaVuSans-30" x="63.623047"/>
      <use xlink:href="#DejaVuSans-38" x="127.246094"/>
     </g>
    </g>
    <g id="line2d_145">
     <path d="M 603.80375 186.15025 
L 611.80375 186.15025 
L 619.80375 186.15025 
" style="fill: none; stroke-dasharray: 5.55,2.4; stroke-dashoffset: 0; stroke: #d62728; stroke-width: 1.5"/>
    </g>
    <g id="text_61">
     <!-- 210 -->
     <g transform="translate(626.20375 188.95025)scale(0.08 -0.08)">
      <use xlink:href="#DejaVuSans-32"/>
      <use xlink:href="#DejaVuSans-31" x="63.623047"/>
      <use xlink:href="#DejaVuSans-30" x="127.246094"/>
     </g>
    </g>
    <g id="line2d_146">
     <path d="M 603.80375 197.89275 
L 611.80375 197.89275 
L 619.80375 197.89275 
" style="fill: none; stroke-dasharray: 5.55,2.4; stroke-dashoffset: 0; stroke: #9467bd; stroke-width: 1.5"/>
    </g>
    <g id="text_62">
     <!-- 211 -->
     <g transform="translate(626.20375 200.69275)scale(0.08 -0.08)">
      <use xlink:href="#DejaVuSans-32"/>
      <use xlink:href="#DejaVuSans-31" x="63.623047"/>
      <use xlink:href="#DejaVuSans-31" x="127.246094"/>
     </g>
    </g>
    <g id="line2d_147">
     <path d="M 657.47375 150.92275 
L 665.47375 150.92275 
L 673.47375 150.92275 
" style="fill: none; stroke-dasharray: 5.55,2.4; stroke-dashoffset: 0; stroke: #8c564b; stroke-width: 1.5"/>
    </g>
    <g id="text_63">
     <!-- 212 -->
     <g transform="translate(679.87375 153.72275)scale(0.08 -0.08)">
      <use xlink:href="#DejaVuSans-32"/>
      <use xlink:href="#DejaVuSans-31" x="63.623047"/>
      <use xlink:href="#DejaVuSans-32" x="127.246094"/>
     </g>
    </g>
    <g id="line2d_148">
     <path d="M 657.47375 162.66525 
L 665.47375 162.66525 
L 673.47375 162.66525 
" style="fill: none; stroke-dasharray: 5.55,2.4; stroke-dashoffset: 0; stroke: #e377c2; stroke-width: 1.5"/>
    </g>
    <g id="text_64">
     <!-- 214 -->
     <g transform="translate(679.87375 165.46525)scale(0.08 -0.08)">
      <use xlink:href="#DejaVuSans-32"/>
      <use xlink:href="#DejaVuSans-31" x="63.623047"/>
      <use xlink:href="#DejaVuSans-34" x="127.246094"/>
     </g>
    </g>
    <g id="line2d_149">
     <path d="M 657.47375 174.40775 
L 665.47375 174.40775 
L 673.47375 174.40775 
" style="fill: none; stroke-dasharray: 5.55,2.4; stroke-dashoffset: 0; stroke: #7f7f7f; stroke-width: 1.5"/>
    </g>
    <g id="text_65">
     <!-- 217 -->
     <g transform="translate(679.87375 177.20775)scale(0.08 -0.08)">
      <use xlink:href="#DejaVuSans-32"/>
      <use xlink:href="#DejaVuSans-31" x="63.623047"/>
      <use xlink:href="#DejaVuSans-37" x="127.246094"/>
     </g>
    </g>
    <g id="line2d_150">
     <path d="M 657.47375 186.15025 
L 665.47375 186.15025 
L 673.47375 186.15025 
" style="fill: none; stroke-dasharray: 5.55,2.4; stroke-dashoffset: 0; stroke: #bcbd22; stroke-width: 1.5"/>
    </g>
    <g id="text_66">
     <!-- 218 -->
     <g transform="translate(679.87375 188.95025)scale(0.08 -0.08)">
      <use xlink:href="#DejaVuSans-32"/>
      <use xlink:href="#DejaVuSans-31" x="63.623047"/>
      <use xlink:href="#DejaVuSans-38" x="127.246094"/>
     </g>
    </g>
    <g id="line2d_151">
     <path d="M 657.47375 197.89275 
L 665.47375 197.89275 
L 673.47375 197.89275 
" style="fill: none; stroke-dasharray: 5.55,2.4; stroke-dashoffset: 0; stroke: #17becf; stroke-width: 1.5"/>
    </g>
    <g id="text_67">
     <!-- 219 -->
     <g transform="translate(679.87375 200.69275)scale(0.08 -0.08)">
      <use xlink:href="#DejaVuSans-32"/>
      <use xlink:href="#DejaVuSans-31" x="63.623047"/>
      <use xlink:href="#DejaVuSans-39" x="127.246094"/>
     </g>
    </g>
    <g id="line2d_152">
     <path d="M 711.14375 150.92275 
L 719.14375 150.92275 
L 727.14375 150.92275 
" style="fill: none; stroke-dasharray: 9.6,2.4,1.5,2.4; stroke-dashoffset: 0; stroke: #1f77b4; stroke-width: 1.5"/>
    </g>
    <g id="text_68">
     <!-- 223 -->
     <g transform="translate(733.54375 153.72275)scale(0.08 -0.08)">
      <use xlink:href="#DejaVuSans-32"/>
      <use xlink:href="#DejaVuSans-32" x="63.623047"/>
      <use xlink:href="#DejaVuSans-33" x="127.246094"/>
     </g>
    </g>
    <g id="line2d_153">
     <path d="M 711.14375 162.66525 
L 719.14375 162.66525 
L 727.14375 162.66525 
" style="fill: none; stroke-dasharray: 9.6,2.4,1.5,2.4; stroke-dashoffset: 0; stroke: #ff7f0e; stroke-width: 1.5"/>
    </g>
    <g id="text_69">
     <!-- 224 -->
     <g transform="translate(733.54375 165.46525)scale(0.08 -0.08)">
      <use xlink:href="#DejaVuSans-32"/>
      <use xlink:href="#DejaVuSans-32" x="63.623047"/>
      <use xlink:href="#DejaVuSans-34" x="127.246094"/>
     </g>
    </g>
    <g id="line2d_154">
     <path d="M 711.14375 174.40775 
L 719.14375 174.40775 
L 727.14375 174.40775 
" style="fill: none; stroke-dasharray: 9.6,2.4,1.5,2.4; stroke-dashoffset: 0; stroke: #2ca02c; stroke-width: 1.5"/>
    </g>
    <g id="text_70">
     <!-- 234 -->
     <g transform="translate(733.54375 177.20775)scale(0.08 -0.08)">
      <use xlink:href="#DejaVuSans-32"/>
      <use xlink:href="#DejaVuSans-33" x="63.623047"/>
      <use xlink:href="#DejaVuSans-34" x="127.246094"/>
     </g>
    </g>
    <g id="line2d_155">
     <path d="M 711.14375 186.15025 
L 719.14375 186.15025 
L 727.14375 186.15025 
" style="fill: none; stroke-dasharray: 9.6,2.4,1.5,2.4; stroke-dashoffset: 0; stroke: #d62728; stroke-width: 1.5"/>
    </g>
    <g id="text_71">
     <!-- 235 -->
     <g transform="translate(733.54375 188.95025)scale(0.08 -0.08)">
      <use xlink:href="#DejaVuSans-32"/>
      <use xlink:href="#DejaVuSans-33" x="63.623047"/>
      <use xlink:href="#DejaVuSans-35" x="127.246094"/>
     </g>
    </g>
    <g id="line2d_156">
     <path d="M 711.14375 197.89275 
L 719.14375 197.89275 
L 727.14375 197.89275 
" style="fill: none; stroke-dasharray: 9.6,2.4,1.5,2.4; stroke-dashoffset: 0; stroke: #9467bd; stroke-width: 1.5"/>
    </g>
    <g id="text_72">
     <!-- 236 -->
     <g transform="translate(733.54375 200.69275)scale(0.08 -0.08)">
      <use xlink:href="#DejaVuSans-32"/>
      <use xlink:href="#DejaVuSans-33" x="63.623047"/>
      <use xlink:href="#DejaVuSans-36" x="127.246094"/>
     </g>
    </g>
    <g id="line2d_157">
     <path d="M 764.81375 150.92275 
L 772.81375 150.92275 
L 780.81375 150.92275 
" style="fill: none; stroke-dasharray: 9.6,2.4,1.5,2.4; stroke-dashoffset: 0; stroke: #8c564b; stroke-width: 1.5"/>
    </g>
    <g id="text_73">
     <!-- 245 -->
     <g transform="translate(787.21375 153.72275)scale(0.08 -0.08)">
      <use xlink:href="#DejaVuSans-32"/>
      <use xlink:href="#DejaVuSans-34" x="63.623047"/>
      <use xlink:href="#DejaVuSans-35" x="127.246094"/>
     </g>
    </g>
    <g id="line2d_158">
     <path d="M 764.81375 162.66525 
L 772.81375 162.66525 
L 780.81375 162.66525 
" style="fill: none; stroke-dasharray: 9.6,2.4,1.5,2.4; stroke-dashoffset: 0; stroke: #e377c2; stroke-width: 1.5"/>
    </g>
    <g id="text_74">
     <!-- 246 -->
     <g transform="translate(787.21375 165.46525)scale(0.08 -0.08)">
      <use xlink:href="#DejaVuSans-32"/>
      <use xlink:href="#DejaVuSans-34" x="63.623047"/>
      <use xlink:href="#DejaVuSans-36" x="127.246094"/>
     </g>
    </g>
    <g id="line2d_159">
     <path d="M 764.81375 174.40775 
L 772.81375 174.40775 
L 780.81375 174.40775 
" style="fill: none; stroke-dasharray: 9.6,2.4,1.5,2.4; stroke-dashoffset: 0; stroke: #7f7f7f; stroke-width: 1.5"/>
    </g>
    <g id="text_75">
     <!-- 247 -->
     <g transform="translate(787.21375 177.20775)scale(0.08 -0.08)">
      <use xlink:href="#DejaVuSans-32"/>
      <use xlink:href="#DejaVuSans-34" x="63.623047"/>
      <use xlink:href="#DejaVuSans-37" x="127.246094"/>
     </g>
    </g>
    <g id="line2d_160">
     <path d="M 764.81375 186.15025 
L 772.81375 186.15025 
L 780.81375 186.15025 
" style="fill: none; stroke-dasharray: 9.6,2.4,1.5,2.4; stroke-dashoffset: 0; stroke: #bcbd22; stroke-width: 1.5"/>
    </g>
    <g id="text_76">
     <!-- 248 -->
     <g transform="translate(787.21375 188.95025)scale(0.08 -0.08)">
      <use xlink:href="#DejaVuSans-32"/>
      <use xlink:href="#DejaVuSans-34" x="63.623047"/>
      <use xlink:href="#DejaVuSans-38" x="127.246094"/>
     </g>
    </g>
    <g id="line2d_161">
     <path d="M 764.81375 197.89275 
L 772.81375 197.89275 
L 780.81375 197.89275 
" style="fill: none; stroke-dasharray: 9.6,2.4,1.5,2.4; stroke-dashoffset: 0; stroke: #17becf; stroke-width: 1.5"/>
    </g>
    <g id="text_77">
     <!-- 253 -->
     <g transform="translate(787.21375 200.69275)scale(0.08 -0.08)">
      <use xlink:href="#DejaVuSans-32"/>
      <use xlink:href="#DejaVuSans-35" x="63.623047"/>
      <use xlink:href="#DejaVuSans-33" x="127.246094"/>
     </g>
    </g>
   </g>
  </g>
 </g>
 <defs>
  <clipPath id="p7e817589b7">
   <rect x="56.64375" y="31.43625" width="370.96" height="287.128"/>
  </clipPath>
  <clipPath id="pdddb5b98ef">
   <rect x="499.44375" y="31.43625" width="370.96" height="287.128"/>
  </clipPath>
 </defs>
</svg>
