<?xml version="1.0" encoding="utf-8" standalone="no"?>
<!DOCTYPE svg PUBLIC "-//W3C//DTD SVG 1.1//EN"
  "http://www.w3.org/Graphics/SVG/1.1/DTD/svg11.dtd">
<svg xmlns:xlink="http://www.w3.org/1999/xlink" width="877.60375pt" height="370.637687pt" viewBox="0 0 877.60375 370.637687" xmlns="http://www.w3.org/2000/svg" version="1.1">
 <defs>
  <style type="text/css">*{stroke-linejoin: round; stroke-linecap: butt}</style>
 </defs>
 <g id="figure_1">
  <g id="patch_1">
   <path d="M 0 370.637687 
L 877.60375 370.637687 
L 877.60375 0 
L 0 0 
L 0 370.637687 
z
" style="fill: none"/>
  </g>
  <g id="axes_1">
   <g id="patch_2">
    <path d="M 56.64375 318.56425 
L 427.60375 318.56425 
L 427.60375 31.43625 
L 56.64375 31.43625 
L 56.64375 318.56425 
z
" style="fill: none"/>
   </g>
   <g id="matplotlib.axis_1">
    <g id="xtick_1">
     <g id="line2d_1">
      <defs>
       <path id="md39032bed2" d="M 0 0 
L 0 3.5 
" style="stroke: #000000; stroke-width: 0.8"/>
      </defs>
      <g>
       <use xlink:href="#md39032bed2" x="90.764449" y="318.56425" style="stroke: #000000; stroke-width: 0.8"/>
      </g>
     </g>
     <g id="text_1">
      <!-- $\mathdefault{10^{2}}$ -->
      <g transform="translate(77.564449 336.961906)scale(0.15 -0.15)">
       <defs>
        <path id="DejaVuSans-31" d="M 794 531 
L 1825 531 
L 1825 4091 
L 703 3866 
L 703 4441 
L 1819 4666 
L 2450 4666 
L 2450 531 
L 3481 531 
L 3481 0 
L 794 0 
L 794 531 
z
" transform="scale(0.015625)"/>
        <path id="DejaVuSans-30" d="M 2034 4250 
Q 1547 4250 1301 3770 
Q 1056 3291 1056 2328 
Q 1056 1369 1301 889 
Q 1547 409 2034 409 
Q 2525 409 2770 889 
Q 3016 1369 3016 2328 
Q 3016 3291 2770 3770 
Q 2525 4250 2034 4250 
z
M 2034 4750 
Q 2819 4750 3233 4129 
Q 3647 3509 3647 2328 
Q 3647 1150 3233 529 
Q 2819 -91 2034 -91 
Q 1250 -91 836 529 
Q 422 1150 422 2328 
Q 422 3509 836 4129 
Q 1250 4750 2034 4750 
z
" transform="scale(0.015625)"/>
        <path id="DejaVuSans-32" d="M 1228 531 
L 3431 531 
L 3431 0 
L 469 0 
L 469 531 
Q 828 903 1448 1529 
Q 2069 2156 2228 2338 
Q 2531 2678 2651 2914 
Q 2772 3150 2772 3378 
Q 2772 3750 2511 3984 
Q 2250 4219 1831 4219 
Q 1534 4219 1204 4116 
Q 875 4013 500 3803 
L 500 4441 
Q 881 4594 1212 4672 
Q 1544 4750 1819 4750 
Q 2544 4750 2975 4387 
Q 3406 4025 3406 3419 
Q 3406 3131 3298 2873 
Q 3191 2616 2906 2266 
Q 2828 2175 2409 1742 
Q 1991 1309 1228 531 
z
" transform="scale(0.015625)"/>
       </defs>
       <use xlink:href="#DejaVuSans-31" transform="translate(0 0.765625)"/>
       <use xlink:href="#DejaVuSans-30" transform="translate(63.623047 0.765625)"/>
       <use xlink:href="#DejaVuSans-32" transform="translate(128.203125 39.046875)scale(0.7)"/>
      </g>
     </g>
    </g>
    <g id="xtick_2">
     <g id="line2d_2">
      <g>
       <use xlink:href="#md39032bed2" x="266.807655" y="318.56425" style="stroke: #000000; stroke-width: 0.8"/>
      </g>
     </g>
     <g id="text_2">
      <!-- $\mathdefault{10^{3}}$ -->
      <g transform="translate(253.607655 336.961906)scale(0.15 -0.15)">
       <defs>
        <path id="DejaVuSans-33" d="M 2597 2516 
Q 3050 2419 3304 2112 
Q 3559 1806 3559 1356 
Q 3559 666 3084 287 
Q 2609 -91 1734 -91 
Q 1441 -91 1130 -33 
Q 819 25 488 141 
L 488 750 
Q 750 597 1062 519 
Q 1375 441 1716 441 
Q 2309 441 2620 675 
Q 2931 909 2931 1356 
Q 2931 1769 2642 2001 
Q 2353 2234 1838 2234 
L 1294 2234 
L 1294 2753 
L 1863 2753 
Q 2328 2753 2575 2939 
Q 2822 3125 2822 3475 
Q 2822 3834 2567 4026 
Q 2313 4219 1838 4219 
Q 1578 4219 1281 4162 
Q 984 4106 628 3988 
L 628 4550 
Q 988 4650 1302 4700 
Q 1616 4750 1894 4750 
Q 2613 4750 3031 4423 
Q 3450 4097 3450 3541 
Q 3450 3153 3228 2886 
Q 3006 2619 2597 2516 
z
" transform="scale(0.015625)"/>
       </defs>
       <use xlink:href="#DejaVuSans-31" transform="translate(0 0.765625)"/>
       <use xlink:href="#DejaVuSans-30" transform="translate(63.623047 0.765625)"/>
       <use xlink:href="#DejaVuSans-33" transform="translate(128.203125 39.046875)scale(0.7)"/>
      </g>
     </g>
    </g>
    <g id="xtick_3">
     <g id="line2d_3">
      <defs>
       <path id="m00e623f56d" d="M 0 0 
L 0 2 
" style="stroke: #000000; stroke-width: 0.6"/>
      </defs>
      <g>
       <use xlink:href="#m00e623f56d" x="63.495011" y="318.56425" style="stroke: #000000; stroke-width: 0.6"/>
      </g>
     </g>
    </g>
    <g id="xtick_4">
     <g id="line2d_4">
      <g>
       <use xlink:href="#m00e623f56d" x="73.704099" y="318.56425" style="stroke: #000000; stroke-width: 0.6"/>
      </g>
     </g>
    </g>
    <g id="xtick_5">
     <g id="line2d_5">
      <g>
       <use xlink:href="#m00e623f56d" x="82.709154" y="318.56425" style="stroke: #000000; stroke-width: 0.6"/>
      </g>
     </g>
    </g>
    <g id="xtick_6">
     <g id="line2d_6">
      <g>
       <use xlink:href="#m00e623f56d" x="143.758735" y="318.56425" style="stroke: #000000; stroke-width: 0.6"/>
      </g>
     </g>
    </g>
    <g id="xtick_7">
     <g id="line2d_7">
      <g>
       <use xlink:href="#m00e623f56d" x="174.758404" y="318.56425" style="stroke: #000000; stroke-width: 0.6"/>
      </g>
     </g>
    </g>
    <g id="xtick_8">
     <g id="line2d_8">
      <g>
       <use xlink:href="#m00e623f56d" x="196.75302" y="318.56425" style="stroke: #000000; stroke-width: 0.6"/>
      </g>
     </g>
    </g>
    <g id="xtick_9">
     <g id="line2d_9">
      <g>
       <use xlink:href="#m00e623f56d" x="213.81337" y="318.56425" style="stroke: #000000; stroke-width: 0.6"/>
      </g>
     </g>
    </g>
    <g id="xtick_10">
     <g id="line2d_10">
      <g>
       <use xlink:href="#m00e623f56d" x="227.75269" y="318.56425" style="stroke: #000000; stroke-width: 0.6"/>
      </g>
     </g>
    </g>
    <g id="xtick_11">
     <g id="line2d_11">
      <g>
       <use xlink:href="#m00e623f56d" x="239.538218" y="318.56425" style="stroke: #000000; stroke-width: 0.6"/>
      </g>
     </g>
    </g>
    <g id="xtick_12">
     <g id="line2d_12">
      <g>
       <use xlink:href="#m00e623f56d" x="249.747306" y="318.56425" style="stroke: #000000; stroke-width: 0.6"/>
      </g>
     </g>
    </g>
    <g id="xtick_13">
     <g id="line2d_13">
      <g>
       <use xlink:href="#m00e623f56d" x="258.75236" y="318.56425" style="stroke: #000000; stroke-width: 0.6"/>
      </g>
     </g>
    </g>
    <g id="xtick_14">
     <g id="line2d_14">
      <g>
       <use xlink:href="#m00e623f56d" x="319.801941" y="318.56425" style="stroke: #000000; stroke-width: 0.6"/>
      </g>
     </g>
    </g>
    <g id="xtick_15">
     <g id="line2d_15">
      <g>
       <use xlink:href="#m00e623f56d" x="350.801611" y="318.56425" style="stroke: #000000; stroke-width: 0.6"/>
      </g>
     </g>
    </g>
    <g id="xtick_16">
     <g id="line2d_16">
      <g>
       <use xlink:href="#m00e623f56d" x="372.796227" y="318.56425" style="stroke: #000000; stroke-width: 0.6"/>
      </g>
     </g>
    </g>
    <g id="xtick_17">
     <g id="line2d_17">
      <g>
       <use xlink:href="#m00e623f56d" x="389.856576" y="318.56425" style="stroke: #000000; stroke-width: 0.6"/>
      </g>
     </g>
    </g>
    <g id="xtick_18">
     <g id="line2d_18">
      <g>
       <use xlink:href="#m00e623f56d" x="403.795897" y="318.56425" style="stroke: #000000; stroke-width: 0.6"/>
      </g>
     </g>
    </g>
    <g id="xtick_19">
     <g id="line2d_19">
      <g>
       <use xlink:href="#m00e623f56d" x="415.581424" y="318.56425" style="stroke: #000000; stroke-width: 0.6"/>
      </g>
     </g>
    </g>
    <g id="xtick_20">
     <g id="line2d_20">
      <g>
       <use xlink:href="#m00e623f56d" x="425.790513" y="318.56425" style="stroke: #000000; stroke-width: 0.6"/>
      </g>
     </g>
    </g>
    <g id="text_3">
     <!-- Pages -->
     <g transform="translate(212.705 359.278312)scale(0.2 -0.2)">
      <defs>
       <path id="DejaVuSans-50" d="M 1259 4147 
L 1259 2394 
L 2053 2394 
Q 2494 2394 2734 2622 
Q 2975 2850 2975 3272 
Q 2975 3691 2734 3919 
Q 2494 4147 2053 4147 
L 1259 4147 
z
M 628 4666 
L 2053 4666 
Q 2838 4666 3239 4311 
Q 3641 3956 3641 3272 
Q 3641 2581 3239 2228 
Q 2838 1875 2053 1875 
L 1259 1875 
L 1259 0 
L 628 0 
L 628 4666 
z
" transform="scale(0.015625)"/>
       <path id="DejaVuSans-61" d="M 2194 1759 
Q 1497 1759 1228 1600 
Q 959 1441 959 1056 
Q 959 750 1161 570 
Q 1363 391 1709 391 
Q 2188 391 2477 730 
Q 2766 1069 2766 1631 
L 2766 1759 
L 2194 1759 
z
M 3341 1997 
L 3341 0 
L 2766 0 
L 2766 531 
Q 2569 213 2275 61 
Q 1981 -91 1556 -91 
Q 1019 -91 701 211 
Q 384 513 384 1019 
Q 384 1609 779 1909 
Q 1175 2209 1959 2209 
L 2766 2209 
L 2766 2266 
Q 2766 2663 2505 2880 
Q 2244 3097 1772 3097 
Q 1472 3097 1187 3025 
Q 903 2953 641 2809 
L 641 3341 
Q 956 3463 1253 3523 
Q 1550 3584 1831 3584 
Q 2591 3584 2966 3190 
Q 3341 2797 3341 1997 
z
" transform="scale(0.015625)"/>
       <path id="DejaVuSans-67" d="M 2906 1791 
Q 2906 2416 2648 2759 
Q 2391 3103 1925 3103 
Q 1463 3103 1205 2759 
Q 947 2416 947 1791 
Q 947 1169 1205 825 
Q 1463 481 1925 481 
Q 2391 481 2648 825 
Q 2906 1169 2906 1791 
z
M 3481 434 
Q 3481 -459 3084 -895 
Q 2688 -1331 1869 -1331 
Q 1566 -1331 1297 -1286 
Q 1028 -1241 775 -1147 
L 775 -588 
Q 1028 -725 1275 -790 
Q 1522 -856 1778 -856 
Q 2344 -856 2625 -561 
Q 2906 -266 2906 331 
L 2906 616 
Q 2728 306 2450 153 
Q 2172 0 1784 0 
Q 1141 0 747 490 
Q 353 981 353 1791 
Q 353 2603 747 3093 
Q 1141 3584 1784 3584 
Q 2172 3584 2450 3431 
Q 2728 3278 2906 2969 
L 2906 3500 
L 3481 3500 
L 3481 434 
z
" transform="scale(0.015625)"/>
       <path id="DejaVuSans-65" d="M 3597 1894 
L 3597 1613 
L 953 1613 
Q 991 1019 1311 708 
Q 1631 397 2203 397 
Q 2534 397 2845 478 
Q 3156 559 3463 722 
L 3463 178 
Q 3153 47 2828 -22 
Q 2503 -91 2169 -91 
Q 1331 -91 842 396 
Q 353 884 353 1716 
Q 353 2575 817 3079 
Q 1281 3584 2069 3584 
Q 2775 3584 3186 3129 
Q 3597 2675 3597 1894 
z
M 3022 2063 
Q 3016 2534 2758 2815 
Q 2500 3097 2075 3097 
Q 1594 3097 1305 2825 
Q 1016 2553 972 2059 
L 3022 2063 
z
" transform="scale(0.015625)"/>
       <path id="DejaVuSans-73" d="M 2834 3397 
L 2834 2853 
Q 2591 2978 2328 3040 
Q 2066 3103 1784 3103 
Q 1356 3103 1142 2972 
Q 928 2841 928 2578 
Q 928 2378 1081 2264 
Q 1234 2150 1697 2047 
L 1894 2003 
Q 2506 1872 2764 1633 
Q 3022 1394 3022 966 
Q 3022 478 2636 193 
Q 2250 -91 1575 -91 
Q 1294 -91 989 -36 
Q 684 19 347 128 
L 347 722 
Q 666 556 975 473 
Q 1284 391 1588 391 
Q 1994 391 2212 530 
Q 2431 669 2431 922 
Q 2431 1156 2273 1281 
Q 2116 1406 1581 1522 
L 1381 1569 
Q 847 1681 609 1914 
Q 372 2147 372 2553 
Q 372 3047 722 3315 
Q 1072 3584 1716 3584 
Q 2034 3584 2315 3537 
Q 2597 3491 2834 3397 
z
" transform="scale(0.015625)"/>
      </defs>
      <use xlink:href="#DejaVuSans-50"/>
      <use xlink:href="#DejaVuSans-61" x="55.802734"/>
      <use xlink:href="#DejaVuSans-67" x="117.082031"/>
      <use xlink:href="#DejaVuSans-65" x="180.558594"/>
      <use xlink:href="#DejaVuSans-73" x="242.082031"/>
     </g>
    </g>
   </g>
   <g id="matplotlib.axis_2">
    <g id="ytick_1">
     <g id="line2d_21">
      <defs>
       <path id="m6f3f5b6aff" d="M 0 0 
L -3.5 0 
" style="stroke: #000000; stroke-width: 0.8"/>
      </defs>
      <g>
       <use xlink:href="#m6f3f5b6aff" x="56.64375" y="305.427843" style="stroke: #000000; stroke-width: 0.8"/>
      </g>
     </g>
     <g id="text_4">
      <!-- 0 -->
      <g transform="translate(40.1 311.126672)scale(0.15 -0.15)">
       <use xlink:href="#DejaVuSans-30"/>
      </g>
     </g>
    </g>
    <g id="ytick_2">
     <g id="line2d_22">
      <g>
       <use xlink:href="#m6f3f5b6aff" x="56.64375" y="253.768993" style="stroke: #000000; stroke-width: 0.8"/>
      </g>
     </g>
     <g id="text_5">
      <!-- 5 -->
      <g transform="translate(40.1 259.467821)scale(0.15 -0.15)">
       <defs>
        <path id="DejaVuSans-35" d="M 691 4666 
L 3169 4666 
L 3169 4134 
L 1269 4134 
L 1269 2991 
Q 1406 3038 1543 3061 
Q 1681 3084 1819 3084 
Q 2600 3084 3056 2656 
Q 3513 2228 3513 1497 
Q 3513 744 3044 326 
Q 2575 -91 1722 -91 
Q 1428 -91 1123 -41 
Q 819 9 494 109 
L 494 744 
Q 775 591 1075 516 
Q 1375 441 1709 441 
Q 2250 441 2565 725 
Q 2881 1009 2881 1497 
Q 2881 1984 2565 2268 
Q 2250 2553 1709 2553 
Q 1456 2553 1204 2497 
Q 953 2441 691 2322 
L 691 4666 
z
" transform="scale(0.015625)"/>
       </defs>
       <use xlink:href="#DejaVuSans-35"/>
      </g>
     </g>
    </g>
    <g id="ytick_3">
     <g id="line2d_23">
      <g>
       <use xlink:href="#m6f3f5b6aff" x="56.64375" y="202.110143" style="stroke: #000000; stroke-width: 0.8"/>
      </g>
     </g>
     <g id="text_6">
      <!-- 10 -->
      <g transform="translate(30.55625 207.808971)scale(0.15 -0.15)">
       <use xlink:href="#DejaVuSans-31"/>
       <use xlink:href="#DejaVuSans-30" x="63.623047"/>
      </g>
     </g>
    </g>
    <g id="ytick_4">
     <g id="line2d_24">
      <g>
       <use xlink:href="#m6f3f5b6aff" x="56.64375" y="150.451293" style="stroke: #000000; stroke-width: 0.8"/>
      </g>
     </g>
     <g id="text_7">
      <!-- 15 -->
      <g transform="translate(30.55625 156.150121)scale(0.15 -0.15)">
       <use xlink:href="#DejaVuSans-31"/>
       <use xlink:href="#DejaVuSans-35" x="63.623047"/>
      </g>
     </g>
    </g>
    <g id="ytick_5">
     <g id="line2d_25">
      <g>
       <use xlink:href="#m6f3f5b6aff" x="56.64375" y="98.792443" style="stroke: #000000; stroke-width: 0.8"/>
      </g>
     </g>
     <g id="text_8">
      <!-- 20 -->
      <g transform="translate(30.55625 104.491271)scale(0.15 -0.15)">
       <use xlink:href="#DejaVuSans-32"/>
       <use xlink:href="#DejaVuSans-30" x="63.623047"/>
      </g>
     </g>
    </g>
    <g id="ytick_6">
     <g id="line2d_26">
      <g>
       <use xlink:href="#m6f3f5b6aff" x="56.64375" y="47.133592" style="stroke: #000000; stroke-width: 0.8"/>
      </g>
     </g>
     <g id="text_9">
      <!-- 25 -->
      <g transform="translate(30.55625 52.83242)scale(0.15 -0.15)">
       <use xlink:href="#DejaVuSans-32"/>
       <use xlink:href="#DejaVuSans-35" x="63.623047"/>
      </g>
     </g>
    </g>
    <g id="text_10">
     <!-- Count Difference -->
     <g transform="translate(22.396875 259.57525)rotate(-90)scale(0.2 -0.2)">
      <defs>
       <path id="DejaVuSans-43" d="M 4122 4306 
L 4122 3641 
Q 3803 3938 3442 4084 
Q 3081 4231 2675 4231 
Q 1875 4231 1450 3742 
Q 1025 3253 1025 2328 
Q 1025 1406 1450 917 
Q 1875 428 2675 428 
Q 3081 428 3442 575 
Q 3803 722 4122 1019 
L 4122 359 
Q 3791 134 3420 21 
Q 3050 -91 2638 -91 
Q 1578 -91 968 557 
Q 359 1206 359 2328 
Q 359 3453 968 4101 
Q 1578 4750 2638 4750 
Q 3056 4750 3426 4639 
Q 3797 4528 4122 4306 
z
" transform="scale(0.015625)"/>
       <path id="DejaVuSans-6f" d="M 1959 3097 
Q 1497 3097 1228 2736 
Q 959 2375 959 1747 
Q 959 1119 1226 758 
Q 1494 397 1959 397 
Q 2419 397 2687 759 
Q 2956 1122 2956 1747 
Q 2956 2369 2687 2733 
Q 2419 3097 1959 3097 
z
M 1959 3584 
Q 2709 3584 3137 3096 
Q 3566 2609 3566 1747 
Q 3566 888 3137 398 
Q 2709 -91 1959 -91 
Q 1206 -91 779 398 
Q 353 888 353 1747 
Q 353 2609 779 3096 
Q 1206 3584 1959 3584 
z
" transform="scale(0.015625)"/>
       <path id="DejaVuSans-75" d="M 544 1381 
L 544 3500 
L 1119 3500 
L 1119 1403 
Q 1119 906 1312 657 
Q 1506 409 1894 409 
Q 2359 409 2629 706 
Q 2900 1003 2900 1516 
L 2900 3500 
L 3475 3500 
L 3475 0 
L 2900 0 
L 2900 538 
Q 2691 219 2414 64 
Q 2138 -91 1772 -91 
Q 1169 -91 856 284 
Q 544 659 544 1381 
z
M 1991 3584 
L 1991 3584 
z
" transform="scale(0.015625)"/>
       <path id="DejaVuSans-6e" d="M 3513 2113 
L 3513 0 
L 2938 0 
L 2938 2094 
Q 2938 2591 2744 2837 
Q 2550 3084 2163 3084 
Q 1697 3084 1428 2787 
Q 1159 2491 1159 1978 
L 1159 0 
L 581 0 
L 581 3500 
L 1159 3500 
L 1159 2956 
Q 1366 3272 1645 3428 
Q 1925 3584 2291 3584 
Q 2894 3584 3203 3211 
Q 3513 2838 3513 2113 
z
" transform="scale(0.015625)"/>
       <path id="DejaVuSans-74" d="M 1172 4494 
L 1172 3500 
L 2356 3500 
L 2356 3053 
L 1172 3053 
L 1172 1153 
Q 1172 725 1289 603 
Q 1406 481 1766 481 
L 2356 481 
L 2356 0 
L 1766 0 
Q 1100 0 847 248 
Q 594 497 594 1153 
L 594 3053 
L 172 3053 
L 172 3500 
L 594 3500 
L 594 4494 
L 1172 4494 
z
" transform="scale(0.015625)"/>
       <path id="DejaVuSans-20" transform="scale(0.015625)"/>
       <path id="DejaVuSans-44" d="M 1259 4147 
L 1259 519 
L 2022 519 
Q 2988 519 3436 956 
Q 3884 1394 3884 2338 
Q 3884 3275 3436 3711 
Q 2988 4147 2022 4147 
L 1259 4147 
z
M 628 4666 
L 1925 4666 
Q 3281 4666 3915 4102 
Q 4550 3538 4550 2338 
Q 4550 1131 3912 565 
Q 3275 0 1925 0 
L 628 0 
L 628 4666 
z
" transform="scale(0.015625)"/>
       <path id="DejaVuSans-69" d="M 603 3500 
L 1178 3500 
L 1178 0 
L 603 0 
L 603 3500 
z
M 603 4863 
L 1178 4863 
L 1178 4134 
L 603 4134 
L 603 4863 
z
" transform="scale(0.015625)"/>
       <path id="DejaVuSans-66" d="M 2375 4863 
L 2375 4384 
L 1825 4384 
Q 1516 4384 1395 4259 
Q 1275 4134 1275 3809 
L 1275 3500 
L 2222 3500 
L 2222 3053 
L 1275 3053 
L 1275 0 
L 697 0 
L 697 3053 
L 147 3053 
L 147 3500 
L 697 3500 
L 697 3744 
Q 697 4328 969 4595 
Q 1241 4863 1831 4863 
L 2375 4863 
z
" transform="scale(0.015625)"/>
       <path id="DejaVuSans-72" d="M 2631 2963 
Q 2534 3019 2420 3045 
Q 2306 3072 2169 3072 
Q 1681 3072 1420 2755 
Q 1159 2438 1159 1844 
L 1159 0 
L 581 0 
L 581 3500 
L 1159 3500 
L 1159 2956 
Q 1341 3275 1631 3429 
Q 1922 3584 2338 3584 
Q 2397 3584 2469 3576 
Q 2541 3569 2628 3553 
L 2631 2963 
z
" transform="scale(0.015625)"/>
       <path id="DejaVuSans-63" d="M 3122 3366 
L 3122 2828 
Q 2878 2963 2633 3030 
Q 2388 3097 2138 3097 
Q 1578 3097 1268 2742 
Q 959 2388 959 1747 
Q 959 1106 1268 751 
Q 1578 397 2138 397 
Q 2388 397 2633 464 
Q 2878 531 3122 666 
L 3122 134 
Q 2881 22 2623 -34 
Q 2366 -91 2075 -91 
Q 1284 -91 818 406 
Q 353 903 353 1747 
Q 353 2603 823 3093 
Q 1294 3584 2113 3584 
Q 2378 3584 2631 3529 
Q 2884 3475 3122 3366 
z
" transform="scale(0.015625)"/>
      </defs>
      <use xlink:href="#DejaVuSans-43"/>
      <use xlink:href="#DejaVuSans-6f" x="69.824219"/>
      <use xlink:href="#DejaVuSans-75" x="131.005859"/>
      <use xlink:href="#DejaVuSans-6e" x="194.384766"/>
      <use xlink:href="#DejaVuSans-74" x="257.763672"/>
      <use xlink:href="#DejaVuSans-20" x="296.972656"/>
      <use xlink:href="#DejaVuSans-44" x="328.759766"/>
      <use xlink:href="#DejaVuSans-69" x="405.761719"/>
      <use xlink:href="#DejaVuSans-66" x="433.544922"/>
      <use xlink:href="#DejaVuSans-66" x="468.75"/>
      <use xlink:href="#DejaVuSans-65" x="503.955078"/>
      <use xlink:href="#DejaVuSans-72" x="565.478516"/>
      <use xlink:href="#DejaVuSans-65" x="604.341797"/>
      <use xlink:href="#DejaVuSans-6e" x="665.865234"/>
      <use xlink:href="#DejaVuSans-63" x="729.244141"/>
      <use xlink:href="#DejaVuSans-65" x="784.224609"/>
     </g>
    </g>
   </g>
   <g id="line2d_27">
    <path d="M 56.64375 238.229288 
L 87.64342 242.183153 
L 109.638036 241.477596 
L 126.698385 229.498529 
L 140.637706 220.145281 
L 162.632321 209.989461 
L 193.631991 200.906389 
L 215.626607 196.737726 
L 246.626277 191.104535 
L 268.620893 187.395533 
L 299.620563 113.167551 
L 321.615179 78.69281 
L 352.614848 79.148132 
L 374.609464 79.113417 
L 405.609134 59.091686 
L 427.60375 48.352741 
" clip-path="url(#p7e817589b7)" style="fill: none; stroke: #1f77b4; stroke-width: 1.5; stroke-linecap: square"/>
   </g>
   <g id="line2d_28">
    <path d="M 56.64375 304.876954 
L 87.64342 304.949689 
L 109.638036 304.936361 
L 126.698385 304.774979 
L 140.637706 304.761754 
L 162.632321 304.72611 
L 193.631991 304.586734 
L 215.626607 304.402209 
L 246.626277 304.01797 
L 268.620893 303.711427 
L 299.620563 302.886331 
L 321.615179 302.264049 
L 352.614848 302.268905 
L 374.609464 302.241422 
L 405.609134 301.993047 
L 427.60375 301.909463 
" clip-path="url(#p7e817589b7)" style="fill: none; stroke: #ff7f0e; stroke-width: 1.5; stroke-linecap: square"/>
   </g>
   <g id="line2d_29">
    <path d="M 56.64375 305.42681 
L 87.64342 305.335477 
L 109.638036 305.256233 
L 126.698385 303.212609 
L 140.637706 301.852328 
L 162.632321 300.134981 
L 193.631991 298.429102 
L 215.626607 297.576835 
L 246.626277 296.717541 
L 268.620893 296.2865 
L 299.620563 295.858971 
L 321.615179 295.646344 
L 352.614848 295.432063 
L 374.609464 295.317587 
L 405.609134 295.20962 
L 427.60375 295.158994 
" clip-path="url(#p7e817589b7)" style="fill: none; stroke: #2ca02c; stroke-width: 1.5; stroke-linecap: square"/>
   </g>
   <g id="line2d_30">
    <path d="M 56.64375 294.687039 
L 87.64342 297.478373 
L 109.638036 296.680037 
L 126.698385 290.356891 
L 140.637706 284.851297 
L 162.632321 281.541721 
L 193.631991 280.142283 
L 215.626607 280.872222 
L 246.626277 277.083252 
L 268.620893 274.674607 
L 299.620563 224.655305 
L 321.615179 201.719705 
L 352.614848 189.04438 
L 374.609464 195.444602 
L 405.609134 200.699443 
L 427.60375 199.060514 
" clip-path="url(#p7e817589b7)" style="fill: none; stroke: #d62728; stroke-width: 1.5; stroke-linecap: square"/>
   </g>
   <g id="line2d_31">
    <path d="M 56.64375 300.374471 
L 87.64342 300.371785 
L 109.638036 300.367136 
L 126.698385 300.349159 
L 140.637706 300.363003 
L 162.632321 300.334281 
L 193.631991 300.331285 
L 215.626607 300.330458 
L 246.626277 300.233133 
L 268.620893 300.191186 
L 299.620563 300.074953 
L 321.615179 300.046851 
L 352.614848 302.897593 
L 374.609464 303.748724 
L 405.609134 304.321414 
L 427.60375 304.631161 
" clip-path="url(#p7e817589b7)" style="fill: none; stroke: #9467bd; stroke-width: 1.5; stroke-linecap: square"/>
   </g>
   <g id="line2d_32">
    <path d="M 56.64375 248.438936 
L 87.64342 249.528938 
L 109.638036 247.294383 
L 126.698385 234.429986 
L 140.637706 224.304541 
L 162.632321 213.490898 
L 193.631991 203.308008 
L 215.626607 198.935603 
L 246.626277 192.953095 
L 268.620893 189.053265 
L 299.620563 116.287435 
L 321.615179 82.7066 
L 352.614848 81.030787 
L 374.609464 80.310456 
L 405.609134 59.335 
L 427.60375 48.877285 
" clip-path="url(#p7e817589b7)" style="fill: none; stroke: #8c564b; stroke-width: 1.5; stroke-linecap: square"/>
   </g>
   <g id="line2d_33">
    <path d="M 56.64375 256.418886 
L 87.64342 259.230367 
L 109.638036 260.682704 
L 126.698385 260.781785 
L 140.637706 260.360766 
L 162.632321 258.30371 
L 193.631991 254.068305 
L 215.626607 250.94594 
L 246.626277 246.928328 
L 268.620893 244.843584 
L 299.620563 240.631218 
L 321.615179 239.683175 
L 352.614848 263.087113 
L 374.609464 274.551762 
L 405.609134 284.930645 
L 427.60375 290.278162 
" clip-path="url(#p7e817589b7)" style="fill: none; stroke: #e377c2; stroke-width: 1.5; stroke-linecap: square"/>
   </g>
   <g id="line2d_34">
    <path d="M 56.64375 238.210794 
L 87.64342 242.19989 
L 109.638036 241.470571 
L 126.698385 229.540063 
L 140.637706 220.114595 
L 162.632321 209.954436 
L 193.631991 200.866921 
L 215.626607 196.657861 
L 246.626277 191.071163 
L 268.620893 187.243966 
L 299.620563 113.358689 
L 321.615179 78.978277 
L 352.614848 79.177474 
L 374.609464 78.996048 
L 405.609134 58.813038 
L 427.60375 47.295491 
" clip-path="url(#p7e817589b7)" style="fill: none; stroke: #7f7f7f; stroke-width: 1.5; stroke-linecap: square"/>
   </g>
   <g id="line2d_35">
    <path d="M 56.64375 238.216993 
L 87.64342 242.206813 
L 109.638036 241.484725 
L 126.698385 229.555457 
L 140.637706 220.158815 
L 162.632321 210.015084 
L 193.631991 200.917443 
L 215.626607 196.738346 
L 246.626277 191.142556 
L 268.620893 187.515485 
L 299.620563 122.225517 
L 321.615179 92.172464 
L 352.614848 96.693853 
L 374.609464 98.89452 
L 405.609134 83.391493 
L 427.60375 75.869758 
" clip-path="url(#p7e817589b7)" style="fill: none; stroke: #bcbd22; stroke-width: 1.5; stroke-linecap: square"/>
   </g>
   <g id="line2d_36">
    <path d="M 56.64375 289.758268 
L 87.64342 289.757028 
L 109.638036 289.76302 
L 126.698385 289.763227 
L 140.637706 289.752792 
L 162.632321 289.754652 
L 193.631991 289.747729 
L 215.626607 289.753412 
L 246.626277 289.437466 
L 268.620893 289.251288 
L 299.620563 288.532817 
L 321.615179 289.025539 
L 352.614848 298.349961 
L 374.609464 303.078606 
L 405.609134 303.872396 
L 427.60375 304.30788 
" clip-path="url(#p7e817589b7)" style="fill: none; stroke: #17becf; stroke-width: 1.5; stroke-linecap: square"/>
   </g>
   <g id="line2d_37">
    <path d="M 56.64375 305.421644 
L 87.64342 305.413896 
L 109.638036 305.411623 
L 126.698385 305.398398 
L 140.637706 305.388893 
L 162.632321 305.386413 
L 193.631991 305.320186 
L 215.626607 305.27297 
L 246.626277 303.978503 
L 268.620893 303.167046 
L 299.620563 295.314384 
L 321.615179 292.14563 
L 352.614848 293.229949 
L 374.609464 296.597073 
L 405.609134 301.091703 
L 427.60375 302.569973 
" clip-path="url(#p7e817589b7)" style="fill: none; stroke-dasharray: 5.55,2.4; stroke-dashoffset: 0; stroke: #1f77b4; stroke-width: 1.5"/>
   </g>
   <g id="line2d_38">
    <path d="M 56.64375 300.204617 
L 87.64342 300.204824 
L 109.638036 300.206064 
L 126.698385 300.20627 
L 140.637706 300.202241 
L 162.632321 300.203894 
L 193.631991 300.200381 
L 215.626607 300.200381 
L 246.626277 300.057596 
L 268.620893 299.984654 
L 299.620563 299.529023 
L 321.615179 299.549066 
L 352.614848 303.195148 
L 374.609464 304.556772 
L 405.609134 305.017156 
L 427.60375 305.09981 
" clip-path="url(#p7e817589b7)" style="fill: none; stroke-dasharray: 5.55,2.4; stroke-dashoffset: 0; stroke: #ff7f0e; stroke-width: 1.5"/>
   </g>
   <g id="line2d_39">
    <path d="M 56.64375 227.551507 
L 87.64342 234.651809 
L 109.638036 235.411401 
L 126.698385 224.179217 
L 140.637706 215.01597 
L 162.632321 205.083936 
L 193.631991 195.649997 
L 215.626607 191.099886 
L 246.626277 184.960748 
L 268.620893 180.75985 
L 299.620563 104.095843 
L 321.615179 68.920919 
L 352.614848 72.084507 
L 374.609464 74.526421 
L 405.609134 55.908158 
L 427.60375 44.487523 
" clip-path="url(#p7e817589b7)" style="fill: none; stroke-dasharray: 5.55,2.4; stroke-dashoffset: 0; stroke: #2ca02c; stroke-width: 1.5"/>
   </g>
   <g id="line2d_40">
    <path d="M 56.64375 300.203584 
L 87.64342 300.202034 
L 109.638036 300.202551 
L 126.698385 300.201931 
L 140.637706 300.196972 
L 162.632321 300.195732 
L 193.631991 300.180441 
L 215.626607 300.173209 
L 246.626277 299.853544 
L 268.620893 299.643189 
L 299.620563 298.144462 
L 321.615179 297.868811 
L 352.614848 302.175299 
L 374.609464 304.406445 
L 405.609134 305.275657 
L 427.60375 305.512977 
" clip-path="url(#p7e817589b7)" style="fill: none; stroke-dasharray: 5.55,2.4; stroke-dashoffset: 0; stroke: #d62728; stroke-width: 1.5"/>
   </g>
   <g id="line2d_41">
    <path d="M 56.64375 300.197592 
L 87.64342 300.191289 
L 109.638036 300.186123 
L 126.698385 300.175792 
L 140.637706 300.1667 
L 162.632321 300.154508 
L 193.631991 300.091484 
L 215.626607 300.043855 
L 246.626277 298.583356 
L 268.620893 297.678706 
L 299.620563 289.119868 
L 321.615179 285.870113 
L 352.614848 291.200686 
L 374.609464 295.795844 
L 405.609134 300.964829 
L 427.60375 302.543007 
" clip-path="url(#p7e817589b7)" style="fill: none; stroke-dasharray: 5.55,2.4; stroke-dashoffset: 0; stroke: #9467bd; stroke-width: 1.5"/>
   </g>
   <g id="line2d_42">
    <path d="M 56.64375 300.204101 
L 87.64342 300.204101 
L 109.638036 300.20565 
L 126.698385 300.205547 
L 140.637706 300.201828 
L 162.632321 300.203067 
L 193.631991 300.198521 
L 215.626607 300.196765 
L 246.626277 300.019885 
L 268.620893 299.932168 
L 299.620563 299.249032 
L 321.615179 299.163691 
L 352.614848 303.363349 
L 374.609464 304.630334 
L 405.609134 305.308718 
L 427.60375 305.411623 
" clip-path="url(#p7e817589b7)" style="fill: none; stroke-dasharray: 5.55,2.4; stroke-dashoffset: 0; stroke: #8c564b; stroke-width: 1.5"/>
   </g>
   <g id="line2d_43">
    <path d="M 56.64375 238.245302 
L 87.64342 242.229026 
L 109.638036 241.504666 
L 126.698385 229.574571 
L 140.637706 220.187951 
L 162.632321 210.065813 
L 193.631991 200.927879 
L 215.626607 196.743098 
L 246.626277 191.201034 
L 268.620893 187.972459 
L 299.620563 153.383759 
L 321.615179 139.043159 
L 352.614848 158.998973 
L 374.609464 168.909207 
L 405.609134 161.077518 
L 427.60375 157.213023 
" clip-path="url(#p7e817589b7)" style="fill: none; stroke-dasharray: 5.55,2.4; stroke-dashoffset: 0; stroke: #e377c2; stroke-width: 1.5"/>
   </g>
   <g id="line2d_44">
    <path d="M 56.64375 260.885103 
L 87.64342 262.619497 
L 109.638036 260.892542 
L 126.698385 261.94287 
L 140.637706 260.842743 
L 162.632321 260.850285 
L 193.631991 260.765151 
L 215.626607 260.728164 
L 246.626277 258.400829 
L 268.620893 257.019368 
L 299.620563 246.482616 
L 321.615179 243.974682 
L 352.614848 273.157593 
L 374.609464 289.414426 
L 405.609134 292.358464 
L 427.60375 291.548764 
" clip-path="url(#p7e817589b7)" style="fill: none; stroke-dasharray: 5.55,2.4; stroke-dashoffset: 0; stroke: #7f7f7f; stroke-width: 1.5"/>
   </g>
   <g id="line2d_45">
    <path d="M 56.64375 266.0638 
L 87.64342 267.724012 
L 109.638036 265.931346 
L 126.698385 265.115033 
L 140.637706 262.903414 
L 162.632321 261.754212 
L 193.631991 261.01766 
L 215.626607 260.800486 
L 246.626277 258.330263 
L 268.620893 257.178891 
L 299.620563 247.196334 
L 321.615179 244.741506 
L 352.614848 270.22244 
L 374.609464 284.175186 
L 405.609134 285.38049 
L 427.60375 283.280661 
" clip-path="url(#p7e817589b7)" style="fill: none; stroke-dasharray: 5.55,2.4; stroke-dashoffset: 0; stroke: #bcbd22; stroke-width: 1.5"/>
   </g>
   <g id="line2d_46">
    <path d="M 56.64375 261.21386 
L 87.64342 262.916949 
L 109.638036 261.16778 
L 126.698385 262.168516 
L 140.637706 261.029231 
L 162.632321 261.023859 
L 193.631991 260.815157 
L 215.626607 260.854624 
L 246.626277 258.721631 
L 268.620893 257.845806 
L 299.620563 249.961426 
L 321.615179 248.799619 
L 352.614848 276.713788 
L 374.609464 292.485648 
L 405.609134 294.112489 
L 427.60375 291.490596 
" clip-path="url(#p7e817589b7)" style="fill: none; stroke-dasharray: 5.55,2.4; stroke-dashoffset: 0; stroke: #17becf; stroke-width: 1.5"/>
   </g>
   <g id="line2d_47">
    <path d="M 56.64375 238.158412 
L 87.64342 242.213218 
L 109.638036 241.415192 
L 126.698385 229.523325 
L 140.637706 220.125857 
L 162.632321 209.960945 
L 193.631991 200.878079 
L 215.626607 196.682451 
L 246.626277 191.040788 
L 268.620893 187.32445 
L 299.620563 113.241216 
L 321.615179 78.868761 
L 352.614848 79.225103 
L 374.609464 79.137283 
L 405.609134 59.19893 
L 427.60375 46.911873 
" clip-path="url(#p7e817589b7)" style="fill: none; stroke-dasharray: 9.6,2.4,1.5,2.4; stroke-dashoffset: 0; stroke: #1f77b4; stroke-width: 1.5"/>
   </g>
   <g id="line2d_48">
    <path d="M 56.64375 238.169467 
L 87.64342 242.207639 
L 109.638036 241.465405 
L 126.698385 229.520019 
L 140.637706 220.114595 
L 162.632321 209.990701 
L 193.631991 200.867128 
L 215.626607 196.665507 
L 246.626277 191.046264 
L 268.620893 187.241486 
L 299.620563 113.238323 
L 321.615179 78.921039 
L 352.614848 79.154124 
L 374.609464 79.170552 
L 405.609134 58.712407 
L 427.60375 47.61061 
" clip-path="url(#p7e817589b7)" style="fill: none; stroke-dasharray: 9.6,2.4,1.5,2.4; stroke-dashoffset: 0; stroke: #ff7f0e; stroke-width: 1.5"/>
   </g>
   <g id="line2d_49">
    <path d="M 56.64375 238.197776 
L 87.64342 242.215698 
L 109.638036 241.483485 
L 126.698385 229.521569 
L 140.637706 220.115525 
L 162.632321 209.982642 
L 193.631991 200.882625 
L 215.626607 196.683484 
L 246.626277 191.041821 
L 268.620893 187.278577 
L 299.620563 113.323457 
L 321.615179 78.74013 
L 352.614848 79.185429 
L 374.609464 79.014232 
L 405.609134 59.194487 
L 427.60375 47.621355 
" clip-path="url(#p7e817589b7)" style="fill: none; stroke-dasharray: 9.6,2.4,1.5,2.4; stroke-dashoffset: 0; stroke: #2ca02c; stroke-width: 1.5"/>
   </g>
   <g id="line2d_50">
    <path d="M 56.64375 238.216993 
L 87.64342 242.215905 
L 109.638036 241.465302 
L 126.698385 229.523119 
L 140.637706 220.130506 
L 162.632321 209.970244 
L 193.631991 200.889031 
L 215.626607 196.669743 
L 246.626277 191.074883 
L 268.620893 187.254711 
L 299.620563 113.21921 
L 321.615179 79.046984 
L 352.614848 79.177061 
L 374.609464 79.171585 
L 405.609134 59.2852 
L 427.60375 47.344154 
" clip-path="url(#p7e817589b7)" style="fill: none; stroke-dasharray: 9.6,2.4,1.5,2.4; stroke-dashoffset: 0; stroke: #d62728; stroke-width: 1.5"/>
   </g>
   <g id="line2d_51">
    <path d="M 56.64375 238.218026 
L 87.64342 242.212495 
L 109.638036 241.468608 
L 126.698385 229.5163 
L 140.637706 220.115732 
L 162.632321 209.968177 
L 193.631991 200.865268 
L 215.626607 196.66778 
L 246.626277 191.031489 
L 268.620893 187.2793 
L 299.620563 113.314055 
L 321.615179 78.414576 
L 352.614848 79.146272 
L 374.609464 78.954101 
L 405.609134 58.387576 
L 427.60375 47.796582 
" clip-path="url(#p7e817589b7)" style="fill: none; stroke-dasharray: 9.6,2.4,1.5,2.4; stroke-dashoffset: 0; stroke: #9467bd; stroke-width: 1.5"/>
   </g>
   <g id="line2d_52">
    <path d="M 109.638036 318.56425 
L 109.638036 31.43625 
" clip-path="url(#p7e817589b7)" style="fill: none; stroke: #ff0000; stroke-width: 1.5; stroke-linecap: square"/>
   </g>
   <g id="line2d_53">
    <path d="M 268.620893 318.56425 
L 268.620893 31.43625 
" clip-path="url(#p7e817589b7)" style="fill: none; stroke: #008000; stroke-width: 1.5; stroke-linecap: square"/>
   </g>
   <g id="patch_3">
    <path d="M 56.64375 318.56425 
L 56.64375 31.43625 
" style="fill: none; stroke: #000000; stroke-width: 0.8; stroke-linejoin: miter; stroke-linecap: square"/>
   </g>
   <g id="patch_4">
    <path d="M 427.60375 318.56425 
L 427.60375 31.43625 
" style="fill: none; stroke: #000000; stroke-width: 0.8; stroke-linejoin: miter; stroke-linecap: square"/>
   </g>
   <g id="patch_5">
    <path d="M 56.64375 318.56425 
L 427.60375 318.56425 
" style="fill: none; stroke: #000000; stroke-width: 0.8; stroke-linejoin: miter; stroke-linecap: square"/>
   </g>
   <g id="patch_6">
    <path d="M 56.64375 31.43625 
L 427.60375 31.43625 
" style="fill: none; stroke: #000000; stroke-width: 0.8; stroke-linejoin: miter; stroke-linecap: square"/>
   </g>
   <g id="text_11">
    <!-- Ice Storm (Call) -->
    <g transform="translate(149.133125 25.43625)scale(0.24 -0.24)">
     <defs>
      <path id="DejaVuSans-49" d="M 628 4666 
L 1259 4666 
L 1259 0 
L 628 0 
L 628 4666 
z
" transform="scale(0.015625)"/>
      <path id="DejaVuSans-53" d="M 3425 4513 
L 3425 3897 
Q 3066 4069 2747 4153 
Q 2428 4238 2131 4238 
Q 1616 4238 1336 4038 
Q 1056 3838 1056 3469 
Q 1056 3159 1242 3001 
Q 1428 2844 1947 2747 
L 2328 2669 
Q 3034 2534 3370 2195 
Q 3706 1856 3706 1288 
Q 3706 609 3251 259 
Q 2797 -91 1919 -91 
Q 1588 -91 1214 -16 
Q 841 59 441 206 
L 441 856 
Q 825 641 1194 531 
Q 1563 422 1919 422 
Q 2459 422 2753 634 
Q 3047 847 3047 1241 
Q 3047 1584 2836 1778 
Q 2625 1972 2144 2069 
L 1759 2144 
Q 1053 2284 737 2584 
Q 422 2884 422 3419 
Q 422 4038 858 4394 
Q 1294 4750 2059 4750 
Q 2388 4750 2728 4690 
Q 3069 4631 3425 4513 
z
" transform="scale(0.015625)"/>
      <path id="DejaVuSans-6d" d="M 3328 2828 
Q 3544 3216 3844 3400 
Q 4144 3584 4550 3584 
Q 5097 3584 5394 3201 
Q 5691 2819 5691 2113 
L 5691 0 
L 5113 0 
L 5113 2094 
Q 5113 2597 4934 2840 
Q 4756 3084 4391 3084 
Q 3944 3084 3684 2787 
Q 3425 2491 3425 1978 
L 3425 0 
L 2847 0 
L 2847 2094 
Q 2847 2600 2669 2842 
Q 2491 3084 2119 3084 
Q 1678 3084 1418 2786 
Q 1159 2488 1159 1978 
L 1159 0 
L 581 0 
L 581 3500 
L 1159 3500 
L 1159 2956 
Q 1356 3278 1631 3431 
Q 1906 3584 2284 3584 
Q 2666 3584 2933 3390 
Q 3200 3197 3328 2828 
z
" transform="scale(0.015625)"/>
      <path id="DejaVuSans-28" d="M 1984 4856 
Q 1566 4138 1362 3434 
Q 1159 2731 1159 2009 
Q 1159 1288 1364 580 
Q 1569 -128 1984 -844 
L 1484 -844 
Q 1016 -109 783 600 
Q 550 1309 550 2009 
Q 550 2706 781 3412 
Q 1013 4119 1484 4856 
L 1984 4856 
z
" transform="scale(0.015625)"/>
      <path id="DejaVuSans-6c" d="M 603 4863 
L 1178 4863 
L 1178 0 
L 603 0 
L 603 4863 
z
" transform="scale(0.015625)"/>
      <path id="DejaVuSans-29" d="M 513 4856 
L 1013 4856 
Q 1481 4119 1714 3412 
Q 1947 2706 1947 2009 
Q 1947 1309 1714 600 
Q 1481 -109 1013 -844 
L 513 -844 
Q 928 -128 1133 580 
Q 1338 1288 1338 2009 
Q 1338 2731 1133 3434 
Q 928 4138 513 4856 
z
" transform="scale(0.015625)"/>
     </defs>
     <use xlink:href="#DejaVuSans-49"/>
     <use xlink:href="#DejaVuSans-63" x="29.492188"/>
     <use xlink:href="#DejaVuSans-65" x="84.472656"/>
     <use xlink:href="#DejaVuSans-20" x="145.996094"/>
     <use xlink:href="#DejaVuSans-53" x="177.783203"/>
     <use xlink:href="#DejaVuSans-74" x="241.259766"/>
     <use xlink:href="#DejaVuSans-6f" x="280.46875"/>
     <use xlink:href="#DejaVuSans-72" x="341.650391"/>
     <use xlink:href="#DejaVuSans-6d" x="381.013672"/>
     <use xlink:href="#DejaVuSans-20" x="478.425781"/>
     <use xlink:href="#DejaVuSans-28" x="510.212891"/>
     <use xlink:href="#DejaVuSans-43" x="549.226562"/>
     <use xlink:href="#DejaVuSans-61" x="619.050781"/>
     <use xlink:href="#DejaVuSans-6c" x="680.330078"/>
     <use xlink:href="#DejaVuSans-6c" x="708.113281"/>
     <use xlink:href="#DejaVuSans-29" x="735.896484"/>
    </g>
   </g>
   <g id="legend_1">
    <g id="patch_7">
     <path d="M 62.24375 96.54875 
L 366.37375 96.54875 
Q 367.97375 96.54875 367.97375 94.94875 
L 367.97375 37.03625 
Q 367.97375 35.43625 366.37375 35.43625 
L 62.24375 35.43625 
Q 60.64375 35.43625 60.64375 37.03625 
L 60.64375 94.94875 
Q 60.64375 96.54875 62.24375 96.54875 
z
" style="fill: #ffffff; opacity: 0.8; stroke: #cccccc; stroke-linejoin: miter"/>
    </g>
    <g id="line2d_54">
     <path d="M 63.84375 41.915 
L 71.84375 41.915 
L 79.84375 41.915 
" style="fill: none; stroke: #1f77b4; stroke-width: 1.5; stroke-linecap: square"/>
    </g>
    <g id="text_12">
     <!-- 2 -->
     <g transform="translate(86.24375 44.715)scale(0.08 -0.08)">
      <use xlink:href="#DejaVuSans-32"/>
     </g>
    </g>
    <g id="line2d_55">
     <path d="M 63.84375 53.6575 
L 71.84375 53.6575 
L 79.84375 53.6575 
" style="fill: none; stroke: #ff7f0e; stroke-width: 1.5; stroke-linecap: square"/>
    </g>
    <g id="text_13">
     <!-- 3 -->
     <g transform="translate(86.24375 56.4575)scale(0.08 -0.08)">
      <use xlink:href="#DejaVuSans-33"/>
     </g>
    </g>
    <g id="line2d_56">
     <path d="M 63.84375 65.4 
L 71.84375 65.4 
L 79.84375 65.4 
" style="fill: none; stroke: #2ca02c; stroke-width: 1.5; stroke-linecap: square"/>
    </g>
    <g id="text_14">
     <!-- 4 -->
     <g transform="translate(86.24375 68.2)scale(0.08 -0.08)">
      <defs>
       <path id="DejaVuSans-34" d="M 2419 4116 
L 825 1625 
L 2419 1625 
L 2419 4116 
z
M 2253 4666 
L 3047 4666 
L 3047 1625 
L 3713 1625 
L 3713 1100 
L 3047 1100 
L 3047 0 
L 2419 0 
L 2419 1100 
L 313 1100 
L 313 1709 
L 2253 4666 
z
" transform="scale(0.015625)"/>
      </defs>
      <use xlink:href="#DejaVuSans-34"/>
     </g>
    </g>
    <g id="line2d_57">
     <path d="M 63.84375 77.1425 
L 71.84375 77.1425 
L 79.84375 77.1425 
" style="fill: none; stroke: #d62728; stroke-width: 1.5; stroke-linecap: square"/>
    </g>
    <g id="text_15">
     <!-- 63 -->
     <g transform="translate(86.24375 79.9425)scale(0.08 -0.08)">
      <defs>
       <path id="DejaVuSans-36" d="M 2113 2584 
Q 1688 2584 1439 2293 
Q 1191 2003 1191 1497 
Q 1191 994 1439 701 
Q 1688 409 2113 409 
Q 2538 409 2786 701 
Q 3034 994 3034 1497 
Q 3034 2003 2786 2293 
Q 2538 2584 2113 2584 
z
M 3366 4563 
L 3366 3988 
Q 3128 4100 2886 4159 
Q 2644 4219 2406 4219 
Q 1781 4219 1451 3797 
Q 1122 3375 1075 2522 
Q 1259 2794 1537 2939 
Q 1816 3084 2150 3084 
Q 2853 3084 3261 2657 
Q 3669 2231 3669 1497 
Q 3669 778 3244 343 
Q 2819 -91 2113 -91 
Q 1303 -91 875 529 
Q 447 1150 447 2328 
Q 447 3434 972 4092 
Q 1497 4750 2381 4750 
Q 2619 4750 2861 4703 
Q 3103 4656 3366 4563 
z
" transform="scale(0.015625)"/>
      </defs>
      <use xlink:href="#DejaVuSans-36"/>
      <use xlink:href="#DejaVuSans-33" x="63.623047"/>
     </g>
    </g>
    <g id="line2d_58">
     <path d="M 63.84375 88.885 
L 71.84375 88.885 
L 79.84375 88.885 
" style="fill: none; stroke: #9467bd; stroke-width: 1.5; stroke-linecap: square"/>
    </g>
    <g id="text_16">
     <!-- 76 -->
     <g transform="translate(86.24375 91.685)scale(0.08 -0.08)">
      <defs>
       <path id="DejaVuSans-37" d="M 525 4666 
L 3525 4666 
L 3525 4397 
L 1831 0 
L 1172 0 
L 2766 4134 
L 525 4134 
L 525 4666 
z
" transform="scale(0.015625)"/>
      </defs>
      <use xlink:href="#DejaVuSans-37"/>
      <use xlink:href="#DejaVuSans-36" x="63.623047"/>
     </g>
    </g>
    <g id="line2d_59">
     <path d="M 112.42375 41.915 
L 120.42375 41.915 
L 128.42375 41.915 
" style="fill: none; stroke: #8c564b; stroke-width: 1.5; stroke-linecap: square"/>
    </g>
    <g id="text_17">
     <!-- 81 -->
     <g transform="translate(134.82375 44.715)scale(0.08 -0.08)">
      <defs>
       <path id="DejaVuSans-38" d="M 2034 2216 
Q 1584 2216 1326 1975 
Q 1069 1734 1069 1313 
Q 1069 891 1326 650 
Q 1584 409 2034 409 
Q 2484 409 2743 651 
Q 3003 894 3003 1313 
Q 3003 1734 2745 1975 
Q 2488 2216 2034 2216 
z
M 1403 2484 
Q 997 2584 770 2862 
Q 544 3141 544 3541 
Q 544 4100 942 4425 
Q 1341 4750 2034 4750 
Q 2731 4750 3128 4425 
Q 3525 4100 3525 3541 
Q 3525 3141 3298 2862 
Q 3072 2584 2669 2484 
Q 3125 2378 3379 2068 
Q 3634 1759 3634 1313 
Q 3634 634 3220 271 
Q 2806 -91 2034 -91 
Q 1263 -91 848 271 
Q 434 634 434 1313 
Q 434 1759 690 2068 
Q 947 2378 1403 2484 
z
M 1172 3481 
Q 1172 3119 1398 2916 
Q 1625 2713 2034 2713 
Q 2441 2713 2670 2916 
Q 2900 3119 2900 3481 
Q 2900 3844 2670 4047 
Q 2441 4250 2034 4250 
Q 1625 4250 1398 4047 
Q 1172 3844 1172 3481 
z
" transform="scale(0.015625)"/>
      </defs>
      <use xlink:href="#DejaVuSans-38"/>
      <use xlink:href="#DejaVuSans-31" x="63.623047"/>
     </g>
    </g>
    <g id="line2d_60">
     <path d="M 112.42375 53.6575 
L 120.42375 53.6575 
L 128.42375 53.6575 
" style="fill: none; stroke: #e377c2; stroke-width: 1.5; stroke-linecap: square"/>
    </g>
    <g id="text_18">
     <!-- 109 -->
     <g transform="translate(134.82375 56.4575)scale(0.08 -0.08)">
      <defs>
       <path id="DejaVuSans-39" d="M 703 97 
L 703 672 
Q 941 559 1184 500 
Q 1428 441 1663 441 
Q 2288 441 2617 861 
Q 2947 1281 2994 2138 
Q 2813 1869 2534 1725 
Q 2256 1581 1919 1581 
Q 1219 1581 811 2004 
Q 403 2428 403 3163 
Q 403 3881 828 4315 
Q 1253 4750 1959 4750 
Q 2769 4750 3195 4129 
Q 3622 3509 3622 2328 
Q 3622 1225 3098 567 
Q 2575 -91 1691 -91 
Q 1453 -91 1209 -44 
Q 966 3 703 97 
z
M 1959 2075 
Q 2384 2075 2632 2365 
Q 2881 2656 2881 3163 
Q 2881 3666 2632 3958 
Q 2384 4250 1959 4250 
Q 1534 4250 1286 3958 
Q 1038 3666 1038 3163 
Q 1038 2656 1286 2365 
Q 1534 2075 1959 2075 
z
" transform="scale(0.015625)"/>
      </defs>
      <use xlink:href="#DejaVuSans-31"/>
      <use xlink:href="#DejaVuSans-30" x="63.623047"/>
      <use xlink:href="#DejaVuSans-39" x="127.246094"/>
     </g>
    </g>
    <g id="line2d_61">
     <path d="M 112.42375 65.4 
L 120.42375 65.4 
L 128.42375 65.4 
" style="fill: none; stroke: #7f7f7f; stroke-width: 1.5; stroke-linecap: square"/>
    </g>
    <g id="text_19">
     <!-- 110 -->
     <g transform="translate(134.82375 68.2)scale(0.08 -0.08)">
      <use xlink:href="#DejaVuSans-31"/>
      <use xlink:href="#DejaVuSans-31" x="63.623047"/>
      <use xlink:href="#DejaVuSans-30" x="127.246094"/>
     </g>
    </g>
    <g id="line2d_62">
     <path d="M 112.42375 77.1425 
L 120.42375 77.1425 
L 128.42375 77.1425 
" style="fill: none; stroke: #bcbd22; stroke-width: 1.5; stroke-linecap: square"/>
    </g>
    <g id="text_20">
     <!-- 130 -->
     <g transform="translate(134.82375 79.9425)scale(0.08 -0.08)">
      <use xlink:href="#DejaVuSans-31"/>
      <use xlink:href="#DejaVuSans-33" x="63.623047"/>
      <use xlink:href="#DejaVuSans-30" x="127.246094"/>
     </g>
    </g>
    <g id="line2d_63">
     <path d="M 166.09375 41.915 
L 174.09375 41.915 
L 182.09375 41.915 
" style="fill: none; stroke: #17becf; stroke-width: 1.5; stroke-linecap: square"/>
    </g>
    <g id="text_21">
     <!-- 208 -->
     <g transform="translate(188.49375 44.715)scale(0.08 -0.08)">
      <use xlink:href="#DejaVuSans-32"/>
      <use xlink:href="#DejaVuSans-30" x="63.623047"/>
      <use xlink:href="#DejaVuSans-38" x="127.246094"/>
     </g>
    </g>
    <g id="line2d_64">
     <path d="M 166.09375 53.6575 
L 174.09375 53.6575 
L 182.09375 53.6575 
" style="fill: none; stroke-dasharray: 5.55,2.4; stroke-dashoffset: 0; stroke: #1f77b4; stroke-width: 1.5"/>
    </g>
    <g id="text_22">
     <!-- 210 -->
     <g transform="translate(188.49375 56.4575)scale(0.08 -0.08)">
      <use xlink:href="#DejaVuSans-32"/>
      <use xlink:href="#DejaVuSans-31" x="63.623047"/>
      <use xlink:href="#DejaVuSans-30" x="127.246094"/>
     </g>
    </g>
    <g id="line2d_65">
     <path d="M 166.09375 65.4 
L 174.09375 65.4 
L 182.09375 65.4 
" style="fill: none; stroke-dasharray: 5.55,2.4; stroke-dashoffset: 0; stroke: #ff7f0e; stroke-width: 1.5"/>
    </g>
    <g id="text_23">
     <!-- 211 -->
     <g transform="translate(188.49375 68.2)scale(0.08 -0.08)">
      <use xlink:href="#DejaVuSans-32"/>
      <use xlink:href="#DejaVuSans-31" x="63.623047"/>
      <use xlink:href="#DejaVuSans-31" x="127.246094"/>
     </g>
    </g>
    <g id="line2d_66">
     <path d="M 166.09375 77.1425 
L 174.09375 77.1425 
L 182.09375 77.1425 
" style="fill: none; stroke-dasharray: 5.55,2.4; stroke-dashoffset: 0; stroke: #2ca02c; stroke-width: 1.5"/>
    </g>
    <g id="text_24">
     <!-- 214 -->
     <g transform="translate(188.49375 79.9425)scale(0.08 -0.08)">
      <use xlink:href="#DejaVuSans-32"/>
      <use xlink:href="#DejaVuSans-31" x="63.623047"/>
      <use xlink:href="#DejaVuSans-34" x="127.246094"/>
     </g>
    </g>
    <g id="line2d_67">
     <path d="M 219.76375 41.915 
L 227.76375 41.915 
L 235.76375 41.915 
" style="fill: none; stroke-dasharray: 5.55,2.4; stroke-dashoffset: 0; stroke: #d62728; stroke-width: 1.5"/>
    </g>
    <g id="text_25">
     <!-- 217 -->
     <g transform="translate(242.16375 44.715)scale(0.08 -0.08)">
      <use xlink:href="#DejaVuSans-32"/>
      <use xlink:href="#DejaVuSans-31" x="63.623047"/>
      <use xlink:href="#DejaVuSans-37" x="127.246094"/>
     </g>
    </g>
    <g id="line2d_68">
     <path d="M 219.76375 53.6575 
L 227.76375 53.6575 
L 235.76375 53.6575 
" style="fill: none; stroke-dasharray: 5.55,2.4; stroke-dashoffset: 0; stroke: #9467bd; stroke-width: 1.5"/>
    </g>
    <g id="text_26">
     <!-- 218 -->
     <g transform="translate(242.16375 56.4575)scale(0.08 -0.08)">
      <use xlink:href="#DejaVuSans-32"/>
      <use xlink:href="#DejaVuSans-31" x="63.623047"/>
      <use xlink:href="#DejaVuSans-38" x="127.246094"/>
     </g>
    </g>
    <g id="line2d_69">
     <path d="M 219.76375 65.4 
L 227.76375 65.4 
L 235.76375 65.4 
" style="fill: none; stroke-dasharray: 5.55,2.4; stroke-dashoffset: 0; stroke: #8c564b; stroke-width: 1.5"/>
    </g>
    <g id="text_27">
     <!-- 219 -->
     <g transform="translate(242.16375 68.2)scale(0.08 -0.08)">
      <use xlink:href="#DejaVuSans-32"/>
      <use xlink:href="#DejaVuSans-31" x="63.623047"/>
      <use xlink:href="#DejaVuSans-39" x="127.246094"/>
     </g>
    </g>
    <g id="line2d_70">
     <path d="M 219.76375 77.1425 
L 227.76375 77.1425 
L 235.76375 77.1425 
" style="fill: none; stroke-dasharray: 5.55,2.4; stroke-dashoffset: 0; stroke: #e377c2; stroke-width: 1.5"/>
    </g>
    <g id="text_28">
     <!-- 224 -->
     <g transform="translate(242.16375 79.9425)scale(0.08 -0.08)">
      <use xlink:href="#DejaVuSans-32"/>
      <use xlink:href="#DejaVuSans-32" x="63.623047"/>
      <use xlink:href="#DejaVuSans-34" x="127.246094"/>
     </g>
    </g>
    <g id="line2d_71">
     <path d="M 273.43375 41.915 
L 281.43375 41.915 
L 289.43375 41.915 
" style="fill: none; stroke-dasharray: 5.55,2.4; stroke-dashoffset: 0; stroke: #7f7f7f; stroke-width: 1.5"/>
    </g>
    <g id="text_29">
     <!-- 234 -->
     <g transform="translate(295.83375 44.715)scale(0.08 -0.08)">
      <use xlink:href="#DejaVuSans-32"/>
      <use xlink:href="#DejaVuSans-33" x="63.623047"/>
      <use xlink:href="#DejaVuSans-34" x="127.246094"/>
     </g>
    </g>
    <g id="line2d_72">
     <path d="M 273.43375 53.6575 
L 281.43375 53.6575 
L 289.43375 53.6575 
" style="fill: none; stroke-dasharray: 5.55,2.4; stroke-dashoffset: 0; stroke: #bcbd22; stroke-width: 1.5"/>
    </g>
    <g id="text_30">
     <!-- 235 -->
     <g transform="translate(295.83375 56.4575)scale(0.08 -0.08)">
      <use xlink:href="#DejaVuSans-32"/>
      <use xlink:href="#DejaVuSans-33" x="63.623047"/>
      <use xlink:href="#DejaVuSans-35" x="127.246094"/>
     </g>
    </g>
    <g id="line2d_73">
     <path d="M 273.43375 65.4 
L 281.43375 65.4 
L 289.43375 65.4 
" style="fill: none; stroke-dasharray: 5.55,2.4; stroke-dashoffset: 0; stroke: #17becf; stroke-width: 1.5"/>
    </g>
    <g id="text_31">
     <!-- 236 -->
     <g transform="translate(295.83375 68.2)scale(0.08 -0.08)">
      <use xlink:href="#DejaVuSans-32"/>
      <use xlink:href="#DejaVuSans-33" x="63.623047"/>
      <use xlink:href="#DejaVuSans-36" x="127.246094"/>
     </g>
    </g>
    <g id="line2d_74">
     <path d="M 273.43375 77.1425 
L 281.43375 77.1425 
L 289.43375 77.1425 
" style="fill: none; stroke-dasharray: 9.6,2.4,1.5,2.4; stroke-dashoffset: 0; stroke: #1f77b4; stroke-width: 1.5"/>
    </g>
    <g id="text_32">
     <!-- 245 -->
     <g transform="translate(295.83375 79.9425)scale(0.08 -0.08)">
      <use xlink:href="#DejaVuSans-32"/>
      <use xlink:href="#DejaVuSans-34" x="63.623047"/>
      <use xlink:href="#DejaVuSans-35" x="127.246094"/>
     </g>
    </g>
    <g id="line2d_75">
     <path d="M 327.10375 41.915 
L 335.10375 41.915 
L 343.10375 41.915 
" style="fill: none; stroke-dasharray: 9.6,2.4,1.5,2.4; stroke-dashoffset: 0; stroke: #ff7f0e; stroke-width: 1.5"/>
    </g>
    <g id="text_33">
     <!-- 246 -->
     <g transform="translate(349.50375 44.715)scale(0.08 -0.08)">
      <use xlink:href="#DejaVuSans-32"/>
      <use xlink:href="#DejaVuSans-34" x="63.623047"/>
      <use xlink:href="#DejaVuSans-36" x="127.246094"/>
     </g>
    </g>
    <g id="line2d_76">
     <path d="M 327.10375 53.6575 
L 335.10375 53.6575 
L 343.10375 53.6575 
" style="fill: none; stroke-dasharray: 9.6,2.4,1.5,2.4; stroke-dashoffset: 0; stroke: #2ca02c; stroke-width: 1.5"/>
    </g>
    <g id="text_34">
     <!-- 247 -->
     <g transform="translate(349.50375 56.4575)scale(0.08 -0.08)">
      <use xlink:href="#DejaVuSans-32"/>
      <use xlink:href="#DejaVuSans-34" x="63.623047"/>
      <use xlink:href="#DejaVuSans-37" x="127.246094"/>
     </g>
    </g>
    <g id="line2d_77">
     <path d="M 327.10375 65.4 
L 335.10375 65.4 
L 343.10375 65.4 
" style="fill: none; stroke-dasharray: 9.6,2.4,1.5,2.4; stroke-dashoffset: 0; stroke: #d62728; stroke-width: 1.5"/>
    </g>
    <g id="text_35">
     <!-- 248 -->
     <g transform="translate(349.50375 68.2)scale(0.08 -0.08)">
      <use xlink:href="#DejaVuSans-32"/>
      <use xlink:href="#DejaVuSans-34" x="63.623047"/>
      <use xlink:href="#DejaVuSans-38" x="127.246094"/>
     </g>
    </g>
    <g id="line2d_78">
     <path d="M 327.10375 77.1425 
L 335.10375 77.1425 
L 343.10375 77.1425 
" style="fill: none; stroke-dasharray: 9.6,2.4,1.5,2.4; stroke-dashoffset: 0; stroke: #9467bd; stroke-width: 1.5"/>
    </g>
    <g id="text_36">
     <!-- 253 -->
     <g transform="translate(349.50375 79.9425)scale(0.08 -0.08)">
      <use xlink:href="#DejaVuSans-32"/>
      <use xlink:href="#DejaVuSans-35" x="63.623047"/>
      <use xlink:href="#DejaVuSans-33" x="127.246094"/>
     </g>
    </g>
   </g>
  </g>
  <g id="axes_2">
   <g id="patch_8">
    <path d="M 499.44375 318.56425 
L 870.40375 318.56425 
L 870.40375 31.43625 
L 499.44375 31.43625 
L 499.44375 318.56425 
z
" style="fill: none"/>
   </g>
   <g id="matplotlib.axis_3">
    <g id="xtick_21">
     <g id="line2d_79">
      <g>
       <use xlink:href="#md39032bed2" x="533.564449" y="318.56425" style="stroke: #000000; stroke-width: 0.8"/>
      </g>
     </g>
     <g id="text_37">
      <!-- $\mathdefault{10^{2}}$ -->
      <g transform="translate(520.364449 336.961906)scale(0.15 -0.15)">
       <use xlink:href="#DejaVuSans-31" transform="translate(0 0.765625)"/>
       <use xlink:href="#DejaVuSans-30" transform="translate(63.623047 0.765625)"/>
       <use xlink:href="#DejaVuSans-32" transform="translate(128.203125 39.046875)scale(0.7)"/>
      </g>
     </g>
    </g>
    <g id="xtick_22">
     <g id="line2d_80">
      <g>
       <use xlink:href="#md39032bed2" x="709.607655" y="318.56425" style="stroke: #000000; stroke-width: 0.8"/>
      </g>
     </g>
     <g id="text_38">
      <!-- $\mathdefault{10^{3}}$ -->
      <g transform="translate(696.407655 336.961906)scale(0.15 -0.15)">
       <use xlink:href="#DejaVuSans-31" transform="translate(0 0.765625)"/>
       <use xlink:href="#DejaVuSans-30" transform="translate(63.623047 0.765625)"/>
       <use xlink:href="#DejaVuSans-33" transform="translate(128.203125 39.046875)scale(0.7)"/>
      </g>
     </g>
    </g>
    <g id="xtick_23">
     <g id="line2d_81">
      <g>
       <use xlink:href="#m00e623f56d" x="506.295011" y="318.56425" style="stroke: #000000; stroke-width: 0.6"/>
      </g>
     </g>
    </g>
    <g id="xtick_24">
     <g id="line2d_82">
      <g>
       <use xlink:href="#m00e623f56d" x="516.504099" y="318.56425" style="stroke: #000000; stroke-width: 0.6"/>
      </g>
     </g>
    </g>
    <g id="xtick_25">
     <g id="line2d_83">
      <g>
       <use xlink:href="#m00e623f56d" x="525.509154" y="318.56425" style="stroke: #000000; stroke-width: 0.6"/>
      </g>
     </g>
    </g>
    <g id="xtick_26">
     <g id="line2d_84">
      <g>
       <use xlink:href="#m00e623f56d" x="586.558735" y="318.56425" style="stroke: #000000; stroke-width: 0.6"/>
      </g>
     </g>
    </g>
    <g id="xtick_27">
     <g id="line2d_85">
      <g>
       <use xlink:href="#m00e623f56d" x="617.558404" y="318.56425" style="stroke: #000000; stroke-width: 0.6"/>
      </g>
     </g>
    </g>
    <g id="xtick_28">
     <g id="line2d_86">
      <g>
       <use xlink:href="#m00e623f56d" x="639.55302" y="318.56425" style="stroke: #000000; stroke-width: 0.6"/>
      </g>
     </g>
    </g>
    <g id="xtick_29">
     <g id="line2d_87">
      <g>
       <use xlink:href="#m00e623f56d" x="656.61337" y="318.56425" style="stroke: #000000; stroke-width: 0.6"/>
      </g>
     </g>
    </g>
    <g id="xtick_30">
     <g id="line2d_88">
      <g>
       <use xlink:href="#m00e623f56d" x="670.55269" y="318.56425" style="stroke: #000000; stroke-width: 0.6"/>
      </g>
     </g>
    </g>
    <g id="xtick_31">
     <g id="line2d_89">
      <g>
       <use xlink:href="#m00e623f56d" x="682.338218" y="318.56425" style="stroke: #000000; stroke-width: 0.6"/>
      </g>
     </g>
    </g>
    <g id="xtick_32">
     <g id="line2d_90">
      <g>
       <use xlink:href="#m00e623f56d" x="692.547306" y="318.56425" style="stroke: #000000; stroke-width: 0.6"/>
      </g>
     </g>
    </g>
    <g id="xtick_33">
     <g id="line2d_91">
      <g>
       <use xlink:href="#m00e623f56d" x="701.55236" y="318.56425" style="stroke: #000000; stroke-width: 0.6"/>
      </g>
     </g>
    </g>
    <g id="xtick_34">
     <g id="line2d_92">
      <g>
       <use xlink:href="#m00e623f56d" x="762.601941" y="318.56425" style="stroke: #000000; stroke-width: 0.6"/>
      </g>
     </g>
    </g>
    <g id="xtick_35">
     <g id="line2d_93">
      <g>
       <use xlink:href="#m00e623f56d" x="793.601611" y="318.56425" style="stroke: #000000; stroke-width: 0.6"/>
      </g>
     </g>
    </g>
    <g id="xtick_36">
     <g id="line2d_94">
      <g>
       <use xlink:href="#m00e623f56d" x="815.596227" y="318.56425" style="stroke: #000000; stroke-width: 0.6"/>
      </g>
     </g>
    </g>
    <g id="xtick_37">
     <g id="line2d_95">
      <g>
       <use xlink:href="#m00e623f56d" x="832.656576" y="318.56425" style="stroke: #000000; stroke-width: 0.6"/>
      </g>
     </g>
    </g>
    <g id="xtick_38">
     <g id="line2d_96">
      <g>
       <use xlink:href="#m00e623f56d" x="846.595897" y="318.56425" style="stroke: #000000; stroke-width: 0.6"/>
      </g>
     </g>
    </g>
    <g id="xtick_39">
     <g id="line2d_97">
      <g>
       <use xlink:href="#m00e623f56d" x="858.381424" y="318.56425" style="stroke: #000000; stroke-width: 0.6"/>
      </g>
     </g>
    </g>
    <g id="xtick_40">
     <g id="line2d_98">
      <g>
       <use xlink:href="#m00e623f56d" x="868.590513" y="318.56425" style="stroke: #000000; stroke-width: 0.6"/>
      </g>
     </g>
    </g>
    <g id="text_39">
     <!-- Page Count -->
     <g transform="translate(627.839375 359.278312)scale(0.2 -0.2)">
      <use xlink:href="#DejaVuSans-50"/>
      <use xlink:href="#DejaVuSans-61" x="55.802734"/>
      <use xlink:href="#DejaVuSans-67" x="117.082031"/>
      <use xlink:href="#DejaVuSans-65" x="180.558594"/>
      <use xlink:href="#DejaVuSans-20" x="242.082031"/>
      <use xlink:href="#DejaVuSans-43" x="273.869141"/>
      <use xlink:href="#DejaVuSans-6f" x="343.693359"/>
      <use xlink:href="#DejaVuSans-75" x="404.875"/>
      <use xlink:href="#DejaVuSans-6e" x="468.253906"/>
      <use xlink:href="#DejaVuSans-74" x="531.632812"/>
     </g>
    </g>
   </g>
   <g id="matplotlib.axis_4">
    <g id="ytick_7">
     <g id="line2d_99">
      <g>
       <use xlink:href="#m6f3f5b6aff" x="499.44375" y="305.400961" style="stroke: #000000; stroke-width: 0.8"/>
      </g>
     </g>
     <g id="text_40">
      <!-- 0 -->
      <g transform="translate(482.9 311.09979)scale(0.15 -0.15)">
       <use xlink:href="#DejaVuSans-30"/>
      </g>
     </g>
    </g>
    <g id="ytick_8">
     <g id="line2d_100">
      <g>
       <use xlink:href="#m6f3f5b6aff" x="499.44375" y="258.096997" style="stroke: #000000; stroke-width: 0.8"/>
      </g>
     </g>
     <g id="text_41">
      <!-- 5 -->
      <g transform="translate(482.9 263.795825)scale(0.15 -0.15)">
       <use xlink:href="#DejaVuSans-35"/>
      </g>
     </g>
    </g>
    <g id="ytick_9">
     <g id="line2d_101">
      <g>
       <use xlink:href="#m6f3f5b6aff" x="499.44375" y="210.793032" style="stroke: #000000; stroke-width: 0.8"/>
      </g>
     </g>
     <g id="text_42">
      <!-- 10 -->
      <g transform="translate(473.35625 216.49186)scale(0.15 -0.15)">
       <use xlink:href="#DejaVuSans-31"/>
       <use xlink:href="#DejaVuSans-30" x="63.623047"/>
      </g>
     </g>
    </g>
    <g id="ytick_10">
     <g id="line2d_102">
      <g>
       <use xlink:href="#m6f3f5b6aff" x="499.44375" y="163.489067" style="stroke: #000000; stroke-width: 0.8"/>
      </g>
     </g>
     <g id="text_43">
      <!-- 15 -->
      <g transform="translate(473.35625 169.187895)scale(0.15 -0.15)">
       <use xlink:href="#DejaVuSans-31"/>
       <use xlink:href="#DejaVuSans-35" x="63.623047"/>
      </g>
     </g>
    </g>
    <g id="ytick_11">
     <g id="line2d_103">
      <g>
       <use xlink:href="#m6f3f5b6aff" x="499.44375" y="116.185102" style="stroke: #000000; stroke-width: 0.8"/>
      </g>
     </g>
     <g id="text_44">
      <!-- 20 -->
      <g transform="translate(473.35625 121.88393)scale(0.15 -0.15)">
       <use xlink:href="#DejaVuSans-32"/>
       <use xlink:href="#DejaVuSans-30" x="63.623047"/>
      </g>
     </g>
    </g>
    <g id="ytick_12">
     <g id="line2d_104">
      <g>
       <use xlink:href="#m6f3f5b6aff" x="499.44375" y="68.881137" style="stroke: #000000; stroke-width: 0.8"/>
      </g>
     </g>
     <g id="text_45">
      <!-- 25 -->
      <g transform="translate(473.35625 74.579965)scale(0.15 -0.15)">
       <use xlink:href="#DejaVuSans-32"/>
       <use xlink:href="#DejaVuSans-35" x="63.623047"/>
      </g>
     </g>
    </g>
    <g id="text_46">
     <!-- Count Difference -->
     <g transform="translate(465.196875 259.57525)rotate(-90)scale(0.2 -0.2)">
      <use xlink:href="#DejaVuSans-43"/>
      <use xlink:href="#DejaVuSans-6f" x="69.824219"/>
      <use xlink:href="#DejaVuSans-75" x="131.005859"/>
      <use xlink:href="#DejaVuSans-6e" x="194.384766"/>
      <use xlink:href="#DejaVuSans-74" x="257.763672"/>
      <use xlink:href="#DejaVuSans-20" x="296.972656"/>
      <use xlink:href="#DejaVuSans-44" x="328.759766"/>
      <use xlink:href="#DejaVuSans-69" x="405.761719"/>
      <use xlink:href="#DejaVuSans-66" x="433.544922"/>
      <use xlink:href="#DejaVuSans-66" x="468.75"/>
      <use xlink:href="#DejaVuSans-65" x="503.955078"/>
      <use xlink:href="#DejaVuSans-72" x="565.478516"/>
      <use xlink:href="#DejaVuSans-65" x="604.341797"/>
      <use xlink:href="#DejaVuSans-6e" x="665.865234"/>
      <use xlink:href="#DejaVuSans-63" x="729.244141"/>
      <use xlink:href="#DejaVuSans-65" x="784.224609"/>
     </g>
    </g>
   </g>
   <g id="line2d_105">
    <path d="M 499.44375 253.82015 
L 530.44342 251.040759 
L 552.438036 249.35617 
L 569.498385 248.149919 
L 583.437706 246.682739 
L 605.432321 224.026694 
L 636.431991 199.539702 
L 658.426607 190.928961 
L 689.426277 171.902928 
L 711.420893 165.887661 
L 742.420563 154.99318 
L 764.415179 153.443975 
L 795.414848 148.349716 
L 817.409464 139.883915 
L 848.409134 87.14832 
L 870.40375 64.957367 
" clip-path="url(#pdddb5b98ef)" style="fill: none; stroke: #1f77b4; stroke-width: 1.5; stroke-linecap: square"/>
   </g>
   <g id="line2d_106">
    <path d="M 499.44375 304.988566 
L 530.44342 304.968982 
L 552.438036 304.964535 
L 569.498385 304.947222 
L 583.437706 304.935869 
L 605.432321 304.758952 
L 636.431991 304.550342 
L 658.426607 304.484116 
L 689.426277 304.333122 
L 711.420893 304.287237 
L 742.420563 304.223471 
L 764.415179 304.219119 
L 795.414848 304.172572 
L 817.409464 304.092534 
L 848.409134 303.66642 
L 870.40375 303.477771 
" clip-path="url(#pdddb5b98ef)" style="fill: none; stroke: #ff7f0e; stroke-width: 1.5; stroke-linecap: square"/>
   </g>
   <g id="line2d_107">
    <path d="M 499.44375 305.400205 
L 530.44342 305.399637 
L 552.438036 305.397083 
L 569.498385 305.235114 
L 583.437706 305.076362 
L 605.432321 301.864422 
L 636.431991 298.132707 
L 658.426607 296.240454 
L 689.426277 294.147632 
L 711.420893 293.340437 
L 742.420563 292.27203 
L 764.415179 291.800977 
L 795.414848 291.291324 
L 817.409464 291.101919 
L 848.409134 290.731245 
L 870.40375 290.863129 
" clip-path="url(#pdddb5b98ef)" style="fill: none; stroke: #2ca02c; stroke-width: 1.5; stroke-linecap: square"/>
   </g>
   <g id="line2d_108">
    <path d="M 499.44375 305.402286 
L 530.44342 305.399732 
L 552.438036 305.403894 
L 569.498385 305.398029 
L 583.437706 305.40607 
L 605.432321 305.472958 
L 636.431991 305.409098 
L 658.426607 305.409098 
L 689.426277 305.405976 
L 711.420893 305.401529 
L 742.420563 305.417423 
L 764.415179 305.425181 
L 795.414848 305.354414 
L 817.409464 302.978715 
L 848.409134 300.578038 
L 870.40375 299.384938 
" clip-path="url(#pdddb5b98ef)" style="fill: none; stroke: #d62728; stroke-width: 1.5; stroke-linecap: square"/>
   </g>
   <g id="line2d_109">
    <path d="M 499.44375 305.400961 
L 530.44342 305.400867 
L 552.438036 305.400961 
L 569.498385 305.400961 
L 583.437706 305.400867 
L 605.432321 305.400867 
L 636.431991 305.400961 
L 658.426607 305.400867 
L 689.426277 305.400867 
L 711.420893 305.400867 
L 742.420563 305.400867 
L 764.415179 305.400961 
L 795.414848 305.379391 
L 817.409464 303.488178 
L 848.409134 302.190063 
L 870.40375 301.780505 
" clip-path="url(#pdddb5b98ef)" style="fill: none; stroke: #9467bd; stroke-width: 1.5; stroke-linecap: square"/>
   </g>
   <g id="line2d_110">
    <path d="M 499.44375 305.400488 
L 530.44342 305.39519 
L 552.438036 305.398596 
L 569.498385 305.401529 
L 583.437706 305.401245 
L 605.432321 305.40503 
L 636.431991 305.407489 
L 658.426607 305.410706 
L 689.426277 305.405881 
L 711.420893 305.401813 
L 742.420563 305.393204 
L 764.415179 305.400961 
L 795.414848 305.356212 
L 817.409464 302.97862 
L 848.409134 300.590148 
L 870.40375 299.378126 
" clip-path="url(#pdddb5b98ef)" style="fill: none; stroke: #8c564b; stroke-width: 1.5; stroke-linecap: square"/>
   </g>
   <g id="line2d_111">
    <path d="M 499.44375 235.864511 
L 530.44342 226.992369 
L 552.438036 229.369866 
L 569.498385 223.167465 
L 583.437706 222.063012 
L 605.432321 226.53721 
L 636.431991 221.804732 
L 658.426607 227.505806 
L 689.426277 213.387086 
L 711.420893 216.925707 
L 742.420563 177.020271 
L 764.415179 180.210451 
L 795.414848 200.157492 
L 817.409464 231.880477 
L 848.409134 260.46929 
L 870.40375 273.403235 
" clip-path="url(#pdddb5b98ef)" style="fill: none; stroke: #e377c2; stroke-width: 1.5; stroke-linecap: square"/>
   </g>
   <g id="line2d_112">
    <path d="M 499.44375 259.145158 
L 530.44342 256.310799 
L 552.438036 253.798674 
L 569.498385 252.641903 
L 583.437706 251.403769 
L 605.432321 227.651597 
L 636.431991 203.471986 
L 658.426607 194.791519 
L 689.426277 179.244977 
L 711.420893 174.885727 
L 742.420563 166.777922 
L 764.415179 166.011787 
L 795.414848 161.961811 
L 817.409464 147.117543 
L 848.409134 90.913337 
L 870.40375 66.126343 
" clip-path="url(#pdddb5b98ef)" style="fill: none; stroke: #7f7f7f; stroke-width: 1.5; stroke-linecap: square"/>
   </g>
   <g id="line2d_113">
    <path d="M 499.44375 299.76091 
L 530.44342 299.56668 
L 552.438036 299.85864 
L 569.498385 299.122117 
L 583.437706 299.336972 
L 605.432321 300.933007 
L 636.431991 300.958457 
L 658.426607 301.550419 
L 689.426277 302.343233 
L 711.420893 303.333684 
L 742.420563 303.86907 
L 764.415179 304.267464 
L 795.414848 304.7125 
L 817.409464 305.512977 
L 848.409134 304.601619 
L 870.40375 305.249589 
" clip-path="url(#pdddb5b98ef)" style="fill: none; stroke: #bcbd22; stroke-width: 1.5; stroke-linecap: square"/>
   </g>
   <g id="line2d_114">
    <path d="M 499.44375 271.643717 
L 530.44342 270.743428 
L 552.438036 272.552899 
L 569.498385 270.811072 
L 583.437706 269.432635 
L 605.432321 266.068566 
L 636.431991 251.306891 
L 658.426607 244.953306 
L 689.426277 229.843947 
L 711.420893 224.853284 
L 742.420563 215.34793 
L 764.415179 213.605252 
L 795.414848 208.606264 
L 817.409464 233.155603 
L 848.409134 256.022055 
L 870.40375 269.442474 
" clip-path="url(#pdddb5b98ef)" style="fill: none; stroke: #17becf; stroke-width: 1.5; stroke-linecap: square"/>
   </g>
   <g id="line2d_115">
    <path d="M 499.44375 254.560363 
L 530.44342 252.271513 
L 552.438036 250.513036 
L 569.498385 249.562983 
L 583.437706 248.025131 
L 605.432321 224.710426 
L 636.431991 199.86487 
L 658.426607 191.107581 
L 689.426277 172.01116 
L 711.420893 165.818125 
L 742.420563 154.831968 
L 764.415179 153.256841 
L 795.414848 147.078375 
L 817.409464 136.290895 
L 848.409134 84.685108 
L 870.40375 62.661517 
" clip-path="url(#pdddb5b98ef)" style="fill: none; stroke-dasharray: 5.55,2.4; stroke-dashoffset: 0; stroke: #1f77b4; stroke-width: 1.5"/>
   </g>
   <g id="line2d_116">
    <path d="M 499.44375 255.593481 
L 530.44342 255.068786 
L 552.438036 255.65649 
L 569.498385 254.333588 
L 583.437706 252.651837 
L 605.432321 240.015056 
L 636.431991 220.526579 
L 658.426607 212.968825 
L 689.426277 195.538733 
L 711.420893 190.06415 
L 742.420563 179.631829 
L 764.415179 178.000599 
L 795.414848 172.584484 
L 817.409464 195.019714 
L 848.409134 193.887541 
L 870.40375 195.887458 
" clip-path="url(#pdddb5b98ef)" style="fill: none; stroke-dasharray: 5.55,2.4; stroke-dashoffset: 0; stroke: #ff7f0e; stroke-width: 1.5"/>
   </g>
   <g id="line2d_117">
    <path d="M 499.44375 290.417809 
L 530.44342 291.569282 
L 552.438036 292.575154 
L 569.498385 292.135416 
L 583.437706 292.839488 
L 605.432321 295.408945 
L 636.431991 295.836289 
L 658.426607 296.892019 
L 689.426277 292.203061 
L 711.420893 290.877131 
L 742.420563 289.937485 
L 764.415179 290.306361 
L 795.414848 290.493022 
L 817.409464 296.275837 
L 848.409134 299.659585 
L 870.40375 303.007475 
" clip-path="url(#pdddb5b98ef)" style="fill: none; stroke-dasharray: 5.55,2.4; stroke-dashoffset: 0; stroke: #2ca02c; stroke-width: 1.5"/>
   </g>
   <g id="line2d_118">
    <path d="M 499.44375 291.138154 
L 530.44342 293.760686 
L 552.438036 294.989548 
L 569.498385 295.795891 
L 583.437706 296.528346 
L 605.432321 297.4696 
L 636.431991 298.058345 
L 658.426607 298.549928 
L 689.426277 298.516815 
L 711.420893 298.751254 
L 742.420563 298.775474 
L 764.415179 298.968095 
L 795.414848 298.972447 
L 817.409464 301.740959 
L 848.409134 301.802738 
L 870.40375 302.419771 
" clip-path="url(#pdddb5b98ef)" style="fill: none; stroke-dasharray: 5.55,2.4; stroke-dashoffset: 0; stroke: #d62728; stroke-width: 1.5"/>
   </g>
   <g id="line2d_119">
    <path d="M 499.44375 305.4038 
L 530.44342 305.392352 
L 552.438036 305.394623 
L 569.498385 305.242209 
L 583.437706 305.084498 
L 605.432321 301.798575 
L 636.431991 297.944721 
L 658.426607 295.952751 
L 689.426277 293.766173 
L 711.420893 293.002025 
L 742.420563 291.813749 
L 764.415179 291.382242 
L 795.414848 290.805702 
L 817.409464 290.679022 
L 848.409134 290.217335 
L 870.40375 290.427743 
" clip-path="url(#pdddb5b98ef)" style="fill: none; stroke-dasharray: 5.55,2.4; stroke-dashoffset: 0; stroke: #9467bd; stroke-width: 1.5"/>
   </g>
   <g id="line2d_120">
    <path d="M 499.44375 223.468791 
L 530.44342 230.943102 
L 552.438036 235.627897 
L 569.498385 234.025523 
L 583.437706 232.818515 
L 605.432321 214.282456 
L 636.431991 184.382755 
L 658.426607 175.588096 
L 689.426277 150.822957 
L 711.420893 149.951807 
L 742.420563 134.723147 
L 764.415179 134.525606 
L 795.414848 126.060845 
L 817.409464 114.624733 
L 848.409134 60.103886 
L 870.40375 44.487523 
" clip-path="url(#pdddb5b98ef)" style="fill: none; stroke-dasharray: 5.55,2.4; stroke-dashoffset: 0; stroke: #8c564b; stroke-width: 1.5"/>
   </g>
   <g id="line2d_121">
    <path d="M 499.44375 299.773776 
L 530.44342 300.437829 
L 552.438036 300.908315 
L 569.498385 301.052213 
L 583.437706 301.256756 
L 605.432321 301.652501 
L 636.431991 301.825066 
L 658.426607 301.964518 
L 689.426277 299.006695 
L 711.420893 297.912082 
L 742.420563 297.215294 
L 764.415179 297.030809 
L 795.414848 297.057015 
L 817.409464 300.85505 
L 848.409134 302.794324 
L 870.40375 303.726969 
" clip-path="url(#pdddb5b98ef)" style="fill: none; stroke-dasharray: 5.55,2.4; stroke-dashoffset: 0; stroke: #e377c2; stroke-width: 1.5"/>
   </g>
   <g id="line2d_122">
    <path d="M 499.44375 286.741061 
L 530.44342 288.724327 
L 552.438036 290.132377 
L 569.498385 289.996141 
L 583.437706 290.827745 
L 605.432321 293.281496 
L 636.431991 293.741007 
L 658.426607 294.75738 
L 689.426277 289.893113 
L 711.420893 288.540031 
L 742.420563 287.514102 
L 764.415179 287.876356 
L 795.414848 287.871815 
L 817.409464 293.491053 
L 848.409134 296.46458 
L 870.40375 299.994875 
" clip-path="url(#pdddb5b98ef)" style="fill: none; stroke-dasharray: 5.55,2.4; stroke-dashoffset: 0; stroke: #7f7f7f; stroke-width: 1.5"/>
   </g>
   <g id="line2d_123">
    <path d="M 499.44375 292.442986 
L 530.44342 294.65 
L 552.438036 295.725408 
L 569.498385 296.352281 
L 583.437706 296.956352 
L 605.432321 297.785496 
L 636.431991 298.240655 
L 658.426607 298.676419 
L 689.426277 298.587015 
L 711.420893 298.814168 
L 742.420563 298.814168 
L 764.415179 299.002533 
L 795.414848 298.998937 
L 817.409464 301.750136 
L 848.409134 301.798954 
L 870.40375 302.382022 
" clip-path="url(#pdddb5b98ef)" style="fill: none; stroke-dasharray: 5.55,2.4; stroke-dashoffset: 0; stroke: #bcbd22; stroke-width: 1.5"/>
   </g>
   <g id="line2d_124">
    <path d="M 499.44375 305.400961 
L 530.44342 305.400961 
L 552.438036 305.400961 
L 569.498385 305.400488 
L 583.437706 305.399921 
L 605.432321 305.399542 
L 636.431991 305.3687 
L 658.426607 305.397272 
L 689.426277 305.334168 
L 711.420893 305.385257 
L 742.420563 305.322532 
L 764.415179 305.382324 
L 795.414848 305.313071 
L 817.409464 305.381567 
L 848.409134 303.329994 
L 870.40375 302.694512 
" clip-path="url(#pdddb5b98ef)" style="fill: none; stroke-dasharray: 5.55,2.4; stroke-dashoffset: 0; stroke: #17becf; stroke-width: 1.5"/>
   </g>
   <g id="line2d_125">
    <path d="M 499.44375 258.572496 
L 530.44342 257.170217 
L 552.438036 255.667181 
L 569.498385 254.522331 
L 583.437706 252.718252 
L 605.432321 240.539941 
L 636.431991 219.654483 
L 658.426607 216.666765 
L 689.426277 194.451782 
L 711.420893 193.279495 
L 742.420563 178.536931 
L 764.415179 181.904784 
L 795.414848 172.338976 
L 817.409464 198.299203 
L 848.409134 187.978235 
L 870.40375 192.547135 
" clip-path="url(#pdddb5b98ef)" style="fill: none; stroke-dasharray: 9.6,2.4,1.5,2.4; stroke-dashoffset: 0; stroke: #1f77b4; stroke-width: 1.5"/>
   </g>
   <g id="line2d_126">
    <path d="M 499.44375 191.403893 
L 530.44342 203.397624 
L 552.438036 210.198421 
L 569.498385 215.781897 
L 583.437706 220.868965 
L 605.432321 228.929277 
L 636.431991 232.983322 
L 658.426607 237.647114 
L 689.426277 234.615592 
L 711.420893 235.481539 
L 742.420563 234.926001 
L 764.415179 236.841528 
L 795.414848 237.41892 
L 817.409464 274.670508 
L 848.409134 279.977446 
L 870.40375 286.296404 
" clip-path="url(#pdddb5b98ef)" style="fill: none; stroke-dasharray: 9.6,2.4,1.5,2.4; stroke-dashoffset: 0; stroke: #ff7f0e; stroke-width: 1.5"/>
   </g>
   <g id="line2d_127">
    <path d="M 499.44375 200.06998 
L 530.44342 210.524724 
L 552.438036 216.516054 
L 569.498385 221.570767 
L 583.437706 226.155373 
L 605.432321 231.465527 
L 636.431991 234.107169 
L 658.426607 238.372284 
L 689.426277 235.160628 
L 711.420893 235.820235 
L 742.420563 235.177942 
L 764.415179 237.023175 
L 795.414848 237.37663 
L 817.409464 272.517799 
L 848.409134 275.44336 
L 870.40375 280.472245 
" clip-path="url(#pdddb5b98ef)" style="fill: none; stroke-dasharray: 9.6,2.4,1.5,2.4; stroke-dashoffset: 0; stroke: #2ca02c; stroke-width: 1.5"/>
   </g>
   <g id="line2d_128">
    <path d="M 499.44375 242.455751 
L 530.44342 241.788671 
L 552.438036 242.549602 
L 569.498385 243.857179 
L 583.437706 244.925681 
L 605.432321 243.202113 
L 636.431991 241.52216 
L 658.426607 243.572787 
L 689.426277 240.217044 
L 711.420893 239.807486 
L 742.420563 238.866516 
L 764.415179 239.929436 
L 795.414848 240.350819 
L 817.409464 274.161991 
L 848.409134 276.348664 
L 870.40375 279.637708 
" clip-path="url(#pdddb5b98ef)" style="fill: none; stroke-dasharray: 9.6,2.4,1.5,2.4; stroke-dashoffset: 0; stroke: #d62728; stroke-width: 1.5"/>
   </g>
   <g id="line2d_129">
    <path d="M 499.44375 254.737658 
L 530.44342 252.466027 
L 552.438036 250.666017 
L 569.498385 249.781149 
L 583.437706 248.261272 
L 605.432321 224.737484 
L 636.431991 199.837623 
L 658.426607 191.059899 
L 689.426277 171.967924 
L 711.420893 165.776024 
L 742.420563 154.79895 
L 764.415179 153.271694 
L 795.414848 146.936274 
L 817.409464 135.368562 
L 848.409134 84.067885 
L 870.40375 62.17088 
" clip-path="url(#pdddb5b98ef)" style="fill: none; stroke-dasharray: 9.6,2.4,1.5,2.4; stroke-dashoffset: 0; stroke: #9467bd; stroke-width: 1.5"/>
   </g>
   <g id="line2d_130">
    <path d="M 499.44375 254.750052 
L 530.44342 252.436415 
L 552.438036 250.657218 
L 569.498385 249.769417 
L 583.437706 248.264678 
L 605.432321 224.753189 
L 636.431991 199.861842 
L 658.426607 191.065386 
L 689.426277 171.951841 
L 711.420893 165.795986 
L 742.420563 154.816263 
L 764.415179 153.245393 
L 795.414848 146.869954 
L 817.409464 135.470739 
L 848.409134 84.132881 
L 870.40375 62.293776 
" clip-path="url(#pdddb5b98ef)" style="fill: none; stroke-dasharray: 9.6,2.4,1.5,2.4; stroke-dashoffset: 0; stroke: #8c564b; stroke-width: 1.5"/>
   </g>
   <g id="line2d_131">
    <path d="M 499.44375 254.744943 
L 530.44342 252.456756 
L 552.438036 250.674437 
L 569.498385 249.779351 
L 583.437706 248.24727 
L 605.432321 224.72509 
L 636.431991 199.843677 
L 658.426607 191.071536 
L 689.426277 171.957612 
L 711.420893 165.789175 
L 742.420563 154.814749 
L 764.415179 153.227039 
L 795.414848 146.914325 
L 817.409464 135.513786 
L 848.409134 84.152181 
L 870.40375 62.333322 
" clip-path="url(#pdddb5b98ef)" style="fill: none; stroke-dasharray: 9.6,2.4,1.5,2.4; stroke-dashoffset: 0; stroke: #e377c2; stroke-width: 1.5"/>
   </g>
   <g id="line2d_132">
    <path d="M 499.44375 254.744943 
L 530.44342 252.460256 
L 552.438036 250.666679 
L 569.498385 249.796759 
L 583.437706 248.265246 
L 605.432321 224.730104 
L 636.431991 199.832135 
L 658.426607 191.010608 
L 689.426277 171.949192 
L 711.420893 165.790499 
L 742.420563 154.801788 
L 764.415179 153.253719 
L 795.414848 147.014799 
L 817.409464 135.51038 
L 848.409134 84.12588 
L 870.40375 62.275516 
" clip-path="url(#pdddb5b98ef)" style="fill: none; stroke-dasharray: 9.6,2.4,1.5,2.4; stroke-dashoffset: 0; stroke: #7f7f7f; stroke-width: 1.5"/>
   </g>
   <g id="line2d_133">
    <path d="M 499.44375 254.763108 
L 530.44342 252.478326 
L 552.438036 250.673301 
L 569.498385 249.774621 
L 583.437706 248.27991 
L 605.432321 224.74316 
L 636.431991 199.848408 
L 658.426607 191.051479 
L 689.426277 171.965843 
L 711.420893 165.782647 
L 742.420563 154.782488 
L 764.415179 153.254097 
L 795.414848 146.952168 
L 817.409464 135.522395 
L 848.409134 84.155587 
L 870.40375 62.293303 
" clip-path="url(#pdddb5b98ef)" style="fill: none; stroke-dasharray: 9.6,2.4,1.5,2.4; stroke-dashoffset: 0; stroke: #bcbd22; stroke-width: 1.5"/>
   </g>
   <g id="line2d_134">
    <path d="M 569.498385 318.56425 
L 569.498385 31.43625 
" clip-path="url(#pdddb5b98ef)" style="fill: none; stroke: #ff0000; stroke-width: 1.5; stroke-linecap: square"/>
   </g>
   <g id="line2d_135">
    <path d="M 795.414848 318.56425 
L 795.414848 31.43625 
" clip-path="url(#pdddb5b98ef)" style="fill: none; stroke: #008000; stroke-width: 1.5; stroke-linecap: square"/>
   </g>
   <g id="patch_9">
    <path d="M 499.44375 318.56425 
L 499.44375 31.43625 
" style="fill: none; stroke: #000000; stroke-width: 0.8; stroke-linejoin: miter; stroke-linecap: square"/>
   </g>
   <g id="patch_10">
    <path d="M 870.40375 318.56425 
L 870.40375 31.43625 
" style="fill: none; stroke: #000000; stroke-width: 0.8; stroke-linejoin: miter; stroke-linecap: square"/>
   </g>
   <g id="patch_11">
    <path d="M 499.44375 318.56425 
L 870.40375 318.56425 
" style="fill: none; stroke: #000000; stroke-width: 0.8; stroke-linejoin: miter; stroke-linecap: square"/>
   </g>
   <g id="patch_12">
    <path d="M 499.44375 31.43625 
L 870.40375 31.43625 
" style="fill: none; stroke: #000000; stroke-width: 0.8; stroke-linejoin: miter; stroke-linecap: square"/>
   </g>
   <g id="text_47">
    <!-- Fire Storm (Call) -->
    <g transform="translate(588.0425 25.43625)scale(0.24 -0.24)">
     <defs>
      <path id="DejaVuSans-46" d="M 628 4666 
L 3309 4666 
L 3309 4134 
L 1259 4134 
L 1259 2759 
L 3109 2759 
L 3109 2228 
L 1259 2228 
L 1259 0 
L 628 0 
L 628 4666 
z
" transform="scale(0.015625)"/>
     </defs>
     <use xlink:href="#DejaVuSans-46"/>
     <use xlink:href="#DejaVuSans-69" x="50.269531"/>
     <use xlink:href="#DejaVuSans-72" x="78.052734"/>
     <use xlink:href="#DejaVuSans-65" x="116.916016"/>
     <use xlink:href="#DejaVuSans-20" x="178.439453"/>
     <use xlink:href="#DejaVuSans-53" x="210.226562"/>
     <use xlink:href="#DejaVuSans-74" x="273.703125"/>
     <use xlink:href="#DejaVuSans-6f" x="312.912109"/>
     <use xlink:href="#DejaVuSans-72" x="374.09375"/>
     <use xlink:href="#DejaVuSans-6d" x="413.457031"/>
     <use xlink:href="#DejaVuSans-20" x="510.869141"/>
     <use xlink:href="#DejaVuSans-28" x="542.65625"/>
     <use xlink:href="#DejaVuSans-43" x="581.669922"/>
     <use xlink:href="#DejaVuSans-61" x="651.494141"/>
     <use xlink:href="#DejaVuSans-6c" x="712.773438"/>
     <use xlink:href="#DejaVuSans-6c" x="740.556641"/>
     <use xlink:href="#DejaVuSans-29" x="768.339844"/>
    </g>
   </g>
   <g id="legend_2">
    <g id="patch_13">
     <path d="M 505.04375 96.54875 
L 804.08375 96.54875 
Q 805.68375 96.54875 805.68375 94.94875 
L 805.68375 37.03625 
Q 805.68375 35.43625 804.08375 35.43625 
L 505.04375 35.43625 
Q 503.44375 35.43625 503.44375 37.03625 
L 503.44375 94.94875 
Q 503.44375 96.54875 505.04375 96.54875 
z
" style="fill: #ffffff; opacity: 0.8; stroke: #cccccc; stroke-linejoin: miter"/>
    </g>
    <g id="line2d_136">
     <path d="M 506.64375 41.915 
L 514.64375 41.915 
L 522.64375 41.915 
" style="fill: none; stroke: #1f77b4; stroke-width: 1.5; stroke-linecap: square"/>
    </g>
    <g id="text_48">
     <!-- 2 -->
     <g transform="translate(529.04375 44.715)scale(0.08 -0.08)">
      <use xlink:href="#DejaVuSans-32"/>
     </g>
    </g>
    <g id="line2d_137">
     <path d="M 506.64375 53.6575 
L 514.64375 53.6575 
L 522.64375 53.6575 
" style="fill: none; stroke: #ff7f0e; stroke-width: 1.5; stroke-linecap: square"/>
    </g>
    <g id="text_49">
     <!-- 3 -->
     <g transform="translate(529.04375 56.4575)scale(0.08 -0.08)">
      <use xlink:href="#DejaVuSans-33"/>
     </g>
    </g>
    <g id="line2d_138">
     <path d="M 506.64375 65.4 
L 514.64375 65.4 
L 522.64375 65.4 
" style="fill: none; stroke: #2ca02c; stroke-width: 1.5; stroke-linecap: square"/>
    </g>
    <g id="text_50">
     <!-- 4 -->
     <g transform="translate(529.04375 68.2)scale(0.08 -0.08)">
      <use xlink:href="#DejaVuSans-34"/>
     </g>
    </g>
    <g id="line2d_139">
     <path d="M 506.64375 77.1425 
L 514.64375 77.1425 
L 522.64375 77.1425 
" style="fill: none; stroke: #d62728; stroke-width: 1.5; stroke-linecap: square"/>
    </g>
    <g id="text_51">
     <!-- 7 -->
     <g transform="translate(529.04375 79.9425)scale(0.08 -0.08)">
      <use xlink:href="#DejaVuSans-37"/>
     </g>
    </g>
    <g id="line2d_140">
     <path d="M 506.64375 88.885 
L 514.64375 88.885 
L 522.64375 88.885 
" style="fill: none; stroke: #9467bd; stroke-width: 1.5; stroke-linecap: square"/>
    </g>
    <g id="text_52">
     <!-- 9 -->
     <g transform="translate(529.04375 91.685)scale(0.08 -0.08)">
      <use xlink:href="#DejaVuSans-39"/>
     </g>
    </g>
    <g id="line2d_141">
     <path d="M 550.13375 41.915 
L 558.13375 41.915 
L 566.13375 41.915 
" style="fill: none; stroke: #8c564b; stroke-width: 1.5; stroke-linecap: square"/>
    </g>
    <g id="text_53">
     <!-- 10 -->
     <g transform="translate(572.53375 44.715)scale(0.08 -0.08)">
      <use xlink:href="#DejaVuSans-31"/>
      <use xlink:href="#DejaVuSans-30" x="63.623047"/>
     </g>
    </g>
    <g id="line2d_142">
     <path d="M 550.13375 53.6575 
L 558.13375 53.6575 
L 566.13375 53.6575 
" style="fill: none; stroke: #e377c2; stroke-width: 1.5; stroke-linecap: square"/>
    </g>
    <g id="text_54">
     <!-- 58 -->
     <g transform="translate(572.53375 56.4575)scale(0.08 -0.08)">
      <use xlink:href="#DejaVuSans-35"/>
      <use xlink:href="#DejaVuSans-38" x="63.623047"/>
     </g>
    </g>
    <g id="line2d_143">
     <path d="M 550.13375 65.4 
L 558.13375 65.4 
L 566.13375 65.4 
" style="fill: none; stroke: #7f7f7f; stroke-width: 1.5; stroke-linecap: square"/>
    </g>
    <g id="text_55">
     <!-- 81 -->
     <g transform="translate(572.53375 68.2)scale(0.08 -0.08)">
      <use xlink:href="#DejaVuSans-38"/>
      <use xlink:href="#DejaVuSans-31" x="63.623047"/>
     </g>
    </g>
    <g id="line2d_144">
     <path d="M 550.13375 77.1425 
L 558.13375 77.1425 
L 566.13375 77.1425 
" style="fill: none; stroke: #bcbd22; stroke-width: 1.5; stroke-linecap: square"/>
    </g>
    <g id="text_56">
     <!-- 94 -->
     <g transform="translate(572.53375 79.9425)scale(0.08 -0.08)">
      <use xlink:href="#DejaVuSans-39"/>
      <use xlink:href="#DejaVuSans-34" x="63.623047"/>
     </g>
    </g>
    <g id="line2d_145">
     <path d="M 550.13375 88.885 
L 558.13375 88.885 
L 566.13375 88.885 
" style="fill: none; stroke: #17becf; stroke-width: 1.5; stroke-linecap: square"/>
    </g>
    <g id="text_57">
     <!-- 109 -->
     <g transform="translate(572.53375 91.685)scale(0.08 -0.08)">
      <use xlink:href="#DejaVuSans-31"/>
      <use xlink:href="#DejaVuSans-30" x="63.623047"/>
      <use xlink:href="#DejaVuSans-39" x="127.246094"/>
     </g>
    </g>
    <g id="line2d_146">
     <path d="M 603.80375 41.915 
L 611.80375 41.915 
L 619.80375 41.915 
" style="fill: none; stroke-dasharray: 5.55,2.4; stroke-dashoffset: 0; stroke: #1f77b4; stroke-width: 1.5"/>
    </g>
    <g id="text_58">
     <!-- 110 -->
     <g transform="translate(626.20375 44.715)scale(0.08 -0.08)">
      <use xlink:href="#DejaVuSans-31"/>
      <use xlink:href="#DejaVuSans-31" x="63.623047"/>
      <use xlink:href="#DejaVuSans-30" x="127.246094"/>
     </g>
    </g>
    <g id="line2d_147">
     <path d="M 603.80375 53.6575 
L 611.80375 53.6575 
L 619.80375 53.6575 
" style="fill: none; stroke-dasharray: 5.55,2.4; stroke-dashoffset: 0; stroke: #ff7f0e; stroke-width: 1.5"/>
    </g>
    <g id="text_59">
     <!-- 130 -->
     <g transform="translate(626.20375 56.4575)scale(0.08 -0.08)">
      <use xlink:href="#DejaVuSans-31"/>
      <use xlink:href="#DejaVuSans-33" x="63.623047"/>
      <use xlink:href="#DejaVuSans-30" x="127.246094"/>
     </g>
    </g>
    <g id="line2d_148">
     <path d="M 603.80375 65.4 
L 611.80375 65.4 
L 619.80375 65.4 
" style="fill: none; stroke-dasharray: 5.55,2.4; stroke-dashoffset: 0; stroke: #2ca02c; stroke-width: 1.5"/>
    </g>
    <g id="text_60">
     <!-- 210 -->
     <g transform="translate(626.20375 68.2)scale(0.08 -0.08)">
      <use xlink:href="#DejaVuSans-32"/>
      <use xlink:href="#DejaVuSans-31" x="63.623047"/>
      <use xlink:href="#DejaVuSans-30" x="127.246094"/>
     </g>
    </g>
    <g id="line2d_149">
     <path d="M 603.80375 77.1425 
L 611.80375 77.1425 
L 619.80375 77.1425 
" style="fill: none; stroke-dasharray: 5.55,2.4; stroke-dashoffset: 0; stroke: #d62728; stroke-width: 1.5"/>
    </g>
    <g id="text_61">
     <!-- 211 -->
     <g transform="translate(626.20375 79.9425)scale(0.08 -0.08)">
      <use xlink:href="#DejaVuSans-32"/>
      <use xlink:href="#DejaVuSans-31" x="63.623047"/>
      <use xlink:href="#DejaVuSans-31" x="127.246094"/>
     </g>
    </g>
    <g id="line2d_150">
     <path d="M 603.80375 88.885 
L 611.80375 88.885 
L 619.80375 88.885 
" style="fill: none; stroke-dasharray: 5.55,2.4; stroke-dashoffset: 0; stroke: #9467bd; stroke-width: 1.5"/>
    </g>
    <g id="text_62">
     <!-- 212 -->
     <g transform="translate(626.20375 91.685)scale(0.08 -0.08)">
      <use xlink:href="#DejaVuSans-32"/>
      <use xlink:href="#DejaVuSans-31" x="63.623047"/>
      <use xlink:href="#DejaVuSans-32" x="127.246094"/>
     </g>
    </g>
    <g id="line2d_151">
     <path d="M 657.47375 41.915 
L 665.47375 41.915 
L 673.47375 41.915 
" style="fill: none; stroke-dasharray: 5.55,2.4; stroke-dashoffset: 0; stroke: #8c564b; stroke-width: 1.5"/>
    </g>
    <g id="text_63">
     <!-- 214 -->
     <g transform="translate(679.87375 44.715)scale(0.08 -0.08)">
      <use xlink:href="#DejaVuSans-32"/>
      <use xlink:href="#DejaVuSans-31" x="63.623047"/>
      <use xlink:href="#DejaVuSans-34" x="127.246094"/>
     </g>
    </g>
    <g id="line2d_152">
     <path d="M 657.47375 53.6575 
L 665.47375 53.6575 
L 673.47375 53.6575 
" style="fill: none; stroke-dasharray: 5.55,2.4; stroke-dashoffset: 0; stroke: #e377c2; stroke-width: 1.5"/>
    </g>
    <g id="text_64">
     <!-- 217 -->
     <g transform="translate(679.87375 56.4575)scale(0.08 -0.08)">
      <use xlink:href="#DejaVuSans-32"/>
      <use xlink:href="#DejaVuSans-31" x="63.623047"/>
      <use xlink:href="#DejaVuSans-37" x="127.246094"/>
     </g>
    </g>
    <g id="line2d_153">
     <path d="M 657.47375 65.4 
L 665.47375 65.4 
L 673.47375 65.4 
" style="fill: none; stroke-dasharray: 5.55,2.4; stroke-dashoffset: 0; stroke: #7f7f7f; stroke-width: 1.5"/>
    </g>
    <g id="text_65">
     <!-- 218 -->
     <g transform="translate(679.87375 68.2)scale(0.08 -0.08)">
      <use xlink:href="#DejaVuSans-32"/>
      <use xlink:href="#DejaVuSans-31" x="63.623047"/>
      <use xlink:href="#DejaVuSans-38" x="127.246094"/>
     </g>
    </g>
    <g id="line2d_154">
     <path d="M 657.47375 77.1425 
L 665.47375 77.1425 
L 673.47375 77.1425 
" style="fill: none; stroke-dasharray: 5.55,2.4; stroke-dashoffset: 0; stroke: #bcbd22; stroke-width: 1.5"/>
    </g>
    <g id="text_66">
     <!-- 219 -->
     <g transform="translate(679.87375 79.9425)scale(0.08 -0.08)">
      <use xlink:href="#DejaVuSans-32"/>
      <use xlink:href="#DejaVuSans-31" x="63.623047"/>
      <use xlink:href="#DejaVuSans-39" x="127.246094"/>
     </g>
    </g>
    <g id="line2d_155">
     <path d="M 657.47375 88.885 
L 665.47375 88.885 
L 673.47375 88.885 
" style="fill: none; stroke-dasharray: 5.55,2.4; stroke-dashoffset: 0; stroke: #17becf; stroke-width: 1.5"/>
    </g>
    <g id="text_67">
     <!-- 223 -->
     <g transform="translate(679.87375 91.685)scale(0.08 -0.08)">
      <use xlink:href="#DejaVuSans-32"/>
      <use xlink:href="#DejaVuSans-32" x="63.623047"/>
      <use xlink:href="#DejaVuSans-33" x="127.246094"/>
     </g>
    </g>
    <g id="line2d_156">
     <path d="M 711.14375 41.915 
L 719.14375 41.915 
L 727.14375 41.915 
" style="fill: none; stroke-dasharray: 9.6,2.4,1.5,2.4; stroke-dashoffset: 0; stroke: #1f77b4; stroke-width: 1.5"/>
    </g>
    <g id="text_68">
     <!-- 224 -->
     <g transform="translate(733.54375 44.715)scale(0.08 -0.08)">
      <use xlink:href="#DejaVuSans-32"/>
      <use xlink:href="#DejaVuSans-32" x="63.623047"/>
      <use xlink:href="#DejaVuSans-34" x="127.246094"/>
     </g>
    </g>
    <g id="line2d_157">
     <path d="M 711.14375 53.6575 
L 719.14375 53.6575 
L 727.14375 53.6575 
" style="fill: none; stroke-dasharray: 9.6,2.4,1.5,2.4; stroke-dashoffset: 0; stroke: #ff7f0e; stroke-width: 1.5"/>
    </g>
    <g id="text_69">
     <!-- 234 -->
     <g transform="translate(733.54375 56.4575)scale(0.08 -0.08)">
      <use xlink:href="#DejaVuSans-32"/>
      <use xlink:href="#DejaVuSans-33" x="63.623047"/>
      <use xlink:href="#DejaVuSans-34" x="127.246094"/>
     </g>
    </g>
    <g id="line2d_158">
     <path d="M 711.14375 65.4 
L 719.14375 65.4 
L 727.14375 65.4 
" style="fill: none; stroke-dasharray: 9.6,2.4,1.5,2.4; stroke-dashoffset: 0; stroke: #2ca02c; stroke-width: 1.5"/>
    </g>
    <g id="text_70">
     <!-- 235 -->
     <g transform="translate(733.54375 68.2)scale(0.08 -0.08)">
      <use xlink:href="#DejaVuSans-32"/>
      <use xlink:href="#DejaVuSans-33" x="63.623047"/>
      <use xlink:href="#DejaVuSans-35" x="127.246094"/>
     </g>
    </g>
    <g id="line2d_159">
     <path d="M 711.14375 77.1425 
L 719.14375 77.1425 
L 727.14375 77.1425 
" style="fill: none; stroke-dasharray: 9.6,2.4,1.5,2.4; stroke-dashoffset: 0; stroke: #d62728; stroke-width: 1.5"/>
    </g>
    <g id="text_71">
     <!-- 236 -->
     <g transform="translate(733.54375 79.9425)scale(0.08 -0.08)">
      <use xlink:href="#DejaVuSans-32"/>
      <use xlink:href="#DejaVuSans-33" x="63.623047"/>
      <use xlink:href="#DejaVuSans-36" x="127.246094"/>
     </g>
    </g>
    <g id="line2d_160">
     <path d="M 711.14375 88.885 
L 719.14375 88.885 
L 727.14375 88.885 
" style="fill: none; stroke-dasharray: 9.6,2.4,1.5,2.4; stroke-dashoffset: 0; stroke: #9467bd; stroke-width: 1.5"/>
    </g>
    <g id="text_72">
     <!-- 245 -->
     <g transform="translate(733.54375 91.685)scale(0.08 -0.08)">
      <use xlink:href="#DejaVuSans-32"/>
      <use xlink:href="#DejaVuSans-34" x="63.623047"/>
      <use xlink:href="#DejaVuSans-35" x="127.246094"/>
     </g>
    </g>
    <g id="line2d_161">
     <path d="M 764.81375 41.915 
L 772.81375 41.915 
L 780.81375 41.915 
" style="fill: none; stroke-dasharray: 9.6,2.4,1.5,2.4; stroke-dashoffset: 0; stroke: #8c564b; stroke-width: 1.5"/>
    </g>
    <g id="text_73">
     <!-- 246 -->
     <g transform="translate(787.21375 44.715)scale(0.08 -0.08)">
      <use xlink:href="#DejaVuSans-32"/>
      <use xlink:href="#DejaVuSans-34" x="63.623047"/>
      <use xlink:href="#DejaVuSans-36" x="127.246094"/>
     </g>
    </g>
    <g id="line2d_162">
     <path d="M 764.81375 53.6575 
L 772.81375 53.6575 
L 780.81375 53.6575 
" style="fill: none; stroke-dasharray: 9.6,2.4,1.5,2.4; stroke-dashoffset: 0; stroke: #e377c2; stroke-width: 1.5"/>
    </g>
    <g id="text_74">
     <!-- 247 -->
     <g transform="translate(787.21375 56.4575)scale(0.08 -0.08)">
      <use xlink:href="#DejaVuSans-32"/>
      <use xlink:href="#DejaVuSans-34" x="63.623047"/>
      <use xlink:href="#DejaVuSans-37" x="127.246094"/>
     </g>
    </g>
    <g id="line2d_163">
     <path d="M 764.81375 65.4 
L 772.81375 65.4 
L 780.81375 65.4 
" style="fill: none; stroke-dasharray: 9.6,2.4,1.5,2.4; stroke-dashoffset: 0; stroke: #7f7f7f; stroke-width: 1.5"/>
    </g>
    <g id="text_75">
     <!-- 248 -->
     <g transform="translate(787.21375 68.2)scale(0.08 -0.08)">
      <use xlink:href="#DejaVuSans-32"/>
      <use xlink:href="#DejaVuSans-34" x="63.623047"/>
      <use xlink:href="#DejaVuSans-38" x="127.246094"/>
     </g>
    </g>
    <g id="line2d_164">
     <path d="M 764.81375 77.1425 
L 772.81375 77.1425 
L 780.81375 77.1425 
" style="fill: none; stroke-dasharray: 9.6,2.4,1.5,2.4; stroke-dashoffset: 0; stroke: #bcbd22; stroke-width: 1.5"/>
    </g>
    <g id="text_76">
     <!-- 253 -->
     <g transform="translate(787.21375 79.9425)scale(0.08 -0.08)">
      <use xlink:href="#DejaVuSans-32"/>
      <use xlink:href="#DejaVuSans-35" x="63.623047"/>
      <use xlink:href="#DejaVuSans-33" x="127.246094"/>
     </g>
    </g>
   </g>
  </g>
 </g>
 <defs>
  <clipPath id="p7e817589b7">
   <rect x="56.64375" y="31.43625" width="370.96" height="287.128"/>
  </clipPath>
  <clipPath id="pdddb5b98ef">
   <rect x="499.44375" y="31.43625" width="370.96" height="287.128"/>
  </clipPath>
 </defs>
</svg>
